<?xml version="1.0" standalone="no"?><!DOCTYPE svg PUBLIC "-//W3C//DTD SVG 1.1//EN" "http://www.w3.org/Graphics/SVG/1.1/DTD/svg11.dtd"><svg t="1763962012603" class="icon" viewBox="0 0 1024 1024" version="1.1" xmlns="http://www.w3.org/2000/svg" p-id="24670" xmlns:xlink="http://www.w3.org/1999/xlink" width="200" height="200"><path d="M473.84 663.08h43.94l-21.97-76.91-21.97 76.91z m261.63-25.95c-2.69-8.54-6.47-15.21-11.31-20-4.85-4.79-11-8.03-18.45-9.72-5.57-1.31-16.48-1.97-32.72-1.97h-17.91v136.75h29.76c11.13 0 19.17-0.66 24.11-1.97 6.46-1.69 11.83-4.55 16.09-8.59s7.74-10.68 10.44-19.93c2.69-9.25 4.04-21.85 4.04-37.81-0.02-15.96-1.36-28.22-4.05-36.76z m-126.2-503.39H191.94v756.51h640.12V356.53L609.27 133.74z m-230.4 471.63h-37.7c-11.13 0-19.17 0.66-24.11 1.97-6.46 1.69-11.83 4.55-16.09 8.59s-7.74 10.68-10.44 19.93c-2.69 9.25-4.04 21.85-4.04 37.81s1.35 28.21 4.04 36.76c2.69 8.54 6.47 15.21 11.31 20 4.85 4.79 11 8.03 18.45 9.72 5.57 1.31 16.48 1.97 32.72 1.97h25.84v34.93h-40.93c-16.43 0-28.95-1.32-37.57-3.94-11.58-3.57-21.5-9.91-29.76-19.01-8.26-9.11-14.55-20.26-18.86-33.45s-6.46-29.46-6.46-48.8c0-17 2.02-31.64 6.06-43.94 4.94-15.02 11.99-27.18 21.14-36.48 6.91-7.04 16.25-12.54 28.01-16.48 8.8-2.91 20.56-4.37 35.28-4.37h43.08v34.79z m171.44 171.61l-22.42-78.48h-64.17l-22.42 78.48h-34.28l60.74-212.66h56.08l60.74 212.66h-34.27z m60.53-494.12l0.13-87.29 162.69 162.69v0.13H610.84v-75.53z m163.81 436.8c-4.94 15.02-11.99 27.18-21.14 36.48-6.91 7.04-16.25 12.54-28.01 16.48-8.8 2.91-20.56 4.37-35.28 4.37H615.2V570.51h72.86c16.43 0 28.95 1.32 37.57 3.94 11.58 3.57 21.5 9.91 29.76 19.01 8.26 9.11 14.55 20.26 18.86 33.45s6.46 29.46 6.46 48.8c0.01 17-2.01 31.65-6.06 43.95z" fill="#4CA6FF" p-id="24671"></path></svg>