<?xml version="1.0" standalone="no"?><!DOCTYPE svg PUBLIC "-//W3C//DTD SVG 1.1//EN" "http://www.w3.org/Graphics/SVG/1.1/DTD/svg11.dtd"><svg t="1763606695869" class="icon" viewBox="0 0 1024 1024" version="1.1" xmlns="http://www.w3.org/2000/svg" p-id="5626" xmlns:xlink="http://www.w3.org/1999/xlink" width="200" height="200"><path d="M54.126 54.638v914.724h914.797V54.638H54.126z m853.504 61.367v195.584H115.493V116.005H907.63z m-792.137 791.99V373.03H907.63v535.04H115.493z m54.637-722.432h85.358v61.367H170.13v-61.293z m170.643 0h85.357v61.367h-85.357v-61.293z m170.861 0h85.212v61.367h-85.212v-61.293zM385.83 539.867l-70.656-4.169-96.476 147.456L316.49 829.44h73.874l-98.011-146.578 93.623-142.921z m252.05 0l93.476 142.922-96.402 144.31 72.265 2.195 97.72-146.286-96.55-147.31-70.51 4.17zM423.205 862.501h64.292L599.04 505.198l-63.415-2.414-112.42 359.717z" p-id="5627"></path></svg>