<?xml version="1.0" standalone="no"?><!DOCTYPE svg PUBLIC "-//W3C//DTD SVG 1.1//EN" "http://www.w3.org/Graphics/SVG/1.1/DTD/svg11.dtd"><svg t="1763951451121" class="icon" viewBox="0 0 1454 1024" version="1.1" xmlns="http://www.w3.org/2000/svg" p-id="3453" xmlns:xlink="http://www.w3.org/1999/xlink" width="283.984375" height="200"><path d="M1441.586623 677.683134a158.105537 158.105537 0 0 0-40.959983 153.190338 41.983983 41.983983 0 0 1-10.854396 40.959984l-89.292764 88.063965a42.598383 42.598383 0 0 1-40.959984 10.854395 160.563136 160.563136 0 0 0-154.419138 40.959984 43.007983 43.007983 0 0 1-29.900788 12.287995 40.959984 40.959984 0 0 1-10.854396-1.433599l-121.446351-32.358387a40.959984 40.959984 0 0 1-29.900788-29.695988 159.948736 159.948736 0 0 0-113.049555-112.230356 40.959984 40.959984 0 0 1-15.974394-8.806396h-124.10875v97.075161h147.251141a41.779183 41.779183 0 1 1 0 83.558367H428.851028a41.779183 41.779183 0 1 1 0-83.558367h147.251142V839.679869H107.724757A107.519957 107.519957 0 0 1 0 732.774312V106.905762A107.519957 107.519957 0 0 1 107.724757 0.000205h1020.927592a107.519957 107.519957 0 0 1 107.724756 106.905557v235.519906l11.059196 2.867199a40.959984 40.959984 0 0 1 29.900788 29.695988 159.743936 159.743936 0 0 0 113.049555 112.230355 42.188783 42.188783 0 0 1 29.900788 29.695988l32.563187 120.627152a40.959984 40.959984 0 0 1-11.263996 40.140784zM84.172766 732.774312a23.347191 23.347191 0 0 0 23.347191 23.34719H753.663699l-8.191997-30.105588H84.172766zM1151.999539 106.905762a23.347191 23.347191 0 0 0-23.34719-23.347191H107.724757a23.347191 23.347191 0 0 0-23.347191 23.347191v552.959779H747.519701v-1.2288a158.105537 158.105537 0 0 0 40.959984-153.190338 41.983983 41.983983 0 0 1 10.854395-40.959984l88.883165-88.268765a42.598383 42.598383 0 0 1 40.959983-10.854395 160.563136 160.563136 0 0 0 154.419139-40.959984 42.393583 42.393583 0 0 1 40.959983-10.854396l26.00959 6.963198z m192.307123 453.631819a244.531102 244.531102 0 0 1-141.107143-140.083144l-77.414369-20.479992a245.759902 245.759902 0 0 1-192.511923 51.199979l-56.524778 56.115178a242.073503 242.073503 0 0 1-51.609579 191.283123l16.793593 62.463975a40.959984 40.959984 0 0 1 19.251193 20.479992 243.097503 243.097503 0 0 1 125.542349 133.324747l77.414369 20.479992a245.759902 245.759902 0 0 1 192.511923-51.19998l56.524778-56.115177a242.073503 242.073503 0 0 1 51.609579-191.283124z m-245.759901 261.529495a152.371139 152.371139 0 1 1 153.395138-152.371139 153.190339 153.190339 0 0 1-152.575939 152.371139z m0-221.183912a68.812772 68.812772 0 1 0 69.222372 68.812773 69.017572 69.017572 0 0 0-68.403173-68.812773z m-386.457446-143.359942a74.34237 74.34237 0 0 1-104.857558 0l-94.617562-94.003163-239.820704 237.977505a42.598383 42.598383 0 0 1-59.596776 0 40.959984 40.959984 0 0 1 0-59.187176L460.799816 296.960086a74.54717 74.54717 0 0 1 105.062358 0l94.617562 94.003162L911.359635 141.926548a42.393583 42.393583 0 0 1 59.596777 0 40.959984 40.959984 0 0 1 0 59.187176z" fill="#231815" p-id="3454"></path></svg>