<?xml version="1.0" standalone="no"?><!DOCTYPE svg PUBLIC "-//W3C//DTD SVG 1.1//EN" "http://www.w3.org/Graphics/SVG/1.1/DTD/svg11.dtd"><svg t="1763363996382" class="icon" viewBox="0 0 1024 1024" version="1.1" xmlns="http://www.w3.org/2000/svg" p-id="6774" xmlns:xlink="http://www.w3.org/1999/xlink" width="200" height="200"><path d="M512.2 62.7c-246.7 0-446.7 200-446.7 446.7C65.5 756 265.5 956 512.2 956s446.7-200 446.7-446.7c0-246.6-200-446.6-446.7-446.6z m0 831.3c-212.1 0-384.6-172.5-384.6-384.6s172.5-384.6 384.6-384.6 384.6 172.5 384.6 384.6S724.3 894 512.2 894z" p-id="6775"></path><path d="M441.1 632.4L339 489.5l86.3-100.7c5.7-6.7 7.1-16.1 3.4-24.2-3.7-8-11.7-13.2-20.5-13.2h-15.1L269.6 497.2h-3.7V379.5c0.3-10.2-4.9-19.8-13.7-25-8.8-5.2-19.7-5.2-28.5 0s-14.1 14.8-13.7 25v260.7c0 7.4 3 14.6 8.2 19.8 5.3 5.3 12.4 8.2 19.8 8.2 15.5 0 28-12.6 28-28v-72.9l33.5-38.9 99 139.8h24.4c8.5 0 16.2-4.7 20.1-12.3 3.7-7.5 3-16.6-1.9-23.5z" p-id="6776"></path><path d="M346.9 489.9l83.2-97c7.3-8.5 9-20.6 4.3-30.8s-15-16.8-26.2-16.8h-18L272.1 484.7v-105c0.4-12.5-6-24.2-16.8-30.5-10.8-6.4-24.1-6.3-34.9 0-10.7 6.4-17.2 18.1-16.8 30.3v260.7c0 9 3.6 17.8 10 24.2 6.5 6.5 15.1 10 24.2 10 18.8 0 34.2-15.4 34.2-34.2v-70.6l26.8-31.1 96.3 136h27.6c10.8 0 20.6-6 25.6-15.6s4.1-21.1-2.2-29.9l-99.2-139.1z m95.9 166c-3.9 7.5-11.6 12.3-20.1 12.3h-24.4l-99-139.8-33.5 38.9v72.9c0 15.5-12.5 28-28 28-7.4 0-14.6-2.9-19.8-8.2-5.3-5.3-8.2-12.4-8.2-19.8V379.5c-0.3-10.2 4.9-19.8 13.7-25 8.8-5.2 19.7-5.2 28.5 0s14.1 14.8 13.7 25v117.7h3.7l123.5-145.8H408c8.8 0 16.8 5.2 20.5 13.2 3.7 8 2.4 17.5-3.4 24.2L339 489.5l102.1 142.9c4.9 6.9 5.6 16 1.7 23.5z m174.7-310.7H513.8c-15.9 0-28.8 12.9-28.8 28.8v266.3c0.6 18.6 15.6 33.1 34.2 33.1s33.6-14.5 34.2-33.3v-69.6h61.8c67.1 0 113.9-46.1 113.9-112-0.1-66.7-45.9-113.3-111.6-113.3z m-77.8 301.4c0.7-2.1 1.1-4.3 1.2-6.6 0 2.3-0.4 4.5-1.2 6.6z m62.8-123H541V392.7h61.8c44.1 0 69.4 24 69.4 65.9-0.1 40.7-26.1 65-69.7 65z m103.6-5c-2 3.2-4.3 6.2-6.7 9.1 2.5-2.9 4.7-6 6.7-9.1z" p-id="6777"></path><path d="M602.7 398.9h-55.6v118.5h55.4c39.9 0 63.4-21.1 63.4-58.8 0-38.9-22.8-59.7-63.2-59.7z m-0.2 112.3h-49.2V405.1h49.4c37.3 0 57 18.5 57 53.5 0 33.9-20.3 52.6-57.2 52.6z m184-165.1c-18.6 0-33.6 14.5-34.2 33.3v260.7c0 18.8 15.3 34.2 34.2 34.2 9.1 0 17.7-3.6 24.2-10 6.4-6.4 10-15.2 10-24.2V379.3c-0.5-18.6-15.6-33.2-34.2-33.2z" p-id="6778"></path><path d="M602.7 392.7H541v130.9h61.6c43.6 0 69.6-24.3 69.6-65-0.1-41.9-25.4-65.9-69.5-65.9z m-0.2 124.7h-55.4V398.9h55.6c40.4 0 63.2 20.8 63.2 59.7 0 37.7-23.4 58.8-63.4 58.8z" p-id="6779"></path></svg>