<?xml version="1.0" standalone="no"?><!DOCTYPE svg PUBLIC "-//W3C//DTD SVG 1.1//EN" "http://www.w3.org/Graphics/SVG/1.1/DTD/svg11.dtd"><svg t="1761983274886" class="icon" viewBox="0 0 1024 1024" version="1.1" xmlns="http://www.w3.org/2000/svg" p-id="4042" xmlns:xlink="http://www.w3.org/1999/xlink" width="200" height="200"><path d="M992 128H576v128h416a32 32 0 0 0 32-32V160a32 32 0 0 0-32-32zM32 256h352V128H32A32 32 0 0 0 0 160v64a32 32 0 0 0 32 32z m0 320h608v-128H32a32 32 0 0 0-32 32v64a32 32 0 0 0 32 32z m960-128h-160v128h160a32 32 0 0 0 32-32v-64a32 32 0 0 0-32-32z m0 320H320v128h672a32 32 0 0 0 32-32v-64a32 32 0 0 0-32-32zM0 800v64a32 32 0 0 0 32 32h96v-128H32a32 32 0 0 0-32 32z" opacity=".4" p-id="4043"></path><path d="M544 64h-64a32 32 0 0 0-32 32v192a32 32 0 0 0 32 32h64a32 32 0 0 0 32-32V96a32 32 0 0 0-32-32z m256 320h-64a32 32 0 0 0-32 32v192a32 32 0 0 0 32 32h64a32 32 0 0 0 32-32v-192a32 32 0 0 0-32-32zM288 704h-64a32 32 0 0 0-32 32v192a32 32 0 0 0 32 32h64a32 32 0 0 0 32-32v-192a32 32 0 0 0-32-32z" p-id="4044"></path></svg>