<?xml version="1.0" standalone="no"?><!DOCTYPE svg PUBLIC "-//W3C//DTD SVG 1.1//EN" "http://www.w3.org/Graphics/SVG/1.1/DTD/svg11.dtd"><svg t="1763042596555" class="icon" viewBox="0 0 1024 1024" version="1.1" xmlns="http://www.w3.org/2000/svg" p-id="6783" xmlns:xlink="http://www.w3.org/1999/xlink" width="200" height="200"><path d="M511.488 914.578286c46.445714 0 88.941714-10.971429 127.488-32.768a249.563429 249.563429 0 0 0 92.16-89.6c22.893714-37.888 34.304-79.725714 34.304-125.44V160.914286a36.790857 36.790857 0 0 0-11.776-27.648 39.277714 39.277714 0 0 0-28.16-11.264 37.595429 37.595429 0 0 0-27.648 11.264 37.595429 37.595429 0 0 0-11.264 27.648v505.856c0 31.451429-7.826286 60.928-23.552 88.576a179.931429 179.931429 0 0 1-64 66.048 165.595429 165.595429 0 0 1-87.552 24.576c-31.451429 0-60.416-8.192-87.04-24.576a181.394286 181.394286 0 0 1-63.488-66.048 176.493714 176.493714 0 0 1-23.552-88.576V160.914286a37.595429 37.595429 0 0 0-11.264-27.648 37.595429 37.595429 0 0 0-27.648-11.264 39.277714 39.277714 0 0 0-28.16 11.264 36.790857 36.790857 0 0 0-11.776 27.648v505.856c0 45.714286 11.264 87.552 33.792 125.44 22.528 37.888 53.248 67.730286 92.16 89.6 38.912 21.869714 81.188571 32.768 126.976 32.768z" fill="#303133" p-id="6784"></path></svg>