<?xml version="1.0" standalone="no"?><!DOCTYPE svg PUBLIC "-//W3C//DTD SVG 1.1//EN" "http://www.w3.org/Graphics/SVG/1.1/DTD/svg11.dtd"><svg t="1763951738701" class="icon" viewBox="0 0 1024 1024" version="1.1" xmlns="http://www.w3.org/2000/svg" p-id="6223" xmlns:xlink="http://www.w3.org/1999/xlink" width="200" height="200"><path d="M855.466667 938.666667H192C86.4 938.666667 0 852.266667 0 746.666667V277.333333C0 171.733333 86.4 85.333333 192 85.333333h640c105.6 0 192 86.4 192 192v203.733334c0 35.2-28.8 64-64 64s-64-28.8-64-64V277.333333c0-35.2-28.8-64-64-64H192c-35.2 0-64 28.8-64 64v469.333334c0 35.2 28.8 64 64 64h663.466667c35.2 0 64 28.8 64 64s-27.733333 64-64 64z m-128-649.6c12.8 12.8 12.8 33.066667 0 45.866666L325.333333 747.733333c-12.8 12.8-32 12.8-44.8 0-12.8-12.8-12.8-33.066667 0-45.866666L682.666667 289.066667c11.733333-11.733333 32-11.733333 44.8 0zM602.666667 572.8l73.066666 73.066667-72 72c-12.8 11.733333-12.8 32 0 44.8 11.733333 12.8 32 12.8 44.8 0l72-72 0.533334 0.533333 0.533333-0.533333 73.066667 73.066666c6.4 6.4 13.866667 9.6 22.4 9.6 7.466667 0 16-3.2 23.466666-10.666666 12.8-11.733333 12.8-32 0-44.8l-73.066666-73.066667 70.933333-70.933333c12.8-11.733333 12.8-32 0-44.8-11.733333-12.8-32-12.8-44.8 0l-70.933333 70.933333-0.533334-0.533333-1.6 1.6-73.066666-73.066667c-11.733333-12.8-32-12.8-44.8 0-12.8 11.733333-12.8 32 0 44.8z m-262.4-73.6h2.133333c10.666667 0 22.4-5.333333 30.933333-12.8l171.733334-181.333333c12.8-12.8 11.733333-33.066667-1.066667-44.8-12.8-12.8-33.066667-11.733333-44.8 1.066666L344.533333 424.533333l-55.466666-69.333333c-10.666667-13.866667-30.933333-16-44.8-5.333333-13.866667 10.666667-16 30.933333-5.333334 44.8l70.4 88.533333c7.466667 9.6 19.2 16 30.933334 16z" fill="#474C66" p-id="6224"></path></svg>