<?xml version="1.0" standalone="no"?><!DOCTYPE svg PUBLIC "-//W3C//DTD SVG 1.1//EN" "http://www.w3.org/Graphics/SVG/1.1/DTD/svg11.dtd"><svg t="1761817147888" class="icon" viewBox="0 0 1024 1024" version="1.1" xmlns="http://www.w3.org/2000/svg" p-id="32048" xmlns:xlink="http://www.w3.org/1999/xlink" width="200" height="200"><path d="M678.7072 750.46912H159.25248A142.1312 142.1312 0 0 1 17.2032 608.4608V238.87872a142.1312 142.1312 0 0 1 142.00832-142.00832h653.7216a142.1312 142.1312 0 0 1 142.00832 142.00832v180.6336a28.2624 28.2624 0 0 1-56.5248 0v-180.6336c0-47.104-38.33856-85.44256-85.44256-85.44256H159.25248c-47.14496 0-85.48352 38.2976-85.48352 85.44256v369.58208c0 47.104 38.33856 85.44256 85.44256 85.44256h519.53664a28.2624 28.2624 0 0 1 0 56.5248M669.9008 927.1296H302.2848a37.2736 37.2736 0 0 1-31.9488-18.30912 37.23264 37.23264 0 0 1-0.45056-36.78208l2.70336-4.01408 82.5344-102.4a28.2624 28.2624 0 1 1 43.99104 35.51232l-55.95136 69.4272h285.94176l-55.95136-69.4272a28.2624 28.2624 0 0 1 43.99104-35.47136l85.1968 106.37312a37.23264 37.23264 0 0 1-0.4096 36.78208 37.2736 37.2736 0 0 1-31.9488 18.30912" p-id="32049"></path><path d="M715.5712 492.66688a25.14944 25.14944 0 1 1 0.04096-0.08192v0.08192z m-134.63552-174.94016a32.23552 32.23552 0 1 1 0-64.47104 32.23552 32.23552 0 0 1 0 64.47104z m-79.33952 213.15584a53.82144 53.82144 0 1 1-107.64288 0 53.82144 53.82144 0 0 1 107.64288 0zM306.46272 396.0832a25.14944 25.14944 0 1 1 25.14944-25.14944 25.14944 25.14944 0 0 1-25.14944 25.14944z m407.87968 23.47008a47.9232 47.9232 0 0 0-15.72864 2.8672l-71.2704-107.1104a55.00928 55.00928 0 1 0-101.376-29.4912c0.12288 13.27104 4.99712 26.09152 13.7216 36.08576l-71.8848 132.01408a82.00192 82.00192 0 0 0-20.35712-3.15392 76.5952 76.5952 0 0 0-42.35264 12.57472L347.3408 394.28096a46.77632 46.77632 0 0 0-27.8528-67.25632 47.104 47.104 0 1 0 4.75136 88.4736l58.1632 69.46816a78.68416 78.68416 0 1 0 113.50016-17.03936l70.4512-129.4336c4.75136 1.35168 9.66656 2.12992 14.58176 2.29376 7.74144 0 15.36-1.59744 22.36416-4.79232l70.98368 106.20928a47.26784 47.26784 0 1 0 40.96-22.7328h-0.90112zM784.50688 618.20928l-60.86656-53.8624a4.75136 4.75136 0 0 0-7.33184 1.31072l-35.75808 65.86368a3.19488 3.19488 0 0 0 3.23584 4.7104l99.00032-12.45184a3.19488 3.19488 0 0 0 1.72032-5.57056z m-23.83872 8.27392c3.03104 20.39808 15.19616 62.01344 63.11936 69.0176 73.48224 10.69056 93.26592-82.04288 93.26592-82.04288l0.12288 5.5296a106.9056 106.9056 0 0 1-106.9056 106.9056 106.9056 106.9056 0 0 1-106.00448-92.28288l56.40192-7.12704z m141.76256-39.89504l60.90752 53.8624c2.2528 2.00704 5.85728 1.35168 7.29088-1.31072l35.75808-65.86368a3.19488 3.19488 0 0 0-3.23584-4.7104l-99.00032 12.45184a3.19488 3.19488 0 0 0-1.72032 5.57056z m23.83872-8.35584c-3.11296-20.39808-15.23712-62.01344-63.0784-69.0176-73.5232-10.6496-93.26592 82.08384-93.26592 82.08384a106.9056 106.9056 0 0 1 212.70528-20.23424l-56.36096 7.168z" p-id="32050"></path></svg>