<?xml version="1.0" standalone="no"?><!DOCTYPE svg PUBLIC "-//W3C//DTD SVG 1.1//EN" "http://www.w3.org/Graphics/SVG/1.1/DTD/svg11.dtd"><svg t="1761901967171" class="icon" viewBox="0 0 1024 1024" version="1.1" xmlns="http://www.w3.org/2000/svg" p-id="8058" xmlns:xlink="http://www.w3.org/1999/xlink" width="200" height="200"><path d="M993.882353 692.705882V180.705882c0-16.564706-13.552941-30.117647-30.117647-30.117647H60.235294c-16.564706 0-30.117647 13.552941-30.117647 30.117647v512H0v60.235294c0 66.56 53.910588 120.470588 120.470588 120.470589h783.058824c66.56 0 120.470588-53.910588 120.470588-120.470589v-60.235294h-30.117647zM90.352941 210.823529h843.294118v481.882353H90.352941V210.823529z m813.176471 602.352942H120.470588c-33.129412 0-60.235294-27.105882-60.235294-60.235295h903.529412c0 33.129412-27.105882 60.235294-60.235294 60.235295z" fill="#4A90E2" p-id="8059"></path><path d="M331.294118 331.294118v240.941176H210.823529v-240.941176h120.470589m30.117647-60.235294H180.705882c-16.564706 0-30.117647 13.552941-30.117647 30.117647v301.17647c0 16.564706 13.552941 30.117647 30.117647 30.117647h180.705883c16.564706 0 30.117647-13.552941 30.117647-30.117647V301.176471c0-16.564706-13.552941-30.117647-30.117647-30.117647zM722.823529 361.411765h-210.823529c-16.564706 0-30.117647-13.552941-30.117647-30.117647s13.552941-30.117647 30.117647-30.117647h210.823529c16.564706 0 30.117647 13.552941 30.117647 30.117647s-13.552941 30.117647-30.117647 30.117647zM843.294118 481.882353H512c-16.564706 0-30.117647-13.552941-30.117647-30.117647s13.552941-30.117647 30.117647-30.117647h331.294118c16.564706 0 30.117647 13.552941 30.117647 30.117647s-13.552941 30.117647-30.117647 30.117647zM602.352941 602.352941h-90.352941c-16.564706 0-30.117647-13.552941-30.117647-30.117647s13.552941-30.117647 30.117647-30.117647h90.352941c16.564706 0 30.117647 13.552941 30.117647 30.117647s-13.552941 30.117647-30.117647 30.117647zM737.882353 602.352941c-3.915294 0-7.830588-0.903529-11.444706-2.409412-3.915294-1.505882-6.927059-3.614118-9.938823-6.324705-5.421176-5.722353-8.734118-13.552941-8.734118-21.38353 0-3.915294 0.602353-7.830588 2.409412-11.444706 1.505882-3.915294 3.614118-6.927059 6.324706-9.938823 3.011765-2.710588 6.023529-4.818824 9.938823-6.324706 10.842353-4.517647 24.395294-2.108235 32.828235 6.324706 2.710588 3.011765 4.818824 6.023529 6.324706 9.938823 1.505882 3.614118 2.409412 7.529412 2.409412 11.444706 0 7.830588-3.312941 15.661176-8.734118 21.38353-5.722353 5.421176-13.552941 8.734118-21.383529 8.734117zM828.235294 602.352941c-7.830588 0-15.661176-3.312941-21.383529-8.734117-2.710588-3.011765-4.818824-6.324706-6.324706-9.938824s-2.409412-7.529412-2.409412-11.444706c0-1.807059 0.301176-3.915294 0.602353-6.023529 0.301176-1.807059 0.903529-3.614118 1.807059-5.421177 0.602353-1.807059 1.505882-3.614118 2.710588-5.421176 0.903529-1.505882 2.409412-3.011765 3.614118-4.517647 11.143529-11.143529 31.623529-11.143529 42.767059 0 5.421176 5.722353 8.734118 13.251765 8.734117 21.383529 0 3.915294-0.903529 7.830588-2.409412 11.444706s-3.614118 6.927059-6.324705 9.938824c-5.722353 5.421176-13.552941 8.734118-21.38353 8.734117z" fill="#4A90E2" p-id="8060"></path></svg>