<?xml version="1.0" standalone="no"?><!DOCTYPE svg PUBLIC "-//W3C//DTD SVG 1.1//EN" "http://www.w3.org/Graphics/SVG/1.1/DTD/svg11.dtd"><svg t="1761817257491" class="icon" viewBox="0 0 1024 1024" version="1.1" xmlns="http://www.w3.org/2000/svg" p-id="33057" xmlns:xlink="http://www.w3.org/1999/xlink" width="200" height="200"><path d="M960 123.7C872.7 49.9 704.8 0 512 0S151.3 49.9 64 123.7C23.2 158.2 0 197.8 0 240V605.9c0 0.7 0 1.4 0.1 2H0v176c0 132.5 229.2 240 512 240s512-107.5 512-240V608h-0.1c0.1-1.8 0.1-3.5 0.1-5.3V240c0-42.2-23.2-81.8-64-116.3zM64 356.3C151.3 430.1 319.2 480 512 480s360.7-49.9 448-123.7v79.2c-17.9 11.5-37.5 22.2-58.8 32.2C796.2 516.9 658 544 512 544s-284.2-27.1-389.2-76.4c-21.3-10-40.9-20.7-58.8-32.2v-79.1z m0 181.3c87.3 73.8 255.2 123.7 448 123.7s360.7-49.9 448-123.7v79.2c-17.9 11.4-37.5 22.2-58.8 32.2-105 49.2-243.3 76.3-389.2 76.3S227.8 698.2 122.8 649c-21.3-10-40.9-20.7-58.8-32.2v-79.2z m837.2 292.7c-105 49.2-243.3 76.3-389.2 76.3s-284.2-27.1-389.2-76.3c-20.3-9.5-39.1-19.8-56.4-30.6-1.6-5.3-2.4-10.5-2.4-15.7v-65c87.3 73.8 255.2 123.7 448 123.7s360.7-50 448-123.7v65c0 5.1-0.8 10.4-2.4 15.7-17.3 10.9-36.1 21.1-56.4 30.6z" p-id="33058"></path></svg>