<?xml version="1.0" standalone="no"?><!DOCTYPE svg PUBLIC "-//W3C//DTD SVG 1.1//EN" "http://www.w3.org/Graphics/SVG/1.1/DTD/svg11.dtd"><svg t="1763952730223" class="icon" viewBox="0 0 1473 1024" version="1.1" xmlns="http://www.w3.org/2000/svg" p-id="9959" xmlns:xlink="http://www.w3.org/1999/xlink" width="287.6953125" height="200"><path d="M623.2 268.8H186.4v364.8h436.8V268.8zM553.6 520c0 25.6-20.8 46.4-46.4 46.4H279.2c-25.6 0-46.4-20.8-46.4-46.4V383.2c0-25.6 20.8-46.4 46.4-46.4h228.8c25.6 0 46.4 20.8 46.4 46.4L553.6 520z m43.2 10.4c0 4-3.2 7.2-7.2 7.2s-7.2-3.2-7.2-7.2V372c0-4 3.2-7.2 7.2-7.2s7.2 3.2 7.2 7.2v158.4z m67.2 52.8h316.8v48H664v-48z m156-31.2v-45.6h26.4v-33.6h-57.6v33.6h21.6V552h9.6z m124.8-422.4H738.4v336h206.4v-336z m-33.6 307.2h-52.8v-38.4h52.8v38.4z m0-52.8h-52.8v-38.4h52.8V384z" p-id="9960"></path><path d="M1266.4 249.6v-19.2h7.2v-33.6h-24v33.6h7.2v19.2h-256v400.8H186.4v153.6h1104V652.8h1.6V249.6h-25.6z m-91.2 379.2h-76.8V576h76.8v52.8z m91.2-67.2h-168V288h168v273.6z" p-id="9961"></path><path d="M1132.8 307.2H1232c7.2 0 10.4 3.2 10.4 10.4v75.2c0 7.2-3.2 10.4-10.4 10.4h-99.2c-7.2 0-10.4-3.2-10.4-10.4v-75.2c0-6.4 4-10.4 10.4-10.4zM205.6 888h321.6v-28.8h422.4v28.8h316.8v-76.8H205.6v76.8z m1044-768h24v33.6h-24V120z m0 38.4h24V192h-24v-33.6z" p-id="9962"></path></svg>