<?xml version="1.0" standalone="no"?><!DOCTYPE svg PUBLIC "-//W3C//DTD SVG 1.1//EN" "http://www.w3.org/Graphics/SVG/1.1/DTD/svg11.dtd"><svg t="1764038734801" class="icon" viewBox="0 0 1024 1024" version="1.1" xmlns="http://www.w3.org/2000/svg" p-id="5715" xmlns:xlink="http://www.w3.org/1999/xlink" width="200" height="200"><path d="M307.2 716.8h102.4V256L307.2 307.2v409.6zM102.4 716.8h102.4v-153.6l-102.4 51.2v102.4zM512 716.8h102.4V153.6l-102.4-51.2v614.4z" fill="#3578FF" p-id="5716"></path><path d="M102.4 870.4m0 0l0-102.4q0 0 0 0l819.2 0q0 0 0 0l0 102.4q0 0 0 0l-819.2 0q0 0 0 0Z" fill="#3578FF" p-id="5717"></path><path d="M694.528 556.544c-36.8128 73.6256 16.7424 160.256 99.072 160.256s135.8848-86.6304 99.072-160.256L793.6 358.4l-99.072 198.144z" fill="#3578FF" p-id="5718"></path></svg>