<?xml version="1.0" standalone="no"?><!DOCTYPE svg PUBLIC "-//W3C//DTD SVG 1.1//EN" "http://www.w3.org/Graphics/SVG/1.1/DTD/svg11.dtd"><svg t="1766644982573" class="icon" viewBox="0 0 1024 1024" version="1.1" xmlns="http://www.w3.org/2000/svg" p-id="5978" xmlns:xlink="http://www.w3.org/1999/xlink" width="200" height="200"><path d="M959.326316 336.842105l26.947368-48.505263c2.694737-5.389474 5.389474-13.473684 5.389474-18.863158V215.578947c0-18.863158-16.168421-35.031579-35.031579-35.031579h-126.652632c-18.863158 0-35.031579 16.168421-35.031579 35.031579v107.789474h-183.242105V67.368421c0-18.863158-16.168421-35.031579-35.031579-35.031579h-126.652631c-18.863158 0-35.031579 16.168421-35.031579 35.031579v253.305263H231.747368v-107.789473c0-18.863158-16.168421-35.031579-35.031579-35.031579H70.063158c-18.863158 0-35.031579 16.168421-35.031579 35.031579v53.894736c0 8.084211 2.694737 13.473684 5.389474 18.863158l26.947368 48.505263v468.884211l-26.947368 51.2c-2.694737 5.389474-5.389474 13.473684-5.389474 21.557895v75.452631c0 18.863158 16.168421 35.031579 35.031579 35.031579H953.936842c18.863158 0 35.031579-16.168421 35.031579-35.031579v-75.452631c0-8.084211-2.694737-13.473684-5.389474-21.557895l-26.947368-51.2V339.536842s0-2.694737 2.694737-2.694737z m-388.042105 72.757895H565.894737c-16.168421 0-26.947368 13.473684-26.947369 26.947368v29.642106h-64.673684v-29.642106c0-16.168421-13.473684-26.947368-26.947368-26.947368l-2.694737 2.694737V70.063158H565.894737v272.168421l5.389474 67.368421zM105.094737 342.231579c0-8.084211-2.694737-16.168421-5.389474-21.557895l-26.947368-51.2-2.694737-53.894737H194.021053v350.31579c0 2.694737 0 5.389474-2.694737 8.08421l-86.231579 158.989474V342.231579z m846.147368 606.315789H72.757895v-75.452631l150.905263-282.947369c5.389474-8.084211 5.389474-16.168421 5.389474-26.947368v-207.494737h180.547368v53.894737c0 18.863158 13.473684 32.336842 29.642105 35.031579v29.642105c0 16.168421 13.473684 26.947368 26.947369 26.947369h80.842105c16.168421 0 26.947368-13.473684 26.947368-26.947369v-29.642105c16.168421-2.694737 29.642105-18.863158 29.642106-35.031579v-51.2h183.242105V565.894737c0 8.084211 2.694737 18.863158 5.389474 26.947368l153.6 282.947369v72.757894z m-118.568421-374.568421c-2.694737-2.694737-2.694737-5.389474-2.694737-8.08421V215.578947H940.463158l10.778947-2.694736v53.894736l-26.947368 48.505264c-2.694737 8.084211-5.389474 13.473684-5.389474 21.557894v393.431579l-86.231579-156.294737z" fill="#101010" p-id="5979"></path><path d="M455.410526 625.178947c0-10.778947-8.084211-18.863158-18.863158-18.863158h-99.705263c-10.778947 0-18.863158 8.084211-18.863158 18.863158s8.084211 18.863158 18.863158 18.863158h99.705263c10.778947 0 18.863158-8.084211 18.863158-18.863158zM509.305263 649.431579c10.778947 0 18.863158-8.084211 18.863158-18.863158v-97.010526c0-10.778947-8.084211-18.863158-18.863158-18.863158s-18.863158 8.084211-18.863158 18.863158v97.010526c0 10.778947 8.084211 18.863158 18.863158 18.863158zM700.631579 606.315789h-99.705263c-10.778947 0-18.863158 8.084211-18.863158 18.863158s8.084211 18.863158 18.863158 18.863158H700.631579c10.778947 0 18.863158-8.084211 18.863158-18.863158s-8.084211-18.863158-18.863158-18.863158zM509.305263 703.326316c-10.778947 0-18.863158 8.084211-18.863158 18.863158v97.010526c0 10.778947 8.084211 18.863158 18.863158 18.863158s18.863158-8.084211 18.863158-18.863158v-97.010526c0-10.778947-8.084211-18.863158-18.863158-18.863158zM441.936842 673.684211l-70.063158 70.063157c-8.084211 8.084211-8.084211 18.863158 0 26.947369 2.694737 2.694737 8.084211 5.389474 13.473684 5.389474s10.778947-2.694737 13.473685-5.389474l70.063158-70.063158c8.084211-8.084211 8.084211-18.863158 0-26.947368-8.084211-8.084211-18.863158-8.084211-26.947369 0zM595.536842 676.378947c-8.084211-8.084211-18.863158-8.084211-26.947368 0-8.084211 8.084211-8.084211 18.863158 0 26.947369l70.063158 70.063158c2.694737 2.694737 8.084211 5.389474 13.473684 5.389473s10.778947-2.694737 13.473684-5.389473c8.084211-8.084211 8.084211-18.863158 0-26.947369l-70.063158-70.063158z" fill="#101010" p-id="5980"></path></svg>