<?xml version="1.0" standalone="no"?><!DOCTYPE svg PUBLIC "-//W3C//DTD SVG 1.1//EN" "http://www.w3.org/Graphics/SVG/1.1/DTD/svg11.dtd"><svg t="1763363593859" class="icon" viewBox="0 0 1024 1024" version="1.1" xmlns="http://www.w3.org/2000/svg" p-id="4751" xmlns:xlink="http://www.w3.org/1999/xlink" width="200" height="200"><path d="M495.3 996.2h-39.7V801.8c0-42.3 34.4-76.6 76.6-76.6h412.4c20.3 0 36.9-16.5 36.9-36.9V76.6c0-20.3-16.5-36.9-36.9-36.9H79.3c-20.3 0-36.9 16.5-36.9 36.9v611.6c0 20.3 16.5 36.9 36.9 36.9h79l177.5-253.7c1.4-1.9 2.8-3.8 4.3-5.5 27.3-32.3 75.8-36.4 108-9l24.2 20.4c9 7 18.7 9.6 28.5 8.4 9.8-1.2 18.5-6.2 24.5-14l168.2-216.9 31.4 24.4-168.3 217c-12.5 16.2-30.6 26.5-50.9 29.1-20.2 2.6-40.4-2.9-56.6-15.5l-26.7-22.5c-15.5-13.1-38.8-11.2-52 4.3l-2.1 2.7-189.4 270.6H79.3c-42.3 0-76.6-34.4-76.6-76.6V76.6C2.6 34.4 37 0 79.3 0h865.3c42.3 0 76.6 34.4 76.6 76.6v611.6c0 42.3-34.4 76.6-76.6 76.6H532.2c-20.3 0-36.9 16.5-36.9 36.9v194.5z" fill="#565454" p-id="4752"></path><path d="M723.7 1024H212.4c-11 0-19.9-8.9-19.9-19.9 0-11 8.9-19.9 19.9-19.9h511.3c11 0 19.9 8.9 19.9 19.9 0 11-8.9 19.9-19.9 19.9zM753 319.9c-51.2 0-92.9-45.9-92.9-102.3s41.7-102.3 92.9-102.3 92.9 45.9 92.9 102.3-41.7 102.3-92.9 102.3z m0-164.8c-29.3 0-53.2 28.1-53.2 62.5s23.8 62.5 53.2 62.5 53.2-28.1 53.2-62.5-23.9-62.5-53.2-62.5z" fill="#565454" p-id="4753"></path></svg>