<?xml version="1.0" standalone="no"?><!DOCTYPE svg PUBLIC "-//W3C//DTD SVG 1.1//EN" "http://www.w3.org/Graphics/SVG/1.1/DTD/svg11.dtd"><svg t="1761819293320" class="icon" viewBox="0 0 1024 1024" version="1.1" xmlns="http://www.w3.org/2000/svg" p-id="47910" xmlns:xlink="http://www.w3.org/1999/xlink" width="200" height="200"><path d="M909.824 801.28H125.44c-3.072 0-5.12-2.048-5.12-5.12v-122.88h794.624v122.88c0 2.56-2.56 5.12-5.12 5.12z" fill="#FFFFFF" p-id="47911"></path><path d="M909.824 808.96H125.44c-7.168 0-12.8-5.632-12.8-12.8V665.6h809.984v130.56c0 6.656-6.144 12.8-12.8 12.8zM128 793.6h779.264v-112.64H128v112.64z" p-id="47912"></path><path d="M587.264 724.48h348.16c3.072 0 5.12-2.048 5.12-5.12v-501.76c0-3.072-2.048-5.12-5.12-5.12h-353.28v506.88c0 2.56 2.048 5.12 5.12 5.12z" fill="#FFFFFF" p-id="47913"></path><path d="M935.424 732.16h-348.16c-7.168 0-12.8-5.632-12.8-12.8V204.8h360.96c7.168 0 12.8 5.632 12.8 12.8v501.76c0 6.656-6.144 12.8-12.8 12.8z m-345.6-15.36h343.04V220.16h-343.04v496.64z" p-id="47914"></path><path d="M274.944 212.48h307.2v460.8h-307.2z" fill="#FFFFFF" p-id="47915"></path><path d="M589.824 680.96h-322.56V204.8h322.56v476.16z m-307.2-15.36h291.84V220.16h-291.84v445.44z" p-id="47916"></path><path d="M326.144 260.096h204.8v153.6h-204.8z" fill="#FFFFFF" p-id="47917"></path><path d="M538.624 421.376h-220.16v-168.96h220.16v168.96z m-204.8-15.36h189.44v-138.24h-189.44v138.24z" p-id="47918"></path><path d="M120.32 212.48h153.6v358.4h-153.6z" fill="#FFFFFF" p-id="47919"></path><path d="M281.6 578.56H112.64V204.8h168.96v373.76z m-153.6-15.36h138.24V220.16H128v343.04z" p-id="47920"></path><path d="M120.32 570.88h154.624v102.4H120.32z" fill="#FFFFFF" p-id="47921"></path><path d="M282.624 680.96H112.64v-117.76h169.984v117.76zM128 665.6h139.264v-87.04H128v87.04z" p-id="47922"></path><path d="M231.936 413.696h-143.36c-3.072 0-5.12-2.048-5.12-5.12v-245.76c0-3.072 2.048-5.12 5.12-5.12h143.36c3.072 0 5.12 2.048 5.12 5.12v245.76c0 2.56-2.048 5.12-5.12 5.12z" fill="#FFFFFF" p-id="47923"></path><path d="M231.936 421.376h-143.36c-7.168 0-12.8-5.632-12.8-12.8v-245.76c0-7.168 5.632-12.8 12.8-12.8h143.36c7.168 0 12.8 5.632 12.8 12.8v245.76c0 6.656-5.632 12.8-12.8 12.8z m-140.8-15.36h138.24v-240.64h-138.24v240.64z" p-id="47924"></path><path d="M206.848 297.472h-40.96c-4.096 0-7.68-3.584-7.68-7.68s3.584-7.68 7.68-7.68h40.96c4.096 0 7.68 3.584 7.68 7.68s-3.584 7.68-7.68 7.68zM205.824 334.336h-40.96c-4.096 0-7.68-3.584-7.68-7.68s3.584-7.68 7.68-7.68h40.96c4.096 0 7.68 3.584 7.68 7.68s-3.584 7.68-7.68 7.68zM206.848 371.2h-40.96c-4.096 0-7.68-3.584-7.68-7.68s3.584-7.68 7.68-7.68h40.96c4.096 0 7.68 3.584 7.68 7.68s-3.584 7.68-7.68 7.68zM894.464 257.024c-4.096 0-7.68-3.584-7.68-7.68l1.024-91.648c0-4.096 3.584-7.68 7.68-7.68s7.68 3.584 7.68 7.68l-1.024 91.648c0 4.096-3.584 7.68-7.68 7.68z" p-id="47925"></path><path d="M277.504 832h-66.56c-3.072 0-5.12-2.048-5.12-5.12v-25.6h76.8v25.6c0 2.56-2.56 5.12-5.12 5.12z" fill="#FFFFFF" p-id="47926"></path><path d="M277.504 839.68h-66.56c-7.168 0-12.8-5.632-12.8-12.8V793.6h92.16v33.28c0 6.656-6.144 12.8-12.8 12.8z m-64-15.36h61.44v-15.36h-61.44v15.36z" p-id="47927"></path><path d="M825.344 832h-66.56c-3.072 0-5.12-2.048-5.12-5.12v-25.6h76.8v25.6c0 2.56-2.56 5.12-5.12 5.12z" fill="#FFFFFF" p-id="47928"></path><path d="M825.344 839.68h-66.56c-7.168 0-12.8-5.632-12.8-12.8V793.6h92.16v33.28c0 6.656-6.144 12.8-12.8 12.8z m-64-15.36h61.44v-15.36h-61.44v15.36z" p-id="47929"></path></svg>