<?xml version="1.0" standalone="no"?><!DOCTYPE svg PUBLIC "-//W3C//DTD SVG 1.1//EN" "http://www.w3.org/Graphics/SVG/1.1/DTD/svg11.dtd"><svg t="1763978512995" class="icon" viewBox="0 0 1123 1024" version="1.1" xmlns="http://www.w3.org/2000/svg" p-id="45818" xmlns:xlink="http://www.w3.org/1999/xlink" width="219.3359375" height="200"><path d="M1002.774748 307.427698a423.824601 423.824601 0 0 1-95.165707 507.150795h0.099911a5.095487 5.095487 0 0 1-8.492478-3.896548v-197.974646a18.683451 18.683451 0 0 1 18.683452-18.633495h55.750619c3.596814-12.039336 6.444292-24.328451 8.492478-36.767434a363.178318 363.178318 0 0 0-433.815751-413.583671 29.973451 29.973451 0 0 1-35.268761-22.030487 31.422168 31.422168 0 0 1 24.478318-37.716593 424.024424 424.024424 0 0 1 465.237919 223.452079zM522.250369 848.548405a363.428096 363.428096 0 0 0 173.596239 7.193628 34.169734 34.169734 0 0 1 35.818274 14.736947 30.473009 30.473009 0 0 1-20.531814 44.610487A424.42407 424.42407 0 1 1 339.562184 184.336725a5.195398 5.195398 0 0 1 8.492478 3.946505v204.668716a11.090177 11.090177 0 0 1-11.29 11.29H273.520679a309.675707 309.675707 0 0 0-8.492477 37.217035 363.228273 363.228273 0 0 0 257.272123 407.039468z m-103.458362-228.897256l205.268185 119.893805 205.268185-119.644026V379.813583l-205.268185-119.793893-205.318141 119.793893v239.887522z m362.179202-177.193053v153.164336l-132.732433 81.178097v-154.063539l132.732433-80.278894zM599.881608 676.900441l-132.782389-81.278009V436.41345L599.881608 515.543361v161.35708zM486.482051 391.952831l137.578141-84.225398 141.974247 86.523362-133.631637 81.327965h-5.245354L486.482051 391.952831z" p-id="45819"></path></svg>