<?xml version="1.0" standalone="no"?><!DOCTYPE svg PUBLIC "-//W3C//DTD SVG 1.1//EN" "http://www.w3.org/Graphics/SVG/1.1/DTD/svg11.dtd"><svg t="1764039100519" class="icon" viewBox="0 0 1024 1024" version="1.1" xmlns="http://www.w3.org/2000/svg" p-id="10505" xmlns:xlink="http://www.w3.org/1999/xlink" width="200" height="200"><path d="M856.576 1018.88H167.424c-73.216 0-133.12-59.904-133.12-133.12V329.728H66.56V885.76c0 55.808 45.568 100.864 100.864 100.864h688.64c55.808 0 100.864-45.568 100.864-100.864V329.728h32.256V885.76c0.512 73.728-59.392 133.12-132.608 133.12z" fill="#108EE9" p-id="10506"></path><path d="M163.328 771.072h680.96v32.256h-680.96zM163.328 624.128h680.96v32.256h-680.96zM724.48 270.848l-220.16-220.16-220.672 220.16-23.04-22.528L504.32 5.12 747.52 248.32z" fill="#108EE9" p-id="10507"></path><path d="M487.936 27.648h32.256v449.024h-32.256z" fill="#108EE9" p-id="10508"></path></svg>