<?xml version="1.0" standalone="no"?><!DOCTYPE svg PUBLIC "-//W3C//DTD SVG 1.1//EN" "http://www.w3.org/Graphics/SVG/1.1/DTD/svg11.dtd"><svg t="1761817051556" class="icon" viewBox="0 0 1024 1024" version="1.1" xmlns="http://www.w3.org/2000/svg" p-id="31036" xmlns:xlink="http://www.w3.org/1999/xlink" width="200" height="200"><path d="M428.544 93.696c-9.728-3.072-24.576-7.168-39.424-7.168-22.528 0-47.104 5.632-75.776 17.92-26.112 14.336-62.464 39.424-86.528 75.776-17.92 25.088-25.088 53.76-21.504 85.504l0.512 3.584h-7.168c-24.576 0-45.056 4.608-60.928 14.336-29.696 14.848-50.176 36.864-60.928 64.512-11.776 26.112-26.112 65.024-17.92 104.448 4.096 37.376 17.408 67.584 39.424 89.6l9.728 9.728-5.632 5.632c-22.016 22.016-35.84 54.784-35.84 85.504 0 35.328 10.24 67.584 32.256 100.864 18.432 27.648 44.032 60.416 82.432 71.68l0.512-2.048v2.048c6.656 3.584 17.408 3.584 24.064 3.584h3.072v3.072c0 18.432 3.584 35.84 10.752 49.664 14.336 28.672 39.424 53.76 68.096 68.096 22.016 11.264 51.2 17.92 75.264 17.92h3.584c32.256 0 57.856-5.632 78.848-17.92 27.136-15.36 42.496-40.96 42.496-70.656V160.256c0.512-34.304-31.744-57.344-59.392-66.56z m-7.168 768.512c0 2.56-1.536 5.632-4.608 6.656h-0.512l-3.072 3.072c-3.072 2.56-5.632 4.096-7.68 4.096h-0.512l-0.512 0.512c-1.536 1.536-4.608 3.584-8.192 3.584-1.024 0-3.072 0.512-6.144 1.536-3.072 1.024-6.144 2.048-8.192 2.048h-36.352c-8.192 0-19.456-3.584-27.136-7.68h-0.512l-0.512-0.512c-3.584-3.584-10.24-6.656-12.288-6.656h-0.512l-8.192-4.096-0.512-0.512c-3.584-3.584-7.168-7.168-13.824-10.24H281.6l-0.512-0.512c-3.584-3.584-5.632-6.656-5.632-8.704v-0.512l-0.512-0.512c-1.024-2.048-2.048-3.584-2.56-6.144-0.512-2.048-1.536-4.096-3.072-6.656l-4.096-8.192v-30.208c0-5.12 4.096-9.216 8.192-13.312 9.728-9.728 9.728-26.112 0-35.84-4.608-4.608-11.264-7.168-17.92-7.168s-13.312 2.56-17.92 7.168l-1.024 1.024h-2.048v3.584h-3.584l-1.024 1.024c-1.024 1.024-2.56 2.56-5.12 2.56v-1.536l-2.56 2.048-2.56 2.56-1.024 1.024h-19.456c-4.608 0-8.192-3.584-12.8-7.68l-7.168-3.584-26.112-26.624c-7.168-11.264-11.264-18.432-14.848-29.696-3.584-7.68-7.68-18.944-7.68-26.624v-22.016c0-4.096 1.024-7.168 2.048-10.24 1.024-2.56 1.536-5.12 1.536-8.192v-1.536l1.024-1.024c0.512-0.512 2.56-3.072 2.56-5.12 0-3.072 1.536-4.608 3.072-6.144l0.512-0.512v-1.024c0-2.048 1.024-4.608 3.072-5.632l0.512-0.512v-1.024c0.512-2.56 1.536-4.608 2.56-5.632l1.024-0.512v-4.608h3.584l1.024-1.024c1.024-1.024 2.56-2.56 5.632-2.56h3.584c1.024 0 2.048-0.512 4.096-1.536 2.048-1.024 4.096-2.048 6.656-2.048h14.848c12.8 0 26.112-13.312 26.112-26.112 0-16.896-13.312-26.112-26.112-26.112H184.32c-4.096 0-7.168-1.024-10.24-2.048-2.56-1.024-5.12-1.536-8.192-1.536h-1.024l-1.024-1.024c-1.536-1.536-3.072-2.048-4.608-3.072-2.048-1.024-4.096-2.048-6.144-4.096l-10.752-10.752c-0.512-0.512-4.608-4.608-4.608-9.728 0-1.024-0.512-2.048-1.536-4.096-1.024-2.048-2.048-4.096-2.048-6.656v-3.584c-1.536-3.584-2.56-7.168-3.584-10.752-1.024-3.584-1.536-7.168-3.584-10.24h-0.512v-40.96c0-9.216 2.56-15.872 5.12-24.064 0.512-1.536 1.536-3.584 2.048-5.632v-3.584c0-11.776 4.096-15.872 11.264-23.552v-0.512c4.096-7.68 7.68-14.848 14.848-18.432 2.048-2.048 4.608-3.584 7.168-5.12 2.56-1.536 5.12-3.584 6.656-5.12l1.024-1.024h5.12c1.024 0 2.048-0.512 4.096-1.536 2.048-1.024 4.096-2.048 6.656-2.048h22.016c2.56 0 5.12 1.024 8.192 2.048 3.072 1.024 5.12 1.536 6.144 1.536h5.12l1.024 1.024c1.536 1.536 4.096 3.584 6.656 5.12 2.048 1.536 4.608 3.072 6.144 4.608l0.512 0.512h3.584l1.024 1.024c4.608 4.608 11.264 7.168 17.92 7.168 6.656 0 13.312-2.56 17.92-7.168 5.12-5.12 8.192-13.824 7.168-22.016-0.512-5.632-3.072-10.752-6.656-13.312-7.68-4.096-11.776-7.68-15.36-11.264l-4.608-4.608V291.84c0-1.024-0.512-2.048-1.536-4.096-1.024-2.048-2.048-4.096-2.048-6.144h1.536l-2.048-3.072-2.56-2.56-1.024-1.024v-19.456c0-4.096 1.024-7.168 2.048-10.24 1.024-2.56 1.536-5.12 1.536-8.192v-1.024c3.584-11.264 7.68-18.432 11.776-23.04 7.168-10.752 14.848-18.432 26.112-26.112l3.584-3.584c3.072-2.048 6.144-4.096 8.704-6.144 6.656-4.608 12.8-9.216 20.992-12.288l7.168-3.584c7.68-3.584 15.36-7.68 23.04-7.68H389.12c2.56 0 5.12 1.024 8.192 2.048 3.072 1.024 5.12 1.536 6.144 1.536 3.072 0 4.608 1.536 5.632 2.56l1.024 1.024h1.536l1.024 1.024c0.512 0.512 4.096 4.096 4.608 8.192v0.512l3.584 7.168v684.544zM972.8 452.608c7.68-39.424-6.656-78.336-17.92-104.448-10.24-27.648-30.72-49.152-60.928-64.512-15.872-9.216-36.352-14.336-60.928-14.336h-7.168l0.512-3.584c3.584-31.744-3.584-60.928-21.504-85.504-24.064-36.352-60.416-61.44-86.528-75.776-28.16-12.288-53.248-17.92-75.776-17.92-14.848 0-29.696 4.096-39.424 7.168-27.648 9.216-59.904 32.256-59.904 66.56v709.632c0 29.184 15.36 55.296 42.496 70.656 20.992 11.776 47.104 17.92 78.848 17.92h3.584c24.576 0 53.248-6.656 75.264-17.92 28.672-14.336 53.76-39.424 68.096-68.096 6.656-13.824 10.752-31.232 10.752-49.664v-3.584h3.072c7.168 0 17.408 0 24.064-3.584v-2.048l0.512 2.048c38.4-11.264 64-44.544 82.432-71.68 22.016-33.28 32.256-65.024 32.256-100.864 0-30.72-13.824-63.488-35.84-85.504l-5.632-5.632 9.728-9.728c22.528-22.016 35.328-52.224 39.936-89.6zM905.728 460.8l-0.512 0.512c-1.536 3.584-2.56 7.168-3.584 10.24-1.024 3.584-1.536 7.168-3.584 10.752v3.584c0 2.56-1.024 4.608-2.048 6.656s-1.536 3.072-1.536 4.096c0 4.608-3.584 8.704-4.608 9.728l-10.752 10.752c-2.048 2.048-4.608 3.072-6.144 4.096-1.536 1.024-3.072 1.536-4.608 3.072l-1.024 1.024h-1.024c-3.072 0-5.632 1.024-8.192 1.536-3.072 1.024-6.144 2.048-10.24 2.048h-3.584c-12.8 0-26.112 9.216-26.112 26.112 0 12.8 13.312 26.112 26.112 26.112h14.848c2.56 0 4.608 1.024 6.656 2.048s3.072 1.536 4.096 1.536h3.584c3.072 0 4.608 1.536 5.632 2.56l1.024 1.024h3.584v4.608l1.024 0.512c1.024 1.536 2.048 3.072 2.56 5.632v1.024l0.512 0.512c2.048 1.024 3.072 3.072 3.072 5.632v1.024l0.512 0.512c1.536 1.536 3.072 3.072 3.072 6.144 0 2.048 2.048 4.608 2.56 5.12l1.024 1.024v1.536c0 3.072 1.024 5.632 1.536 8.192 1.024 3.072 2.048 6.144 2.048 10.24v22.016c0 8.192-3.584 18.944-7.68 26.624-3.584 11.264-7.68 18.944-14.848 29.696l-26.112 26.624-7.168 3.584c-4.096 4.096-8.192 7.68-12.8 7.68h-19.456l-1.024-1.024-2.56-2.56-2.56-2.048v1.536c-2.56 0-4.096-1.536-5.12-2.56l-1.024-1.024h-3.584v-3.584h-2.048l-1.024-1.024c-4.608-4.608-11.264-7.168-17.92-7.168s-13.312 2.56-17.92 7.168c-9.728 9.728-9.728 26.112 0 35.84 4.096 4.096 8.192 8.192 8.192 13.312v30.208l-4.096 8.192c-1.536 2.56-2.048 4.608-3.072 6.656-1.024 2.048-1.536 4.096-2.56 6.144l-0.512 0.512v0.512c0 2.048-1.536 5.12-5.632 8.704l-0.512 0.512h-0.512c-6.656 3.584-10.24 7.168-13.824 10.24l-0.512 0.512-8.192 4.096h-0.512c-2.56 0-8.704 3.072-12.288 6.656l-0.512 0.512h-0.512c-7.68 3.584-18.944 7.68-27.136 7.68H650.24c-2.56 0-5.12-1.024-8.192-2.048-3.072-1.024-5.12-1.536-6.144-1.536-3.584 0-6.656-2.048-8.192-3.584l-0.512-0.512h-0.512c-2.048-0.512-4.608-1.536-7.68-4.096l-3.072-3.072h-0.512c-3.072-1.024-4.608-4.096-4.608-6.656V177.664l3.584-7.168v-0.512c0.512-4.096 4.096-8.192 4.608-8.192l1.024-1.024h1.536l1.024-1.024c1.024-1.024 2.56-2.56 5.632-2.56 1.024 0 3.072-0.512 6.144-1.536 3.072-1.024 6.144-2.048 8.192-2.048h22.016c8.192 0 15.872 4.096 23.04 7.68l7.168 3.584c8.192 3.072 14.336 7.68 20.992 12.288 3.072 2.048 5.632 4.096 8.704 6.144l3.584 3.584c11.264 7.68 18.944 14.848 26.112 26.112 4.096 4.608 7.68 11.776 11.776 23.04v1.024c0 3.072 1.024 5.632 1.536 8.192 1.024 2.56 2.048 6.144 2.048 10.24v19.456l-1.024 1.024-2.56 2.56-2.048 3.072h1.536c0 2.048-1.024 4.096-2.048 6.144-1.024 2.048-1.536 3.072-1.536 4.096v1.024l-4.608 4.608c-3.584 3.584-7.68 7.68-15.36 11.264-3.584 2.56-6.144 7.68-6.656 13.312-1.024 8.192 2.048 16.896 7.168 22.016 4.608 4.608 11.264 7.168 17.92 7.168 6.656 0 13.312-2.56 17.92-7.168l1.024-1.024h3.584l0.512-0.512 6.144-4.608c2.56-1.536 5.12-3.584 6.656-5.12h7.68c1.024 0 3.072-0.512 6.144-1.536 3.072-1.024 6.144-2.048 8.192-2.048h22.016c2.56 0 4.608 1.024 6.656 2.048s3.072 1.536 4.096 1.536h5.12l1.024 1.024c1.536 1.536 4.096 3.584 6.656 5.12 2.56 1.536 5.12 3.584 7.168 5.12 7.168 4.096 11.264 10.752 14.848 18.432v0.512c7.168 7.68 11.264 11.776 11.264 23.552v3.584c0.512 2.048 1.536 3.584 2.048 5.632 2.56 7.68 5.12 14.848 5.12 24.064v40.96z" fill="#343399" p-id="31037"></path><path d="M288.768 531.968l-0.512-0.512c-3.072-3.072-9.728-6.656-15.872-6.656-11.776 0-20.992 4.608-26.624 13.312-4.608 6.656-6.656 13.824-5.12 20.992 1.024 6.656 5.12 12.8 10.752 17.408l0.512 0.512h3.584l1.024 0.512c5.12 4.096 12.8 9.216 20.992 14.848l0.512 0.512c26.112 17.92 41.984 29.696 41.984 38.4v1.024l-1.024 1.024c-4.096 4.096-11.776 8.192-20.48 8.192-12.8 0-34.816-3.072-55.296-10.752h-1.024c-2.048 0-4.096-1.024-6.144-2.048-1.536-1.024-3.072-1.536-4.096-1.536-13.824 0-23.04 7.168-26.624 19.968-3.072 8.192-3.584 16.384-0.512 23.552 3.072 7.168 8.704 12.8 16.896 15.872 1.536 0 3.584 1.024 7.68 2.048 13.312 4.096 40.448 12.288 68.096 12.288 36.352 0 59.392-11.776 74.24-38.4 29.696-55.296-28.672-98.816-82.944-130.56zM826.368 647.68c-3.072-12.8-12.8-19.968-26.624-19.968-1.024 0-2.048 0.512-4.096 1.536-2.048 1.024-3.584 2.048-6.144 2.048h-1.024c-20.48 8.192-42.496 10.752-55.296 10.752-8.704 0-16.384-4.096-20.48-8.192l-1.024-1.024v-1.024c0-8.704 15.872-20.48 41.984-38.4l0.512-0.512c8.192-5.632 15.36-10.752 20.992-14.848l1.024-0.512h3.584l0.512-0.512c5.632-4.608 9.728-10.752 10.752-17.408 1.536-7.168-0.512-14.336-5.12-20.992-6.144-8.704-14.848-13.312-26.624-13.312-6.144 0-12.8 3.072-15.872 6.656l-0.512 0.512h-0.512c-54.272 31.744-112.64 75.264-82.944 131.072 14.848 26.624 37.888 38.4 74.24 38.4 27.136 0 54.784-8.192 68.096-12.288 4.608-1.536 6.656-2.048 7.68-2.048 8.192-3.584 13.824-8.704 16.896-15.872 3.584-7.68 3.584-15.872 0-24.064z" fill="#F59D0D" p-id="31038"></path></svg>