<?xml version="1.0" standalone="no"?><!DOCTYPE svg PUBLIC "-//W3C//DTD SVG 1.1//EN" "http://www.w3.org/Graphics/SVG/1.1/DTD/svg11.dtd"><svg t="1763953371132" class="icon" viewBox="0 0 1024 1024" version="1.1" xmlns="http://www.w3.org/2000/svg" p-id="14986" xmlns:xlink="http://www.w3.org/1999/xlink" width="200" height="200"><path d="M911.5 588.6c-33-42.4-94.1-50.1-136.7-17.3-42.4 33-50.1 94.1-17.3 136.7 33 42.4 94.1 50.1 136.7 17.3 42.7-32.9 50.2-94.3 17.3-136.7z m-44.4 101.8c-23.2 18-56.6 13.8-74.6-9.4-18-23.2-13.8-56.6 9.4-74.6 23.2-18 56.6-13.8 74.6 9.4 17.9 23.2 13.8 56.6-9.4 74.6z" fill="#666666" p-id="14987"></path><path d="M965.4 774.7l-0.3-1.2c-0.1-0.5-0.3-0.9-0.5-1.3-2.3-5.6-5.7-10-9.9-15.3-3.3-4.1-6.5-8.3-9.7-12.4-1.3-1.6-2.5-3.3-3.8-4.9L915.7 707c-0.3-0.8-0.8-1.5-1.4-2.2l-0.4-0.4-0.4-0.4c-12.5-12.8-29.1-15.3-42.4-6.4-14.8 10-18.7 29-9 44.4 3.9 6.2 8.6 12 13.2 17.7 1.9 2.3 3.8 4.6 5.6 7l20 25.7c7.7 10 18 23.1 33.3 23.1 2.3 0 4.8-0.3 7.4-1 8.8-2.3 16.1-7.7 20.5-15.3 4.3-7.5 5.4-16.2 3.3-24.5zM760.9 452.4c-0.1-0.3-0.3-0.6-0.5-0.9-0.3-0.6-0.7-1.2-1.2-1.7-4-5.1-10.8-6.6-16.8-3.9-3.5 1.6-5.5 4.1-7.6 7-2.1 2.9-4.2 5.8-6.2 8.6L585.1 660.2 425.3 338.7c-4-8-10.2-11.3-17.5-9.1-6.9 2-10.9 9-14.4 15.1-0.9 1.6-1.8 3.1-2.7 4.4L283 512.2H100.9c-8.8 0-17.8-0.1-26.2 4.1-7.5 3.8-13.3 10.7-15.8 19s-1.6 17.3 2.6 24.7c9.8 17.2 28.9 17.1 45.8 16.9h6.2c24.6 0.2 49 0 72.6-0.1 22.6-0.1 46.7-0.2 73.5-0.2h36.7c1.3 0 2.5 0 3.8 0.1 8 0.2 16.3 0.4 22.1-7.1 5.4-6.9 10.1-14.5 14.7-21.8 2.3-3.6 4.6-7.3 6.9-10.9l61.6-93.3L549 732.2c1.7 3.3 3.3 6.7 4.9 10 3.2 6.6 6.6 13.4 10 20 2.1 4.1 5.3 7 9.1 8.2 1.3 0.4 2.6 0.6 3.9 0.6 2.2 0 4.5-0.6 6.7-1.7 3.4-1.8 5.5-4.7 7.5-7.4L740 555.7l11.2 22.6c0.2 0.4 0.4 0.8 0.6 1.3 1.3 2.8 2.7 5.7 5.5 7.8 4.5 3.4 10.8 3.4 16.5-0.1 2.7-1.7 5.3-3.6 7.8-5.5 3.1-2.3 6.3-4.6 9.7-6.5 1.4-0.8 3.1-1.5 5-2.3 4.4-1.9 9.4-4 12-8.1 4-6.1 1.8-12.4-0.8-17.7l-46.6-94.8z" fill="#666666" p-id="14988"></path><path d="M601.3 208.6h-82.9v240.8h51.3v-84h26.4c27.2 0.6 49.8-6.5 67.8-21.4 18.2-14.9 27.2-34.5 27.2-59.3 0.1-50.8-29.9-76.1-89.8-76.1z m-9.4 117.5h-22.2v-77.7h22.6c29.9 0 44.8 12.8 44.8 38.3 0.1 26.2-15 39.4-45.2 39.4z" fill="#666666" p-id="14989"></path></svg>