<?xml version="1.0" encoding="utf-8" standalone="no"?>
<!DOCTYPE svg PUBLIC "-//W3C//DTD SVG 1.1//EN"
  "http://www.w3.org/Graphics/SVG/1.1/DTD/svg11.dtd">
<svg xmlns:xlink="http://www.w3.org/1999/xlink" width="848.333481pt" height="487.913965pt" viewBox="0 0 848.333481 487.913965" xmlns="http://www.w3.org/2000/svg" version="1.1">
 <metadata>
  <rdf:RDF xmlns:dc="http://purl.org/dc/elements/1.1/" xmlns:cc="http://creativecommons.org/ns#" xmlns:rdf="http://www.w3.org/1999/02/22-rdf-syntax-ns#">
   <cc:Work>
    <dc:type rdf:resource="http://purl.org/dc/dcmitype/StillImage"/>
    <dc:date>2025-12-10T13:35:01.160432</dc:date>
    <dc:format>image/svg+xml</dc:format>
    <dc:creator>
     <cc:Agent>
      <dc:title>Matplotlib v3.9.2, https://matplotlib.org/</dc:title>
     </cc:Agent>
    </dc:creator>
   </cc:Work>
  </rdf:RDF>
 </metadata>
 <defs>
  <style type="text/css">*{stroke-linejoin: round; stroke-linecap: butt}</style>
 </defs>
 <g id="figure_1">
  <g id="patch_1">
   <path d="M 0 487.913965 
L 848.333481 487.913965 
L 848.333481 0 
L 0 0 
z
" style="fill: #ffffff"/>
  </g>
  <g id="axes_1">
   <g id="patch_2">
    <path d="M 34.45 450.38584 
L 829.262028 450.38584 
L 829.262028 71.040799 
L 34.45 71.040799 
z
" style="fill: #ffffff"/>
   </g>
   <g id="matplotlib.axis_1">
    <g id="xtick_1">
     <g id="line2d_1">
      <path d="M 64.73309 450.38584 
L 64.73309 71.040799 
" clip-path="url(#p669f5c18e7)" style="fill: none; stroke-dasharray: 2.96,1.28; stroke-dashoffset: 0; stroke: #b0b0b0; stroke-opacity: 0.7; stroke-width: 0.8"/>
     </g>
     <g id="line2d_2">
      <defs>
       <path id="mf232f731e9" d="M 0 0 
L 0 3.5 
" style="stroke: #000000; stroke-width: 0.8"/>
      </defs>
      <g>
       <use xlink:href="#mf232f731e9" x="64.73309" y="450.38584" style="stroke: #000000; stroke-width: 0.8"/>
      </g>
     </g>
     <g id="text_1">
      <!-- 0 -->
      <g transform="translate(62.23309 464.26084) scale(0.1 -0.1)">
       <defs>
        <path id="SimHei-30" d="M 225 2537 
Q 250 3200 412 3587 
Q 575 3975 875 4225 
Q 1175 4475 1612 4475 
Q 2050 4475 2375 4112 
Q 2700 3750 2800 3200 
Q 2900 2650 2862 1937 
Q 2825 1225 2612 775 
Q 2400 325 1975 150 
Q 1550 -25 1125 187 
Q 700 400 525 750 
Q 350 1100 275 1487 
Q 200 1875 225 2537 
z
M 750 2687 
Q 675 2000 800 1462 
Q 925 925 1212 700 
Q 1500 475 1800 612 
Q 2100 750 2237 1162 
Q 2375 1575 2375 2062 
Q 2375 2550 2337 2950 
Q 2300 3350 2112 3675 
Q 1925 4000 1612 4012 
Q 1300 4025 1062 3700 
Q 825 3375 750 2687 
z
" transform="scale(0.015625)"/>
       </defs>
       <use xlink:href="#SimHei-30"/>
      </g>
     </g>
    </g>
    <g id="xtick_2">
     <g id="line2d_3">
      <path d="M 192.049822 450.38584 
L 192.049822 71.040799 
" clip-path="url(#p669f5c18e7)" style="fill: none; stroke-dasharray: 2.96,1.28; stroke-dashoffset: 0; stroke: #b0b0b0; stroke-opacity: 0.7; stroke-width: 0.8"/>
     </g>
     <g id="line2d_4">
      <g>
       <use xlink:href="#mf232f731e9" x="192.049822" y="450.38584" style="stroke: #000000; stroke-width: 0.8"/>
      </g>
     </g>
     <g id="text_2">
      <!-- 10000 -->
      <g transform="translate(179.549822 464.26084) scale(0.1 -0.1)">
       <defs>
        <path id="SimHei-31" d="M 1400 3600 
Q 1075 3275 575 2975 
L 575 3450 
Q 1200 3875 1600 4450 
L 1900 4450 
L 1900 150 
L 1400 150 
L 1400 3600 
z
" transform="scale(0.015625)"/>
       </defs>
       <use xlink:href="#SimHei-31"/>
       <use xlink:href="#SimHei-30" x="50"/>
       <use xlink:href="#SimHei-30" x="100"/>
       <use xlink:href="#SimHei-30" x="150"/>
       <use xlink:href="#SimHei-30" x="200"/>
      </g>
     </g>
    </g>
    <g id="xtick_3">
     <g id="line2d_5">
      <path d="M 319.366554 450.38584 
L 319.366554 71.040799 
" clip-path="url(#p669f5c18e7)" style="fill: none; stroke-dasharray: 2.96,1.28; stroke-dashoffset: 0; stroke: #b0b0b0; stroke-opacity: 0.7; stroke-width: 0.8"/>
     </g>
     <g id="line2d_6">
      <g>
       <use xlink:href="#mf232f731e9" x="319.366554" y="450.38584" style="stroke: #000000; stroke-width: 0.8"/>
      </g>
     </g>
     <g id="text_3">
      <!-- 20000 -->
      <g transform="translate(306.866554 464.26084) scale(0.1 -0.1)">
       <defs>
        <path id="SimHei-32" d="M 300 250 
Q 325 625 650 925 
Q 975 1225 1475 1862 
Q 1975 2500 2125 2850 
Q 2275 3200 2237 3450 
Q 2200 3700 2000 3862 
Q 1800 4025 1537 4000 
Q 1275 3975 1037 3800 
Q 800 3625 675 3275 
L 200 3350 
Q 400 3925 712 4187 
Q 1025 4450 1450 4475 
Q 1700 4500 1900 4462 
Q 2100 4425 2312 4287 
Q 2525 4150 2662 3875 
Q 2800 3600 2762 3212 
Q 2725 2825 2375 2287 
Q 2025 1750 1025 600 
L 2825 600 
L 2825 150 
L 300 150 
L 300 250 
z
" transform="scale(0.015625)"/>
       </defs>
       <use xlink:href="#SimHei-32"/>
       <use xlink:href="#SimHei-30" x="50"/>
       <use xlink:href="#SimHei-30" x="100"/>
       <use xlink:href="#SimHei-30" x="150"/>
       <use xlink:href="#SimHei-30" x="200"/>
      </g>
     </g>
    </g>
    <g id="xtick_4">
     <g id="line2d_7">
      <path d="M 446.683285 450.38584 
L 446.683285 71.040799 
" clip-path="url(#p669f5c18e7)" style="fill: none; stroke-dasharray: 2.96,1.28; stroke-dashoffset: 0; stroke: #b0b0b0; stroke-opacity: 0.7; stroke-width: 0.8"/>
     </g>
     <g id="line2d_8">
      <g>
       <use xlink:href="#mf232f731e9" x="446.683285" y="450.38584" style="stroke: #000000; stroke-width: 0.8"/>
      </g>
     </g>
     <g id="text_4">
      <!-- 30000 -->
      <g transform="translate(434.183285 464.26084) scale(0.1 -0.1)">
       <defs>
        <path id="SimHei-33" d="M 250 1225 
L 700 1300 
Q 800 975 1025 762 
Q 1250 550 1587 562 
Q 1925 575 2125 837 
Q 2325 1100 2300 1437 
Q 2275 1775 2037 1962 
Q 1800 2150 1275 2225 
L 1275 2550 
Q 1800 2600 2037 2825 
Q 2275 3050 2250 3412 
Q 2225 3775 1925 3937 
Q 1625 4100 1287 3975 
Q 950 3850 750 3275 
L 300 3350 
Q 450 3800 712 4100 
Q 975 4400 1425 4450 
Q 1875 4500 2212 4337 
Q 2550 4175 2687 3837 
Q 2825 3500 2725 3100 
Q 2625 2700 2150 2400 
Q 2500 2250 2687 1950 
Q 2875 1650 2812 1162 
Q 2750 675 2375 375 
Q 2000 75 1525 87 
Q 1050 100 700 387 
Q 350 675 250 1225 
z
" transform="scale(0.015625)"/>
       </defs>
       <use xlink:href="#SimHei-33"/>
       <use xlink:href="#SimHei-30" x="50"/>
       <use xlink:href="#SimHei-30" x="100"/>
       <use xlink:href="#SimHei-30" x="150"/>
       <use xlink:href="#SimHei-30" x="200"/>
      </g>
     </g>
    </g>
    <g id="xtick_5">
     <g id="line2d_9">
      <path d="M 574.000017 450.38584 
L 574.000017 71.040799 
" clip-path="url(#p669f5c18e7)" style="fill: none; stroke-dasharray: 2.96,1.28; stroke-dashoffset: 0; stroke: #b0b0b0; stroke-opacity: 0.7; stroke-width: 0.8"/>
     </g>
     <g id="line2d_10">
      <g>
       <use xlink:href="#mf232f731e9" x="574.000017" y="450.38584" style="stroke: #000000; stroke-width: 0.8"/>
      </g>
     </g>
     <g id="text_5">
      <!-- 40000 -->
      <g transform="translate(561.500017 464.26084) scale(0.1 -0.1)">
       <defs>
        <path id="SimHei-34" d="M 2000 1100 
L 75 1100 
L 75 1525 
L 2100 4450 
L 2475 4450 
L 2475 1525 
L 3075 1525 
L 3075 1100 
L 2475 1100 
L 2475 150 
L 2000 150 
L 2000 1100 
z
M 2000 1525 
L 2000 3500 
L 600 1525 
L 2000 1525 
z
" transform="scale(0.015625)"/>
       </defs>
       <use xlink:href="#SimHei-34"/>
       <use xlink:href="#SimHei-30" x="50"/>
       <use xlink:href="#SimHei-30" x="100"/>
       <use xlink:href="#SimHei-30" x="150"/>
       <use xlink:href="#SimHei-30" x="200"/>
      </g>
     </g>
    </g>
    <g id="xtick_6">
     <g id="line2d_11">
      <path d="M 701.316749 450.38584 
L 701.316749 71.040799 
" clip-path="url(#p669f5c18e7)" style="fill: none; stroke-dasharray: 2.96,1.28; stroke-dashoffset: 0; stroke: #b0b0b0; stroke-opacity: 0.7; stroke-width: 0.8"/>
     </g>
     <g id="line2d_12">
      <g>
       <use xlink:href="#mf232f731e9" x="701.316749" y="450.38584" style="stroke: #000000; stroke-width: 0.8"/>
      </g>
     </g>
     <g id="text_6">
      <!-- 50000 -->
      <g transform="translate(688.816749 464.26084) scale(0.1 -0.1)">
       <defs>
        <path id="SimHei-35" d="M 550 1325 
Q 725 650 1150 575 
Q 1575 500 1837 662 
Q 2100 825 2212 1087 
Q 2325 1350 2312 1675 
Q 2300 2000 2137 2225 
Q 1975 2450 1725 2525 
Q 1475 2600 1162 2525 
Q 850 2450 650 2175 
L 225 2225 
Q 275 2375 700 4375 
L 2675 4375 
L 2675 3925 
L 1075 3925 
Q 950 3250 825 2850 
Q 1200 3025 1525 3012 
Q 1850 3000 2150 2862 
Q 2450 2725 2587 2487 
Q 2725 2250 2787 2012 
Q 2850 1775 2837 1500 
Q 2825 1225 2725 937 
Q 2625 650 2425 462 
Q 2225 275 1937 162 
Q 1650 50 1275 75 
Q 900 100 562 350 
Q 225 600 100 1200 
L 550 1325 
z
" transform="scale(0.015625)"/>
       </defs>
       <use xlink:href="#SimHei-35"/>
       <use xlink:href="#SimHei-30" x="50"/>
       <use xlink:href="#SimHei-30" x="100"/>
       <use xlink:href="#SimHei-30" x="150"/>
       <use xlink:href="#SimHei-30" x="200"/>
      </g>
     </g>
    </g>
    <g id="xtick_7">
     <g id="line2d_13">
      <path d="M 828.633481 450.38584 
L 828.633481 71.040799 
" clip-path="url(#p669f5c18e7)" style="fill: none; stroke-dasharray: 2.96,1.28; stroke-dashoffset: 0; stroke: #b0b0b0; stroke-opacity: 0.7; stroke-width: 0.8"/>
     </g>
     <g id="line2d_14">
      <g>
       <use xlink:href="#mf232f731e9" x="828.633481" y="450.38584" style="stroke: #000000; stroke-width: 0.8"/>
      </g>
     </g>
     <g id="text_7">
      <!-- 60000 -->
      <g transform="translate(816.133481 464.26084) scale(0.1 -0.1)">
       <defs>
        <path id="SimHei-36" d="M 250 1612 
Q 275 1975 387 2225 
Q 500 2475 725 2850 
L 1750 4450 
L 2325 4450 
L 1275 2800 
Q 1950 2975 2350 2750 
Q 2750 2525 2887 2237 
Q 3025 1950 3037 1612 
Q 3050 1275 2937 950 
Q 2825 625 2537 362 
Q 2250 100 1737 75 
Q 1225 50 862 262 
Q 500 475 362 862 
Q 225 1250 250 1612 
z
M 1025 787 
Q 1250 550 1625 525 
Q 2000 500 2250 775 
Q 2500 1050 2500 1575 
Q 2500 2100 2187 2300 
Q 1875 2500 1487 2450 
Q 1100 2400 925 2075 
Q 750 1750 775 1387 
Q 800 1025 1025 787 
z
" transform="scale(0.015625)"/>
       </defs>
       <use xlink:href="#SimHei-36"/>
       <use xlink:href="#SimHei-30" x="50"/>
       <use xlink:href="#SimHei-30" x="100"/>
       <use xlink:href="#SimHei-30" x="150"/>
       <use xlink:href="#SimHei-30" x="200"/>
      </g>
     </g>
    </g>
    <g id="text_8">
     <!-- 行程 s (mm) -->
     <g transform="translate(398.856014 479.213965) scale(0.12 -0.12)">
      <defs>
       <path id="SimHei-884c" d="M 5300 3100 
Q 5775 3100 6175 3125 
L 6175 2625 
Q 5775 2650 5325 2650 
L 4975 2650 
L 4975 -75 
Q 5000 -375 4787 -487 
Q 4575 -600 3950 -675 
Q 3900 -375 3675 -75 
Q 4100 -125 4275 -112 
Q 4450 -100 4475 150 
L 4475 2650 
L 3475 2650 
Q 3000 2650 2575 2625 
L 2575 3125 
Q 3025 3100 3475 3100 
L 5300 3100 
z
M 2300 3400 
Q 2075 3275 1962 3075 
Q 1850 2875 1650 2575 
L 1650 325 
Q 1650 0 1675 -675 
L 1150 -675 
Q 1175 75 1175 450 
L 1175 2050 
Q 950 1675 575 1300 
Q 400 1550 250 1725 
Q 825 2275 1150 2775 
Q 1475 3275 1725 3725 
Q 1975 3575 2300 3400 
z
M 4875 4800 
Q 5300 4800 5750 4825 
L 5750 4350 
Q 5300 4375 4825 4375 
L 3900 4375 
Q 3350 4375 2950 4350 
L 2950 4825 
Q 3350 4800 3900 4800 
L 4875 4800 
z
M 2075 4925 
Q 1875 4900 1550 4387 
Q 1225 3875 650 3250 
Q 500 3450 325 3625 
Q 725 4025 1050 4487 
Q 1375 4950 1525 5300 
Q 1775 5150 2075 4925 
z
" transform="scale(0.015625)"/>
       <path id="SimHei-7a0b" d="M 5825 4975 
Q 5800 4425 5800 3975 
Q 5800 3550 5825 3125 
L 3025 3125 
Q 3050 3600 3050 4025 
Q 3050 4450 3025 4975 
L 5825 4975 
z
M 400 4825 
Q 825 4875 1362 4987 
Q 1900 5100 2275 5275 
Q 2450 4950 2625 4725 
Q 2450 4750 2262 4712 
Q 2075 4675 1850 4650 
L 1850 3425 
Q 2200 3425 2600 3450 
L 2600 2975 
Q 2200 3000 1850 3000 
L 1850 800 
Q 1850 250 1875 -675 
L 1375 -675 
Q 1400 250 1400 775 
L 1400 1925 
Q 1050 1225 625 600 
Q 450 850 225 1050 
Q 575 1400 850 1850 
Q 1125 2300 1350 3000 
Q 725 3000 425 2975 
L 425 3450 
Q 850 3425 1050 3425 
L 1400 3425 
L 1400 4550 
Q 1075 4475 575 4400 
Q 500 4625 400 4825 
z
M 5100 2500 
Q 5500 2500 5950 2525 
L 5950 2075 
Q 5500 2100 5100 2100 
L 4625 2100 
L 4625 1300 
L 4900 1300 
Q 5275 1300 5775 1325 
L 5775 850 
Q 5275 875 4975 875 
L 4625 875 
L 4625 0 
L 5225 0 
Q 5675 0 6175 25 
L 6175 -450 
Q 5775 -425 5225 -425 
L 3550 -425 
Q 3000 -425 2600 -475 
L 2600 25 
Q 3000 0 3550 0 
L 4150 0 
L 4150 875 
L 3800 875 
Q 3400 875 3050 825 
L 3050 1325 
Q 3400 1300 3800 1300 
L 4150 1300 
L 4150 2100 
L 3750 2100 
Q 3300 2100 2900 2075 
L 2900 2525 
Q 3300 2500 3750 2500 
L 5100 2500 
z
M 5275 3575 
L 5275 4550 
L 3500 4550 
L 3500 3575 
L 5275 3575 
z
M 2300 2400 
Q 2550 2025 2825 1525 
Q 2675 1425 2425 1225 
Q 2175 1775 1925 2125 
Q 2075 2250 2300 2400 
z
" transform="scale(0.015625)"/>
       <path id="SimHei-20" transform="scale(0.015625)"/>
       <path id="SimHei-73" d="M 2750 900 
Q 2750 500 2437 287 
Q 2125 75 1650 75 
Q 1050 75 725 312 
Q 400 550 400 1000 
L 900 1000 
Q 900 700 1112 600 
Q 1325 500 1625 500 
Q 1925 500 2075 612 
Q 2225 725 2225 900 
Q 2225 1025 2100 1150 
Q 1975 1275 1475 1350 
Q 900 1425 687 1637 
Q 475 1850 475 2200 
Q 475 2500 762 2737 
Q 1050 2975 1600 2975 
Q 2100 2975 2387 2750 
Q 2675 2525 2675 2150 
L 2175 2150 
Q 2175 2375 2012 2462 
Q 1850 2550 1600 2550 
Q 1275 2550 1137 2437 
Q 1000 2325 1000 2175 
Q 1000 2000 1125 1900 
Q 1250 1800 1650 1750 
Q 2300 1650 2525 1437 
Q 2750 1225 2750 900 
z
" transform="scale(0.015625)"/>
       <path id="SimHei-28" d="M 2975 -200 
L 2700 -475 
Q 2075 125 1762 775 
Q 1450 1425 1450 2250 
Q 1450 3075 1762 3725 
Q 2075 4375 2700 5000 
L 2975 4725 
Q 2400 4175 2112 3587 
Q 1825 3000 1825 2250 
Q 1825 1500 2112 912 
Q 2400 325 2975 -200 
z
" transform="scale(0.015625)"/>
       <path id="SimHei-6d" d="M 3050 125 
L 2550 125 
L 2550 2150 
Q 2550 2300 2500 2400 
Q 2450 2500 2300 2500 
Q 2125 2500 1975 2312 
Q 1825 2125 1825 1825 
L 1825 125 
L 1325 125 
L 1325 2150 
Q 1325 2300 1275 2400 
Q 1225 2500 1075 2500 
Q 900 2500 750 2312 
Q 600 2125 600 1825 
L 600 125 
L 100 125 
L 100 2925 
L 600 2925 
L 600 2550 
Q 725 2750 900 2862 
Q 1075 2975 1275 2975 
Q 1475 2975 1612 2862 
Q 1750 2750 1800 2550 
Q 1925 2750 2087 2862 
Q 2250 2975 2450 2975 
Q 2750 2975 2900 2812 
Q 3050 2650 3050 2350 
L 3050 125 
z
" transform="scale(0.015625)"/>
       <path id="SimHei-29" d="M 1675 2250 
Q 1675 1425 1362 775 
Q 1050 125 425 -475 
L 150 -200 
Q 725 325 1012 912 
Q 1300 1500 1300 2250 
Q 1300 3000 1012 3587 
Q 725 4175 150 4725 
L 425 5000 
Q 1050 4375 1362 3725 
Q 1675 3075 1675 2250 
z
" transform="scale(0.015625)"/>
      </defs>
      <use xlink:href="#SimHei-884c"/>
      <use xlink:href="#SimHei-7a0b" x="100"/>
      <use xlink:href="#SimHei-20" x="200"/>
      <use xlink:href="#SimHei-73" x="250"/>
      <use xlink:href="#SimHei-20" x="300"/>
      <use xlink:href="#SimHei-28" x="350"/>
      <use xlink:href="#SimHei-6d" x="400"/>
      <use xlink:href="#SimHei-6d" x="450"/>
      <use xlink:href="#SimHei-29" x="500"/>
     </g>
    </g>
   </g>
   <g id="matplotlib.axis_2">
    <g id="ytick_1">
     <g id="line2d_15">
      <path d="M 34.45 433.142883 
L 829.262028 433.142883 
" clip-path="url(#p669f5c18e7)" style="fill: none; stroke-dasharray: 2.96,1.28; stroke-dashoffset: 0; stroke: #b0b0b0; stroke-opacity: 0.7; stroke-width: 0.8"/>
     </g>
     <g id="line2d_16">
      <defs>
       <path id="m4d93f825a1" d="M 0 0 
L -3.5 0 
" style="stroke: #000000; stroke-width: 0.8"/>
      </defs>
      <g>
       <use xlink:href="#m4d93f825a1" x="34.45" y="433.142883" style="stroke: #000000; stroke-width: 0.8"/>
      </g>
     </g>
     <g id="text_9">
      <!-- 0 -->
      <g transform="translate(22.45 436.580383) scale(0.1 -0.1)">
       <use xlink:href="#SimHei-30"/>
      </g>
     </g>
    </g>
    <g id="ytick_2">
     <g id="line2d_17">
      <path d="M 34.45 390.035492 
L 829.262028 390.035492 
" clip-path="url(#p669f5c18e7)" style="fill: none; stroke-dasharray: 2.96,1.28; stroke-dashoffset: 0; stroke: #b0b0b0; stroke-opacity: 0.7; stroke-width: 0.8"/>
     </g>
     <g id="line2d_18">
      <g>
       <use xlink:href="#m4d93f825a1" x="34.45" y="390.035492" style="stroke: #000000; stroke-width: 0.8"/>
      </g>
     </g>
     <g id="text_10">
      <!-- 1 -->
      <g transform="translate(22.45 393.472992) scale(0.1 -0.1)">
       <use xlink:href="#SimHei-31"/>
      </g>
     </g>
    </g>
    <g id="ytick_3">
     <g id="line2d_19">
      <path d="M 34.45 346.928101 
L 829.262028 346.928101 
" clip-path="url(#p669f5c18e7)" style="fill: none; stroke-dasharray: 2.96,1.28; stroke-dashoffset: 0; stroke: #b0b0b0; stroke-opacity: 0.7; stroke-width: 0.8"/>
     </g>
     <g id="line2d_20">
      <g>
       <use xlink:href="#m4d93f825a1" x="34.45" y="346.928101" style="stroke: #000000; stroke-width: 0.8"/>
      </g>
     </g>
     <g id="text_11">
      <!-- 2 -->
      <g transform="translate(22.45 350.365601) scale(0.1 -0.1)">
       <use xlink:href="#SimHei-32"/>
      </g>
     </g>
    </g>
    <g id="ytick_4">
     <g id="line2d_21">
      <path d="M 34.45 303.82071 
L 829.262028 303.82071 
" clip-path="url(#p669f5c18e7)" style="fill: none; stroke-dasharray: 2.96,1.28; stroke-dashoffset: 0; stroke: #b0b0b0; stroke-opacity: 0.7; stroke-width: 0.8"/>
     </g>
     <g id="line2d_22">
      <g>
       <use xlink:href="#m4d93f825a1" x="34.45" y="303.82071" style="stroke: #000000; stroke-width: 0.8"/>
      </g>
     </g>
     <g id="text_12">
      <!-- 3 -->
      <g transform="translate(22.45 307.25821) scale(0.1 -0.1)">
       <use xlink:href="#SimHei-33"/>
      </g>
     </g>
    </g>
    <g id="ytick_5">
     <g id="line2d_23">
      <path d="M 34.45 260.713319 
L 829.262028 260.713319 
" clip-path="url(#p669f5c18e7)" style="fill: none; stroke-dasharray: 2.96,1.28; stroke-dashoffset: 0; stroke: #b0b0b0; stroke-opacity: 0.7; stroke-width: 0.8"/>
     </g>
     <g id="line2d_24">
      <g>
       <use xlink:href="#m4d93f825a1" x="34.45" y="260.713319" style="stroke: #000000; stroke-width: 0.8"/>
      </g>
     </g>
     <g id="text_13">
      <!-- 4 -->
      <g transform="translate(22.45 264.150819) scale(0.1 -0.1)">
       <use xlink:href="#SimHei-34"/>
      </g>
     </g>
    </g>
    <g id="ytick_6">
     <g id="line2d_25">
      <path d="M 34.45 217.605928 
L 829.262028 217.605928 
" clip-path="url(#p669f5c18e7)" style="fill: none; stroke-dasharray: 2.96,1.28; stroke-dashoffset: 0; stroke: #b0b0b0; stroke-opacity: 0.7; stroke-width: 0.8"/>
     </g>
     <g id="line2d_26">
      <g>
       <use xlink:href="#m4d93f825a1" x="34.45" y="217.605928" style="stroke: #000000; stroke-width: 0.8"/>
      </g>
     </g>
     <g id="text_14">
      <!-- 5 -->
      <g transform="translate(22.45 221.043428) scale(0.1 -0.1)">
       <use xlink:href="#SimHei-35"/>
      </g>
     </g>
    </g>
    <g id="ytick_7">
     <g id="line2d_27">
      <path d="M 34.45 174.498537 
L 829.262028 174.498537 
" clip-path="url(#p669f5c18e7)" style="fill: none; stroke-dasharray: 2.96,1.28; stroke-dashoffset: 0; stroke: #b0b0b0; stroke-opacity: 0.7; stroke-width: 0.8"/>
     </g>
     <g id="line2d_28">
      <g>
       <use xlink:href="#m4d93f825a1" x="34.45" y="174.498537" style="stroke: #000000; stroke-width: 0.8"/>
      </g>
     </g>
     <g id="text_15">
      <!-- 6 -->
      <g transform="translate(22.45 177.936037) scale(0.1 -0.1)">
       <use xlink:href="#SimHei-36"/>
      </g>
     </g>
    </g>
    <g id="ytick_8">
     <g id="line2d_29">
      <path d="M 34.45 131.391146 
L 829.262028 131.391146 
" clip-path="url(#p669f5c18e7)" style="fill: none; stroke-dasharray: 2.96,1.28; stroke-dashoffset: 0; stroke: #b0b0b0; stroke-opacity: 0.7; stroke-width: 0.8"/>
     </g>
     <g id="line2d_30">
      <g>
       <use xlink:href="#m4d93f825a1" x="34.45" y="131.391146" style="stroke: #000000; stroke-width: 0.8"/>
      </g>
     </g>
     <g id="text_16">
      <!-- 7 -->
      <g transform="translate(22.45 134.828646) scale(0.1 -0.1)">
       <defs>
        <path id="SimHei-37" d="M 850 150 
Q 1300 2050 2425 3925 
L 275 3925 
L 275 4375 
L 2950 4375 
L 2950 3950 
Q 1775 2050 1400 150 
L 850 150 
z
" transform="scale(0.015625)"/>
       </defs>
       <use xlink:href="#SimHei-37"/>
      </g>
     </g>
    </g>
    <g id="ytick_9">
     <g id="line2d_31">
      <path d="M 34.45 88.283755 
L 829.262028 88.283755 
" clip-path="url(#p669f5c18e7)" style="fill: none; stroke-dasharray: 2.96,1.28; stroke-dashoffset: 0; stroke: #b0b0b0; stroke-opacity: 0.7; stroke-width: 0.8"/>
     </g>
     <g id="line2d_32">
      <g>
       <use xlink:href="#m4d93f825a1" x="34.45" y="88.283755" style="stroke: #000000; stroke-width: 0.8"/>
      </g>
     </g>
     <g id="text_17">
      <!-- 8 -->
      <g transform="translate(22.45 91.721255) scale(0.1 -0.1)">
       <defs>
        <path id="SimHei-38" d="M 175 1375 
Q 175 1675 325 1962 
Q 475 2250 825 2425 
Q 525 2600 425 2812 
Q 325 3025 312 3300 
Q 300 3575 387 3775 
Q 475 3975 650 4150 
Q 825 4325 1037 4387 
Q 1250 4450 1500 4450 
Q 1750 4450 1950 4400 
Q 2150 4350 2375 4187 
Q 2600 4025 2700 3725 
Q 2800 3425 2687 3025 
Q 2575 2625 2100 2400 
Q 2525 2275 2700 2012 
Q 2875 1750 2875 1375 
Q 2875 1000 2762 775 
Q 2650 550 2512 400 
Q 2375 250 2137 162 
Q 1900 75 1537 75 
Q 1175 75 912 162 
Q 650 250 475 425 
Q 300 600 237 837 
Q 175 1075 175 1375 
z
M 687 1400 
Q 675 1100 787 875 
Q 900 650 1200 587 
Q 1500 525 1825 600 
Q 2150 675 2275 950 
Q 2400 1225 2362 1500 
Q 2325 1775 2050 1962 
Q 1775 2150 1450 2125 
Q 1125 2100 912 1900 
Q 700 1700 687 1400 
z
M 775 3350 
Q 775 3100 950 2875 
Q 1125 2650 1500 2650 
Q 1875 2650 2062 2875 
Q 2250 3100 2237 3412 
Q 2225 3725 2012 3875 
Q 1800 4025 1437 4000 
Q 1075 3975 925 3787 
Q 775 3600 775 3350 
z
" transform="scale(0.015625)"/>
       </defs>
       <use xlink:href="#SimHei-38"/>
      </g>
     </g>
    </g>
    <g id="text_18">
     <!-- 切宽 ae (mm) -->
     <g transform="translate(16.95 296.713319) rotate(-90) scale(0.12 -0.12)">
      <defs>
       <path id="SimHei-5207" d="M 4200 125 
Q 4875 125 5037 187 
Q 5200 250 5225 525 
L 5400 4175 
L 4250 4175 
Q 4275 2875 4075 1987 
Q 3875 1100 3500 575 
Q 3125 50 2425 -575 
Q 2275 -375 1900 -250 
Q 2550 200 2937 675 
Q 3325 1150 3550 1925 
Q 3775 2700 3750 4175 
Q 3200 4175 2700 4150 
L 2700 4600 
Q 3175 4575 3625 4575 
L 5900 4575 
Q 5875 4200 5850 3700 
L 5700 325 
Q 5625 -250 5312 -337 
Q 5000 -425 4450 -525 
Q 4400 -200 4200 125 
z
M 1175 4275 
Q 1175 4625 1150 5000 
L 1650 5000 
Q 1625 4625 1625 4300 
L 1625 3275 
Q 2150 3350 2700 3425 
Q 2725 3150 2750 2975 
Q 2325 2925 1625 2850 
L 1625 1050 
Q 2325 1475 2650 1750 
Q 2725 1550 2875 1300 
Q 2325 975 1225 200 
Q 1075 500 925 650 
Q 1175 850 1175 1125 
L 1175 2775 
Q 675 2725 325 2675 
Q 300 2975 275 3150 
Q 650 3175 1175 3225 
L 1175 4275 
z
" transform="scale(0.015625)"/>
       <path id="SimHei-5bbd" d="M 2225 3525 
Q 2225 3700 2200 3925 
L 2700 3925 
Q 2675 3700 2675 3525 
L 3650 3525 
Q 3650 3675 3625 3950 
L 4125 3950 
Q 4100 3675 4100 3525 
Q 4625 3525 5100 3550 
L 5100 3075 
Q 4575 3125 4100 3125 
L 4100 2475 
L 5025 2475 
Q 5000 2175 5000 1875 
L 5000 1475 
Q 5000 1225 5025 825 
L 4525 825 
L 4525 2100 
L 1800 2100 
L 1800 750 
L 1300 750 
Q 1325 1200 1325 1450 
L 1325 1850 
Q 1325 2175 1300 2475 
L 2225 2475 
L 2225 3125 
L 1875 3125 
Q 1700 3125 1225 3050 
L 1225 3550 
Q 1700 3525 1875 3525 
L 2225 3525 
z
M 5375 3500 
L 5375 4175 
L 950 4175 
L 950 3400 
L 425 3400 
Q 450 3725 450 3950 
Q 450 4200 425 4575 
L 3025 4575 
Q 2975 4700 2725 5125 
Q 3050 5200 3300 5300 
Q 3500 4900 3625 4575 
L 5900 4575 
Q 5875 4250 5875 3975 
Q 5875 3700 5900 3500 
L 5375 3500 
z
M 3325 1825 
Q 3100 900 2850 462 
Q 2600 25 2112 -237 
Q 1625 -500 650 -700 
Q 550 -350 400 -100 
Q 1025 -75 1450 37 
Q 1875 150 2150 387 
Q 2425 625 2550 987 
Q 2675 1350 2725 1950 
Q 3100 1850 3325 1825 
z
M 3975 1250 
Q 3950 925 3950 675 
L 3950 150 
Q 3950 -75 4200 -100 
L 4950 -100 
Q 5250 -100 5400 0 
Q 5550 100 5650 550 
Q 5875 400 6125 300 
Q 5925 -500 5175 -525 
L 4025 -525 
Q 3500 -500 3450 -25 
L 3450 725 
Q 3450 925 3425 1250 
L 3975 1250 
z
M 3650 2475 
L 3650 3125 
L 2675 3125 
L 2675 2475 
L 3650 2475 
z
" transform="scale(0.015625)"/>
       <path id="SimHei-61" d="M 2875 125 
L 2275 125 
Q 2225 175 2200 262 
Q 2175 350 2175 475 
Q 2000 275 1750 175 
Q 1500 75 1225 75 
Q 825 75 550 275 
Q 275 475 275 850 
Q 275 1225 525 1450 
Q 775 1675 1300 1750 
Q 1650 1800 1912 1875 
Q 2175 1950 2175 2075 
Q 2175 2225 2062 2375 
Q 1950 2525 1575 2525 
Q 1275 2525 1137 2412 
Q 1000 2300 950 2100 
L 400 2100 
Q 450 2500 762 2737 
Q 1075 2975 1575 2975 
Q 2125 2975 2400 2725 
Q 2675 2475 2675 2025 
L 2675 650 
Q 2675 500 2725 375 
Q 2775 250 2875 125 
z
M 2175 1050 
L 2175 1550 
Q 2025 1500 1887 1462 
Q 1750 1425 1425 1375 
Q 1050 1325 937 1200 
Q 825 1075 825 900 
Q 825 750 937 637 
Q 1050 525 1275 525 
Q 1500 525 1762 650 
Q 2025 775 2175 1050 
z
" transform="scale(0.015625)"/>
       <path id="SimHei-65" d="M 2850 1075 
Q 2800 625 2450 350 
Q 2100 75 1625 75 
Q 1025 75 637 462 
Q 250 850 250 1525 
Q 250 2200 637 2587 
Q 1025 2975 1625 2975 
Q 2150 2975 2487 2637 
Q 2825 2300 2825 1525 
L 800 1525 
Q 800 975 1037 750 
Q 1275 525 1625 525 
Q 1900 525 2075 662 
Q 2250 800 2300 1075 
L 2850 1075 
z
M 2250 1925 
Q 2200 2275 2025 2412 
Q 1850 2550 1575 2550 
Q 1325 2550 1125 2412 
Q 925 2275 825 1925 
L 2250 1925 
z
" transform="scale(0.015625)"/>
      </defs>
      <use xlink:href="#SimHei-5207"/>
      <use xlink:href="#SimHei-5bbd" x="100"/>
      <use xlink:href="#SimHei-20" x="200"/>
      <use xlink:href="#SimHei-61" x="250"/>
      <use xlink:href="#SimHei-65" x="300"/>
      <use xlink:href="#SimHei-20" x="350"/>
      <use xlink:href="#SimHei-28" x="400"/>
      <use xlink:href="#SimHei-6d" x="450"/>
      <use xlink:href="#SimHei-6d" x="500"/>
      <use xlink:href="#SimHei-29" x="550"/>
     </g>
    </g>
   </g>
   <g id="line2d_33">
    <path d="M 70.577819 433.142883 
L 75.698169 433.142883 
L 75.698169 109.837451 
L 76.304457 261.66901 
L 77.322991 261.66901 
L 77.322991 109.837451 
L 77.325654 433.142883 
L 77.33499 433.142883 
L 78.353524 433.142883 
L 78.353524 109.837451 
L 78.365523 326.282247 
L 79.384057 326.282247 
L 79.384057 109.837451 
L 79.386052 433.142883 
L 79.968981 122.769668 
L 80.422229 122.769668 
L 80.422229 239.159624 
L 81.328724 239.159624 
L 83.65862 239.159624 
L 83.65862 122.769668 
L 84.048209 252.091841 
L 86.838992 252.091841 
L 86.838992 122.769668 
L 87.816785 239.159624 
L 89.510097 239.159624 
L 89.510097 122.769668 
L 90.296915 239.159624 
L 91.671935 239.159624 
L 91.671935 122.769668 
L 91.870549 252.091841 
L 92.665006 252.091841 
L 93.324506 252.091841 
L 93.324506 122.769668 
L 94.269197 239.159624 
L 94.467811 239.159624 
L 94.467811 122.769668 
L 95.03819 433.142883 
L 95.277545 433.142883 
L 95.897298 433.142883 
L 95.897298 109.837451 
L 96.503586 261.66901 
L 97.52212 261.66901 
L 97.52212 109.837451 
L 97.524783 433.142883 
L 97.534119 433.142883 
L 98.552653 433.142883 
L 98.552653 109.837451 
L 98.564652 326.282247 
L 99.583185 326.282247 
L 99.583185 109.837451 
L 99.58518 433.142883 
L 100.16811 122.769668 
L 100.621357 122.769668 
L 100.621357 239.159624 
L 101.527853 239.159624 
L 103.857749 239.159624 
L 103.857749 122.769668 
L 104.247338 252.091841 
L 107.038121 252.091841 
L 107.038121 122.769668 
L 108.015913 239.159624 
L 109.709226 239.159624 
L 109.709226 122.769668 
L 110.496043 239.159624 
L 111.871064 239.159624 
L 111.871064 122.769668 
L 112.069678 252.091841 
L 112.864134 252.091841 
L 113.523635 252.091841 
L 113.523635 122.769668 
L 114.468325 239.159624 
L 114.666939 239.159624 
L 114.666939 122.769668 
L 115.237318 433.142883 
L 115.489405 433.142883 
L 116.121889 433.142883 
L 116.121889 109.837451 
L 116.728178 261.66901 
L 117.746711 261.66901 
L 117.746711 109.837451 
L 117.749375 433.142883 
L 117.758711 433.142883 
L 118.777244 433.142883 
L 118.777244 109.837451 
L 118.789244 326.282247 
L 119.807777 326.282247 
L 119.807777 109.837451 
L 119.809772 433.142883 
L 120.392702 122.769668 
L 120.845949 122.769668 
L 120.845949 239.159624 
L 121.752444 239.159624 
L 124.082341 239.159624 
L 124.082341 122.769668 
L 124.47193 252.091841 
L 127.262713 252.091841 
L 127.262713 122.769668 
L 128.240505 239.159624 
L 129.933818 239.159624 
L 129.933818 122.769668 
L 130.720635 239.159624 
L 132.095656 239.159624 
L 132.095656 122.769668 
L 132.29427 252.091841 
L 133.088726 252.091841 
L 133.748227 252.091841 
L 133.748227 122.769668 
L 134.692917 239.159624 
L 134.891531 239.159624 
L 134.891531 122.769668 
L 135.46191 433.142883 
L 135.726729 433.142883 
L 136.502695 433.142883 
L 136.749061 89.601979 
L 137.466322 122.769668 
L 137.565934 122.769668 
L 137.565934 89.167888 
L 138.029343 433.142883 
L 138.093002 433.142883 
L 138.79849 433.142883 
L 139.597911 89.2291 
L 139.699764 433.142883 
L 140.219719 433.142883 
L 140.466125 90.180911 
L 141.183423 122.769668 
L 141.28303 122.769668 
L 141.708307 91.647856 
L 141.746502 433.142883 
L 141.81016 433.142883 
L 142.515691 433.142883 
L 143.213395 92.813049 
L 143.35059 433.142883 
L 143.967273 433.142883 
L 144.131474 89.371786 
L 144.931147 109.837451 
L 145.03077 109.837451 
L 145.45613 90.089955 
L 145.494325 433.142883 
L 145.557984 433.142883 
L 146.341015 433.142883 
L 146.493582 88.848031 
L 147.242359 433.142883 
L 147.859001 433.142883 
L 148.105446 89.363164 
L 148.822797 109.837451 
L 148.922425 109.837451 
L 148.922425 88.870447 
L 149.385917 433.142883 
L 149.449575 433.142883 
L 150.232576 433.142883 
L 151.009388 88.283755 
L 151.200363 88.283755 
L 151.264021 88.283755 
L 151.505922 433.142883 
L 152.252216 433.142883 
L 152.366801 433.142883 
L 152.639407 89.556285 
L 153.329053 92.272913 
L 153.395669 92.272913 
L 153.725449 433.142883 
L 153.687254 92.25567 
L 154.383304 433.142883 
L 154.497889 433.142883 
L 155.218478 89.716645 
L 155.333063 433.142883 
L 156.218129 433.142883 
L 157.141285 90.177463 
L 157.192207 94.723568 
L 157.246728 94.723568 
L 157.284923 433.142883 
L 157.9606 90.601208 
L 158.192566 433.142883 
L 158.752184 433.142883 
L 159.202053 92.213425 
L 159.316639 433.142883 
L 160.012586 433.142883 
L 160.73302 88.79156 
L 160.847605 433.142883 
L 161.733104 433.142883 
L 162.658761 92.25567 
L 162.709686 103.33858 
L 162.764334 103.33858 
L 162.802529 433.142883 
L 163.679477 90.845627 
L 163.717672 433.142883 
L 164.277246 433.142883 
L 164.727084 95.819789 
L 164.841669 433.142883 
L 165.53754 433.142883 
L 166.257919 88.78768 
L 166.372504 433.142883 
L 167.310373 433.142883 
L 167.409373 92.238858 
L 168.284368 120.922085 
L 168.322563 120.922085 
L 168.322563 433.142883 
L 169.200029 89.42179 
L 169.314614 433.142883 
L 169.797873 433.142883 
L 169.889621 92.225495 
L 170.362388 433.142883 
L 171.058362 433.142883 
L 171.186928 89.47395 
L 171.893483 433.142883 
L 172.831304 433.142883 
L 172.930158 92.097897 
L 173.802598 289.625015 
L 173.840793 289.625015 
L 173.840793 433.142883 
L 174.24293 265.024058 
L 174.357515 433.142883 
L 175.428555 433.142883 
L 175.428555 88.283755 
L 175.976019 433.142883 
L 176.781881 433.142883 
L 176.860273 89.707161 
L 177.726779 90.290404 
L 177.802238 90.290404 
L 178.07876 433.142883 
L 178.040565 89.943821 
L 178.775603 433.142883 
L 178.813798 433.142883 
L 179.448574 97.175085 
L 179.575891 433.142883 
L 180.44201 433.142883 
L 180.524615 90.937446 
L 181.419511 433.142883 
L 182.057051 433.142883 
L 182.321952 89.708454 
L 183.001882 90.468006 
L 183.077319 90.468006 
L 183.35382 433.142883 
L 184.050633 433.142883 
L 184.088828 433.142883 
L 184.203052 96.608654 
L 184.850857 433.142883 
L 185.749306 433.142883 
L 185.851212 89.917525 
L 186.690247 433.142883 
L 187.325522 433.142883 
L 187.403944 89.712334 
L 188.270221 90.103749 
L 188.345638 90.103749 
L 188.622106 433.142883 
L 189.318833 433.142883 
L 189.357028 433.142883 
L 189.991649 97.260007 
L 190.118966 433.142883 
L 191.012977 433.142883 
L 191.114795 89.836914 
L 191.952714 433.142883 
L 192.588461 433.142883 
L 192.853345 89.706299 
L 193.533233 92.053065 
L 193.608672 92.053065 
L 193.88516 433.142883 
L 193.846965 89.432998 
L 194.581917 433.142883 
L 194.620112 433.142883 
L 195.254795 96.590549 
L 195.382111 433.142883 
L 196.277731 433.142883 
L 197.161833 88.283755 
L 197.22549 88.283755 
L 197.289149 88.283755 
L 197.594709 433.142883 
L 197.722026 433.142883 
L 198.685708 433.142883 
L 198.834915 90.108491 
L 199.661357 433.142883 
L 199.801405 433.142883 
L 200.376686 89.274363 
L 200.516734 433.142883 
L 201.31926 433.142883 
L 201.409382 91.052543 
L 202.278677 433.142883 
L 202.861145 433.142883 
L 202.945549 88.941574 
L 203.836139 433.142883 
L 203.976188 433.142883 
L 204.081988 89.082104 
L 204.691076 433.142883 
L 205.493119 433.142883 
L 206.272585 91.071079 
L 206.451768 433.142883 
L 207.034852 433.142883 
L 207.119228 88.929935 
L 208.00959 433.142883 
L 208.149638 433.142883 
L 208.255374 89.160128 
L 208.864409 433.142883 
L 209.666172 433.142883 
L 209.809424 90.395586 
L 210.624618 433.142883 
L 211.207345 433.142883 
L 211.57043 88.947178 
L 212.182738 433.142883 
L 212.322787 433.142883 
L 212.897952 89.033393 
L 213.038 433.142883 
L 213.840246 433.142883 
L 214.63295 88.283755 
L 214.823925 88.283755 
L 214.887584 88.283755 
L 215.065826 433.142883 
L 215.812737 433.142883 
L 215.965517 433.142883 
L 216.130857 89.532145 
L 216.88337 433.142883 
L 217.03615 433.142883 
L 217.564335 89.502832 
L 217.717115 433.142883 
L 218.477282 433.142883 
L 218.563775 90.416709 
L 219.368259 433.142883 
L 220.031348 433.142883 
L 220.11343 88.892862 
L 220.949187 433.142883 
L 221.101967 433.142883 
L 221.201965 89.0446 
L 221.782925 433.142883 
L 222.543083 433.142883 
L 223.245702 90.414122 
L 223.434047 433.142883 
L 224.09714 433.142883 
L 224.179222 89.528696 
L 225.014983 433.142883 
L 225.167763 433.142883 
L 225.26776 89.502401 
L 225.848723 433.142883 
L 226.685534 433.142883 
L 226.837598 89.022185 
L 227.642075 433.142883 
L 228.305159 433.142883 
L 228.635839 88.886827 
L 229.223015 433.142883 
L 229.375795 433.142883 
L 229.903982 89.962788 
L 230.056762 433.142883 
L 230.893404 433.142883 
L 231.674162 88.283755 
L 231.865137 88.283755 
L 231.928795 88.283755 
L 232.107039 433.142883 
L 232.887642 433.142883 
L 233.053154 433.142883 
L 233.354531 89.017874 
L 234.048385 433.142883 
L 234.08658 433.142883 
L 234.182232 89.379114 
L 234.739918 433.142883 
L 235.540624 433.142883 
L 236.339557 88.814838 
L 236.505069 433.142883 
L 237.471149 433.142883 
L 237.539191 93.890733 
L 238.454043 107.423437 
L 238.524322 107.423437 
L 238.562517 433.142883 
L 239.328911 89.046325 
L 239.470006 89.644224 
L 239.588378 89.722249 
L 239.588378 433.142883 
L 240.555508 231.806796 
L 240.614868 231.806796 
L 240.76983 89.02822 
L 240.808025 433.142883 
L 241.570002 433.142883 
L 241.735514 433.142883 
L 242.534774 89.436878 
L 242.700286 433.142883 
L 243.800203 433.142883 
L 244.572802 94.4313 
L 244.730575 433.142883 
L 245.41665 433.142883 
L 245.719004 89.440326 
L 246.413702 433.142883 
L 246.451897 433.142883 
L 246.547507 89.410151 
L 247.106512 433.142883 
L 247.908521 433.142883 
L 248.053125 90.371015 
L 248.875815 433.142883 
L 249.981643 433.142883 
L 250.760864 94.322238 
L 250.918472 433.142883 
L 251.596973 433.142883 
L 251.748101 89.102795 
L 252.593868 433.142883 
L 252.632063 433.142883 
L 253.120958 89.821396 
L 253.286469 433.142883 
L 254.088858 433.142883 
L 254.890219 89.939079 
L 255.055731 433.142883 
L 256.022207 433.142883 
L 257.01271 96.230171 
L 257.063377 96.230171 
L 257.771027 238.835456 
L 258.022214 226.033854 
L 258.064086 226.033854 
L 258.064086 221.852006 
L 258.901374 240.721404 
L 259.026971 225.146704 
L 259.068831 225.146704 
L 259.989857 421.864395 
L 260.053511 105.980201 
L 260.097339 105.980201 
L 260.710023 240.130833 
L 261.072427 227.644777 
L 261.108673 227.644777 
L 261.362356 250.691282 
L 262.08718 225.539412 
L 262.159667 226.198955 
L 262.630806 432.329688 
L 262.694462 105.260739 
L 263.15731 230.509695 
L 263.218554 230.764028 
L 263.800292 251.399105 
L 263.616583 226.992563 
L 264.198323 235.357983 
L 264.22894 235.357983 
L 264.935573 95.983166 
L 264.871916 430.690676 
L 265.213512 234.784223 
L 265.263497 235.14805 
L 265.588431 229.288462 
L 266.263286 245.155431 
L 266.288279 245.155431 
L 266.713183 433.142883 
L 266.776841 105.48188 
L 267.282905 239.301447 
L 267.302275 239.301447 
L 268.135236 433.142883 
L 268.218274 117.936898 
L 268.297571 244.979553 
L 268.328409 244.737289 
L 269.168701 433.142883 
L 268.550054 244.405362 
L 269.285328 433.142883 
L 270.237152 433.142883 
L 270.315997 90.047709 
L 271.200146 433.142883 
L 271.238341 433.142883 
L 271.691074 88.830788 
L 271.869318 433.142883 
L 272.632949 433.142883 
L 273.360227 89.34161 
L 273.538471 433.142883 
L 274.489936 433.142883 
L 274.541876 90.157633 
L 275.444784 103.423933 
L 275.50088 103.423933 
L 275.539075 433.142883 
L 276.340573 90.172721 
L 276.457343 103.023896 
L 276.535864 103.023896 
L 276.535864 90.725358 
L 276.574059 433.142883 
L 277.498433 224.183685 
L 277.569681 224.183685 
L 277.717054 88.832943 
L 277.755249 433.142883 
L 278.482086 433.142883 
L 278.66033 433.142883 
L 278.790724 88.973904 
L 279.567536 433.142883 
L 280.519726 433.142883 
L 281.426802 90.210655 
L 281.477734 101.927244 
L 281.534415 101.927244 
L 281.57261 433.142883 
L 282.381587 89.802859 
L 282.498389 98.483826 
L 282.57727 98.483826 
L 282.57727 89.667071 
L 282.615465 433.142883 
L 283.569916 227.473641 
L 283.666439 227.473641 
L 283.758528 94.841682 
L 283.796723 433.142883 
L 284.663747 433.142883 
L 284.701942 433.142883 
L 285.42992 89.600255 
L 285.608163 433.142883 
L 286.679745 433.142883 
L 287.401695 90.416278 
L 287.594897 433.142883 
L 288.325013 433.142883 
L 288.600572 89.318763 
L 289.290823 433.142883 
L 289.329018 433.142883 
L 289.782749 88.62689 
L 289.960993 433.142883 
L 290.725618 433.142883 
L 290.855405 89.604997 
L 291.631365 433.142883 
L 292.63753 433.142883 
L 292.73644 101.27115 
L 293.612954 234.713958 
L 293.657981 234.713958 
L 294.286955 221.816658 
L 294.645258 226.05239 
L 294.690054 226.05239 
L 295.510693 239.22644 
L 295.166657 221.398516 
L 295.687175 227.431827 
L 295.775414 227.996103 
L 296.674727 114.627113 
L 296.611071 428.349729 
L 296.752972 224.688472 
L 296.792087 224.688472 
L 297.377104 245.161466 
L 297.493797 223.690105 
L 297.764539 223.897883 
L 297.8019 223.897883 
L 298.362302 239.197127 
L 298.783318 226.685207 
L 298.821514 226.685207 
L 299.318042 433.142883 
L 299.381697 95.917643 
L 299.812644 228.293113 
L 299.878674 227.834881 
L 300.528611 252.014248 
L 300.274885 226.412337 
L 300.846552 231.72015 
L 300.911528 232.353829 
L 301.625177 433.142883 
L 301.688841 114.655564 
L 301.907095 235.520929 
L 301.934373 235.520929 
L 302.631349 252.085375 
L 302.097283 226.7947 
L 302.91934 232.328395 
L 302.946016 232.328395 
L 303.532484 431.215854 
L 303.596147 95.921091 
L 303.937103 232.427542 
L 303.958349 232.427542 
L 304.956449 267.589379 
L 304.977335 267.589379 
L 305.03995 433.142883 
L 305.103613 114.633579 
L 305.966513 247.481074 
L 305.996685 248.315633 
L 306.117396 433.142883 
L 306.011783 244.435968 
L 306.955742 433.142883 
L 307.146717 433.142883 
L 307.347794 89.139868 
L 308.126205 433.142883 
L 308.1644 433.142883 
L 308.585697 89.347645 
L 308.776672 433.142883 
L 309.513 433.142883 
L 309.63402 88.695 
L 310.375734 433.142883 
L 311.318571 433.142883 
L 312.220932 90.82278 
L 312.314313 122.992102 
L 312.352508 122.992102 
L 312.352508 433.142883 
L 313.185778 89.849847 
L 313.30521 103.710597 
L 313.384378 103.710597 
L 314.20851 89.59853 
L 313.422573 433.142883 
L 314.328326 274.440868 
L 314.388237 274.440868 
L 314.537744 90.136942 
L 314.575939 433.142883 
L 315.273789 433.142883 
L 315.464765 433.142883 
L 315.587435 89.436447 
L 316.330331 433.142883 
L 317.274744 433.142883 
L 317.433732 90.110646 
L 318.273252 131.089825 
L 318.311447 131.089825 
L 318.311447 433.142883 
L 319.143566 90.021845 
L 319.264024 112.575632 
L 319.343183 112.575632 
L 319.343183 89.789065 
L 319.381378 433.142883 
L 320.287428 269.50033 
L 320.347519 269.50033 
L 320.496938 90.327045 
L 320.535133 433.142883 
L 321.232349 433.142883 
L 321.423324 433.142883 
L 322.094604 89.199787 
L 322.285579 433.142883 
L 323.320074 433.142883 
L 324.182613 89.506712 
L 324.262785 433.142883 
L 325.015044 433.142883 
L 325.187951 89.297641 
L 325.993925 433.142883 
L 326.03212 433.142883 
L 326.121783 89.243326 
L 326.644196 433.142883 
L 327.380015 433.142883 
L 328.051724 89.185131 
L 328.242699 433.142883 
L 329.279393 433.142883 
L 329.332658 91.675876 
L 330.252799 226.269652 
L 330.301589 226.269652 
L 330.350375 221.286868 
L 331.114052 253.245826 
L 331.292679 226.865827 
L 331.337331 226.865827 
L 331.8511 221.673542 
L 331.754275 250.516266 
L 332.313793 227.976273 
L 332.359152 227.976273 
L 333.262608 419.015083 
L 333.326266 94.785643 
L 333.368798 94.785643 
L 333.368798 239.156175 
L 334.356196 231.977501 
L 334.394963 231.977501 
L 334.719552 250.972342 
L 334.677167 221.963654 
L 335.367583 226.791251 
L 335.408499 226.791251 
L 336.033832 424.042698 
L 336.097493 94.78435 
L 336.387658 230.674365 
L 336.422186 230.674365 
L 336.698429 239.61182 
L 336.942415 226.28905 
L 337.393785 230.703247 
L 337.430095 230.703247 
L 337.633529 227.106366 
L 338.405234 429.374086 
L 338.468898 429.374086 
L 338.468898 107.080302 
L 339.450486 251.255126 
L 339.480782 251.255126 
L 340.440482 107.078146 
L 340.376814 433.142883 
L 340.464227 252.097445 
L 340.487977 252.097445 
L 341.289148 229.135 
L 340.832473 253.365233 
L 341.48779 240.621395 
L 341.509227 240.621395 
L 342.012244 99.531767 
L 341.94858 433.142883 
L 342.508332 245.678323 
L 342.515366 245.678323 
L 343.120375 433.142883 
L 342.620334 241.386983 
L 343.362283 433.142883 
L 344.411151 433.142883 
L 344.498138 89.498952 
L 345.001347 433.142883 
L 345.710586 433.142883 
L 346.332892 95.022733 
L 346.536599 433.142883 
L 347.474554 433.142883 
L 348.314802 89.440326 
L 348.441964 433.142883 
L 349.166009 433.142883 
L 349.552793 89.53818 
L 349.7565 433.142883 
L 350.467825 433.142883 
L 350.583043 94.713653 
L 351.293684 433.142883 
L 352.2282 433.142883 
L 353.063235 90.922358 
L 353.190986 433.142883 
L 353.914686 433.142883 
L 354.002081 89.095036 
L 354.508416 433.142883 
L 355.218805 433.142883 
L 355.841962 95.465877 
L 356.045669 433.142883 
L 356.9827 433.142883 
L 357.121544 88.917003 
L 357.945723 433.142883 
L 358.669459 433.142883 
L 358.827958 89.547664 
L 359.261807 433.142883 
L 359.971948 433.142883 
L 360.594036 96.922907 
L 360.797742 433.142883 
L 361.735359 433.142883 
L 362.637106 89.481709 
L 362.73244 233.148298 
L 362.780112 233.148298 
L 363.458228 215.834645 
L 363.267572 236.036924 
L 363.752414 225.548034 
L 363.801441 225.548034 
L 364.260383 212.15974 
L 364.308752 237.783205 
L 364.79135 225.516565 
L 364.839135 225.516565 
L 365.030281 220.58896 
L 365.807692 401.892827 
L 365.871356 401.892827 
L 365.871356 92.496209 
L 366.846917 229.800578 
L 366.929976 229.100083 
L 366.929976 222.710274 
L 367.332341 238.171171 
L 367.921712 226.692966 
L 367.963584 226.692966 
L 368.642111 409.997534 
L 368.705763 90.999521 
L 368.951603 236.270997 
L 368.983625 236.270997 
L 369.281983 225.300597 
L 369.956084 250.902077 
L 369.992252 250.902077 
L 370.497037 225.508375 
L 370.975826 230.485985 
L 371.026252 230.485985 
L 371.076687 418.112931 
L 371.140342 92.509573 
L 372.008715 226.592095 
L 372.036959 226.592095 
L 372.180002 251.34479 
L 373.026563 235.716205 
L 373.068996 235.716205 
L 373.111423 426.227337 
L 373.175081 92.491899 
L 374.051986 239.107033 
L 374.075934 239.107033 
L 374.809984 92.343609 
L 374.746325 433.142883 
L 375.075013 241.99609 
L 375.09416 241.99609 
L 375.981431 433.142883 
L 375.661916 236.712417 
L 376.07055 433.142883 
L 376.999014 433.142883 
L 377.08535 89.423514 
L 377.57218 433.142883 
L 378.258749 433.142883 
L 378.834281 89.350232 
L 379.050719 433.142883 
L 379.933797 433.142883 
L 380.025126 90.092972 
L 380.812059 433.142883 
L 381.641417 433.142883 
L 381.830127 89.429549 
L 382.216042 433.142883 
L 382.903919 433.142883 
L 383.480759 88.983819 
L 383.697198 433.142883 
L 384.582701 433.142883 
L 384.674056 90.795192 
L 385.456753 433.142883 
L 386.292524 433.142883 
L 386.483559 89.628275 
L 386.866203 433.142883 
L 387.552924 433.142883 
L 387.662066 89.370492 
L 388.345185 433.142883 
L 389.228807 433.142883 
L 389.32025 91.19997 
L 390.104091 433.142883 
L 390.938581 433.142883 
L 391.128961 89.4136 
L 391.512237 433.142883 
L 392.199005 433.142883 
L 392.308214 88.880792 
L 392.991272 433.142883 
L 393.874371 433.142883 
L 394.682597 90.632677 
L 394.83618 118.339521 
L 394.888538 118.339521 
L 395.194509 227.833588 
L 395.575585 99.717559 
L 395.86519 220.998049 
L 395.913465 220.998049 
L 396.820184 228.506925 
L 396.396448 98.121724 
L 396.86847 224.368616 
L 396.965032 223.878054 
L 397.205036 101.45608 
L 397.91886 423.637229 
L 397.982519 423.637229 
L 397.982519 95.3788 
L 398.97978 227.424067 
L 399.064845 227.336128 
L 399.191451 225.11696 
L 399.52705 251.65387 
L 400.026611 230.266138 
L 400.068712 230.266138 
L 400.882609 93.071693 
L 400.818948 420.475259 
L 401.040449 228.89834 
L 401.080362 228.89834 
L 401.499778 224.4225 
L 401.88751 239.345848 
L 402.067311 227.884023 
L 402.103279 227.884023 
L 402.210836 251.466784 
L 402.640029 223.677604 
L 403.069016 230.145006 
L 403.104752 230.145006 
L 403.319201 433.142883 
L 403.382862 93.072124 
L 404.10379 233.593166 
L 404.134491 233.593166 
L 405.044428 226.372678 
L 405.010582 249.605407 
L 405.112115 229.455288 
L 405.145956 229.455288 
L 405.483265 95.376214 
L 405.419603 429.981348 
L 406.140282 246.631859 
L 406.164088 246.631859 
L 406.738053 229.557021 
L 407.120127 433.142883 
L 407.183794 433.142883 
L 407.183794 95.477085 
L 408.175747 264.986124 
L 408.196987 264.986124 
L 408.260679 235.91062 
L 408.403945 433.142883 
L 409.085137 433.142883 
L 409.314307 433.142883 
L 409.771827 89.282984 
L 410.131793 433.142883 
L 410.360964 433.142883 
L 410.786427 88.684223 
L 411.337367 433.142883 
L 411.375562 433.142883 
L 411.82732 89.164008 
L 412.191622 433.142883 
L 412.420793 433.142883 
L 412.844536 89.104089 
L 413.399807 433.142883 
L 413.438002 433.142883 
L 413.892098 89.27307 
L 414.252218 433.142883 
L 414.481388 433.142883 
L 414.90678 89.650259 
L 415.457192 433.142883 
L 415.495387 433.142883 
L 415.801825 89.268328 
L 416.309688 433.142883 
L 416.538858 433.142883 
L 416.648817 89.294623 
L 417.528641 230.382959 
L 417.554514 230.382959 
L 418.424414 93.381635 
L 418.538881 243.481571 
L 418.564428 243.481571 
L 419.490225 92.72123 
L 419.554371 232.919829 
L 419.606107 232.174071 
L 419.606107 240.657174 
L 420.553461 91.733639 
L 420.591471 221.112283 
L 420.616723 221.112283 
L 421.176547 433.142883 
L 421.240213 93.939445 
L 421.59953 122.362303 
L 421.620567 122.362303 
L 421.712708 93.883405 
L 422.351734 256.593115 
L 422.60582 96.951358 
L 422.651977 96.951358 
L 423.315043 253.306607 
L 423.639587 185.803881 
L 423.685603 185.803881 
L 424.324474 255.452924 
L 424.670948 94.583038 
L 424.690524 94.583038 
L 425.183027 433.142883 
L 425.671 236.875794 
L 425.703766 236.875794 
L 425.769288 93.30318 
L 426.688754 271.638887 
L 426.697254 271.499651 
L 426.705737 271.499651 
L 427.427927 93.590275 
L 427.099786 433.142883 
L 427.694986 253.884677 
L 427.709239 253.884677 
L 428.54162 283.561099 
L 428.161961 100.290026 
L 428.701971 267.603605 
L 428.710373 267.603605 
L 428.769198 433.142883 
L 429.088324 89.747251 
L 429.708694 245.634785 
L 429.722585 245.634785 
L 430.427072 433.142883 
L 429.948267 97.800574 
L 430.713206 115.347006 
L 430.746048 115.347006 
L 430.920701 91.739243 
L 431.175972 283.848194 
L 431.721007 252.07934 
L 431.747302 252.07934 
L 432.660957 98.181212 
L 432.178381 433.142883 
L 432.745454 271.416453 
L 432.753915 271.416453 
L 432.846869 228.141374 
L 433.179338 433.142883 
L 433.528684 433.142883 
L 434.071133 433.142883 
L 434.397194 90.077022 
L 434.882324 433.142883 
L 435.124226 433.142883 
L 435.462746 88.849324 
L 435.951553 433.142883 
L 436.193455 433.142883 
L 436.52092 89.992963 
L 437.00679 433.142883 
L 437.248691 433.142883 
L 437.34222 89.453259 
L 438.075071 433.142883 
L 438.316972 433.142883 
L 438.64703 89.422221 
L 439.132723 433.142883 
L 439.374625 433.142883 
L 439.504982 89.02822 
L 440.199833 433.142883 
L 440.441735 433.142883 
L 440.769769 89.564045 
L 441.255135 433.142883 
L 441.497036 433.142883 
L 441.589891 88.851048 
L 442.482938 159.608382 
L 442.511469 159.608382 
L 443.116042 91.21204 
L 442.845172 245.197245 
L 443.508354 220.380751 
L 443.537121 220.380751 
L 443.709728 90.320148 
L 443.823489 242.001694 
L 444.532528 228.487527 
L 444.561074 228.487527 
L 445.386774 238.816058 
L 444.789361 91.240491 
L 445.556885 228.572017 
L 445.584683 228.572017 
L 446.132538 433.142883 
L 445.80712 91.269804 
L 446.581014 150.210971 
L 446.604733 150.210971 
L 446.62845 94.661062 
L 447.376447 253.72906 
L 447.59774 168.860521 
L 447.622824 168.860521 
L 447.647908 95.890485 
L 448.365654 253.741561 
L 448.601063 215.397536 
L 448.62337 215.397536 
L 448.667987 95.618909 
L 449.050299 251.892685 
L 449.606658 234.109162 
L 449.628598 234.109162 
L 450.341027 89.3817 
L 450.277368 433.142883 
L 450.624659 235.807162 
L 450.641388 235.807162 
L 450.862612 90.470593 
L 451.40415 255.113238 
L 451.633302 141.554576 
L 451.650894 141.554576 
L 451.668473 92.950992 
L 452.412481 433.142883 
L 452.627107 146.985245 
L 452.665875 146.985245 
L 452.665875 93.563117 
L 453.215928 262.950593 
L 453.659326 102.925611 
L 453.680055 103.083384 
L 454.468281 93.631227 
L 454.217466 433.142883 
L 454.672565 245.455458 
L 454.70596 246.085257 
L 455.338097 91.457321 
L 455.534766 281.284597 
L 455.70079 265.721967 
L 455.711168 265.721967 
L 456.014209 433.142883 
L 456.335629 89.448948 
L 456.705956 303.879767 
L 456.719461 303.879767 
L 457.35902 218.125803 
L 457.715151 428.336927 
L 457.778805 428.336927 
L 457.778805 433.142883 
L 458.281944 96.440104 
L 458.773366 262.061287 
L 458.784186 262.061287 
L 458.966691 433.142883 
L 458.838306 256.478018 
L 459.77739 433.142883 
L 459.815585 433.142883 
L 460.101085 89.056671 
L 460.737861 433.142883 
L 460.992494 433.142883 
L 461.109119 90.671473 
L 461.757741 433.142883 
L 462.791645 433.142883 
L 462.885745 89.85545 
L 463.754498 109.837451 
L 463.843224 109.837451 
L 463.843224 90.737428 
L 464.39934 433.142883 
L 464.615779 433.142883 
L 465.732712 433.142883 
L 465.819041 89.601548 
L 466.657072 433.142883 
L 466.911705 433.142883 
L 467.000753 90.959 
L 467.678725 433.142883 
L 469.166897 433.142883 
L 469.454287 89.029082 
L 470.09334 433.142883 
L 470.347974 433.142883 
L 470.824136 90.213673 
L 471.116743 433.142883 
L 472.605062 433.142883 
L 472.69146 89.017443 
L 473.531486 433.142883 
L 473.786119 433.142883 
L 473.875188 90.503355 
L 474.617734 433.142883 
L 474.872367 433.142883 
L 475.122693 90.346444 
L 475.73584 433.142883 
L 476.540601 433.142883 
L 476.69438 90.252038 
L 477.404756 433.142883 
L 478.886726 433.142883 
L 479.368604 90.110646 
L 479.870991 224.323353 
L 479.893946 224.323353 
L 480.208325 95.347763 
L 479.93986 251.971571 
L 480.891971 235.137704 
L 480.914967 235.137704 
L 481.282341 92.036253 
L 481.511997 242.573729 
L 481.89881 237.396962 
L 481.92157 237.396962 
L 482.058084 249.015698 
L 482.326877 94.867978 
L 482.906979 239.363091 
L 482.929322 239.363091 
L 483.709156 96.537527 
L 483.6455 433.142883 
L 483.925275 253.153576 
L 483.941903 253.153576 
L 484.331781 94.331722 
L 484.745986 257.985915 
L 484.932289 243.598823 
L 484.949376 243.598823 
L 485.708016 253.169095 
L 485.427976 96.395273 
L 485.946526 243.009545 
L 485.963565 243.009545 
L 486.014677 261.666424 
L 486.402151 93.539408 
L 486.960081 245.283029 
L 486.976815 245.283029 
L 487.376695 92.463879 
L 487.604903 433.142883 
L 487.969311 262.428562 
L 487.980456 262.428562 
L 488.409909 92.093155 
L 488.866614 279.17018 
L 488.980268 239.283342 
L 488.99289 239.283342 
L 489.836689 274.580967 
L 489.375182 90.891321 
L 489.981648 255.873652 
L 489.99449 255.873652 
L 490.339712 90.637419 
L 490.603962 273.927459 
L 490.99393 141.810634 
L 491.007613 141.810634 
L 491.303837 93.082039 
L 491.487312 433.142883 
L 491.832635 433.142883 
L 492.925175 433.142883 
L 493.011075 89.712765 
L 493.893666 433.142883 
L 494.161031 433.142883 
L 494.703346 89.945114 
L 495.126956 433.142883 
L 495.394321 433.142883 
L 495.487748 89.981755 
L 496.38064 433.142883 
L 496.418835 433.142883 
L 497.026233 89.206684 
L 497.293599 433.142883 
L 497.712891 433.142883 
L 497.999385 89.023909 
L 498.682258 433.142883 
L 498.949623 433.142883 
L 499.494932 89.848122 
L 499.762297 433.142883 
L 500.690934 433.142883 
L 500.977074 89.515764 
L 501.660675 433.142883 
L 501.92804 433.142883 
L 502.066415 89.684314 
L 502.895101 433.142883 
L 503.162466 433.142883 
L 503.255879 89.567062 
L 504.154448 433.142883 
L 504.192643 433.142883 
L 504.330737 90.093834 
L 505.073233 433.142883 
L 505.489711 433.142883 
L 505.775605 89.48602 
L 506.459002 433.142883 
L 506.726367 433.142883 
L 506.864762 90.411967 
L 507.693557 433.142883 
L 507.960922 433.142883 
L 508.054537 89.388597 
L 508.952289 433.142883 
L 508.990484 433.142883 
L 509.128245 89.585167 
L 509.868134 433.142883 
L 511.362834 433.142883 
L 511.50143 90.142115 
L 512.354097 205.132373 
L 512.378244 205.132373 
L 512.710152 91.710793 
L 513.310156 242.075408 
L 513.357367 233.092258 
L 513.380979 233.092258 
L 513.803792 92.606995 
L 513.926205 240.541647 
L 514.366085 237.778894 
L 514.390285 237.778894 
L 514.840534 95.016267 
L 514.992429 241.063677 
L 515.385501 232.592644 
L 515.410375 232.592644 
L 516.161018 427.671478 
L 516.224676 92.459568 
L 516.405035 241.104198 
L 516.423076 241.104198 
L 516.624047 265.284858 
L 516.90593 97.372086 
L 517.420746 244.08335 
L 517.438563 244.08335 
L 517.894307 93.7127 
L 517.617345 263.407962 
L 518.437419 244.823504 
L 518.455831 244.823504 
L 518.620533 262.533313 
L 518.88249 97.675131 
L 519.447062 238.190569 
L 519.465916 238.190569 
L 520.17709 433.142883 
L 520.240751 96.192668 
L 520.465264 251.93881 
L 520.490209 252.5893 
L 520.52763 278.437785 
L 520.970592 96.88368 
L 521.485905 264.107164 
L 521.498082 264.107164 
L 521.680881 104.904241 
L 522.185473 278.421404 
L 522.483383 246.246479 
L 522.499681 246.246479 
L 523.30854 268.266596 
L 522.613728 101.694895 
L 523.491101 231.818866 
L 523.508868 231.818866 
L 523.544384 102.550146 
L 523.954161 433.142883 
L 524.288062 433.142883 
L 525.594009 433.142883 
L 525.748438 90.896925 
L 526.465589 433.142883 
L 526.745686 433.142883 
L 526.893151 90.330063 
L 527.574955 433.142883 
L 527.855052 433.142883 
L 528.042073 90.81459 
L 528.726828 433.142883 
L 529.006925 433.142883 
L 529.220375 90.445591 
L 529.83604 433.142883 
L 530.116137 433.142883 
L 530.314303 89.436447 
L 530.987355 433.142883 
L 531.267452 433.142883 
L 531.415863 90.158927 
L 532.098648 433.142883 
L 532.378745 433.142883 
L 532.758952 90.119268 
L 533.249556 433.142883 
L 533.529653 433.142883 
L 533.98138 89.732594 
L 534.528369 232.662047 
L 534.577812 232.705585 
L 535.446731 90.473179 
L 534.923896 250.247276 
L 535.573841 236.656377 
L 535.598633 236.656377 
L 536.516236 90.37705 
L 536.34375 246.325365 
L 536.576525 231.408053 
L 536.63682 231.313216 
L 537.070951 243.916524 
L 537.586185 91.77804 
L 537.62002 219.104772 
L 537.653827 219.104772 
L 538.212616 433.142883 
L 538.276269 97.749707 
L 538.645724 126.352323 
L 538.670716 126.352323 
L 538.670716 93.335941 
L 539.389407 262.383299 
L 539.647332 121.937264 
L 539.673689 121.937264 
L 539.673689 94.301547 
L 540.048875 265.22149 
L 540.648622 126.783828 
L 540.675387 126.783828 
L 540.675387 92.387579 
L 541.054307 265.093892 
L 541.649342 128.327935 
L 541.678985 128.327935 
L 541.678985 92.48026 
L 542.28586 433.142883 
L 542.678698 104.943037 
L 542.847871 104.943037 
L 543.596103 376.766606 
L 543.772275 95.682277 
L 543.833415 239.221698 
L 543.853804 239.221698 
L 544.291209 266.103898 
L 544.696109 94.163603 
L 544.849015 251.635765 
L 544.867135 251.635765 
L 545.452404 98.124741 
L 545.218337 267.716115 
L 545.860357 249.388145 
L 545.873894 249.388145 
L 546.036322 433.142883 
L 546.627964 433.142883 
L 546.920793 433.142883 
L 547.02429 89.029944 
L 547.798268 433.142883 
L 548.091097 433.142883 
L 548.2249 90.082195 
L 548.948421 433.142883 
L 549.241249 433.142883 
L 549.412962 90.386965 
L 550.117728 433.142883 
L 550.410556 433.142883 
L 550.670527 89.826569 
L 551.268617 433.142883 
L 551.561445 433.142883 
L 551.973397 89.209702 
L 552.439259 433.142883 
L 552.732088 433.142883 
L 553.124529 88.998476 
L 553.589878 433.142883 
L 553.882707 433.142883 
L 553.984158 89.390753 
L 554.756222 433.142883 
L 555.04905 433.142883 
L 555.341122 90.195137 
L 556.035153 220.262637 
L 556.064074 220.262637 
L 556.61458 90.869336 
L 556.408339 250.155457 
L 557.061919 232.483582 
L 557.112686 233.435824 
L 558.003488 91.067199 
L 557.391936 239.31869 
L 558.101273 229.082409 
L 558.13387 229.082409 
L 558.554309 237.58879 
L 559.073142 90.138666 
L 559.130807 234.121232 
L 559.159635 234.121232 
L 559.685139 433.142883 
L 559.748801 93.055743 
L 560.139208 109.291711 
L 560.171688 109.291711 
L 560.171688 94.648992 
L 560.235527 298.847842 
L 561.161484 107.612247 
L 561.189315 107.612247 
L 561.189315 94.41104 
L 562.073141 255.472323 
L 562.18031 96.215084 
L 562.207099 96.215084 
L 562.207099 90.312389 
L 562.580714 259.61365 
L 563.199069 99.514524 
L 563.224643 99.514524 
L 563.883176 91.587937 
L 563.81951 433.142883 
L 564.224418 174.811928 
L 564.226019 174.811928 
L 564.23562 315.495054 
L 564.373002 108.802011 
L 565.174647 266.681969 
L 565.232688 266.681969 
L 565.290723 114.345621 
L 565.316759 302.1309 
L 566.231323 197.740318 
L 566.233503 197.740318 
L 567.020516 108.493793 
L 566.242233 289.71942 
L 567.223146 239.343261 
L 567.241222 239.343261 
L 567.56932 433.142883 
L 568.225426 433.142883 
L 568.530986 433.142883 
L 568.626881 88.8476 
L 569.411137 433.142883 
L 569.716697 433.142883 
L 569.811146 88.940281 
L 570.603281 433.142883 
L 570.908841 433.142883 
L 571.004816 88.853204 
L 571.78774 433.142883 
L 572.0933 433.142883 
L 572.440206 88.945022 
L 572.975013 433.142883 
L 573.280573 433.142883 
L 573.625982 89.344628 
L 574.164889 433.142883 
L 574.470449 433.142883 
L 574.815965 89.290744 
L 575.355764 433.142883 
L 575.661324 433.142883 
L 576.003285 89.141592 
L 576.542398 433.142883 
L 576.847958 433.142883 
L 576.942168 89.612325 
L 577.821245 189.360672 
L 577.848091 189.360672 
L 578.711703 90.071418 
L 578.197216 243.87083 
L 578.839569 225.598038 
L 578.871536 225.598038 
L 579.53161 89.887781 
L 579.262955 241.109371 
L 579.858304 240.983066 
L 579.893994 240.983066 
L 580.064909 91.620698 
L 580.335362 249.378662 
L 580.861839 91.912104 
L 580.89645 91.912104 
L 581.465276 433.142883 
L 581.239238 91.373262 
L 581.883192 228.872045 
L 581.914704 228.872045 
L 581.94623 95.45079 
L 582.337078 262.09448 
L 582.884145 232.177088 
L 582.915713 232.177088 
L 582.978831 93.235932 
L 583.362753 264.893443 
L 583.891679 233.568164 
L 583.917375 233.568164 
L 584.042802 96.27371 
L 584.776977 258.814008 
L 584.911711 231.266229 
L 584.939063 231.266229 
L 585.65344 433.142883 
L 585.075771 91.198677 
L 585.934903 244.176462 
L 585.958717 244.176462 
L 586.200735 123.868475 
L 586.228271 314.725156 
L 586.94783 235.049765 
L 586.972043 235.049765 
L 587.041174 277.248883 
L 587.152049 122.504126 
L 587.919942 216.507121 
L 587.976999 216.507121 
L 587.976999 106.189703 
L 588.670891 267.871301 
L 588.970948 197.974391 
L 588.988793 197.974391 
L 589.024484 132.446415 
L 589.462002 433.142883 
L 589.838958 433.142883 
L 590.399385 433.142883 
L 590.704491 88.94416 
L 591.022783 433.142883 
L 591.754104 433.142883 
L 592.277932 90.78269 
L 592.638284 433.142883 
L 593.108318 433.142883 
L 593.282524 89.842949 
L 594.078412 433.142883 
L 594.116607 433.142883 
L 594.378696 90.390844 
L 595.055683 433.142883 
L 595.373975 433.142883 
L 596.004553 91.104272 
L 596.364777 433.142883 
L 596.831266 433.142883 
L 596.919587 88.849755 
L 597.455771 433.142883 
L 598.187004 433.142883 
L 598.707833 90.749498 
L 599.067715 433.142883 
L 599.537281 433.142883 
L 599.632005 89.380838 
L 600.464039 433.142883 
L 600.782331 433.142883 
L 601.408192 90.265833 
L 601.767031 433.142883 
L 602.236255 433.142883 
L 602.324501 89.239877 
L 602.859145 433.142883 
L 603.587768 433.142883 
L 604.108618 90.174876 
L 604.469069 433.142883 
L 604.937735 433.142883 
L 605.031749 89.567062 
L 605.907434 433.142883 
L 605.945629 433.142883 
L 606.199304 90.606812 
L 606.868365 433.142883 
L 607.186657 433.142883 
L 607.81657 90.135649 
L 608.176465 433.142883 
L 608.644997 433.142883 
L 608.732848 89.832172 
L 609.268331 433.142883 
L 609.997677 433.142883 
L 610.516646 90.749067 
L 610.87651 433.142883 
L 611.346457 433.142883 
L 611.440527 89.008821 
L 612.32172 433.142883 
L 612.359915 433.142883 
L 612.623947 89.328678 
L 613.299907 433.142883 
L 613.618199 433.142883 
L 613.710699 90.749067 
L 614.600117 238.617764 
L 614.622152 238.617764 
L 614.997392 91.49698 
L 615.354782 251.825868 
L 615.601821 236.050288 
L 615.624606 236.050288 
L 616.405851 252.782852 
L 616.06218 92.13928 
L 616.624242 234.768274 
L 616.646072 234.768274 
L 616.798195 250.654641 
L 617.109871 93.15489 
L 617.641898 241.729686 
L 617.663272 241.729686 
L 618.140719 92.164282 
L 618.450059 430.246907 
L 618.657828 246.200785 
L 618.673831 246.200785 
L 618.817941 258.501479 
L 619.112408 123.020553 
L 619.669045 243.924715 
L 619.70255 243.115589 
L 620.178753 309.322938 
L 620.065612 120.888461 
L 620.70077 248.795419 
L 620.733062 248.834646 
L 621.033196 286.845451 
L 621.009568 136.508424 
L 621.729641 244.639435 
L 621.745909 244.639435 
L 622.307014 433.142883 
L 621.972145 127.555881 
L 622.541503 433.142883 
L 623.791299 433.142883 
L 623.885754 89.904593 
L 624.508278 433.142883 
L 624.839302 433.142883 
L 625.108381 90.74648 
L 625.755264 433.142883 
L 626.086288 433.142883 
L 626.608963 93.426036 
L 626.97442 433.142883 
L 627.49696 433.142883 
L 627.586049 89.334713 
L 628.138127 433.142883 
L 628.843357 433.142883 
L 629.282023 92.21946 
L 629.843071 433.142883 
L 630.174094 433.142883 
L 630.44516 89.71492 
L 631.077546 433.142883 
L 631.40857 433.142883 
L 631.931547 97.264318 
L 632.297307 433.142883 
L 632.81926 433.142883 
L 633.129582 88.808803 
L 633.460606 433.142883 
L 634.165644 433.142883 
L 634.604121 95.927558 
L 635.164869 433.142883 
L 635.495892 433.142883 
L 635.59014 89.46188 
L 636.213076 433.142883 
L 636.5441 433.142883 
L 636.805853 90.236951 
L 637.444395 433.142883 
L 637.775418 433.142883 
L 638.29807 97.471233 
L 638.663857 433.142883 
L 639.186031 433.142883 
L 639.497143 89.683883 
L 639.828166 433.142883 
L 640.534078 433.142883 
L 640.973564 93.067382 
L 641.339779 433.142883 
L 641.865512 433.142883 
L 641.960028 89.558872 
L 642.578254 433.142883 
L 642.909277 433.142883 
L 643.175775 89.855882 
L 643.821162 433.142883 
L 644.152186 433.142883 
L 644.675042 93.351891 
L 645.040949 433.142883 
L 645.563024 433.142883 
L 645.651956 88.975198 
L 646.204207 433.142883 
L 646.909225 433.142883 
L 647.767496 91.168071 
L 647.893109 240.796411 
L 647.92071 240.796411 
L 648.824263 91.524569 
L 648.310019 248.667821 
L 648.902978 235.502824 
L 648.929504 235.502824 
L 648.956016 244.495456 
L 649.88104 90.973656 
L 649.95166 90.973656 
L 650.426618 244.691595 
L 650.938068 91.310325 
L 650.992199 91.310325 
L 651.588068 433.142883 
L 651.989392 129.296989 
L 651.993262 129.296989 
L 652.398973 261.989298 
L 652.968504 111.524243 
L 652.987889 172.830281 
L 652.994861 172.830281 
L 653.943895 119.930615 
L 653.352066 263.461846 
L 653.98987 157.699587 
L 654.002994 156.957709 
L 654.320093 263.067845 
L 654.891723 131.135088 
L 654.990343 180.531848 
L 655.068706 180.531848 
L 655.522879 433.142883 
L 656.028385 433.142883 
L 656.465289 433.142883 
L 657.02665 89.466622 
L 657.405937 433.142883 
L 657.749692 433.142883 
L 658.255253 89.052791 
L 658.630163 433.142883 
L 658.973918 433.142883 
L 659.538085 88.96011 
L 659.912027 433.142883 
L 660.255782 433.142883 
L 660.384001 88.959679 
L 661.137636 433.142883 
L 661.481391 433.142883 
L 661.609815 89.343766 
L 662.421063 433.142883 
L 662.764818 433.142883 
L 663.271018 89.116159 
L 663.648132 433.142883 
L 663.991887 433.142883 
L 664.554695 89.173923 
L 664.930696 433.142883 
L 665.274451 433.142883 
L 665.402246 89.665778 
L 666.274449 238.292734 
L 666.298127 238.292734 
L 667.178782 93.088074 
L 666.605939 242.981525 
L 667.284612 230.578235 
L 667.325484 230.578235 
L 667.731044 243.420789 
L 668.260516 93.875215 
L 668.313544 211.989897 
L 668.366566 211.989897 
L 668.802027 250.253742 
L 669.318706 90.257211 
L 669.422862 90.257211 
L 669.94861 433.142883 
L 670.422793 139.964775 
L 670.426907 139.964775 
L 670.776081 254.903736 
L 671.368715 105.112018 
L 671.426316 162.489249 
L 671.430167 162.489249 
L 671.457042 263.616602 
L 672.352275 102.036306 
L 672.428541 210.897556 
L 672.432356 210.897556 
L 672.729295 265.271495 
L 673.345355 99.614964 
L 673.411518 191.210842 
L 673.479339 191.210842 
L 673.930281 433.142883 
L 674.120446 122.769668 
L 674.464201 433.142883 
L 674.986384 433.142883 
L 675.445035 88.814838 
L 675.928627 433.142883 
L 676.285114 433.142883 
L 676.715255 88.849755 
L 677.197573 433.142883 
L 677.55406 433.142883 
L 678.013507 89.561027 
L 678.495378 433.142883 
L 678.851865 433.142883 
L 678.963335 88.622579 
L 679.765074 433.142883 
L 680.121561 433.142883 
L 680.23283 89.699833 
L 681.062474 433.142883 
L 681.418961 433.142883 
L 681.703832 90.282214 
L 682.331943 433.142883 
L 682.68843 433.142883 
L 683.148106 89.143316 
L 683.63029 433.142883 
L 683.986777 433.142883 
L 684.098108 88.75923 
L 684.977889 230.96965 
L 685.004468 230.96965 
L 685.882957 91.798732 
L 685.990655 241.404225 
L 686.017194 241.404225 
L 686.948392 91.876756 
L 687.016169 234.893285 
L 687.041971 234.893285 
L 687.041971 250.256759 
L 688.01389 92.164713 
L 688.047841 92.164713 
L 688.630736 433.142883 
L 689.002844 233.954406 
L 689.104787 233.954406 
L 689.104787 91.488358 
L 689.156652 262.437615 
L 690.021265 231.31882 
L 690.105609 231.31882 
L 690.105609 91.798301 
L 690.159705 308.91859 
L 691.022296 235.18814 
L 691.108102 235.18814 
L 691.108102 91.508619 
L 691.474291 263.977411 
L 692.024601 232.185279 
L 692.108598 232.185279 
L 692.108598 93.2993 
L 692.700571 433.142883 
L 692.908457 433.142883 
L 693.827304 433.142883 
L 694.195058 89.595082 
L 694.774551 433.142883 
L 695.143769 433.142883 
L 695.301076 89.356267 
L 696.087408 433.142883 
L 696.456627 433.142883 
L 696.823663 89.531283 
L 697.40228 433.142883 
L 697.771499 433.142883 
L 697.87125 89.470933 
L 698.716142 433.142883 
L 699.08536 433.142883 
L 699.451484 89.444206 
L 700.03101 433.142883 
L 700.400228 433.142883 
L 700.55995 89.9796 
L 701.343356 433.142883 
L 701.712575 433.142883 
L 702.078621 89.669658 
L 702.65691 433.142883 
L 703.026129 433.142883 
L 703.125621 89.668795 
L 704.004863 203.698622 
L 704.032955 203.698622 
L 704.173375 90.752084 
L 704.367948 241.758999 
L 705.022012 228.62547 
L 705.050074 228.62547 
L 705.246558 90.880975 
L 705.358838 242.294393 
L 706.024852 231.508493 
L 706.052171 231.508493 
L 706.434611 240.367062 
L 706.243389 91.062026 
L 707.043228 91.802611 
L 707.070899 91.802611 
L 707.644594 418.206647 
L 708.051166 234.841556 
L 708.072596 234.841556 
L 708.159127 90.329201 
L 708.178544 433.142883 
L 709.069951 244.79376 
L 709.091909 244.79376 
L 709.179195 91.968575 
L 709.198257 406.33944 
L 710.089367 243.740215 
L 710.111793 243.740215 
L 710.199384 91.141775 
L 710.201405 406.05338 
L 711.10654 249.676103 
L 711.128775 249.676103 
L 711.222237 91.514654 
L 711.84184 433.142883 
L 711.996598 433.142883 
L 712.999795 433.142883 
L 713.089019 89.737767 
L 713.676739 433.142883 
L 714.480955 433.142883 
L 714.576246 90.867612 
L 715.466027 433.142883 
L 715.983585 433.142883 
L 716.081398 90.230054 
L 716.719706 433.142883 
L 717.101656 433.142883 
L 717.352574 91.665099 
L 718.099313 433.142883 
L 718.481263 433.142883 
L 718.607649 90.793467 
L 719.219357 433.142883 
L 720.087808 433.142883 
L 720.38255 89.001062 
L 720.764501 433.142883 
L 721.568195 433.142883 
L 722.077629 89.451965 
L 722.555398 433.142883 
L 723.070492 433.142883 
L 723.1685 90.201172 
L 724.004066 433.142883 
L 724.386017 433.142883 
L 725.043815 90.317562 
L 725.126778 433.142883 
L 725.994788 433.142883 
L 726.083963 89.617067 
L 726.671815 433.142883 
L 727.478235 433.142883 
L 728.041328 89.811912 
L 728.46897 433.142883 
L 728.990574 433.142883 
L 729.150689 90.62578 
L 729.712938 433.142883 
L 730.094888 433.142883 
L 730.336105 90.709839 
L 731.083733 433.142883 
L 731.465684 433.142883 
L 732.128343 90.177894 
L 732.211562 433.142883 
L 733.075077 433.142883 
L 733.165692 89.547233 
L 733.758004 433.142883 
L 734.569284 433.142883 
L 735.142041 91.058578 
L 735.22666 433.142883 
L 736.080643 433.142883 
L 736.177222 89.493348 
L 736.815884 433.142883 
L 737.197835 433.142883 
L 737.448433 90.587414 
L 738.195917 433.142883 
L 738.577868 433.142883 
L 738.702181 92.957027 
L 739.56739 241.138684 
L 739.585931 241.138684 
L 739.992922 89.817085 
L 739.678657 252.134086 
L 740.57028 244.534684 
L 740.588802 244.534684 
L 741.017711 90.832264 
L 741.372157 260.241724 
L 741.573751 247.757824 
L 741.592797 247.757824 
L 742.05638 90.733548 
L 742.406906 249.776974 
L 742.570626 236.429201 
L 742.593955 236.429201 
L 743.397866 433.142883 
L 743.109428 94.108426 
L 743.551085 433.142883 
L 744.878116 433.142883 
L 745.257893 89.998567 
L 745.787443 433.142883 
L 746.328149 433.142883 
L 746.440875 90.933135 
L 747.30483 433.142883 
L 747.699512 433.142883 
L 747.883331 90.076591 
L 748.609187 433.142883 
L 749.149726 433.142883 
L 749.288824 91.803473 
L 750.126903 433.142883 
L 750.521584 433.142883 
L 750.902565 89.709316 
L 751.433311 433.142883 
L 751.966536 433.142883 
L 752.377329 90.486543 
L 752.95188 433.142883 
L 753.346562 433.142883 
L 753.726218 89.902438 
L 754.256737 433.142883 
L 754.789171 433.142883 
L 755.209709 89.816654 
L 755.776363 237.192633 
L 755.833955 236.290396 
L 756.688313 95.433547 
L 756.54633 251.570242 
L 756.830464 236.822341 
L 756.888085 235.891221 
L 757.742407 95.773233 
L 757.600386 252.813459 
L 757.884306 237.790102 
L 757.915639 237.790102 
L 758.795692 90.326614 
L 758.207954 250.558942 
L 758.890108 224.25783 
L 758.937317 224.25783 
L 759.404594 433.142883 
L 759.541169 91.723294 
L 759.935851 433.142883 
L 760.566719 433.142883 
L 760.85815 91.490083 
L 761.544068 433.142883 
L 761.951481 433.142883 
L 762.075335 89.167457 
L 762.934115 433.142883 
L 763.341529 433.142883 
L 763.745472 88.891569 
L 764.334097 433.142883 
L 764.74151 433.142883 
L 764.853625 90.20031 
L 765.716152 433.142883 
L 766.123566 433.142883 
L 766.233189 89.067016 
L 767.107644 433.142883 
L 767.515057 433.142883 
L 767.904351 89.366613 
L 768.491401 433.142883 
L 768.898814 433.142883 
L 769.010017 89.124349 
L 769.878914 433.142883 
L 770.286328 433.142883 
L 770.404507 89.144179 
L 771.276609 210.60227 
L 771.298074 210.60227 
L 771.390718 90.93098 
L 771.661497 260.001185 
L 772.28669 237.365063 
L 772.308347 237.365063 
L 772.926412 91.92633 
L 772.715591 252.165124 
L 773.29346 234.017774 
L 773.315033 234.017774 
L 773.807511 252.283238 
L 773.603021 89.13685 
L 774.299983 95.514158 
L 774.322495 95.514158 
L 774.322495 94.493375 
L 774.915804 433.142883 
L 775.074663 433.142883 
L 777.024026 433.142883 
L 777.239177 89.025633 
L 777.899946 102.893281 
L 778.076334 102.893281 
L 778.076334 89.153231 
L 778.215596 433.142883 
L 778.597546 433.142883 
L 780.263063 433.142883 
L 780.571986 89.4136 
L 781.093206 433.142883 
L 782.435294 433.142883 
L 782.69757 88.767851 
L 783.428089 433.142883 
L 785.457321 433.142883 
L 785.771867 88.655341 
L 786.29308 433.142883 
L 787.201431 433.142883 
L 787.487886 89.828724 
L 788.04041 433.142883 
L 789.321247 433.142883 
L 789.577762 89.083828 
L 789.950186 433.142883 
L 791.947766 433.142883 
L 792.73268 88.651892 
L 792.815677 96.838848 
L 792.994945 96.838848 
L 792.994945 89.098916 
L 793.134209 433.142883 
L 793.134209 433.142883 
" clip-path="url(#p669f5c18e7)" style="fill: none; stroke: #000000; stroke-width: 0.5; stroke-linecap: square"/>
   </g>
   <g id="patch_3">
    <path d="M 34.45 450.38584 
L 34.45 71.040799 
" style="fill: none; stroke: #000000; stroke-width: 0.8; stroke-linejoin: miter; stroke-linecap: square"/>
   </g>
   <g id="patch_4">
    <path d="M 829.262028 450.38584 
L 829.262028 71.040799 
" style="fill: none; stroke: #000000; stroke-width: 0.8; stroke-linejoin: miter; stroke-linecap: square"/>
   </g>
   <g id="patch_5">
    <path d="M 34.45 450.38584 
L 829.262028 450.38584 
" style="fill: none; stroke: #000000; stroke-width: 0.8; stroke-linejoin: miter; stroke-linecap: square"/>
   </g>
   <g id="patch_6">
    <path d="M 34.45 71.040799 
L 829.262028 71.040799 
" style="fill: none; stroke: #000000; stroke-width: 0.8; stroke-linejoin: miter; stroke-linecap: square"/>
   </g>
   <g id="text_19">
    <!-- 切宽变化 -->
    <g transform="translate(403.856014 18.575) scale(0.14 -0.14)">
     <defs>
      <path id="SimHei-53d8" d="M 5200 1975 
Q 4950 1600 4537 1137 
Q 4125 675 3675 375 
Q 3925 225 4600 87 
Q 5275 -50 6000 -75 
Q 5700 -400 5650 -625 
Q 4850 -525 4212 -312 
Q 3575 -100 3225 125 
Q 2800 -125 2150 -325 
Q 1500 -525 700 -675 
Q 600 -425 400 -175 
Q 950 -150 1687 12 
Q 2425 175 2825 375 
Q 2275 775 1675 1575 
Q 1350 1575 1000 1550 
L 1000 2000 
Q 1450 1975 2075 1975 
L 5200 1975 
z
M 3225 5275 
Q 3400 4900 3550 4475 
L 4675 4475 
Q 5400 4475 5975 4500 
L 5975 4025 
Q 5375 4050 4725 4050 
L 4125 4050 
L 4125 2950 
Q 4125 2550 4150 2150 
L 3600 2150 
Q 3625 2550 3625 2950 
L 3625 4050 
L 2750 4050 
L 2750 2950 
Q 2750 2675 2775 2150 
L 2225 2150 
Q 2250 2675 2250 2950 
L 2250 4050 
L 1700 4050 
Q 975 4050 425 4025 
L 425 4500 
Q 950 4475 1700 4475 
L 2975 4475 
Q 2925 4675 2700 5125 
Q 2950 5150 3225 5275 
z
M 2200 1575 
Q 2650 975 3250 600 
Q 3850 1000 4275 1575 
L 2200 1575 
z
M 4850 3750 
Q 5375 3275 5950 2675 
Q 5750 2525 5500 2300 
Q 5075 2800 4450 3400 
Q 4675 3575 4850 3750 
z
M 1825 3500 
Q 1700 3375 1425 3025 
Q 1150 2675 825 2300 
Q 575 2475 375 2600 
Q 975 3150 1300 3825 
Q 1525 3650 1825 3500 
z
" transform="scale(0.015625)"/>
      <path id="SimHei-5316" d="M 3925 5025 
Q 3900 4900 3900 4400 
L 3900 2625 
Q 4375 3025 4775 3450 
Q 5175 3875 5400 4300 
Q 5600 4100 5900 3925 
Q 5700 3700 5225 3212 
Q 4750 2725 4487 2512 
Q 4225 2300 3900 2025 
L 3900 450 
Q 3900 50 4225 50 
L 5200 50 
Q 5400 75 5462 262 
Q 5525 450 5575 850 
Q 5800 650 6150 600 
Q 6000 -100 5825 -250 
Q 5650 -400 5350 -400 
L 3950 -400 
Q 3425 -400 3400 200 
L 3400 1675 
Q 3225 1525 2962 1350 
Q 2700 1175 2375 975 
Q 2225 1225 2025 1400 
Q 2350 1550 2737 1787 
Q 3125 2025 3400 2250 
L 3400 4500 
Q 3400 4800 3375 5025 
L 3925 5025 
z
M 2400 4850 
Q 2175 4550 2075 4337 
Q 1975 4125 1825 3775 
L 1825 675 
Q 1825 -75 1850 -550 
L 1325 -550 
Q 1350 -125 1350 650 
L 1350 3050 
Q 1125 2725 962 2525 
Q 800 2325 675 2175 
Q 500 2375 275 2525 
Q 625 2850 875 3212 
Q 1125 3575 1312 3912 
Q 1500 4250 1625 4575 
Q 1750 4900 1825 5100 
Q 1975 4975 2400 4850 
z
" transform="scale(0.015625)"/>
     </defs>
     <use xlink:href="#SimHei-5207"/>
     <use xlink:href="#SimHei-5bbd" x="100"/>
     <use xlink:href="#SimHei-53d8" x="200"/>
     <use xlink:href="#SimHei-5316" x="300"/>
    </g>
   </g>
  </g>
  <g id="axes_2">
   <g id="matplotlib.axis_3">
    <g id="xtick_8">
     <g id="line2d_34">
      <defs>
       <path id="mf2181a7b1b" d="M 0 0 
L 0 -3.5 
" style="stroke: #000000; stroke-width: 0.8"/>
      </defs>
      <g>
       <use xlink:href="#mf2181a7b1b" x="70.577819" y="71.040799" style="stroke: #000000; stroke-width: 0.8"/>
      </g>
     </g>
     <g id="text_20">
      <!-- N0020 -->
      <g transform="translate(74.466907 63.333692) rotate(-45) scale(0.08 -0.08)">
       <defs>
        <path id="SimHei-4e" d="M 2850 125 
L 2225 125 
L 850 3225 
L 825 3225 
L 825 125 
L 250 125 
L 250 4400 
L 875 4400 
L 2250 1300 
L 2275 1300 
L 2275 4400 
L 2850 4400 
L 2850 125 
z
" transform="scale(0.015625)"/>
       </defs>
       <use xlink:href="#SimHei-4e"/>
       <use xlink:href="#SimHei-30" x="50"/>
       <use xlink:href="#SimHei-30" x="100"/>
       <use xlink:href="#SimHei-32" x="150"/>
       <use xlink:href="#SimHei-30" x="200"/>
      </g>
     </g>
    </g>
    <g id="xtick_9">
     <g id="line2d_35">
      <g>
       <use xlink:href="#mf2181a7b1b" x="210.075353" y="71.040799" style="stroke: #000000; stroke-width: 0.8"/>
      </g>
     </g>
     <g id="text_21">
      <!-- N7030.6 -->
      <g transform="translate(213.96444 63.333692) rotate(-45) scale(0.08 -0.08)">
       <defs>
        <path id="SimHei-2e" d="M 1075 125 
L 500 125 
L 500 675 
L 1075 675 
L 1075 125 
z
" transform="scale(0.015625)"/>
       </defs>
       <use xlink:href="#SimHei-4e"/>
       <use xlink:href="#SimHei-37" x="50"/>
       <use xlink:href="#SimHei-30" x="100"/>
       <use xlink:href="#SimHei-33" x="150"/>
       <use xlink:href="#SimHei-30" x="200"/>
       <use xlink:href="#SimHei-2e" x="250"/>
       <use xlink:href="#SimHei-36" x="300"/>
      </g>
     </g>
    </g>
    <g id="xtick_10">
     <g id="line2d_36">
      <g>
       <use xlink:href="#mf2181a7b1b" x="295.907624" y="71.040799" style="stroke: #000000; stroke-width: 0.8"/>
      </g>
     </g>
     <g id="text_22">
      <!-- N1740.1 -->
      <g transform="translate(299.796711 63.333692) rotate(-45) scale(0.08 -0.08)">
       <use xlink:href="#SimHei-4e"/>
       <use xlink:href="#SimHei-31" x="50"/>
       <use xlink:href="#SimHei-37" x="100"/>
       <use xlink:href="#SimHei-34" x="150"/>
       <use xlink:href="#SimHei-30" x="200"/>
       <use xlink:href="#SimHei-2e" x="250"/>
       <use xlink:href="#SimHei-31" x="300"/>
      </g>
     </g>
    </g>
    <g id="xtick_11">
     <g id="line2d_37">
      <g>
       <use xlink:href="#mf2181a7b1b" x="363.049726" y="71.040799" style="stroke: #000000; stroke-width: 0.8"/>
      </g>
     </g>
     <g id="text_23">
      <!-- N5210.4 -->
      <g transform="translate(366.938813 63.333692) rotate(-45) scale(0.08 -0.08)">
       <use xlink:href="#SimHei-4e"/>
       <use xlink:href="#SimHei-35" x="50"/>
       <use xlink:href="#SimHei-32" x="100"/>
       <use xlink:href="#SimHei-31" x="150"/>
       <use xlink:href="#SimHei-30" x="200"/>
       <use xlink:href="#SimHei-2e" x="250"/>
       <use xlink:href="#SimHei-34" x="300"/>
      </g>
     </g>
    </g>
    <g id="xtick_12">
     <g id="line2d_38">
      <g>
       <use xlink:href="#mf2181a7b1b" x="419.787183" y="71.040799" style="stroke: #000000; stroke-width: 0.8"/>
      </g>
     </g>
     <g id="text_24">
      <!-- N8410.11 -->
      <g transform="translate(423.67627 63.333692) rotate(-45) scale(0.08 -0.08)">
       <use xlink:href="#SimHei-4e"/>
       <use xlink:href="#SimHei-38" x="50"/>
       <use xlink:href="#SimHei-34" x="100"/>
       <use xlink:href="#SimHei-31" x="150"/>
       <use xlink:href="#SimHei-30" x="200"/>
       <use xlink:href="#SimHei-2e" x="250"/>
       <use xlink:href="#SimHei-31" x="300"/>
       <use xlink:href="#SimHei-31" x="350"/>
      </g>
     </g>
    </g>
    <g id="xtick_13">
     <g id="line2d_39">
      <g>
       <use xlink:href="#mf2181a7b1b" x="449.050299" y="71.040799" style="stroke: #000000; stroke-width: 0.8"/>
      </g>
     </g>
     <g id="text_25">
      <!-- N0190.11 -->
      <g transform="translate(452.939386 63.333692) rotate(-45) scale(0.08 -0.08)">
       <defs>
        <path id="SimHei-39" d="M 800 75 
Q 1350 1000 1700 1750 
Q 1075 1650 662 1912 
Q 250 2175 162 2625 
Q 75 3075 175 3437 
Q 275 3800 487 4037 
Q 700 4275 1000 4375 
Q 1300 4475 1537 4475 
Q 1775 4475 2025 4375 
Q 2275 4275 2475 4075 
Q 2675 3875 2750 3662 
Q 2825 3450 2825 3112 
Q 2825 2775 2575 2250 
Q 2325 1725 1350 75 
L 800 75 
z
M 662 2875 
Q 700 2550 937 2337 
Q 1175 2125 1450 2150 
Q 1725 2175 1887 2300 
Q 2050 2425 2200 2725 
Q 2300 3100 2250 3362 
Q 2200 3625 1987 3800 
Q 1775 3975 1525 3975 
Q 1375 4000 1137 3900 
Q 900 3800 762 3500 
Q 625 3200 662 2875 
z
" transform="scale(0.015625)"/>
       </defs>
       <use xlink:href="#SimHei-4e"/>
       <use xlink:href="#SimHei-30" x="50"/>
       <use xlink:href="#SimHei-31" x="100"/>
       <use xlink:href="#SimHei-39" x="150"/>
       <use xlink:href="#SimHei-30" x="200"/>
       <use xlink:href="#SimHei-2e" x="250"/>
       <use xlink:href="#SimHei-31" x="300"/>
       <use xlink:href="#SimHei-31" x="350"/>
      </g>
     </g>
    </g>
    <g id="xtick_14">
     <g id="line2d_40">
      <g>
       <use xlink:href="#mf2181a7b1b" x="487.060483" y="71.040799" style="stroke: #000000; stroke-width: 0.8"/>
      </g>
     </g>
     <g id="text_26">
      <!-- N2680.29 -->
      <g transform="translate(490.949571 63.333692) rotate(-45) scale(0.08 -0.08)">
       <use xlink:href="#SimHei-4e"/>
       <use xlink:href="#SimHei-32" x="50"/>
       <use xlink:href="#SimHei-36" x="100"/>
       <use xlink:href="#SimHei-38" x="150"/>
       <use xlink:href="#SimHei-30" x="200"/>
       <use xlink:href="#SimHei-2e" x="250"/>
       <use xlink:href="#SimHei-32" x="300"/>
       <use xlink:href="#SimHei-39" x="350"/>
      </g>
     </g>
    </g>
    <g id="xtick_15">
     <g id="line2d_41">
      <g>
       <use xlink:href="#mf2181a7b1b" x="534.701408" y="71.040799" style="stroke: #000000; stroke-width: 0.8"/>
      </g>
     </g>
     <g id="text_27">
      <!-- N5890.9 -->
      <g transform="translate(538.590495 63.333692) rotate(-45) scale(0.08 -0.08)">
       <use xlink:href="#SimHei-4e"/>
       <use xlink:href="#SimHei-35" x="50"/>
       <use xlink:href="#SimHei-38" x="100"/>
       <use xlink:href="#SimHei-39" x="150"/>
       <use xlink:href="#SimHei-30" x="200"/>
       <use xlink:href="#SimHei-2e" x="250"/>
       <use xlink:href="#SimHei-39" x="300"/>
      </g>
     </g>
    </g>
    <g id="xtick_16">
     <g id="line2d_42">
      <g>
       <use xlink:href="#mf2181a7b1b" x="566.733647" y="71.040799" style="stroke: #000000; stroke-width: 0.8"/>
      </g>
     </g>
     <g id="text_28">
      <!-- N7950.6 -->
      <g transform="translate(570.622735 63.333692) rotate(-45) scale(0.08 -0.08)">
       <use xlink:href="#SimHei-4e"/>
       <use xlink:href="#SimHei-37" x="50"/>
       <use xlink:href="#SimHei-39" x="100"/>
       <use xlink:href="#SimHei-35" x="150"/>
       <use xlink:href="#SimHei-30" x="200"/>
       <use xlink:href="#SimHei-2e" x="250"/>
       <use xlink:href="#SimHei-36" x="300"/>
      </g>
     </g>
    </g>
    <g id="xtick_17">
     <g id="line2d_43">
      <g>
       <use xlink:href="#mf2181a7b1b" x="618.721872" y="71.040799" style="stroke: #000000; stroke-width: 0.8"/>
      </g>
     </g>
     <g id="text_29">
      <!-- N1720.13 -->
      <g transform="translate(622.610959 63.333692) rotate(-45) scale(0.08 -0.08)">
       <use xlink:href="#SimHei-4e"/>
       <use xlink:href="#SimHei-31" x="50"/>
       <use xlink:href="#SimHei-37" x="100"/>
       <use xlink:href="#SimHei-32" x="150"/>
       <use xlink:href="#SimHei-30" x="200"/>
       <use xlink:href="#SimHei-2e" x="250"/>
       <use xlink:href="#SimHei-31" x="300"/>
       <use xlink:href="#SimHei-33" x="350"/>
      </g>
     </g>
    </g>
    <g id="xtick_18">
     <g id="line2d_44">
      <g>
       <use xlink:href="#mf2181a7b1b" x="670.502322" y="71.040799" style="stroke: #000000; stroke-width: 0.8"/>
      </g>
     </g>
     <g id="text_30">
      <!-- N5550 -->
      <g transform="translate(674.391409 63.333692) rotate(-45) scale(0.08 -0.08)">
       <use xlink:href="#SimHei-4e"/>
       <use xlink:href="#SimHei-35" x="50"/>
       <use xlink:href="#SimHei-35" x="100"/>
       <use xlink:href="#SimHei-35" x="150"/>
       <use xlink:href="#SimHei-30" x="200"/>
      </g>
     </g>
    </g>
    <g id="xtick_19">
     <g id="line2d_45">
      <g>
       <use xlink:href="#mf2181a7b1b" x="711.401497" y="71.040799" style="stroke: #000000; stroke-width: 0.8"/>
      </g>
     </g>
     <g id="text_31">
      <!-- N8160.3 -->
      <g transform="translate(715.290584 63.333692) rotate(-45) scale(0.08 -0.08)">
       <use xlink:href="#SimHei-4e"/>
       <use xlink:href="#SimHei-38" x="50"/>
       <use xlink:href="#SimHei-31" x="100"/>
       <use xlink:href="#SimHei-36" x="150"/>
       <use xlink:href="#SimHei-30" x="200"/>
       <use xlink:href="#SimHei-2e" x="250"/>
       <use xlink:href="#SimHei-33" x="300"/>
      </g>
     </g>
    </g>
    <g id="xtick_20">
     <g id="line2d_46">
      <g>
       <use xlink:href="#mf2181a7b1b" x="793.045868" y="71.040799" style="stroke: #000000; stroke-width: 0.8"/>
      </g>
     </g>
     <g id="text_32">
      <!-- N3660 -->
      <g transform="translate(796.934956 63.333692) rotate(-45) scale(0.08 -0.08)">
       <use xlink:href="#SimHei-4e"/>
       <use xlink:href="#SimHei-33" x="50"/>
       <use xlink:href="#SimHei-36" x="100"/>
       <use xlink:href="#SimHei-36" x="150"/>
       <use xlink:href="#SimHei-30" x="200"/>
      </g>
     </g>
    </g>
    <g id="text_33">
     <!-- 指令行号 N -->
     <g transform="translate(406.856014 32.817187) scale(0.1 -0.1)">
      <defs>
       <path id="SimHei-6307" d="M 5625 2225 
Q 5600 1925 5600 1350 
L 5600 300 
Q 5600 -225 5625 -525 
L 5125 -525 
L 5125 -125 
L 3300 -125 
L 3300 -625 
L 2800 -625 
Q 2825 -300 2825 300 
L 2825 1350 
Q 2825 1925 2800 2225 
L 5625 2225 
z
M 500 25 
Q 1075 -25 1175 37 
Q 1275 100 1275 275 
L 1275 1675 
Q 1050 1600 925 1537 
Q 800 1475 475 1275 
Q 400 1525 225 1800 
Q 625 1900 825 1975 
Q 1025 2050 1275 2125 
L 1275 3300 
L 1100 3300 
Q 775 3300 450 3275 
L 450 3725 
Q 750 3700 1100 3700 
L 1275 3700 
L 1275 4450 
Q 1275 4800 1250 5125 
L 1775 5125 
Q 1750 4850 1750 4450 
L 1750 3700 
Q 2075 3700 2425 3725 
L 2425 3275 
Q 2050 3300 1750 3300 
L 1750 2325 
Q 1850 2350 2025 2425 
L 2375 2575 
Q 2350 2300 2375 2100 
Q 2225 2050 2062 1987 
Q 1900 1925 1750 1850 
L 1750 100 
Q 1725 -200 1575 -337 
Q 1425 -475 675 -525 
Q 625 -250 500 25 
z
M 3325 5025 
Q 3300 4675 3300 4125 
Q 4125 4275 4512 4412 
Q 4900 4550 5225 4725 
Q 5325 4475 5575 4250 
Q 5450 4225 5237 4175 
Q 5025 4125 4725 4050 
Q 4425 3975 4037 3887 
Q 3650 3800 3300 3725 
L 3300 3175 
Q 3275 2925 3700 2925 
L 4925 2925 
Q 5300 2925 5387 3087 
Q 5475 3250 5550 3600 
Q 5750 3400 6050 3300 
Q 5825 2725 5700 2637 
Q 5575 2550 5275 2525 
L 3350 2525 
Q 3050 2525 2937 2687 
Q 2825 2850 2825 2975 
L 2825 4125 
Q 2825 4775 2800 5025 
L 3325 5025 
z
M 5125 275 
L 5125 875 
L 3300 875 
L 3300 275 
L 5125 275 
z
M 5125 1250 
L 5125 1825 
L 3300 1825 
L 3300 1250 
L 5125 1250 
z
" transform="scale(0.015625)"/>
       <path id="SimHei-4ee4" d="M 5375 2075 
L 5375 1550 
Q 4925 1325 4450 937 
Q 3975 550 3575 125 
L 4250 -325 
Q 4050 -550 3875 -775 
Q 3100 -125 1850 425 
L 2150 875 
Q 2400 775 3125 350 
Q 3800 1025 4450 1625 
L 2025 1625 
Q 1500 1625 975 1600 
L 975 2100 
Q 1525 2075 2025 2075 
L 5375 2075 
z
M 3375 4850 
Q 4450 3550 6200 2900 
Q 5950 2625 5800 2350 
Q 4150 3150 3100 4475 
Q 2075 3125 625 2225 
Q 400 2525 200 2700 
Q 875 2975 1675 3675 
Q 2475 4375 2950 5300 
Q 3275 5175 3550 5050 
Q 3475 5000 3375 4850 
z
M 2925 3600 
Q 3175 3350 3750 2725 
L 3300 2325 
Q 3050 2700 2550 3225 
Q 2750 3375 2925 3600 
z
" transform="scale(0.015625)"/>
       <path id="SimHei-53f7" d="M 5025 4925 
Q 5000 4550 5000 4075 
Q 5000 3600 5025 3175 
L 1400 3175 
Q 1425 3525 1425 4000 
Q 1425 4500 1400 4925 
L 5025 4925 
z
M 5175 2625 
Q 5650 2625 6025 2650 
L 6025 2200 
Q 5650 2225 5175 2225 
L 2450 2225 
Q 2350 1875 2225 1450 
L 5175 1450 
Q 5100 1050 5062 775 
Q 5025 500 4950 112 
Q 4875 -275 4650 -412 
Q 4425 -550 3225 -625 
Q 3125 -350 2975 -50 
Q 3875 -75 4112 -50 
Q 4350 -25 4425 212 
Q 4500 450 4575 1025 
L 1600 1025 
Q 1825 1625 1950 2225 
L 1350 2225 
Q 825 2225 375 2200 
L 375 2650 
Q 825 2625 1350 2625 
L 5175 2625 
z
M 4525 3575 
L 4525 4525 
L 1900 4525 
L 1900 3575 
L 4525 3575 
z
" transform="scale(0.015625)"/>
      </defs>
      <use xlink:href="#SimHei-6307"/>
      <use xlink:href="#SimHei-4ee4" x="100"/>
      <use xlink:href="#SimHei-884c" x="200"/>
      <use xlink:href="#SimHei-53f7" x="300"/>
      <use xlink:href="#SimHei-20" x="400"/>
      <use xlink:href="#SimHei-4e" x="450"/>
     </g>
    </g>
   </g>
   <g id="patch_7">
    <path d="M 34.45 450.38584 
L 34.45 71.040799 
" style="fill: none; stroke: #000000; stroke-width: 0.8; stroke-linejoin: miter; stroke-linecap: square"/>
   </g>
   <g id="patch_8">
    <path d="M 829.262028 450.38584 
L 829.262028 71.040799 
" style="fill: none; stroke: #000000; stroke-width: 0.8; stroke-linejoin: miter; stroke-linecap: square"/>
   </g>
   <g id="patch_9">
    <path d="M 34.45 450.38584 
L 829.262028 450.38584 
" style="fill: none; stroke: #000000; stroke-width: 0.8; stroke-linejoin: miter; stroke-linecap: square"/>
   </g>
   <g id="patch_10">
    <path d="M 34.45 71.040799 
L 829.262028 71.040799 
" style="fill: none; stroke: #000000; stroke-width: 0.8; stroke-linejoin: miter; stroke-linecap: square"/>
   </g>
  </g>
 </g>
 <defs>
  <clipPath id="p669f5c18e7">
   <rect x="34.45" y="71.040799" width="794.812028" height="379.345041"/>
  </clipPath>
 </defs>
</svg>
