<?xml version="1.0" encoding="utf-8" standalone="no"?>
<!DOCTYPE svg PUBLIC "-//W3C//DTD SVG 1.1//EN"
  "http://www.w3.org/Graphics/SVG/1.1/DTD/svg11.dtd">
<svg xmlns:xlink="http://www.w3.org/1999/xlink" width="848.428538pt" height="488.35209pt" viewBox="0 0 848.428538 488.35209" xmlns="http://www.w3.org/2000/svg" version="1.1">
 <metadata>
  <rdf:RDF xmlns:dc="http://purl.org/dc/elements/1.1/" xmlns:cc="http://creativecommons.org/ns#" xmlns:rdf="http://www.w3.org/1999/02/22-rdf-syntax-ns#">
   <cc:Work>
    <dc:type rdf:resource="http://purl.org/dc/dcmitype/StillImage"/>
    <dc:date>2025-12-10T13:34:58.954107</dc:date>
    <dc:format>image/svg+xml</dc:format>
    <dc:creator>
     <cc:Agent>
      <dc:title>Matplotlib v3.9.2, https://matplotlib.org/</dc:title>
     </cc:Agent>
    </dc:creator>
   </cc:Work>
  </rdf:RDF>
 </metadata>
 <defs>
  <style type="text/css">*{stroke-linejoin: round; stroke-linecap: butt}</style>
 </defs>
 <g id="figure_1">
  <g id="patch_1">
   <path d="M 0 488.35209 
L 848.428538 488.35209 
L 848.428538 0 
L 0 0 
z
" style="fill: #ffffff"/>
  </g>
  <g id="axes_1">
   <g id="patch_2">
    <path d="M 39.35625 450.823965 
L 829.353278 450.823965 
L 829.353278 70.931424 
L 39.35625 70.931424 
z
" style="fill: #ffffff"/>
   </g>
   <g id="matplotlib.axis_1">
    <g id="xtick_1">
     <g id="line2d_1">
      <path d="M 69.455884 450.823965 
L 69.455884 70.931424 
" clip-path="url(#p029e1c81a7)" style="fill: none; stroke-dasharray: 2.96,1.28; stroke-dashoffset: 0; stroke: #b0b0b0; stroke-opacity: 0.7; stroke-width: 0.8"/>
     </g>
     <g id="line2d_2">
      <defs>
       <path id="mde541369e7" d="M 0 0 
L 0 3.5 
" style="stroke: #000000; stroke-width: 0.8"/>
      </defs>
      <g>
       <use xlink:href="#mde541369e7" x="69.455884" y="450.823965" style="stroke: #000000; stroke-width: 0.8"/>
      </g>
     </g>
     <g id="text_1">
      <!-- 0 -->
      <g transform="translate(66.955884 464.698965) scale(0.1 -0.1)">
       <defs>
        <path id="SimHei-30" d="M 225 2537 
Q 250 3200 412 3587 
Q 575 3975 875 4225 
Q 1175 4475 1612 4475 
Q 2050 4475 2375 4112 
Q 2700 3750 2800 3200 
Q 2900 2650 2862 1937 
Q 2825 1225 2612 775 
Q 2400 325 1975 150 
Q 1550 -25 1125 187 
Q 700 400 525 750 
Q 350 1100 275 1487 
Q 200 1875 225 2537 
z
M 750 2687 
Q 675 2000 800 1462 
Q 925 925 1212 700 
Q 1500 475 1800 612 
Q 2100 750 2237 1162 
Q 2375 1575 2375 2062 
Q 2375 2550 2337 2950 
Q 2300 3350 2112 3675 
Q 1925 4000 1612 4012 
Q 1300 4025 1062 3700 
Q 825 3375 750 2687 
z
" transform="scale(0.015625)"/>
       </defs>
       <use xlink:href="#SimHei-30"/>
      </g>
     </g>
    </g>
    <g id="xtick_2">
     <g id="line2d_3">
      <path d="M 196.001327 450.823965 
L 196.001327 70.931424 
" clip-path="url(#p029e1c81a7)" style="fill: none; stroke-dasharray: 2.96,1.28; stroke-dashoffset: 0; stroke: #b0b0b0; stroke-opacity: 0.7; stroke-width: 0.8"/>
     </g>
     <g id="line2d_4">
      <g>
       <use xlink:href="#mde541369e7" x="196.001327" y="450.823965" style="stroke: #000000; stroke-width: 0.8"/>
      </g>
     </g>
     <g id="text_2">
      <!-- 10000 -->
      <g transform="translate(183.501327 464.698965) scale(0.1 -0.1)">
       <defs>
        <path id="SimHei-31" d="M 1400 3600 
Q 1075 3275 575 2975 
L 575 3450 
Q 1200 3875 1600 4450 
L 1900 4450 
L 1900 150 
L 1400 150 
L 1400 3600 
z
" transform="scale(0.015625)"/>
       </defs>
       <use xlink:href="#SimHei-31"/>
       <use xlink:href="#SimHei-30" x="50"/>
       <use xlink:href="#SimHei-30" x="100"/>
       <use xlink:href="#SimHei-30" x="150"/>
       <use xlink:href="#SimHei-30" x="200"/>
      </g>
     </g>
    </g>
    <g id="xtick_3">
     <g id="line2d_5">
      <path d="M 322.546769 450.823965 
L 322.546769 70.931424 
" clip-path="url(#p029e1c81a7)" style="fill: none; stroke-dasharray: 2.96,1.28; stroke-dashoffset: 0; stroke: #b0b0b0; stroke-opacity: 0.7; stroke-width: 0.8"/>
     </g>
     <g id="line2d_6">
      <g>
       <use xlink:href="#mde541369e7" x="322.546769" y="450.823965" style="stroke: #000000; stroke-width: 0.8"/>
      </g>
     </g>
     <g id="text_3">
      <!-- 20000 -->
      <g transform="translate(310.046769 464.698965) scale(0.1 -0.1)">
       <defs>
        <path id="SimHei-32" d="M 300 250 
Q 325 625 650 925 
Q 975 1225 1475 1862 
Q 1975 2500 2125 2850 
Q 2275 3200 2237 3450 
Q 2200 3700 2000 3862 
Q 1800 4025 1537 4000 
Q 1275 3975 1037 3800 
Q 800 3625 675 3275 
L 200 3350 
Q 400 3925 712 4187 
Q 1025 4450 1450 4475 
Q 1700 4500 1900 4462 
Q 2100 4425 2312 4287 
Q 2525 4150 2662 3875 
Q 2800 3600 2762 3212 
Q 2725 2825 2375 2287 
Q 2025 1750 1025 600 
L 2825 600 
L 2825 150 
L 300 150 
L 300 250 
z
" transform="scale(0.015625)"/>
       </defs>
       <use xlink:href="#SimHei-32"/>
       <use xlink:href="#SimHei-30" x="50"/>
       <use xlink:href="#SimHei-30" x="100"/>
       <use xlink:href="#SimHei-30" x="150"/>
       <use xlink:href="#SimHei-30" x="200"/>
      </g>
     </g>
    </g>
    <g id="xtick_4">
     <g id="line2d_7">
      <path d="M 449.092211 450.823965 
L 449.092211 70.931424 
" clip-path="url(#p029e1c81a7)" style="fill: none; stroke-dasharray: 2.96,1.28; stroke-dashoffset: 0; stroke: #b0b0b0; stroke-opacity: 0.7; stroke-width: 0.8"/>
     </g>
     <g id="line2d_8">
      <g>
       <use xlink:href="#mde541369e7" x="449.092211" y="450.823965" style="stroke: #000000; stroke-width: 0.8"/>
      </g>
     </g>
     <g id="text_4">
      <!-- 30000 -->
      <g transform="translate(436.592211 464.698965) scale(0.1 -0.1)">
       <defs>
        <path id="SimHei-33" d="M 250 1225 
L 700 1300 
Q 800 975 1025 762 
Q 1250 550 1587 562 
Q 1925 575 2125 837 
Q 2325 1100 2300 1437 
Q 2275 1775 2037 1962 
Q 1800 2150 1275 2225 
L 1275 2550 
Q 1800 2600 2037 2825 
Q 2275 3050 2250 3412 
Q 2225 3775 1925 3937 
Q 1625 4100 1287 3975 
Q 950 3850 750 3275 
L 300 3350 
Q 450 3800 712 4100 
Q 975 4400 1425 4450 
Q 1875 4500 2212 4337 
Q 2550 4175 2687 3837 
Q 2825 3500 2725 3100 
Q 2625 2700 2150 2400 
Q 2500 2250 2687 1950 
Q 2875 1650 2812 1162 
Q 2750 675 2375 375 
Q 2000 75 1525 87 
Q 1050 100 700 387 
Q 350 675 250 1225 
z
" transform="scale(0.015625)"/>
       </defs>
       <use xlink:href="#SimHei-33"/>
       <use xlink:href="#SimHei-30" x="50"/>
       <use xlink:href="#SimHei-30" x="100"/>
       <use xlink:href="#SimHei-30" x="150"/>
       <use xlink:href="#SimHei-30" x="200"/>
      </g>
     </g>
    </g>
    <g id="xtick_5">
     <g id="line2d_9">
      <path d="M 575.637654 450.823965 
L 575.637654 70.931424 
" clip-path="url(#p029e1c81a7)" style="fill: none; stroke-dasharray: 2.96,1.28; stroke-dashoffset: 0; stroke: #b0b0b0; stroke-opacity: 0.7; stroke-width: 0.8"/>
     </g>
     <g id="line2d_10">
      <g>
       <use xlink:href="#mde541369e7" x="575.637654" y="450.823965" style="stroke: #000000; stroke-width: 0.8"/>
      </g>
     </g>
     <g id="text_5">
      <!-- 40000 -->
      <g transform="translate(563.137654 464.698965) scale(0.1 -0.1)">
       <defs>
        <path id="SimHei-34" d="M 2000 1100 
L 75 1100 
L 75 1525 
L 2100 4450 
L 2475 4450 
L 2475 1525 
L 3075 1525 
L 3075 1100 
L 2475 1100 
L 2475 150 
L 2000 150 
L 2000 1100 
z
M 2000 1525 
L 2000 3500 
L 600 1525 
L 2000 1525 
z
" transform="scale(0.015625)"/>
       </defs>
       <use xlink:href="#SimHei-34"/>
       <use xlink:href="#SimHei-30" x="50"/>
       <use xlink:href="#SimHei-30" x="100"/>
       <use xlink:href="#SimHei-30" x="150"/>
       <use xlink:href="#SimHei-30" x="200"/>
      </g>
     </g>
    </g>
    <g id="xtick_6">
     <g id="line2d_11">
      <path d="M 702.183096 450.823965 
L 702.183096 70.931424 
" clip-path="url(#p029e1c81a7)" style="fill: none; stroke-dasharray: 2.96,1.28; stroke-dashoffset: 0; stroke: #b0b0b0; stroke-opacity: 0.7; stroke-width: 0.8"/>
     </g>
     <g id="line2d_12">
      <g>
       <use xlink:href="#mde541369e7" x="702.183096" y="450.823965" style="stroke: #000000; stroke-width: 0.8"/>
      </g>
     </g>
     <g id="text_6">
      <!-- 50000 -->
      <g transform="translate(689.683096 464.698965) scale(0.1 -0.1)">
       <defs>
        <path id="SimHei-35" d="M 550 1325 
Q 725 650 1150 575 
Q 1575 500 1837 662 
Q 2100 825 2212 1087 
Q 2325 1350 2312 1675 
Q 2300 2000 2137 2225 
Q 1975 2450 1725 2525 
Q 1475 2600 1162 2525 
Q 850 2450 650 2175 
L 225 2225 
Q 275 2375 700 4375 
L 2675 4375 
L 2675 3925 
L 1075 3925 
Q 950 3250 825 2850 
Q 1200 3025 1525 3012 
Q 1850 3000 2150 2862 
Q 2450 2725 2587 2487 
Q 2725 2250 2787 2012 
Q 2850 1775 2837 1500 
Q 2825 1225 2725 937 
Q 2625 650 2425 462 
Q 2225 275 1937 162 
Q 1650 50 1275 75 
Q 900 100 562 350 
Q 225 600 100 1200 
L 550 1325 
z
" transform="scale(0.015625)"/>
       </defs>
       <use xlink:href="#SimHei-35"/>
       <use xlink:href="#SimHei-30" x="50"/>
       <use xlink:href="#SimHei-30" x="100"/>
       <use xlink:href="#SimHei-30" x="150"/>
       <use xlink:href="#SimHei-30" x="200"/>
      </g>
     </g>
    </g>
    <g id="xtick_7">
     <g id="line2d_13">
      <path d="M 828.728538 450.823965 
L 828.728538 70.931424 
" clip-path="url(#p029e1c81a7)" style="fill: none; stroke-dasharray: 2.96,1.28; stroke-dashoffset: 0; stroke: #b0b0b0; stroke-opacity: 0.7; stroke-width: 0.8"/>
     </g>
     <g id="line2d_14">
      <g>
       <use xlink:href="#mde541369e7" x="828.728538" y="450.823965" style="stroke: #000000; stroke-width: 0.8"/>
      </g>
     </g>
     <g id="text_7">
      <!-- 60000 -->
      <g transform="translate(816.228538 464.698965) scale(0.1 -0.1)">
       <defs>
        <path id="SimHei-36" d="M 250 1612 
Q 275 1975 387 2225 
Q 500 2475 725 2850 
L 1750 4450 
L 2325 4450 
L 1275 2800 
Q 1950 2975 2350 2750 
Q 2750 2525 2887 2237 
Q 3025 1950 3037 1612 
Q 3050 1275 2937 950 
Q 2825 625 2537 362 
Q 2250 100 1737 75 
Q 1225 50 862 262 
Q 500 475 362 862 
Q 225 1250 250 1612 
z
M 1025 787 
Q 1250 550 1625 525 
Q 2000 500 2250 775 
Q 2500 1050 2500 1575 
Q 2500 2100 2187 2300 
Q 1875 2500 1487 2450 
Q 1100 2400 925 2075 
Q 750 1750 775 1387 
Q 800 1025 1025 787 
z
" transform="scale(0.015625)"/>
       </defs>
       <use xlink:href="#SimHei-36"/>
       <use xlink:href="#SimHei-30" x="50"/>
       <use xlink:href="#SimHei-30" x="100"/>
       <use xlink:href="#SimHei-30" x="150"/>
       <use xlink:href="#SimHei-30" x="200"/>
      </g>
     </g>
    </g>
    <g id="text_8">
     <!-- 行程 s (mm) -->
     <g transform="translate(401.354764 479.65209) scale(0.12 -0.12)">
      <defs>
       <path id="SimHei-884c" d="M 5300 3100 
Q 5775 3100 6175 3125 
L 6175 2625 
Q 5775 2650 5325 2650 
L 4975 2650 
L 4975 -75 
Q 5000 -375 4787 -487 
Q 4575 -600 3950 -675 
Q 3900 -375 3675 -75 
Q 4100 -125 4275 -112 
Q 4450 -100 4475 150 
L 4475 2650 
L 3475 2650 
Q 3000 2650 2575 2625 
L 2575 3125 
Q 3025 3100 3475 3100 
L 5300 3100 
z
M 2300 3400 
Q 2075 3275 1962 3075 
Q 1850 2875 1650 2575 
L 1650 325 
Q 1650 0 1675 -675 
L 1150 -675 
Q 1175 75 1175 450 
L 1175 2050 
Q 950 1675 575 1300 
Q 400 1550 250 1725 
Q 825 2275 1150 2775 
Q 1475 3275 1725 3725 
Q 1975 3575 2300 3400 
z
M 4875 4800 
Q 5300 4800 5750 4825 
L 5750 4350 
Q 5300 4375 4825 4375 
L 3900 4375 
Q 3350 4375 2950 4350 
L 2950 4825 
Q 3350 4800 3900 4800 
L 4875 4800 
z
M 2075 4925 
Q 1875 4900 1550 4387 
Q 1225 3875 650 3250 
Q 500 3450 325 3625 
Q 725 4025 1050 4487 
Q 1375 4950 1525 5300 
Q 1775 5150 2075 4925 
z
" transform="scale(0.015625)"/>
       <path id="SimHei-7a0b" d="M 5825 4975 
Q 5800 4425 5800 3975 
Q 5800 3550 5825 3125 
L 3025 3125 
Q 3050 3600 3050 4025 
Q 3050 4450 3025 4975 
L 5825 4975 
z
M 400 4825 
Q 825 4875 1362 4987 
Q 1900 5100 2275 5275 
Q 2450 4950 2625 4725 
Q 2450 4750 2262 4712 
Q 2075 4675 1850 4650 
L 1850 3425 
Q 2200 3425 2600 3450 
L 2600 2975 
Q 2200 3000 1850 3000 
L 1850 800 
Q 1850 250 1875 -675 
L 1375 -675 
Q 1400 250 1400 775 
L 1400 1925 
Q 1050 1225 625 600 
Q 450 850 225 1050 
Q 575 1400 850 1850 
Q 1125 2300 1350 3000 
Q 725 3000 425 2975 
L 425 3450 
Q 850 3425 1050 3425 
L 1400 3425 
L 1400 4550 
Q 1075 4475 575 4400 
Q 500 4625 400 4825 
z
M 5100 2500 
Q 5500 2500 5950 2525 
L 5950 2075 
Q 5500 2100 5100 2100 
L 4625 2100 
L 4625 1300 
L 4900 1300 
Q 5275 1300 5775 1325 
L 5775 850 
Q 5275 875 4975 875 
L 4625 875 
L 4625 0 
L 5225 0 
Q 5675 0 6175 25 
L 6175 -450 
Q 5775 -425 5225 -425 
L 3550 -425 
Q 3000 -425 2600 -475 
L 2600 25 
Q 3000 0 3550 0 
L 4150 0 
L 4150 875 
L 3800 875 
Q 3400 875 3050 825 
L 3050 1325 
Q 3400 1300 3800 1300 
L 4150 1300 
L 4150 2100 
L 3750 2100 
Q 3300 2100 2900 2075 
L 2900 2525 
Q 3300 2500 3750 2500 
L 5100 2500 
z
M 5275 3575 
L 5275 4550 
L 3500 4550 
L 3500 3575 
L 5275 3575 
z
M 2300 2400 
Q 2550 2025 2825 1525 
Q 2675 1425 2425 1225 
Q 2175 1775 1925 2125 
Q 2075 2250 2300 2400 
z
" transform="scale(0.015625)"/>
       <path id="SimHei-20" transform="scale(0.015625)"/>
       <path id="SimHei-73" d="M 2750 900 
Q 2750 500 2437 287 
Q 2125 75 1650 75 
Q 1050 75 725 312 
Q 400 550 400 1000 
L 900 1000 
Q 900 700 1112 600 
Q 1325 500 1625 500 
Q 1925 500 2075 612 
Q 2225 725 2225 900 
Q 2225 1025 2100 1150 
Q 1975 1275 1475 1350 
Q 900 1425 687 1637 
Q 475 1850 475 2200 
Q 475 2500 762 2737 
Q 1050 2975 1600 2975 
Q 2100 2975 2387 2750 
Q 2675 2525 2675 2150 
L 2175 2150 
Q 2175 2375 2012 2462 
Q 1850 2550 1600 2550 
Q 1275 2550 1137 2437 
Q 1000 2325 1000 2175 
Q 1000 2000 1125 1900 
Q 1250 1800 1650 1750 
Q 2300 1650 2525 1437 
Q 2750 1225 2750 900 
z
" transform="scale(0.015625)"/>
       <path id="SimHei-28" d="M 2975 -200 
L 2700 -475 
Q 2075 125 1762 775 
Q 1450 1425 1450 2250 
Q 1450 3075 1762 3725 
Q 2075 4375 2700 5000 
L 2975 4725 
Q 2400 4175 2112 3587 
Q 1825 3000 1825 2250 
Q 1825 1500 2112 912 
Q 2400 325 2975 -200 
z
" transform="scale(0.015625)"/>
       <path id="SimHei-6d" d="M 3050 125 
L 2550 125 
L 2550 2150 
Q 2550 2300 2500 2400 
Q 2450 2500 2300 2500 
Q 2125 2500 1975 2312 
Q 1825 2125 1825 1825 
L 1825 125 
L 1325 125 
L 1325 2150 
Q 1325 2300 1275 2400 
Q 1225 2500 1075 2500 
Q 900 2500 750 2312 
Q 600 2125 600 1825 
L 600 125 
L 100 125 
L 100 2925 
L 600 2925 
L 600 2550 
Q 725 2750 900 2862 
Q 1075 2975 1275 2975 
Q 1475 2975 1612 2862 
Q 1750 2750 1800 2550 
Q 1925 2750 2087 2862 
Q 2250 2975 2450 2975 
Q 2750 2975 2900 2812 
Q 3050 2650 3050 2350 
L 3050 125 
z
" transform="scale(0.015625)"/>
       <path id="SimHei-29" d="M 1675 2250 
Q 1675 1425 1362 775 
Q 1050 125 425 -475 
L 150 -200 
Q 725 325 1012 912 
Q 1300 1500 1300 2250 
Q 1300 3000 1012 3587 
Q 725 4175 150 4725 
L 425 5000 
Q 1050 4375 1362 3725 
Q 1675 3075 1675 2250 
z
" transform="scale(0.015625)"/>
      </defs>
      <use xlink:href="#SimHei-884c"/>
      <use xlink:href="#SimHei-7a0b" x="100"/>
      <use xlink:href="#SimHei-20" x="200"/>
      <use xlink:href="#SimHei-73" x="250"/>
      <use xlink:href="#SimHei-20" x="300"/>
      <use xlink:href="#SimHei-28" x="350"/>
      <use xlink:href="#SimHei-6d" x="400"/>
      <use xlink:href="#SimHei-6d" x="450"/>
      <use xlink:href="#SimHei-29" x="500"/>
     </g>
    </g>
   </g>
   <g id="matplotlib.axis_2">
    <g id="ytick_1">
     <g id="line2d_15">
      <path d="M 39.35625 433.556122 
L 829.353278 433.556122 
" clip-path="url(#p029e1c81a7)" style="fill: none; stroke-dasharray: 2.96,1.28; stroke-dashoffset: 0; stroke: #b0b0b0; stroke-opacity: 0.7; stroke-width: 0.8"/>
     </g>
     <g id="line2d_16">
      <defs>
       <path id="m9039fd47d0" d="M 0 0 
L -3.5 0 
" style="stroke: #000000; stroke-width: 0.8"/>
      </defs>
      <g>
       <use xlink:href="#m9039fd47d0" x="39.35625" y="433.556122" style="stroke: #000000; stroke-width: 0.8"/>
      </g>
     </g>
     <g id="text_9">
      <!-- 0 -->
      <g transform="translate(27.35625 436.993622) scale(0.1 -0.1)">
       <use xlink:href="#SimHei-30"/>
      </g>
     </g>
    </g>
    <g id="ytick_2">
     <g id="line2d_17">
      <path d="M 39.35625 380.424298 
L 829.353278 380.424298 
" clip-path="url(#p029e1c81a7)" style="fill: none; stroke-dasharray: 2.96,1.28; stroke-dashoffset: 0; stroke: #b0b0b0; stroke-opacity: 0.7; stroke-width: 0.8"/>
     </g>
     <g id="line2d_18">
      <g>
       <use xlink:href="#m9039fd47d0" x="39.35625" y="380.424298" style="stroke: #000000; stroke-width: 0.8"/>
      </g>
     </g>
     <g id="text_10">
      <!-- 2 -->
      <g transform="translate(27.35625 383.861798) scale(0.1 -0.1)">
       <use xlink:href="#SimHei-32"/>
      </g>
     </g>
    </g>
    <g id="ytick_3">
     <g id="line2d_19">
      <path d="M 39.35625 327.292474 
L 829.353278 327.292474 
" clip-path="url(#p029e1c81a7)" style="fill: none; stroke-dasharray: 2.96,1.28; stroke-dashoffset: 0; stroke: #b0b0b0; stroke-opacity: 0.7; stroke-width: 0.8"/>
     </g>
     <g id="line2d_20">
      <g>
       <use xlink:href="#m9039fd47d0" x="39.35625" y="327.292474" style="stroke: #000000; stroke-width: 0.8"/>
      </g>
     </g>
     <g id="text_11">
      <!-- 4 -->
      <g transform="translate(27.35625 330.729974) scale(0.1 -0.1)">
       <use xlink:href="#SimHei-34"/>
      </g>
     </g>
    </g>
    <g id="ytick_4">
     <g id="line2d_21">
      <path d="M 39.35625 274.16065 
L 829.353278 274.16065 
" clip-path="url(#p029e1c81a7)" style="fill: none; stroke-dasharray: 2.96,1.28; stroke-dashoffset: 0; stroke: #b0b0b0; stroke-opacity: 0.7; stroke-width: 0.8"/>
     </g>
     <g id="line2d_22">
      <g>
       <use xlink:href="#m9039fd47d0" x="39.35625" y="274.16065" style="stroke: #000000; stroke-width: 0.8"/>
      </g>
     </g>
     <g id="text_12">
      <!-- 6 -->
      <g transform="translate(27.35625 277.59815) scale(0.1 -0.1)">
       <use xlink:href="#SimHei-36"/>
      </g>
     </g>
    </g>
    <g id="ytick_5">
     <g id="line2d_23">
      <path d="M 39.35625 221.028826 
L 829.353278 221.028826 
" clip-path="url(#p029e1c81a7)" style="fill: none; stroke-dasharray: 2.96,1.28; stroke-dashoffset: 0; stroke: #b0b0b0; stroke-opacity: 0.7; stroke-width: 0.8"/>
     </g>
     <g id="line2d_24">
      <g>
       <use xlink:href="#m9039fd47d0" x="39.35625" y="221.028826" style="stroke: #000000; stroke-width: 0.8"/>
      </g>
     </g>
     <g id="text_13">
      <!-- 8 -->
      <g transform="translate(27.35625 224.466326) scale(0.1 -0.1)">
       <defs>
        <path id="SimHei-38" d="M 175 1375 
Q 175 1675 325 1962 
Q 475 2250 825 2425 
Q 525 2600 425 2812 
Q 325 3025 312 3300 
Q 300 3575 387 3775 
Q 475 3975 650 4150 
Q 825 4325 1037 4387 
Q 1250 4450 1500 4450 
Q 1750 4450 1950 4400 
Q 2150 4350 2375 4187 
Q 2600 4025 2700 3725 
Q 2800 3425 2687 3025 
Q 2575 2625 2100 2400 
Q 2525 2275 2700 2012 
Q 2875 1750 2875 1375 
Q 2875 1000 2762 775 
Q 2650 550 2512 400 
Q 2375 250 2137 162 
Q 1900 75 1537 75 
Q 1175 75 912 162 
Q 650 250 475 425 
Q 300 600 237 837 
Q 175 1075 175 1375 
z
M 687 1400 
Q 675 1100 787 875 
Q 900 650 1200 587 
Q 1500 525 1825 600 
Q 2150 675 2275 950 
Q 2400 1225 2362 1500 
Q 2325 1775 2050 1962 
Q 1775 2150 1450 2125 
Q 1125 2100 912 1900 
Q 700 1700 687 1400 
z
M 775 3350 
Q 775 3100 950 2875 
Q 1125 2650 1500 2650 
Q 1875 2650 2062 2875 
Q 2250 3100 2237 3412 
Q 2225 3725 2012 3875 
Q 1800 4025 1437 4000 
Q 1075 3975 925 3787 
Q 775 3600 775 3350 
z
" transform="scale(0.015625)"/>
       </defs>
       <use xlink:href="#SimHei-38"/>
      </g>
     </g>
    </g>
    <g id="ytick_6">
     <g id="line2d_25">
      <path d="M 39.35625 167.897002 
L 829.353278 167.897002 
" clip-path="url(#p029e1c81a7)" style="fill: none; stroke-dasharray: 2.96,1.28; stroke-dashoffset: 0; stroke: #b0b0b0; stroke-opacity: 0.7; stroke-width: 0.8"/>
     </g>
     <g id="line2d_26">
      <g>
       <use xlink:href="#m9039fd47d0" x="39.35625" y="167.897002" style="stroke: #000000; stroke-width: 0.8"/>
      </g>
     </g>
     <g id="text_14">
      <!-- 10 -->
      <g transform="translate(22.35625 171.334502) scale(0.1 -0.1)">
       <use xlink:href="#SimHei-31"/>
       <use xlink:href="#SimHei-30" x="50"/>
      </g>
     </g>
    </g>
    <g id="ytick_7">
     <g id="line2d_27">
      <path d="M 39.35625 114.765178 
L 829.353278 114.765178 
" clip-path="url(#p029e1c81a7)" style="fill: none; stroke-dasharray: 2.96,1.28; stroke-dashoffset: 0; stroke: #b0b0b0; stroke-opacity: 0.7; stroke-width: 0.8"/>
     </g>
     <g id="line2d_28">
      <g>
       <use xlink:href="#m9039fd47d0" x="39.35625" y="114.765178" style="stroke: #000000; stroke-width: 0.8"/>
      </g>
     </g>
     <g id="text_15">
      <!-- 12 -->
      <g transform="translate(22.35625 118.202678) scale(0.1 -0.1)">
       <use xlink:href="#SimHei-31"/>
       <use xlink:href="#SimHei-32" x="50"/>
      </g>
     </g>
    </g>
    <g id="text_16">
     <!-- 切深 ap (mm) -->
     <g transform="translate(16.85625 296.877694) rotate(-90) scale(0.12 -0.12)">
      <defs>
       <path id="SimHei-5207" d="M 4200 125 
Q 4875 125 5037 187 
Q 5200 250 5225 525 
L 5400 4175 
L 4250 4175 
Q 4275 2875 4075 1987 
Q 3875 1100 3500 575 
Q 3125 50 2425 -575 
Q 2275 -375 1900 -250 
Q 2550 200 2937 675 
Q 3325 1150 3550 1925 
Q 3775 2700 3750 4175 
Q 3200 4175 2700 4150 
L 2700 4600 
Q 3175 4575 3625 4575 
L 5900 4575 
Q 5875 4200 5850 3700 
L 5700 325 
Q 5625 -250 5312 -337 
Q 5000 -425 4450 -525 
Q 4400 -200 4200 125 
z
M 1175 4275 
Q 1175 4625 1150 5000 
L 1650 5000 
Q 1625 4625 1625 4300 
L 1625 3275 
Q 2150 3350 2700 3425 
Q 2725 3150 2750 2975 
Q 2325 2925 1625 2850 
L 1625 1050 
Q 2325 1475 2650 1750 
Q 2725 1550 2875 1300 
Q 2325 975 1225 200 
Q 1075 500 925 650 
Q 1175 850 1175 1125 
L 1175 2775 
Q 675 2725 325 2675 
Q 300 2975 275 3150 
Q 650 3175 1175 3225 
L 1175 4275 
z
" transform="scale(0.015625)"/>
       <path id="SimHei-6df1" d="M 3675 -625 
Q 3700 -175 3700 25 
L 3700 1675 
Q 3350 975 2925 475 
Q 2500 -25 2150 -325 
Q 2000 -150 1700 0 
Q 2150 275 2600 800 
Q 3050 1325 3225 1825 
Q 2600 1825 2125 1800 
L 2125 2250 
Q 2525 2225 3700 2225 
Q 3700 2675 3675 3050 
L 4200 3050 
Q 4175 2675 4175 2225 
Q 5400 2225 6000 2250 
L 6000 1800 
Q 5600 1825 4575 1825 
Q 4750 1325 5175 862 
Q 5600 400 6125 200 
Q 5825 75 5725 -200 
Q 5200 100 4800 562 
Q 4400 1025 4175 1750 
L 4175 25 
Q 4175 -125 4225 -625 
L 3675 -625 
z
M 5875 4850 
Q 5850 4600 5850 4300 
Q 5850 4025 5875 3725 
L 5375 3725 
L 5375 4450 
L 2550 4450 
L 2550 3650 
L 2075 3650 
Q 2100 4025 2100 4275 
Q 2100 4525 2075 4850 
L 5875 4850 
z
M 1850 1525 
Q 1625 1150 1362 487 
Q 1100 -175 975 -525 
Q 725 -350 375 -250 
Q 625 50 950 712 
Q 1275 1375 1450 1850 
Q 1625 1650 1850 1525 
z
M 4625 4075 
Q 5100 3650 5700 2975 
Q 5450 2825 5300 2625 
Q 4775 3350 4250 3775 
Q 4450 3925 4625 4075 
z
M 3700 3750 
Q 3500 3650 3200 3312 
Q 2900 2975 2500 2600 
Q 2325 2775 2050 2900 
Q 2425 3125 2775 3487 
Q 3125 3850 3250 4050 
Q 3425 3900 3700 3750 
z
M 550 3650 
Q 1125 3300 1600 2900 
Q 1450 2750 1300 2500 
Q 850 2975 275 3275 
Q 400 3450 550 3650 
z
M 1000 5150 
Q 1450 4850 1950 4400 
Q 1775 4250 1625 4025 
Q 1175 4525 675 4850 
Q 850 4950 1000 5150 
z
" transform="scale(0.015625)"/>
       <path id="SimHei-61" d="M 2875 125 
L 2275 125 
Q 2225 175 2200 262 
Q 2175 350 2175 475 
Q 2000 275 1750 175 
Q 1500 75 1225 75 
Q 825 75 550 275 
Q 275 475 275 850 
Q 275 1225 525 1450 
Q 775 1675 1300 1750 
Q 1650 1800 1912 1875 
Q 2175 1950 2175 2075 
Q 2175 2225 2062 2375 
Q 1950 2525 1575 2525 
Q 1275 2525 1137 2412 
Q 1000 2300 950 2100 
L 400 2100 
Q 450 2500 762 2737 
Q 1075 2975 1575 2975 
Q 2125 2975 2400 2725 
Q 2675 2475 2675 2025 
L 2675 650 
Q 2675 500 2725 375 
Q 2775 250 2875 125 
z
M 2175 1050 
L 2175 1550 
Q 2025 1500 1887 1462 
Q 1750 1425 1425 1375 
Q 1050 1325 937 1200 
Q 825 1075 825 900 
Q 825 750 937 637 
Q 1050 525 1275 525 
Q 1500 525 1762 650 
Q 2025 775 2175 1050 
z
" transform="scale(0.015625)"/>
       <path id="SimHei-70" d="M 2825 1525 
Q 2825 800 2475 425 
Q 2125 50 1625 50 
Q 1350 50 1150 162 
Q 950 275 800 500 
L 800 -800 
L 300 -800 
L 300 2925 
L 800 2925 
L 800 2550 
Q 950 2775 1150 2875 
Q 1350 2975 1625 2975 
Q 2125 2975 2475 2612 
Q 2825 2250 2825 1525 
z
M 2275 1525 
Q 2275 2000 2087 2262 
Q 1900 2525 1525 2525 
Q 1225 2525 1012 2262 
Q 800 2000 800 1525 
Q 800 1050 1012 775 
Q 1225 500 1525 500 
Q 1900 500 2087 775 
Q 2275 1050 2275 1525 
z
" transform="scale(0.015625)"/>
      </defs>
      <use xlink:href="#SimHei-5207"/>
      <use xlink:href="#SimHei-6df1" x="100"/>
      <use xlink:href="#SimHei-20" x="200"/>
      <use xlink:href="#SimHei-61" x="250"/>
      <use xlink:href="#SimHei-70" x="300"/>
      <use xlink:href="#SimHei-20" x="350"/>
      <use xlink:href="#SimHei-28" x="400"/>
      <use xlink:href="#SimHei-6d" x="450"/>
      <use xlink:href="#SimHei-6d" x="500"/>
      <use xlink:href="#SimHei-29" x="550"/>
     </g>
    </g>
   </g>
   <g id="line2d_29">
    <path d="M 75.265206 433.556122 
L 80.354536 433.556122 
L 80.439043 406.99021 
L 80.957151 406.99029 
L 99.64826 406.99021 
L 99.64826 433.556122 
L 100.515805 406.99021 
L 119.725021 406.99021 
L 119.725021 433.556122 
L 120.617875 406.99021 
L 139.827092 406.99021 
L 139.827092 433.556122 
L 140.790706 327.292474 
L 141.154967 327.292474 
L 141.154967 433.556122 
L 142.106417 406.99021 
L 142.171136 406.99021 
L 142.171136 327.292474 
L 142.308106 433.556122 
L 143.158333 327.292474 
L 143.214035 327.292474 
L 143.905135 433.556122 
L 143.968408 433.556122 
L 144.485212 433.556122 
L 144.485212 327.292474 
L 145.443078 327.292474 
L 145.606819 327.292474 
L 146.002746 433.556122 
L 146.066018 433.556122 
L 146.767275 433.556122 
L 146.767275 327.292474 
L 147.597116 433.556122 
L 148.210063 433.556122 
L 148.210063 327.292474 
L 149.168098 327.292474 
L 149.331865 327.292474 
L 149.727865 433.556122 
L 149.791137 433.556122 
L 150.569425 433.556122 
L 150.569425 327.292474 
L 151.465309 433.556122 
L 152.078215 433.556122 
L 152.078215 327.292474 
L 153.036172 327.292474 
L 153.199939 327.292474 
L 153.595881 433.556122 
L 153.659153 433.556122 
L 154.437411 433.556122 
L 154.437411 327.292474 
L 155.399335 406.99021 
L 155.703043 406.99021 
L 155.703043 433.556122 
L 156.558706 300.726562 
L 156.636932 300.726562 
L 156.867625 300.726562 
L 156.867625 433.556122 
L 157.779958 406.99021 
L 157.871161 406.99021 
L 157.871161 300.726562 
L 157.909124 433.556122 
L 158.862281 406.989944 
L 159.393109 406.989944 
L 159.393109 300.726562 
L 159.431072 433.556122 
L 160.386703 300.726562 
L 160.492483 300.726562 
L 161.447035 433.556122 
L 162.04034 433.556122 
L 162.04034 300.726562 
L 162.996604 300.726562 
L 163.062801 300.726562 
L 163.390515 433.556122 
L 164.044282 433.556122 
L 164.158173 433.556122 
L 164.158173 300.726562 
L 164.988134 433.556122 
L 165.868269 433.556122 
L 165.923449 300.726562 
L 166.838934 300.726562 
L 166.931214 300.726562 
L 166.931214 433.556122 
L 167.916741 433.556122 
L 168.396998 433.556122 
L 168.396998 300.726562 
L 168.958001 433.556122 
L 169.649657 433.556122 
L 169.649657 300.726562 
L 170.479563 433.556122 
L 171.41175 433.556122 
L 171.51015 300.726562 
L 172.379845 300.726562 
L 172.417809 300.726562 
L 172.417809 433.556122 
L 173.403849 433.556122 
L 173.884181 433.556122 
L 173.884181 300.726562 
L 174.445276 433.556122 
L 175.137034 433.556122 
L 175.137034 300.726562 
L 175.967095 433.556122 
L 176.899235 433.556122 
L 176.899235 300.726562 
L 177.864645 300.726562 
L 177.902609 300.726562 
L 177.902609 433.556122 
L 178.4162 433.556122 
L 179.417479 433.556122 
L 179.480752 406.989944 
L 180.024899 433.556122 
L 180.82588 433.556122 
L 180.82588 274.16065 
L 181.765053 380.424298 
L 181.840055 380.424298 
L 182.114902 433.556122 
L 182.076938 274.16065 
L 182.807524 433.556122 
L 182.845487 433.556122 
L 182.845487 274.16065 
L 183.602963 433.556122 
L 184.463835 433.556122 
L 185.310787 274.16065 
L 185.435414 433.556122 
L 186.069093 433.556122 
L 186.069093 274.16065 
L 187.008199 380.424298 
L 187.083179 380.424298 
L 187.358005 433.556122 
L 187.320042 274.16065 
L 188.050597 433.556122 
L 188.08856 433.556122 
L 188.08856 274.16065 
L 188.845973 433.556122 
L 189.707331 433.556122 
L 189.789598 274.16065 
L 190.67422 433.556122 
L 191.305647 433.556122 
L 191.305647 274.16065 
L 192.244622 380.424298 
L 192.319583 380.424298 
L 192.594375 433.556122 
L 192.556412 274.16065 
L 193.286882 433.556122 
L 193.324846 433.556122 
L 193.324846 274.16065 
L 194.082168 433.556122 
L 194.970763 433.556122 
L 195.021381 274.16065 
L 195.904807 433.556122 
L 196.536703 433.556122 
L 196.536703 274.16065 
L 197.475751 380.424298 
L 197.550733 380.424298 
L 197.825546 433.556122 
L 197.787582 274.16065 
L 198.518082 433.556122 
L 198.556046 433.556122 
L 198.556046 274.16065 
L 199.313429 433.556122 
L 200.203623 433.556122 
L 201.019091 274.16065 
L 201.14564 406.99021 
L 201.512623 406.989944 
L 201.512623 433.556122 
L 202.457812 433.556122 
L 202.597012 433.556122 
L 202.597012 247.594738 
L 203.566751 433.556122 
L 203.705951 433.556122 
L 203.705951 247.594738 
L 204.416946 433.556122 
L 205.21461 433.556122 
L 205.21461 247.594738 
L 206.168215 433.556122 
L 206.747154 433.556122 
L 206.747154 247.594738 
L 207.716242 433.556122 
L 207.855442 433.556122 
L 207.855442 247.594738 
L 208.566 433.556122 
L 209.363183 433.556122 
L 209.363183 247.594738 
L 210.316025 433.556122 
L 210.895577 433.556122 
L 210.895577 247.594738 
L 211.864409 433.556122 
L 212.003609 433.556122 
L 212.003609 247.594738 
L 212.71405 433.556122 
L 213.510956 433.556122 
L 213.510956 247.594738 
L 214.463596 433.556122 
L 215.042793 433.556122 
L 215.042793 247.594738 
L 216.012277 433.556122 
L 216.151477 433.556122 
L 216.151477 247.594738 
L 216.862357 433.556122 
L 217.659743 433.556122 
L 217.659743 247.594738 
L 218.637463 406.989944 
L 218.877899 406.99021 
L 218.877899 433.556122 
L 219.77214 327.292474 
L 219.853725 380.424298 
L 220.100815 380.424032 
L 220.100815 327.292474 
L 220.138778 433.556122 
L 221.066164 406.989944 
L 221.361271 406.99021 
L 221.361271 327.292474 
L 221.399235 433.556122 
L 222.354657 406.99021 
L 222.916444 406.99021 
L 223.002413 221.028826 
L 223.040376 433.556122 
L 223.894924 380.424298 
L 224.142008 380.424032 
L 224.142008 327.292474 
L 224.179972 433.556122 
L 225.107338 406.99021 
L 225.402451 406.99021 
L 225.402451 327.292474 
L 225.440415 433.556122 
L 226.395826 406.99021 
L 226.957606 406.99021 
L 227.04357 327.292474 
L 227.081534 433.556122 
L 227.936085 380.424298 
L 228.183172 380.424298 
L 228.183172 327.292208 
L 228.221136 433.556122 
L 229.148511 406.99021 
L 229.443618 406.99021 
L 229.443618 327.292474 
L 229.481582 433.556122 
L 230.427214 327.292474 
L 230.578357 327.292474 
L 231.26407 433.556122 
L 231.377961 433.556122 
L 232.037027 433.556122 
L 232.037027 327.292474 
L 232.949323 433.556122 
L 233.101177 433.556122 
L 233.101177 327.292474 
L 233.77802 433.556122 
L 234.609593 433.556122 
L 234.609593 327.292474 
L 235.575439 406.99021 
L 235.815875 406.99021 
L 235.815875 433.556122 
L 236.756259 194.462914 
L 236.836013 194.462914 
L 237.093774 433.556122 
L 237.783424 194.462914 
L 237.878497 194.462914 
L 238.306259 433.556122 
L 238.432805 433.556122 
L 239.22866 433.556122 
L 239.22866 194.462914 
L 240.187262 433.556122 
L 241.14749 433.556122 
L 241.14749 353.858386 
L 242.124429 353.858386 
L 242.232246 353.858386 
L 242.232246 433.556122 
L 242.914367 194.462914 
L 243.213928 194.462914 
L 243.251892 194.462914 
L 243.251892 433.556122 
L 244.213164 406.99021 
L 244.426187 406.99021 
L 244.426187 194.462914 
L 244.46415 433.556122 
L 245.38602 194.462914 
L 245.529181 194.462914 
L 246.218403 433.556122 
L 246.344948 433.556122 
L 247.438202 433.556122 
L 248.20612 353.858386 
L 248.362937 433.556122 
L 249.044856 433.556122 
L 249.044856 194.462914 
L 250.035868 433.556122 
L 250.073832 433.556122 
L 250.073832 194.462914 
L 250.724481 433.556122 
L 251.521632 433.556122 
L 251.521632 194.462914 
L 252.483065 433.556122 
L 253.582195 433.556122 
L 254.308284 353.858386 
L 254.513348 433.556122 
L 255.187739 433.556122 
L 255.187739 194.462914 
L 256.178595 433.556122 
L 256.216559 433.556122 
L 256.216559 194.462914 
L 256.867 433.556122 
L 257.664527 433.556122 
L 257.664527 194.462914 
L 258.625544 433.556122 
L 259.586165 433.556122 
L 259.586165 353.858386 
L 260.570667 406.99021 
L 270.212374 406.99021 
L 270.212374 433.556122 
L 270.470585 406.989944 
L 271.202233 406.989944 
L 271.645073 406.99021 
L 271.645073 433.556122 
L 271.756508 406.989944 
L 272.63935 406.99021 
L 272.730973 406.99021 
L 272.730973 433.556122 
L 273.714995 327.292474 
L 274.025383 327.292208 
L 274.025383 433.556122 
L 274.710119 300.726562 
L 275.012875 406.99021 
L 275.160109 406.99021 
L 275.198073 433.556122 
L 276.096278 167.897002 
L 276.22532 167.897002 
L 276.857114 433.556122 
L 276.996314 433.556122 
L 277.942015 433.556122 
L 277.942015 406.99021 
L 278.891079 406.99021 
L 278.946835 406.99021 
L 278.946835 300.726562 
L 278.984799 433.556122 
L 279.897504 327.292474 
L 279.975549 327.292474 
L 279.975549 300.726562 
L 280.013513 433.556122 
L 280.932287 406.99021 
L 281.149583 406.99021 
L 281.149583 167.897002 
L 281.187547 433.556122 
L 282.087145 167.897002 
L 282.216749 167.897002 
L 282.849655 433.556122 
L 282.988855 433.556122 
L 283.935277 433.556122 
L 283.935277 406.99021 
L 284.887482 406.99021 
L 284.981782 406.99021 
L 284.981782 433.556122 
L 285.707255 300.726562 
L 285.980356 300.726562 
L 286.01832 300.726562 
L 286.01832 433.556122 
L 286.966989 406.99021 
L 287.154458 406.99021 
L 287.192422 433.556122 
L 288.092157 167.897002 
L 288.22195 167.897002 
L 288.853688 433.556122 
L 288.992888 433.556122 
L 290.057979 433.556122 
L 290.057979 406.99021 
L 290.967586 433.556122 
L 291.693279 433.556122 
L 292.691202 167.897002 
L 292.782733 167.897002 
L 293.180148 433.556122 
L 293.319348 433.556122 
L 294.079341 433.556122 
L 294.079341 167.897002 
L 294.979601 433.556122 
L 295.97967 433.556122 
L 295.97967 406.99021 
L 296.949186 406.99021 
L 308.306957 406.990316 
L 308.306957 433.556122 
L 308.370233 406.99021 
L 309.302888 406.99021 
L 309.407872 406.990316 
L 309.407872 433.556122 
L 310.40096 380.424298 
L 310.480099 380.424298 
L 310.717729 433.556122 
L 311.412479 274.16065 
L 311.501775 274.16065 
L 311.869187 433.556122 
L 312.021042 433.556122 
L 312.752909 433.556122 
L 312.752909 141.33109 
L 313.610416 433.556122 
L 314.547542 433.556122 
L 314.590522 380.424298 
L 315.537251 406.99021 
L 315.575215 406.99021 
L 315.575215 433.556122 
L 316.324719 380.424298 
L 316.522145 406.99021 
L 316.600834 406.99021 
L 317.330982 141.33109 
L 316.638797 433.556122 
L 317.598611 406.99021 
L 317.747212 406.99021 
L 317.785176 433.556122 
L 318.668617 141.33109 
L 318.790544 141.33109 
L 319.377085 433.556122 
L 319.52894 433.556122 
L 320.467631 433.556122 
L 320.510435 380.424298 
L 321.460091 406.99021 
L 321.498054 406.99021 
L 321.498054 433.556122 
L 322.246543 380.424298 
L 322.44486 406.989944 
L 322.523539 406.989944 
L 323.254037 141.33109 
L 322.561503 433.556122 
L 323.521792 406.99021 
L 323.670306 406.99021 
L 323.708269 433.556122 
L 324.591079 141.33109 
L 324.712211 141.33109 
L 325.296256 433.556122 
L 325.448111 433.556122 
L 326.425721 433.556122 
L 326.425721 380.424298 
L 327.413338 433.556122 
L 328.161041 433.556122 
L 328.161041 380.424298 
L 329.133991 433.556122 
L 329.171955 433.556122 
L 329.171955 141.33109 
L 329.780323 433.556122 
L 330.511684 433.556122 
L 330.511684 141.33109 
L 331.369143 433.556122 
L 332.348938 433.556122 
L 332.399556 380.424298 
L 333.318559 406.99021 
L 343.429749 406.990316 
L 343.429749 433.556122 
L 343.49303 406.99021 
L 344.427443 406.99021 
L 344.991993 406.990316 
L 344.991993 433.556122 
L 345.055271 406.99021 
L 345.985018 406.99021 
L 346.156688 406.99021 
L 346.156688 433.556122 
L 346.397132 433.556122 
L 347.439645 433.556122 
L 347.823793 167.897002 
L 348.026266 433.556122 
L 348.731209 433.556122 
L 348.731209 114.765178 
L 349.552217 433.556122 
L 350.48449 433.556122 
L 351.408075 167.897002 
L 351.446039 433.556122 
L 352.165698 433.556122 
L 352.165698 114.765178 
L 352.752612 433.556122 
L 353.459628 433.556122 
L 353.459628 114.765178 
L 354.280483 433.556122 
L 355.209338 433.556122 
L 356.128328 167.897002 
L 356.166291 433.556122 
L 356.885607 433.556122 
L 356.885607 114.765178 
L 357.475741 433.556122 
L 358.181826 433.556122 
L 358.181826 114.765178 
L 359.00368 433.556122 
L 359.935035 433.556122 
L 360.85426 167.897002 
L 360.892224 433.556122 
L 361.611576 433.556122 
L 361.997863 274.160384 
L 362.200335 433.556122 
L 362.906174 433.556122 
L 362.906174 114.765178 
L 363.726966 433.556122 
L 364.658903 433.556122 
L 364.741635 353.858386 
L 365.649943 406.99021 
L 378.869287 406.99021 
L 378.869287 433.556122 
L 379.83009 274.16065 
L 379.915902 274.16065 
L 380.22262 433.556122 
L 380.867066 433.556122 
L 381.082193 433.556122 
L 381.082193 274.16065 
L 381.869366 433.556122 
L 382.747093 433.556122 
L 382.747093 88.199266 
L 383.620035 433.556122 
L 384.444368 433.556122 
L 384.444368 274.16065 
L 385.015512 433.556122 
L 385.699222 433.556122 
L 385.699222 88.199266 
L 386.487696 433.556122 
L 387.367835 433.556122 
L 387.367835 88.199266 
L 388.236591 433.556122 
L 389.067299 433.556122 
L 389.067299 274.16065 
L 389.637503 433.556122 
L 390.320064 433.556122 
L 390.320064 274.16065 
L 391.107525 433.556122 
L 391.985794 433.556122 
L 391.985794 327.292474 
L 392.855776 433.556122 
L 393.685211 433.556122 
L 394.040264 274.160384 
L 394.255391 433.556122 
L 394.937998 433.556122 
L 394.937998 274.16065 
L 395.725466 433.556122 
L 396.603215 433.556122 
L 396.603215 327.292474 
L 397.559197 406.99021 
L 411.044769 406.99021 
L 411.044769 433.556122 
L 411.949616 88.199266 
L 412.05882 88.199266 
L 412.442327 433.556122 
L 412.989931 353.858386 
L 413.097441 353.858386 
L 413.450781 433.556122 
L 413.998383 88.199266 
L 414.107148 88.199266 
L 414.485368 433.556122 
L 415.037282 353.858386 
L 415.145097 353.858386 
L 415.496422 433.556122 
L 416.048329 88.199266 
L 416.156211 88.199266 
L 416.537637 433.556122 
L 417.085394 353.858386 
L 417.19274 353.858386 
L 417.546172 433.556122 
L 418.09325 88.199266 
L 418.202133 88.199266 
L 418.584288 433.556122 
L 419.1304 353.858386 
L 419.239693 353.858386 
L 419.239693 406.99021 
L 420.21707 406.99021 
L 427.722202 406.990316 
L 427.722202 433.556122 
L 427.785475 406.99021 
L 428.713169 406.99021 
L 429.668682 406.99021 
L 429.668682 433.556122 
L 430.655039 406.99021 
L 431.286648 406.99021 
L 431.286648 433.556122 
L 432.27567 406.99021 
L 432.951027 406.99021 
L 432.951027 433.556122 
L 433.94876 406.99021 
L 434.675178 406.99021 
L 434.675178 433.556122 
L 435.670072 433.556122 
L 435.678582 433.556122 
L 436.556464 167.897002 
L 436.651897 274.16065 
L 436.684703 274.16065 
L 436.918513 433.556122 
L 436.880549 247.594738 
L 437.603177 247.594738 
L 437.696478 247.594738 
L 437.97761 433.556122 
L 438.665929 88.199266 
L 438.760596 88.199266 
L 439.029373 433.556122 
L 439.714772 247.594738 
L 439.807734 247.594738 
L 440.089699 433.556122 
L 440.776582 247.594738 
L 440.871489 247.594738 
L 441.142603 433.556122 
L 441.10464 167.897002 
L 441.827827 247.594738 
L 441.919683 247.594738 
L 442.201597 433.556122 
L 442.888473 247.594738 
L 442.984044 247.594738 
L 443.252483 433.556122 
L 443.214519 167.897002 
L 443.937381 247.594738 
L 444.029673 247.594738 
L 444.525921 406.990316 
L 445.002382 380.424298 
L 445.059095 380.424298 
L 445.223503 406.990316 
L 446.050883 380.424298 
L 446.136668 380.424298 
L 446.609816 406.990316 
L 447.124668 380.424298 
L 447.20976 380.424298 
L 447.35126 406.990316 
L 448.193719 380.424298 
L 448.285922 380.424298 
L 448.285922 406.990316 
L 449.267449 406.99021 
L 454.809685 406.99021 
L 454.809685 433.556122 
L 455.806992 406.990316 
L 456.591423 406.990316 
L 456.591423 433.556122 
L 456.714556 406.99021 
L 457.591191 406.990316 
L 458.376453 406.990316 
L 458.376453 433.556122 
L 458.386313 406.99021 
L 459.36072 406.99021 
L 460.120513 406.990423 
L 460.120513 433.556122 
L 460.153854 406.99021 
L 461.119804 406.990316 
L 461.301204 406.990316 
L 461.301204 433.556122 
L 462.230624 167.897002 
L 462.268167 167.897002 
L 462.466689 167.897002 
L 462.466689 433.556122 
L 463.458239 406.99021 
L 463.706544 406.99021 
L 463.822254 247.594738 
L 463.860218 433.556122 
L 464.075345 433.556122 
L 465.102986 433.556122 
L 465.102986 88.199266 
L 466.097576 406.99021 
L 466.574656 406.99021 
L 466.662978 221.028826 
L 466.700942 433.556122 
L 466.916069 433.556122 
L 468.026235 433.556122 
L 468.112042 167.897002 
L 468.944995 433.556122 
L 469.198086 433.556122 
L 469.198086 247.594738 
L 469.96046 433.556122 
L 471.439616 433.556122 
L 471.525483 167.897002 
L 472.360447 433.556122 
L 472.613538 433.556122 
L 472.613538 88.199266 
L 473.37765 433.556122 
L 474.856953 433.556122 
L 474.942827 167.897002 
L 475.777764 433.556122 
L 476.030855 433.556122 
L 476.030855 247.594738 
L 476.857432 433.556122 
L 477.110522 433.556122 
L 477.110522 88.199266 
L 477.968764 433.556122 
L 478.76865 433.556122 
L 478.76865 88.199266 
L 479.62757 433.556122 
L 481.100562 433.556122 
L 481.100562 221.028826 
L 482.078865 406.99021 
L 489.765924 406.99021 
L 489.765924 433.556122 
L 490.761665 406.99021 
L 493.664333 406.99021 
L 493.664333 433.556122 
L 493.968044 433.556122 
L 495.053966 433.556122 
L 495.139346 247.594738 
L 496.01659 433.556122 
L 496.282335 433.556122 
L 496.282335 194.462914 
L 497.242408 433.556122 
L 497.508153 433.556122 
L 497.508153 88.199266 
L 498.488498 433.556122 
L 498.526461 433.556122 
L 499.13018 194.462914 
L 499.395925 433.556122 
L 499.812677 433.556122 
L 499.898291 167.897002 
L 500.776172 433.556122 
L 501.041917 433.556122 
L 501.041917 194.462914 
L 501.849668 433.556122 
L 502.772679 433.556122 
L 502.858403 167.897002 
L 503.736546 433.556122 
L 504.002291 433.556122 
L 504.002291 88.199266 
L 504.963494 433.556122 
L 505.229239 433.556122 
L 505.229239 88.199266 
L 506.215211 433.556122 
L 506.253175 433.556122 
L 506.253175 88.199266 
L 507.128431 433.556122 
L 507.542385 433.556122 
L 507.628076 274.16065 
L 508.505804 433.556122 
L 508.77155 433.556122 
L 508.77155 194.462914 
L 509.732881 433.556122 
L 509.998626 433.556122 
L 509.998626 380.424298 
L 510.983987 433.556122 
L 511.021951 433.556122 
L 511.021951 221.028826 
L 511.894283 433.556122 
L 513.379929 433.556122 
L 513.379929 88.199266 
L 514.365187 406.99021 
L 525.910497 406.99021 
L 525.910497 433.556122 
L 526.226855 433.556122 
L 527.524891 433.556122 
L 528.018731 300.726562 
L 528.391191 433.556122 
L 528.669591 433.556122 
L 528.669591 221.028826 
L 529.493836 433.556122 
L 529.772236 433.556122 
L 529.772236 88.199266 
L 530.638731 433.556122 
L 530.917131 433.556122 
L 530.917131 88.199266 
L 531.741224 433.556122 
L 532.019624 433.556122 
L 532.019624 88.199266 
L 532.885564 433.556122 
L 533.163964 433.556122 
L 533.163964 221.028826 
L 533.990125 433.556122 
L 534.268525 433.556122 
L 534.760941 300.726562 
L 535.134061 433.556122 
L 535.412461 433.556122 
L 535.412461 327.292474 
L 536.405126 406.99021 
L 544.115622 406.99021 
L 544.115622 433.556122 
L 544.674229 406.989944 
L 545.109341 406.99021 
L 547.843364 406.99021 
L 547.843364 433.556122 
L 548.722476 221.028826 
L 548.825346 327.292474 
L 548.859725 327.292474 
L 549.174806 433.556122 
L 549.136843 167.897002 
L 549.847727 433.556122 
L 549.885691 433.556122 
L 549.885691 247.594738 
L 550.737821 433.556122 
L 551.028875 433.556122 
L 551.028875 88.199266 
L 551.900044 433.556122 
L 552.191098 433.556122 
L 552.191098 247.594738 
L 553.043961 433.556122 
L 553.335015 433.556122 
L 553.335015 88.199266 
L 554.207511 433.556122 
L 554.498566 433.556122 
L 554.498566 247.594738 
L 555.35116 433.556122 
L 555.642215 433.556122 
L 555.642215 221.028826 
L 556.510438 433.556122 
L 556.801493 433.556122 
L 556.801493 247.594738 
L 557.781622 406.99021 
L 557.893732 406.99021 
L 557.893732 380.424298 
L 558.877862 406.99021 
L 558.953556 406.989944 
L 558.953556 380.424298 
L 559.00402 406.99021 
L 559.945971 406.99021 
L 560.024332 406.99021 
L 560.024332 380.424298 
L 561.001795 406.99021 
L 561.086053 406.99021 
L 561.086053 380.424298 
L 562.072588 406.99021 
L 569.275815 406.990316 
L 569.275815 433.556122 
L 570.201755 194.462914 
L 570.297068 194.462914 
L 570.578375 433.556122 
L 571.076573 433.556122 
L 571.380282 433.556122 
L 571.725081 247.594738 
L 572.261495 433.556122 
L 572.565204 433.556122 
L 572.565204 194.462914 
L 573.438779 433.556122 
L 573.742488 433.556122 
L 573.742488 247.594738 
L 574.618859 433.556122 
L 574.922568 433.556122 
L 574.922568 88.199266 
L 575.801527 433.556122 
L 576.105236 433.556122 
L 576.105236 247.594738 
L 576.985187 433.556122 
L 577.288896 433.556122 
L 577.288896 194.462914 
L 578.164632 433.556122 
L 578.468341 433.556122 
L 578.468341 247.594738 
L 579.462416 406.99021 
L 579.515808 406.99021 
L 579.515808 380.424298 
L 580.511429 406.99021 
L 580.574975 406.99021 
L 580.574975 380.424298 
L 581.558277 406.99021 
L 581.638927 406.99021 
L 581.638927 380.424298 
L 582.615481 406.99021 
L 582.724251 406.99021 
L 582.724251 380.424298 
L 583.057688 433.556122 
L 583.692488 406.99021 
L 587.22639 406.99021 
L 587.22639 433.556122 
L 588.214656 406.99021 
L 591.021597 406.99021 
L 591.021597 433.556122 
L 591.937673 114.765178 
L 592.025631 114.765178 
L 592.278895 433.556122 
L 592.967822 433.556122 
L 593.284186 433.556122 
L 593.846646 300.726562 
L 594.163009 433.556122 
L 594.630196 433.556122 
L 594.630196 141.33109 
L 595.594413 433.556122 
L 595.632377 433.556122 
L 595.892877 167.897002 
L 596.565764 433.556122 
L 596.882127 433.556122 
L 596.882127 327.292474 
L 597.866927 433.556122 
L 598.33059 433.556122 
L 598.33059 114.765178 
L 598.951312 433.556122 
L 599.678115 433.556122 
L 599.678115 327.292474 
L 600.553491 433.556122 
L 601.020212 433.556122 
L 601.020212 88.199266 
L 601.941356 433.556122 
L 602.25772 433.556122 
L 602.25772 327.292474 
L 603.236454 433.556122 
L 603.702835 433.556122 
L 603.702835 114.765178 
L 604.321952 433.556122 
L 605.046161 433.556122 
L 605.046161 88.199266 
L 605.922123 433.556122 
L 606.38795 433.556122 
L 606.38795 88.199266 
L 607.351774 433.556122 
L 607.389738 433.556122 
L 607.641876 167.897002 
L 608.306884 433.556122 
L 608.623247 433.556122 
L 608.623247 327.292474 
L 609.60706 433.556122 
L 610.072753 433.556122 
L 610.072753 114.765178 
L 610.692311 433.556122 
L 611.417238 433.556122 
L 611.417238 327.292474 
L 612.290747 433.556122 
L 612.757847 433.556122 
L 612.757847 141.33109 
L 613.727202 433.556122 
L 613.765166 433.556122 
L 614.027599 167.897002 
L 614.699464 433.556122 
L 615.015827 433.556122 
L 615.015827 327.292474 
L 616.013698 406.99021 
L 623.671077 406.99021 
L 623.671077 433.556122 
L 623.847109 300.726562 
L 624.163473 433.556122 
L 625.127299 433.556122 
L 625.127299 380.424298 
L 625.839934 433.556122 
L 626.168952 433.556122 
L 626.436401 380.424298 
L 627.079366 433.556122 
L 627.408384 433.556122 
L 627.408384 221.028826 
L 628.291136 433.556122 
L 628.81051 433.556122 
L 629.118775 247.594738 
L 629.447793 433.556122 
L 630.14875 433.556122 
L 630.14875 221.028826 
L 631.142408 433.556122 
L 631.471426 433.556122 
L 631.74085 167.897002 
L 632.369405 433.556122 
L 632.698423 433.556122 
L 632.698423 221.028826 
L 633.581777 433.556122 
L 634.100567 433.556122 
L 634.100567 247.594738 
L 634.738028 433.556122 
L 635.438795 433.556122 
L 635.438795 221.028826 
L 636.431966 433.556122 
L 636.760984 433.556122 
L 636.760984 114.765178 
L 637.473824 433.556122 
L 637.802842 433.556122 
L 638.063009 167.897002 
L 638.697683 433.556122 
L 639.026701 433.556122 
L 639.026701 221.028826 
L 639.909757 433.556122 
L 640.428768 433.556122 
L 640.428768 247.594738 
L 641.067014 433.556122 
L 641.768648 433.556122 
L 641.768648 221.028826 
L 642.762999 433.556122 
L 643.092017 433.556122 
L 643.092017 380.424298 
L 644.091495 433.556122 
L 644.129459 433.556122 
L 644.394342 247.594738 
L 645.03582 433.556122 
L 645.364838 433.556122 
L 645.364838 221.028826 
L 646.248217 433.556122 
L 646.76713 433.556122 
L 647.075409 167.897002 
L 647.404427 433.556122 
L 648.105175 433.556122 
L 648.105175 221.028826 
L 649.083098 406.990316 
L 656.666647 406.99021 
L 656.666647 433.556122 
L 656.840073 167.897002 
L 657.603348 247.594738 
L 657.730354 247.594738 
L 658.199272 433.556122 
L 658.161308 167.897002 
L 658.538297 433.556122 
L 658.87997 433.556122 
L 658.87997 247.594738 
L 659.755107 433.556122 
L 660.09678 433.556122 
L 660.09678 247.594738 
L 661.029205 433.556122 
L 661.370878 433.556122 
L 661.370878 247.594738 
L 662.247389 433.556122 
L 662.589062 433.556122 
L 662.589062 88.199266 
L 663.523041 433.556122 
L 663.864714 433.556122 
L 663.864714 247.594738 
L 664.742677 433.556122 
L 665.084349 433.556122 
L 665.084349 247.594738 
L 666.017471 433.556122 
L 666.359144 433.556122 
L 666.359144 247.594738 
L 667.353083 406.99021 
L 674.98067 406.990316 
L 674.98067 433.556122 
L 675.151549 167.897002 
L 675.974278 433.556122 
L 676.012242 433.556122 
L 676.012242 167.897002 
L 676.948777 433.556122 
L 677.303104 433.556122 
L 677.730639 167.897002 
L 678.210035 433.556122 
L 678.564362 433.556122 
L 678.564362 167.897002 
L 679.499978 433.556122 
L 679.854305 433.556122 
L 679.854305 167.897002 
L 680.761982 433.556122 
L 681.116309 433.556122 
L 681.116309 167.897002 
L 682.051522 433.556122 
L 682.40585 433.556122 
L 682.40585 167.897002 
L 683.313301 433.556122 
L 683.667628 433.556122 
L 683.667628 167.897002 
L 684.603783 433.556122 
L 684.95811 433.556122 
L 684.95811 300.726562 
L 685.943218 406.989944 
L 693.669735 406.99021 
L 693.669735 433.556122 
L 693.787779 167.897002 
L 694.37204 433.556122 
L 694.739022 433.556122 
L 694.739022 88.199266 
L 695.680531 433.556122 
L 696.047512 433.556122 
L 696.40676 167.897002 
L 696.985435 433.556122 
L 697.352417 433.556122 
L 697.352417 88.199266 
L 698.292341 433.556122 
L 698.659323 433.556122 
L 698.659323 114.765178 
L 699.598243 433.556122 
L 699.965225 433.556122 
L 699.965225 88.199266 
L 700.905146 433.556122 
L 701.272128 433.556122 
L 701.272128 114.765178 
L 702.209542 433.556122 
L 702.576524 433.556122 
L 702.940353 167.897002 
L 703.515138 433.556122 
L 703.88212 433.556122 
L 703.88212 274.16065 
L 704.854926 406.99021 
L 704.938674 406.99021 
L 705.426266 380.424032 
L 705.921709 406.99021 
L 706.005408 406.99021 
L 706.005408 380.424298 
L 706.998436 406.99021 
L 707.07989 406.99021 
L 707.07989 380.424032 
L 708.067329 406.99021 
L 708.149805 406.99021 
L 708.149805 380.424298 
L 708.472607 406.990263 
L 709.133768 406.99021 
L 712.644425 406.99021 
L 712.644425 433.556122 
L 712.760283 221.028826 
L 713.415729 433.556122 
L 713.795365 433.556122 
L 713.913011 194.462649 
L 714.468209 433.556122 
L 715.267553 433.556122 
L 715.867021 300.726562 
L 716.246657 433.556122 
L 716.76108 433.556122 
L 716.76108 327.292474 
L 717.492742 433.556122 
L 717.872378 433.556122 
L 717.872378 88.199266 
L 718.86399 433.556122 
L 719.243627 433.556122 
L 719.243627 167.897002 
L 719.977249 433.556122 
L 720.84044 433.556122 
L 720.84044 194.462914 
L 721.513032 433.556122 
L 722.311858 433.556122 
L 722.913444 300.726562 
L 723.29308 433.556122 
L 723.805054 433.556122 
L 723.805054 88.199266 
L 724.732973 433.556122 
L 725.112609 433.556122 
L 725.112609 300.726562 
L 725.848884 433.556122 
L 726.711635 433.556122 
L 726.858068 167.897002 
L 727.38456 433.556122 
L 728.186095 433.556122 
L 728.186095 353.858386 
L 729.170828 433.556122 
L 729.689272 433.556122 
L 729.689272 327.292474 
L 730.40726 433.556122 
L 730.786896 433.556122 
L 730.786896 88.199266 
L 731.769751 433.556122 
L 732.149387 433.556122 
L 732.852784 300.726562 
L 732.890747 433.556122 
L 733.749031 433.556122 
L 733.749031 194.462914 
L 734.427821 433.556122 
L 735.234186 433.556122 
L 735.849616 327.292474 
L 736.229252 433.556122 
L 736.736389 433.556122 
L 736.736389 327.292474 
L 737.467176 433.556122 
L 737.846813 433.556122 
L 737.846813 88.199266 
L 738.838849 433.556122 
L 739.218485 433.556122 
L 739.218485 353.858386 
L 740.202013 406.99021 
L 744.123611 406.99021 
L 744.123611 327.292474 
L 744.161575 433.556122 
L 745.088276 433.556122 
L 745.480567 433.556122 
L 745.480567 221.028826 
L 746.384385 433.556122 
L 746.921816 433.556122 
L 746.921816 221.028826 
L 747.89258 433.556122 
L 748.284871 433.556122 
L 748.796744 167.897002 
L 749.189035 433.556122 
L 749.726299 433.556122 
L 749.726299 221.028826 
L 750.697556 433.556122 
L 751.089847 433.556122 
L 751.089847 221.028826 
L 751.99605 433.556122 
L 752.526045 433.556122 
L 752.526045 221.028826 
L 753.505419 433.556122 
L 753.89771 433.556122 
L 753.89771 221.028826 
L 754.802372 433.556122 
L 755.33158 433.556122 
L 755.33158 221.028826 
L 756.312792 406.99021 
L 760.05479 406.990263 
L 760.05479 353.858386 
L 760.092754 433.556122 
L 761.036164 433.556122 
L 761.074128 433.556122 
L 761.074128 194.462914 
L 762.045556 433.556122 
L 762.450501 433.556122 
L 762.840947 194.462914 
L 763.427182 433.556122 
L 763.832127 433.556122 
L 763.832127 194.462914 
L 764.818682 433.556122 
L 765.223628 433.556122 
L 765.223628 194.462914 
L 766.192365 433.556122 
L 766.597311 433.556122 
L 766.597311 194.462914 
L 767.575427 433.556122 
L 767.980372 433.556122 
L 767.980372 194.462914 
L 768.950801 433.556122 
L 769.355747 433.556122 
L 769.355747 194.462914 
L 770.329909 433.556122 
L 770.734855 433.556122 
L 770.734855 194.462914 
L 771.719137 406.99021 
L 771.832555 406.99021 
L 771.832555 380.424298 
L 772.027001 406.990263 
L 772.83072 406.99021 
L 772.88477 406.99021 
L 772.88477 380.424298 
L 773.87387 406.99021 
L 773.940692 406.99021 
L 773.940692 380.424298 
L 774.138279 406.990263 
L 774.931222 406.99021 
L 775.048998 406.99021 
L 775.456219 167.897002 
L 775.336285 433.556122 
L 775.861164 433.556122 
L 777.431735 433.556122 
L 777.431735 88.199266 
L 778.302349 353.858386 
L 778.477669 353.858386 
L 778.616087 433.556122 
L 778.578123 167.897002 
L 778.995723 433.556122 
L 780.65115 433.556122 
L 780.65115 88.199266 
L 781.476264 433.556122 
L 782.810222 433.556122 
L 782.810222 141.33109 
L 783.797002 433.556122 
L 785.813942 433.556122 
L 785.813942 88.199266 
L 786.644637 433.556122 
L 787.547485 433.556122 
L 787.963782 167.897002 
L 788.381382 433.556122 
L 789.65446 433.556122 
L 789.65446 88.199266 
L 790.279588 433.556122 
L 792.265067 433.556122 
L 792.265067 88.199266 
L 793.12772 353.858386 
L 793.305902 353.858386 
L 793.444323 433.556122 
L 793.406359 167.897002 
L 793.444323 433.556122 
" clip-path="url(#p029e1c81a7)" style="fill: none; stroke: #000000; stroke-width: 0.5; stroke-linecap: square"/>
   </g>
   <g id="patch_3">
    <path d="M 39.35625 450.823965 
L 39.35625 70.931424 
" style="fill: none; stroke: #000000; stroke-width: 0.8; stroke-linejoin: miter; stroke-linecap: square"/>
   </g>
   <g id="patch_4">
    <path d="M 829.353278 450.823965 
L 829.353278 70.931424 
" style="fill: none; stroke: #000000; stroke-width: 0.8; stroke-linejoin: miter; stroke-linecap: square"/>
   </g>
   <g id="patch_5">
    <path d="M 39.35625 450.823965 
L 829.353278 450.823965 
" style="fill: none; stroke: #000000; stroke-width: 0.8; stroke-linejoin: miter; stroke-linecap: square"/>
   </g>
   <g id="patch_6">
    <path d="M 39.35625 70.931424 
L 829.353278 70.931424 
" style="fill: none; stroke: #000000; stroke-width: 0.8; stroke-linejoin: miter; stroke-linecap: square"/>
   </g>
   <g id="text_17">
    <!-- 切深变化 -->
    <g transform="translate(406.354764 18.465625) scale(0.14 -0.14)">
     <defs>
      <path id="SimHei-53d8" d="M 5200 1975 
Q 4950 1600 4537 1137 
Q 4125 675 3675 375 
Q 3925 225 4600 87 
Q 5275 -50 6000 -75 
Q 5700 -400 5650 -625 
Q 4850 -525 4212 -312 
Q 3575 -100 3225 125 
Q 2800 -125 2150 -325 
Q 1500 -525 700 -675 
Q 600 -425 400 -175 
Q 950 -150 1687 12 
Q 2425 175 2825 375 
Q 2275 775 1675 1575 
Q 1350 1575 1000 1550 
L 1000 2000 
Q 1450 1975 2075 1975 
L 5200 1975 
z
M 3225 5275 
Q 3400 4900 3550 4475 
L 4675 4475 
Q 5400 4475 5975 4500 
L 5975 4025 
Q 5375 4050 4725 4050 
L 4125 4050 
L 4125 2950 
Q 4125 2550 4150 2150 
L 3600 2150 
Q 3625 2550 3625 2950 
L 3625 4050 
L 2750 4050 
L 2750 2950 
Q 2750 2675 2775 2150 
L 2225 2150 
Q 2250 2675 2250 2950 
L 2250 4050 
L 1700 4050 
Q 975 4050 425 4025 
L 425 4500 
Q 950 4475 1700 4475 
L 2975 4475 
Q 2925 4675 2700 5125 
Q 2950 5150 3225 5275 
z
M 2200 1575 
Q 2650 975 3250 600 
Q 3850 1000 4275 1575 
L 2200 1575 
z
M 4850 3750 
Q 5375 3275 5950 2675 
Q 5750 2525 5500 2300 
Q 5075 2800 4450 3400 
Q 4675 3575 4850 3750 
z
M 1825 3500 
Q 1700 3375 1425 3025 
Q 1150 2675 825 2300 
Q 575 2475 375 2600 
Q 975 3150 1300 3825 
Q 1525 3650 1825 3500 
z
" transform="scale(0.015625)"/>
      <path id="SimHei-5316" d="M 3925 5025 
Q 3900 4900 3900 4400 
L 3900 2625 
Q 4375 3025 4775 3450 
Q 5175 3875 5400 4300 
Q 5600 4100 5900 3925 
Q 5700 3700 5225 3212 
Q 4750 2725 4487 2512 
Q 4225 2300 3900 2025 
L 3900 450 
Q 3900 50 4225 50 
L 5200 50 
Q 5400 75 5462 262 
Q 5525 450 5575 850 
Q 5800 650 6150 600 
Q 6000 -100 5825 -250 
Q 5650 -400 5350 -400 
L 3950 -400 
Q 3425 -400 3400 200 
L 3400 1675 
Q 3225 1525 2962 1350 
Q 2700 1175 2375 975 
Q 2225 1225 2025 1400 
Q 2350 1550 2737 1787 
Q 3125 2025 3400 2250 
L 3400 4500 
Q 3400 4800 3375 5025 
L 3925 5025 
z
M 2400 4850 
Q 2175 4550 2075 4337 
Q 1975 4125 1825 3775 
L 1825 675 
Q 1825 -75 1850 -550 
L 1325 -550 
Q 1350 -125 1350 650 
L 1350 3050 
Q 1125 2725 962 2525 
Q 800 2325 675 2175 
Q 500 2375 275 2525 
Q 625 2850 875 3212 
Q 1125 3575 1312 3912 
Q 1500 4250 1625 4575 
Q 1750 4900 1825 5100 
Q 1975 4975 2400 4850 
z
" transform="scale(0.015625)"/>
     </defs>
     <use xlink:href="#SimHei-5207"/>
     <use xlink:href="#SimHei-6df1" x="100"/>
     <use xlink:href="#SimHei-53d8" x="200"/>
     <use xlink:href="#SimHei-5316" x="300"/>
    </g>
   </g>
  </g>
  <g id="axes_2">
   <g id="matplotlib.axis_3">
    <g id="xtick_8">
     <g id="line2d_30">
      <defs>
       <path id="m3b9b8d8680" d="M 0 0 
L 0 -3.5 
" style="stroke: #000000; stroke-width: 0.8"/>
      </defs>
      <g>
       <use xlink:href="#m3b9b8d8680" x="75.265206" y="70.931424" style="stroke: #000000; stroke-width: 0.8"/>
      </g>
     </g>
     <g id="text_18">
      <!-- N0020 -->
      <g transform="translate(79.154293 63.224317) rotate(-45) scale(0.08 -0.08)">
       <defs>
        <path id="SimHei-4e" d="M 2850 125 
L 2225 125 
L 850 3225 
L 825 3225 
L 825 125 
L 250 125 
L 250 4400 
L 875 4400 
L 2250 1300 
L 2275 1300 
L 2275 4400 
L 2850 4400 
L 2850 125 
z
" transform="scale(0.015625)"/>
       </defs>
       <use xlink:href="#SimHei-4e"/>
       <use xlink:href="#SimHei-30" x="50"/>
       <use xlink:href="#SimHei-30" x="100"/>
       <use xlink:href="#SimHei-32" x="150"/>
       <use xlink:href="#SimHei-30" x="200"/>
      </g>
     </g>
    </g>
    <g id="xtick_9">
     <g id="line2d_31">
      <g>
       <use xlink:href="#m3b9b8d8680" x="213.917658" y="70.931424" style="stroke: #000000; stroke-width: 0.8"/>
      </g>
     </g>
     <g id="text_19">
      <!-- N7030.6 -->
      <g transform="translate(217.806745 63.224317) rotate(-45) scale(0.08 -0.08)">
       <defs>
        <path id="SimHei-37" d="M 850 150 
Q 1300 2050 2425 3925 
L 275 3925 
L 275 4375 
L 2950 4375 
L 2950 3950 
Q 1775 2050 1400 150 
L 850 150 
z
" transform="scale(0.015625)"/>
        <path id="SimHei-2e" d="M 1075 125 
L 500 125 
L 500 675 
L 1075 675 
L 1075 125 
z
" transform="scale(0.015625)"/>
       </defs>
       <use xlink:href="#SimHei-4e"/>
       <use xlink:href="#SimHei-37" x="50"/>
       <use xlink:href="#SimHei-30" x="100"/>
       <use xlink:href="#SimHei-33" x="150"/>
       <use xlink:href="#SimHei-30" x="200"/>
       <use xlink:href="#SimHei-2e" x="250"/>
       <use xlink:href="#SimHei-36" x="300"/>
      </g>
     </g>
    </g>
    <g id="xtick_10">
     <g id="line2d_32">
      <g>
       <use xlink:href="#m3b9b8d8680" x="299.229954" y="70.931424" style="stroke: #000000; stroke-width: 0.8"/>
      </g>
     </g>
     <g id="text_20">
      <!-- N1740.1 -->
      <g transform="translate(303.119041 63.224317) rotate(-45) scale(0.08 -0.08)">
       <use xlink:href="#SimHei-4e"/>
       <use xlink:href="#SimHei-31" x="50"/>
       <use xlink:href="#SimHei-37" x="100"/>
       <use xlink:href="#SimHei-34" x="150"/>
       <use xlink:href="#SimHei-30" x="200"/>
       <use xlink:href="#SimHei-2e" x="250"/>
       <use xlink:href="#SimHei-31" x="300"/>
      </g>
     </g>
    </g>
    <g id="xtick_11">
     <g id="line2d_33">
      <g>
       <use xlink:href="#m3b9b8d8680" x="365.965307" y="70.931424" style="stroke: #000000; stroke-width: 0.8"/>
      </g>
     </g>
     <g id="text_21">
      <!-- N5210.4 -->
      <g transform="translate(369.854394 63.224317) rotate(-45) scale(0.08 -0.08)">
       <use xlink:href="#SimHei-4e"/>
       <use xlink:href="#SimHei-35" x="50"/>
       <use xlink:href="#SimHei-32" x="100"/>
       <use xlink:href="#SimHei-31" x="150"/>
       <use xlink:href="#SimHei-30" x="200"/>
       <use xlink:href="#SimHei-2e" x="250"/>
       <use xlink:href="#SimHei-34" x="300"/>
      </g>
     </g>
    </g>
    <g id="xtick_12">
     <g id="line2d_34">
      <g>
       <use xlink:href="#m3b9b8d8680" x="422.359046" y="70.931424" style="stroke: #000000; stroke-width: 0.8"/>
      </g>
     </g>
     <g id="text_22">
      <!-- N8410.11 -->
      <g transform="translate(426.248134 63.224317) rotate(-45) scale(0.08 -0.08)">
       <use xlink:href="#SimHei-4e"/>
       <use xlink:href="#SimHei-38" x="50"/>
       <use xlink:href="#SimHei-34" x="100"/>
       <use xlink:href="#SimHei-31" x="150"/>
       <use xlink:href="#SimHei-30" x="200"/>
       <use xlink:href="#SimHei-2e" x="250"/>
       <use xlink:href="#SimHei-31" x="300"/>
       <use xlink:href="#SimHei-31" x="350"/>
      </g>
     </g>
    </g>
    <g id="xtick_13">
     <g id="line2d_35">
      <g>
       <use xlink:href="#m3b9b8d8680" x="451.444885" y="70.931424" style="stroke: #000000; stroke-width: 0.8"/>
      </g>
     </g>
     <g id="text_23">
      <!-- N0190.11 -->
      <g transform="translate(455.333973 63.224317) rotate(-45) scale(0.08 -0.08)">
       <defs>
        <path id="SimHei-39" d="M 800 75 
Q 1350 1000 1700 1750 
Q 1075 1650 662 1912 
Q 250 2175 162 2625 
Q 75 3075 175 3437 
Q 275 3800 487 4037 
Q 700 4275 1000 4375 
Q 1300 4475 1537 4475 
Q 1775 4475 2025 4375 
Q 2275 4275 2475 4075 
Q 2675 3875 2750 3662 
Q 2825 3450 2825 3112 
Q 2825 2775 2575 2250 
Q 2325 1725 1350 75 
L 800 75 
z
M 662 2875 
Q 700 2550 937 2337 
Q 1175 2125 1450 2150 
Q 1725 2175 1887 2300 
Q 2050 2425 2200 2725 
Q 2300 3100 2250 3362 
Q 2200 3625 1987 3800 
Q 1775 3975 1525 3975 
Q 1375 4000 1137 3900 
Q 900 3800 762 3500 
Q 625 3200 662 2875 
z
" transform="scale(0.015625)"/>
       </defs>
       <use xlink:href="#SimHei-4e"/>
       <use xlink:href="#SimHei-30" x="50"/>
       <use xlink:href="#SimHei-31" x="100"/>
       <use xlink:href="#SimHei-39" x="150"/>
       <use xlink:href="#SimHei-30" x="200"/>
       <use xlink:href="#SimHei-2e" x="250"/>
       <use xlink:href="#SimHei-31" x="300"/>
       <use xlink:href="#SimHei-31" x="350"/>
      </g>
     </g>
    </g>
    <g id="xtick_14">
     <g id="line2d_36">
      <g>
       <use xlink:href="#m3b9b8d8680" x="489.224803" y="70.931424" style="stroke: #000000; stroke-width: 0.8"/>
      </g>
     </g>
     <g id="text_24">
      <!-- N2680.29 -->
      <g transform="translate(493.11389 63.224317) rotate(-45) scale(0.08 -0.08)">
       <use xlink:href="#SimHei-4e"/>
       <use xlink:href="#SimHei-32" x="50"/>
       <use xlink:href="#SimHei-36" x="100"/>
       <use xlink:href="#SimHei-38" x="150"/>
       <use xlink:href="#SimHei-30" x="200"/>
       <use xlink:href="#SimHei-2e" x="250"/>
       <use xlink:href="#SimHei-32" x="300"/>
       <use xlink:href="#SimHei-39" x="350"/>
      </g>
     </g>
    </g>
    <g id="xtick_15">
     <g id="line2d_37">
      <g>
       <use xlink:href="#m3b9b8d8680" x="536.577117" y="70.931424" style="stroke: #000000; stroke-width: 0.8"/>
      </g>
     </g>
     <g id="text_25">
      <!-- N5890.9 -->
      <g transform="translate(540.466204 63.224317) rotate(-45) scale(0.08 -0.08)">
       <use xlink:href="#SimHei-4e"/>
       <use xlink:href="#SimHei-35" x="50"/>
       <use xlink:href="#SimHei-38" x="100"/>
       <use xlink:href="#SimHei-39" x="150"/>
       <use xlink:href="#SimHei-30" x="200"/>
       <use xlink:href="#SimHei-2e" x="250"/>
       <use xlink:href="#SimHei-39" x="300"/>
      </g>
     </g>
    </g>
    <g id="xtick_16">
     <g id="line2d_38">
      <g>
       <use xlink:href="#m3b9b8d8680" x="568.415304" y="70.931424" style="stroke: #000000; stroke-width: 0.8"/>
      </g>
     </g>
     <g id="text_26">
      <!-- N7950.6 -->
      <g transform="translate(572.304391 63.224317) rotate(-45) scale(0.08 -0.08)">
       <use xlink:href="#SimHei-4e"/>
       <use xlink:href="#SimHei-37" x="50"/>
       <use xlink:href="#SimHei-39" x="100"/>
       <use xlink:href="#SimHei-35" x="150"/>
       <use xlink:href="#SimHei-30" x="200"/>
       <use xlink:href="#SimHei-2e" x="250"/>
       <use xlink:href="#SimHei-36" x="300"/>
      </g>
     </g>
    </g>
    <g id="xtick_17">
     <g id="line2d_39">
      <g>
       <use xlink:href="#m3b9b8d8680" x="620.088582" y="70.931424" style="stroke: #000000; stroke-width: 0.8"/>
      </g>
     </g>
     <g id="text_27">
      <!-- N1720.13 -->
      <g transform="translate(623.977669 63.224317) rotate(-45) scale(0.08 -0.08)">
       <use xlink:href="#SimHei-4e"/>
       <use xlink:href="#SimHei-31" x="50"/>
       <use xlink:href="#SimHei-37" x="100"/>
       <use xlink:href="#SimHei-32" x="150"/>
       <use xlink:href="#SimHei-30" x="200"/>
       <use xlink:href="#SimHei-2e" x="250"/>
       <use xlink:href="#SimHei-31" x="300"/>
       <use xlink:href="#SimHei-33" x="350"/>
      </g>
     </g>
    </g>
    <g id="xtick_18">
     <g id="line2d_40">
      <g>
       <use xlink:href="#m3b9b8d8680" x="671.555344" y="70.931424" style="stroke: #000000; stroke-width: 0.8"/>
      </g>
     </g>
     <g id="text_28">
      <!-- N5550 -->
      <g transform="translate(675.444431 63.224317) rotate(-45) scale(0.08 -0.08)">
       <use xlink:href="#SimHei-4e"/>
       <use xlink:href="#SimHei-35" x="50"/>
       <use xlink:href="#SimHei-35" x="100"/>
       <use xlink:href="#SimHei-35" x="150"/>
       <use xlink:href="#SimHei-30" x="200"/>
      </g>
     </g>
    </g>
    <g id="xtick_19">
     <g id="line2d_41">
      <g>
       <use xlink:href="#m3b9b8d8680" x="712.20675" y="70.931424" style="stroke: #000000; stroke-width: 0.8"/>
      </g>
     </g>
     <g id="text_29">
      <!-- N8160.3 -->
      <g transform="translate(716.095838 63.224317) rotate(-45) scale(0.08 -0.08)">
       <use xlink:href="#SimHei-4e"/>
       <use xlink:href="#SimHei-38" x="50"/>
       <use xlink:href="#SimHei-31" x="100"/>
       <use xlink:href="#SimHei-36" x="150"/>
       <use xlink:href="#SimHei-30" x="200"/>
       <use xlink:href="#SimHei-2e" x="250"/>
       <use xlink:href="#SimHei-33" x="300"/>
      </g>
     </g>
    </g>
    <g id="xtick_20">
     <g id="line2d_42">
      <g>
       <use xlink:href="#m3b9b8d8680" x="793.356517" y="70.931424" style="stroke: #000000; stroke-width: 0.8"/>
      </g>
     </g>
     <g id="text_30">
      <!-- N3660 -->
      <g transform="translate(797.245605 63.224317) rotate(-45) scale(0.08 -0.08)">
       <use xlink:href="#SimHei-4e"/>
       <use xlink:href="#SimHei-33" x="50"/>
       <use xlink:href="#SimHei-36" x="100"/>
       <use xlink:href="#SimHei-36" x="150"/>
       <use xlink:href="#SimHei-30" x="200"/>
      </g>
     </g>
    </g>
    <g id="text_31">
     <!-- 指令行号 N -->
     <g transform="translate(409.354764 32.707812) scale(0.1 -0.1)">
      <defs>
       <path id="SimHei-6307" d="M 5625 2225 
Q 5600 1925 5600 1350 
L 5600 300 
Q 5600 -225 5625 -525 
L 5125 -525 
L 5125 -125 
L 3300 -125 
L 3300 -625 
L 2800 -625 
Q 2825 -300 2825 300 
L 2825 1350 
Q 2825 1925 2800 2225 
L 5625 2225 
z
M 500 25 
Q 1075 -25 1175 37 
Q 1275 100 1275 275 
L 1275 1675 
Q 1050 1600 925 1537 
Q 800 1475 475 1275 
Q 400 1525 225 1800 
Q 625 1900 825 1975 
Q 1025 2050 1275 2125 
L 1275 3300 
L 1100 3300 
Q 775 3300 450 3275 
L 450 3725 
Q 750 3700 1100 3700 
L 1275 3700 
L 1275 4450 
Q 1275 4800 1250 5125 
L 1775 5125 
Q 1750 4850 1750 4450 
L 1750 3700 
Q 2075 3700 2425 3725 
L 2425 3275 
Q 2050 3300 1750 3300 
L 1750 2325 
Q 1850 2350 2025 2425 
L 2375 2575 
Q 2350 2300 2375 2100 
Q 2225 2050 2062 1987 
Q 1900 1925 1750 1850 
L 1750 100 
Q 1725 -200 1575 -337 
Q 1425 -475 675 -525 
Q 625 -250 500 25 
z
M 3325 5025 
Q 3300 4675 3300 4125 
Q 4125 4275 4512 4412 
Q 4900 4550 5225 4725 
Q 5325 4475 5575 4250 
Q 5450 4225 5237 4175 
Q 5025 4125 4725 4050 
Q 4425 3975 4037 3887 
Q 3650 3800 3300 3725 
L 3300 3175 
Q 3275 2925 3700 2925 
L 4925 2925 
Q 5300 2925 5387 3087 
Q 5475 3250 5550 3600 
Q 5750 3400 6050 3300 
Q 5825 2725 5700 2637 
Q 5575 2550 5275 2525 
L 3350 2525 
Q 3050 2525 2937 2687 
Q 2825 2850 2825 2975 
L 2825 4125 
Q 2825 4775 2800 5025 
L 3325 5025 
z
M 5125 275 
L 5125 875 
L 3300 875 
L 3300 275 
L 5125 275 
z
M 5125 1250 
L 5125 1825 
L 3300 1825 
L 3300 1250 
L 5125 1250 
z
" transform="scale(0.015625)"/>
       <path id="SimHei-4ee4" d="M 5375 2075 
L 5375 1550 
Q 4925 1325 4450 937 
Q 3975 550 3575 125 
L 4250 -325 
Q 4050 -550 3875 -775 
Q 3100 -125 1850 425 
L 2150 875 
Q 2400 775 3125 350 
Q 3800 1025 4450 1625 
L 2025 1625 
Q 1500 1625 975 1600 
L 975 2100 
Q 1525 2075 2025 2075 
L 5375 2075 
z
M 3375 4850 
Q 4450 3550 6200 2900 
Q 5950 2625 5800 2350 
Q 4150 3150 3100 4475 
Q 2075 3125 625 2225 
Q 400 2525 200 2700 
Q 875 2975 1675 3675 
Q 2475 4375 2950 5300 
Q 3275 5175 3550 5050 
Q 3475 5000 3375 4850 
z
M 2925 3600 
Q 3175 3350 3750 2725 
L 3300 2325 
Q 3050 2700 2550 3225 
Q 2750 3375 2925 3600 
z
" transform="scale(0.015625)"/>
       <path id="SimHei-53f7" d="M 5025 4925 
Q 5000 4550 5000 4075 
Q 5000 3600 5025 3175 
L 1400 3175 
Q 1425 3525 1425 4000 
Q 1425 4500 1400 4925 
L 5025 4925 
z
M 5175 2625 
Q 5650 2625 6025 2650 
L 6025 2200 
Q 5650 2225 5175 2225 
L 2450 2225 
Q 2350 1875 2225 1450 
L 5175 1450 
Q 5100 1050 5062 775 
Q 5025 500 4950 112 
Q 4875 -275 4650 -412 
Q 4425 -550 3225 -625 
Q 3125 -350 2975 -50 
Q 3875 -75 4112 -50 
Q 4350 -25 4425 212 
Q 4500 450 4575 1025 
L 1600 1025 
Q 1825 1625 1950 2225 
L 1350 2225 
Q 825 2225 375 2200 
L 375 2650 
Q 825 2625 1350 2625 
L 5175 2625 
z
M 4525 3575 
L 4525 4525 
L 1900 4525 
L 1900 3575 
L 4525 3575 
z
" transform="scale(0.015625)"/>
      </defs>
      <use xlink:href="#SimHei-6307"/>
      <use xlink:href="#SimHei-4ee4" x="100"/>
      <use xlink:href="#SimHei-884c" x="200"/>
      <use xlink:href="#SimHei-53f7" x="300"/>
      <use xlink:href="#SimHei-20" x="400"/>
      <use xlink:href="#SimHei-4e" x="450"/>
     </g>
    </g>
   </g>
   <g id="patch_7">
    <path d="M 39.35625 450.823965 
L 39.35625 70.931424 
" style="fill: none; stroke: #000000; stroke-width: 0.8; stroke-linejoin: miter; stroke-linecap: square"/>
   </g>
   <g id="patch_8">
    <path d="M 829.353278 450.823965 
L 829.353278 70.931424 
" style="fill: none; stroke: #000000; stroke-width: 0.8; stroke-linejoin: miter; stroke-linecap: square"/>
   </g>
   <g id="patch_9">
    <path d="M 39.35625 450.823965 
L 829.353278 450.823965 
" style="fill: none; stroke: #000000; stroke-width: 0.8; stroke-linejoin: miter; stroke-linecap: square"/>
   </g>
   <g id="patch_10">
    <path d="M 39.35625 70.931424 
L 829.353278 70.931424 
" style="fill: none; stroke: #000000; stroke-width: 0.8; stroke-linejoin: miter; stroke-linecap: square"/>
   </g>
  </g>
 </g>
 <defs>
  <clipPath id="p029e1c81a7">
   <rect x="39.35625" y="70.931424" width="789.997028" height="379.892541"/>
  </clipPath>
 </defs>
</svg>
