<?xml version="1.0" encoding="utf-8" standalone="no"?>
<!DOCTYPE svg PUBLIC "-//W3C//DTD SVG 1.1//EN"
  "http://www.w3.org/Graphics/SVG/1.1/DTD/svg11.dtd">
<svg xmlns:xlink="http://www.w3.org/1999/xlink" width="848.275142pt" height="487.742402pt" viewBox="0 0 848.275142 487.742402" xmlns="http://www.w3.org/2000/svg" version="1.1">
 <metadata>
  <rdf:RDF xmlns:dc="http://purl.org/dc/elements/1.1/" xmlns:cc="http://creativecommons.org/ns#" xmlns:rdf="http://www.w3.org/1999/02/22-rdf-syntax-ns#">
   <cc:Work>
    <dc:type rdf:resource="http://purl.org/dc/dcmitype/StillImage"/>
    <dc:date>2025-12-10T13:35:04.788754</dc:date>
    <dc:format>image/svg+xml</dc:format>
    <dc:creator>
     <cc:Agent>
      <dc:title>Matplotlib v3.9.2, https://matplotlib.org/</dc:title>
     </cc:Agent>
    </dc:creator>
   </cc:Work>
  </rdf:RDF>
 </metadata>
 <defs>
  <style type="text/css">*{stroke-linejoin: round; stroke-linecap: butt}</style>
 </defs>
 <g id="figure_1">
  <g id="patch_1">
   <path d="M 0 487.742402 
L 848.275142 487.742402 
L 848.275142 0 
L 0 0 
z
" style="fill: #ffffff"/>
  </g>
  <g id="axes_1">
   <g id="patch_2">
    <path d="M 34.121875 450.214277 
L 829.203903 450.214277 
L 829.203903 70.876736 
L 34.121875 70.876736 
z
" style="fill: #ffffff"/>
   </g>
   <g id="matplotlib.axis_1">
    <g id="xtick_1">
     <g id="line2d_1">
      <path d="M 64.415253 450.214277 
L 64.415253 70.876736 
" clip-path="url(#p7a0ae61a0a)" style="fill: none; stroke-dasharray: 2.96,1.28; stroke-dashoffset: 0; stroke: #b0b0b0; stroke-opacity: 0.7; stroke-width: 0.8"/>
     </g>
     <g id="line2d_2">
      <defs>
       <path id="m588ad00223" d="M 0 0 
L 0 3.5 
" style="stroke: #000000; stroke-width: 0.8"/>
      </defs>
      <g>
       <use xlink:href="#m588ad00223" x="64.415253" y="450.214277" style="stroke: #000000; stroke-width: 0.8"/>
      </g>
     </g>
     <g id="text_1">
      <!-- 0 -->
      <g transform="translate(61.915253 464.089277) scale(0.1 -0.1)">
       <defs>
        <path id="SimHei-30" d="M 225 2537 
Q 250 3200 412 3587 
Q 575 3975 875 4225 
Q 1175 4475 1612 4475 
Q 2050 4475 2375 4112 
Q 2700 3750 2800 3200 
Q 2900 2650 2862 1937 
Q 2825 1225 2612 775 
Q 2400 325 1975 150 
Q 1550 -25 1125 187 
Q 700 400 525 750 
Q 350 1100 275 1487 
Q 200 1875 225 2537 
z
M 750 2687 
Q 675 2000 800 1462 
Q 925 925 1212 700 
Q 1500 475 1800 612 
Q 2100 750 2237 1162 
Q 2375 1575 2375 2062 
Q 2375 2550 2337 2950 
Q 2300 3350 2112 3675 
Q 1925 4000 1612 4012 
Q 1300 4025 1062 3700 
Q 825 3375 750 2687 
z
" transform="scale(0.015625)"/>
       </defs>
       <use xlink:href="#SimHei-30"/>
      </g>
     </g>
    </g>
    <g id="xtick_2">
     <g id="line2d_3">
      <path d="M 191.775234 450.214277 
L 191.775234 70.876736 
" clip-path="url(#p7a0ae61a0a)" style="fill: none; stroke-dasharray: 2.96,1.28; stroke-dashoffset: 0; stroke: #b0b0b0; stroke-opacity: 0.7; stroke-width: 0.8"/>
     </g>
     <g id="line2d_4">
      <g>
       <use xlink:href="#m588ad00223" x="191.775234" y="450.214277" style="stroke: #000000; stroke-width: 0.8"/>
      </g>
     </g>
     <g id="text_2">
      <!-- 10000 -->
      <g transform="translate(179.275234 464.089277) scale(0.1 -0.1)">
       <defs>
        <path id="SimHei-31" d="M 1400 3600 
Q 1075 3275 575 2975 
L 575 3450 
Q 1200 3875 1600 4450 
L 1900 4450 
L 1900 150 
L 1400 150 
L 1400 3600 
z
" transform="scale(0.015625)"/>
       </defs>
       <use xlink:href="#SimHei-31"/>
       <use xlink:href="#SimHei-30" x="50"/>
       <use xlink:href="#SimHei-30" x="100"/>
       <use xlink:href="#SimHei-30" x="150"/>
       <use xlink:href="#SimHei-30" x="200"/>
      </g>
     </g>
    </g>
    <g id="xtick_3">
     <g id="line2d_5">
      <path d="M 319.135216 450.214277 
L 319.135216 70.876736 
" clip-path="url(#p7a0ae61a0a)" style="fill: none; stroke-dasharray: 2.96,1.28; stroke-dashoffset: 0; stroke: #b0b0b0; stroke-opacity: 0.7; stroke-width: 0.8"/>
     </g>
     <g id="line2d_6">
      <g>
       <use xlink:href="#m588ad00223" x="319.135216" y="450.214277" style="stroke: #000000; stroke-width: 0.8"/>
      </g>
     </g>
     <g id="text_3">
      <!-- 20000 -->
      <g transform="translate(306.635216 464.089277) scale(0.1 -0.1)">
       <defs>
        <path id="SimHei-32" d="M 300 250 
Q 325 625 650 925 
Q 975 1225 1475 1862 
Q 1975 2500 2125 2850 
Q 2275 3200 2237 3450 
Q 2200 3700 2000 3862 
Q 1800 4025 1537 4000 
Q 1275 3975 1037 3800 
Q 800 3625 675 3275 
L 200 3350 
Q 400 3925 712 4187 
Q 1025 4450 1450 4475 
Q 1700 4500 1900 4462 
Q 2100 4425 2312 4287 
Q 2525 4150 2662 3875 
Q 2800 3600 2762 3212 
Q 2725 2825 2375 2287 
Q 2025 1750 1025 600 
L 2825 600 
L 2825 150 
L 300 150 
L 300 250 
z
" transform="scale(0.015625)"/>
       </defs>
       <use xlink:href="#SimHei-32"/>
       <use xlink:href="#SimHei-30" x="50"/>
       <use xlink:href="#SimHei-30" x="100"/>
       <use xlink:href="#SimHei-30" x="150"/>
       <use xlink:href="#SimHei-30" x="200"/>
      </g>
     </g>
    </g>
    <g id="xtick_4">
     <g id="line2d_7">
      <path d="M 446.495197 450.214277 
L 446.495197 70.876736 
" clip-path="url(#p7a0ae61a0a)" style="fill: none; stroke-dasharray: 2.96,1.28; stroke-dashoffset: 0; stroke: #b0b0b0; stroke-opacity: 0.7; stroke-width: 0.8"/>
     </g>
     <g id="line2d_8">
      <g>
       <use xlink:href="#m588ad00223" x="446.495197" y="450.214277" style="stroke: #000000; stroke-width: 0.8"/>
      </g>
     </g>
     <g id="text_4">
      <!-- 30000 -->
      <g transform="translate(433.995197 464.089277) scale(0.1 -0.1)">
       <defs>
        <path id="SimHei-33" d="M 250 1225 
L 700 1300 
Q 800 975 1025 762 
Q 1250 550 1587 562 
Q 1925 575 2125 837 
Q 2325 1100 2300 1437 
Q 2275 1775 2037 1962 
Q 1800 2150 1275 2225 
L 1275 2550 
Q 1800 2600 2037 2825 
Q 2275 3050 2250 3412 
Q 2225 3775 1925 3937 
Q 1625 4100 1287 3975 
Q 950 3850 750 3275 
L 300 3350 
Q 450 3800 712 4100 
Q 975 4400 1425 4450 
Q 1875 4500 2212 4337 
Q 2550 4175 2687 3837 
Q 2825 3500 2725 3100 
Q 2625 2700 2150 2400 
Q 2500 2250 2687 1950 
Q 2875 1650 2812 1162 
Q 2750 675 2375 375 
Q 2000 75 1525 87 
Q 1050 100 700 387 
Q 350 675 250 1225 
z
" transform="scale(0.015625)"/>
       </defs>
       <use xlink:href="#SimHei-33"/>
       <use xlink:href="#SimHei-30" x="50"/>
       <use xlink:href="#SimHei-30" x="100"/>
       <use xlink:href="#SimHei-30" x="150"/>
       <use xlink:href="#SimHei-30" x="200"/>
      </g>
     </g>
    </g>
    <g id="xtick_5">
     <g id="line2d_9">
      <path d="M 573.855179 450.214277 
L 573.855179 70.876736 
" clip-path="url(#p7a0ae61a0a)" style="fill: none; stroke-dasharray: 2.96,1.28; stroke-dashoffset: 0; stroke: #b0b0b0; stroke-opacity: 0.7; stroke-width: 0.8"/>
     </g>
     <g id="line2d_10">
      <g>
       <use xlink:href="#m588ad00223" x="573.855179" y="450.214277" style="stroke: #000000; stroke-width: 0.8"/>
      </g>
     </g>
     <g id="text_5">
      <!-- 40000 -->
      <g transform="translate(561.355179 464.089277) scale(0.1 -0.1)">
       <defs>
        <path id="SimHei-34" d="M 2000 1100 
L 75 1100 
L 75 1525 
L 2100 4450 
L 2475 4450 
L 2475 1525 
L 3075 1525 
L 3075 1100 
L 2475 1100 
L 2475 150 
L 2000 150 
L 2000 1100 
z
M 2000 1525 
L 2000 3500 
L 600 1525 
L 2000 1525 
z
" transform="scale(0.015625)"/>
       </defs>
       <use xlink:href="#SimHei-34"/>
       <use xlink:href="#SimHei-30" x="50"/>
       <use xlink:href="#SimHei-30" x="100"/>
       <use xlink:href="#SimHei-30" x="150"/>
       <use xlink:href="#SimHei-30" x="200"/>
      </g>
     </g>
    </g>
    <g id="xtick_6">
     <g id="line2d_11">
      <path d="M 701.215161 450.214277 
L 701.215161 70.876736 
" clip-path="url(#p7a0ae61a0a)" style="fill: none; stroke-dasharray: 2.96,1.28; stroke-dashoffset: 0; stroke: #b0b0b0; stroke-opacity: 0.7; stroke-width: 0.8"/>
     </g>
     <g id="line2d_12">
      <g>
       <use xlink:href="#m588ad00223" x="701.215161" y="450.214277" style="stroke: #000000; stroke-width: 0.8"/>
      </g>
     </g>
     <g id="text_6">
      <!-- 50000 -->
      <g transform="translate(688.715161 464.089277) scale(0.1 -0.1)">
       <defs>
        <path id="SimHei-35" d="M 550 1325 
Q 725 650 1150 575 
Q 1575 500 1837 662 
Q 2100 825 2212 1087 
Q 2325 1350 2312 1675 
Q 2300 2000 2137 2225 
Q 1975 2450 1725 2525 
Q 1475 2600 1162 2525 
Q 850 2450 650 2175 
L 225 2225 
Q 275 2375 700 4375 
L 2675 4375 
L 2675 3925 
L 1075 3925 
Q 950 3250 825 2850 
Q 1200 3025 1525 3012 
Q 1850 3000 2150 2862 
Q 2450 2725 2587 2487 
Q 2725 2250 2787 2012 
Q 2850 1775 2837 1500 
Q 2825 1225 2725 937 
Q 2625 650 2425 462 
Q 2225 275 1937 162 
Q 1650 50 1275 75 
Q 900 100 562 350 
Q 225 600 100 1200 
L 550 1325 
z
" transform="scale(0.015625)"/>
       </defs>
       <use xlink:href="#SimHei-35"/>
       <use xlink:href="#SimHei-30" x="50"/>
       <use xlink:href="#SimHei-30" x="100"/>
       <use xlink:href="#SimHei-30" x="150"/>
       <use xlink:href="#SimHei-30" x="200"/>
      </g>
     </g>
    </g>
    <g id="xtick_7">
     <g id="line2d_13">
      <path d="M 828.575142 450.214277 
L 828.575142 70.876736 
" clip-path="url(#p7a0ae61a0a)" style="fill: none; stroke-dasharray: 2.96,1.28; stroke-dashoffset: 0; stroke: #b0b0b0; stroke-opacity: 0.7; stroke-width: 0.8"/>
     </g>
     <g id="line2d_14">
      <g>
       <use xlink:href="#m588ad00223" x="828.575142" y="450.214277" style="stroke: #000000; stroke-width: 0.8"/>
      </g>
     </g>
     <g id="text_7">
      <!-- 60000 -->
      <g transform="translate(816.075142 464.089277) scale(0.1 -0.1)">
       <defs>
        <path id="SimHei-36" d="M 250 1612 
Q 275 1975 387 2225 
Q 500 2475 725 2850 
L 1750 4450 
L 2325 4450 
L 1275 2800 
Q 1950 2975 2350 2750 
Q 2750 2525 2887 2237 
Q 3025 1950 3037 1612 
Q 3050 1275 2937 950 
Q 2825 625 2537 362 
Q 2250 100 1737 75 
Q 1225 50 862 262 
Q 500 475 362 862 
Q 225 1250 250 1612 
z
M 1025 787 
Q 1250 550 1625 525 
Q 2000 500 2250 775 
Q 2500 1050 2500 1575 
Q 2500 2100 2187 2300 
Q 1875 2500 1487 2450 
Q 1100 2400 925 2075 
Q 750 1750 775 1387 
Q 800 1025 1025 787 
z
" transform="scale(0.015625)"/>
       </defs>
       <use xlink:href="#SimHei-36"/>
       <use xlink:href="#SimHei-30" x="50"/>
       <use xlink:href="#SimHei-30" x="100"/>
       <use xlink:href="#SimHei-30" x="150"/>
       <use xlink:href="#SimHei-30" x="200"/>
      </g>
     </g>
    </g>
    <g id="text_8">
     <!-- 行程 s (mm) -->
     <g transform="translate(398.662889 479.042402) scale(0.12 -0.12)">
      <defs>
       <path id="SimHei-884c" d="M 5300 3100 
Q 5775 3100 6175 3125 
L 6175 2625 
Q 5775 2650 5325 2650 
L 4975 2650 
L 4975 -75 
Q 5000 -375 4787 -487 
Q 4575 -600 3950 -675 
Q 3900 -375 3675 -75 
Q 4100 -125 4275 -112 
Q 4450 -100 4475 150 
L 4475 2650 
L 3475 2650 
Q 3000 2650 2575 2625 
L 2575 3125 
Q 3025 3100 3475 3100 
L 5300 3100 
z
M 2300 3400 
Q 2075 3275 1962 3075 
Q 1850 2875 1650 2575 
L 1650 325 
Q 1650 0 1675 -675 
L 1150 -675 
Q 1175 75 1175 450 
L 1175 2050 
Q 950 1675 575 1300 
Q 400 1550 250 1725 
Q 825 2275 1150 2775 
Q 1475 3275 1725 3725 
Q 1975 3575 2300 3400 
z
M 4875 4800 
Q 5300 4800 5750 4825 
L 5750 4350 
Q 5300 4375 4825 4375 
L 3900 4375 
Q 3350 4375 2950 4350 
L 2950 4825 
Q 3350 4800 3900 4800 
L 4875 4800 
z
M 2075 4925 
Q 1875 4900 1550 4387 
Q 1225 3875 650 3250 
Q 500 3450 325 3625 
Q 725 4025 1050 4487 
Q 1375 4950 1525 5300 
Q 1775 5150 2075 4925 
z
" transform="scale(0.015625)"/>
       <path id="SimHei-7a0b" d="M 5825 4975 
Q 5800 4425 5800 3975 
Q 5800 3550 5825 3125 
L 3025 3125 
Q 3050 3600 3050 4025 
Q 3050 4450 3025 4975 
L 5825 4975 
z
M 400 4825 
Q 825 4875 1362 4987 
Q 1900 5100 2275 5275 
Q 2450 4950 2625 4725 
Q 2450 4750 2262 4712 
Q 2075 4675 1850 4650 
L 1850 3425 
Q 2200 3425 2600 3450 
L 2600 2975 
Q 2200 3000 1850 3000 
L 1850 800 
Q 1850 250 1875 -675 
L 1375 -675 
Q 1400 250 1400 775 
L 1400 1925 
Q 1050 1225 625 600 
Q 450 850 225 1050 
Q 575 1400 850 1850 
Q 1125 2300 1350 3000 
Q 725 3000 425 2975 
L 425 3450 
Q 850 3425 1050 3425 
L 1400 3425 
L 1400 4550 
Q 1075 4475 575 4400 
Q 500 4625 400 4825 
z
M 5100 2500 
Q 5500 2500 5950 2525 
L 5950 2075 
Q 5500 2100 5100 2100 
L 4625 2100 
L 4625 1300 
L 4900 1300 
Q 5275 1300 5775 1325 
L 5775 850 
Q 5275 875 4975 875 
L 4625 875 
L 4625 0 
L 5225 0 
Q 5675 0 6175 25 
L 6175 -450 
Q 5775 -425 5225 -425 
L 3550 -425 
Q 3000 -425 2600 -475 
L 2600 25 
Q 3000 0 3550 0 
L 4150 0 
L 4150 875 
L 3800 875 
Q 3400 875 3050 825 
L 3050 1325 
Q 3400 1300 3800 1300 
L 4150 1300 
L 4150 2100 
L 3750 2100 
Q 3300 2100 2900 2075 
L 2900 2525 
Q 3300 2500 3750 2500 
L 5100 2500 
z
M 5275 3575 
L 5275 4550 
L 3500 4550 
L 3500 3575 
L 5275 3575 
z
M 2300 2400 
Q 2550 2025 2825 1525 
Q 2675 1425 2425 1225 
Q 2175 1775 1925 2125 
Q 2075 2250 2300 2400 
z
" transform="scale(0.015625)"/>
       <path id="SimHei-20" transform="scale(0.015625)"/>
       <path id="SimHei-73" d="M 2750 900 
Q 2750 500 2437 287 
Q 2125 75 1650 75 
Q 1050 75 725 312 
Q 400 550 400 1000 
L 900 1000 
Q 900 700 1112 600 
Q 1325 500 1625 500 
Q 1925 500 2075 612 
Q 2225 725 2225 900 
Q 2225 1025 2100 1150 
Q 1975 1275 1475 1350 
Q 900 1425 687 1637 
Q 475 1850 475 2200 
Q 475 2500 762 2737 
Q 1050 2975 1600 2975 
Q 2100 2975 2387 2750 
Q 2675 2525 2675 2150 
L 2175 2150 
Q 2175 2375 2012 2462 
Q 1850 2550 1600 2550 
Q 1275 2550 1137 2437 
Q 1000 2325 1000 2175 
Q 1000 2000 1125 1900 
Q 1250 1800 1650 1750 
Q 2300 1650 2525 1437 
Q 2750 1225 2750 900 
z
" transform="scale(0.015625)"/>
       <path id="SimHei-28" d="M 2975 -200 
L 2700 -475 
Q 2075 125 1762 775 
Q 1450 1425 1450 2250 
Q 1450 3075 1762 3725 
Q 2075 4375 2700 5000 
L 2975 4725 
Q 2400 4175 2112 3587 
Q 1825 3000 1825 2250 
Q 1825 1500 2112 912 
Q 2400 325 2975 -200 
z
" transform="scale(0.015625)"/>
       <path id="SimHei-6d" d="M 3050 125 
L 2550 125 
L 2550 2150 
Q 2550 2300 2500 2400 
Q 2450 2500 2300 2500 
Q 2125 2500 1975 2312 
Q 1825 2125 1825 1825 
L 1825 125 
L 1325 125 
L 1325 2150 
Q 1325 2300 1275 2400 
Q 1225 2500 1075 2500 
Q 900 2500 750 2312 
Q 600 2125 600 1825 
L 600 125 
L 100 125 
L 100 2925 
L 600 2925 
L 600 2550 
Q 725 2750 900 2862 
Q 1075 2975 1275 2975 
Q 1475 2975 1612 2862 
Q 1750 2750 1800 2550 
Q 1925 2750 2087 2862 
Q 2250 2975 2450 2975 
Q 2750 2975 2900 2812 
Q 3050 2650 3050 2350 
L 3050 125 
z
" transform="scale(0.015625)"/>
       <path id="SimHei-29" d="M 1675 2250 
Q 1675 1425 1362 775 
Q 1050 125 425 -475 
L 150 -200 
Q 725 325 1012 912 
Q 1300 1500 1300 2250 
Q 1300 3000 1012 3587 
Q 725 4175 150 4725 
L 425 5000 
Q 1050 4375 1362 3725 
Q 1675 3075 1675 2250 
z
" transform="scale(0.015625)"/>
      </defs>
      <use xlink:href="#SimHei-884c"/>
      <use xlink:href="#SimHei-7a0b" x="100"/>
      <use xlink:href="#SimHei-20" x="200"/>
      <use xlink:href="#SimHei-73" x="250"/>
      <use xlink:href="#SimHei-20" x="300"/>
      <use xlink:href="#SimHei-28" x="350"/>
      <use xlink:href="#SimHei-6d" x="400"/>
      <use xlink:href="#SimHei-6d" x="450"/>
      <use xlink:href="#SimHei-29" x="500"/>
     </g>
    </g>
   </g>
   <g id="matplotlib.axis_2">
    <g id="ytick_1">
     <g id="line2d_15">
      <path d="M 34.121875 432.971662 
L 829.203903 432.971662 
" clip-path="url(#p7a0ae61a0a)" style="fill: none; stroke-dasharray: 2.96,1.28; stroke-dashoffset: 0; stroke: #b0b0b0; stroke-opacity: 0.7; stroke-width: 0.8"/>
     </g>
     <g id="line2d_16">
      <defs>
       <path id="m541f06461e" d="M 0 0 
L -3.5 0 
" style="stroke: #000000; stroke-width: 0.8"/>
      </defs>
      <g>
       <use xlink:href="#m541f06461e" x="34.121875" y="432.971662" style="stroke: #000000; stroke-width: 0.8"/>
      </g>
     </g>
     <g id="text_9">
      <!-- 0 -->
      <g transform="translate(22.121875 436.409162) scale(0.1 -0.1)">
       <use xlink:href="#SimHei-30"/>
      </g>
     </g>
    </g>
    <g id="ytick_2">
     <g id="line2d_17">
      <path d="M 34.121875 369.298401 
L 829.203903 369.298401 
" clip-path="url(#p7a0ae61a0a)" style="fill: none; stroke-dasharray: 2.96,1.28; stroke-dashoffset: 0; stroke: #b0b0b0; stroke-opacity: 0.7; stroke-width: 0.8"/>
     </g>
     <g id="line2d_18">
      <g>
       <use xlink:href="#m541f06461e" x="34.121875" y="369.298401" style="stroke: #000000; stroke-width: 0.8"/>
      </g>
     </g>
     <g id="text_10">
      <!-- 1 -->
      <g transform="translate(22.121875 372.735901) scale(0.1 -0.1)">
       <use xlink:href="#SimHei-31"/>
      </g>
     </g>
    </g>
    <g id="ytick_3">
     <g id="line2d_19">
      <path d="M 34.121875 305.625141 
L 829.203903 305.625141 
" clip-path="url(#p7a0ae61a0a)" style="fill: none; stroke-dasharray: 2.96,1.28; stroke-dashoffset: 0; stroke: #b0b0b0; stroke-opacity: 0.7; stroke-width: 0.8"/>
     </g>
     <g id="line2d_20">
      <g>
       <use xlink:href="#m541f06461e" x="34.121875" y="305.625141" style="stroke: #000000; stroke-width: 0.8"/>
      </g>
     </g>
     <g id="text_11">
      <!-- 2 -->
      <g transform="translate(22.121875 309.062641) scale(0.1 -0.1)">
       <use xlink:href="#SimHei-32"/>
      </g>
     </g>
    </g>
    <g id="ytick_4">
     <g id="line2d_21">
      <path d="M 34.121875 241.95188 
L 829.203903 241.95188 
" clip-path="url(#p7a0ae61a0a)" style="fill: none; stroke-dasharray: 2.96,1.28; stroke-dashoffset: 0; stroke: #b0b0b0; stroke-opacity: 0.7; stroke-width: 0.8"/>
     </g>
     <g id="line2d_22">
      <g>
       <use xlink:href="#m541f06461e" x="34.121875" y="241.95188" style="stroke: #000000; stroke-width: 0.8"/>
      </g>
     </g>
     <g id="text_12">
      <!-- 3 -->
      <g transform="translate(22.121875 245.38938) scale(0.1 -0.1)">
       <use xlink:href="#SimHei-33"/>
      </g>
     </g>
    </g>
    <g id="ytick_5">
     <g id="line2d_23">
      <path d="M 34.121875 178.278619 
L 829.203903 178.278619 
" clip-path="url(#p7a0ae61a0a)" style="fill: none; stroke-dasharray: 2.96,1.28; stroke-dashoffset: 0; stroke: #b0b0b0; stroke-opacity: 0.7; stroke-width: 0.8"/>
     </g>
     <g id="line2d_24">
      <g>
       <use xlink:href="#m541f06461e" x="34.121875" y="178.278619" style="stroke: #000000; stroke-width: 0.8"/>
      </g>
     </g>
     <g id="text_13">
      <!-- 4 -->
      <g transform="translate(22.121875 181.716119) scale(0.1 -0.1)">
       <use xlink:href="#SimHei-34"/>
      </g>
     </g>
    </g>
    <g id="ytick_6">
     <g id="line2d_25">
      <path d="M 34.121875 114.605359 
L 829.203903 114.605359 
" clip-path="url(#p7a0ae61a0a)" style="fill: none; stroke-dasharray: 2.96,1.28; stroke-dashoffset: 0; stroke: #b0b0b0; stroke-opacity: 0.7; stroke-width: 0.8"/>
     </g>
     <g id="line2d_26">
      <g>
       <use xlink:href="#m541f06461e" x="34.121875" y="114.605359" style="stroke: #000000; stroke-width: 0.8"/>
      </g>
     </g>
     <g id="text_14">
      <!-- 5 -->
      <g transform="translate(22.121875 118.042859) scale(0.1 -0.1)">
       <use xlink:href="#SimHei-35"/>
      </g>
     </g>
    </g>
    <g id="text_15">
     <!-- 功率 P (W) -->
     <g transform="translate(16.621875 290.545507) rotate(-90) scale(0.12 -0.12)">
      <defs>
       <path id="SimHei-529f" d="M 5675 275 
Q 5575 -200 5225 -312 
Q 4875 -425 4450 -475 
Q 4400 -175 4200 100 
Q 4725 75 4937 137 
Q 5150 200 5175 425 
Q 5300 1775 5375 3275 
L 4250 3275 
Q 4225 2550 4125 1925 
Q 4025 1300 3787 850 
Q 3550 400 3250 50 
Q 2950 -300 2550 -650 
Q 2375 -400 2100 -250 
Q 2650 100 2925 425 
Q 3200 750 3400 1162 
Q 3600 1575 3675 2075 
Q 3750 2575 3775 3275 
L 3400 3275 
Q 3100 3275 2800 3250 
L 2800 3725 
Q 3125 3700 3450 3700 
L 3775 3700 
L 3775 4575 
Q 3775 4875 3750 5175 
Q 4075 5100 4325 5075 
Q 4275 4900 4262 4525 
Q 4250 4150 4250 3700 
L 5900 3700 
Q 5875 3350 5850 3037 
Q 5825 2725 5675 275 
z
M 2900 1000 
Q 2475 900 2200 837 
Q 1925 775 1337 600 
Q 750 425 500 350 
Q 400 700 300 900 
Q 450 900 1375 1100 
L 1375 3900 
L 1175 3900 
Q 875 3900 450 3875 
L 450 4350 
Q 850 4325 1175 4325 
L 2100 4325 
Q 2450 4325 2725 4350 
L 2725 3875 
Q 2425 3900 2125 3900 
L 1875 3900 
L 1875 1200 
L 2375 1325 
Q 2575 1375 2850 1450 
L 2900 1000 
z
" transform="scale(0.015625)"/>
       <path id="SimHei-7387" d="M 3325 5150 
Q 3425 4900 3550 4525 
L 4800 4525 
Q 5250 4525 5800 4550 
L 5800 4125 
Q 5250 4175 4775 4175 
L 2800 4175 
Q 2975 4050 3300 3900 
Q 3075 3750 2875 3537 
Q 2675 3325 2475 3125 
L 3275 3125 
Q 3575 3425 3775 3775 
Q 4000 3600 4275 3425 
Q 3950 3250 3600 2875 
Q 3250 2500 2625 2000 
L 3850 2100 
Q 3725 2250 3600 2425 
Q 3750 2475 4000 2650 
Q 4250 2350 4700 1700 
Q 4475 1625 4225 1450 
Q 4175 1600 4025 1775 
Q 3700 1750 3425 1750 
L 3425 1050 
L 5150 1050 
Q 5675 1050 6100 1075 
L 6100 650 
Q 5700 675 5125 675 
L 3425 675 
L 3425 175 
Q 3425 -300 3450 -625 
L 2900 -625 
Q 2925 -300 2925 175 
L 2925 675 
L 1325 675 
Q 825 675 325 650 
L 325 1075 
Q 825 1050 1350 1050 
L 2925 1050 
L 2925 1700 
Q 2700 1675 2475 1637 
Q 2250 1600 2025 1525 
Q 1950 1775 1850 2000 
Q 2075 2025 2325 2200 
Q 2575 2375 2975 2800 
Q 2300 2725 2025 2625 
Q 1975 2875 1850 3175 
Q 2075 3175 2325 3487 
Q 2575 3800 2750 4175 
L 1700 4175 
Q 1150 4175 650 4125 
L 650 4550 
Q 1150 4525 1550 4525 
L 2975 4525 
Q 2900 4825 2800 5025 
Q 3025 5075 3325 5150 
z
M 1625 2575 
Q 1725 2400 1825 2200 
Q 1575 2050 1325 1862 
Q 1075 1675 800 1425 
Q 625 1675 475 1875 
Q 800 2025 1100 2212 
Q 1400 2400 1625 2575 
z
M 4850 2650 
Q 5125 2475 5337 2337 
Q 5550 2200 5875 1950 
Q 5675 1800 5500 1600 
Q 5300 1775 5062 1975 
Q 4825 2175 4575 2325 
Q 4725 2475 4850 2650 
z
M 5725 3525 
Q 5550 3450 5300 3262 
Q 5050 3075 4800 2825 
Q 4625 3050 4475 3175 
Q 4700 3325 4875 3487 
Q 5050 3650 5300 3925 
Q 5525 3700 5725 3525 
z
M 1050 3850 
Q 1425 3600 1775 3275 
Q 1575 3100 1425 2925 
Q 1075 3300 675 3525 
Q 875 3700 1050 3850 
z
" transform="scale(0.015625)"/>
       <path id="SimHei-50" d="M 2950 3100 
Q 2950 2500 2600 2150 
Q 2250 1800 1625 1800 
L 900 1800 
L 900 125 
L 325 125 
L 325 4400 
L 1625 4400 
Q 2250 4400 2600 4050 
Q 2950 3700 2950 3100 
z
M 2375 3100 
Q 2375 3575 2150 3750 
Q 1925 3925 1475 3925 
L 900 3925 
L 900 2275 
L 1475 2275 
Q 1925 2275 2150 2450 
Q 2375 2625 2375 3100 
z
" transform="scale(0.015625)"/>
       <path id="SimHei-57" d="M 3075 4400 
L 2525 75 
L 2025 75 
L 1575 3275 
L 1525 3275 
L 1075 75 
L 575 75 
L 25 4400 
L 575 4400 
L 850 1675 
L 900 1675 
L 1275 4400 
L 1825 4400 
L 2200 1675 
L 2250 1675 
L 2525 4400 
L 3075 4400 
z
" transform="scale(0.015625)"/>
      </defs>
      <use xlink:href="#SimHei-529f"/>
      <use xlink:href="#SimHei-7387" x="100"/>
      <use xlink:href="#SimHei-20" x="200"/>
      <use xlink:href="#SimHei-50" x="250"/>
      <use xlink:href="#SimHei-20" x="300"/>
      <use xlink:href="#SimHei-28" x="350"/>
      <use xlink:href="#SimHei-57" x="400"/>
      <use xlink:href="#SimHei-29" x="450"/>
     </g>
    </g>
    <g id="text_16">
     <!-- 1e6 -->
     <g transform="translate(34.121875 67.876736) scale(0.1 -0.1)">
      <defs>
       <path id="SimHei-65" d="M 2850 1075 
Q 2800 625 2450 350 
Q 2100 75 1625 75 
Q 1025 75 637 462 
Q 250 850 250 1525 
Q 250 2200 637 2587 
Q 1025 2975 1625 2975 
Q 2150 2975 2487 2637 
Q 2825 2300 2825 1525 
L 800 1525 
Q 800 975 1037 750 
Q 1275 525 1625 525 
Q 1900 525 2075 662 
Q 2250 800 2300 1075 
L 2850 1075 
z
M 2250 1925 
Q 2200 2275 2025 2412 
Q 1850 2550 1575 2550 
Q 1325 2550 1125 2412 
Q 925 2275 825 1925 
L 2250 1925 
z
" transform="scale(0.015625)"/>
      </defs>
      <use xlink:href="#SimHei-31"/>
      <use xlink:href="#SimHei-65" x="50"/>
      <use xlink:href="#SimHei-36" x="100"/>
     </g>
    </g>
   </g>
   <g id="line2d_27">
    <path d="M 70.261967 432.971662 
L 75.97921 432.971662 
L 75.981211 412.3157 
L 75.99055 415.731395 
L 77.00943 415.731395 
L 77.00943 432.971662 
L 77.018095 406.05719 
L 77.021433 432.971662 
L 78.040976 432.971662 
L 78.046315 412.901322 
L 78.052316 422.227717 
L 79.071196 422.227717 
L 79.071196 432.971662 
L 79.071859 406.986332 
L 79.656319 432.971662 
L 96.1852 432.971662 
L 96.187201 412.315638 
L 96.19654 415.731412 
L 97.21542 415.731412 
L 97.21542 432.971662 
L 97.224085 406.057109 
L 97.227424 432.971662 
L 98.246966 432.971662 
L 98.252305 412.901342 
L 98.258307 422.227727 
L 99.277186 422.227727 
L 99.277186 432.971662 
L 99.277849 406.986254 
L 99.86231 432.971662 
L 116.416662 432.971662 
L 116.418664 412.315638 
L 116.428003 415.731412 
L 117.446883 415.731412 
L 117.446883 432.971662 
L 117.455548 406.057109 
L 117.458886 432.971662 
L 118.478428 432.971662 
L 118.483767 412.901342 
L 118.489769 422.227727 
L 119.508649 422.227727 
L 119.508649 432.971662 
L 119.509311 406.986254 
L 120.093772 432.971662 
L 136.373438 432.971662 
L 136.455687 294.810565 
L 137.33798 411.302195 
L 137.468272 411.838583 
L 137.698197 432.971662 
L 137.598553 315.851934 
L 138.467604 432.971662 
L 138.648165 432.971662 
L 139.152732 297.215992 
L 139.407393 432.971662 
L 140.091738 432.971662 
L 140.174014 295.043393 
L 141.05635 411.668035 
L 141.186661 411.83646 
L 141.416618 432.971662 
L 141.316964 314.359096 
L 142.186068 432.971662 
L 142.366632 432.971662 
L 142.871279 296.595175 
L 143.059459 432.971662 
L 143.840608 432.971662 
L 143.840608 294.717989 
L 144.805373 411.302628 
L 144.935711 411.745964 
L 145.165714 432.971662 
L 145.066048 311.447447 
L 145.267602 432.971662 
L 146.259603 432.971662 
L 146.76436 297.191027 
L 146.95255 432.971662 
L 147.733636 432.971662 
L 147.81593 294.714522 
L 148.698346 411.659412 
L 148.828657 412.113322 
L 149.058628 432.971662 
L 148.958985 312.933697 
L 149.160516 432.971662 
L 150.152488 432.971662 
L 150.657179 297.815311 
L 151.102939 432.971662 
L 152.272711 432.971662 
L 152.272711 267.461649 
L 153.241217 411.533723 
L 153.307845 411.533723 
L 153.307845 403.881867 
L 153.399634 432.971662 
L 154.210545 432.971662 
L 154.397134 432.971662 
L 154.802756 400.232486 
L 155.046003 432.971662 
L 156.085892 432.971662 
L 156.854839 260.559592 
L 157.074941 432.971662 
L 157.789543 432.971662 
L 157.789543 267.468367 
L 158.757922 411.443834 
L 158.824532 411.443834 
L 158.916307 404.458562 
L 158.916307 432.971662 
L 159.727115 432.971662 
L 159.91368 432.971662 
L 160.319196 401.24682 
L 160.562418 432.971662 
L 161.602896 432.971662 
L 162.374189 261.604328 
L 162.594421 432.971662 
L 163.316483 432.971662 
L 163.316483 272.073349 
L 164.28482 411.230639 
L 164.35143 411.230639 
L 164.35143 404.346656 
L 164.443214 432.971662 
L 165.253946 432.971662 
L 165.440465 432.971662 
L 165.845964 400.805478 
L 166.089194 432.971662 
L 167.126415 432.971662 
L 167.126415 261.595876 
L 168.116331 432.971662 
L 168.838908 432.971662 
L 168.838908 267.479419 
L 169.807389 411.443964 
L 169.87402 411.443964 
L 169.87402 403.561663 
L 169.965809 432.971662 
L 170.776643 432.971662 
L 170.963186 432.971662 
L 171.36878 400.642019 
L 171.612048 432.971662 
L 172.649076 432.971662 
L 173.320378 292.644728 
L 173.645397 432.971662 
L 176.688718 432.971662 
L 176.688718 234.354445 
L 177.673762 410.477589 
L 177.761218 410.477589 
L 177.761218 432.971662 
L 178.707042 411.358625 
L 178.88124 411.814399 
L 179.169705 432.971662 
L 179.055438 401.022227 
L 179.297065 432.971662 
L 180.297431 432.971662 
L 181.015882 226.53668 
L 181.230464 432.971662 
L 181.965653 432.971662 
L 181.965653 234.38097 
L 182.950626 411.250619 
L 183.03807 411.250619 
L 183.03807 432.971662 
L 183.983865 410.855219 
L 184.041913 410.855219 
L 184.446464 432.971662 
L 184.332224 401.802625 
L 184.573824 432.971662 
L 185.574518 432.971662 
L 186.288481 364.274942 
L 186.50299 432.971662 
L 187.235813 432.971662 
L 187.235813 234.358346 
L 188.220698 411.036599 
L 188.308145 411.036599 
L 188.308145 432.971662 
L 189.253819 410.983509 
L 189.369922 411.957034 
L 189.716362 432.971662 
L 189.602124 401.655179 
L 189.843722 432.971662 
L 190.839889 432.971662 
L 191.552559 226.073538 
L 191.767245 432.971662 
L 192.500601 432.971662 
L 192.500601 234.38097 
L 193.485539 411.450725 
L 193.572987 411.450725 
L 193.572987 432.971662 
L 194.518688 411.095935 
L 194.576754 411.095935 
L 194.981296 432.971662 
L 194.867041 400.892334 
L 195.108656 432.971662 
L 196.10684 432.971662 
L 196.825296 226.542141 
L 197.080022 432.971662 
L 198.562632 432.971662 
L 198.562632 398.482313 
L 199.529451 432.971662 
L 199.695947 432.971662 
L 199.999093 402.465743 
L 200.245023 432.971662 
L 201.191253 432.971662 
L 201.777338 364.368298 
L 202.007564 432.971662 
L 202.739369 432.971662 
L 202.739369 398.651694 
L 203.705651 432.971662 
L 203.872056 432.971662 
L 204.174911 402.967892 
L 204.420783 432.971662 
L 205.366446 432.971662 
L 205.951885 364.714506 
L 206.182073 432.971662 
L 206.914447 432.971662 
L 206.914447 398.489378 
L 207.880519 432.971662 
L 208.046843 432.971662 
L 208.349631 402.172363 
L 208.595533 432.971662 
L 209.54087 432.971662 
L 210.126133 364.378527 
L 210.35634 432.971662 
L 211.088468 432.971662 
L 211.088468 398.642328 
L 212.055086 432.971662 
L 212.221512 432.971662 
L 212.524569 401.73666 
L 212.770542 432.971662 
L 213.716445 432.971662 
L 214.302355 364.385721 
L 214.684434 432.971662 
L 215.864449 432.971662 
L 215.864449 363.876726 
L 216.77005 432.971662 
L 216.93574 432.971662 
L 217.198382 403.249521 
L 217.451246 432.971662 
L 218.354732 432.971662 
L 218.863597 364.314815 
L 219.102951 432.971662 
L 219.931658 432.971662 
L 220.014939 364.019145 
L 220.837249 432.971662 
L 221.002944 432.971662 
L 221.265578 403.37586 
L 221.518438 432.971662 
L 222.421917 432.971662 
L 222.930771 364.780298 
L 223.17012 432.971662 
L 223.998832 432.971662 
L 224.082113 364.043414 
L 224.904426 432.971662 
L 225.070121 432.971662 
L 225.332754 402.962214 
L 225.585617 432.971662 
L 226.631368 432.971662 
L 227.140222 365.118011 
L 227.379578 432.971662 
L 228.208283 432.971662 
L 228.208283 364.046448 
L 229.113887 432.971662 
L 229.279576 432.971662 
L 229.542218 402.516061 
L 229.795086 432.971662 
L 230.84048 432.971662 
L 231.349356 364.412506 
L 231.795115 432.971662 
L 232.944018 432.971662 
L 232.944018 329.279847 
L 233.921957 432.971662 
L 233.996566 432.971662 
L 234.218759 403.867911 
L 234.479832 432.971662 
L 235.48931 432.971662 
L 235.93593 399.737902 
L 236.245583 432.971662 
L 237.357383 432.971662 
L 238.144279 330.729214 
L 238.303729 432.971662 
L 239.140955 432.971662 
L 239.211527 329.363582 
L 240.119281 432.971662 
L 240.178649 432.971662 
L 240.416145 403.472468 
L 240.67736 432.971662 
L 241.678642 432.971662 
L 242.13268 400.012078 
L 242.442904 432.971662 
L 243.543195 432.971662 
L 244.316056 330.807488 
L 244.473883 432.971662 
L 245.311395 432.971662 
L 245.311395 329.352574 
L 246.291432 432.971662 
L 246.351002 432.971662 
L 246.589324 403.293729 
L 246.850627 432.971662 
L 247.854483 432.971662 
L 248.309893 399.155053 
L 248.620531 432.971662 
L 249.726735 432.971662 
L 250.50622 330.774592 
L 250.663881 432.971662 
L 251.493793 432.971662 
L 251.493793 329.200273 
L 252.473794 432.971662 
L 252.533339 432.971662 
L 252.771515 402.912545 
L 253.032684 432.971662 
L 254.037311 432.971662 
L 254.492488 399.33119 
L 254.802547 432.971662 
L 255.912502 432.971662 
L 256.598519 408.390127 
L 256.908277 412.143964 
L 257.518765 412.455326 
L 257.518765 413.435613 
L 257.811924 411.728064 
L 258.481981 412.424164 
L 258.649496 412.831483 
L 259.026401 414.588397 
L 258.984525 411.696382 
L 259.612705 412.075095 
L 259.696466 412.089355 
L 259.802024 432.971662 
L 260.49501 411.984469 
L 260.676274 412.437426 
L 261.111314 412.673548 
L 261.111314 414.627621 
L 261.836384 412.098803 
L 262.090162 413.306847 
L 262.126415 413.306847 
L 262.126415 412.093039 
L 262.443872 432.971662 
L 263.121283 412.822468 
L 263.550078 412.565239 
L 263.550078 414.698787 
L 264.223905 412.112109 
L 264.530186 412.832566 
L 264.560816 412.832566 
L 264.685745 432.971662 
L 265.338824 412.47574 
L 265.538853 413.034145 
L 266.013909 413.62419 
L 266.463958 432.971662 
L 266.063906 412.335141 
L 266.995112 413.804879 
L 267.208276 412.981703 
L 267.886495 432.971662 
L 268.205176 415.67552 
L 268.260192 416.188331 
L 268.301454 413.995622 
L 268.920311 432.971662 
L 269.164337 432.971662 
L 270.184602 432.971662 
L 270.184602 300.296324 
L 271.15364 411.515736 
L 271.351176 411.286809 
L 271.351176 403.399178 
L 271.443541 432.971662 
L 272.347527 432.971662 
L 272.576502 432.971662 
L 272.982827 399.904289 
L 273.291565 432.971662 
L 274.373622 432.971662 
L 275.147583 398.587415 
L 275.292849 432.971662 
L 276.211429 432.971662 
L 276.211429 300.208429 
L 277.181596 411.006003 
L 277.379134 411.354551 
L 277.379134 404.023332 
L 277.471567 432.971662 
L 278.376956 432.971662 
L 278.606789 432.971662 
L 279.013749 400.89008 
L 279.322678 432.971662 
L 280.405918 432.971662 
L 281.182576 398.492585 
L 281.328433 432.971662 
L 282.237253 432.971662 
L 282.237253 296.213081 
L 283.154213 432.971662 
L 283.240327 432.971662 
L 283.422974 404.047863 
L 283.693398 432.971662 
L 284.643168 432.971662 
L 285.057218 401.331725 
L 285.365357 432.971662 
L 286.437304 432.971662 
L 287.159499 398.513259 
L 287.352766 432.971662 
L 288.279879 432.971662 
L 288.279879 300.568159 
L 289.247005 411.226522 
L 289.314415 411.226522 
L 289.541361 432.971662 
L 289.44923 403.728526 
L 290.306247 432.971662 
L 290.672891 432.971662 
L 291.082424 400.168452 
L 291.390605 432.971662 
L 292.496056 432.971662 
L 292.496056 399.604629 
L 293.462952 412.184488 
L 294.495133 412.505385 
L 295.271251 413.474923 
L 294.927099 411.682469 
L 295.491927 412.345803 
L 296.020154 412.277281 
L 296.435681 432.971662 
L 296.06414 411.823241 
L 296.982657 412.329854 
L 297.099389 412.707831 
L 297.138296 414.071643 
L 297.255029 411.91287 
L 298.086454 412.17751 
L 298.123829 412.17751 
L 298.697821 412.037129 
L 299.079893 432.971662 
L 299.176769 432.971662 
L 300.037062 412.186568 
L 300.16397 412.686767 
L 300.290874 413.545743 
L 300.290874 414.760635 
L 300.48123 412.201044 
L 301.2905 412.860608 
L 301.322939 412.860608 
L 301.387812 432.971662 
L 301.860078 412.225012 
L 302.316088 413.233081 
L 302.394326 412.827972 
L 303.359452 432.971662 
L 302.550809 412.394042 
L 303.380799 415.670406 
L 303.402159 415.670406 
L 303.700524 412.791349 
L 304.097794 416.067843 
L 304.386109 413.137254 
L 304.636698 413.43466 
L 304.803745 432.971662 
L 304.657571 413.092656 
L 305.624963 413.84809 
L 305.64005 413.84809 
L 305.881558 432.971662 
L 306.140993 432.971662 
L 307.112373 432.971662 
L 307.112373 398.384926 
L 308.108512 415.578956 
L 308.184781 415.578956 
L 308.350697 432.971662 
L 308.261057 410.370363 
L 309.087275 432.971662 
L 309.461607 432.971662 
L 309.829639 400.757066 
L 310.141341 432.971662 
L 311.232102 432.971662 
L 311.987166 364.136597 
L 312.118788 432.971662 
L 313.071813 432.971662 
L 313.071813 399.849896 
L 314.035346 415.948698 
L 314.095276 415.948698 
L 314.304765 432.971662 
L 314.215135 410.65078 
L 315.041061 432.971662 
L 315.408461 432.971662 
L 315.783984 401.50938 
L 316.097962 432.971662 
L 317.201738 432.971662 
L 317.948861 364.088402 
L 318.079751 432.971662 
L 319.032651 432.971662 
L 319.032651 400.740881 
L 319.996295 415.716824 
L 320.17662 415.690603 
L 320.17662 410.808411 
L 320.265984 432.971662 
L 321.154477 432.971662 
L 321.422595 432.971662 
L 321.743178 402.022494 
L 322.055233 432.971662 
L 323.141634 432.971662 
L 323.901965 363.996085 
L 324.03311 432.971662 
L 324.958591 432.971662 
L 324.958591 398.400789 
L 325.89274 432.971662 
L 325.968419 432.971662 
L 326.134415 410.298677 
L 326.960359 432.971662 
L 327.33282 432.971662 
L 327.702278 400.629167 
L 328.014377 432.971662 
L 329.104706 432.971662 
L 329.104706 364.308141 
L 330.073965 411.785924 
L 330.886705 412.046014 
L 330.886705 432.971662 
L 331.624003 411.710121 
L 331.860023 412.452769 
L 332.318369 411.491162 
L 333.09967 432.971662 
L 333.312399 412.299602 
L 333.480636 412.742807 
L 333.936089 432.971662 
L 334.45103 411.739289 
L 334.49343 411.739289 
L 334.49343 414.655879 
L 335.469054 412.437036 
L 335.765568 412.303503 
L 335.871838 432.971662 
L 336.089532 411.843958 
L 336.749915 412.549333 
L 337.341535 412.706227 
L 338.244049 432.971662 
L 337.408396 412.256348 
L 338.334114 412.617248 
L 338.512698 413.26524 
L 338.83519 432.971662 
L 339.487273 412.25314 
L 339.653382 412.455803 
L 340.152613 432.971662 
L 340.65332 413.290204 
L 340.684965 413.101801 
L 340.684965 432.971662 
L 341.065257 412.46031 
L 341.677458 430.711762 
L 341.701177 430.711762 
L 341.724913 432.971662 
L 341.823584 413.505219 
L 342.690533 414.311492 
L 342.827353 414.287784 
L 342.897106 432.971662 
L 343.139097 432.971662 
L 344.346202 432.971662 
L 344.487929 398.552786 
L 345.284422 432.971662 
L 345.659282 432.971662 
L 345.995722 401.404538 
L 346.314491 432.971662 
L 347.401603 432.971662 
L 348.093298 329.302081 
L 348.386071 432.971662 
L 349.102081 432.971662 
L 349.102081 398.476029 
L 350.043277 432.971662 
L 350.449677 432.971662 
L 350.756191 401.907857 
L 351.073191 432.971662 
L 352.145562 432.971662 
L 352.843343 329.7491 
L 353.136706 432.971662 
L 353.847004 432.971662 
L 353.847004 398.489811 
L 354.79587 432.971662 
L 355.185542 432.971662 
L 355.508384 401.505826 
L 355.826791 432.971662 
L 356.903031 432.971662 
L 357.600257 330.330693 
L 357.893058 432.971662 
L 358.610025 432.971662 
L 358.610025 398.425927 
L 359.550628 432.971662 
L 359.924761 432.971662 
L 360.26253 401.301516 
L 360.580479 432.971662 
L 361.675269 432.971662 
L 362.356784 329.647942 
L 362.658884 411.919718 
L 363.051147 412.022999 
L 363.051147 413.154243 
L 364.044296 410.753585 
L 364.092681 410.753585 
L 364.141085 413.329818 
L 365.053489 412.40492 
L 365.59213 411.678265 
L 365.655816 432.971662 
L 366.588626 412.290284 
L 367.117297 412.425941 
L 367.117297 413.368825 
L 367.286438 411.832819 
L 368.114814 412.661673 
L 368.427512 411.956774 
L 368.491186 432.971662 
L 369.398505 412.669084 
L 369.741931 412.897188 
L 369.741931 414.648815 
L 370.283069 412.095682 
L 370.728779 412.146435 
L 370.812463 412.596141 
L 370.926591 432.971662 
L 371.591751 412.199354 
L 371.79526 412.204642 
L 371.936544 412.425898 
L 372.297272 412.275764 
L 372.898342 432.276359 
L 372.987085 432.971662 
L 373.959037 412.717973 
L 373.982996 414.69857 
L 374.007115 414.69857 
L 374.007115 412.617508 
L 374.5338 432.971662 
L 374.996712 413.602649 
L 375.083974 414.547137 
L 375.579886 432.971662 
L 375.449701 413.222159 
L 376.024042 432.971662 
L 376.975418 432.971662 
L 376.975418 363.996259 
L 377.830905 432.971662 
L 378.269335 432.971662 
L 378.515389 402.65991 
L 378.839656 432.971662 
L 379.867891 432.971662 
L 380.471029 364.310394 
L 380.779898 432.971662 
L 381.620008 432.971662 
L 381.620008 363.856441 
L 382.477652 432.971662 
L 382.917187 432.971662 
L 383.163615 402.872238 
L 383.487713 432.971662 
L 384.518832 432.971662 
L 385.118207 364.524499 
L 385.42617 432.971662 
L 386.275021 432.971662 
L 386.275021 363.896401 
L 387.128238 432.971662 
L 387.51269 432.971662 
L 387.813092 401.751656 
L 388.137279 432.971662 
L 389.16707 432.971662 
L 389.766773 364.737997 
L 390.075087 432.971662 
L 390.922001 432.971662 
L 390.922001 363.853233 
L 391.775896 432.971662 
L 392.159838 432.971662 
L 392.46079 401.975469 
L 392.784944 432.971662 
L 393.813763 432.971662 
L 394.413163 364.787232 
L 394.787588 411.852583 
L 395.308901 411.619018 
L 395.308901 432.971662 
L 396.191278 399.287979 
L 396.285179 411.569219 
L 396.95324 411.833946 
L 397.00014 399.623222 
L 397.777887 432.971662 
L 397.913699 413.026214 
L 398.005981 412.08372 
L 398.497427 411.984816 
L 398.507756 432.971662 
L 398.98723 412.056329 
L 399.322943 412.686897 
L 399.322943 414.724402 
L 400.227829 411.778339 
L 400.320758 412.099583 
L 400.573205 412.277325 
L 400.678962 432.971662 
L 400.717094 411.878284 
L 401.538369 412.345847 
L 401.684204 413.056726 
L 402.00764 414.705592 
L 402.436979 411.911613 
L 402.665314 412.289893 
L 402.90186 412.561858 
L 403.116382 432.971662 
L 403.809128 412.211923 
L 403.901238 412.908543 
L 404.808337 413.543272 
L 405.281181 432.971662 
L 404.842195 412.182581 
L 405.799014 412.280705 
L 405.938422 413.156627 
L 406.536395 412.502741 
L 406.918599 432.971662 
L 407.004168 432.971662 
L 407.440976 412.889126 
L 407.995825 413.267623 
L 408.102007 413.506216 
L 408.202853 432.971662 
L 409.075317 432.971662 
L 409.262956 432.971662 
L 409.302475 363.933674 
L 410.160537 432.971662 
L 410.303398 432.971662 
L 410.476676 398.470308 
L 411.284944 432.971662 
L 411.324008 432.971662 
L 411.479874 363.998773 
L 412.221065 432.971662 
L 412.367228 432.971662 
L 412.536379 398.403953 
L 413.347197 432.971662 
L 413.38623 432.971662 
L 413.425259 364.146392 
L 414.282361 432.971662 
L 414.425057 432.971662 
L 414.529002 398.478326 
L 415.406288 432.971662 
L 415.445629 432.971662 
L 415.603246 363.824022 
L 416.34053 432.971662 
L 416.492331 432.971662 
L 417.162485 398.497353 
L 417.485955 400.143054 
L 417.511845 400.143054 
L 418.341232 413.902743 
L 418.226726 398.811402 
L 418.494809 403.023498 
L 418.520615 403.023498 
L 419.292899 398.745003 
L 418.778745 413.656869 
L 419.512326 409.801599 
L 419.538202 409.801599 
L 420.356496 398.645709 
L 420.470299 413.816234 
L 420.520814 412.537891 
L 420.571329 411.726287 
L 421.516137 398.861851 
L 420.979794 432.971662 
L 421.556179 414.011745 
L 421.716355 413.800761 
L 422.409553 399.170309 
L 422.15538 415.221003 
L 422.699491 413.04225 
L 422.779353 413.275165 
L 423.119017 414.890571 
L 423.397647 399.648403 
L 423.769915 414.799728 
L 423.809944 414.956406 
L 424.475383 398.932193 
L 424.128791 415.106366 
L 424.793895 413.162478 
L 424.903652 413.065654 
L 424.987635 432.971662 
L 425.574095 398.803514 
L 425.899991 414.49088 
L 425.970815 415.089636 
L 426.383486 432.971662 
L 426.305934 398.941598 
L 426.963298 432.971662 
L 427.068295 432.971662 
L 427.233298 398.832379 
L 428.062151 403.09111 
L 428.078906 403.328099 
L 428.894259 398.445994 
L 428.575025 432.971662 
L 429.078276 414.899933 
L 429.149053 415.436321 
L 429.703552 432.971662 
L 429.754494 399.25569 
L 430.141863 416.633313 
L 430.158516 416.902548 
L 430.233462 432.971662 
L 430.727258 398.646272 
L 431.149028 412.855797 
L 431.201643 412.829576 
L 431.985365 432.971662 
L 431.606758 408.048152 
L 432.193914 414.702384 
L 432.330148 415.12743 
L 432.389577 432.971662 
L 432.65408 412.360409 
L 433.145087 432.971662 
L 434.007825 432.971662 
L 434.108658 329.657434 
L 434.932211 432.971662 
L 435.064086 432.971662 
L 435.178003 294.569416 
L 436.001804 432.971662 
L 436.130747 432.971662 
L 436.233099 329.705412 
L 437.057398 432.971662 
L 437.18905 432.971662 
L 437.227145 294.994158 
L 438.126042 432.971662 
L 438.255575 432.971662 
L 438.361589 330.038661 
L 439.184054 432.971662 
L 439.314455 432.971662 
L 439.314455 294.579818 
L 440.251527 432.971662 
L 440.381134 432.971662 
L 440.41454 329.777055 
L 441.307186 432.971662 
L 441.438034 432.971662 
L 441.438034 295.093495 
L 442.436121 399.300115 
L 442.493199 398.776079 
L 442.65578 414.07524 
L 443.463069 364.134514 
L 443.491853 367.909779 
L 443.52063 367.909779 
L 443.634429 413.753953 
L 443.91595 364.13339 
L 444.514989 364.562986 
L 444.57209 364.331458 
L 445.424039 414.117151 
L 445.563112 400.848341 
L 445.590922 400.848341 
L 445.618734 364.226486 
L 445.944263 432.971662 
L 446.58442 413.467859 
L 446.606208 413.467859 
L 447.188594 414.933045 
L 447.460148 399.063646 
L 447.605003 413.070465 
L 447.801177 412.851073 
L 448.178138 414.934302 
L 448.480573 399.036341 
L 448.795143 412.71827 
L 448.863015 413.644247 
L 448.863015 414.748485 
L 449.501766 398.842477 
L 449.856071 413.609497 
L 450.022028 413.037266 
L 450.0905 432.971662 
L 450.675943 398.51872 
L 451.013578 413.807089 
L 451.217666 414.455644 
L 451.545761 432.971662 
L 451.482078 398.768104 
L 452.214771 432.545243 
L 452.363488 432.971662 
L 452.479819 398.829648 
L 453.359984 407.487768 
L 453.370279 407.487768 
L 454.282837 398.836633 
L 453.988932 432.971662 
L 454.369627 414.107009 
L 454.834214 415.033711 
L 455.152949 432.971662 
L 455.214988 398.835289 
L 455.82929 432.971662 
L 455.971249 432.971662 
L 456.087143 398.512739 
L 456.960836 424.006486 
L 456.974329 424.006486 
L 457.174559 411.353424 
L 457.594486 432.971662 
L 457.967309 429.477184 
L 457.984004 429.477184 
L 458.017405 432.971662 
L 458.189049 414.739687 
L 458.90367 432.971662 
L 459.755963 432.971662 
L 459.755963 88.119352 
L 460.554547 432.971662 
L 460.925931 432.971662 
L 461.231367 331.179613 
L 461.574773 432.971662 
L 463.697256 432.971662 
L 464.090172 364.583183 
L 464.433782 432.971662 
L 465.675435 432.971662 
L 465.751376 88.931562 
L 466.475769 432.971662 
L 466.847457 432.971662 
L 467.15429 364.433223 
L 467.497769 432.971662 
L 469.111119 432.971662 
L 469.111119 88.294883 
L 469.913204 432.971662 
L 470.285476 432.971662 
L 470.59331 365.330295 
L 470.936955 432.971662 
L 472.550463 432.971662 
L 472.626977 88.997441 
L 473.352518 432.971662 
L 473.724818 432.971662 
L 474.032642 365.26381 
L 474.693855 432.971662 
L 474.815082 432.971662 
L 475.213821 364.622623 
L 475.557621 432.971662 
L 476.484038 432.971662 
L 476.883312 364.527273 
L 477.227104 432.971662 
L 478.826359 432.971662 
L 479.227792 365.153117 
L 479.809007 413.004067 
L 479.961671 413.779254 
L 479.961671 432.971662 
L 480.031625 399.00908 
L 480.945555 412.815013 
L 481.023106 412.837897 
L 481.023106 432.971662 
L 481.106007 398.676134 
L 482.021671 412.820604 
L 482.07336 413.050182 
L 482.150897 398.960841 
L 482.153481 432.971662 
L 483.069487 413.121868 
L 483.120115 413.929657 
L 483.170744 399.2898 
L 483.199354 432.971662 
L 484.119181 405.504988 
L 484.137838 405.504988 
L 484.156483 398.906925 
L 485.024592 432.971662 
L 485.130118 399.528262 
L 485.18031 399.528262 
L 485.83995 415.731152 
L 485.253049 399.114399 
L 486.154698 410.940818 
L 486.227555 410.940818 
L 487.20243 398.719129 
L 486.534566 414.933392 
L 487.221257 413.801671 
L 487.353114 414.597716 
L 487.430716 432.971662 
L 488.235996 398.681855 
L 488.340989 414.813727 
L 488.445985 414.633472 
L 488.806549 432.971662 
L 489.201596 398.561021 
L 489.43681 415.745126 
L 489.66326 416.732954 
L 489.66326 417.029537 
L 490.166454 398.535493 
L 490.653288 415.033596 
L 490.79354 414.549813 
L 491.130907 398.78128 
L 491.314444 432.971662 
L 491.659884 432.971662 
L 492.876723 432.971662 
L 492.876723 398.490158 
L 493.721616 432.971662 
L 494.158025 432.971662 
L 494.395271 403.941287 
L 494.955324 432.971662 
L 496.415546 432.971662 
L 496.686698 364.095336 
L 497.274682 432.971662 
L 497.666332 432.971662 
L 497.742416 398.478933 
L 498.511834 432.971662 
L 498.946039 432.971662 
L 499.186142 374.787911 
L 499.59224 432.971662 
L 500.652326 432.971662 
L 500.6972 90.17805 
L 501.491263 432.971662 
L 501.929751 432.971662 
L 502.166167 403.534272 
L 502.726108 432.971662 
L 504.193569 432.971662 
L 504.499079 364.39569 
L 505.054143 432.971662 
L 505.444191 432.971662 
L 505.521438 398.496573 
L 506.29122 432.971662 
L 506.726764 432.971662 
L 506.965843 404.080455 
L 507.526194 432.971662 
L 508.994552 432.971662 
L 509.265481 364.271734 
L 509.70151 432.971662 
L 511.370361 432.971662 
L 511.405359 364.200482 
L 512.357361 412.919118 
L 512.487157 413.2092 
L 512.544493 398.643412 
L 512.581607 432.971662 
L 513.475326 412.660733 
L 513.506728 413.261902 
L 513.506728 432.971662 
L 513.638505 398.733518 
L 514.490027 413.445668 
L 514.618879 412.539451 
L 514.675599 398.975751 
L 514.71204 432.971662 
L 515.614174 413.282422 
L 515.698353 412.922542 
L 515.768762 398.794715 
L 515.777201 432.971662 
L 516.697868 407.618252 
L 516.719779 407.618252 
L 516.741697 399.212609 
L 517.585558 432.971662 
L 517.706256 402.258659 
L 517.730409 402.258659 
L 517.826382 398.844688 
L 518.456882 415.818242 
L 518.718928 399.243078 
L 518.814364 399.243078 
L 519.113969 415.728916 
L 519.802816 401.738784 
L 519.826239 401.738784 
L 520.013968 432.971662 
L 520.807739 399.163504 
L 520.823583 416.635784 
L 520.839433 416.635784 
L 521.51827 399.969907 
L 521.382367 432.971662 
L 521.837839 414.316736 
L 521.914832 415.307208 
L 522.023033 417.415662 
L 522.451434 399.647233 
L 522.910964 414.752226 
L 522.935755 414.424178 
L 523.792322 432.971662 
L 523.382405 399.733222 
L 523.897088 432.971662 
L 525.587208 432.971662 
L 525.814321 329.91787 
L 526.584795 432.971662 
L 526.732311 432.971662 
L 526.732311 398.504591 
L 527.694538 432.971662 
L 527.845906 432.971662 
L 527.881622 329.716594 
L 528.808594 432.971662 
L 528.994924 432.971662 
L 529.060325 398.516206 
L 529.956391 432.971662 
L 530.113316 432.971662 
L 530.290165 329.476572 
L 531.108097 432.971662 
L 531.256559 432.971662 
L 531.256559 398.487384 
L 532.219768 432.971662 
L 532.374827 432.971662 
L 532.600104 329.506867 
L 533.371067 432.971662 
L 533.51834 432.971662 
L 533.822947 398.44452 
L 534.493769 404.336601 
L 534.518497 404.336601 
L 535.288796 398.51898 
L 534.765783 414.58298 
L 535.51511 409.474158 
L 535.5399 409.474158 
L 536.358664 398.509315 
L 536.243591 432.971662 
L 536.534703 412.276154 
L 536.58522 412.583139 
L 537.428977 398.650173 
L 536.913568 413.946474 
L 537.580488 412.917211 
L 537.655515 412.542442 
L 538.513876 398.806807 
L 538.05562 432.971662 
L 538.639187 413.373245 
L 538.870463 413.270571 
L 539.588937 432.971662 
L 539.51719 398.903891 
L 539.854282 414.042431 
L 539.892503 414.371606 
L 540.385332 432.971662 
L 540.519229 398.711457 
L 540.878804 414.183549 
L 540.898277 414.183549 
L 541.594659 432.971662 
L 541.523167 398.720776 
L 541.879699 414.350195 
L 541.956794 413.462615 
L 542.692451 400.354969 
L 542.130248 432.971662 
L 542.95601 416.200033 
L 542.96942 416.200033 
L 543.617169 399.042713 
L 543.440936 427.303503 
L 543.961524 414.723881 
L 544.015303 415.444642 
L 544.229325 432.971662 
L 544.541316 398.890022 
L 545.011242 415.177879 
L 545.063722 415.332736 
L 545.881985 432.971662 
L 545.297868 399.288283 
L 545.984678 432.971662 
L 546.904888 432.971662 
L 547.07926 295.673745 
L 547.899249 432.971662 
L 548.071306 432.971662 
L 548.071306 363.987677 
L 549.049793 432.971662 
L 549.225308 432.971662 
L 549.259772 295.126261 
L 550.219497 432.971662 
L 550.392005 432.971662 
L 550.517763 363.936275 
L 551.370777 432.971662 
L 551.546901 432.971662 
L 551.719304 295.565219 
L 552.541817 432.971662 
L 552.718032 432.971662 
L 552.754264 364.168672 
L 553.692827 432.971662 
L 553.893224 432.971662 
L 554.041343 296.314498 
L 554.859567 432.971662 
L 555.032148 432.971662 
L 555.189945 364.010388 
L 556.023102 401.307627 
L 556.049142 401.307627 
L 556.463836 364.145959 
L 556.257525 414.573748 
L 557.0383 401.566969 
L 557.06369 401.566969 
L 557.06369 364.573301 
L 557.758782 432.971662 
L 558.062493 408.860709 
L 558.088789 408.860709 
L 558.141359 364.6052 
L 559.009756 413.499368 
L 559.067427 412.565326 
L 559.125113 411.703013 
L 559.209913 365.721838 
L 559.535438 432.971662 
L 560.109366 413.282186 
L 560.202799 413.161958 
L 560.928781 432.971662 
L 561.040125 398.9149 
L 561.179218 412.458923 
L 561.257755 413.050138 
L 561.918746 432.971662 
L 562.058255 398.502814 
L 562.249317 414.179128 
L 562.27733 414.179128 
L 563.076145 398.650997 
L 563.132419 432.971662 
L 563.276808 413.37979 
L 563.460372 413.588174 
L 563.671214 432.971662 
L 564.224893 400.361796 
L 564.450836 414.076627 
L 564.52595 414.840295 
L 564.890798 432.971662 
L 564.998639 400.906636 
L 565.521451 414.229664 
L 565.578336 414.675773 
L 565.8021 432.971662 
L 566.072929 401.13305 
L 566.572493 415.196862 
L 566.697187 414.586014 
L 567.012611 400.38169 
L 566.852202 432.971662 
L 567.541542 432.971662 
L 568.513513 432.971662 
L 568.629485 261.428363 
L 569.26474 432.971662 
L 569.70432 432.971662 
L 569.70432 329.529881 
L 570.457289 432.971662 
L 570.892566 432.971662 
L 570.892566 260.480278 
L 571.64215 432.971662 
L 572.081767 432.971662 
L 572.160781 329.511548 
L 572.829826 432.971662 
L 573.271847 432.971662 
L 573.387285 260.71627 
L 574.020107 432.971662 
L 574.4509 432.971662 
L 574.4509 329.554195 
L 575.211386 432.971662 
L 575.687645 432.971662 
L 575.764736 261.295306 
L 576.665879 432.971662 
L 576.835723 432.971662 
L 577.15231 329.546784 
L 577.812024 367.52049 
L 577.838893 367.52049 
L 578.245424 364.183839 
L 578.053803 413.94188 
L 578.82428 364.698557 
L 578.878034 364.375406 
L 579.119905 413.664237 
L 579.388651 363.948584 
L 579.868018 401.499195 
L 579.895081 401.499195 
L 579.922131 364.297045 
L 580.192676 414.495648 
L 580.87792 410.671973 
L 580.905288 410.671973 
L 580.987391 364.411379 
L 581.322974 432.971662 
L 581.897862 410.258327 
L 581.929859 410.258327 
L 582.195072 415.774121 
L 582.837043 398.796752 
L 582.915918 409.265081 
L 582.94222 409.265081 
L 583.901375 432.971662 
L 583.8787 399.241648 
L 583.932319 401.325094 
L 583.95967 401.325094 
L 584.635799 415.444296 
L 584.934695 398.591923 
L 584.94978 402.467693 
L 584.964866 402.467693 
L 584.964866 400.17426 
L 585.512561 432.971662 
L 585.964129 418.161647 
L 585.966828 418.161647 
L 586.060041 401.876608 
L 586.087587 421.065712 
L 586.958517 409.179742 
L 586.976247 409.179742 
L 587.836909 400.09915 
L 587.584897 417.075998 
L 587.971573 413.434183 
L 587.985724 413.434183 
L 587.985724 432.971662 
L 588.88475 402.739051 
L 588.982134 413.187486 
L 589.030759 413.097597 
L 589.322416 432.971662 
L 589.941717 432.971662 
L 590.392735 432.971662 
L 590.476873 295.456173 
L 591.296897 432.971662 
L 591.738456 432.971662 
L 592.088361 296.47174 
L 592.651571 432.971662 
L 595.356965 432.971662 
L 595.816244 364.405831 
L 596.227536 432.971662 
L 596.825493 432.971662 
L 596.91142 295.41838 
L 597.731982 432.971662 
L 598.172375 432.971662 
L 598.520443 330.678245 
L 599.082718 432.971662 
L 599.539866 432.971662 
L 599.539866 398.608826 
L 600.328191 432.971662 
L 600.768341 432.971662 
L 601.221718 364.731843 
L 601.631625 432.971662 
L 602.231893 432.971662 
L 602.231893 295.621389 
L 603.134581 432.971662 
L 603.57378 432.971662 
L 603.923065 330.274523 
L 604.485006 432.971662 
L 607.176158 432.971662 
L 607.632273 330.698658 
L 608.043237 432.971662 
L 608.633508 432.971662 
L 608.729375 295.667854 
L 609.546667 432.971662 
L 609.984902 432.971662 
L 610.333265 364.712686 
L 610.895905 432.971662 
L 613.608883 432.971662 
L 613.608883 398.8778 
L 614.601308 412.783331 
L 614.804499 412.87387 
L 614.866481 398.621915 
L 614.883602 432.971662 
L 615.77619 412.896711 
L 615.839518 413.520995 
L 615.902844 398.810795 
L 615.93163 432.971662 
L 616.819939 412.877078 
L 616.841647 412.877078 
L 617.709353 414.745292 
L 616.979678 398.788604 
L 617.84142 412.997349 
L 617.9431 412.483584 
L 618.010875 398.689007 
L 618.027502 432.971662 
L 618.942251 410.122756 
L 618.982894 410.122756 
L 618.982894 432.971662 
L 619.083285 403.016173 
L 619.980546 407.962857 
L 620.005581 407.702334 
L 620.030619 402.552641 
L 620.049602 420.522562 
L 621.003851 411.593187 
L 621.007031 411.593187 
L 621.843603 432.971662 
L 621.943597 402.971185 
L 621.990851 432.971662 
L 622.015742 432.971662 
L 622.065522 413.086458 
L 622.693346 432.971662 
L 626.07647 432.971662 
L 626.431056 369.02347 
L 627.039159 432.971662 
L 627.492397 432.971662 
L 627.591348 398.587372 
L 628.386013 432.971662 
L 628.831393 432.971662 
L 629.105016 371.858925 
L 629.717203 432.971662 
L 631.400545 432.971662 
L 631.755439 366.554766 
L 632.363267 432.971662 
L 632.81637 432.971662 
L 632.81637 398.57424 
L 633.710108 432.971662 
L 634.157345 432.971662 
L 634.428925 372.464573 
L 635.040808 432.971662 
L 637.769416 432.971662 
L 638.124129 368.438799 
L 638.7322 432.971662 
L 639.185571 432.971662 
L 639.185571 398.579701 
L 640.080705 432.971662 
L 640.526542 432.971662 
L 640.800535 373.583985 
L 641.412592 432.971662 
L 641.873382 432.971662 
L 641.873382 398.65143 
L 642.787848 432.971662 
L 644.148361 432.971662 
L 644.503273 368.174246 
L 645.11136 432.971662 
L 645.564476 432.971662 
L 645.564476 398.817989 
L 646.458019 432.971662 
L 646.905358 432.971662 
L 647.176832 282.401296 
L 647.883823 412.524493 
L 647.91144 412.524493 
L 648.680301 398.660835 
L 648.704843 432.971662 
L 648.88969 412.910103 
L 648.969268 412.381165 
L 649.761979 398.569299 
L 649.47462 413.947731 
L 649.942243 412.981703 
L 650.02447 412.148298 
L 650.819366 398.603148 
L 650.873515 432.971662 
L 651.001127 412.789615 
L 651.08316 412.702153 
L 651.134471 400.694179 
L 651.469587 432.971662 
L 652.081778 413.026864 
L 652.245853 413.517788 
L 652.850492 432.971662 
L 652.918686 404.945004 
L 653.234184 415.911667 
L 653.251521 415.911667 
L 653.826214 401.480688 
L 654.23739 413.673979 
L 654.359346 413.995492 
L 654.820029 432.971662 
L 654.774364 402.607329 
L 655.35176 430.341053 
L 655.369745 430.341053 
L 655.405735 432.971662 
L 656.348464 432.971662 
L 656.510962 432.971662 
L 656.545634 398.476462 
L 657.289432 432.971662 
L 657.791684 432.971662 
L 657.854329 398.624298 
L 658.514074 432.971662 
L 659.019712 432.971662 
L 659.225085 398.577924 
L 659.796373 432.971662 
L 660.30043 432.971662 
L 660.332359 398.558247 
L 661.022398 432.971662 
L 661.536898 432.971662 
L 661.611782 398.666296 
L 662.306261 432.971662 
L 662.809254 432.971662 
L 662.840643 398.468661 
L 663.533747 432.971662 
L 664.035905 432.971662 
L 664.28155 398.569906 
L 664.816747 432.971662 
L 665.326876 432.971662 
L 665.679777 364.580496 
L 666.326758 404.236006 
L 666.350435 404.236006 
L 667.089693 432.971662 
L 667.065597 398.781886 
L 667.331688 409.877489 
L 667.355552 409.877489 
L 668.116756 399.038639 
L 668.147699 432.971662 
L 668.350596 412.623273 
L 668.374788 412.623273 
L 669.206248 398.497266 
L 668.689393 414.58363 
L 669.35936 413.221162 
L 669.432748 413.202699 
L 670.261427 401.571357 
L 669.836366 432.971662 
L 670.415316 432.971662 
L 670.449075 432.971662 
L 671.264635 401.515621 
L 671.435638 411.661535 
L 671.480813 411.661535 
L 672.240848 432.971662 
L 672.248472 401.106308 
L 672.470036 414.485159 
L 672.488536 414.485159 
L 673.214792 400.942826 
L 673.234264 432.971662 
L 673.472632 413.73769 
L 673.600383 413.211237 
L 673.819389 432.971662 
L 674.519244 432.971662 
L 675.026052 432.971662 
L 675.223533 364.010041 
L 675.818415 432.971662 
L 676.320669 432.971662 
L 676.355194 364.02001 
L 677.087791 432.971662 
L 677.59516 432.971662 
L 677.792495 363.971641 
L 678.386037 432.971662 
L 678.888695 432.971662 
L 679.062207 364.154887 
L 679.656165 432.971662 
L 680.163482 432.971662 
L 680.163482 363.995739 
L 680.954005 432.971662 
L 681.456789 432.971662 
L 681.595581 364.027898 
L 682.223905 432.971662 
L 682.7315 432.971662 
L 682.7315 364.276935 
L 683.522694 432.971662 
L 684.025125 432.971662 
L 684.367479 330.362029 
L 685.003679 399.964376 
L 685.030274 399.964376 
L 685.741649 432.971662 
L 685.455392 399.065987 
L 686.016607 406.277628 
L 686.043161 406.277628 
L 686.521173 399.066073 
L 686.807345 432.971662 
L 687.038805 411.340639 
L 687.064617 411.340639 
L 687.142058 399.06603 
L 687.873903 432.971662 
L 688.042339 412.569313 
L 688.121944 412.030628 
L 688.999051 398.621048 
L 688.524838 432.971662 
L 689.050932 415.808655 
L 689.137167 415.808655 
L 689.137167 432.971662 
L 690.019898 401.318419 
L 690.054326 420.481908 
L 690.138715 420.481908 
L 690.138715 432.971662 
L 691.010389 400.848126 
L 691.133204 432.971662 
L 691.168424 432.971662 
L 692.008822 401.75274 
L 692.160113 432.971662 
L 692.18074 432.971662 
L 692.32513 413.085158 
L 693.122413 432.971662 
L 693.865188 432.971662 
L 693.991528 329.852468 
L 694.67074 432.971662 
L 695.197444 432.971662 
L 695.197444 329.276726 
L 695.984043 432.971662 
L 696.494979 432.971662 
L 696.620143 329.949596 
L 697.299362 432.971662 
L 697.827418 432.971662 
L 697.827418 329.697871 
L 698.61367 432.971662 
L 699.124288 432.971662 
L 699.165409 329.383215 
L 699.928985 432.971662 
L 700.458105 432.971662 
L 700.458105 329.46474 
L 701.241777 432.971662 
L 701.752682 432.971662 
L 701.835814 330.524297 
L 702.555777 432.971662 
L 703.059347 432.971662 
L 703.188947 329.554065 
L 704.044653 367.731647 
L 704.072757 367.731647 
L 704.796965 432.971662 
L 704.451548 364.433136 
L 705.062076 364.579282 
L 705.090153 364.579282 
L 705.87021 432.971662 
L 706.088822 404.622001 
L 706.116154 404.622001 
L 706.143474 364.184362 
L 707.026594 413.993542 
L 707.109598 410.67206 
L 707.137269 410.67206 
L 707.220276 364.397943 
L 707.608844 432.971662 
L 708.079286 432.971662 
L 708.188337 432.971662 
L 709.081275 406.169579 
L 709.187115 432.971662 
L 709.209321 432.971662 
L 710.104866 407.803492 
L 710.206713 432.971662 
L 710.229011 432.971662 
L 711.124014 398.623692 
L 711.212486 432.971662 
L 711.259169 432.971662 
L 711.259169 412.770242 
L 712.229774 432.971662 
L 713.020578 432.971662 
L 713.108059 124.913792 
L 714.001758 432.971662 
L 714.518512 432.971662 
L 714.891649 295.968811 
L 715.504899 432.971662 
L 718.511934 432.971662 
L 718.990114 330.036321 
L 719.467722 432.971662 
L 720.110799 432.971662 
L 720.168986 124.519432 
L 721.091406 432.971662 
L 721.609341 432.971662 
L 721.983093 329.305591 
L 722.594213 432.971662 
L 724.419233 432.971662 
L 724.89934 330.374381 
L 725.37715 432.971662 
L 726.019871 432.971662 
L 726.048959 94.48528 
L 727.003454 432.971662 
L 727.521583 432.971662 
L 727.897879 329.491264 
L 728.516306 432.971662 
L 731.501946 432.971662 
L 731.98628 329.740518 
L 732.464341 432.971662 
L 733.107936 432.971662 
L 733.193826 122.882312 
L 734.096912 432.971662 
L 734.613715 432.971662 
L 734.990107 364.488179 
L 735.608784 432.971662 
L 738.613292 432.971662 
L 738.613292 398.768711 
L 739.590101 414.77272 
L 739.639577 414.402768 
L 740.556105 412.032404 
L 739.804938 432.971662 
L 740.629926 414.721974 
L 740.654524 414.721974 
L 741.333409 411.851065 
L 740.844156 432.971662 
L 741.634024 412.175948 
L 741.65953 412.175948 
L 741.968631 432.971662 
L 741.908404 403.519016 
L 742.639958 413.675289 
L 742.662215 413.675289 
L 742.946507 403.837616 
L 742.682424 432.971662 
L 743.463843 432.971662 
L 744.926227 432.971662 
L 745.219812 364.419527 
L 745.847035 432.971662 
L 746.354615 432.971662 
L 746.354615 398.565225 
L 747.218864 432.971662 
L 747.74878 432.971662 
L 747.993986 363.997386 
L 748.66957 432.971662 
L 749.177147 432.971662 
L 749.203532 398.65273 
L 750.041895 432.971662 
L 750.571529 432.971662 
L 750.86732 364.065431 
L 751.487338 432.971662 
L 751.995348 432.971662 
L 752.143427 398.675744 
L 752.867832 432.971662 
L 753.413145 432.971662 
L 753.691687 364.070199 
L 754.310931 432.971662 
L 754.83763 432.971662 
L 755.062739 330.93634 
L 755.837303 400.581513 
L 755.923708 399.85384 
L 756.463503 414.715993 
L 756.605534 399.017705 
L 756.920649 399.825885 
L 756.978279 400.322009 
L 757.517917 414.840989 
L 757.659986 399.051858 
L 757.958621 399.944076 
L 757.989955 399.944076 
L 758.073365 432.971662 
L 758.395486 399.558081 
L 758.972077 406.605416 
L 759.001279 406.605416 
L 759.030472 399.618931 
L 759.322739 432.971662 
L 759.854176 432.971662 
L 760.630016 432.971662 
L 760.776788 364.270781 
L 761.462939 432.971662 
L 762.016928 432.971662 
L 762.107079 364.202475 
L 762.853458 432.971662 
L 763.405935 432.971662 
L 763.553536 330.263861 
L 764.253915 432.971662 
L 764.796541 432.971662 
L 764.842381 364.403838 
L 765.63644 432.971662 
L 766.183126 432.971662 
L 766.212589 364.201869 
L 767.028404 432.971662 
L 767.573492 432.971662 
L 767.664278 364.109466 
L 768.412632 432.971662 
L 768.960545 432.971662 
L 768.989673 364.148559 
L 769.800617 432.971662 
L 770.348816 432.971662 
L 770.460935 363.979529 
L 771.312934 364.158354 
L 771.358096 364.158354 
L 771.725306 432.971662 
L 772.317525 404.776512 
L 772.371922 404.776512 
L 772.84915 364.358503 
L 772.638257 414.775804 
L 773.367389 407.820481 
L 773.388972 407.820481 
L 773.525989 363.797584 
L 773.730548 414.787679 
L 774.369602 413.397776 
L 774.410902 412.996655 
L 774.55008 365.072936 
L 774.839217 432.971662 
L 775.367475 432.971662 
L 777.681509 432.971662 
L 777.762231 329.396217 
L 778.52221 432.971662 
L 780.318364 432.971662 
L 780.318364 331.643276 
L 781.018718 432.971662 
L 782.623627 432.971662 
L 782.623627 329.099245 
L 783.354394 432.971662 
L 785.518461 432.971662 
L 785.698968 225.158956 
L 786.220358 432.971662 
L 787.41557 432.971662 
L 787.41557 398.454185 
L 787.968281 432.971662 
L 789.506156 432.971662 
L 789.506156 329.194552 
L 790.260786 432.971662 
L 792.129894 432.971662 
L 792.129894 329.721405 
L 793.063811 432.971662 
" clip-path="url(#p7a0ae61a0a)" style="fill: none; stroke: #000000; stroke-width: 0.5; stroke-linecap: square"/>
   </g>
   <g id="patch_3">
    <path d="M 34.121875 450.214277 
L 34.121875 70.876736 
" style="fill: none; stroke: #000000; stroke-width: 0.8; stroke-linejoin: miter; stroke-linecap: square"/>
   </g>
   <g id="patch_4">
    <path d="M 829.203903 450.214277 
L 829.203903 70.876736 
" style="fill: none; stroke: #000000; stroke-width: 0.8; stroke-linejoin: miter; stroke-linecap: square"/>
   </g>
   <g id="patch_5">
    <path d="M 34.121875 450.214277 
L 829.203903 450.214277 
" style="fill: none; stroke: #000000; stroke-width: 0.8; stroke-linejoin: miter; stroke-linecap: square"/>
   </g>
   <g id="patch_6">
    <path d="M 34.121875 70.876736 
L 829.203903 70.876736 
" style="fill: none; stroke: #000000; stroke-width: 0.8; stroke-linejoin: miter; stroke-linecap: square"/>
   </g>
   <g id="text_17">
    <!-- 主轴功率预测 -->
    <g transform="translate(389.662889 18.410937) scale(0.14 -0.14)">
     <defs>
      <path id="SimHei-4e3b" d="M 4750 3850 
Q 5150 3850 5750 3875 
L 5750 3400 
Q 5150 3425 4750 3425 
L 3425 3425 
L 3425 2175 
L 4425 2175 
Q 4825 2175 5375 2200 
L 5375 1725 
Q 4825 1750 4425 1750 
L 3425 1750 
L 3425 150 
L 5000 150 
Q 5450 150 6050 175 
L 6050 -300 
Q 5450 -275 5000 -275 
L 350 -275 
L 350 200 
Q 950 150 1425 150 
L 2900 150 
L 2900 1750 
L 1925 1750 
Q 1525 1750 975 1725 
L 975 2200 
Q 1575 2175 1925 2175 
L 2900 2175 
L 2900 3425 
L 1650 3425 
Q 1125 3425 625 3400 
L 625 3875 
Q 1175 3850 1675 3850 
L 4750 3850 
z
M 3175 3900 
Q 2875 4350 2400 4875 
Q 2650 5050 2800 5200 
Q 3325 4600 3625 4175 
Q 3475 4100 3175 3900 
z
" transform="scale(0.015625)"/>
      <path id="SimHei-8f74" d="M 4200 3900 
Q 4200 4775 4175 5175 
L 4700 5175 
Q 4675 4800 4675 3900 
L 5950 3900 
Q 5925 3025 5925 1675 
Q 5925 325 5950 -525 
L 5450 -525 
L 5450 100 
L 3425 100 
L 3425 -575 
L 2950 -575 
Q 2975 325 2975 1675 
Q 2975 3025 2950 3900 
L 4200 3900 
z
M 2725 950 
Q 2250 900 2075 875 
Q 2075 200 2100 -600 
L 1575 -600 
Q 1600 200 1600 800 
Q 700 650 450 575 
Q 400 800 275 1075 
Q 700 1100 1600 1250 
L 1600 2075 
L 1100 2075 
Q 850 2075 525 2000 
L 300 2475 
Q 525 2600 700 3025 
Q 875 3450 1025 3925 
Q 700 3925 325 3900 
L 325 4350 
Q 700 4325 1125 4325 
Q 1300 4825 1375 5250 
Q 1625 5150 1925 5100 
Q 1825 4925 1600 4325 
Q 2175 4325 2750 4350 
L 2750 3900 
Q 2200 3925 1475 3925 
Q 1150 3000 925 2475 
L 1600 2475 
Q 1600 3050 1575 3400 
L 2100 3400 
Q 2075 3100 2075 2475 
Q 2425 2475 2625 2500 
L 2625 2050 
Q 2450 2075 2075 2075 
L 2075 1300 
L 2775 1400 
Q 2725 1175 2725 950 
z
M 4200 525 
L 4200 1850 
L 3425 1850 
L 3425 525 
L 4200 525 
z
M 5450 525 
L 5450 1850 
L 4675 1850 
L 4675 525 
L 5450 525 
z
M 4200 2250 
L 4200 3475 
L 3425 3475 
L 3425 2250 
L 4200 2250 
z
M 5450 2250 
L 5450 3475 
L 4675 3475 
L 4675 2250 
L 5450 2250 
z
" transform="scale(0.015625)"/>
      <path id="SimHei-9884" d="M 5200 4800 
Q 5575 4800 5950 4825 
L 5950 4400 
Q 5575 4425 5200 4425 
L 4500 4425 
Q 4425 4050 4350 3600 
L 5725 3600 
Q 5700 3225 5700 2800 
L 5700 1725 
Q 5700 1300 5725 850 
L 5250 850 
L 5250 3225 
L 3550 3225 
L 3550 800 
L 3075 800 
Q 3100 1375 3100 1725 
L 3100 2775 
Q 3100 3175 3075 3600 
L 3900 3600 
Q 4000 4150 4000 4425 
L 3725 4425 
Q 3300 4425 2850 4400 
L 2850 4825 
Q 3325 4800 3725 4800 
L 5200 4800 
z
M 2600 1775 
Q 2350 1825 2150 1825 
Q 2250 2250 2300 2450 
L 1750 2450 
L 1750 125 
Q 1725 -300 1425 -400 
Q 1125 -500 750 -500 
Q 700 -225 575 25 
Q 1125 -25 1212 37 
Q 1300 100 1300 350 
L 1300 2450 
L 1025 2450 
Q 700 2450 350 2425 
L 350 2850 
Q 700 2825 1000 2825 
L 2850 2825 
Q 2725 2325 2600 1775 
z
M 4725 2875 
Q 4625 2575 4600 2100 
Q 4575 1625 4462 1037 
Q 4350 450 3962 62 
Q 3575 -325 2925 -675 
Q 2700 -500 2475 -350 
Q 3075 -125 3437 200 
Q 3800 525 3950 937 
Q 4100 1350 4137 1850 
Q 4175 2350 4175 2925 
L 4725 2875 
z
M 1625 2900 
Q 1275 3275 800 3650 
Q 925 3775 1075 3950 
Q 1250 3825 1425 3675 
Q 1750 4150 1950 4375 
L 1400 4375 
Q 900 4375 450 4350 
L 450 4775 
Q 900 4750 1375 4750 
L 2575 4750 
L 2575 4375 
Q 2200 4100 1725 3400 
L 1950 3200 
Q 1750 3025 1625 2900 
z
M 4775 725 
Q 5725 0 6075 -325 
Q 5850 -500 5725 -650 
Q 5400 -325 5137 -87 
Q 4875 150 4525 350 
Q 4650 525 4775 725 
z
" transform="scale(0.015625)"/>
      <path id="SimHei-6d4b" d="M 4025 4725 
Q 4000 4475 4000 4000 
L 4000 2225 
Q 4000 1775 4025 1350 
L 3550 1350 
L 3550 4325 
L 2350 4325 
L 2350 1325 
L 1900 1325 
Q 1925 1775 1925 2225 
L 1925 4000 
Q 1925 4200 1900 4725 
L 4025 4725 
z
M 5900 5075 
Q 5875 4800 5875 4375 
L 5875 0 
Q 5875 -325 5650 -425 
Q 5425 -525 4975 -600 
Q 4925 -325 4775 -50 
Q 5125 -50 5262 -25 
Q 5400 0 5400 250 
L 5400 4375 
Q 5400 4775 5375 5075 
L 5900 5075 
z
M 3275 3725 
Q 3225 3400 3200 2325 
Q 3175 1250 2837 550 
Q 2500 -150 2075 -600 
Q 1850 -400 1600 -325 
Q 2200 250 2475 962 
Q 2750 1675 2762 2475 
Q 2775 3275 2725 3800 
Q 3000 3750 3275 3725 
z
M 4950 4275 
Q 4925 4000 4925 3575 
L 4925 1825 
Q 4925 1300 4950 850 
L 4450 850 
Q 4475 1150 4475 1825 
L 4475 3575 
Q 4475 4000 4450 4275 
L 4950 4275 
z
M 1700 1675 
Q 1375 1075 1112 487 
Q 850 -100 725 -400 
Q 500 -200 200 -25 
Q 475 300 762 850 
Q 1050 1400 1250 2000 
Q 1475 1825 1700 1675 
z
M 3400 1050 
Q 3800 650 4300 -125 
Q 4100 -225 3875 -450 
Q 3475 275 3025 750 
Q 3225 875 3400 1050 
z
M 600 3525 
Q 1125 3125 1500 2775 
Q 1300 2575 1150 2375 
Q 825 2775 300 3150 
Q 450 3300 600 3525 
z
M 1350 4000 
Q 950 4375 475 4675 
Q 625 4850 775 5050 
Q 1300 4700 1675 4375 
Q 1500 4250 1350 4000 
z
" transform="scale(0.015625)"/>
     </defs>
     <use xlink:href="#SimHei-4e3b"/>
     <use xlink:href="#SimHei-8f74" x="100"/>
     <use xlink:href="#SimHei-529f" x="200"/>
     <use xlink:href="#SimHei-7387" x="300"/>
     <use xlink:href="#SimHei-9884" x="400"/>
     <use xlink:href="#SimHei-6d4b" x="500"/>
    </g>
   </g>
  </g>
  <g id="axes_2">
   <g id="matplotlib.axis_3">
    <g id="xtick_8">
     <g id="line2d_28">
      <defs>
       <path id="m40b4cf65af" d="M 0 0 
L 0 -3.5 
" style="stroke: #000000; stroke-width: 0.8"/>
      </defs>
      <g>
       <use xlink:href="#m40b4cf65af" x="70.261967" y="70.876736" style="stroke: #000000; stroke-width: 0.8"/>
      </g>
     </g>
     <g id="text_18">
      <!-- N0020 -->
      <g transform="translate(74.151054 63.169629) rotate(-45) scale(0.08 -0.08)">
       <defs>
        <path id="SimHei-4e" d="M 2850 125 
L 2225 125 
L 850 3225 
L 825 3225 
L 825 125 
L 250 125 
L 250 4400 
L 875 4400 
L 2250 1300 
L 2275 1300 
L 2275 4400 
L 2850 4400 
L 2850 125 
z
" transform="scale(0.015625)"/>
       </defs>
       <use xlink:href="#SimHei-4e"/>
       <use xlink:href="#SimHei-30" x="50"/>
       <use xlink:href="#SimHei-30" x="100"/>
       <use xlink:href="#SimHei-32" x="150"/>
       <use xlink:href="#SimHei-30" x="200"/>
      </g>
     </g>
    </g>
    <g id="xtick_9">
     <g id="line2d_29">
      <g>
       <use xlink:href="#m40b4cf65af" x="209.806888" y="70.876736" style="stroke: #000000; stroke-width: 0.8"/>
      </g>
     </g>
     <g id="text_19">
      <!-- N7030.6 -->
      <g transform="translate(213.695975 63.169629) rotate(-45) scale(0.08 -0.08)">
       <defs>
        <path id="SimHei-37" d="M 850 150 
Q 1300 2050 2425 3925 
L 275 3925 
L 275 4375 
L 2950 4375 
L 2950 3950 
Q 1775 2050 1400 150 
L 850 150 
z
" transform="scale(0.015625)"/>
        <path id="SimHei-2e" d="M 1075 125 
L 500 125 
L 500 675 
L 1075 675 
L 1075 125 
z
" transform="scale(0.015625)"/>
       </defs>
       <use xlink:href="#SimHei-4e"/>
       <use xlink:href="#SimHei-37" x="50"/>
       <use xlink:href="#SimHei-30" x="100"/>
       <use xlink:href="#SimHei-33" x="150"/>
       <use xlink:href="#SimHei-30" x="200"/>
       <use xlink:href="#SimHei-2e" x="250"/>
       <use xlink:href="#SimHei-36" x="300"/>
      </g>
     </g>
    </g>
    <g id="xtick_10">
     <g id="line2d_30">
      <g>
       <use xlink:href="#m40b4cf65af" x="295.668317" y="70.876736" style="stroke: #000000; stroke-width: 0.8"/>
      </g>
     </g>
     <g id="text_20">
      <!-- N1740.1 -->
      <g transform="translate(299.557404 63.169629) rotate(-45) scale(0.08 -0.08)">
       <use xlink:href="#SimHei-4e"/>
       <use xlink:href="#SimHei-31" x="50"/>
       <use xlink:href="#SimHei-37" x="100"/>
       <use xlink:href="#SimHei-34" x="150"/>
       <use xlink:href="#SimHei-30" x="200"/>
       <use xlink:href="#SimHei-2e" x="250"/>
       <use xlink:href="#SimHei-31" x="300"/>
      </g>
     </g>
    </g>
    <g id="xtick_11">
     <g id="line2d_31">
      <g>
       <use xlink:href="#m40b4cf65af" x="362.833227" y="70.876736" style="stroke: #000000; stroke-width: 0.8"/>
      </g>
     </g>
     <g id="text_21">
      <!-- N5210.4 -->
      <g transform="translate(366.722315 63.169629) rotate(-45) scale(0.08 -0.08)">
       <use xlink:href="#SimHei-4e"/>
       <use xlink:href="#SimHei-35" x="50"/>
       <use xlink:href="#SimHei-32" x="100"/>
       <use xlink:href="#SimHei-31" x="150"/>
       <use xlink:href="#SimHei-30" x="200"/>
       <use xlink:href="#SimHei-2e" x="250"/>
       <use xlink:href="#SimHei-34" x="300"/>
      </g>
     </g>
    </g>
    <g id="xtick_12">
     <g id="line2d_32">
      <g>
       <use xlink:href="#m40b4cf65af" x="419.589958" y="70.876736" style="stroke: #000000; stroke-width: 0.8"/>
      </g>
     </g>
     <g id="text_22">
      <!-- N8410.11 -->
      <g transform="translate(423.479045 63.169629) rotate(-45) scale(0.08 -0.08)">
       <defs>
        <path id="SimHei-38" d="M 175 1375 
Q 175 1675 325 1962 
Q 475 2250 825 2425 
Q 525 2600 425 2812 
Q 325 3025 312 3300 
Q 300 3575 387 3775 
Q 475 3975 650 4150 
Q 825 4325 1037 4387 
Q 1250 4450 1500 4450 
Q 1750 4450 1950 4400 
Q 2150 4350 2375 4187 
Q 2600 4025 2700 3725 
Q 2800 3425 2687 3025 
Q 2575 2625 2100 2400 
Q 2525 2275 2700 2012 
Q 2875 1750 2875 1375 
Q 2875 1000 2762 775 
Q 2650 550 2512 400 
Q 2375 250 2137 162 
Q 1900 75 1537 75 
Q 1175 75 912 162 
Q 650 250 475 425 
Q 300 600 237 837 
Q 175 1075 175 1375 
z
M 687 1400 
Q 675 1100 787 875 
Q 900 650 1200 587 
Q 1500 525 1825 600 
Q 2150 675 2275 950 
Q 2400 1225 2362 1500 
Q 2325 1775 2050 1962 
Q 1775 2150 1450 2125 
Q 1125 2100 912 1900 
Q 700 1700 687 1400 
z
M 775 3350 
Q 775 3100 950 2875 
Q 1125 2650 1500 2650 
Q 1875 2650 2062 2875 
Q 2250 3100 2237 3412 
Q 2225 3725 2012 3875 
Q 1800 4025 1437 4000 
Q 1075 3975 925 3787 
Q 775 3600 775 3350 
z
" transform="scale(0.015625)"/>
       </defs>
       <use xlink:href="#SimHei-4e"/>
       <use xlink:href="#SimHei-38" x="50"/>
       <use xlink:href="#SimHei-34" x="100"/>
       <use xlink:href="#SimHei-31" x="150"/>
       <use xlink:href="#SimHei-30" x="200"/>
       <use xlink:href="#SimHei-2e" x="250"/>
       <use xlink:href="#SimHei-31" x="300"/>
       <use xlink:href="#SimHei-31" x="350"/>
      </g>
     </g>
    </g>
    <g id="xtick_13">
     <g id="line2d_33">
      <g>
       <use xlink:href="#m40b4cf65af" x="448.863015" y="70.876736" style="stroke: #000000; stroke-width: 0.8"/>
      </g>
     </g>
     <g id="text_23">
      <!-- N0190.11 -->
      <g transform="translate(452.752102 63.169629) rotate(-45) scale(0.08 -0.08)">
       <defs>
        <path id="SimHei-39" d="M 800 75 
Q 1350 1000 1700 1750 
Q 1075 1650 662 1912 
Q 250 2175 162 2625 
Q 75 3075 175 3437 
Q 275 3800 487 4037 
Q 700 4275 1000 4375 
Q 1300 4475 1537 4475 
Q 1775 4475 2025 4375 
Q 2275 4275 2475 4075 
Q 2675 3875 2750 3662 
Q 2825 3450 2825 3112 
Q 2825 2775 2575 2250 
Q 2325 1725 1350 75 
L 800 75 
z
M 662 2875 
Q 700 2550 937 2337 
Q 1175 2125 1450 2150 
Q 1725 2175 1887 2300 
Q 2050 2425 2200 2725 
Q 2300 3100 2250 3362 
Q 2200 3625 1987 3800 
Q 1775 3975 1525 3975 
Q 1375 4000 1137 3900 
Q 900 3800 762 3500 
Q 625 3200 662 2875 
z
" transform="scale(0.015625)"/>
       </defs>
       <use xlink:href="#SimHei-4e"/>
       <use xlink:href="#SimHei-30" x="50"/>
       <use xlink:href="#SimHei-31" x="100"/>
       <use xlink:href="#SimHei-39" x="150"/>
       <use xlink:href="#SimHei-30" x="200"/>
       <use xlink:href="#SimHei-2e" x="250"/>
       <use xlink:href="#SimHei-31" x="300"/>
       <use xlink:href="#SimHei-31" x="350"/>
      </g>
     </g>
    </g>
    <g id="xtick_14">
     <g id="line2d_34">
      <g>
       <use xlink:href="#m40b4cf65af" x="486.886111" y="70.876736" style="stroke: #000000; stroke-width: 0.8"/>
      </g>
     </g>
     <g id="text_24">
      <!-- N2680.29 -->
      <g transform="translate(490.775199 63.169629) rotate(-45) scale(0.08 -0.08)">
       <use xlink:href="#SimHei-4e"/>
       <use xlink:href="#SimHei-32" x="50"/>
       <use xlink:href="#SimHei-36" x="100"/>
       <use xlink:href="#SimHei-38" x="150"/>
       <use xlink:href="#SimHei-30" x="200"/>
       <use xlink:href="#SimHei-2e" x="250"/>
       <use xlink:href="#SimHei-32" x="300"/>
       <use xlink:href="#SimHei-39" x="350"/>
      </g>
     </g>
    </g>
    <g id="xtick_15">
     <g id="line2d_35">
      <g>
       <use xlink:href="#m40b4cf65af" x="534.54322" y="70.876736" style="stroke: #000000; stroke-width: 0.8"/>
      </g>
     </g>
     <g id="text_25">
      <!-- N5890.9 -->
      <g transform="translate(538.432307 63.169629) rotate(-45) scale(0.08 -0.08)">
       <use xlink:href="#SimHei-4e"/>
       <use xlink:href="#SimHei-35" x="50"/>
       <use xlink:href="#SimHei-38" x="100"/>
       <use xlink:href="#SimHei-39" x="150"/>
       <use xlink:href="#SimHei-30" x="200"/>
       <use xlink:href="#SimHei-2e" x="250"/>
       <use xlink:href="#SimHei-39" x="300"/>
      </g>
     </g>
    </g>
    <g id="xtick_16">
     <g id="line2d_36">
      <g>
       <use xlink:href="#m40b4cf65af" x="566.586341" y="70.876736" style="stroke: #000000; stroke-width: 0.8"/>
      </g>
     </g>
     <g id="text_26">
      <!-- N7950.6 -->
      <g transform="translate(570.475428 63.169629) rotate(-45) scale(0.08 -0.08)">
       <use xlink:href="#SimHei-4e"/>
       <use xlink:href="#SimHei-37" x="50"/>
       <use xlink:href="#SimHei-39" x="100"/>
       <use xlink:href="#SimHei-35" x="150"/>
       <use xlink:href="#SimHei-30" x="200"/>
       <use xlink:href="#SimHei-2e" x="250"/>
       <use xlink:href="#SimHei-36" x="300"/>
      </g>
     </g>
    </g>
    <g id="xtick_17">
     <g id="line2d_37">
      <g>
       <use xlink:href="#m40b4cf65af" x="618.592226" y="70.876736" style="stroke: #000000; stroke-width: 0.8"/>
      </g>
     </g>
     <g id="text_27">
      <!-- N1720.13 -->
      <g transform="translate(622.481313 63.169629) rotate(-45) scale(0.08 -0.08)">
       <use xlink:href="#SimHei-4e"/>
       <use xlink:href="#SimHei-31" x="50"/>
       <use xlink:href="#SimHei-37" x="100"/>
       <use xlink:href="#SimHei-32" x="150"/>
       <use xlink:href="#SimHei-30" x="200"/>
       <use xlink:href="#SimHei-2e" x="250"/>
       <use xlink:href="#SimHei-31" x="300"/>
       <use xlink:href="#SimHei-33" x="350"/>
      </g>
     </g>
    </g>
    <g id="xtick_18">
     <g id="line2d_38">
      <g>
       <use xlink:href="#m40b4cf65af" x="670.390266" y="70.876736" style="stroke: #000000; stroke-width: 0.8"/>
      </g>
     </g>
     <g id="text_28">
      <!-- N5550 -->
      <g transform="translate(674.279353 63.169629) rotate(-45) scale(0.08 -0.08)">
       <use xlink:href="#SimHei-4e"/>
       <use xlink:href="#SimHei-35" x="50"/>
       <use xlink:href="#SimHei-35" x="100"/>
       <use xlink:href="#SimHei-35" x="150"/>
       <use xlink:href="#SimHei-30" x="200"/>
      </g>
     </g>
    </g>
    <g id="xtick_19">
     <g id="line2d_39">
      <g>
       <use xlink:href="#m40b4cf65af" x="711.303334" y="70.876736" style="stroke: #000000; stroke-width: 0.8"/>
      </g>
     </g>
     <g id="text_29">
      <!-- N8160.3 -->
      <g transform="translate(715.192422 63.169629) rotate(-45) scale(0.08 -0.08)">
       <use xlink:href="#SimHei-4e"/>
       <use xlink:href="#SimHei-38" x="50"/>
       <use xlink:href="#SimHei-31" x="100"/>
       <use xlink:href="#SimHei-36" x="150"/>
       <use xlink:href="#SimHei-30" x="200"/>
       <use xlink:href="#SimHei-2e" x="250"/>
       <use xlink:href="#SimHei-33" x="300"/>
      </g>
     </g>
    </g>
    <g id="xtick_20">
     <g id="line2d_40">
      <g>
       <use xlink:href="#m40b4cf65af" x="792.975441" y="70.876736" style="stroke: #000000; stroke-width: 0.8"/>
      </g>
     </g>
     <g id="text_30">
      <!-- N3660 -->
      <g transform="translate(796.864528 63.169629) rotate(-45) scale(0.08 -0.08)">
       <use xlink:href="#SimHei-4e"/>
       <use xlink:href="#SimHei-33" x="50"/>
       <use xlink:href="#SimHei-36" x="100"/>
       <use xlink:href="#SimHei-36" x="150"/>
       <use xlink:href="#SimHei-30" x="200"/>
      </g>
     </g>
    </g>
    <g id="text_31">
     <!-- 指令行号 N -->
     <g transform="translate(406.662889 32.653125) scale(0.1 -0.1)">
      <defs>
       <path id="SimHei-6307" d="M 5625 2225 
Q 5600 1925 5600 1350 
L 5600 300 
Q 5600 -225 5625 -525 
L 5125 -525 
L 5125 -125 
L 3300 -125 
L 3300 -625 
L 2800 -625 
Q 2825 -300 2825 300 
L 2825 1350 
Q 2825 1925 2800 2225 
L 5625 2225 
z
M 500 25 
Q 1075 -25 1175 37 
Q 1275 100 1275 275 
L 1275 1675 
Q 1050 1600 925 1537 
Q 800 1475 475 1275 
Q 400 1525 225 1800 
Q 625 1900 825 1975 
Q 1025 2050 1275 2125 
L 1275 3300 
L 1100 3300 
Q 775 3300 450 3275 
L 450 3725 
Q 750 3700 1100 3700 
L 1275 3700 
L 1275 4450 
Q 1275 4800 1250 5125 
L 1775 5125 
Q 1750 4850 1750 4450 
L 1750 3700 
Q 2075 3700 2425 3725 
L 2425 3275 
Q 2050 3300 1750 3300 
L 1750 2325 
Q 1850 2350 2025 2425 
L 2375 2575 
Q 2350 2300 2375 2100 
Q 2225 2050 2062 1987 
Q 1900 1925 1750 1850 
L 1750 100 
Q 1725 -200 1575 -337 
Q 1425 -475 675 -525 
Q 625 -250 500 25 
z
M 3325 5025 
Q 3300 4675 3300 4125 
Q 4125 4275 4512 4412 
Q 4900 4550 5225 4725 
Q 5325 4475 5575 4250 
Q 5450 4225 5237 4175 
Q 5025 4125 4725 4050 
Q 4425 3975 4037 3887 
Q 3650 3800 3300 3725 
L 3300 3175 
Q 3275 2925 3700 2925 
L 4925 2925 
Q 5300 2925 5387 3087 
Q 5475 3250 5550 3600 
Q 5750 3400 6050 3300 
Q 5825 2725 5700 2637 
Q 5575 2550 5275 2525 
L 3350 2525 
Q 3050 2525 2937 2687 
Q 2825 2850 2825 2975 
L 2825 4125 
Q 2825 4775 2800 5025 
L 3325 5025 
z
M 5125 275 
L 5125 875 
L 3300 875 
L 3300 275 
L 5125 275 
z
M 5125 1250 
L 5125 1825 
L 3300 1825 
L 3300 1250 
L 5125 1250 
z
" transform="scale(0.015625)"/>
       <path id="SimHei-4ee4" d="M 5375 2075 
L 5375 1550 
Q 4925 1325 4450 937 
Q 3975 550 3575 125 
L 4250 -325 
Q 4050 -550 3875 -775 
Q 3100 -125 1850 425 
L 2150 875 
Q 2400 775 3125 350 
Q 3800 1025 4450 1625 
L 2025 1625 
Q 1500 1625 975 1600 
L 975 2100 
Q 1525 2075 2025 2075 
L 5375 2075 
z
M 3375 4850 
Q 4450 3550 6200 2900 
Q 5950 2625 5800 2350 
Q 4150 3150 3100 4475 
Q 2075 3125 625 2225 
Q 400 2525 200 2700 
Q 875 2975 1675 3675 
Q 2475 4375 2950 5300 
Q 3275 5175 3550 5050 
Q 3475 5000 3375 4850 
z
M 2925 3600 
Q 3175 3350 3750 2725 
L 3300 2325 
Q 3050 2700 2550 3225 
Q 2750 3375 2925 3600 
z
" transform="scale(0.015625)"/>
       <path id="SimHei-53f7" d="M 5025 4925 
Q 5000 4550 5000 4075 
Q 5000 3600 5025 3175 
L 1400 3175 
Q 1425 3525 1425 4000 
Q 1425 4500 1400 4925 
L 5025 4925 
z
M 5175 2625 
Q 5650 2625 6025 2650 
L 6025 2200 
Q 5650 2225 5175 2225 
L 2450 2225 
Q 2350 1875 2225 1450 
L 5175 1450 
Q 5100 1050 5062 775 
Q 5025 500 4950 112 
Q 4875 -275 4650 -412 
Q 4425 -550 3225 -625 
Q 3125 -350 2975 -50 
Q 3875 -75 4112 -50 
Q 4350 -25 4425 212 
Q 4500 450 4575 1025 
L 1600 1025 
Q 1825 1625 1950 2225 
L 1350 2225 
Q 825 2225 375 2200 
L 375 2650 
Q 825 2625 1350 2625 
L 5175 2625 
z
M 4525 3575 
L 4525 4525 
L 1900 4525 
L 1900 3575 
L 4525 3575 
z
" transform="scale(0.015625)"/>
      </defs>
      <use xlink:href="#SimHei-6307"/>
      <use xlink:href="#SimHei-4ee4" x="100"/>
      <use xlink:href="#SimHei-884c" x="200"/>
      <use xlink:href="#SimHei-53f7" x="300"/>
      <use xlink:href="#SimHei-20" x="400"/>
      <use xlink:href="#SimHei-4e" x="450"/>
     </g>
    </g>
   </g>
   <g id="patch_7">
    <path d="M 34.121875 450.214277 
L 34.121875 70.876736 
" style="fill: none; stroke: #000000; stroke-width: 0.8; stroke-linejoin: miter; stroke-linecap: square"/>
   </g>
   <g id="patch_8">
    <path d="M 829.203903 450.214277 
L 829.203903 70.876736 
" style="fill: none; stroke: #000000; stroke-width: 0.8; stroke-linejoin: miter; stroke-linecap: square"/>
   </g>
   <g id="patch_9">
    <path d="M 34.121875 450.214277 
L 829.203903 450.214277 
" style="fill: none; stroke: #000000; stroke-width: 0.8; stroke-linejoin: miter; stroke-linecap: square"/>
   </g>
   <g id="patch_10">
    <path d="M 34.121875 70.876736 
L 829.203903 70.876736 
" style="fill: none; stroke: #000000; stroke-width: 0.8; stroke-linejoin: miter; stroke-linecap: square"/>
   </g>
  </g>
 </g>
 <defs>
  <clipPath id="p7a0ae61a0a">
   <rect x="34.121875" y="70.876736" width="795.082028" height="379.337541"/>
  </clipPath>
 </defs>
</svg>
