<?xml version="1.0" encoding="utf-8" standalone="no"?>
<!DOCTYPE svg PUBLIC "-//W3C//DTD SVG 1.1//EN"
  "http://www.w3.org/Graphics/SVG/1.1/DTD/svg11.dtd">
<svg xmlns:xlink="http://www.w3.org/1999/xlink" width="848.4225pt" height="487.913965pt" viewBox="0 0 848.4225 487.913965" xmlns="http://www.w3.org/2000/svg" version="1.1">
 <metadata>
  <rdf:RDF xmlns:dc="http://purl.org/dc/elements/1.1/" xmlns:cc="http://creativecommons.org/ns#" xmlns:rdf="http://www.w3.org/1999/02/22-rdf-syntax-ns#">
   <cc:Work>
    <dc:type rdf:resource="http://purl.org/dc/dcmitype/StillImage"/>
    <dc:date>2025-12-10T13:36:53.224215</dc:date>
    <dc:format>image/svg+xml</dc:format>
    <dc:creator>
     <cc:Agent>
      <dc:title>Matplotlib v3.9.2, https://matplotlib.org/</dc:title>
     </cc:Agent>
    </dc:creator>
   </cc:Work>
  </rdf:RDF>
 </metadata>
 <defs>
  <style type="text/css">*{stroke-linejoin: round; stroke-linecap: butt}</style>
 </defs>
 <g id="figure_1">
  <g id="patch_1">
   <path d="M 0 487.913965 
L 848.4225 487.913965 
L 848.4225 0 
L 0 0 
z
" style="fill: #ffffff"/>
  </g>
  <g id="axes_1">
   <g id="patch_2">
    <path d="M 44.45 450.38584 
L 841.2225 450.38584 
L 841.2225 71.040799 
L 44.45 71.040799 
z
" style="fill: #ffffff"/>
   </g>
   <g id="matplotlib.axis_1">
    <g id="xtick_1">
     <g id="line2d_1">
      <path d="M 73.091793 450.38584 
L 73.091793 71.040799 
" clip-path="url(#p44a63c730b)" style="fill: none; stroke-dasharray: 2.96,1.28; stroke-dashoffset: 0; stroke: #b0b0b0; stroke-opacity: 0.7; stroke-width: 0.8"/>
     </g>
     <g id="line2d_2">
      <defs>
       <path id="mc65a3f2a9c" d="M 0 0 
L 0 3.5 
" style="stroke: #000000; stroke-width: 0.8"/>
      </defs>
      <g>
       <use xlink:href="#mc65a3f2a9c" x="73.091793" y="450.38584" style="stroke: #000000; stroke-width: 0.8"/>
      </g>
     </g>
     <g id="text_1">
      <!-- 0 -->
      <g transform="translate(70.591793 464.26084) scale(0.1 -0.1)">
       <defs>
        <path id="SimHei-30" d="M 225 2537 
Q 250 3200 412 3587 
Q 575 3975 875 4225 
Q 1175 4475 1612 4475 
Q 2050 4475 2375 4112 
Q 2700 3750 2800 3200 
Q 2900 2650 2862 1937 
Q 2825 1225 2612 775 
Q 2400 325 1975 150 
Q 1550 -25 1125 187 
Q 700 400 525 750 
Q 350 1100 275 1487 
Q 200 1875 225 2537 
z
M 750 2687 
Q 675 2000 800 1462 
Q 925 925 1212 700 
Q 1500 475 1800 612 
Q 2100 750 2237 1162 
Q 2375 1575 2375 2062 
Q 2375 2550 2337 2950 
Q 2300 3350 2112 3675 
Q 1925 4000 1612 4012 
Q 1300 4025 1062 3700 
Q 825 3375 750 2687 
z
" transform="scale(0.015625)"/>
       </defs>
       <use xlink:href="#SimHei-30"/>
      </g>
     </g>
    </g>
    <g id="xtick_2">
     <g id="line2d_3">
      <path d="M 165.11368 450.38584 
L 165.11368 71.040799 
" clip-path="url(#p44a63c730b)" style="fill: none; stroke-dasharray: 2.96,1.28; stroke-dashoffset: 0; stroke: #b0b0b0; stroke-opacity: 0.7; stroke-width: 0.8"/>
     </g>
     <g id="line2d_4">
      <g>
       <use xlink:href="#mc65a3f2a9c" x="165.11368" y="450.38584" style="stroke: #000000; stroke-width: 0.8"/>
      </g>
     </g>
     <g id="text_2">
      <!-- 5000 -->
      <g transform="translate(155.11368 464.26084) scale(0.1 -0.1)">
       <defs>
        <path id="SimHei-35" d="M 550 1325 
Q 725 650 1150 575 
Q 1575 500 1837 662 
Q 2100 825 2212 1087 
Q 2325 1350 2312 1675 
Q 2300 2000 2137 2225 
Q 1975 2450 1725 2525 
Q 1475 2600 1162 2525 
Q 850 2450 650 2175 
L 225 2225 
Q 275 2375 700 4375 
L 2675 4375 
L 2675 3925 
L 1075 3925 
Q 950 3250 825 2850 
Q 1200 3025 1525 3012 
Q 1850 3000 2150 2862 
Q 2450 2725 2587 2487 
Q 2725 2250 2787 2012 
Q 2850 1775 2837 1500 
Q 2825 1225 2725 937 
Q 2625 650 2425 462 
Q 2225 275 1937 162 
Q 1650 50 1275 75 
Q 900 100 562 350 
Q 225 600 100 1200 
L 550 1325 
z
" transform="scale(0.015625)"/>
       </defs>
       <use xlink:href="#SimHei-35"/>
       <use xlink:href="#SimHei-30" x="50"/>
       <use xlink:href="#SimHei-30" x="100"/>
       <use xlink:href="#SimHei-30" x="150"/>
      </g>
     </g>
    </g>
    <g id="xtick_3">
     <g id="line2d_5">
      <path d="M 257.135567 450.38584 
L 257.135567 71.040799 
" clip-path="url(#p44a63c730b)" style="fill: none; stroke-dasharray: 2.96,1.28; stroke-dashoffset: 0; stroke: #b0b0b0; stroke-opacity: 0.7; stroke-width: 0.8"/>
     </g>
     <g id="line2d_6">
      <g>
       <use xlink:href="#mc65a3f2a9c" x="257.135567" y="450.38584" style="stroke: #000000; stroke-width: 0.8"/>
      </g>
     </g>
     <g id="text_3">
      <!-- 10000 -->
      <g transform="translate(244.635567 464.26084) scale(0.1 -0.1)">
       <defs>
        <path id="SimHei-31" d="M 1400 3600 
Q 1075 3275 575 2975 
L 575 3450 
Q 1200 3875 1600 4450 
L 1900 4450 
L 1900 150 
L 1400 150 
L 1400 3600 
z
" transform="scale(0.015625)"/>
       </defs>
       <use xlink:href="#SimHei-31"/>
       <use xlink:href="#SimHei-30" x="50"/>
       <use xlink:href="#SimHei-30" x="100"/>
       <use xlink:href="#SimHei-30" x="150"/>
       <use xlink:href="#SimHei-30" x="200"/>
      </g>
     </g>
    </g>
    <g id="xtick_4">
     <g id="line2d_7">
      <path d="M 349.157453 450.38584 
L 349.157453 71.040799 
" clip-path="url(#p44a63c730b)" style="fill: none; stroke-dasharray: 2.96,1.28; stroke-dashoffset: 0; stroke: #b0b0b0; stroke-opacity: 0.7; stroke-width: 0.8"/>
     </g>
     <g id="line2d_8">
      <g>
       <use xlink:href="#mc65a3f2a9c" x="349.157453" y="450.38584" style="stroke: #000000; stroke-width: 0.8"/>
      </g>
     </g>
     <g id="text_4">
      <!-- 15000 -->
      <g transform="translate(336.657453 464.26084) scale(0.1 -0.1)">
       <use xlink:href="#SimHei-31"/>
       <use xlink:href="#SimHei-35" x="50"/>
       <use xlink:href="#SimHei-30" x="100"/>
       <use xlink:href="#SimHei-30" x="150"/>
       <use xlink:href="#SimHei-30" x="200"/>
      </g>
     </g>
    </g>
    <g id="xtick_5">
     <g id="line2d_9">
      <path d="M 441.17934 450.38584 
L 441.17934 71.040799 
" clip-path="url(#p44a63c730b)" style="fill: none; stroke-dasharray: 2.96,1.28; stroke-dashoffset: 0; stroke: #b0b0b0; stroke-opacity: 0.7; stroke-width: 0.8"/>
     </g>
     <g id="line2d_10">
      <g>
       <use xlink:href="#mc65a3f2a9c" x="441.17934" y="450.38584" style="stroke: #000000; stroke-width: 0.8"/>
      </g>
     </g>
     <g id="text_5">
      <!-- 20000 -->
      <g transform="translate(428.67934 464.26084) scale(0.1 -0.1)">
       <defs>
        <path id="SimHei-32" d="M 300 250 
Q 325 625 650 925 
Q 975 1225 1475 1862 
Q 1975 2500 2125 2850 
Q 2275 3200 2237 3450 
Q 2200 3700 2000 3862 
Q 1800 4025 1537 4000 
Q 1275 3975 1037 3800 
Q 800 3625 675 3275 
L 200 3350 
Q 400 3925 712 4187 
Q 1025 4450 1450 4475 
Q 1700 4500 1900 4462 
Q 2100 4425 2312 4287 
Q 2525 4150 2662 3875 
Q 2800 3600 2762 3212 
Q 2725 2825 2375 2287 
Q 2025 1750 1025 600 
L 2825 600 
L 2825 150 
L 300 150 
L 300 250 
z
" transform="scale(0.015625)"/>
       </defs>
       <use xlink:href="#SimHei-32"/>
       <use xlink:href="#SimHei-30" x="50"/>
       <use xlink:href="#SimHei-30" x="100"/>
       <use xlink:href="#SimHei-30" x="150"/>
       <use xlink:href="#SimHei-30" x="200"/>
      </g>
     </g>
    </g>
    <g id="xtick_6">
     <g id="line2d_11">
      <path d="M 533.201227 450.38584 
L 533.201227 71.040799 
" clip-path="url(#p44a63c730b)" style="fill: none; stroke-dasharray: 2.96,1.28; stroke-dashoffset: 0; stroke: #b0b0b0; stroke-opacity: 0.7; stroke-width: 0.8"/>
     </g>
     <g id="line2d_12">
      <g>
       <use xlink:href="#mc65a3f2a9c" x="533.201227" y="450.38584" style="stroke: #000000; stroke-width: 0.8"/>
      </g>
     </g>
     <g id="text_6">
      <!-- 25000 -->
      <g transform="translate(520.701227 464.26084) scale(0.1 -0.1)">
       <use xlink:href="#SimHei-32"/>
       <use xlink:href="#SimHei-35" x="50"/>
       <use xlink:href="#SimHei-30" x="100"/>
       <use xlink:href="#SimHei-30" x="150"/>
       <use xlink:href="#SimHei-30" x="200"/>
      </g>
     </g>
    </g>
    <g id="xtick_7">
     <g id="line2d_13">
      <path d="M 625.223113 450.38584 
L 625.223113 71.040799 
" clip-path="url(#p44a63c730b)" style="fill: none; stroke-dasharray: 2.96,1.28; stroke-dashoffset: 0; stroke: #b0b0b0; stroke-opacity: 0.7; stroke-width: 0.8"/>
     </g>
     <g id="line2d_14">
      <g>
       <use xlink:href="#mc65a3f2a9c" x="625.223113" y="450.38584" style="stroke: #000000; stroke-width: 0.8"/>
      </g>
     </g>
     <g id="text_7">
      <!-- 30000 -->
      <g transform="translate(612.723113 464.26084) scale(0.1 -0.1)">
       <defs>
        <path id="SimHei-33" d="M 250 1225 
L 700 1300 
Q 800 975 1025 762 
Q 1250 550 1587 562 
Q 1925 575 2125 837 
Q 2325 1100 2300 1437 
Q 2275 1775 2037 1962 
Q 1800 2150 1275 2225 
L 1275 2550 
Q 1800 2600 2037 2825 
Q 2275 3050 2250 3412 
Q 2225 3775 1925 3937 
Q 1625 4100 1287 3975 
Q 950 3850 750 3275 
L 300 3350 
Q 450 3800 712 4100 
Q 975 4400 1425 4450 
Q 1875 4500 2212 4337 
Q 2550 4175 2687 3837 
Q 2825 3500 2725 3100 
Q 2625 2700 2150 2400 
Q 2500 2250 2687 1950 
Q 2875 1650 2812 1162 
Q 2750 675 2375 375 
Q 2000 75 1525 87 
Q 1050 100 700 387 
Q 350 675 250 1225 
z
" transform="scale(0.015625)"/>
       </defs>
       <use xlink:href="#SimHei-33"/>
       <use xlink:href="#SimHei-30" x="50"/>
       <use xlink:href="#SimHei-30" x="100"/>
       <use xlink:href="#SimHei-30" x="150"/>
       <use xlink:href="#SimHei-30" x="200"/>
      </g>
     </g>
    </g>
    <g id="xtick_8">
     <g id="line2d_15">
      <path d="M 717.245 450.38584 
L 717.245 71.040799 
" clip-path="url(#p44a63c730b)" style="fill: none; stroke-dasharray: 2.96,1.28; stroke-dashoffset: 0; stroke: #b0b0b0; stroke-opacity: 0.7; stroke-width: 0.8"/>
     </g>
     <g id="line2d_16">
      <g>
       <use xlink:href="#mc65a3f2a9c" x="717.245" y="450.38584" style="stroke: #000000; stroke-width: 0.8"/>
      </g>
     </g>
     <g id="text_8">
      <!-- 35000 -->
      <g transform="translate(704.745 464.26084) scale(0.1 -0.1)">
       <use xlink:href="#SimHei-33"/>
       <use xlink:href="#SimHei-35" x="50"/>
       <use xlink:href="#SimHei-30" x="100"/>
       <use xlink:href="#SimHei-30" x="150"/>
       <use xlink:href="#SimHei-30" x="200"/>
      </g>
     </g>
    </g>
    <g id="xtick_9">
     <g id="line2d_17">
      <path d="M 809.266887 450.38584 
L 809.266887 71.040799 
" clip-path="url(#p44a63c730b)" style="fill: none; stroke-dasharray: 2.96,1.28; stroke-dashoffset: 0; stroke: #b0b0b0; stroke-opacity: 0.7; stroke-width: 0.8"/>
     </g>
     <g id="line2d_18">
      <g>
       <use xlink:href="#mc65a3f2a9c" x="809.266887" y="450.38584" style="stroke: #000000; stroke-width: 0.8"/>
      </g>
     </g>
     <g id="text_9">
      <!-- 40000 -->
      <g transform="translate(796.766887 464.26084) scale(0.1 -0.1)">
       <defs>
        <path id="SimHei-34" d="M 2000 1100 
L 75 1100 
L 75 1525 
L 2100 4450 
L 2475 4450 
L 2475 1525 
L 3075 1525 
L 3075 1100 
L 2475 1100 
L 2475 150 
L 2000 150 
L 2000 1100 
z
M 2000 1525 
L 2000 3500 
L 600 1525 
L 2000 1525 
z
" transform="scale(0.015625)"/>
       </defs>
       <use xlink:href="#SimHei-34"/>
       <use xlink:href="#SimHei-30" x="50"/>
       <use xlink:href="#SimHei-30" x="100"/>
       <use xlink:href="#SimHei-30" x="150"/>
       <use xlink:href="#SimHei-30" x="200"/>
      </g>
     </g>
    </g>
    <g id="text_10">
     <!-- 行程 s (mm) -->
     <g transform="translate(409.83625 479.213965) scale(0.12 -0.12)">
      <defs>
       <path id="SimHei-884c" d="M 5300 3100 
Q 5775 3100 6175 3125 
L 6175 2625 
Q 5775 2650 5325 2650 
L 4975 2650 
L 4975 -75 
Q 5000 -375 4787 -487 
Q 4575 -600 3950 -675 
Q 3900 -375 3675 -75 
Q 4100 -125 4275 -112 
Q 4450 -100 4475 150 
L 4475 2650 
L 3475 2650 
Q 3000 2650 2575 2625 
L 2575 3125 
Q 3025 3100 3475 3100 
L 5300 3100 
z
M 2300 3400 
Q 2075 3275 1962 3075 
Q 1850 2875 1650 2575 
L 1650 325 
Q 1650 0 1675 -675 
L 1150 -675 
Q 1175 75 1175 450 
L 1175 2050 
Q 950 1675 575 1300 
Q 400 1550 250 1725 
Q 825 2275 1150 2775 
Q 1475 3275 1725 3725 
Q 1975 3575 2300 3400 
z
M 4875 4800 
Q 5300 4800 5750 4825 
L 5750 4350 
Q 5300 4375 4825 4375 
L 3900 4375 
Q 3350 4375 2950 4350 
L 2950 4825 
Q 3350 4800 3900 4800 
L 4875 4800 
z
M 2075 4925 
Q 1875 4900 1550 4387 
Q 1225 3875 650 3250 
Q 500 3450 325 3625 
Q 725 4025 1050 4487 
Q 1375 4950 1525 5300 
Q 1775 5150 2075 4925 
z
" transform="scale(0.015625)"/>
       <path id="SimHei-7a0b" d="M 5825 4975 
Q 5800 4425 5800 3975 
Q 5800 3550 5825 3125 
L 3025 3125 
Q 3050 3600 3050 4025 
Q 3050 4450 3025 4975 
L 5825 4975 
z
M 400 4825 
Q 825 4875 1362 4987 
Q 1900 5100 2275 5275 
Q 2450 4950 2625 4725 
Q 2450 4750 2262 4712 
Q 2075 4675 1850 4650 
L 1850 3425 
Q 2200 3425 2600 3450 
L 2600 2975 
Q 2200 3000 1850 3000 
L 1850 800 
Q 1850 250 1875 -675 
L 1375 -675 
Q 1400 250 1400 775 
L 1400 1925 
Q 1050 1225 625 600 
Q 450 850 225 1050 
Q 575 1400 850 1850 
Q 1125 2300 1350 3000 
Q 725 3000 425 2975 
L 425 3450 
Q 850 3425 1050 3425 
L 1400 3425 
L 1400 4550 
Q 1075 4475 575 4400 
Q 500 4625 400 4825 
z
M 5100 2500 
Q 5500 2500 5950 2525 
L 5950 2075 
Q 5500 2100 5100 2100 
L 4625 2100 
L 4625 1300 
L 4900 1300 
Q 5275 1300 5775 1325 
L 5775 850 
Q 5275 875 4975 875 
L 4625 875 
L 4625 0 
L 5225 0 
Q 5675 0 6175 25 
L 6175 -450 
Q 5775 -425 5225 -425 
L 3550 -425 
Q 3000 -425 2600 -475 
L 2600 25 
Q 3000 0 3550 0 
L 4150 0 
L 4150 875 
L 3800 875 
Q 3400 875 3050 825 
L 3050 1325 
Q 3400 1300 3800 1300 
L 4150 1300 
L 4150 2100 
L 3750 2100 
Q 3300 2100 2900 2075 
L 2900 2525 
Q 3300 2500 3750 2500 
L 5100 2500 
z
M 5275 3575 
L 5275 4550 
L 3500 4550 
L 3500 3575 
L 5275 3575 
z
M 2300 2400 
Q 2550 2025 2825 1525 
Q 2675 1425 2425 1225 
Q 2175 1775 1925 2125 
Q 2075 2250 2300 2400 
z
" transform="scale(0.015625)"/>
       <path id="SimHei-20" transform="scale(0.015625)"/>
       <path id="SimHei-73" d="M 2750 900 
Q 2750 500 2437 287 
Q 2125 75 1650 75 
Q 1050 75 725 312 
Q 400 550 400 1000 
L 900 1000 
Q 900 700 1112 600 
Q 1325 500 1625 500 
Q 1925 500 2075 612 
Q 2225 725 2225 900 
Q 2225 1025 2100 1150 
Q 1975 1275 1475 1350 
Q 900 1425 687 1637 
Q 475 1850 475 2200 
Q 475 2500 762 2737 
Q 1050 2975 1600 2975 
Q 2100 2975 2387 2750 
Q 2675 2525 2675 2150 
L 2175 2150 
Q 2175 2375 2012 2462 
Q 1850 2550 1600 2550 
Q 1275 2550 1137 2437 
Q 1000 2325 1000 2175 
Q 1000 2000 1125 1900 
Q 1250 1800 1650 1750 
Q 2300 1650 2525 1437 
Q 2750 1225 2750 900 
z
" transform="scale(0.015625)"/>
       <path id="SimHei-28" d="M 2975 -200 
L 2700 -475 
Q 2075 125 1762 775 
Q 1450 1425 1450 2250 
Q 1450 3075 1762 3725 
Q 2075 4375 2700 5000 
L 2975 4725 
Q 2400 4175 2112 3587 
Q 1825 3000 1825 2250 
Q 1825 1500 2112 912 
Q 2400 325 2975 -200 
z
" transform="scale(0.015625)"/>
       <path id="SimHei-6d" d="M 3050 125 
L 2550 125 
L 2550 2150 
Q 2550 2300 2500 2400 
Q 2450 2500 2300 2500 
Q 2125 2500 1975 2312 
Q 1825 2125 1825 1825 
L 1825 125 
L 1325 125 
L 1325 2150 
Q 1325 2300 1275 2400 
Q 1225 2500 1075 2500 
Q 900 2500 750 2312 
Q 600 2125 600 1825 
L 600 125 
L 100 125 
L 100 2925 
L 600 2925 
L 600 2550 
Q 725 2750 900 2862 
Q 1075 2975 1275 2975 
Q 1475 2975 1612 2862 
Q 1750 2750 1800 2550 
Q 1925 2750 2087 2862 
Q 2250 2975 2450 2975 
Q 2750 2975 2900 2812 
Q 3050 2650 3050 2350 
L 3050 125 
z
" transform="scale(0.015625)"/>
       <path id="SimHei-29" d="M 1675 2250 
Q 1675 1425 1362 775 
Q 1050 125 425 -475 
L 150 -200 
Q 725 325 1012 912 
Q 1300 1500 1300 2250 
Q 1300 3000 1012 3587 
Q 725 4175 150 4725 
L 425 5000 
Q 1050 4375 1362 3725 
Q 1675 3075 1675 2250 
z
" transform="scale(0.015625)"/>
      </defs>
      <use xlink:href="#SimHei-884c"/>
      <use xlink:href="#SimHei-7a0b" x="100"/>
      <use xlink:href="#SimHei-20" x="200"/>
      <use xlink:href="#SimHei-73" x="250"/>
      <use xlink:href="#SimHei-20" x="300"/>
      <use xlink:href="#SimHei-28" x="350"/>
      <use xlink:href="#SimHei-6d" x="400"/>
      <use xlink:href="#SimHei-6d" x="450"/>
      <use xlink:href="#SimHei-29" x="500"/>
     </g>
    </g>
   </g>
   <g id="matplotlib.axis_2">
    <g id="ytick_1">
     <g id="line2d_19">
      <path d="M 44.45 433.142883 
L 841.2225 433.142883 
" clip-path="url(#p44a63c730b)" style="fill: none; stroke-dasharray: 2.96,1.28; stroke-dashoffset: 0; stroke: #b0b0b0; stroke-opacity: 0.7; stroke-width: 0.8"/>
     </g>
     <g id="line2d_20">
      <defs>
       <path id="ma3fc7c12bc" d="M 0 0 
L -3.5 0 
" style="stroke: #000000; stroke-width: 0.8"/>
      </defs>
      <g>
       <use xlink:href="#ma3fc7c12bc" x="44.45" y="433.142883" style="stroke: #000000; stroke-width: 0.8"/>
      </g>
     </g>
     <g id="text_11">
      <!-- 0.0 -->
      <g transform="translate(22.45 436.580383) scale(0.1 -0.1)">
       <defs>
        <path id="SimHei-2e" d="M 1075 125 
L 500 125 
L 500 675 
L 1075 675 
L 1075 125 
z
" transform="scale(0.015625)"/>
       </defs>
       <use xlink:href="#SimHei-30"/>
       <use xlink:href="#SimHei-2e" x="50"/>
       <use xlink:href="#SimHei-30" x="100"/>
      </g>
     </g>
    </g>
    <g id="ytick_2">
     <g id="line2d_21">
      <path d="M 44.45 390.035492 
L 841.2225 390.035492 
" clip-path="url(#p44a63c730b)" style="fill: none; stroke-dasharray: 2.96,1.28; stroke-dashoffset: 0; stroke: #b0b0b0; stroke-opacity: 0.7; stroke-width: 0.8"/>
     </g>
     <g id="line2d_22">
      <g>
       <use xlink:href="#ma3fc7c12bc" x="44.45" y="390.035492" style="stroke: #000000; stroke-width: 0.8"/>
      </g>
     </g>
     <g id="text_12">
      <!-- 0.5 -->
      <g transform="translate(22.45 393.472992) scale(0.1 -0.1)">
       <use xlink:href="#SimHei-30"/>
       <use xlink:href="#SimHei-2e" x="50"/>
       <use xlink:href="#SimHei-35" x="100"/>
      </g>
     </g>
    </g>
    <g id="ytick_3">
     <g id="line2d_23">
      <path d="M 44.45 346.928101 
L 841.2225 346.928101 
" clip-path="url(#p44a63c730b)" style="fill: none; stroke-dasharray: 2.96,1.28; stroke-dashoffset: 0; stroke: #b0b0b0; stroke-opacity: 0.7; stroke-width: 0.8"/>
     </g>
     <g id="line2d_24">
      <g>
       <use xlink:href="#ma3fc7c12bc" x="44.45" y="346.928101" style="stroke: #000000; stroke-width: 0.8"/>
      </g>
     </g>
     <g id="text_13">
      <!-- 1.0 -->
      <g transform="translate(22.45 350.365601) scale(0.1 -0.1)">
       <use xlink:href="#SimHei-31"/>
       <use xlink:href="#SimHei-2e" x="50"/>
       <use xlink:href="#SimHei-30" x="100"/>
      </g>
     </g>
    </g>
    <g id="ytick_4">
     <g id="line2d_25">
      <path d="M 44.45 303.82071 
L 841.2225 303.82071 
" clip-path="url(#p44a63c730b)" style="fill: none; stroke-dasharray: 2.96,1.28; stroke-dashoffset: 0; stroke: #b0b0b0; stroke-opacity: 0.7; stroke-width: 0.8"/>
     </g>
     <g id="line2d_26">
      <g>
       <use xlink:href="#ma3fc7c12bc" x="44.45" y="303.82071" style="stroke: #000000; stroke-width: 0.8"/>
      </g>
     </g>
     <g id="text_14">
      <!-- 1.5 -->
      <g transform="translate(22.45 307.25821) scale(0.1 -0.1)">
       <use xlink:href="#SimHei-31"/>
       <use xlink:href="#SimHei-2e" x="50"/>
       <use xlink:href="#SimHei-35" x="100"/>
      </g>
     </g>
    </g>
    <g id="ytick_5">
     <g id="line2d_27">
      <path d="M 44.45 260.713319 
L 841.2225 260.713319 
" clip-path="url(#p44a63c730b)" style="fill: none; stroke-dasharray: 2.96,1.28; stroke-dashoffset: 0; stroke: #b0b0b0; stroke-opacity: 0.7; stroke-width: 0.8"/>
     </g>
     <g id="line2d_28">
      <g>
       <use xlink:href="#ma3fc7c12bc" x="44.45" y="260.713319" style="stroke: #000000; stroke-width: 0.8"/>
      </g>
     </g>
     <g id="text_15">
      <!-- 2.0 -->
      <g transform="translate(22.45 264.150819) scale(0.1 -0.1)">
       <use xlink:href="#SimHei-32"/>
       <use xlink:href="#SimHei-2e" x="50"/>
       <use xlink:href="#SimHei-30" x="100"/>
      </g>
     </g>
    </g>
    <g id="ytick_6">
     <g id="line2d_29">
      <path d="M 44.45 217.605928 
L 841.2225 217.605928 
" clip-path="url(#p44a63c730b)" style="fill: none; stroke-dasharray: 2.96,1.28; stroke-dashoffset: 0; stroke: #b0b0b0; stroke-opacity: 0.7; stroke-width: 0.8"/>
     </g>
     <g id="line2d_30">
      <g>
       <use xlink:href="#ma3fc7c12bc" x="44.45" y="217.605928" style="stroke: #000000; stroke-width: 0.8"/>
      </g>
     </g>
     <g id="text_16">
      <!-- 2.5 -->
      <g transform="translate(22.45 221.043428) scale(0.1 -0.1)">
       <use xlink:href="#SimHei-32"/>
       <use xlink:href="#SimHei-2e" x="50"/>
       <use xlink:href="#SimHei-35" x="100"/>
      </g>
     </g>
    </g>
    <g id="ytick_7">
     <g id="line2d_31">
      <path d="M 44.45 174.498537 
L 841.2225 174.498537 
" clip-path="url(#p44a63c730b)" style="fill: none; stroke-dasharray: 2.96,1.28; stroke-dashoffset: 0; stroke: #b0b0b0; stroke-opacity: 0.7; stroke-width: 0.8"/>
     </g>
     <g id="line2d_32">
      <g>
       <use xlink:href="#ma3fc7c12bc" x="44.45" y="174.498537" style="stroke: #000000; stroke-width: 0.8"/>
      </g>
     </g>
     <g id="text_17">
      <!-- 3.0 -->
      <g transform="translate(22.45 177.936037) scale(0.1 -0.1)">
       <use xlink:href="#SimHei-33"/>
       <use xlink:href="#SimHei-2e" x="50"/>
       <use xlink:href="#SimHei-30" x="100"/>
      </g>
     </g>
    </g>
    <g id="ytick_8">
     <g id="line2d_33">
      <path d="M 44.45 131.391146 
L 841.2225 131.391146 
" clip-path="url(#p44a63c730b)" style="fill: none; stroke-dasharray: 2.96,1.28; stroke-dashoffset: 0; stroke: #b0b0b0; stroke-opacity: 0.7; stroke-width: 0.8"/>
     </g>
     <g id="line2d_34">
      <g>
       <use xlink:href="#ma3fc7c12bc" x="44.45" y="131.391146" style="stroke: #000000; stroke-width: 0.8"/>
      </g>
     </g>
     <g id="text_18">
      <!-- 3.5 -->
      <g transform="translate(22.45 134.828646) scale(0.1 -0.1)">
       <use xlink:href="#SimHei-33"/>
       <use xlink:href="#SimHei-2e" x="50"/>
       <use xlink:href="#SimHei-35" x="100"/>
      </g>
     </g>
    </g>
    <g id="ytick_9">
     <g id="line2d_35">
      <path d="M 44.45 88.283755 
L 841.2225 88.283755 
" clip-path="url(#p44a63c730b)" style="fill: none; stroke-dasharray: 2.96,1.28; stroke-dashoffset: 0; stroke: #b0b0b0; stroke-opacity: 0.7; stroke-width: 0.8"/>
     </g>
     <g id="line2d_36">
      <g>
       <use xlink:href="#ma3fc7c12bc" x="44.45" y="88.283755" style="stroke: #000000; stroke-width: 0.8"/>
      </g>
     </g>
     <g id="text_19">
      <!-- 4.0 -->
      <g transform="translate(22.45 91.721255) scale(0.1 -0.1)">
       <use xlink:href="#SimHei-34"/>
       <use xlink:href="#SimHei-2e" x="50"/>
       <use xlink:href="#SimHei-30" x="100"/>
      </g>
     </g>
    </g>
    <g id="text_20">
     <!-- 切宽 ae (mm) -->
     <g transform="translate(16.95 296.713319) rotate(-90) scale(0.12 -0.12)">
      <defs>
       <path id="SimHei-5207" d="M 4200 125 
Q 4875 125 5037 187 
Q 5200 250 5225 525 
L 5400 4175 
L 4250 4175 
Q 4275 2875 4075 1987 
Q 3875 1100 3500 575 
Q 3125 50 2425 -575 
Q 2275 -375 1900 -250 
Q 2550 200 2937 675 
Q 3325 1150 3550 1925 
Q 3775 2700 3750 4175 
Q 3200 4175 2700 4150 
L 2700 4600 
Q 3175 4575 3625 4575 
L 5900 4575 
Q 5875 4200 5850 3700 
L 5700 325 
Q 5625 -250 5312 -337 
Q 5000 -425 4450 -525 
Q 4400 -200 4200 125 
z
M 1175 4275 
Q 1175 4625 1150 5000 
L 1650 5000 
Q 1625 4625 1625 4300 
L 1625 3275 
Q 2150 3350 2700 3425 
Q 2725 3150 2750 2975 
Q 2325 2925 1625 2850 
L 1625 1050 
Q 2325 1475 2650 1750 
Q 2725 1550 2875 1300 
Q 2325 975 1225 200 
Q 1075 500 925 650 
Q 1175 850 1175 1125 
L 1175 2775 
Q 675 2725 325 2675 
Q 300 2975 275 3150 
Q 650 3175 1175 3225 
L 1175 4275 
z
" transform="scale(0.015625)"/>
       <path id="SimHei-5bbd" d="M 2225 3525 
Q 2225 3700 2200 3925 
L 2700 3925 
Q 2675 3700 2675 3525 
L 3650 3525 
Q 3650 3675 3625 3950 
L 4125 3950 
Q 4100 3675 4100 3525 
Q 4625 3525 5100 3550 
L 5100 3075 
Q 4575 3125 4100 3125 
L 4100 2475 
L 5025 2475 
Q 5000 2175 5000 1875 
L 5000 1475 
Q 5000 1225 5025 825 
L 4525 825 
L 4525 2100 
L 1800 2100 
L 1800 750 
L 1300 750 
Q 1325 1200 1325 1450 
L 1325 1850 
Q 1325 2175 1300 2475 
L 2225 2475 
L 2225 3125 
L 1875 3125 
Q 1700 3125 1225 3050 
L 1225 3550 
Q 1700 3525 1875 3525 
L 2225 3525 
z
M 5375 3500 
L 5375 4175 
L 950 4175 
L 950 3400 
L 425 3400 
Q 450 3725 450 3950 
Q 450 4200 425 4575 
L 3025 4575 
Q 2975 4700 2725 5125 
Q 3050 5200 3300 5300 
Q 3500 4900 3625 4575 
L 5900 4575 
Q 5875 4250 5875 3975 
Q 5875 3700 5900 3500 
L 5375 3500 
z
M 3325 1825 
Q 3100 900 2850 462 
Q 2600 25 2112 -237 
Q 1625 -500 650 -700 
Q 550 -350 400 -100 
Q 1025 -75 1450 37 
Q 1875 150 2150 387 
Q 2425 625 2550 987 
Q 2675 1350 2725 1950 
Q 3100 1850 3325 1825 
z
M 3975 1250 
Q 3950 925 3950 675 
L 3950 150 
Q 3950 -75 4200 -100 
L 4950 -100 
Q 5250 -100 5400 0 
Q 5550 100 5650 550 
Q 5875 400 6125 300 
Q 5925 -500 5175 -525 
L 4025 -525 
Q 3500 -500 3450 -25 
L 3450 725 
Q 3450 925 3425 1250 
L 3975 1250 
z
M 3650 2475 
L 3650 3125 
L 2675 3125 
L 2675 2475 
L 3650 2475 
z
" transform="scale(0.015625)"/>
       <path id="SimHei-61" d="M 2875 125 
L 2275 125 
Q 2225 175 2200 262 
Q 2175 350 2175 475 
Q 2000 275 1750 175 
Q 1500 75 1225 75 
Q 825 75 550 275 
Q 275 475 275 850 
Q 275 1225 525 1450 
Q 775 1675 1300 1750 
Q 1650 1800 1912 1875 
Q 2175 1950 2175 2075 
Q 2175 2225 2062 2375 
Q 1950 2525 1575 2525 
Q 1275 2525 1137 2412 
Q 1000 2300 950 2100 
L 400 2100 
Q 450 2500 762 2737 
Q 1075 2975 1575 2975 
Q 2125 2975 2400 2725 
Q 2675 2475 2675 2025 
L 2675 650 
Q 2675 500 2725 375 
Q 2775 250 2875 125 
z
M 2175 1050 
L 2175 1550 
Q 2025 1500 1887 1462 
Q 1750 1425 1425 1375 
Q 1050 1325 937 1200 
Q 825 1075 825 900 
Q 825 750 937 637 
Q 1050 525 1275 525 
Q 1500 525 1762 650 
Q 2025 775 2175 1050 
z
" transform="scale(0.015625)"/>
       <path id="SimHei-65" d="M 2850 1075 
Q 2800 625 2450 350 
Q 2100 75 1625 75 
Q 1025 75 637 462 
Q 250 850 250 1525 
Q 250 2200 637 2587 
Q 1025 2975 1625 2975 
Q 2150 2975 2487 2637 
Q 2825 2300 2825 1525 
L 800 1525 
Q 800 975 1037 750 
Q 1275 525 1625 525 
Q 1900 525 2075 662 
Q 2250 800 2300 1075 
L 2850 1075 
z
M 2250 1925 
Q 2200 2275 2025 2412 
Q 1850 2550 1575 2550 
Q 1325 2550 1125 2412 
Q 925 2275 825 1925 
L 2250 1925 
z
" transform="scale(0.015625)"/>
      </defs>
      <use xlink:href="#SimHei-5207"/>
      <use xlink:href="#SimHei-5bbd" x="100"/>
      <use xlink:href="#SimHei-20" x="200"/>
      <use xlink:href="#SimHei-61" x="250"/>
      <use xlink:href="#SimHei-65" x="300"/>
      <use xlink:href="#SimHei-20" x="350"/>
      <use xlink:href="#SimHei-28" x="400"/>
      <use xlink:href="#SimHei-6d" x="450"/>
      <use xlink:href="#SimHei-6d" x="500"/>
      <use xlink:href="#SimHei-29" x="550"/>
     </g>
    </g>
   </g>
   <g id="line2d_37">
    <path d="M 80.666932 433.142883 
L 89.869489 433.142883 
L 89.869489 88.283755 
L 89.978019 88.283755 
L 97.651095 88.283755 
L 97.716601 433.142883 
L 98.274365 433.142883 
L 99.799903 433.142883 
L 99.799903 88.283755 
L 100.786239 88.283755 
L 100.851099 88.283755 
L 100.955851 433.142883 
L 101.667913 88.283755 
L 102.418305 88.283755 
L 102.437101 433.142883 
L 103.405346 88.283755 
L 103.612639 88.283755 
L 103.612639 433.142883 
L 104.537543 433.142883 
L 105.223714 433.142883 
L 105.223714 88.283755 
L 106.2067 88.283755 
L 107.299786 88.283755 
L 107.419872 433.142883 
L 108.239337 88.283755 
L 108.338563 88.283755 
L 108.338563 433.142883 
L 109.334434 401.494989 
L 109.382912 401.086675 
L 109.528386 419.634148 
L 110.316301 329.871369 
L 110.379123 412.971211 
L 110.400067 412.971211 
L 110.672916 433.142883 
L 111.284649 88.283755 
L 112.72477 88.283755 
L 112.752152 227.975842 
L 113.704015 151.744732 
L 113.730177 151.744732 
L 114.634434 409.304324 
L 113.91337 88.283755 
L 114.707158 390.086963 
L 114.731401 390.086963 
L 114.852632 429.785223 
L 115.361771 386.512756 
L 115.726546 428.414468 
L 115.751905 428.414468 
L 115.853376 433.142883 
L 116.327769 88.283755 
L 116.808402 88.283755 
L 116.844999 433.142883 
L 116.860251 380.370212 
L 118.222175 380.370212 
L 118.222175 88.283755 
L 118.225233 433.142883 
L 118.277082 380.370212 
L 119.639006 380.370212 
L 119.639006 88.283755 
L 119.64511 433.142883 
L 119.693914 380.370212 
L 121.055837 380.370212 
L 121.055837 88.283755 
L 121.064995 433.142883 
L 121.995093 355.549579 
L 122.087115 355.549579 
L 122.087115 433.142883 
L 122.470847 433.142883 
L 123.716018 433.142883 
L 123.716018 88.283755 
L 123.824549 88.283755 
L 131.497624 88.283755 
L 131.56313 433.142883 
L 132.134698 433.142883 
L 133.674039 433.142883 
L 133.674039 88.283755 
L 134.660376 88.283755 
L 134.725235 88.283755 
L 134.829987 433.142883 
L 135.542049 88.283755 
L 136.292441 88.283755 
L 136.311237 433.142883 
L 137.279483 88.283755 
L 137.486775 88.283755 
L 137.486775 433.142883 
L 138.411679 433.142883 
L 139.09785 433.142883 
L 139.09785 88.283755 
L 140.080836 88.283755 
L 141.173922 88.283755 
L 141.294008 433.142883 
L 142.113473 88.283755 
L 142.212699 88.283755 
L 142.212699 433.142883 
L 143.20857 401.494989 
L 143.257048 401.086675 
L 143.402522 419.634148 
L 144.190437 329.871369 
L 144.253259 412.971211 
L 144.274204 412.971211 
L 144.547052 433.142883 
L 145.158785 88.283755 
L 146.598906 88.283755 
L 146.626288 227.975842 
L 147.578151 151.744732 
L 147.604313 151.744732 
L 148.50857 409.304324 
L 147.787506 88.283755 
L 148.581294 390.086963 
L 148.605537 390.086963 
L 148.726768 429.785223 
L 149.235907 386.512756 
L 149.600682 428.414468 
L 149.626041 428.414468 
L 149.727512 433.142883 
L 150.201905 88.283755 
L 150.682538 88.283755 
L 150.719135 433.142883 
L 150.734387 380.370212 
L 152.096311 380.370212 
L 152.096311 88.283755 
L 152.099369 433.142883 
L 152.151218 380.370212 
L 153.513142 380.370212 
L 153.513142 88.283755 
L 153.519246 433.142883 
L 153.56805 380.370212 
L 154.929974 380.370212 
L 154.929974 88.283755 
L 154.939131 433.142883 
L 155.86923 355.549579 
L 155.961251 355.549579 
L 155.961251 433.142883 
L 156.358786 433.142883 
L 157.617761 433.142883 
L 157.617761 88.283755 
L 157.726291 88.283755 
L 165.399367 88.283755 
L 165.464873 433.142883 
L 166.050244 433.142883 
L 167.603388 433.142883 
L 167.603388 88.283755 
L 168.589725 88.283755 
L 168.654584 88.283755 
L 168.759336 433.142883 
L 169.471398 88.283755 
L 170.22179 88.283755 
L 170.240587 433.142883 
L 171.208832 88.283755 
L 171.416124 88.283755 
L 171.416124 433.142883 
L 172.341028 433.142883 
L 173.027199 433.142883 
L 173.027199 88.283755 
L 174.010185 88.283755 
L 175.103271 88.283755 
L 175.223357 433.142883 
L 176.042822 88.283755 
L 176.142048 88.283755 
L 176.142048 433.142883 
L 177.13792 401.494989 
L 177.186397 401.086675 
L 177.331871 419.634148 
L 178.119787 329.871369 
L 178.182609 412.971211 
L 178.203553 412.971211 
L 178.476401 433.142883 
L 179.088134 88.283755 
L 180.528255 88.283755 
L 180.555637 227.975842 
L 181.5075 151.744732 
L 181.533662 151.744732 
L 182.437919 409.304324 
L 181.716856 88.283755 
L 182.510643 390.086963 
L 182.534886 390.086963 
L 182.656117 429.785223 
L 183.165256 386.512756 
L 183.530031 428.414468 
L 183.55539 428.414468 
L 183.656861 433.142883 
L 184.131254 88.283755 
L 184.611887 88.283755 
L 184.648484 433.142883 
L 184.663737 380.370212 
L 186.02566 380.370212 
L 186.02566 88.283755 
L 186.028718 433.142883 
L 186.080568 380.370212 
L 187.442492 380.370212 
L 187.442492 88.283755 
L 187.448595 433.142883 
L 187.497399 380.370212 
L 188.859323 380.370212 
L 188.859323 88.283755 
L 188.86848 433.142883 
L 189.798579 355.549579 
L 189.890601 355.549579 
L 189.890601 433.142883 
L 190.301938 433.142883 
L 191.574717 433.142883 
L 191.574717 88.283755 
L 191.683247 88.283755 
L 199.356323 88.283755 
L 199.421829 433.142883 
L 200.021003 433.142883 
L 201.587951 433.142883 
L 201.587951 88.283755 
L 202.574287 88.283755 
L 202.639146 88.283755 
L 202.743898 433.142883 
L 203.455961 88.283755 
L 204.206352 88.283755 
L 204.225149 433.142883 
L 205.193394 88.283755 
L 205.400686 88.283755 
L 205.400686 433.142883 
L 206.325591 433.142883 
L 207.011761 433.142883 
L 207.011761 88.283755 
L 207.994747 88.283755 
L 209.087833 88.283755 
L 209.207919 433.142883 
L 210.027385 88.283755 
L 210.12661 88.283755 
L 210.12661 433.142883 
L 211.122482 401.494989 
L 211.170959 401.086675 
L 211.316434 419.634148 
L 212.104349 329.871369 
L 212.167171 412.971211 
L 212.188115 412.971211 
L 212.460964 433.142883 
L 213.072696 88.283755 
L 214.512817 88.283755 
L 214.5402 227.975842 
L 215.492063 151.744732 
L 215.518224 151.744732 
L 216.422481 409.304324 
L 215.701418 88.283755 
L 216.495206 390.086963 
L 216.519449 390.086963 
L 216.640679 429.785223 
L 217.149818 386.512756 
L 217.514593 428.414468 
L 217.539953 428.414468 
L 217.641424 433.142883 
L 218.115817 88.283755 
L 218.59645 88.283755 
L 218.633046 433.142883 
L 218.648299 380.370212 
L 220.010223 380.370212 
L 220.010223 88.283755 
L 220.013281 433.142883 
L 220.06513 380.370212 
L 221.427054 380.370212 
L 221.427054 88.283755 
L 221.433157 433.142883 
L 221.481961 380.370212 
L 222.843885 380.370212 
L 222.843885 88.283755 
L 222.853043 433.142883 
L 223.783141 355.549579 
L 223.875163 355.549579 
L 223.875163 433.142883 
L 224.300304 433.142883 
L 225.578604 433.142883 
L 225.578604 88.283755 
L 225.687134 88.283755 
L 233.36021 88.283755 
L 233.425716 433.142883 
L 234.030411 433.142883 
L 235.575394 433.142883 
L 235.575394 88.283755 
L 236.567505 88.283755 
L 236.59994 88.283755 
L 236.704692 433.142883 
L 237.416754 88.283755 
L 238.167146 88.283755 
L 238.185943 433.142883 
L 239.154188 88.283755 
L 239.36148 88.283755 
L 239.36148 433.142883 
L 240.286385 433.142883 
L 240.972555 433.142883 
L 240.972555 88.283755 
L 241.955541 88.283755 
L 243.048627 88.283755 
L 243.168713 433.142883 
L 243.988179 88.283755 
L 244.087404 88.283755 
L 244.087404 433.142883 
L 245.083276 401.494989 
L 245.131753 401.086675 
L 245.277228 419.634148 
L 246.065143 329.871369 
L 246.127965 412.971211 
L 246.148909 412.971211 
L 246.421757 433.142883 
L 247.03349 88.283755 
L 248.473611 88.283755 
L 248.500994 227.975842 
L 249.452856 151.744732 
L 249.479018 151.744732 
L 250.383275 409.304324 
L 249.662212 88.283755 
L 250.455999 390.086963 
L 250.480242 390.086963 
L 250.601473 429.785223 
L 251.110612 386.512756 
L 251.475387 428.414468 
L 251.500746 428.414468 
L 251.602217 433.142883 
L 252.07661 88.283755 
L 252.557243 88.283755 
L 252.59384 433.142883 
L 252.609093 380.370212 
L 253.971017 380.370212 
L 253.971017 88.283755 
L 253.974074 433.142883 
L 254.025924 380.370212 
L 255.387848 380.370212 
L 255.387848 88.283755 
L 255.393951 433.142883 
L 255.442755 380.370212 
L 256.804679 380.370212 
L 256.804679 88.283755 
L 256.813836 433.142883 
L 257.743935 355.549579 
L 257.835957 355.549579 
L 257.835957 433.142883 
L 258.266619 433.142883 
L 259.55044 433.142883 
L 259.55044 88.283755 
L 259.65897 88.283755 
L 267.332046 88.283755 
L 267.397552 433.142883 
L 268.007769 433.142883 
L 269.558273 433.142883 
L 269.558273 88.283755 
L 270.550384 88.283755 
L 270.582819 88.283755 
L 270.687571 433.142883 
L 271.399633 88.283755 
L 272.150025 88.283755 
L 272.168822 433.142883 
L 273.137067 88.283755 
L 273.344359 88.283755 
L 273.344359 433.142883 
L 274.269263 433.142883 
L 274.955434 433.142883 
L 274.955434 88.283755 
L 275.93842 88.283755 
L 277.031506 88.283755 
L 277.151592 433.142883 
L 277.971057 88.283755 
L 278.070283 88.283755 
L 278.070283 433.142883 
L 279.066155 401.494989 
L 279.114632 401.086675 
L 279.260106 419.634148 
L 280.048022 329.871369 
L 280.110844 412.971211 
L 280.131788 412.971211 
L 280.404636 433.142883 
L 281.016369 88.283755 
L 282.45649 88.283755 
L 282.483872 227.975842 
L 283.435735 151.744732 
L 283.461897 151.744732 
L 284.366154 409.304324 
L 283.645091 88.283755 
L 284.438878 390.086963 
L 284.463121 390.086963 
L 284.584352 429.785223 
L 285.093491 386.512756 
L 285.458266 428.414468 
L 285.483625 428.414468 
L 285.585096 433.142883 
L 286.059489 88.283755 
L 286.540122 88.283755 
L 286.576719 433.142883 
L 286.591972 380.370212 
L 287.953895 380.370212 
L 287.953895 88.283755 
L 287.956953 433.142883 
L 288.008803 380.370212 
L 289.370727 380.370212 
L 289.370727 88.283755 
L 289.37683 433.142883 
L 289.425634 380.370212 
L 290.787558 380.370212 
L 290.787558 88.283755 
L 290.796715 433.142883 
L 291.726814 355.549579 
L 291.818836 355.549579 
L 291.818836 433.142883 
L 292.255019 433.142883 
L 293.547766 433.142883 
L 293.547766 88.283755 
L 293.656297 88.283755 
L 301.329372 88.283755 
L 301.394878 433.142883 
L 302.014022 433.142883 
L 303.571193 433.142883 
L 303.571193 88.283755 
L 304.555673 88.283755 
L 304.620533 88.283755 
L 304.725285 433.142883 
L 305.437347 88.283755 
L 306.187739 88.283755 
L 306.206535 433.142883 
L 307.174781 88.283755 
L 307.382073 88.283755 
L 307.382073 433.142883 
L 308.306977 433.142883 
L 308.993148 433.142883 
L 308.993148 88.283755 
L 309.976134 88.283755 
L 311.06922 88.283755 
L 311.189306 433.142883 
L 312.008771 88.283755 
L 312.107997 88.283755 
L 312.107997 433.142883 
L 313.103868 401.494989 
L 313.152346 401.086675 
L 313.29782 419.634148 
L 314.085735 329.871369 
L 314.148557 412.971211 
L 314.169502 412.971211 
L 314.44235 433.142883 
L 315.054083 88.283755 
L 316.494204 88.283755 
L 316.521586 227.975842 
L 317.473449 151.744732 
L 317.499611 151.744732 
L 318.403868 409.304324 
L 317.682804 88.283755 
L 318.476592 390.086963 
L 318.500835 390.086963 
L 318.622066 429.785223 
L 319.131205 386.512756 
L 319.49598 428.414468 
L 319.521339 428.414468 
L 319.62281 433.142883 
L 320.097203 88.283755 
L 320.577836 88.283755 
L 320.614433 433.142883 
L 320.629685 380.370212 
L 321.991609 380.370212 
L 321.991609 88.283755 
L 321.994667 433.142883 
L 322.046516 380.370212 
L 323.40844 380.370212 
L 323.40844 88.283755 
L 323.414544 433.142883 
L 323.463348 380.370212 
L 324.825272 380.370212 
L 324.825272 88.283755 
L 324.834429 433.142883 
L 325.764527 355.549579 
L 325.856549 355.549579 
L 325.856549 433.142883 
L 326.301659 433.142883 
L 327.603314 433.142883 
L 327.603314 88.283755 
L 327.711844 88.283755 
L 335.38492 88.283755 
L 335.450426 433.142883 
L 336.078477 433.142883 
L 337.644575 433.142883 
L 337.644575 88.283755 
L 338.62905 88.283755 
L 338.693909 88.283755 
L 338.798661 433.142883 
L 339.510724 88.283755 
L 340.261115 88.283755 
L 340.279912 433.142883 
L 341.248157 88.283755 
L 341.455449 88.283755 
L 341.455449 433.142883 
L 342.380354 433.142883 
L 343.066524 433.142883 
L 343.066524 88.283755 
L 344.04951 88.283755 
L 345.142596 88.283755 
L 345.262682 433.142883 
L 346.082148 88.283755 
L 346.181373 88.283755 
L 346.181373 433.142883 
L 347.177245 401.494989 
L 347.225722 401.086675 
L 347.371197 419.634148 
L 348.159112 329.871369 
L 348.221934 412.971211 
L 348.242878 412.971211 
L 348.515727 433.142883 
L 349.127459 88.283755 
L 350.56758 88.283755 
L 350.594963 227.975842 
L 351.546826 151.744732 
L 351.572987 151.744732 
L 352.477244 409.304324 
L 351.756181 88.283755 
L 352.549969 390.086963 
L 352.574212 390.086963 
L 352.695442 429.785223 
L 353.204581 386.512756 
L 353.569356 428.414468 
L 353.594716 428.414468 
L 353.696187 433.142883 
L 354.17058 88.283755 
L 354.651213 88.283755 
L 354.687809 433.142883 
L 354.703062 380.370212 
L 356.064986 380.370212 
L 356.064986 88.283755 
L 356.068044 433.142883 
L 356.119893 380.370212 
L 357.481817 380.370212 
L 357.481817 88.283755 
L 357.48792 433.142883 
L 357.536724 380.370212 
L 358.898648 380.370212 
L 358.898648 88.283755 
L 358.907806 433.142883 
L 359.837904 355.549579 
L 359.929926 355.549579 
L 359.929926 433.142883 
L 360.383944 433.142883 
L 361.694524 433.142883 
L 361.694524 88.283755 
L 361.803055 88.283755 
L 369.476131 88.283755 
L 369.541636 433.142883 
L 370.178613 433.142883 
L 371.958423 433.142883 
L 371.958423 88.283755 
L 372.857845 433.142883 
L 372.968271 433.142883 
L 372.968271 88.283755 
L 373.94274 98.394162 
L 373.970116 98.394162 
L 374.475854 201.318231 
L 374.024895 88.283755 
L 374.670446 88.283755 
L 375.725968 88.283755 
L 375.846054 433.142883 
L 376.723267 88.283755 
L 377.271245 88.283755 
L 377.756125 419.634148 
L 378.178829 355.687178 
L 378.54404 355.687178 
L 378.900655 433.142883 
L 379.512388 88.283755 
L 379.744704 88.283755 
L 379.744704 433.142883 
L 379.845374 433.142883 
L 380.924736 433.142883 
L 380.924736 88.283755 
L 381.906938 88.283755 
L 383.708997 88.283755 
L 384.197256 429.785223 
L 384.642353 390.477171 
L 385.223701 390.477171 
L 385.99353 314.65877 
L 385.240778 433.142883 
L 386.155634 433.142883 
L 386.730587 433.142883 
L 386.730587 88.283755 
L 387.370397 88.283755 
L 388.130537 88.283755 
L 388.130537 433.142883 
L 388.182387 380.370212 
L 389.544311 380.370212 
L 389.544311 88.283755 
L 389.550414 433.142883 
L 389.599218 380.370212 
L 390.961142 380.370212 
L 390.961142 88.283755 
L 390.970299 433.142883 
L 391.016049 380.370212 
L 392.377973 380.370212 
L 392.377973 88.283755 
L 392.417627 433.142883 
L 393.184957 433.142883 
L 395.129524 433.142883 
L 395.129524 88.283755 
L 395.238055 88.283755 
L 402.911131 88.283755 
L 402.976636 433.142883 
L 403.622521 433.142883 
L 405.411257 433.142883 
L 405.411257 88.283755 
L 406.310674 433.142883 
L 406.4211 433.142883 
L 406.4211 88.283755 
L 407.395569 98.394162 
L 407.422945 98.394162 
L 407.928683 201.318231 
L 407.477724 88.283755 
L 408.123275 88.283755 
L 409.178797 88.283755 
L 409.298883 433.142883 
L 410.176096 88.283755 
L 410.724074 88.283755 
L 411.208954 419.634148 
L 411.631658 355.687178 
L 411.99687 355.687178 
L 412.353484 433.142883 
L 412.965217 88.283755 
L 413.197533 88.283755 
L 413.197533 433.142883 
L 413.298203 433.142883 
L 414.377565 433.142883 
L 414.377565 88.283755 
L 415.359767 88.283755 
L 417.161826 88.283755 
L 417.650085 429.785223 
L 418.095182 390.477171 
L 418.67653 390.477171 
L 419.446359 314.65877 
L 418.693607 433.142883 
L 419.608464 433.142883 
L 420.183416 433.142883 
L 420.183416 88.283755 
L 420.823226 88.283755 
L 421.583366 88.283755 
L 421.583366 433.142883 
L 421.635216 380.370212 
L 422.99714 380.370212 
L 422.99714 88.283755 
L 423.003243 433.142883 
L 423.052047 380.370212 
L 424.413971 380.370212 
L 424.413971 88.283755 
L 424.423128 433.142883 
L 424.468878 380.370212 
L 425.830802 380.370212 
L 425.830802 88.283755 
L 425.870457 433.142883 
L 426.637786 433.142883 
L 428.600187 433.142883 
L 428.600187 88.283755 
L 428.708718 88.283755 
L 436.381793 88.283755 
L 436.447299 433.142883 
L 437.10211 433.142883 
L 438.899758 433.142883 
L 438.899758 88.283755 
L 439.799176 433.142883 
L 439.909602 433.142883 
L 439.909602 88.283755 
L 440.884071 98.394162 
L 440.911447 98.394162 
L 441.417185 201.318231 
L 440.966225 88.283755 
L 441.611776 88.283755 
L 442.667299 88.283755 
L 442.787385 433.142883 
L 443.664597 88.283755 
L 444.212576 88.283755 
L 444.697456 419.634148 
L 445.12016 355.687178 
L 445.485371 355.687178 
L 445.841986 433.142883 
L 446.453718 88.283755 
L 446.686035 88.283755 
L 446.686035 433.142883 
L 446.786705 433.142883 
L 447.866066 433.142883 
L 447.866066 88.283755 
L 448.848269 88.283755 
L 450.650327 88.283755 
L 451.138586 429.785223 
L 451.583684 390.477171 
L 452.165031 390.477171 
L 452.93486 314.65877 
L 452.182108 433.142883 
L 453.096965 433.142883 
L 453.671918 433.142883 
L 453.671918 88.283755 
L 454.311728 88.283755 
L 455.071868 88.283755 
L 455.071868 433.142883 
L 455.123717 380.370212 
L 456.485641 380.370212 
L 456.485641 88.283755 
L 456.491744 433.142883 
L 456.540548 380.370212 
L 457.902472 380.370212 
L 457.902472 88.283755 
L 457.91163 433.142883 
L 457.95738 380.370212 
L 459.319304 380.370212 
L 459.319304 88.283755 
L 459.358958 433.142883 
L 460.126287 433.142883 
L 462.106541 433.142883 
L 462.106541 88.283755 
L 462.215072 88.283755 
L 469.888147 88.283755 
L 469.953653 433.142883 
L 470.61739 433.142883 
L 472.42396 433.142883 
L 472.42396 88.283755 
L 473.323382 433.142883 
L 473.433808 433.142883 
L 473.433808 88.283755 
L 474.408277 98.394162 
L 474.435653 98.394162 
L 474.941391 201.318231 
L 474.490432 88.283755 
L 475.135982 88.283755 
L 476.191505 88.283755 
L 476.311591 433.142883 
L 477.188803 88.283755 
L 477.736782 88.283755 
L 478.221662 419.634148 
L 478.644366 355.687178 
L 479.009577 355.687178 
L 479.366192 433.142883 
L 479.977924 88.283755 
L 480.210241 88.283755 
L 480.210241 433.142883 
L 480.310911 433.142883 
L 481.390272 433.142883 
L 481.390272 88.283755 
L 482.372475 88.283755 
L 484.174533 88.283755 
L 484.662792 429.785223 
L 485.10789 390.477171 
L 485.689238 390.477171 
L 486.459066 314.65877 
L 485.706314 433.142883 
L 486.621171 433.142883 
L 487.196124 433.142883 
L 487.196124 88.283755 
L 487.835934 88.283755 
L 488.596074 88.283755 
L 488.596074 433.142883 
L 488.647923 380.370212 
L 490.009847 380.370212 
L 490.009847 88.283755 
L 490.01595 433.142883 
L 490.064754 380.370212 
L 491.426678 380.370212 
L 491.426678 88.283755 
L 491.435836 433.142883 
L 491.481586 380.370212 
L 492.84351 380.370212 
L 492.84351 88.283755 
L 492.883164 433.142883 
L 493.650493 433.142883 
L 495.648581 433.142883 
L 495.648581 88.283755 
L 495.757111 88.283755 
L 503.430187 88.283755 
L 503.495693 433.142883 
L 504.168338 433.142883 
L 505.983833 433.142883 
L 505.983833 88.283755 
L 506.883251 433.142883 
L 506.993677 433.142883 
L 506.993677 88.283755 
L 507.968146 98.394162 
L 507.995522 98.394162 
L 508.50126 201.318231 
L 508.0503 88.283755 
L 508.695851 88.283755 
L 509.751374 88.283755 
L 509.87146 433.142883 
L 510.748672 88.283755 
L 511.296651 88.283755 
L 511.781531 419.634148 
L 512.204235 355.687178 
L 512.569446 355.687178 
L 512.926061 433.142883 
L 513.537793 88.283755 
L 513.77011 88.283755 
L 513.77011 433.142883 
L 513.87078 433.142883 
L 514.950141 433.142883 
L 514.950141 88.283755 
L 515.932344 88.283755 
L 517.734402 88.283755 
L 518.222661 429.785223 
L 518.667759 390.477171 
L 519.249106 390.477171 
L 520.018935 314.65877 
L 519.266183 433.142883 
L 520.18104 433.142883 
L 520.755993 433.142883 
L 520.755993 88.283755 
L 521.395803 88.283755 
L 522.155943 88.283755 
L 522.155943 433.142883 
L 522.207792 380.370212 
L 523.569716 380.370212 
L 523.569716 88.283755 
L 523.575819 433.142883 
L 523.624623 380.370212 
L 524.986547 380.370212 
L 524.986547 88.283755 
L 524.995705 433.142883 
L 525.041455 380.370212 
L 526.403378 380.370212 
L 526.403378 88.283755 
L 526.443033 433.142883 
L 527.210362 433.142883 
L 529.226301 433.142883 
L 529.226301 88.283755 
L 529.33485 88.283755 
L 537.007926 88.283755 
L 537.073432 433.142883 
L 537.755021 433.142883 
L 539.579441 433.142883 
L 539.579441 88.283755 
L 540.478863 433.142883 
L 540.589289 433.142883 
L 540.589289 88.283755 
L 541.563758 98.394162 
L 541.591134 98.394162 
L 542.096872 201.318231 
L 541.645912 88.283755 
L 542.291463 88.283755 
L 543.346986 88.283755 
L 543.467072 433.142883 
L 544.344284 88.283755 
L 544.892263 88.283755 
L 545.377143 419.634148 
L 545.799847 355.687178 
L 546.165058 355.687178 
L 546.521673 433.142883 
L 547.133405 88.283755 
L 547.365722 88.283755 
L 547.365722 433.142883 
L 547.466392 433.142883 
L 548.545753 433.142883 
L 548.545753 88.283755 
L 549.527956 88.283755 
L 551.330014 88.283755 
L 551.818273 429.785223 
L 552.263371 390.477171 
L 552.844718 390.477171 
L 553.614547 314.65877 
L 552.861795 433.142883 
L 553.776652 433.142883 
L 554.351605 433.142883 
L 554.351605 88.283755 
L 554.991415 88.283755 
L 555.751555 88.283755 
L 555.751555 433.142883 
L 555.803404 380.370212 
L 557.165328 380.370212 
L 557.165328 88.283755 
L 557.171431 433.142883 
L 557.220235 380.370212 
L 558.582159 380.370212 
L 558.582159 88.283755 
L 558.591317 433.142883 
L 558.637067 380.370212 
L 559.99899 380.370212 
L 559.99899 88.283755 
L 560.038645 433.142883 
L 560.805974 433.142883 
L 562.839766 433.142883 
L 562.839766 88.283755 
L 562.948315 88.283755 
L 570.62139 88.283755 
L 570.686896 433.142883 
L 571.377412 433.142883 
L 573.210757 433.142883 
L 573.210757 88.283755 
L 574.110179 433.142883 
L 574.220605 433.142883 
L 574.220605 88.283755 
L 575.195074 98.394162 
L 575.22245 98.394162 
L 575.728188 201.318231 
L 575.277229 88.283755 
L 575.92278 88.283755 
L 576.978302 88.283755 
L 577.098388 433.142883 
L 577.975601 88.283755 
L 578.523579 88.283755 
L 579.008459 419.634148 
L 579.431163 355.687178 
L 579.796374 355.687178 
L 580.152989 433.142883 
L 580.764722 88.283755 
L 580.997038 88.283755 
L 580.997038 433.142883 
L 581.097708 433.142883 
L 582.17707 433.142883 
L 582.17707 88.283755 
L 583.159272 88.283755 
L 584.961331 88.283755 
L 585.44959 429.785223 
L 585.894687 390.477171 
L 586.476035 390.477171 
L 587.245864 314.65877 
L 586.493112 433.142883 
L 587.407968 433.142883 
L 587.982921 433.142883 
L 587.982921 88.283755 
L 588.622731 88.283755 
L 589.382871 88.283755 
L 589.382871 433.142883 
L 589.434721 380.370212 
L 590.796645 380.370212 
L 590.796645 88.283755 
L 590.802748 433.142883 
L 590.851552 380.370212 
L 592.213476 380.370212 
L 592.213476 88.283755 
L 592.222633 433.142883 
L 592.268383 380.370212 
L 593.630307 380.370212 
L 593.630307 88.283755 
L 593.669961 433.142883 
L 594.437291 433.142883 
L 596.488916 433.142883 
L 596.488916 88.283755 
L 596.597465 88.283755 
L 604.270541 88.283755 
L 604.336046 433.142883 
L 605.03547 433.142883 
L 606.877741 433.142883 
L 606.877741 88.283755 
L 607.777158 433.142883 
L 607.887585 433.142883 
L 607.887585 88.283755 
L 608.862053 98.394162 
L 608.889429 98.394162 
L 609.395168 201.318231 
L 608.944208 88.283755 
L 609.589759 88.283755 
L 610.645281 88.283755 
L 610.765367 433.142883 
L 611.64258 88.283755 
L 612.190558 88.283755 
L 612.675439 419.634148 
L 613.098143 355.687178 
L 613.463354 355.687178 
L 613.819968 433.142883 
L 614.431701 88.283755 
L 614.664018 88.283755 
L 614.664018 433.142883 
L 614.764688 433.142883 
L 615.844049 433.142883 
L 615.844049 88.283755 
L 616.826252 88.283755 
L 618.62831 88.283755 
L 619.116569 429.785223 
L 619.561667 390.477171 
L 620.143014 390.477171 
L 620.912843 314.65877 
L 620.160091 433.142883 
L 621.074948 433.142883 
L 621.649901 433.142883 
L 621.649901 88.283755 
L 622.28971 88.283755 
L 623.049851 88.283755 
L 623.049851 433.142883 
L 623.1017 380.370212 
L 624.463624 380.370212 
L 624.463624 88.283755 
L 624.469727 433.142883 
L 624.518531 380.370212 
L 625.880455 380.370212 
L 625.880455 88.283755 
L 625.889613 433.142883 
L 625.935362 380.370212 
L 627.297286 380.370212 
L 627.297286 88.283755 
L 627.336941 433.142883 
L 628.10427 433.142883 
L 630.173729 433.142883 
L 630.173729 88.283755 
L 630.282278 88.283755 
L 637.955354 88.283755 
L 638.02086 433.142883 
L 638.729209 433.142883 
L 640.580388 433.142883 
L 640.580388 88.283755 
L 641.47981 433.142883 
L 641.590237 433.142883 
L 641.590237 88.283755 
L 642.564705 98.394162 
L 642.592081 98.394162 
L 643.097819 201.318231 
L 642.64686 88.283755 
L 643.292411 88.283755 
L 644.347933 88.283755 
L 644.468019 433.142883 
L 645.345232 88.283755 
L 645.89321 88.283755 
L 646.378091 419.634148 
L 646.800795 355.687178 
L 647.166006 355.687178 
L 647.52262 433.142883 
L 648.134353 88.283755 
L 648.366669 88.283755 
L 648.366669 433.142883 
L 648.467339 433.142883 
L 649.546701 433.142883 
L 649.546701 88.283755 
L 650.528904 88.283755 
L 652.330962 88.283755 
L 652.819221 429.785223 
L 653.264318 390.477171 
L 653.845666 390.477171 
L 654.615495 314.65877 
L 653.862743 433.142883 
L 654.7776 433.142883 
L 655.352552 433.142883 
L 655.352552 88.283755 
L 655.992362 88.283755 
L 656.752503 88.283755 
L 656.752503 433.142883 
L 656.804352 380.370212 
L 658.166276 380.370212 
L 658.166276 88.283755 
L 658.172379 433.142883 
L 658.221183 380.370212 
L 659.583107 380.370212 
L 659.583107 88.283755 
L 659.592264 433.142883 
L 659.638014 380.370212 
L 660.999938 380.370212 
L 660.999938 88.283755 
L 661.039593 433.142883 
L 661.806922 433.142883 
L 663.894215 433.142883 
L 663.894215 88.283755 
L 664.002764 88.283755 
L 671.67584 88.283755 
L 671.741345 433.142883 
L 672.458602 433.142883 
L 674.318708 433.142883 
L 674.318708 88.283755 
L 675.218125 433.142883 
L 675.328551 433.142883 
L 675.328551 88.283755 
L 676.30302 98.394162 
L 676.330396 98.394162 
L 676.836134 201.318231 
L 676.385175 88.283755 
L 677.030726 88.283755 
L 678.086248 88.283755 
L 678.206334 433.142883 
L 679.083547 88.283755 
L 679.631525 88.283755 
L 680.116405 419.634148 
L 680.539109 355.687178 
L 680.90432 355.687178 
L 681.260935 433.142883 
L 681.872668 88.283755 
L 682.104984 88.283755 
L 682.104984 433.142883 
L 682.205654 433.142883 
L 683.285016 433.142883 
L 683.285016 88.283755 
L 684.267218 88.283755 
L 686.069277 88.283755 
L 686.557536 429.785223 
L 687.002633 390.477171 
L 687.583981 390.477171 
L 688.35381 314.65877 
L 687.601058 433.142883 
L 688.515914 433.142883 
L 689.090867 433.142883 
L 689.090867 88.283755 
L 689.730677 88.283755 
L 690.490817 88.283755 
L 690.490817 433.142883 
L 690.542667 380.370212 
L 691.904591 380.370212 
L 691.904591 88.283755 
L 691.910694 433.142883 
L 691.959498 380.370212 
L 693.321422 380.370212 
L 693.321422 88.283755 
L 693.330579 433.142883 
L 693.376329 380.370212 
L 694.738253 380.370212 
L 694.738253 88.283755 
L 694.777907 433.142883 
L 695.545237 433.142883 
L 697.650363 433.142883 
L 697.650363 88.283755 
L 697.758912 88.283755 
L 705.431988 88.283755 
L 705.497494 433.142883 
L 706.223677 433.142883 
L 708.092695 433.142883 
L 708.092695 88.283755 
L 708.992112 433.142883 
L 709.102538 433.142883 
L 709.102538 88.283755 
L 710.077007 98.394162 
L 710.104383 98.394162 
L 710.610121 201.318231 
L 710.159162 88.283755 
L 710.804713 88.283755 
L 711.860235 88.283755 
L 711.980321 433.142883 
L 712.857534 88.283755 
L 713.405512 88.283755 
L 713.890392 419.634148 
L 714.313097 355.687178 
L 714.678308 355.687178 
L 715.034922 433.142883 
L 715.646655 88.283755 
L 715.878971 88.283755 
L 715.878971 433.142883 
L 715.979641 433.142883 
L 717.059003 433.142883 
L 717.059003 88.283755 
L 718.041206 88.283755 
L 719.843264 88.283755 
L 720.331523 429.785223 
L 720.77662 390.477171 
L 721.357968 390.477171 
L 722.127797 314.65877 
L 721.375045 433.142883 
L 722.289902 433.142883 
L 722.864854 433.142883 
L 722.864854 88.283755 
L 723.504664 88.283755 
L 724.264804 88.283755 
L 724.264804 433.142883 
L 724.316654 380.370212 
L 725.678578 380.370212 
L 725.678578 88.283755 
L 725.684681 433.142883 
L 725.733485 380.370212 
L 727.095409 380.370212 
L 727.095409 88.283755 
L 727.104566 433.142883 
L 727.150316 380.370212 
L 728.51224 380.370212 
L 728.51224 88.283755 
L 728.551895 433.142883 
L 729.319224 433.142883 
L 731.443712 433.142883 
L 731.443712 88.283755 
L 731.552261 88.283755 
L 739.225337 88.283755 
L 739.290843 433.142883 
L 740.027461 433.142883 
L 740.600444 433.142883 
L 740.600444 88.283755 
L 740.708993 88.283755 
L 748.382069 88.283755 
L 748.447575 433.142883 
L 749.19461 433.142883 
L 749.778029 433.142883 
L 749.778029 88.283755 
L 749.886578 88.283755 
L 757.559654 88.283755 
L 757.625159 433.142883 
L 758.38263 433.142883 
L 758.976484 433.142883 
L 758.976484 88.283755 
L 759.085033 88.283755 
L 766.758109 88.283755 
L 766.823614 433.142883 
L 767.59152 433.142883 
L 768.195791 433.142883 
L 768.195791 88.283755 
L 768.30434 88.283755 
L 775.977416 88.283755 
L 776.042922 433.142883 
L 776.821244 433.142883 
L 777.435951 433.142883 
L 777.435951 88.283755 
L 777.5445 88.283755 
L 785.217575 88.283755 
L 785.283081 433.142883 
L 786.071839 433.142883 
L 786.696981 433.142883 
L 786.696981 88.283755 
L 786.80553 88.283755 
L 794.478605 88.283755 
L 794.544111 433.142883 
L 795.343304 433.142883 
L 795.978863 433.142883 
L 795.978863 88.283755 
L 796.08743 88.283755 
L 803.760506 88.283755 
L 803.826012 433.142883 
L 804.63564 433.142883 
L 805.005568 433.142883 
L 805.005568 433.142883 
" clip-path="url(#p44a63c730b)" style="fill: none; stroke: #000000; stroke-width: 0.5; stroke-linecap: square"/>
   </g>
   <g id="patch_3">
    <path d="M 44.45 450.38584 
L 44.45 71.040799 
" style="fill: none; stroke: #000000; stroke-width: 0.8; stroke-linejoin: miter; stroke-linecap: square"/>
   </g>
   <g id="patch_4">
    <path d="M 841.2225 450.38584 
L 841.2225 71.040799 
" style="fill: none; stroke: #000000; stroke-width: 0.8; stroke-linejoin: miter; stroke-linecap: square"/>
   </g>
   <g id="patch_5">
    <path d="M 44.45 450.38584 
L 841.2225 450.38584 
" style="fill: none; stroke: #000000; stroke-width: 0.8; stroke-linejoin: miter; stroke-linecap: square"/>
   </g>
   <g id="patch_6">
    <path d="M 44.45 71.040799 
L 841.2225 71.040799 
" style="fill: none; stroke: #000000; stroke-width: 0.8; stroke-linejoin: miter; stroke-linecap: square"/>
   </g>
   <g id="text_21">
    <!-- 切宽变化 -->
    <g transform="translate(414.83625 18.575) scale(0.14 -0.14)">
     <defs>
      <path id="SimHei-53d8" d="M 5200 1975 
Q 4950 1600 4537 1137 
Q 4125 675 3675 375 
Q 3925 225 4600 87 
Q 5275 -50 6000 -75 
Q 5700 -400 5650 -625 
Q 4850 -525 4212 -312 
Q 3575 -100 3225 125 
Q 2800 -125 2150 -325 
Q 1500 -525 700 -675 
Q 600 -425 400 -175 
Q 950 -150 1687 12 
Q 2425 175 2825 375 
Q 2275 775 1675 1575 
Q 1350 1575 1000 1550 
L 1000 2000 
Q 1450 1975 2075 1975 
L 5200 1975 
z
M 3225 5275 
Q 3400 4900 3550 4475 
L 4675 4475 
Q 5400 4475 5975 4500 
L 5975 4025 
Q 5375 4050 4725 4050 
L 4125 4050 
L 4125 2950 
Q 4125 2550 4150 2150 
L 3600 2150 
Q 3625 2550 3625 2950 
L 3625 4050 
L 2750 4050 
L 2750 2950 
Q 2750 2675 2775 2150 
L 2225 2150 
Q 2250 2675 2250 2950 
L 2250 4050 
L 1700 4050 
Q 975 4050 425 4025 
L 425 4500 
Q 950 4475 1700 4475 
L 2975 4475 
Q 2925 4675 2700 5125 
Q 2950 5150 3225 5275 
z
M 2200 1575 
Q 2650 975 3250 600 
Q 3850 1000 4275 1575 
L 2200 1575 
z
M 4850 3750 
Q 5375 3275 5950 2675 
Q 5750 2525 5500 2300 
Q 5075 2800 4450 3400 
Q 4675 3575 4850 3750 
z
M 1825 3500 
Q 1700 3375 1425 3025 
Q 1150 2675 825 2300 
Q 575 2475 375 2600 
Q 975 3150 1300 3825 
Q 1525 3650 1825 3500 
z
" transform="scale(0.015625)"/>
      <path id="SimHei-5316" d="M 3925 5025 
Q 3900 4900 3900 4400 
L 3900 2625 
Q 4375 3025 4775 3450 
Q 5175 3875 5400 4300 
Q 5600 4100 5900 3925 
Q 5700 3700 5225 3212 
Q 4750 2725 4487 2512 
Q 4225 2300 3900 2025 
L 3900 450 
Q 3900 50 4225 50 
L 5200 50 
Q 5400 75 5462 262 
Q 5525 450 5575 850 
Q 5800 650 6150 600 
Q 6000 -100 5825 -250 
Q 5650 -400 5350 -400 
L 3950 -400 
Q 3425 -400 3400 200 
L 3400 1675 
Q 3225 1525 2962 1350 
Q 2700 1175 2375 975 
Q 2225 1225 2025 1400 
Q 2350 1550 2737 1787 
Q 3125 2025 3400 2250 
L 3400 4500 
Q 3400 4800 3375 5025 
L 3925 5025 
z
M 2400 4850 
Q 2175 4550 2075 4337 
Q 1975 4125 1825 3775 
L 1825 675 
Q 1825 -75 1850 -550 
L 1325 -550 
Q 1350 -125 1350 650 
L 1350 3050 
Q 1125 2725 962 2525 
Q 800 2325 675 2175 
Q 500 2375 275 2525 
Q 625 2850 875 3212 
Q 1125 3575 1312 3912 
Q 1500 4250 1625 4575 
Q 1750 4900 1825 5100 
Q 1975 4975 2400 4850 
z
" transform="scale(0.015625)"/>
     </defs>
     <use xlink:href="#SimHei-5207"/>
     <use xlink:href="#SimHei-5bbd" x="100"/>
     <use xlink:href="#SimHei-53d8" x="200"/>
     <use xlink:href="#SimHei-5316" x="300"/>
    </g>
   </g>
  </g>
  <g id="axes_2">
   <g id="matplotlib.axis_3">
    <g id="xtick_10">
     <g id="line2d_38">
      <defs>
       <path id="m0aabf0e669" d="M 0 0 
L 0 -3.5 
" style="stroke: #000000; stroke-width: 0.8"/>
      </defs>
      <g>
       <use xlink:href="#m0aabf0e669" x="80.666932" y="71.040799" style="stroke: #000000; stroke-width: 0.8"/>
      </g>
     </g>
     <g id="text_22">
      <!-- N0018 -->
      <g transform="translate(84.556019 63.333692) rotate(-45) scale(0.08 -0.08)">
       <defs>
        <path id="SimHei-4e" d="M 2850 125 
L 2225 125 
L 850 3225 
L 825 3225 
L 825 125 
L 250 125 
L 250 4400 
L 875 4400 
L 2250 1300 
L 2275 1300 
L 2275 4400 
L 2850 4400 
L 2850 125 
z
" transform="scale(0.015625)"/>
        <path id="SimHei-38" d="M 175 1375 
Q 175 1675 325 1962 
Q 475 2250 825 2425 
Q 525 2600 425 2812 
Q 325 3025 312 3300 
Q 300 3575 387 3775 
Q 475 3975 650 4150 
Q 825 4325 1037 4387 
Q 1250 4450 1500 4450 
Q 1750 4450 1950 4400 
Q 2150 4350 2375 4187 
Q 2600 4025 2700 3725 
Q 2800 3425 2687 3025 
Q 2575 2625 2100 2400 
Q 2525 2275 2700 2012 
Q 2875 1750 2875 1375 
Q 2875 1000 2762 775 
Q 2650 550 2512 400 
Q 2375 250 2137 162 
Q 1900 75 1537 75 
Q 1175 75 912 162 
Q 650 250 475 425 
Q 300 600 237 837 
Q 175 1075 175 1375 
z
M 687 1400 
Q 675 1100 787 875 
Q 900 650 1200 587 
Q 1500 525 1825 600 
Q 2150 675 2275 950 
Q 2400 1225 2362 1500 
Q 2325 1775 2050 1962 
Q 1775 2150 1450 2125 
Q 1125 2100 912 1900 
Q 700 1700 687 1400 
z
M 775 3350 
Q 775 3100 950 2875 
Q 1125 2650 1500 2650 
Q 1875 2650 2062 2875 
Q 2250 3100 2237 3412 
Q 2225 3725 2012 3875 
Q 1800 4025 1437 4000 
Q 1075 3975 925 3787 
Q 775 3600 775 3350 
z
" transform="scale(0.015625)"/>
       </defs>
       <use xlink:href="#SimHei-4e"/>
       <use xlink:href="#SimHei-30" x="50"/>
       <use xlink:href="#SimHei-30" x="100"/>
       <use xlink:href="#SimHei-31" x="150"/>
       <use xlink:href="#SimHei-38" x="200"/>
      </g>
     </g>
    </g>
    <g id="xtick_11">
     <g id="line2d_39">
      <g>
       <use xlink:href="#m0aabf0e669" x="142.882845" y="71.040799" style="stroke: #000000; stroke-width: 0.8"/>
      </g>
     </g>
     <g id="text_23">
      <!-- N0430 -->
      <g transform="translate(146.771932 63.333692) rotate(-45) scale(0.08 -0.08)">
       <use xlink:href="#SimHei-4e"/>
       <use xlink:href="#SimHei-30" x="50"/>
       <use xlink:href="#SimHei-34" x="100"/>
       <use xlink:href="#SimHei-33" x="150"/>
       <use xlink:href="#SimHei-30" x="200"/>
      </g>
     </g>
    </g>
    <g id="xtick_12">
     <g id="line2d_40">
      <g>
       <use xlink:href="#m0aabf0e669" x="195.487025" y="71.040799" style="stroke: #000000; stroke-width: 0.8"/>
      </g>
     </g>
     <g id="text_24">
      <!-- N0760.6 -->
      <g transform="translate(199.376113 63.333692) rotate(-45) scale(0.08 -0.08)">
       <defs>
        <path id="SimHei-37" d="M 850 150 
Q 1300 2050 2425 3925 
L 275 3925 
L 275 4375 
L 2950 4375 
L 2950 3950 
Q 1775 2050 1400 150 
L 850 150 
z
" transform="scale(0.015625)"/>
        <path id="SimHei-36" d="M 250 1612 
Q 275 1975 387 2225 
Q 500 2475 725 2850 
L 1750 4450 
L 2325 4450 
L 1275 2800 
Q 1950 2975 2350 2750 
Q 2750 2525 2887 2237 
Q 3025 1950 3037 1612 
Q 3050 1275 2937 950 
Q 2825 625 2537 362 
Q 2250 100 1737 75 
Q 1225 50 862 262 
Q 500 475 362 862 
Q 225 1250 250 1612 
z
M 1025 787 
Q 1250 550 1625 525 
Q 2000 500 2250 775 
Q 2500 1050 2500 1575 
Q 2500 2100 2187 2300 
Q 1875 2500 1487 2450 
Q 1100 2400 925 2075 
Q 750 1750 775 1387 
Q 800 1025 1025 787 
z
" transform="scale(0.015625)"/>
       </defs>
       <use xlink:href="#SimHei-4e"/>
       <use xlink:href="#SimHei-30" x="50"/>
       <use xlink:href="#SimHei-37" x="100"/>
       <use xlink:href="#SimHei-36" x="150"/>
       <use xlink:href="#SimHei-30" x="200"/>
       <use xlink:href="#SimHei-2e" x="250"/>
       <use xlink:href="#SimHei-36" x="300"/>
      </g>
     </g>
    </g>
    <g id="xtick_13">
     <g id="line2d_41">
      <g>
       <use xlink:href="#m0aabf0e669" x="245.51967" y="71.040799" style="stroke: #000000; stroke-width: 0.8"/>
      </g>
     </g>
     <g id="text_25">
      <!-- N1160.12 -->
      <g transform="translate(249.408757 63.333692) rotate(-45) scale(0.08 -0.08)">
       <use xlink:href="#SimHei-4e"/>
       <use xlink:href="#SimHei-31" x="50"/>
       <use xlink:href="#SimHei-31" x="100"/>
       <use xlink:href="#SimHei-36" x="150"/>
       <use xlink:href="#SimHei-30" x="200"/>
       <use xlink:href="#SimHei-2e" x="250"/>
       <use xlink:href="#SimHei-31" x="300"/>
       <use xlink:href="#SimHei-32" x="350"/>
      </g>
     </g>
    </g>
    <g id="xtick_14">
     <g id="line2d_42">
      <g>
       <use xlink:href="#m0aabf0e669" x="301.312989" y="71.040799" style="stroke: #000000; stroke-width: 0.8"/>
      </g>
     </g>
     <g id="text_26">
      <!-- N1488 -->
      <g transform="translate(305.202076 63.333692) rotate(-45) scale(0.08 -0.08)">
       <use xlink:href="#SimHei-4e"/>
       <use xlink:href="#SimHei-31" x="50"/>
       <use xlink:href="#SimHei-34" x="100"/>
       <use xlink:href="#SimHei-38" x="150"/>
       <use xlink:href="#SimHei-38" x="200"/>
      </g>
     </g>
    </g>
    <g id="xtick_15">
     <g id="line2d_43">
      <g>
       <use xlink:href="#m0aabf0e669" x="348.644924" y="71.040799" style="stroke: #000000; stroke-width: 0.8"/>
      </g>
     </g>
     <g id="text_27">
      <!-- N1892.7 -->
      <g transform="translate(352.534011 63.333692) rotate(-45) scale(0.08 -0.08)">
       <defs>
        <path id="SimHei-39" d="M 800 75 
Q 1350 1000 1700 1750 
Q 1075 1650 662 1912 
Q 250 2175 162 2625 
Q 75 3075 175 3437 
Q 275 3800 487 4037 
Q 700 4275 1000 4375 
Q 1300 4475 1537 4475 
Q 1775 4475 2025 4375 
Q 2275 4275 2475 4075 
Q 2675 3875 2750 3662 
Q 2825 3450 2825 3112 
Q 2825 2775 2575 2250 
Q 2325 1725 1350 75 
L 800 75 
z
M 662 2875 
Q 700 2550 937 2337 
Q 1175 2125 1450 2150 
Q 1725 2175 1887 2300 
Q 2050 2425 2200 2725 
Q 2300 3100 2250 3362 
Q 2200 3625 1987 3800 
Q 1775 3975 1525 3975 
Q 1375 4000 1137 3900 
Q 900 3800 762 3500 
Q 625 3200 662 2875 
z
" transform="scale(0.015625)"/>
       </defs>
       <use xlink:href="#SimHei-4e"/>
       <use xlink:href="#SimHei-31" x="50"/>
       <use xlink:href="#SimHei-38" x="100"/>
       <use xlink:href="#SimHei-39" x="150"/>
       <use xlink:href="#SimHei-32" x="200"/>
       <use xlink:href="#SimHei-2e" x="250"/>
       <use xlink:href="#SimHei-37" x="300"/>
      </g>
     </g>
    </g>
    <g id="xtick_16">
     <g id="line2d_44">
      <g>
       <use xlink:href="#m0aabf0e669" x="410.324066" y="71.040799" style="stroke: #000000; stroke-width: 0.8"/>
      </g>
     </g>
     <g id="text_28">
      <!-- N2262.2 -->
      <g transform="translate(414.213153 63.333692) rotate(-45) scale(0.08 -0.08)">
       <use xlink:href="#SimHei-4e"/>
       <use xlink:href="#SimHei-32" x="50"/>
       <use xlink:href="#SimHei-32" x="100"/>
       <use xlink:href="#SimHei-36" x="150"/>
       <use xlink:href="#SimHei-32" x="200"/>
       <use xlink:href="#SimHei-2e" x="250"/>
       <use xlink:href="#SimHei-32" x="300"/>
      </g>
     </g>
    </g>
    <g id="xtick_17">
     <g id="line2d_45">
      <g>
       <use xlink:href="#m0aabf0e669" x="472.791297" y="71.040799" style="stroke: #000000; stroke-width: 0.8"/>
      </g>
     </g>
     <g id="text_29">
      <!-- N2632.4 -->
      <g transform="translate(476.680384 63.333692) rotate(-45) scale(0.08 -0.08)">
       <use xlink:href="#SimHei-4e"/>
       <use xlink:href="#SimHei-32" x="50"/>
       <use xlink:href="#SimHei-36" x="100"/>
       <use xlink:href="#SimHei-33" x="150"/>
       <use xlink:href="#SimHei-32" x="200"/>
       <use xlink:href="#SimHei-2e" x="250"/>
       <use xlink:href="#SimHei-34" x="300"/>
      </g>
     </g>
    </g>
    <g id="xtick_18">
     <g id="line2d_46">
      <g>
       <use xlink:href="#m0aabf0e669" x="531.187608" y="71.040799" style="stroke: #000000; stroke-width: 0.8"/>
      </g>
     </g>
     <g id="text_30">
      <!-- N3002.6 -->
      <g transform="translate(535.076695 63.333692) rotate(-45) scale(0.08 -0.08)">
       <use xlink:href="#SimHei-4e"/>
       <use xlink:href="#SimHei-33" x="50"/>
       <use xlink:href="#SimHei-30" x="100"/>
       <use xlink:href="#SimHei-30" x="150"/>
       <use xlink:href="#SimHei-32" x="200"/>
       <use xlink:href="#SimHei-2e" x="250"/>
       <use xlink:href="#SimHei-36" x="300"/>
      </g>
     </g>
    </g>
    <g id="xtick_19">
     <g id="line2d_47">
      <g>
       <use xlink:href="#m0aabf0e669" x="589.382871" y="71.040799" style="stroke: #000000; stroke-width: 0.8"/>
      </g>
     </g>
     <g id="text_31">
      <!-- N3386.1 -->
      <g transform="translate(593.271959 63.333692) rotate(-45) scale(0.08 -0.08)">
       <use xlink:href="#SimHei-4e"/>
       <use xlink:href="#SimHei-33" x="50"/>
       <use xlink:href="#SimHei-33" x="100"/>
       <use xlink:href="#SimHei-38" x="150"/>
       <use xlink:href="#SimHei-36" x="200"/>
       <use xlink:href="#SimHei-2e" x="250"/>
       <use xlink:href="#SimHei-31" x="300"/>
      </g>
     </g>
    </g>
    <g id="xtick_20">
     <g id="line2d_48">
      <g>
       <use xlink:href="#m0aabf0e669" x="651.944331" y="71.040799" style="stroke: #000000; stroke-width: 0.8"/>
      </g>
     </g>
     <g id="text_32">
      <!-- N3766.1 -->
      <g transform="translate(655.833418 63.333692) rotate(-45) scale(0.08 -0.08)">
       <use xlink:href="#SimHei-4e"/>
       <use xlink:href="#SimHei-33" x="50"/>
       <use xlink:href="#SimHei-37" x="100"/>
       <use xlink:href="#SimHei-36" x="150"/>
       <use xlink:href="#SimHei-36" x="200"/>
       <use xlink:href="#SimHei-2e" x="250"/>
       <use xlink:href="#SimHei-31" x="300"/>
      </g>
     </g>
    </g>
    <g id="xtick_21">
     <g id="line2d_49">
      <g>
       <use xlink:href="#m0aabf0e669" x="714.971505" y="71.040799" style="stroke: #000000; stroke-width: 0.8"/>
      </g>
     </g>
     <g id="text_33">
      <!-- N4148.14 -->
      <g transform="translate(718.860592 63.333692) rotate(-45) scale(0.08 -0.08)">
       <use xlink:href="#SimHei-4e"/>
       <use xlink:href="#SimHei-34" x="50"/>
       <use xlink:href="#SimHei-31" x="100"/>
       <use xlink:href="#SimHei-34" x="150"/>
       <use xlink:href="#SimHei-38" x="200"/>
       <use xlink:href="#SimHei-2e" x="250"/>
       <use xlink:href="#SimHei-31" x="300"/>
       <use xlink:href="#SimHei-34" x="350"/>
      </g>
     </g>
    </g>
    <g id="xtick_22">
     <g id="line2d_50">
      <g>
       <use xlink:href="#m0aabf0e669" x="803.883335" y="71.040799" style="stroke: #000000; stroke-width: 0.8"/>
      </g>
     </g>
     <g id="text_34">
      <!-- N4458.17 -->
      <g transform="translate(807.772423 63.333692) rotate(-45) scale(0.08 -0.08)">
       <use xlink:href="#SimHei-4e"/>
       <use xlink:href="#SimHei-34" x="50"/>
       <use xlink:href="#SimHei-34" x="100"/>
       <use xlink:href="#SimHei-35" x="150"/>
       <use xlink:href="#SimHei-38" x="200"/>
       <use xlink:href="#SimHei-2e" x="250"/>
       <use xlink:href="#SimHei-31" x="300"/>
       <use xlink:href="#SimHei-37" x="350"/>
      </g>
     </g>
    </g>
    <g id="text_35">
     <!-- 指令行号 N -->
     <g transform="translate(417.83625 32.817187) scale(0.1 -0.1)">
      <defs>
       <path id="SimHei-6307" d="M 5625 2225 
Q 5600 1925 5600 1350 
L 5600 300 
Q 5600 -225 5625 -525 
L 5125 -525 
L 5125 -125 
L 3300 -125 
L 3300 -625 
L 2800 -625 
Q 2825 -300 2825 300 
L 2825 1350 
Q 2825 1925 2800 2225 
L 5625 2225 
z
M 500 25 
Q 1075 -25 1175 37 
Q 1275 100 1275 275 
L 1275 1675 
Q 1050 1600 925 1537 
Q 800 1475 475 1275 
Q 400 1525 225 1800 
Q 625 1900 825 1975 
Q 1025 2050 1275 2125 
L 1275 3300 
L 1100 3300 
Q 775 3300 450 3275 
L 450 3725 
Q 750 3700 1100 3700 
L 1275 3700 
L 1275 4450 
Q 1275 4800 1250 5125 
L 1775 5125 
Q 1750 4850 1750 4450 
L 1750 3700 
Q 2075 3700 2425 3725 
L 2425 3275 
Q 2050 3300 1750 3300 
L 1750 2325 
Q 1850 2350 2025 2425 
L 2375 2575 
Q 2350 2300 2375 2100 
Q 2225 2050 2062 1987 
Q 1900 1925 1750 1850 
L 1750 100 
Q 1725 -200 1575 -337 
Q 1425 -475 675 -525 
Q 625 -250 500 25 
z
M 3325 5025 
Q 3300 4675 3300 4125 
Q 4125 4275 4512 4412 
Q 4900 4550 5225 4725 
Q 5325 4475 5575 4250 
Q 5450 4225 5237 4175 
Q 5025 4125 4725 4050 
Q 4425 3975 4037 3887 
Q 3650 3800 3300 3725 
L 3300 3175 
Q 3275 2925 3700 2925 
L 4925 2925 
Q 5300 2925 5387 3087 
Q 5475 3250 5550 3600 
Q 5750 3400 6050 3300 
Q 5825 2725 5700 2637 
Q 5575 2550 5275 2525 
L 3350 2525 
Q 3050 2525 2937 2687 
Q 2825 2850 2825 2975 
L 2825 4125 
Q 2825 4775 2800 5025 
L 3325 5025 
z
M 5125 275 
L 5125 875 
L 3300 875 
L 3300 275 
L 5125 275 
z
M 5125 1250 
L 5125 1825 
L 3300 1825 
L 3300 1250 
L 5125 1250 
z
" transform="scale(0.015625)"/>
       <path id="SimHei-4ee4" d="M 5375 2075 
L 5375 1550 
Q 4925 1325 4450 937 
Q 3975 550 3575 125 
L 4250 -325 
Q 4050 -550 3875 -775 
Q 3100 -125 1850 425 
L 2150 875 
Q 2400 775 3125 350 
Q 3800 1025 4450 1625 
L 2025 1625 
Q 1500 1625 975 1600 
L 975 2100 
Q 1525 2075 2025 2075 
L 5375 2075 
z
M 3375 4850 
Q 4450 3550 6200 2900 
Q 5950 2625 5800 2350 
Q 4150 3150 3100 4475 
Q 2075 3125 625 2225 
Q 400 2525 200 2700 
Q 875 2975 1675 3675 
Q 2475 4375 2950 5300 
Q 3275 5175 3550 5050 
Q 3475 5000 3375 4850 
z
M 2925 3600 
Q 3175 3350 3750 2725 
L 3300 2325 
Q 3050 2700 2550 3225 
Q 2750 3375 2925 3600 
z
" transform="scale(0.015625)"/>
       <path id="SimHei-53f7" d="M 5025 4925 
Q 5000 4550 5000 4075 
Q 5000 3600 5025 3175 
L 1400 3175 
Q 1425 3525 1425 4000 
Q 1425 4500 1400 4925 
L 5025 4925 
z
M 5175 2625 
Q 5650 2625 6025 2650 
L 6025 2200 
Q 5650 2225 5175 2225 
L 2450 2225 
Q 2350 1875 2225 1450 
L 5175 1450 
Q 5100 1050 5062 775 
Q 5025 500 4950 112 
Q 4875 -275 4650 -412 
Q 4425 -550 3225 -625 
Q 3125 -350 2975 -50 
Q 3875 -75 4112 -50 
Q 4350 -25 4425 212 
Q 4500 450 4575 1025 
L 1600 1025 
Q 1825 1625 1950 2225 
L 1350 2225 
Q 825 2225 375 2200 
L 375 2650 
Q 825 2625 1350 2625 
L 5175 2625 
z
M 4525 3575 
L 4525 4525 
L 1900 4525 
L 1900 3575 
L 4525 3575 
z
" transform="scale(0.015625)"/>
      </defs>
      <use xlink:href="#SimHei-6307"/>
      <use xlink:href="#SimHei-4ee4" x="100"/>
      <use xlink:href="#SimHei-884c" x="200"/>
      <use xlink:href="#SimHei-53f7" x="300"/>
      <use xlink:href="#SimHei-20" x="400"/>
      <use xlink:href="#SimHei-4e" x="450"/>
     </g>
    </g>
   </g>
   <g id="patch_7">
    <path d="M 44.45 450.38584 
L 44.45 71.040799 
" style="fill: none; stroke: #000000; stroke-width: 0.8; stroke-linejoin: miter; stroke-linecap: square"/>
   </g>
   <g id="patch_8">
    <path d="M 841.2225 450.38584 
L 841.2225 71.040799 
" style="fill: none; stroke: #000000; stroke-width: 0.8; stroke-linejoin: miter; stroke-linecap: square"/>
   </g>
   <g id="patch_9">
    <path d="M 44.45 450.38584 
L 841.2225 450.38584 
" style="fill: none; stroke: #000000; stroke-width: 0.8; stroke-linejoin: miter; stroke-linecap: square"/>
   </g>
   <g id="patch_10">
    <path d="M 44.45 71.040799 
L 841.2225 71.040799 
" style="fill: none; stroke: #000000; stroke-width: 0.8; stroke-linejoin: miter; stroke-linecap: square"/>
   </g>
  </g>
 </g>
 <defs>
  <clipPath id="p44a63c730b">
   <rect x="44.45" y="71.040799" width="796.7725" height="379.345041"/>
  </clipPath>
 </defs>
</svg>
