<?xml version="1.0" encoding="utf-8" standalone="no"?>
<!DOCTYPE svg PUBLIC "-//W3C//DTD SVG 1.1//EN"
  "http://www.w3.org/Graphics/SVG/1.1/DTD/svg11.dtd">
<svg xmlns:xlink="http://www.w3.org/1999/xlink" width="846.384pt" height="488.174277pt" viewBox="0 0 846.384 488.174277" xmlns="http://www.w3.org/2000/svg" version="1.1">
 <metadata>
  <rdf:RDF xmlns:dc="http://purl.org/dc/elements/1.1/" xmlns:cc="http://creativecommons.org/ns#" xmlns:rdf="http://www.w3.org/1999/02/22-rdf-syntax-ns#">
   <cc:Work>
    <dc:type rdf:resource="http://purl.org/dc/dcmitype/StillImage"/>
    <dc:date>2025-12-10T13:36:55.145450</dc:date>
    <dc:format>image/svg+xml</dc:format>
    <dc:creator>
     <cc:Agent>
      <dc:title>Matplotlib v3.9.2, https://matplotlib.org/</dc:title>
     </cc:Agent>
    </dc:creator>
   </cc:Work>
  </rdf:RDF>
 </metadata>
 <defs>
  <style type="text/css">*{stroke-linejoin: round; stroke-linecap: butt}</style>
 </defs>
 <g id="figure_1">
  <g id="patch_1">
   <path d="M 0 488.174277 
L 846.384 488.174277 
L 846.384 0 
L 0 0 
z
" style="fill: #ffffff"/>
  </g>
  <g id="axes_1">
   <g id="patch_2">
    <path d="M 45.44 450.646152 
L 839.184 450.646152 
L 839.184 70.986111 
L 45.44 70.986111 
z
" style="fill: #ffffff"/>
   </g>
   <g id="matplotlib.axis_1">
    <g id="xtick_1">
     <g id="line2d_1">
      <path d="M 73.972927 450.646152 
L 73.972927 70.986111 
" clip-path="url(#pef422d230c)" style="fill: none; stroke-dasharray: 2.96,1.28; stroke-dashoffset: 0; stroke: #b0b0b0; stroke-opacity: 0.7; stroke-width: 0.8"/>
     </g>
     <g id="line2d_2">
      <defs>
       <path id="m3310178805" d="M 0 0 
L 0 3.5 
" style="stroke: #000000; stroke-width: 0.8"/>
      </defs>
      <g>
       <use xlink:href="#m3310178805" x="73.972927" y="450.646152" style="stroke: #000000; stroke-width: 0.8"/>
      </g>
     </g>
     <g id="text_1">
      <!-- 0 -->
      <g transform="translate(71.472927 464.521152) scale(0.1 -0.1)">
       <defs>
        <path id="SimHei-30" d="M 225 2537 
Q 250 3200 412 3587 
Q 575 3975 875 4225 
Q 1175 4475 1612 4475 
Q 2050 4475 2375 4112 
Q 2700 3750 2800 3200 
Q 2900 2650 2862 1937 
Q 2825 1225 2612 775 
Q 2400 325 1975 150 
Q 1550 -25 1125 187 
Q 700 400 525 750 
Q 350 1100 275 1487 
Q 200 1875 225 2537 
z
M 750 2687 
Q 675 2000 800 1462 
Q 925 925 1212 700 
Q 1500 475 1800 612 
Q 2100 750 2237 1162 
Q 2375 1575 2375 2062 
Q 2375 2550 2337 2950 
Q 2300 3350 2112 3675 
Q 1925 4000 1612 4012 
Q 1300 4025 1062 3700 
Q 825 3375 750 2687 
z
" transform="scale(0.015625)"/>
       </defs>
       <use xlink:href="#SimHei-30"/>
      </g>
     </g>
    </g>
    <g id="xtick_2">
     <g id="line2d_3">
      <path d="M 165.645042 450.646152 
L 165.645042 70.986111 
" clip-path="url(#pef422d230c)" style="fill: none; stroke-dasharray: 2.96,1.28; stroke-dashoffset: 0; stroke: #b0b0b0; stroke-opacity: 0.7; stroke-width: 0.8"/>
     </g>
     <g id="line2d_4">
      <g>
       <use xlink:href="#m3310178805" x="165.645042" y="450.646152" style="stroke: #000000; stroke-width: 0.8"/>
      </g>
     </g>
     <g id="text_2">
      <!-- 5000 -->
      <g transform="translate(155.645042 464.521152) scale(0.1 -0.1)">
       <defs>
        <path id="SimHei-35" d="M 550 1325 
Q 725 650 1150 575 
Q 1575 500 1837 662 
Q 2100 825 2212 1087 
Q 2325 1350 2312 1675 
Q 2300 2000 2137 2225 
Q 1975 2450 1725 2525 
Q 1475 2600 1162 2525 
Q 850 2450 650 2175 
L 225 2225 
Q 275 2375 700 4375 
L 2675 4375 
L 2675 3925 
L 1075 3925 
Q 950 3250 825 2850 
Q 1200 3025 1525 3012 
Q 1850 3000 2150 2862 
Q 2450 2725 2587 2487 
Q 2725 2250 2787 2012 
Q 2850 1775 2837 1500 
Q 2825 1225 2725 937 
Q 2625 650 2425 462 
Q 2225 275 1937 162 
Q 1650 50 1275 75 
Q 900 100 562 350 
Q 225 600 100 1200 
L 550 1325 
z
" transform="scale(0.015625)"/>
       </defs>
       <use xlink:href="#SimHei-35"/>
       <use xlink:href="#SimHei-30" x="50"/>
       <use xlink:href="#SimHei-30" x="100"/>
       <use xlink:href="#SimHei-30" x="150"/>
      </g>
     </g>
    </g>
    <g id="xtick_3">
     <g id="line2d_5">
      <path d="M 257.317157 450.646152 
L 257.317157 70.986111 
" clip-path="url(#pef422d230c)" style="fill: none; stroke-dasharray: 2.96,1.28; stroke-dashoffset: 0; stroke: #b0b0b0; stroke-opacity: 0.7; stroke-width: 0.8"/>
     </g>
     <g id="line2d_6">
      <g>
       <use xlink:href="#m3310178805" x="257.317157" y="450.646152" style="stroke: #000000; stroke-width: 0.8"/>
      </g>
     </g>
     <g id="text_3">
      <!-- 10000 -->
      <g transform="translate(244.817157 464.521152) scale(0.1 -0.1)">
       <defs>
        <path id="SimHei-31" d="M 1400 3600 
Q 1075 3275 575 2975 
L 575 3450 
Q 1200 3875 1600 4450 
L 1900 4450 
L 1900 150 
L 1400 150 
L 1400 3600 
z
" transform="scale(0.015625)"/>
       </defs>
       <use xlink:href="#SimHei-31"/>
       <use xlink:href="#SimHei-30" x="50"/>
       <use xlink:href="#SimHei-30" x="100"/>
       <use xlink:href="#SimHei-30" x="150"/>
       <use xlink:href="#SimHei-30" x="200"/>
      </g>
     </g>
    </g>
    <g id="xtick_4">
     <g id="line2d_7">
      <path d="M 348.989273 450.646152 
L 348.989273 70.986111 
" clip-path="url(#pef422d230c)" style="fill: none; stroke-dasharray: 2.96,1.28; stroke-dashoffset: 0; stroke: #b0b0b0; stroke-opacity: 0.7; stroke-width: 0.8"/>
     </g>
     <g id="line2d_8">
      <g>
       <use xlink:href="#m3310178805" x="348.989273" y="450.646152" style="stroke: #000000; stroke-width: 0.8"/>
      </g>
     </g>
     <g id="text_4">
      <!-- 15000 -->
      <g transform="translate(336.489273 464.521152) scale(0.1 -0.1)">
       <use xlink:href="#SimHei-31"/>
       <use xlink:href="#SimHei-35" x="50"/>
       <use xlink:href="#SimHei-30" x="100"/>
       <use xlink:href="#SimHei-30" x="150"/>
       <use xlink:href="#SimHei-30" x="200"/>
      </g>
     </g>
    </g>
    <g id="xtick_5">
     <g id="line2d_9">
      <path d="M 440.661388 450.646152 
L 440.661388 70.986111 
" clip-path="url(#pef422d230c)" style="fill: none; stroke-dasharray: 2.96,1.28; stroke-dashoffset: 0; stroke: #b0b0b0; stroke-opacity: 0.7; stroke-width: 0.8"/>
     </g>
     <g id="line2d_10">
      <g>
       <use xlink:href="#m3310178805" x="440.661388" y="450.646152" style="stroke: #000000; stroke-width: 0.8"/>
      </g>
     </g>
     <g id="text_5">
      <!-- 20000 -->
      <g transform="translate(428.161388 464.521152) scale(0.1 -0.1)">
       <defs>
        <path id="SimHei-32" d="M 300 250 
Q 325 625 650 925 
Q 975 1225 1475 1862 
Q 1975 2500 2125 2850 
Q 2275 3200 2237 3450 
Q 2200 3700 2000 3862 
Q 1800 4025 1537 4000 
Q 1275 3975 1037 3800 
Q 800 3625 675 3275 
L 200 3350 
Q 400 3925 712 4187 
Q 1025 4450 1450 4475 
Q 1700 4500 1900 4462 
Q 2100 4425 2312 4287 
Q 2525 4150 2662 3875 
Q 2800 3600 2762 3212 
Q 2725 2825 2375 2287 
Q 2025 1750 1025 600 
L 2825 600 
L 2825 150 
L 300 150 
L 300 250 
z
" transform="scale(0.015625)"/>
       </defs>
       <use xlink:href="#SimHei-32"/>
       <use xlink:href="#SimHei-30" x="50"/>
       <use xlink:href="#SimHei-30" x="100"/>
       <use xlink:href="#SimHei-30" x="150"/>
       <use xlink:href="#SimHei-30" x="200"/>
      </g>
     </g>
    </g>
    <g id="xtick_6">
     <g id="line2d_11">
      <path d="M 532.333503 450.646152 
L 532.333503 70.986111 
" clip-path="url(#pef422d230c)" style="fill: none; stroke-dasharray: 2.96,1.28; stroke-dashoffset: 0; stroke: #b0b0b0; stroke-opacity: 0.7; stroke-width: 0.8"/>
     </g>
     <g id="line2d_12">
      <g>
       <use xlink:href="#m3310178805" x="532.333503" y="450.646152" style="stroke: #000000; stroke-width: 0.8"/>
      </g>
     </g>
     <g id="text_6">
      <!-- 25000 -->
      <g transform="translate(519.833503 464.521152) scale(0.1 -0.1)">
       <use xlink:href="#SimHei-32"/>
       <use xlink:href="#SimHei-35" x="50"/>
       <use xlink:href="#SimHei-30" x="100"/>
       <use xlink:href="#SimHei-30" x="150"/>
       <use xlink:href="#SimHei-30" x="200"/>
      </g>
     </g>
    </g>
    <g id="xtick_7">
     <g id="line2d_13">
      <path d="M 624.005618 450.646152 
L 624.005618 70.986111 
" clip-path="url(#pef422d230c)" style="fill: none; stroke-dasharray: 2.96,1.28; stroke-dashoffset: 0; stroke: #b0b0b0; stroke-opacity: 0.7; stroke-width: 0.8"/>
     </g>
     <g id="line2d_14">
      <g>
       <use xlink:href="#m3310178805" x="624.005618" y="450.646152" style="stroke: #000000; stroke-width: 0.8"/>
      </g>
     </g>
     <g id="text_7">
      <!-- 30000 -->
      <g transform="translate(611.505618 464.521152) scale(0.1 -0.1)">
       <defs>
        <path id="SimHei-33" d="M 250 1225 
L 700 1300 
Q 800 975 1025 762 
Q 1250 550 1587 562 
Q 1925 575 2125 837 
Q 2325 1100 2300 1437 
Q 2275 1775 2037 1962 
Q 1800 2150 1275 2225 
L 1275 2550 
Q 1800 2600 2037 2825 
Q 2275 3050 2250 3412 
Q 2225 3775 1925 3937 
Q 1625 4100 1287 3975 
Q 950 3850 750 3275 
L 300 3350 
Q 450 3800 712 4100 
Q 975 4400 1425 4450 
Q 1875 4500 2212 4337 
Q 2550 4175 2687 3837 
Q 2825 3500 2725 3100 
Q 2625 2700 2150 2400 
Q 2500 2250 2687 1950 
Q 2875 1650 2812 1162 
Q 2750 675 2375 375 
Q 2000 75 1525 87 
Q 1050 100 700 387 
Q 350 675 250 1225 
z
" transform="scale(0.015625)"/>
       </defs>
       <use xlink:href="#SimHei-33"/>
       <use xlink:href="#SimHei-30" x="50"/>
       <use xlink:href="#SimHei-30" x="100"/>
       <use xlink:href="#SimHei-30" x="150"/>
       <use xlink:href="#SimHei-30" x="200"/>
      </g>
     </g>
    </g>
    <g id="xtick_8">
     <g id="line2d_15">
      <path d="M 715.677733 450.646152 
L 715.677733 70.986111 
" clip-path="url(#pef422d230c)" style="fill: none; stroke-dasharray: 2.96,1.28; stroke-dashoffset: 0; stroke: #b0b0b0; stroke-opacity: 0.7; stroke-width: 0.8"/>
     </g>
     <g id="line2d_16">
      <g>
       <use xlink:href="#m3310178805" x="715.677733" y="450.646152" style="stroke: #000000; stroke-width: 0.8"/>
      </g>
     </g>
     <g id="text_8">
      <!-- 35000 -->
      <g transform="translate(703.177733 464.521152) scale(0.1 -0.1)">
       <use xlink:href="#SimHei-33"/>
       <use xlink:href="#SimHei-35" x="50"/>
       <use xlink:href="#SimHei-30" x="100"/>
       <use xlink:href="#SimHei-30" x="150"/>
       <use xlink:href="#SimHei-30" x="200"/>
      </g>
     </g>
    </g>
    <g id="xtick_9">
     <g id="line2d_17">
      <path d="M 807.349849 450.646152 
L 807.349849 70.986111 
" clip-path="url(#pef422d230c)" style="fill: none; stroke-dasharray: 2.96,1.28; stroke-dashoffset: 0; stroke: #b0b0b0; stroke-opacity: 0.7; stroke-width: 0.8"/>
     </g>
     <g id="line2d_18">
      <g>
       <use xlink:href="#m3310178805" x="807.349849" y="450.646152" style="stroke: #000000; stroke-width: 0.8"/>
      </g>
     </g>
     <g id="text_9">
      <!-- 40000 -->
      <g transform="translate(794.849849 464.521152) scale(0.1 -0.1)">
       <defs>
        <path id="SimHei-34" d="M 2000 1100 
L 75 1100 
L 75 1525 
L 2100 4450 
L 2475 4450 
L 2475 1525 
L 3075 1525 
L 3075 1100 
L 2475 1100 
L 2475 150 
L 2000 150 
L 2000 1100 
z
M 2000 1525 
L 2000 3500 
L 600 1525 
L 2000 1525 
z
" transform="scale(0.015625)"/>
       </defs>
       <use xlink:href="#SimHei-34"/>
       <use xlink:href="#SimHei-30" x="50"/>
       <use xlink:href="#SimHei-30" x="100"/>
       <use xlink:href="#SimHei-30" x="150"/>
       <use xlink:href="#SimHei-30" x="200"/>
      </g>
     </g>
    </g>
    <g id="text_10">
     <!-- 行程 s (mm) -->
     <g transform="translate(409.312 479.474277) scale(0.12 -0.12)">
      <defs>
       <path id="SimHei-884c" d="M 5300 3100 
Q 5775 3100 6175 3125 
L 6175 2625 
Q 5775 2650 5325 2650 
L 4975 2650 
L 4975 -75 
Q 5000 -375 4787 -487 
Q 4575 -600 3950 -675 
Q 3900 -375 3675 -75 
Q 4100 -125 4275 -112 
Q 4450 -100 4475 150 
L 4475 2650 
L 3475 2650 
Q 3000 2650 2575 2625 
L 2575 3125 
Q 3025 3100 3475 3100 
L 5300 3100 
z
M 2300 3400 
Q 2075 3275 1962 3075 
Q 1850 2875 1650 2575 
L 1650 325 
Q 1650 0 1675 -675 
L 1150 -675 
Q 1175 75 1175 450 
L 1175 2050 
Q 950 1675 575 1300 
Q 400 1550 250 1725 
Q 825 2275 1150 2775 
Q 1475 3275 1725 3725 
Q 1975 3575 2300 3400 
z
M 4875 4800 
Q 5300 4800 5750 4825 
L 5750 4350 
Q 5300 4375 4825 4375 
L 3900 4375 
Q 3350 4375 2950 4350 
L 2950 4825 
Q 3350 4800 3900 4800 
L 4875 4800 
z
M 2075 4925 
Q 1875 4900 1550 4387 
Q 1225 3875 650 3250 
Q 500 3450 325 3625 
Q 725 4025 1050 4487 
Q 1375 4950 1525 5300 
Q 1775 5150 2075 4925 
z
" transform="scale(0.015625)"/>
       <path id="SimHei-7a0b" d="M 5825 4975 
Q 5800 4425 5800 3975 
Q 5800 3550 5825 3125 
L 3025 3125 
Q 3050 3600 3050 4025 
Q 3050 4450 3025 4975 
L 5825 4975 
z
M 400 4825 
Q 825 4875 1362 4987 
Q 1900 5100 2275 5275 
Q 2450 4950 2625 4725 
Q 2450 4750 2262 4712 
Q 2075 4675 1850 4650 
L 1850 3425 
Q 2200 3425 2600 3450 
L 2600 2975 
Q 2200 3000 1850 3000 
L 1850 800 
Q 1850 250 1875 -675 
L 1375 -675 
Q 1400 250 1400 775 
L 1400 1925 
Q 1050 1225 625 600 
Q 450 850 225 1050 
Q 575 1400 850 1850 
Q 1125 2300 1350 3000 
Q 725 3000 425 2975 
L 425 3450 
Q 850 3425 1050 3425 
L 1400 3425 
L 1400 4550 
Q 1075 4475 575 4400 
Q 500 4625 400 4825 
z
M 5100 2500 
Q 5500 2500 5950 2525 
L 5950 2075 
Q 5500 2100 5100 2100 
L 4625 2100 
L 4625 1300 
L 4900 1300 
Q 5275 1300 5775 1325 
L 5775 850 
Q 5275 875 4975 875 
L 4625 875 
L 4625 0 
L 5225 0 
Q 5675 0 6175 25 
L 6175 -450 
Q 5775 -425 5225 -425 
L 3550 -425 
Q 3000 -425 2600 -475 
L 2600 25 
Q 3000 0 3550 0 
L 4150 0 
L 4150 875 
L 3800 875 
Q 3400 875 3050 825 
L 3050 1325 
Q 3400 1300 3800 1300 
L 4150 1300 
L 4150 2100 
L 3750 2100 
Q 3300 2100 2900 2075 
L 2900 2525 
Q 3300 2500 3750 2500 
L 5100 2500 
z
M 5275 3575 
L 5275 4550 
L 3500 4550 
L 3500 3575 
L 5275 3575 
z
M 2300 2400 
Q 2550 2025 2825 1525 
Q 2675 1425 2425 1225 
Q 2175 1775 1925 2125 
Q 2075 2250 2300 2400 
z
" transform="scale(0.015625)"/>
       <path id="SimHei-20" transform="scale(0.015625)"/>
       <path id="SimHei-73" d="M 2750 900 
Q 2750 500 2437 287 
Q 2125 75 1650 75 
Q 1050 75 725 312 
Q 400 550 400 1000 
L 900 1000 
Q 900 700 1112 600 
Q 1325 500 1625 500 
Q 1925 500 2075 612 
Q 2225 725 2225 900 
Q 2225 1025 2100 1150 
Q 1975 1275 1475 1350 
Q 900 1425 687 1637 
Q 475 1850 475 2200 
Q 475 2500 762 2737 
Q 1050 2975 1600 2975 
Q 2100 2975 2387 2750 
Q 2675 2525 2675 2150 
L 2175 2150 
Q 2175 2375 2012 2462 
Q 1850 2550 1600 2550 
Q 1275 2550 1137 2437 
Q 1000 2325 1000 2175 
Q 1000 2000 1125 1900 
Q 1250 1800 1650 1750 
Q 2300 1650 2525 1437 
Q 2750 1225 2750 900 
z
" transform="scale(0.015625)"/>
       <path id="SimHei-28" d="M 2975 -200 
L 2700 -475 
Q 2075 125 1762 775 
Q 1450 1425 1450 2250 
Q 1450 3075 1762 3725 
Q 2075 4375 2700 5000 
L 2975 4725 
Q 2400 4175 2112 3587 
Q 1825 3000 1825 2250 
Q 1825 1500 2112 912 
Q 2400 325 2975 -200 
z
" transform="scale(0.015625)"/>
       <path id="SimHei-6d" d="M 3050 125 
L 2550 125 
L 2550 2150 
Q 2550 2300 2500 2400 
Q 2450 2500 2300 2500 
Q 2125 2500 1975 2312 
Q 1825 2125 1825 1825 
L 1825 125 
L 1325 125 
L 1325 2150 
Q 1325 2300 1275 2400 
Q 1225 2500 1075 2500 
Q 900 2500 750 2312 
Q 600 2125 600 1825 
L 600 125 
L 100 125 
L 100 2925 
L 600 2925 
L 600 2550 
Q 725 2750 900 2862 
Q 1075 2975 1275 2975 
Q 1475 2975 1612 2862 
Q 1750 2750 1800 2550 
Q 1925 2750 2087 2862 
Q 2250 2975 2450 2975 
Q 2750 2975 2900 2812 
Q 3050 2650 3050 2350 
L 3050 125 
z
" transform="scale(0.015625)"/>
       <path id="SimHei-29" d="M 1675 2250 
Q 1675 1425 1362 775 
Q 1050 125 425 -475 
L 150 -200 
Q 725 325 1012 912 
Q 1300 1500 1300 2250 
Q 1300 3000 1012 3587 
Q 725 4175 150 4725 
L 425 5000 
Q 1050 4375 1362 3725 
Q 1675 3075 1675 2250 
z
" transform="scale(0.015625)"/>
      </defs>
      <use xlink:href="#SimHei-884c"/>
      <use xlink:href="#SimHei-7a0b" x="100"/>
      <use xlink:href="#SimHei-20" x="200"/>
      <use xlink:href="#SimHei-73" x="250"/>
      <use xlink:href="#SimHei-20" x="300"/>
      <use xlink:href="#SimHei-28" x="350"/>
      <use xlink:href="#SimHei-6d" x="400"/>
      <use xlink:href="#SimHei-6d" x="450"/>
      <use xlink:href="#SimHei-29" x="500"/>
     </g>
    </g>
   </g>
   <g id="matplotlib.axis_2">
    <g id="ytick_1">
     <g id="line2d_19">
      <path d="M 45.44 433.388878 
L 839.184 433.388878 
" clip-path="url(#pef422d230c)" style="fill: none; stroke-dasharray: 2.96,1.28; stroke-dashoffset: 0; stroke: #b0b0b0; stroke-opacity: 0.7; stroke-width: 0.8"/>
     </g>
     <g id="line2d_20">
      <defs>
       <path id="m4f2ba0129a" d="M 0 0 
L -3.5 0 
" style="stroke: #000000; stroke-width: 0.8"/>
      </defs>
      <g>
       <use xlink:href="#m4f2ba0129a" x="45.44" y="433.388878" style="stroke: #000000; stroke-width: 0.8"/>
      </g>
     </g>
     <g id="text_11">
      <!-- 0 -->
      <g transform="translate(33.44 436.826378) scale(0.1 -0.1)">
       <use xlink:href="#SimHei-30"/>
      </g>
     </g>
    </g>
    <g id="ytick_2">
     <g id="line2d_21">
      <path d="M 45.44 390.245979 
L 839.184 390.245979 
" clip-path="url(#pef422d230c)" style="fill: none; stroke-dasharray: 2.96,1.28; stroke-dashoffset: 0; stroke: #b0b0b0; stroke-opacity: 0.7; stroke-width: 0.8"/>
     </g>
     <g id="line2d_22">
      <g>
       <use xlink:href="#m4f2ba0129a" x="45.44" y="390.245979" style="stroke: #000000; stroke-width: 0.8"/>
      </g>
     </g>
     <g id="text_12">
      <!-- 25 -->
      <g transform="translate(28.44 393.683479) scale(0.1 -0.1)">
       <use xlink:href="#SimHei-32"/>
       <use xlink:href="#SimHei-35" x="50"/>
      </g>
     </g>
    </g>
    <g id="ytick_3">
     <g id="line2d_23">
      <path d="M 45.44 347.10308 
L 839.184 347.10308 
" clip-path="url(#pef422d230c)" style="fill: none; stroke-dasharray: 2.96,1.28; stroke-dashoffset: 0; stroke: #b0b0b0; stroke-opacity: 0.7; stroke-width: 0.8"/>
     </g>
     <g id="line2d_24">
      <g>
       <use xlink:href="#m4f2ba0129a" x="45.44" y="347.10308" style="stroke: #000000; stroke-width: 0.8"/>
      </g>
     </g>
     <g id="text_13">
      <!-- 50 -->
      <g transform="translate(28.44 350.54058) scale(0.1 -0.1)">
       <use xlink:href="#SimHei-35"/>
       <use xlink:href="#SimHei-30" x="50"/>
      </g>
     </g>
    </g>
    <g id="ytick_4">
     <g id="line2d_25">
      <path d="M 45.44 303.960181 
L 839.184 303.960181 
" clip-path="url(#pef422d230c)" style="fill: none; stroke-dasharray: 2.96,1.28; stroke-dashoffset: 0; stroke: #b0b0b0; stroke-opacity: 0.7; stroke-width: 0.8"/>
     </g>
     <g id="line2d_26">
      <g>
       <use xlink:href="#m4f2ba0129a" x="45.44" y="303.960181" style="stroke: #000000; stroke-width: 0.8"/>
      </g>
     </g>
     <g id="text_14">
      <!-- 75 -->
      <g transform="translate(28.44 307.397681) scale(0.1 -0.1)">
       <defs>
        <path id="SimHei-37" d="M 850 150 
Q 1300 2050 2425 3925 
L 275 3925 
L 275 4375 
L 2950 4375 
L 2950 3950 
Q 1775 2050 1400 150 
L 850 150 
z
" transform="scale(0.015625)"/>
       </defs>
       <use xlink:href="#SimHei-37"/>
       <use xlink:href="#SimHei-35" x="50"/>
      </g>
     </g>
    </g>
    <g id="ytick_5">
     <g id="line2d_27">
      <path d="M 45.44 260.817282 
L 839.184 260.817282 
" clip-path="url(#pef422d230c)" style="fill: none; stroke-dasharray: 2.96,1.28; stroke-dashoffset: 0; stroke: #b0b0b0; stroke-opacity: 0.7; stroke-width: 0.8"/>
     </g>
     <g id="line2d_28">
      <g>
       <use xlink:href="#m4f2ba0129a" x="45.44" y="260.817282" style="stroke: #000000; stroke-width: 0.8"/>
      </g>
     </g>
     <g id="text_15">
      <!-- 100 -->
      <g transform="translate(23.44 264.254782) scale(0.1 -0.1)">
       <use xlink:href="#SimHei-31"/>
       <use xlink:href="#SimHei-30" x="50"/>
       <use xlink:href="#SimHei-30" x="100"/>
      </g>
     </g>
    </g>
    <g id="ytick_6">
     <g id="line2d_29">
      <path d="M 45.44 217.674383 
L 839.184 217.674383 
" clip-path="url(#pef422d230c)" style="fill: none; stroke-dasharray: 2.96,1.28; stroke-dashoffset: 0; stroke: #b0b0b0; stroke-opacity: 0.7; stroke-width: 0.8"/>
     </g>
     <g id="line2d_30">
      <g>
       <use xlink:href="#m4f2ba0129a" x="45.44" y="217.674383" style="stroke: #000000; stroke-width: 0.8"/>
      </g>
     </g>
     <g id="text_16">
      <!-- 125 -->
      <g transform="translate(23.44 221.111883) scale(0.1 -0.1)">
       <use xlink:href="#SimHei-31"/>
       <use xlink:href="#SimHei-32" x="50"/>
       <use xlink:href="#SimHei-35" x="100"/>
      </g>
     </g>
    </g>
    <g id="ytick_7">
     <g id="line2d_31">
      <path d="M 45.44 174.531484 
L 839.184 174.531484 
" clip-path="url(#pef422d230c)" style="fill: none; stroke-dasharray: 2.96,1.28; stroke-dashoffset: 0; stroke: #b0b0b0; stroke-opacity: 0.7; stroke-width: 0.8"/>
     </g>
     <g id="line2d_32">
      <g>
       <use xlink:href="#m4f2ba0129a" x="45.44" y="174.531484" style="stroke: #000000; stroke-width: 0.8"/>
      </g>
     </g>
     <g id="text_17">
      <!-- 150 -->
      <g transform="translate(23.44 177.968984) scale(0.1 -0.1)">
       <use xlink:href="#SimHei-31"/>
       <use xlink:href="#SimHei-35" x="50"/>
       <use xlink:href="#SimHei-30" x="100"/>
      </g>
     </g>
    </g>
    <g id="ytick_8">
     <g id="line2d_33">
      <path d="M 45.44 131.388586 
L 839.184 131.388586 
" clip-path="url(#pef422d230c)" style="fill: none; stroke-dasharray: 2.96,1.28; stroke-dashoffset: 0; stroke: #b0b0b0; stroke-opacity: 0.7; stroke-width: 0.8"/>
     </g>
     <g id="line2d_34">
      <g>
       <use xlink:href="#m4f2ba0129a" x="45.44" y="131.388586" style="stroke: #000000; stroke-width: 0.8"/>
      </g>
     </g>
     <g id="text_18">
      <!-- 175 -->
      <g transform="translate(23.44 134.826086) scale(0.1 -0.1)">
       <use xlink:href="#SimHei-31"/>
       <use xlink:href="#SimHei-37" x="50"/>
       <use xlink:href="#SimHei-35" x="100"/>
      </g>
     </g>
    </g>
    <g id="ytick_9">
     <g id="line2d_35">
      <path d="M 45.44 88.245687 
L 839.184 88.245687 
" clip-path="url(#pef422d230c)" style="fill: none; stroke-dasharray: 2.96,1.28; stroke-dashoffset: 0; stroke: #b0b0b0; stroke-opacity: 0.7; stroke-width: 0.8"/>
     </g>
     <g id="line2d_36">
      <g>
       <use xlink:href="#m4f2ba0129a" x="45.44" y="88.245687" style="stroke: #000000; stroke-width: 0.8"/>
      </g>
     </g>
     <g id="text_19">
      <!-- 200 -->
      <g transform="translate(23.44 91.683187) scale(0.1 -0.1)">
       <use xlink:href="#SimHei-32"/>
       <use xlink:href="#SimHei-30" x="50"/>
       <use xlink:href="#SimHei-30" x="100"/>
      </g>
     </g>
    </g>
    <g id="text_20">
     <!-- 材料去除率 MRR (mm$^3$/s) -->
     <g transform="translate(17.94 326.756132) rotate(-90) scale(0.12 -0.12)">
      <defs>
       <path id="SimHei-6750" d="M 4675 3750 
L 4675 4300 
Q 4675 4750 4650 5175 
L 5200 5175 
Q 5150 4750 5150 4275 
L 5150 3750 
Q 5650 3750 6100 3775 
L 6100 3300 
Q 5650 3325 5150 3325 
L 5150 125 
Q 5150 -250 4962 -375 
Q 4775 -500 4225 -625 
Q 4150 -325 4000 -50 
Q 4425 -50 4550 0 
Q 4675 50 4675 325 
L 4675 2675 
Q 4325 2000 3887 1412 
Q 3450 825 2800 225 
Q 2675 400 2400 625 
Q 2950 975 3512 1675 
Q 4075 2375 4500 3325 
L 3650 3325 
Q 3350 3325 2950 3300 
L 2950 3775 
Q 3350 3750 3650 3750 
L 4675 3750 
z
M 2200 2700 
Q 2650 2125 2850 1825 
Q 2625 1675 2450 1550 
Q 2100 2150 1925 2325 
L 1925 425 
Q 1925 -100 1950 -625 
L 1425 -625 
Q 1450 -75 1450 425 
L 1450 2175 
Q 1275 1800 1037 1400 
Q 800 1000 550 650 
Q 475 825 225 1100 
Q 525 1425 875 2062 
Q 1225 2700 1400 3325 
Q 875 3325 425 3300 
L 425 3775 
Q 925 3750 1450 3750 
L 1450 4350 
Q 1450 4725 1425 5175 
L 1950 5175 
Q 1925 4775 1925 4350 
L 1925 3750 
Q 2300 3750 2725 3775 
L 2725 3300 
Q 2300 3325 1925 3325 
L 1925 2475 
Q 2125 2600 2200 2700 
z
" transform="scale(0.015625)"/>
       <path id="SimHei-6599" d="M 1450 4400 
Q 1450 4800 1425 5100 
L 1925 5100 
Q 1900 4850 1900 4375 
L 1900 3075 
Q 2300 3075 2800 3100 
L 2800 2650 
Q 2300 2675 1900 2675 
L 1900 375 
Q 1900 -25 1925 -650 
L 1425 -650 
Q 1450 -25 1450 375 
L 1450 1875 
Q 1225 1300 600 475 
Q 425 650 225 800 
Q 600 1225 887 1712 
Q 1175 2200 1350 2675 
Q 875 2675 350 2650 
L 350 3100 
Q 875 3075 1450 3075 
L 1450 4400 
z
M 4800 4325 
Q 4800 4750 4775 5050 
L 5300 5050 
Q 5275 4750 5275 4325 
L 5275 1650 
Q 5525 1700 6125 1850 
L 6150 1400 
Q 5625 1300 5275 1225 
L 5275 325 
Q 5275 -50 5300 -650 
L 4775 -650 
Q 4800 125 4800 1125 
Q 3175 850 2750 725 
L 2600 1225 
Q 3700 1350 4800 1550 
L 4800 4325 
z
M 3350 3175 
Q 4025 2600 4450 2150 
L 4075 1775 
Q 3675 2300 3050 2800 
Q 3300 3025 3350 3175 
z
M 3550 4575 
Q 4150 4000 4575 3500 
Q 4375 3375 4175 3200 
Q 3825 3650 3250 4250 
Q 3475 4450 3550 4575 
z
M 750 4600 
Q 900 4400 1300 3625 
Q 1100 3525 875 3375 
Q 800 3600 350 4400 
Q 550 4475 750 4600 
z
M 3000 4350 
Q 2825 4075 2350 3300 
Q 2225 3425 1975 3550 
Q 2300 3925 2575 4600 
Q 2800 4450 3000 4350 
z
M 2325 2400 
Q 2650 2025 2975 1600 
Q 2800 1450 2600 1275 
Q 2300 1775 1975 2125 
Q 2175 2250 2325 2400 
z
" transform="scale(0.015625)"/>
       <path id="SimHei-53bb" d="M 3325 1625 
Q 3050 1450 2725 1037 
Q 2400 625 1775 25 
Q 2500 100 3125 162 
Q 3750 225 4500 325 
Q 3950 975 3725 1150 
Q 3950 1250 4200 1450 
Q 4500 1125 4900 662 
Q 5300 200 5750 -275 
Q 5450 -425 5200 -600 
Q 5000 -300 4750 -25 
Q 3025 -200 2262 -337 
Q 1500 -475 1175 -600 
Q 1075 -325 900 0 
Q 1200 75 1812 700 
Q 2425 1325 2675 1975 
L 1450 1975 
Q 750 1975 250 1950 
L 250 2400 
Q 775 2375 1450 2375 
L 2975 2375 
L 2975 3550 
L 2075 3550 
Q 1450 3550 975 3525 
L 975 3975 
Q 1450 3950 2050 3950 
L 2975 3950 
L 2975 4450 
Q 2975 4825 2950 5175 
L 3550 5175 
Q 3500 4850 3500 4500 
L 3500 3950 
L 4250 3950 
Q 4875 3950 5425 3975 
L 5425 3525 
Q 4875 3550 4275 3550 
L 3500 3550 
L 3500 2375 
L 5025 2375 
Q 5625 2375 6175 2400 
L 6175 1950 
Q 5625 1975 5025 1975 
L 2850 1975 
Q 3125 1775 3325 1625 
z
" transform="scale(0.015625)"/>
       <path id="SimHei-9664" d="M 4325 2850 
L 4325 2100 
L 4900 2100 
Q 5250 2100 5725 2125 
L 5725 1675 
Q 5275 1700 4925 1700 
L 4325 1700 
L 4325 75 
Q 4325 -375 4125 -475 
Q 3925 -575 3450 -675 
Q 3425 -400 3250 -75 
Q 3650 -75 3775 -50 
Q 3900 -25 3900 250 
L 3900 1700 
L 3425 1700 
Q 2975 1700 2550 1675 
L 2550 2125 
Q 2950 2100 3450 2100 
L 3900 2100 
L 3900 2850 
L 3625 2850 
Q 3375 2850 3100 2825 
L 3100 3200 
Q 2800 2825 2625 2675 
Q 2450 2850 2200 3000 
Q 2850 3500 3262 4125 
Q 3675 4750 3875 5300 
Q 4100 5175 4425 5050 
Q 4375 4975 4275 4850 
Q 4625 4275 5025 3925 
Q 5425 3575 6200 3250 
Q 5975 3075 5825 2750 
Q 5525 2900 5125 3225 
L 5125 2825 
Q 4800 2850 4525 2850 
L 4325 2850 
z
M 2500 4850 
Q 2350 4475 1800 2950 
Q 2175 2425 2275 2150 
Q 2375 1875 2375 1550 
Q 2375 1225 2150 1000 
Q 1925 775 1450 675 
Q 1375 950 1225 1225 
Q 1725 1275 1850 1437 
Q 1975 1600 1862 1975 
Q 1750 2350 1300 2950 
Q 1650 3625 1875 4450 
L 1025 4450 
L 1025 -625 
L 550 -625 
Q 575 -25 575 925 
L 575 3800 
Q 575 4375 550 4850 
L 2500 4850 
z
M 5050 3275 
Q 4375 3875 4025 4500 
Q 3600 3775 3150 3275 
L 5050 3275 
z
M 5050 1250 
Q 5275 975 5512 687 
Q 5750 400 6075 100 
Q 5800 0 5600 -225 
Q 5425 50 5137 412 
Q 4850 775 4650 950 
L 5050 1250 
z
M 3525 975 
Q 3350 800 3100 462 
Q 2850 125 2550 -225 
Q 2350 -50 2150 75 
Q 2425 325 2650 612 
Q 2875 900 3075 1275 
Q 3275 1100 3525 975 
z
" transform="scale(0.015625)"/>
       <path id="SimHei-7387" d="M 3325 5150 
Q 3425 4900 3550 4525 
L 4800 4525 
Q 5250 4525 5800 4550 
L 5800 4125 
Q 5250 4175 4775 4175 
L 2800 4175 
Q 2975 4050 3300 3900 
Q 3075 3750 2875 3537 
Q 2675 3325 2475 3125 
L 3275 3125 
Q 3575 3425 3775 3775 
Q 4000 3600 4275 3425 
Q 3950 3250 3600 2875 
Q 3250 2500 2625 2000 
L 3850 2100 
Q 3725 2250 3600 2425 
Q 3750 2475 4000 2650 
Q 4250 2350 4700 1700 
Q 4475 1625 4225 1450 
Q 4175 1600 4025 1775 
Q 3700 1750 3425 1750 
L 3425 1050 
L 5150 1050 
Q 5675 1050 6100 1075 
L 6100 650 
Q 5700 675 5125 675 
L 3425 675 
L 3425 175 
Q 3425 -300 3450 -625 
L 2900 -625 
Q 2925 -300 2925 175 
L 2925 675 
L 1325 675 
Q 825 675 325 650 
L 325 1075 
Q 825 1050 1350 1050 
L 2925 1050 
L 2925 1700 
Q 2700 1675 2475 1637 
Q 2250 1600 2025 1525 
Q 1950 1775 1850 2000 
Q 2075 2025 2325 2200 
Q 2575 2375 2975 2800 
Q 2300 2725 2025 2625 
Q 1975 2875 1850 3175 
Q 2075 3175 2325 3487 
Q 2575 3800 2750 4175 
L 1700 4175 
Q 1150 4175 650 4125 
L 650 4550 
Q 1150 4525 1550 4525 
L 2975 4525 
Q 2900 4825 2800 5025 
Q 3025 5075 3325 5150 
z
M 1625 2575 
Q 1725 2400 1825 2200 
Q 1575 2050 1325 1862 
Q 1075 1675 800 1425 
Q 625 1675 475 1875 
Q 800 2025 1100 2212 
Q 1400 2400 1625 2575 
z
M 4850 2650 
Q 5125 2475 5337 2337 
Q 5550 2200 5875 1950 
Q 5675 1800 5500 1600 
Q 5300 1775 5062 1975 
Q 4825 2175 4575 2325 
Q 4725 2475 4850 2650 
z
M 5725 3525 
Q 5550 3450 5300 3262 
Q 5050 3075 4800 2825 
Q 4625 3050 4475 3175 
Q 4700 3325 4875 3487 
Q 5050 3650 5300 3925 
Q 5525 3700 5725 3525 
z
M 1050 3850 
Q 1425 3600 1775 3275 
Q 1575 3100 1425 2925 
Q 1075 3300 675 3525 
Q 875 3700 1050 3850 
z
" transform="scale(0.015625)"/>
       <path id="SimHei-4d" d="M 2925 125 
L 2425 125 
L 2425 3175 
L 2375 3175 
L 1775 125 
L 1375 125 
L 775 3175 
L 725 3175 
L 725 125 
L 225 125 
L 225 4400 
L 1000 4400 
L 1550 1575 
L 1600 1575 
L 2150 4400 
L 2925 4400 
L 2925 125 
z
" transform="scale(0.015625)"/>
       <path id="SimHei-52" d="M 3000 125 
L 2400 125 
L 1500 1975 
L 850 1975 
L 850 125 
L 275 125 
L 275 4400 
L 1525 4400 
Q 2125 4400 2500 4112 
Q 2875 3825 2875 3175 
Q 2875 2675 2625 2400 
Q 2375 2125 2050 2050 
L 3000 125 
z
M 2300 3175 
Q 2300 3525 2087 3725 
Q 1875 3925 1400 3925 
L 850 3925 
L 850 2450 
L 1550 2450 
Q 1850 2450 2075 2612 
Q 2300 2775 2300 3175 
z
" transform="scale(0.015625)"/>
       <path id="DejaVuSans-33" d="M 2597 2516 
Q 3050 2419 3304 2112 
Q 3559 1806 3559 1356 
Q 3559 666 3084 287 
Q 2609 -91 1734 -91 
Q 1441 -91 1130 -33 
Q 819 25 488 141 
L 488 750 
Q 750 597 1062 519 
Q 1375 441 1716 441 
Q 2309 441 2620 675 
Q 2931 909 2931 1356 
Q 2931 1769 2642 2001 
Q 2353 2234 1838 2234 
L 1294 2234 
L 1294 2753 
L 1863 2753 
Q 2328 2753 2575 2939 
Q 2822 3125 2822 3475 
Q 2822 3834 2567 4026 
Q 2313 4219 1838 4219 
Q 1578 4219 1281 4162 
Q 984 4106 628 3988 
L 628 4550 
Q 988 4650 1302 4700 
Q 1616 4750 1894 4750 
Q 2613 4750 3031 4423 
Q 3450 4097 3450 3541 
Q 3450 3153 3228 2886 
Q 3006 2619 2597 2516 
z
" transform="scale(0.015625)"/>
       <path id="SimHei-2f" d="M 3000 4550 
L 350 -175 
L 100 -25 
L 2750 4700 
L 3000 4550 
z
" transform="scale(0.015625)"/>
      </defs>
      <use xlink:href="#SimHei-6750" transform="translate(0 0.765625)"/>
      <use xlink:href="#SimHei-6599" transform="translate(100 0.765625)"/>
      <use xlink:href="#SimHei-53bb" transform="translate(200 0.765625)"/>
      <use xlink:href="#SimHei-9664" transform="translate(300 0.765625)"/>
      <use xlink:href="#SimHei-7387" transform="translate(400 0.765625)"/>
      <use xlink:href="#SimHei-20" transform="translate(500 0.765625)"/>
      <use xlink:href="#SimHei-4d" transform="translate(550 0.765625)"/>
      <use xlink:href="#SimHei-52" transform="translate(600 0.765625)"/>
      <use xlink:href="#SimHei-52" transform="translate(650 0.765625)"/>
      <use xlink:href="#SimHei-20" transform="translate(700 0.765625)"/>
      <use xlink:href="#SimHei-28" transform="translate(750 0.765625)"/>
      <use xlink:href="#SimHei-6d" transform="translate(800 0.765625)"/>
      <use xlink:href="#SimHei-6d" transform="translate(850 0.765625)"/>
      <use xlink:href="#DejaVuSans-33" transform="translate(900.957031 39.046875) scale(0.7)"/>
      <use xlink:href="#SimHei-2f" transform="translate(948.227539 0.765625)"/>
      <use xlink:href="#SimHei-73" transform="translate(998.227539 0.765625)"/>
      <use xlink:href="#SimHei-29" transform="translate(1048.227539 0.765625)"/>
     </g>
    </g>
   </g>
   <g id="line2d_37">
    <path d="M 81.519273 433.388878 
L 92.59989 433.388878 
L 92.59989 88.243386 
L 92.738574 88.243386 
L 94.535348 88.243386 
L 94.535348 433.388878 
L 94.68218 88.243386 
L 96.478953 88.243386 
L 96.478953 433.388878 
L 96.625785 88.243386 
L 98.422558 88.243386 
L 98.422558 433.388878 
L 99.059781 433.388878 
L 100.628187 433.388878 
L 100.628187 88.243386 
L 101.62672 125.456973 
L 101.644121 125.456973 
L 101.731074 433.388878 
L 101.896466 88.243386 
L 102.44043 433.388878 
L 103.506232 433.388878 
L 103.579701 88.243386 
L 104.497611 333.978347 
L 104.537548 333.978347 
L 104.697341 433.388878 
L 105.299153 433.388878 
L 106.247168 433.388878 
L 106.247168 88.243386 
L 106.999386 88.243386 
L 107.363207 88.243386 
L 107.363207 433.388878 
L 108.304664 433.388878 
L 108.532057 433.388878 
L 108.578284 88.243386 
L 109.389501 88.243386 
L 109.753324 88.243386 
L 109.753324 433.388878 
L 110.692123 355.868855 
L 111.055946 355.868855 
L 111.055946 433.388878 
L 112.020613 433.388878 
L 113.45526 433.388878 
L 113.700772 91.48085 
L 114.430783 151.757059 
L 114.456845 151.757059 
L 114.934142 433.388878 
L 114.639343 88.243386 
L 115.454264 397.151103 
L 115.478427 397.151103 
L 115.575034 430.028429 
L 116.082238 386.72003 
L 116.470889 426.325078 
L 116.496168 426.325078 
L 116.571975 433.388878 
L 116.521429 425.253781 
L 117.044564 433.388878 
L 117.523371 433.388878 
L 117.553744 340.27639 
L 117.575023 380.572385 
L 118.93177 380.572385 
L 118.93177 433.388878 
L 118.96519 340.27639 
L 118.986469 380.572385 
L 120.343216 380.572385 
L 120.343216 433.388878 
L 120.376636 340.27639 
L 120.397914 380.572385 
L 121.754662 380.572385 
L 121.754662 433.388878 
L 121.791123 340.077931 
L 122.690348 433.388878 
L 126.317771 433.388878 
L 126.317771 88.247527 
L 126.456455 88.247527 
L 128.253228 88.247527 
L 128.253228 433.388878 
L 128.40006 88.247527 
L 130.196833 88.247527 
L 130.196833 433.388878 
L 130.343665 88.247527 
L 132.140439 88.247527 
L 132.140439 433.388878 
L 132.791412 433.388878 
L 134.373569 433.388878 
L 134.373569 88.247527 
L 135.372102 125.460668 
L 135.389503 125.460668 
L 135.476456 433.388878 
L 135.641848 88.247527 
L 136.185812 433.388878 
L 137.251614 433.388878 
L 137.508751 88.245687 
L 138.242993 333.97954 
L 138.28293 333.97954 
L 138.442723 433.388878 
L 139.044535 433.388878 
L 139.99255 433.388878 
L 140.101671 88.245687 
L 140.744768 88.247527 
L 141.108588 88.247527 
L 141.108588 433.388878 
L 141.14113 88.245687 
L 142.050046 433.388878 
L 142.277439 433.388878 
L 142.416136 88.245687 
L 143.134883 88.245687 
L 143.498706 88.245687 
L 143.498706 433.388878 
L 144.437505 355.869372 
L 144.801328 355.869372 
L 144.801328 433.388878 
L 145.765995 433.388878 
L 147.200642 433.388878 
L 147.446153 91.484953 
L 148.176165 151.760439 
L 148.202227 151.760439 
L 148.679524 433.388878 
L 148.757527 88.245687 
L 149.199646 397.151538 
L 149.223809 397.151538 
L 149.320416 430.028469 
L 149.82762 386.72059 
L 150.216271 426.325163 
L 150.24155 426.325163 
L 150.317357 433.388878 
L 150.266811 425.253879 
L 150.789946 433.388878 
L 151.268752 433.388878 
L 151.299126 340.277507 
L 151.320405 380.573019 
L 152.677152 380.573019 
L 152.677152 433.388878 
L 152.710572 340.277507 
L 152.731851 380.573019 
L 154.088598 380.573019 
L 154.088598 433.388878 
L 154.122018 340.277507 
L 154.143296 380.573019 
L 155.500044 380.573019 
L 155.500044 433.388878 
L 155.536505 340.079051 
L 156.43573 433.388878 
L 160.090654 433.388878 
L 160.090654 88.243846 
L 160.229338 88.243846 
L 162.026112 88.243846 
L 162.026112 433.388878 
L 162.172943 88.243846 
L 163.969717 88.243846 
L 163.969717 433.388878 
L 164.116549 88.243846 
L 165.913322 88.243846 
L 165.913322 433.388878 
L 166.578046 433.388878 
L 168.173954 433.388878 
L 168.173954 88.243846 
L 169.172487 125.459025 
L 169.189888 125.459025 
L 169.276841 433.388878 
L 169.442233 88.243846 
L 169.986197 433.388878 
L 171.051999 433.388878 
L 171.125468 88.243846 
L 172.043378 333.97848 
L 172.083315 333.97848 
L 172.243108 433.388878 
L 172.84492 433.388878 
L 173.792935 433.388878 
L 173.792935 88.243846 
L 174.545153 88.243846 
L 174.908974 88.243846 
L 174.908974 433.388878 
L 175.850432 433.388878 
L 176.077824 433.388878 
L 176.124051 88.243846 
L 176.935268 88.243846 
L 177.299091 88.243846 
L 177.299091 433.388878 
L 178.23789 355.868958 
L 178.601713 355.868958 
L 178.601713 433.388878 
L 179.56638 433.388878 
L 181.001027 433.388878 
L 181.246539 91.481306 
L 181.97655 151.757435 
L 182.002612 151.757435 
L 182.479909 433.388878 
L 182.18511 88.243846 
L 183.000031 397.151152 
L 183.024194 397.151152 
L 183.120801 430.028433 
L 183.628005 386.720092 
L 184.016656 426.325088 
L 184.041935 426.325088 
L 184.117742 433.388878 
L 184.067196 425.253792 
L 184.590331 433.388878 
L 185.069138 433.388878 
L 185.099511 340.276514 
L 185.12079 380.572455 
L 186.477537 380.572455 
L 186.477537 433.388878 
L 186.510957 340.276514 
L 186.532236 380.572455 
L 187.888983 380.572455 
L 187.888983 433.388878 
L 187.922403 340.276514 
L 187.943682 380.572455 
L 189.300429 380.572455 
L 189.300429 433.388878 
L 189.33689 340.078055 
L 190.236115 433.388878 
L 193.918541 433.388878 
L 193.918541 88.247527 
L 194.057225 88.247527 
L 195.853998 88.247527 
L 195.853998 433.388878 
L 196.00083 88.247527 
L 197.797604 88.247527 
L 197.797604 433.388878 
L 197.944435 88.247527 
L 199.741209 88.247527 
L 199.741209 433.388878 
L 200.419684 433.388878 
L 202.029342 433.388878 
L 202.155516 88.245687 
L 203.027876 125.460668 
L 203.045276 125.460668 
L 203.13223 433.388878 
L 203.297621 88.247527 
L 203.841585 433.388878 
L 204.907387 433.388878 
L 204.980856 88.247527 
L 205.898766 333.97954 
L 205.938704 333.97954 
L 206.098496 433.388878 
L 206.700308 433.388878 
L 207.648323 433.388878 
L 207.648323 88.245687 
L 208.400541 88.245687 
L 208.764362 88.245687 
L 208.764362 433.388878 
L 209.70582 433.388878 
L 209.933213 433.388878 
L 210.763201 88.243846 
L 210.790656 88.243846 
L 211.154479 88.243846 
L 211.154479 433.388878 
L 212.093279 355.869372 
L 212.457102 355.869372 
L 212.457102 433.388878 
L 213.421768 433.388878 
L 214.856416 433.388878 
L 215.101927 91.484953 
L 215.831939 151.760439 
L 215.858001 151.760439 
L 216.335298 433.388878 
L 216.413301 88.245687 
L 216.85542 397.151345 
L 216.879583 397.151345 
L 216.97619 430.028469 
L 217.483393 386.72059 
L 217.872045 426.325163 
L 217.897324 426.325163 
L 217.97313 433.388878 
L 217.922585 425.253879 
L 218.44572 433.388878 
L 218.924526 433.388878 
L 218.954899 340.277507 
L 218.976178 380.573019 
L 220.332926 380.573019 
L 220.332926 433.388878 
L 220.366345 340.277507 
L 220.387624 380.573019 
L 221.744371 380.573019 
L 221.744371 433.388878 
L 221.777791 340.277507 
L 221.79907 380.573019 
L 223.155817 380.573019 
L 223.155817 433.388878 
L 223.192279 340.079051 
L 224.091503 433.388878 
L 227.793181 433.388878 
L 227.793181 295.332061 
L 227.931864 295.332061 
L 229.728638 295.332061 
L 229.728638 433.388878 
L 229.87547 295.332061 
L 231.672243 295.332061 
L 231.672243 433.388878 
L 231.819075 295.332061 
L 233.615849 295.332061 
L 233.615849 433.388878 
L 234.299824 433.388878 
L 235.861052 433.388878 
L 235.861052 295.332061 
L 236.859586 310.21899 
L 236.876986 310.21899 
L 236.96394 433.388878 
L 237.129332 295.332061 
L 237.673296 433.388878 
L 238.739097 433.388878 
L 238.812566 295.332061 
L 239.730476 393.625063 
L 239.770414 393.625063 
L 239.930206 433.388878 
L 240.532018 433.388878 
L 241.480033 433.388878 
L 241.670991 295.330221 
L 242.232251 295.330221 
L 242.596072 295.330221 
L 242.596072 433.388878 
L 243.53753 433.388878 
L 243.764923 433.388878 
L 243.903619 295.330221 
L 244.622366 295.330221 
L 244.986189 295.330221 
L 244.986189 433.388878 
L 245.924989 402.381179 
L 246.288812 402.381179 
L 246.288812 433.388878 
L 247.253478 433.388878 
L 248.688126 433.388878 
L 248.933637 296.627034 
L 249.663649 320.737277 
L 249.715777 321.380622 
L 250.167008 433.388878 
L 249.872208 295.330221 
L 250.711293 422.429038 
L 250.759598 422.165514 
L 251.315103 414.721525 
L 250.8079 432.044712 
L 251.754295 430.134872 
L 251.80484 430.467796 
L 251.80484 433.388878 
L 252.78661 396.144255 
L 252.801808 410.927344 
L 252.807888 411.487544 
L 252.807888 412.262492 
L 254.164636 412.262492 
L 254.164636 433.388878 
L 254.198055 396.144255 
L 254.219334 412.262492 
L 255.576081 412.262492 
L 255.576081 433.388878 
L 255.609501 396.144255 
L 255.63078 412.262492 
L 256.987527 412.262492 
L 256.987527 433.388878 
L 257.023989 396.064872 
L 257.923213 433.388878 
L 261.635891 433.388878 
L 261.635891 295.330221 
L 261.774575 295.330221 
L 263.571349 295.330221 
L 263.571349 433.388878 
L 263.71818 295.330221 
L 265.514954 295.330221 
L 265.514954 433.388878 
L 265.661786 295.330221 
L 267.458559 295.330221 
L 267.458559 433.388878 
L 268.148035 433.388878 
L 269.714764 433.388878 
L 269.714764 295.330221 
L 270.713297 310.215705 
L 270.730698 310.215705 
L 270.817651 433.388878 
L 270.983043 295.332061 
L 271.527007 433.388878 
L 272.592809 433.388878 
L 272.666278 295.330221 
L 273.584188 393.624533 
L 273.624125 393.624533 
L 273.783918 433.388878 
L 274.38573 433.388878 
L 275.333745 433.388878 
L 275.333745 295.330221 
L 276.085963 295.330221 
L 276.449783 295.330221 
L 276.449783 433.388878 
L 277.391241 433.388878 
L 277.618634 433.388878 
L 277.664861 295.330221 
L 278.476078 295.330221 
L 278.839901 295.330221 
L 278.839901 433.388878 
L 279.7787 402.380765 
L 280.142523 402.380765 
L 280.142523 433.388878 
L 281.10719 433.388878 
L 282.541837 433.388878 
L 282.787348 296.625211 
L 283.51736 320.735775 
L 283.569489 321.379128 
L 284.020719 433.388878 
L 283.72592 295.330221 
L 284.565004 422.428892 
L 284.61331 422.165365 
L 285.168815 414.721276 
L 284.661611 432.044694 
L 285.608006 430.134872 
L 285.658552 430.467757 
L 285.658552 433.388878 
L 286.640321 396.143758 
L 286.65552 410.927045 
L 286.6616 411.487252 
L 286.6616 412.26221 
L 288.018347 412.26221 
L 288.018347 433.388878 
L 288.051767 396.143758 
L 288.073046 412.26221 
L 289.429793 412.26221 
L 289.429793 433.388878 
L 289.463213 396.143758 
L 289.484491 412.26221 
L 290.841239 412.26221 
L 290.841239 433.388878 
L 290.8777 396.064872 
L 291.776925 433.388878 
L 295.503995 433.388878 
L 295.503995 210.195821 
L 295.642679 210.195821 
L 297.439453 210.195821 
L 297.439453 433.388878 
L 297.586284 210.195821 
L 299.383058 210.195821 
L 299.383058 433.388878 
L 299.52989 210.195821 
L 301.326663 210.195821 
L 301.326663 433.388878 
L 302.025031 433.388878 
L 303.623101 433.388878 
L 303.623101 210.195821 
L 304.621635 234.260496 
L 304.639036 234.260496 
L 304.725989 433.388878 
L 304.891381 210.195821 
L 305.435345 433.388878 
L 306.501146 433.388878 
L 306.574616 210.195821 
L 307.492526 369.103697 
L 307.532463 369.103697 
L 307.692256 433.388878 
L 308.294068 433.388878 
L 309.242083 433.388878 
L 309.242083 210.195821 
L 309.994301 210.195821 
L 310.358121 210.195821 
L 310.358121 433.388878 
L 311.299579 433.388878 
L 311.526972 433.388878 
L 312.35696 210.19444 
L 312.384416 210.19444 
L 312.748239 210.19444 
L 312.748239 433.388878 
L 313.687038 383.259494 
L 314.050861 383.259494 
L 314.050861 433.388878 
L 315.015527 433.388878 
L 316.450175 433.388878 
L 316.695686 212.289371 
L 317.425698 251.267807 
L 317.45176 251.267807 
L 317.929057 433.388878 
L 318.033058 210.19444 
L 318.449179 409.955225 
L 318.473342 409.955225 
L 318.569949 431.215797 
L 319.077153 403.209828 
L 319.465804 428.820975 
L 319.566889 428.666407 
L 319.566889 433.388878 
L 320.548659 373.176413 
L 320.563858 397.075869 
L 320.569938 397.981531 
L 320.569938 399.234369 
L 321.926685 399.234369 
L 321.926685 433.388878 
L 321.960105 373.176413 
L 321.981383 399.234369 
L 323.338131 399.234369 
L 323.338131 433.388878 
L 323.37155 373.176413 
L 323.392829 399.234369 
L 324.749576 399.234369 
L 324.749576 433.388878 
L 324.786038 373.048077 
L 325.685262 433.388878 
L 329.430099 433.388878 
L 329.430099 210.657852 
L 329.568783 210.657852 
L 331.365556 210.657852 
L 331.365556 433.388878 
L 331.512388 210.657852 
L 333.309162 210.657852 
L 333.309162 433.388878 
L 333.455994 210.657852 
L 335.252767 210.657852 
L 335.252767 433.388878 
L 335.960009 433.388878 
L 337.566967 433.388878 
L 337.693141 210.656012 
L 338.5655 234.672711 
L 338.582901 234.672711 
L 338.669854 433.388878 
L 338.835246 210.657852 
L 339.37921 433.388878 
L 340.445011 433.388878 
L 340.518481 210.657852 
L 341.436391 369.236774 
L 341.476328 369.236774 
L 341.636121 433.388878 
L 342.237933 433.388878 
L 343.185948 433.388878 
L 343.404186 210.656012 
L 343.938166 210.656012 
L 344.301986 210.656012 
L 344.301986 433.388878 
L 345.243444 433.388878 
L 345.470837 433.388878 
L 346.300826 210.654171 
L 346.328281 210.656012 
L 346.692104 210.656012 
L 346.692104 433.388878 
L 347.630903 383.362853 
L 347.994726 383.362853 
L 347.994726 433.388878 
L 348.959393 433.388878 
L 350.39404 433.388878 
L 350.639551 212.747069 
L 351.369563 251.644816 
L 351.395625 251.644816 
L 351.872922 433.388878 
L 351.769082 210.656012 
L 352.393044 410.003735 
L 352.417207 410.003735 
L 352.513814 431.220296 
L 353.021018 403.272302 
L 353.409669 428.830431 
L 353.510755 428.676173 
L 353.510755 433.388878 
L 354.492524 373.301058 
L 354.507723 397.151041 
L 354.513803 398.054828 
L 354.513803 399.305073 
L 355.87055 399.305073 
L 355.87055 433.388878 
L 355.90397 373.301058 
L 355.925248 399.305073 
L 357.281996 399.305073 
L 357.281996 433.388878 
L 357.315415 373.301058 
L 357.336694 399.305073 
L 358.693442 399.305073 
L 358.693442 433.388878 
L 358.729903 373.172988 
L 359.629128 433.388878 
L 363.39173 433.388878 
L 363.39173 210.195821 
L 363.530414 210.195821 
L 365.327188 210.195821 
L 365.327188 433.388878 
L 365.474019 210.195821 
L 367.270793 210.195821 
L 367.270793 433.388878 
L 367.417625 210.195821 
L 369.214398 210.195821 
L 369.214398 433.388878 
L 369.930532 433.388878 
L 371.945407 433.388878 
L 371.945407 210.195821 
L 372.709587 433.388878 
L 373.653073 433.388878 
L 373.653073 210.195821 
L 374.405291 210.195821 
L 374.769112 210.195821 
L 374.769112 433.388878 
L 375.71057 433.388878 
L 375.937963 433.388878 
L 375.98419 210.195821 
L 376.597717 210.195821 
L 376.96154 210.195821 
L 376.96154 433.388878 
L 377.90034 383.259494 
L 378.264163 383.259494 
L 378.264163 433.388878 
L 379.228829 433.388878 
L 380.864051 433.388878 
L 381.500632 210.195821 
L 381.614278 210.195821 
L 382.887296 210.195821 
L 382.887296 433.388878 
L 383.87174 417.389451 
L 383.89589 417.389451 
L 383.89589 431.215797 
L 384.306475 402.838714 
L 384.339296 405.7756 
L 384.918434 405.7756 
L 385.685337 356.705881 
L 384.935446 433.388878 
L 385.846825 433.388878 
L 387.817255 433.388878 
L 387.844595 373.176413 
L 387.865874 399.234369 
L 389.222621 399.234369 
L 389.222621 433.388878 
L 389.256041 373.176413 
L 389.27732 399.234369 
L 390.634067 399.234369 
L 390.634067 433.388878 
L 390.670528 373.048077 
L 390.688765 399.234369 
L 392.045513 399.234369 
L 392.045513 433.388878 
L 392.078932 373.176413 
L 392.849429 433.388878 
L 396.699645 433.388878 
L 396.699645 210.656012 
L 396.838329 210.656012 
L 398.635103 210.656012 
L 398.635103 433.388878 
L 398.781934 210.656012 
L 400.578708 210.656012 
L 400.578708 433.388878 
L 400.72554 210.656012 
L 402.522313 210.656012 
L 402.522313 433.388878 
L 403.247321 433.388878 
L 405.271083 433.388878 
L 405.271083 210.656012 
L 406.035263 433.388878 
L 406.978749 433.388878 
L 406.978749 210.656012 
L 407.730967 210.656012 
L 408.094788 210.656012 
L 408.094788 433.388878 
L 409.036246 433.388878 
L 409.263639 433.388878 
L 409.895938 210.654171 
L 409.923394 210.654171 
L 410.287216 210.654171 
L 410.287216 433.388878 
L 411.226016 383.36244 
L 411.589839 383.36244 
L 411.589839 433.388878 
L 412.554505 433.388878 
L 414.189727 433.388878 
L 414.826308 210.656012 
L 414.939954 210.656012 
L 416.212972 210.656012 
L 416.212972 433.388878 
L 416.350001 210.654171 
L 417.197416 417.422439 
L 417.221567 417.422439 
L 417.221567 431.220278 
L 417.632151 402.901704 
L 417.664972 405.832534 
L 418.24411 405.832534 
L 419.011013 356.86399 
L 418.261122 433.388878 
L 419.172501 433.388878 
L 421.142932 433.388878 
L 421.170271 373.300562 
L 421.19155 399.304791 
L 422.548297 399.304791 
L 422.548297 433.388878 
L 422.581717 373.300562 
L 422.602996 399.304791 
L 423.959743 399.304791 
L 423.959743 433.388878 
L 423.996204 373.17249 
L 424.014442 399.304791 
L 425.371189 399.304791 
L 425.371189 433.388878 
L 425.404609 373.300562 
L 426.175105 433.388878 
L 430.043087 433.388878 
L 430.059414 210.195821 
L 430.181771 210.197661 
L 431.978545 210.197661 
L 431.978545 433.388878 
L 432.125377 210.197661 
L 433.92215 210.197661 
L 433.92215 433.388878 
L 434.068982 210.197661 
L 435.865755 210.197661 
L 435.865755 433.388878 
L 436.599655 433.388878 
L 438.632296 433.388878 
L 438.632296 210.197661 
L 439.396476 433.388878 
L 440.339962 433.388878 
L 440.339962 210.195821 
L 441.09218 210.195821 
L 441.456001 210.195821 
L 441.456001 433.388878 
L 442.397459 433.388878 
L 442.624852 433.388878 
L 442.763548 210.195821 
L 443.284607 210.195821 
L 443.64843 210.195821 
L 443.64843 433.388878 
L 444.587229 383.259494 
L 444.951052 383.259494 
L 444.951052 433.388878 
L 445.915718 433.388878 
L 447.55094 433.388878 
L 448.23966 210.195821 
L 448.301167 210.197661 
L 449.574185 210.197661 
L 449.574185 433.388878 
L 449.711215 210.19444 
L 450.558629 417.389583 
L 450.58278 417.389583 
L 450.58278 431.215815 
L 450.993364 402.838966 
L 451.026185 405.775828 
L 451.605323 405.775828 
L 452.372226 356.705881 
L 451.622335 433.388878 
L 452.533715 433.388878 
L 454.504145 433.388878 
L 454.531484 373.176909 
L 454.552763 399.234651 
L 455.90951 399.234651 
L 455.90951 433.388878 
L 455.94293 373.176909 
L 455.964209 399.234651 
L 457.320956 399.234651 
L 457.320956 433.388878 
L 457.357418 373.048574 
L 457.375655 399.234651 
L 458.732402 399.234651 
L 458.732402 433.388878 
L 458.765822 373.176909 
L 459.536318 433.388878 
L 463.422085 433.388878 
L 463.438412 210.19444 
L 463.560769 210.195821 
L 465.357542 210.195821 
L 465.357542 433.388878 
L 465.504374 210.195821 
L 467.301148 210.195821 
L 467.301148 433.388878 
L 467.447979 210.195821 
L 469.244753 210.195821 
L 469.244753 433.388878 
L 469.987545 433.388878 
L 472.029078 433.388878 
L 472.029078 210.195821 
L 472.793258 433.388878 
L 473.736744 433.388878 
L 473.736744 210.195821 
L 474.488962 210.195821 
L 474.852783 210.195821 
L 474.852783 433.388878 
L 474.885325 210.19444 
L 475.794241 433.388878 
L 476.021634 433.388878 
L 476.229671 210.19444 
L 476.681389 210.195821 
L 477.045211 210.195821 
L 477.045211 433.388878 
L 477.984011 383.259494 
L 478.347834 383.259494 
L 478.347834 433.388878 
L 479.3125 433.388878 
L 480.947722 433.388878 
L 481.584303 210.195821 
L 481.697949 210.195821 
L 482.970967 210.195821 
L 482.970967 433.388878 
L 483.955411 417.389451 
L 483.979561 417.389451 
L 483.979561 431.215797 
L 484.390146 402.838525 
L 484.422967 405.7756 
L 485.002105 405.7756 
L 485.769008 356.705881 
L 485.019117 433.388878 
L 485.930496 433.388878 
L 487.900926 433.388878 
L 487.928266 373.176413 
L 487.949545 399.234369 
L 489.306292 399.234369 
L 489.306292 433.388878 
L 489.339712 373.176413 
L 489.360991 399.234369 
L 490.717738 399.234369 
L 490.717738 433.388878 
L 490.754199 373.048077 
L 490.772437 399.234369 
L 492.129184 399.234369 
L 492.129184 433.388878 
L 492.162604 373.176413 
L 492.9331 433.388878 
L 496.836633 433.388878 
L 496.836633 210.656012 
L 496.975317 210.656012 
L 498.77209 210.656012 
L 498.77209 433.388878 
L 498.918922 210.656012 
L 500.715695 210.656012 
L 500.715695 433.388878 
L 500.862527 210.656012 
L 502.659301 210.656012 
L 502.659301 433.388878 
L 503.410967 433.388878 
L 505.461387 433.388878 
L 505.461387 210.656012 
L 506.225567 433.388878 
L 507.169054 433.388878 
L 507.169054 210.656012 
L 507.921272 210.656012 
L 508.285092 210.656012 
L 508.285092 433.388878 
L 509.22655 433.388878 
L 509.453943 433.388878 
L 509.592639 210.654171 
L 510.113698 210.656012 
L 510.477521 210.656012 
L 510.477521 433.388878 
L 511.41632 383.362853 
L 511.780143 383.362853 
L 511.780143 433.388878 
L 512.74481 433.388878 
L 514.380032 433.388878 
L 515.094829 210.654171 
L 515.130259 210.656012 
L 516.403277 210.656012 
L 516.403277 433.388878 
L 516.84295 210.654171 
L 517.38772 417.422571 
L 517.411871 417.422571 
L 517.411871 431.220278 
L 517.822455 402.901704 
L 517.855276 405.832534 
L 518.434414 405.832534 
L 519.201317 356.86399 
L 518.451426 433.388878 
L 519.362806 433.388878 
L 521.333236 433.388878 
L 521.360575 373.300562 
L 521.381854 399.304791 
L 522.738602 399.304791 
L 522.738602 433.388878 
L 522.772021 373.300562 
L 522.7933 399.304791 
L 524.150047 399.304791 
L 524.150047 433.388878 
L 524.186509 373.17249 
L 524.204746 399.304791 
L 525.561493 399.304791 
L 525.561493 433.388878 
L 525.594913 373.300562 
L 526.36541 433.388878 
L 530.286744 433.388878 
L 530.286744 210.195821 
L 530.425428 210.195821 
L 532.222202 210.195821 
L 532.222202 433.388878 
L 532.369033 210.195821 
L 534.165807 210.195821 
L 534.165807 433.388878 
L 534.312639 210.195821 
L 536.109412 210.195821 
L 536.109412 433.388878 
L 536.869989 433.388878 
L 538.929304 433.388878 
L 538.929304 210.195821 
L 539.693483 433.388878 
L 540.63697 433.388878 
L 541.389188 210.19444 
L 541.753009 210.19444 
L 541.753009 433.388878 
L 542.694467 433.388878 
L 542.921859 433.388878 
L 542.968086 210.195821 
L 543.581614 210.195821 
L 543.945437 210.195821 
L 543.945437 433.388878 
L 544.884236 383.259184 
L 545.248059 383.259184 
L 545.248059 433.388878 
L 546.212726 433.388878 
L 547.847948 433.388878 
L 548.484529 210.195821 
L 548.598175 210.195821 
L 549.871193 210.195821 
L 549.871193 433.388878 
L 550.310867 210.19444 
L 550.855636 417.389451 
L 550.879787 417.389451 
L 550.879787 431.215797 
L 551.290371 402.838714 
L 551.323193 405.7756 
L 551.902331 405.7756 
L 552.669234 356.705881 
L 551.919343 433.388878 
L 552.830722 433.388878 
L 554.801152 433.388878 
L 554.828492 373.176413 
L 554.849771 399.234369 
L 556.206518 399.234369 
L 556.206518 433.388878 
L 556.239938 373.176413 
L 556.261216 399.234369 
L 557.617964 399.234369 
L 557.617964 433.388878 
L 557.654425 373.048077 
L 557.672662 399.234369 
L 559.02941 399.234369 
L 559.02941 433.388878 
L 559.062829 373.176413 
L 559.833326 433.388878 
L 563.772445 433.388878 
L 563.788772 210.195821 
L 563.911129 210.197661 
L 565.707902 210.197661 
L 565.707902 433.388878 
L 565.854734 210.197661 
L 567.651508 210.197661 
L 567.651508 433.388878 
L 567.798339 210.197661 
L 569.595113 210.197661 
L 569.595113 433.388878 
L 570.364582 433.388878 
L 572.432789 433.388878 
L 572.51553 210.195821 
L 573.196969 433.388878 
L 574.140455 433.388878 
L 574.331413 210.195821 
L 574.892673 210.195821 
L 575.256494 210.195821 
L 575.256494 433.388878 
L 576.197952 433.388878 
L 576.425345 433.388878 
L 577.085099 210.19444 
L 577.448922 210.19444 
L 577.448922 433.388878 
L 578.387722 383.259907 
L 578.751545 383.259907 
L 578.751545 433.388878 
L 579.716211 433.388878 
L 581.351433 433.388878 
L 582.06623 210.195821 
L 582.10166 210.197661 
L 583.374678 210.197661 
L 583.374678 433.388878 
L 583.648732 210.195821 
L 584.359122 417.389583 
L 584.383272 417.389583 
L 584.383272 431.215815 
L 584.793857 402.838714 
L 584.826678 405.775828 
L 585.405816 405.775828 
L 586.172719 356.705881 
L 585.422828 433.388878 
L 586.334207 433.388878 
L 588.304637 433.388878 
L 588.331977 373.176909 
L 588.353256 399.234651 
L 589.710003 399.234651 
L 589.710003 433.388878 
L 589.743423 373.176909 
L 589.764702 399.234651 
L 591.121449 399.234651 
L 591.121449 433.388878 
L 591.15791 373.048574 
L 591.176148 399.234651 
L 592.532895 399.234651 
L 592.532895 433.388878 
L 592.566315 373.176909 
L 593.336811 433.388878 
L 597.293696 433.388878 
L 597.310023 210.654171 
L 597.43238 210.656012 
L 599.229154 210.656012 
L 599.229154 433.388878 
L 599.375985 210.656012 
L 601.172759 210.656012 
L 601.172759 433.388878 
L 601.319591 210.656012 
L 603.116364 210.656012 
L 603.116364 433.388878 
L 603.894707 433.388878 
L 605.971802 433.388878 
L 605.971802 210.656012 
L 606.735981 433.388878 
L 607.679468 433.388878 
L 607.679468 210.656012 
L 608.431686 210.656012 
L 608.795506 210.656012 
L 608.795506 433.388878 
L 608.828048 210.654171 
L 609.736964 433.388878 
L 609.964357 433.388878 
L 610.476704 210.654171 
L 610.624112 210.656012 
L 610.987935 210.656012 
L 610.987935 433.388878 
L 611.926734 383.362853 
L 612.290557 383.362853 
L 612.290557 433.388878 
L 613.255224 433.388878 
L 614.890446 433.388878 
L 615.527026 210.657852 
L 615.640673 210.657852 
L 616.913691 210.656012 
L 616.913691 433.388878 
L 617.380867 210.654171 
L 617.898134 417.422571 
L 617.922285 417.422571 
L 617.922285 431.220278 
L 618.332869 402.901956 
L 618.36569 405.832762 
L 618.944828 405.832762 
L 619.711731 356.863358 
L 618.96184 433.388878 
L 619.87322 433.388878 
L 621.84365 433.388878 
L 621.87099 373.300562 
L 621.892268 399.304791 
L 623.249016 399.304791 
L 623.249016 433.388878 
L 623.282435 373.300562 
L 623.303714 399.304791 
L 624.660462 399.304791 
L 624.660462 433.388878 
L 624.696923 373.17249 
L 624.71516 399.304791 
L 626.071907 399.304791 
L 626.071907 433.388878 
L 626.105327 373.300562 
L 626.875824 433.388878 
L 630.850475 433.388878 
L 630.850475 210.195821 
L 630.989159 210.195821 
L 632.785932 210.195821 
L 632.785932 433.388878 
L 632.932764 210.195821 
L 634.729537 210.195821 
L 634.729537 433.388878 
L 634.876369 210.195821 
L 636.673143 210.195821 
L 636.673143 433.388878 
L 637.460378 433.388878 
L 639.546351 433.388878 
L 639.546351 210.195821 
L 640.310531 433.388878 
L 641.254017 433.388878 
L 641.916679 210.19444 
L 642.006235 210.19444 
L 642.370056 210.19444 
L 642.370056 433.388878 
L 643.311514 433.388878 
L 643.538907 433.388878 
L 643.585134 210.195821 
L 644.198661 210.195821 
L 644.562484 210.195821 
L 644.562484 433.388878 
L 645.501284 383.259494 
L 645.865107 383.259494 
L 645.865107 433.388878 
L 646.829773 433.388878 
L 648.464995 433.388878 
L 649.127657 210.195821 
L 649.215222 210.197661 
L 650.48824 210.195821 
L 650.48824 433.388878 
L 651.472684 417.389451 
L 651.496834 417.389451 
L 651.496834 431.215797 
L 651.907419 402.838966 
L 651.94024 405.775828 
L 652.519378 405.775828 
L 653.286281 356.705881 
L 652.53639 433.388878 
L 653.447769 433.388878 
L 655.418199 433.388878 
L 655.445539 373.176413 
L 655.466818 399.234369 
L 656.823565 399.234369 
L 656.823565 433.388878 
L 656.856985 373.176413 
L 656.878264 399.234369 
L 658.235011 399.234369 
L 658.235011 433.388878 
L 658.271472 373.048077 
L 658.289709 399.234369 
L 659.646457 399.234369 
L 659.646457 433.388878 
L 659.679877 373.176413 
L 660.450373 433.388878 
L 664.44279 433.388878 
L 664.44279 210.656012 
L 664.581474 210.656012 
L 666.378248 210.656012 
L 666.378248 433.388878 
L 666.52508 210.656012 
L 668.321853 210.656012 
L 668.321853 433.388878 
L 668.468685 210.656012 
L 670.265458 210.656012 
L 670.265458 433.388878 
L 671.061567 433.388878 
L 673.156428 433.388878 
L 673.156428 210.656012 
L 673.920607 433.388878 
L 674.864094 433.388878 
L 675.616312 210.654171 
L 675.980133 210.654171 
L 675.980133 433.388878 
L 676.921591 433.388878 
L 677.148983 433.388878 
L 677.19521 210.656012 
L 677.808738 210.656012 
L 678.172561 210.656012 
L 678.172561 433.388878 
L 679.11136 383.362853 
L 679.475183 383.362853 
L 679.475183 433.388878 
L 680.43985 433.388878 
L 682.075072 433.388878 
L 682.711653 210.657852 
L 682.825299 210.657852 
L 684.098317 210.656012 
L 684.098317 433.388878 
L 684.53799 210.654171 
L 685.08276 417.422439 
L 685.106911 417.422439 
L 685.106911 431.220278 
L 685.517495 402.901956 
L 685.550317 405.832762 
L 686.129455 405.832762 
L 686.896358 356.86399 
L 686.146467 433.388878 
L 687.057846 433.388878 
L 689.028276 433.388878 
L 689.055616 373.300562 
L 689.076895 399.304791 
L 690.433642 399.304791 
L 690.433642 433.388878 
L 690.467062 373.300562 
L 690.48834 399.304791 
L 691.845088 399.304791 
L 691.845088 433.388878 
L 691.881549 373.17249 
L 691.899786 399.304791 
L 693.256534 399.304791 
L 693.256534 433.388878 
L 693.289953 373.300562 
L 694.06045 433.388878 
L 698.070633 433.388878 
L 698.070633 210.195821 
L 698.209317 210.195821 
L 700.006091 210.195821 
L 700.006091 433.388878 
L 700.152922 210.195821 
L 701.949696 210.195821 
L 701.949696 433.388878 
L 702.096528 210.195821 
L 703.893301 210.195821 
L 703.893301 433.388878 
L 704.698302 433.388878 
L 706.802041 433.388878 
L 706.802041 210.195821 
L 707.566221 433.388878 
L 708.509708 433.388878 
L 709.261926 210.19444 
L 709.625746 210.19444 
L 709.625746 433.388878 
L 710.567204 433.388878 
L 710.794597 433.388878 
L 711.426897 210.19444 
L 711.454352 210.19444 
L 711.818175 210.19444 
L 711.818175 433.388878 
L 712.756974 383.259494 
L 713.120797 383.259494 
L 713.120797 433.388878 
L 714.085464 433.388878 
L 715.720686 433.388878 
L 716.357266 210.195821 
L 716.470913 210.195821 
L 717.743931 210.195821 
L 717.743931 433.388878 
L 717.88096 210.19444 
L 718.728374 417.389451 
L 718.752525 417.389451 
L 718.752525 431.215797 
L 719.163109 402.838714 
L 719.19593 405.7756 
L 719.775068 405.7756 
L 720.541971 356.705881 
L 719.79208 433.388878 
L 720.70346 433.388878 
L 722.67389 433.388878 
L 722.701229 373.176413 
L 722.722508 399.234369 
L 724.079256 399.234369 
L 724.079256 433.388878 
L 724.112675 373.176413 
L 724.133954 399.234369 
L 725.490701 399.234369 
L 725.490701 433.388878 
L 725.527163 373.048077 
L 725.5454 399.234369 
L 726.902147 399.234369 
L 726.902147 433.388878 
L 726.935567 373.176413 
L 727.706064 433.388878 
L 731.735535 433.388878 
L 731.735535 172.461546 
L 731.874219 172.461546 
L 733.670992 172.461546 
L 733.670992 433.388878 
L 733.817824 172.461546 
L 735.614597 172.461546 
L 735.614597 433.388878 
L 735.761429 172.461546 
L 737.558203 172.461546 
L 737.558203 433.388878 
L 738.373599 433.388878 
L 740.857463 433.388878 
L 740.857463 172.919896 
L 740.996146 172.919896 
L 742.79292 172.919896 
L 742.79292 433.388878 
L 742.939752 172.919896 
L 744.736525 172.919896 
L 744.736525 433.388878 
L 744.883357 172.919896 
L 746.680131 172.919896 
L 746.680131 433.388878 
L 747.505904 433.388878 
L 750.000163 433.388878 
L 750.000163 172.460165 
L 750.138847 172.460165 
L 751.935621 172.460165 
L 751.935621 433.388878 
L 752.082453 172.460165 
L 753.879226 172.460165 
L 753.879226 433.388878 
L 754.026058 172.460165 
L 755.822831 172.460165 
L 755.822831 433.388878 
L 756.659001 433.388878 
L 759.163656 433.388878 
L 759.179982 172.460165 
L 759.30234 172.461546 
L 761.099113 172.461546 
L 761.099113 433.388878 
L 761.245945 172.461546 
L 763.042718 172.461546 
L 763.042718 433.388878 
L 763.18955 172.461546 
L 764.986324 172.461546 
L 764.986324 433.388878 
L 765.832889 433.388878 
L 768.347921 433.388878 
L 768.347921 172.919896 
L 768.486605 172.919896 
L 770.283378 172.919896 
L 770.283378 433.388878 
L 770.43021 172.919896 
L 772.226983 172.919896 
L 772.226983 433.388878 
L 772.373815 172.919896 
L 774.170589 172.919896 
L 774.170589 433.388878 
L 775.027531 433.388878 
L 777.552959 433.388878 
L 777.552959 172.461546 
L 777.691642 172.461546 
L 779.488416 172.461546 
L 779.488416 433.388878 
L 779.635248 172.461546 
L 781.432021 172.461546 
L 781.432021 433.388878 
L 781.578853 172.461546 
L 783.375627 172.461546 
L 783.375627 433.388878 
L 784.242965 433.388878 
L 786.778788 433.388878 
L 786.778788 172.460165 
L 786.917472 172.460165 
L 788.714245 172.460165 
L 788.714245 433.388878 
L 788.861077 172.460165 
L 790.65785 172.460165 
L 790.65785 433.388878 
L 790.804682 172.460165 
L 792.601456 172.460165 
L 792.601456 433.388878 
L 793.479189 433.388878 
L 796.025408 433.388878 
L 796.025408 172.919896 
L 796.164092 172.919896 
L 797.960866 172.919896 
L 797.960866 433.388878 
L 798.107697 172.919896 
L 799.904471 172.919896 
L 799.904471 433.388878 
L 800.051303 172.919896 
L 801.848076 172.919896 
L 801.848076 433.388878 
L 802.736205 433.388878 
L 803.104727 433.388878 
L 803.104727 433.388878 
" clip-path="url(#pef422d230c)" style="fill: none; stroke: #000000; stroke-width: 0.5; stroke-linecap: square"/>
   </g>
   <g id="patch_3">
    <path d="M 45.44 450.646152 
L 45.44 70.986111 
" style="fill: none; stroke: #000000; stroke-width: 0.8; stroke-linejoin: miter; stroke-linecap: square"/>
   </g>
   <g id="patch_4">
    <path d="M 839.184 450.646152 
L 839.184 70.986111 
" style="fill: none; stroke: #000000; stroke-width: 0.8; stroke-linejoin: miter; stroke-linecap: square"/>
   </g>
   <g id="patch_5">
    <path d="M 45.44 450.646152 
L 839.184 450.646152 
" style="fill: none; stroke: #000000; stroke-width: 0.8; stroke-linejoin: miter; stroke-linecap: square"/>
   </g>
   <g id="patch_6">
    <path d="M 45.44 70.986111 
L 839.184 70.986111 
" style="fill: none; stroke: #000000; stroke-width: 0.8; stroke-linejoin: miter; stroke-linecap: square"/>
   </g>
   <g id="text_21">
    <!-- 材料去除率 -->
    <g transform="translate(407.312 18.520312) scale(0.14 -0.14)">
     <use xlink:href="#SimHei-6750"/>
     <use xlink:href="#SimHei-6599" x="100"/>
     <use xlink:href="#SimHei-53bb" x="200"/>
     <use xlink:href="#SimHei-9664" x="300"/>
     <use xlink:href="#SimHei-7387" x="400"/>
    </g>
   </g>
  </g>
  <g id="axes_2">
   <g id="matplotlib.axis_3">
    <g id="xtick_10">
     <g id="line2d_38">
      <defs>
       <path id="mc39200cadf" d="M 0 0 
L 0 -3.5 
" style="stroke: #000000; stroke-width: 0.8"/>
      </defs>
      <g>
       <use xlink:href="#mc39200cadf" x="81.519273" y="70.986111" style="stroke: #000000; stroke-width: 0.8"/>
      </g>
     </g>
     <g id="text_22">
      <!-- N0018 -->
      <g transform="translate(85.40836 63.279004) rotate(-45) scale(0.08 -0.08)">
       <defs>
        <path id="SimHei-4e" d="M 2850 125 
L 2225 125 
L 850 3225 
L 825 3225 
L 825 125 
L 250 125 
L 250 4400 
L 875 4400 
L 2250 1300 
L 2275 1300 
L 2275 4400 
L 2850 4400 
L 2850 125 
z
" transform="scale(0.015625)"/>
        <path id="SimHei-38" d="M 175 1375 
Q 175 1675 325 1962 
Q 475 2250 825 2425 
Q 525 2600 425 2812 
Q 325 3025 312 3300 
Q 300 3575 387 3775 
Q 475 3975 650 4150 
Q 825 4325 1037 4387 
Q 1250 4450 1500 4450 
Q 1750 4450 1950 4400 
Q 2150 4350 2375 4187 
Q 2600 4025 2700 3725 
Q 2800 3425 2687 3025 
Q 2575 2625 2100 2400 
Q 2525 2275 2700 2012 
Q 2875 1750 2875 1375 
Q 2875 1000 2762 775 
Q 2650 550 2512 400 
Q 2375 250 2137 162 
Q 1900 75 1537 75 
Q 1175 75 912 162 
Q 650 250 475 425 
Q 300 600 237 837 
Q 175 1075 175 1375 
z
M 687 1400 
Q 675 1100 787 875 
Q 900 650 1200 587 
Q 1500 525 1825 600 
Q 2150 675 2275 950 
Q 2400 1225 2362 1500 
Q 2325 1775 2050 1962 
Q 1775 2150 1450 2125 
Q 1125 2100 912 1900 
Q 700 1700 687 1400 
z
M 775 3350 
Q 775 3100 950 2875 
Q 1125 2650 1500 2650 
Q 1875 2650 2062 2875 
Q 2250 3100 2237 3412 
Q 2225 3725 2012 3875 
Q 1800 4025 1437 4000 
Q 1075 3975 925 3787 
Q 775 3600 775 3350 
z
" transform="scale(0.015625)"/>
       </defs>
       <use xlink:href="#SimHei-4e"/>
       <use xlink:href="#SimHei-30" x="50"/>
       <use xlink:href="#SimHei-30" x="100"/>
       <use xlink:href="#SimHei-31" x="150"/>
       <use xlink:href="#SimHei-38" x="200"/>
      </g>
     </g>
    </g>
    <g id="xtick_11">
     <g id="line2d_39">
      <g>
       <use xlink:href="#mc39200cadf" x="143.498706" y="70.986111" style="stroke: #000000; stroke-width: 0.8"/>
      </g>
     </g>
     <g id="text_23">
      <!-- N0430 -->
      <g transform="translate(147.387793 63.279004) rotate(-45) scale(0.08 -0.08)">
       <use xlink:href="#SimHei-4e"/>
       <use xlink:href="#SimHei-30" x="50"/>
       <use xlink:href="#SimHei-34" x="100"/>
       <use xlink:href="#SimHei-33" x="150"/>
       <use xlink:href="#SimHei-30" x="200"/>
      </g>
     </g>
    </g>
    <g id="xtick_12">
     <g id="line2d_40">
      <g>
       <use xlink:href="#mc39200cadf" x="195.90294" y="70.986111" style="stroke: #000000; stroke-width: 0.8"/>
      </g>
     </g>
     <g id="text_24">
      <!-- N0760.6 -->
      <g transform="translate(199.792027 63.279004) rotate(-45) scale(0.08 -0.08)">
       <defs>
        <path id="SimHei-36" d="M 250 1612 
Q 275 1975 387 2225 
Q 500 2475 725 2850 
L 1750 4450 
L 2325 4450 
L 1275 2800 
Q 1950 2975 2350 2750 
Q 2750 2525 2887 2237 
Q 3025 1950 3037 1612 
Q 3050 1275 2937 950 
Q 2825 625 2537 362 
Q 2250 100 1737 75 
Q 1225 50 862 262 
Q 500 475 362 862 
Q 225 1250 250 1612 
z
M 1025 787 
Q 1250 550 1625 525 
Q 2000 500 2250 775 
Q 2500 1050 2500 1575 
Q 2500 2100 2187 2300 
Q 1875 2500 1487 2450 
Q 1100 2400 925 2075 
Q 750 1750 775 1387 
Q 800 1025 1025 787 
z
" transform="scale(0.015625)"/>
        <path id="SimHei-2e" d="M 1075 125 
L 500 125 
L 500 675 
L 1075 675 
L 1075 125 
z
" transform="scale(0.015625)"/>
       </defs>
       <use xlink:href="#SimHei-4e"/>
       <use xlink:href="#SimHei-30" x="50"/>
       <use xlink:href="#SimHei-37" x="100"/>
       <use xlink:href="#SimHei-36" x="150"/>
       <use xlink:href="#SimHei-30" x="200"/>
       <use xlink:href="#SimHei-2e" x="250"/>
       <use xlink:href="#SimHei-36" x="300"/>
      </g>
     </g>
    </g>
    <g id="xtick_13">
     <g id="line2d_41">
      <g>
       <use xlink:href="#mc39200cadf" x="245.745412" y="70.986111" style="stroke: #000000; stroke-width: 0.8"/>
      </g>
     </g>
     <g id="text_25">
      <!-- N1160.12 -->
      <g transform="translate(249.634499 63.279004) rotate(-45) scale(0.08 -0.08)">
       <use xlink:href="#SimHei-4e"/>
       <use xlink:href="#SimHei-31" x="50"/>
       <use xlink:href="#SimHei-31" x="100"/>
       <use xlink:href="#SimHei-36" x="150"/>
       <use xlink:href="#SimHei-30" x="200"/>
       <use xlink:href="#SimHei-2e" x="250"/>
       <use xlink:href="#SimHei-31" x="300"/>
       <use xlink:href="#SimHei-32" x="350"/>
      </g>
     </g>
    </g>
    <g id="xtick_14">
     <g id="line2d_42">
      <g>
       <use xlink:href="#mc39200cadf" x="301.326663" y="70.986111" style="stroke: #000000; stroke-width: 0.8"/>
      </g>
     </g>
     <g id="text_26">
      <!-- N1488 -->
      <g transform="translate(305.21575 63.279004) rotate(-45) scale(0.08 -0.08)">
       <use xlink:href="#SimHei-4e"/>
       <use xlink:href="#SimHei-31" x="50"/>
       <use xlink:href="#SimHei-34" x="100"/>
       <use xlink:href="#SimHei-38" x="150"/>
       <use xlink:href="#SimHei-38" x="200"/>
      </g>
     </g>
    </g>
    <g id="xtick_15">
     <g id="line2d_43">
      <g>
       <use xlink:href="#mc39200cadf" x="348.478692" y="70.986111" style="stroke: #000000; stroke-width: 0.8"/>
      </g>
     </g>
     <g id="text_27">
      <!-- N1892.7 -->
      <g transform="translate(352.367779 63.279004) rotate(-45) scale(0.08 -0.08)">
       <defs>
        <path id="SimHei-39" d="M 800 75 
Q 1350 1000 1700 1750 
Q 1075 1650 662 1912 
Q 250 2175 162 2625 
Q 75 3075 175 3437 
Q 275 3800 487 4037 
Q 700 4275 1000 4375 
Q 1300 4475 1537 4475 
Q 1775 4475 2025 4375 
Q 2275 4275 2475 4075 
Q 2675 3875 2750 3662 
Q 2825 3450 2825 3112 
Q 2825 2775 2575 2250 
Q 2325 1725 1350 75 
L 800 75 
z
M 662 2875 
Q 700 2550 937 2337 
Q 1175 2125 1450 2150 
Q 1725 2175 1887 2300 
Q 2050 2425 2200 2725 
Q 2300 3100 2250 3362 
Q 2200 3625 1987 3800 
Q 1775 3975 1525 3975 
Q 1375 4000 1137 3900 
Q 900 3800 762 3500 
Q 625 3200 662 2875 
z
" transform="scale(0.015625)"/>
       </defs>
       <use xlink:href="#SimHei-4e"/>
       <use xlink:href="#SimHei-31" x="50"/>
       <use xlink:href="#SimHei-38" x="100"/>
       <use xlink:href="#SimHei-39" x="150"/>
       <use xlink:href="#SimHei-32" x="200"/>
       <use xlink:href="#SimHei-2e" x="250"/>
       <use xlink:href="#SimHei-37" x="300"/>
      </g>
     </g>
    </g>
    <g id="xtick_16">
     <g id="line2d_44">
      <g>
       <use xlink:href="#mc39200cadf" x="409.923394" y="70.986111" style="stroke: #000000; stroke-width: 0.8"/>
      </g>
     </g>
     <g id="text_28">
      <!-- N2262.2 -->
      <g transform="translate(413.812481 63.279004) rotate(-45) scale(0.08 -0.08)">
       <use xlink:href="#SimHei-4e"/>
       <use xlink:href="#SimHei-32" x="50"/>
       <use xlink:href="#SimHei-32" x="100"/>
       <use xlink:href="#SimHei-36" x="150"/>
       <use xlink:href="#SimHei-32" x="200"/>
       <use xlink:href="#SimHei-2e" x="250"/>
       <use xlink:href="#SimHei-32" x="300"/>
      </g>
     </g>
    </g>
    <g id="xtick_17">
     <g id="line2d_45">
      <g>
       <use xlink:href="#mc39200cadf" x="472.153189" y="70.986111" style="stroke: #000000; stroke-width: 0.8"/>
      </g>
     </g>
     <g id="text_29">
      <!-- N2632.4 -->
      <g transform="translate(476.042276 63.279004) rotate(-45) scale(0.08 -0.08)">
       <use xlink:href="#SimHei-4e"/>
       <use xlink:href="#SimHei-32" x="50"/>
       <use xlink:href="#SimHei-36" x="100"/>
       <use xlink:href="#SimHei-33" x="150"/>
       <use xlink:href="#SimHei-32" x="200"/>
       <use xlink:href="#SimHei-2e" x="250"/>
       <use xlink:href="#SimHei-34" x="300"/>
      </g>
     </g>
    </g>
    <g id="xtick_18">
     <g id="line2d_46">
      <g>
       <use xlink:href="#mc39200cadf" x="530.327538" y="70.986111" style="stroke: #000000; stroke-width: 0.8"/>
      </g>
     </g>
     <g id="text_30">
      <!-- N3002.6 -->
      <g transform="translate(534.216625 63.279004) rotate(-45) scale(0.08 -0.08)">
       <use xlink:href="#SimHei-4e"/>
       <use xlink:href="#SimHei-33" x="50"/>
       <use xlink:href="#SimHei-30" x="100"/>
       <use xlink:href="#SimHei-30" x="150"/>
       <use xlink:href="#SimHei-32" x="200"/>
       <use xlink:href="#SimHei-2e" x="250"/>
       <use xlink:href="#SimHei-36" x="300"/>
      </g>
     </g>
    </g>
    <g id="xtick_19">
     <g id="line2d_47">
      <g>
       <use xlink:href="#mc39200cadf" x="588.301604" y="70.986111" style="stroke: #000000; stroke-width: 0.8"/>
      </g>
     </g>
     <g id="text_31">
      <!-- N3386.1 -->
      <g transform="translate(592.190691 63.279004) rotate(-45) scale(0.08 -0.08)">
       <use xlink:href="#SimHei-4e"/>
       <use xlink:href="#SimHei-33" x="50"/>
       <use xlink:href="#SimHei-33" x="100"/>
       <use xlink:href="#SimHei-38" x="150"/>
       <use xlink:href="#SimHei-36" x="200"/>
       <use xlink:href="#SimHei-2e" x="250"/>
       <use xlink:href="#SimHei-31" x="300"/>
      </g>
     </g>
    </g>
    <g id="xtick_20">
     <g id="line2d_48">
      <g>
       <use xlink:href="#mc39200cadf" x="650.625269" y="70.986111" style="stroke: #000000; stroke-width: 0.8"/>
      </g>
     </g>
     <g id="text_32">
      <!-- N3766.1 -->
      <g transform="translate(654.514357 63.279004) rotate(-45) scale(0.08 -0.08)">
       <use xlink:href="#SimHei-4e"/>
       <use xlink:href="#SimHei-33" x="50"/>
       <use xlink:href="#SimHei-37" x="100"/>
       <use xlink:href="#SimHei-36" x="150"/>
       <use xlink:href="#SimHei-36" x="200"/>
       <use xlink:href="#SimHei-2e" x="250"/>
       <use xlink:href="#SimHei-31" x="300"/>
      </g>
     </g>
    </g>
    <g id="xtick_21">
     <g id="line2d_49">
      <g>
       <use xlink:href="#mc39200cadf" x="713.41288" y="70.986111" style="stroke: #000000; stroke-width: 0.8"/>
      </g>
     </g>
     <g id="text_33">
      <!-- N4148.14 -->
      <g transform="translate(717.301967 63.279004) rotate(-45) scale(0.08 -0.08)">
       <use xlink:href="#SimHei-4e"/>
       <use xlink:href="#SimHei-34" x="50"/>
       <use xlink:href="#SimHei-31" x="100"/>
       <use xlink:href="#SimHei-34" x="150"/>
       <use xlink:href="#SimHei-38" x="200"/>
       <use xlink:href="#SimHei-2e" x="250"/>
       <use xlink:href="#SimHei-31" x="300"/>
       <use xlink:href="#SimHei-34" x="350"/>
      </g>
     </g>
    </g>
    <g id="xtick_22">
     <g id="line2d_50">
      <g>
       <use xlink:href="#mc39200cadf" x="801.98676" y="70.986111" style="stroke: #000000; stroke-width: 0.8"/>
      </g>
     </g>
     <g id="text_34">
      <!-- N4458.17 -->
      <g transform="translate(805.875847 63.279004) rotate(-45) scale(0.08 -0.08)">
       <use xlink:href="#SimHei-4e"/>
       <use xlink:href="#SimHei-34" x="50"/>
       <use xlink:href="#SimHei-34" x="100"/>
       <use xlink:href="#SimHei-35" x="150"/>
       <use xlink:href="#SimHei-38" x="200"/>
       <use xlink:href="#SimHei-2e" x="250"/>
       <use xlink:href="#SimHei-31" x="300"/>
       <use xlink:href="#SimHei-37" x="350"/>
      </g>
     </g>
    </g>
    <g id="text_35">
     <!-- 指令行号 N -->
     <g transform="translate(417.312 32.7625) scale(0.1 -0.1)">
      <defs>
       <path id="SimHei-6307" d="M 5625 2225 
Q 5600 1925 5600 1350 
L 5600 300 
Q 5600 -225 5625 -525 
L 5125 -525 
L 5125 -125 
L 3300 -125 
L 3300 -625 
L 2800 -625 
Q 2825 -300 2825 300 
L 2825 1350 
Q 2825 1925 2800 2225 
L 5625 2225 
z
M 500 25 
Q 1075 -25 1175 37 
Q 1275 100 1275 275 
L 1275 1675 
Q 1050 1600 925 1537 
Q 800 1475 475 1275 
Q 400 1525 225 1800 
Q 625 1900 825 1975 
Q 1025 2050 1275 2125 
L 1275 3300 
L 1100 3300 
Q 775 3300 450 3275 
L 450 3725 
Q 750 3700 1100 3700 
L 1275 3700 
L 1275 4450 
Q 1275 4800 1250 5125 
L 1775 5125 
Q 1750 4850 1750 4450 
L 1750 3700 
Q 2075 3700 2425 3725 
L 2425 3275 
Q 2050 3300 1750 3300 
L 1750 2325 
Q 1850 2350 2025 2425 
L 2375 2575 
Q 2350 2300 2375 2100 
Q 2225 2050 2062 1987 
Q 1900 1925 1750 1850 
L 1750 100 
Q 1725 -200 1575 -337 
Q 1425 -475 675 -525 
Q 625 -250 500 25 
z
M 3325 5025 
Q 3300 4675 3300 4125 
Q 4125 4275 4512 4412 
Q 4900 4550 5225 4725 
Q 5325 4475 5575 4250 
Q 5450 4225 5237 4175 
Q 5025 4125 4725 4050 
Q 4425 3975 4037 3887 
Q 3650 3800 3300 3725 
L 3300 3175 
Q 3275 2925 3700 2925 
L 4925 2925 
Q 5300 2925 5387 3087 
Q 5475 3250 5550 3600 
Q 5750 3400 6050 3300 
Q 5825 2725 5700 2637 
Q 5575 2550 5275 2525 
L 3350 2525 
Q 3050 2525 2937 2687 
Q 2825 2850 2825 2975 
L 2825 4125 
Q 2825 4775 2800 5025 
L 3325 5025 
z
M 5125 275 
L 5125 875 
L 3300 875 
L 3300 275 
L 5125 275 
z
M 5125 1250 
L 5125 1825 
L 3300 1825 
L 3300 1250 
L 5125 1250 
z
" transform="scale(0.015625)"/>
       <path id="SimHei-4ee4" d="M 5375 2075 
L 5375 1550 
Q 4925 1325 4450 937 
Q 3975 550 3575 125 
L 4250 -325 
Q 4050 -550 3875 -775 
Q 3100 -125 1850 425 
L 2150 875 
Q 2400 775 3125 350 
Q 3800 1025 4450 1625 
L 2025 1625 
Q 1500 1625 975 1600 
L 975 2100 
Q 1525 2075 2025 2075 
L 5375 2075 
z
M 3375 4850 
Q 4450 3550 6200 2900 
Q 5950 2625 5800 2350 
Q 4150 3150 3100 4475 
Q 2075 3125 625 2225 
Q 400 2525 200 2700 
Q 875 2975 1675 3675 
Q 2475 4375 2950 5300 
Q 3275 5175 3550 5050 
Q 3475 5000 3375 4850 
z
M 2925 3600 
Q 3175 3350 3750 2725 
L 3300 2325 
Q 3050 2700 2550 3225 
Q 2750 3375 2925 3600 
z
" transform="scale(0.015625)"/>
       <path id="SimHei-53f7" d="M 5025 4925 
Q 5000 4550 5000 4075 
Q 5000 3600 5025 3175 
L 1400 3175 
Q 1425 3525 1425 4000 
Q 1425 4500 1400 4925 
L 5025 4925 
z
M 5175 2625 
Q 5650 2625 6025 2650 
L 6025 2200 
Q 5650 2225 5175 2225 
L 2450 2225 
Q 2350 1875 2225 1450 
L 5175 1450 
Q 5100 1050 5062 775 
Q 5025 500 4950 112 
Q 4875 -275 4650 -412 
Q 4425 -550 3225 -625 
Q 3125 -350 2975 -50 
Q 3875 -75 4112 -50 
Q 4350 -25 4425 212 
Q 4500 450 4575 1025 
L 1600 1025 
Q 1825 1625 1950 2225 
L 1350 2225 
Q 825 2225 375 2200 
L 375 2650 
Q 825 2625 1350 2625 
L 5175 2625 
z
M 4525 3575 
L 4525 4525 
L 1900 4525 
L 1900 3575 
L 4525 3575 
z
" transform="scale(0.015625)"/>
      </defs>
      <use xlink:href="#SimHei-6307"/>
      <use xlink:href="#SimHei-4ee4" x="100"/>
      <use xlink:href="#SimHei-884c" x="200"/>
      <use xlink:href="#SimHei-53f7" x="300"/>
      <use xlink:href="#SimHei-20" x="400"/>
      <use xlink:href="#SimHei-4e" x="450"/>
     </g>
    </g>
   </g>
   <g id="patch_7">
    <path d="M 45.44 450.646152 
L 45.44 70.986111 
" style="fill: none; stroke: #000000; stroke-width: 0.8; stroke-linejoin: miter; stroke-linecap: square"/>
   </g>
   <g id="patch_8">
    <path d="M 839.184 450.646152 
L 839.184 70.986111 
" style="fill: none; stroke: #000000; stroke-width: 0.8; stroke-linejoin: miter; stroke-linecap: square"/>
   </g>
   <g id="patch_9">
    <path d="M 45.44 450.646152 
L 839.184 450.646152 
" style="fill: none; stroke: #000000; stroke-width: 0.8; stroke-linejoin: miter; stroke-linecap: square"/>
   </g>
   <g id="patch_10">
    <path d="M 45.44 70.986111 
L 839.184 70.986111 
" style="fill: none; stroke: #000000; stroke-width: 0.8; stroke-linejoin: miter; stroke-linecap: square"/>
   </g>
  </g>
 </g>
 <defs>
  <clipPath id="pef422d230c">
   <rect x="45.44" y="70.986111" width="793.744" height="379.660041"/>
  </clipPath>
 </defs>
</svg>
