<?xml version="1.0" encoding="utf-8" standalone="no"?>
<!DOCTYPE svg PUBLIC "-//W3C//DTD SVG 1.1//EN"
  "http://www.w3.org/Graphics/SVG/1.1/DTD/svg11.dtd">
<svg xmlns:xlink="http://www.w3.org/1999/xlink" width="848.424375pt" height="487.742402pt" viewBox="0 0 848.424375 487.742402" xmlns="http://www.w3.org/2000/svg" version="1.1">
 <metadata>
  <rdf:RDF xmlns:dc="http://purl.org/dc/elements/1.1/" xmlns:cc="http://creativecommons.org/ns#" xmlns:rdf="http://www.w3.org/1999/02/22-rdf-syntax-ns#">
   <cc:Work>
    <dc:type rdf:resource="http://purl.org/dc/dcmitype/StillImage"/>
    <dc:date>2025-12-10T13:36:57.006543</dc:date>
    <dc:format>image/svg+xml</dc:format>
    <dc:creator>
     <cc:Agent>
      <dc:title>Matplotlib v3.9.2, https://matplotlib.org/</dc:title>
     </cc:Agent>
    </dc:creator>
   </cc:Work>
  </rdf:RDF>
 </metadata>
 <defs>
  <style type="text/css">*{stroke-linejoin: round; stroke-linecap: butt}</style>
 </defs>
 <g id="figure_1">
  <g id="patch_1">
   <path d="M 0 487.742402 
L 848.424375 487.742402 
L 848.424375 0 
L 0 0 
z
" style="fill: #ffffff"/>
  </g>
  <g id="axes_1">
   <g id="patch_2">
    <path d="M 59.121875 450.214277 
L 841.224375 450.214277 
L 841.224375 70.876736 
L 59.121875 70.876736 
z
" style="fill: #ffffff"/>
   </g>
   <g id="matplotlib.axis_1">
    <g id="xtick_1">
     <g id="line2d_1">
      <path d="M 87.236322 450.214277 
L 87.236322 70.876736 
" clip-path="url(#p46ec1e1d97)" style="fill: none; stroke-dasharray: 2.96,1.28; stroke-dashoffset: 0; stroke: #b0b0b0; stroke-opacity: 0.7; stroke-width: 0.8"/>
     </g>
     <g id="line2d_2">
      <defs>
       <path id="ma1f2623a2a" d="M 0 0 
L 0 3.5 
" style="stroke: #000000; stroke-width: 0.8"/>
      </defs>
      <g>
       <use xlink:href="#ma1f2623a2a" x="87.236322" y="450.214277" style="stroke: #000000; stroke-width: 0.8"/>
      </g>
     </g>
     <g id="text_1">
      <!-- 0 -->
      <g transform="translate(84.736322 464.089277) scale(0.1 -0.1)">
       <defs>
        <path id="SimHei-30" d="M 225 2537 
Q 250 3200 412 3587 
Q 575 3975 875 4225 
Q 1175 4475 1612 4475 
Q 2050 4475 2375 4112 
Q 2700 3750 2800 3200 
Q 2900 2650 2862 1937 
Q 2825 1225 2612 775 
Q 2400 325 1975 150 
Q 1550 -25 1125 187 
Q 700 400 525 750 
Q 350 1100 275 1487 
Q 200 1875 225 2537 
z
M 750 2687 
Q 675 2000 800 1462 
Q 925 925 1212 700 
Q 1500 475 1800 612 
Q 2100 750 2237 1162 
Q 2375 1575 2375 2062 
Q 2375 2550 2337 2950 
Q 2300 3350 2112 3675 
Q 1925 4000 1612 4012 
Q 1300 4025 1062 3700 
Q 825 3375 750 2687 
z
" transform="scale(0.015625)"/>
       </defs>
       <use xlink:href="#SimHei-30"/>
      </g>
     </g>
    </g>
    <g id="xtick_2">
     <g id="line2d_3">
      <path d="M 177.563922 450.214277 
L 177.563922 70.876736 
" clip-path="url(#p46ec1e1d97)" style="fill: none; stroke-dasharray: 2.96,1.28; stroke-dashoffset: 0; stroke: #b0b0b0; stroke-opacity: 0.7; stroke-width: 0.8"/>
     </g>
     <g id="line2d_4">
      <g>
       <use xlink:href="#ma1f2623a2a" x="177.563922" y="450.214277" style="stroke: #000000; stroke-width: 0.8"/>
      </g>
     </g>
     <g id="text_2">
      <!-- 5000 -->
      <g transform="translate(167.563922 464.089277) scale(0.1 -0.1)">
       <defs>
        <path id="SimHei-35" d="M 550 1325 
Q 725 650 1150 575 
Q 1575 500 1837 662 
Q 2100 825 2212 1087 
Q 2325 1350 2312 1675 
Q 2300 2000 2137 2225 
Q 1975 2450 1725 2525 
Q 1475 2600 1162 2525 
Q 850 2450 650 2175 
L 225 2225 
Q 275 2375 700 4375 
L 2675 4375 
L 2675 3925 
L 1075 3925 
Q 950 3250 825 2850 
Q 1200 3025 1525 3012 
Q 1850 3000 2150 2862 
Q 2450 2725 2587 2487 
Q 2725 2250 2787 2012 
Q 2850 1775 2837 1500 
Q 2825 1225 2725 937 
Q 2625 650 2425 462 
Q 2225 275 1937 162 
Q 1650 50 1275 75 
Q 900 100 562 350 
Q 225 600 100 1200 
L 550 1325 
z
" transform="scale(0.015625)"/>
       </defs>
       <use xlink:href="#SimHei-35"/>
       <use xlink:href="#SimHei-30" x="50"/>
       <use xlink:href="#SimHei-30" x="100"/>
       <use xlink:href="#SimHei-30" x="150"/>
      </g>
     </g>
    </g>
    <g id="xtick_3">
     <g id="line2d_5">
      <path d="M 267.891522 450.214277 
L 267.891522 70.876736 
" clip-path="url(#p46ec1e1d97)" style="fill: none; stroke-dasharray: 2.96,1.28; stroke-dashoffset: 0; stroke: #b0b0b0; stroke-opacity: 0.7; stroke-width: 0.8"/>
     </g>
     <g id="line2d_6">
      <g>
       <use xlink:href="#ma1f2623a2a" x="267.891522" y="450.214277" style="stroke: #000000; stroke-width: 0.8"/>
      </g>
     </g>
     <g id="text_3">
      <!-- 10000 -->
      <g transform="translate(255.391522 464.089277) scale(0.1 -0.1)">
       <defs>
        <path id="SimHei-31" d="M 1400 3600 
Q 1075 3275 575 2975 
L 575 3450 
Q 1200 3875 1600 4450 
L 1900 4450 
L 1900 150 
L 1400 150 
L 1400 3600 
z
" transform="scale(0.015625)"/>
       </defs>
       <use xlink:href="#SimHei-31"/>
       <use xlink:href="#SimHei-30" x="50"/>
       <use xlink:href="#SimHei-30" x="100"/>
       <use xlink:href="#SimHei-30" x="150"/>
       <use xlink:href="#SimHei-30" x="200"/>
      </g>
     </g>
    </g>
    <g id="xtick_4">
     <g id="line2d_7">
      <path d="M 358.219122 450.214277 
L 358.219122 70.876736 
" clip-path="url(#p46ec1e1d97)" style="fill: none; stroke-dasharray: 2.96,1.28; stroke-dashoffset: 0; stroke: #b0b0b0; stroke-opacity: 0.7; stroke-width: 0.8"/>
     </g>
     <g id="line2d_8">
      <g>
       <use xlink:href="#ma1f2623a2a" x="358.219122" y="450.214277" style="stroke: #000000; stroke-width: 0.8"/>
      </g>
     </g>
     <g id="text_4">
      <!-- 15000 -->
      <g transform="translate(345.719122 464.089277) scale(0.1 -0.1)">
       <use xlink:href="#SimHei-31"/>
       <use xlink:href="#SimHei-35" x="50"/>
       <use xlink:href="#SimHei-30" x="100"/>
       <use xlink:href="#SimHei-30" x="150"/>
       <use xlink:href="#SimHei-30" x="200"/>
      </g>
     </g>
    </g>
    <g id="xtick_5">
     <g id="line2d_9">
      <path d="M 448.546722 450.214277 
L 448.546722 70.876736 
" clip-path="url(#p46ec1e1d97)" style="fill: none; stroke-dasharray: 2.96,1.28; stroke-dashoffset: 0; stroke: #b0b0b0; stroke-opacity: 0.7; stroke-width: 0.8"/>
     </g>
     <g id="line2d_10">
      <g>
       <use xlink:href="#ma1f2623a2a" x="448.546722" y="450.214277" style="stroke: #000000; stroke-width: 0.8"/>
      </g>
     </g>
     <g id="text_5">
      <!-- 20000 -->
      <g transform="translate(436.046722 464.089277) scale(0.1 -0.1)">
       <defs>
        <path id="SimHei-32" d="M 300 250 
Q 325 625 650 925 
Q 975 1225 1475 1862 
Q 1975 2500 2125 2850 
Q 2275 3200 2237 3450 
Q 2200 3700 2000 3862 
Q 1800 4025 1537 4000 
Q 1275 3975 1037 3800 
Q 800 3625 675 3275 
L 200 3350 
Q 400 3925 712 4187 
Q 1025 4450 1450 4475 
Q 1700 4500 1900 4462 
Q 2100 4425 2312 4287 
Q 2525 4150 2662 3875 
Q 2800 3600 2762 3212 
Q 2725 2825 2375 2287 
Q 2025 1750 1025 600 
L 2825 600 
L 2825 150 
L 300 150 
L 300 250 
z
" transform="scale(0.015625)"/>
       </defs>
       <use xlink:href="#SimHei-32"/>
       <use xlink:href="#SimHei-30" x="50"/>
       <use xlink:href="#SimHei-30" x="100"/>
       <use xlink:href="#SimHei-30" x="150"/>
       <use xlink:href="#SimHei-30" x="200"/>
      </g>
     </g>
    </g>
    <g id="xtick_6">
     <g id="line2d_11">
      <path d="M 538.874321 450.214277 
L 538.874321 70.876736 
" clip-path="url(#p46ec1e1d97)" style="fill: none; stroke-dasharray: 2.96,1.28; stroke-dashoffset: 0; stroke: #b0b0b0; stroke-opacity: 0.7; stroke-width: 0.8"/>
     </g>
     <g id="line2d_12">
      <g>
       <use xlink:href="#ma1f2623a2a" x="538.874321" y="450.214277" style="stroke: #000000; stroke-width: 0.8"/>
      </g>
     </g>
     <g id="text_6">
      <!-- 25000 -->
      <g transform="translate(526.374321 464.089277) scale(0.1 -0.1)">
       <use xlink:href="#SimHei-32"/>
       <use xlink:href="#SimHei-35" x="50"/>
       <use xlink:href="#SimHei-30" x="100"/>
       <use xlink:href="#SimHei-30" x="150"/>
       <use xlink:href="#SimHei-30" x="200"/>
      </g>
     </g>
    </g>
    <g id="xtick_7">
     <g id="line2d_13">
      <path d="M 629.201921 450.214277 
L 629.201921 70.876736 
" clip-path="url(#p46ec1e1d97)" style="fill: none; stroke-dasharray: 2.96,1.28; stroke-dashoffset: 0; stroke: #b0b0b0; stroke-opacity: 0.7; stroke-width: 0.8"/>
     </g>
     <g id="line2d_14">
      <g>
       <use xlink:href="#ma1f2623a2a" x="629.201921" y="450.214277" style="stroke: #000000; stroke-width: 0.8"/>
      </g>
     </g>
     <g id="text_7">
      <!-- 30000 -->
      <g transform="translate(616.701921 464.089277) scale(0.1 -0.1)">
       <defs>
        <path id="SimHei-33" d="M 250 1225 
L 700 1300 
Q 800 975 1025 762 
Q 1250 550 1587 562 
Q 1925 575 2125 837 
Q 2325 1100 2300 1437 
Q 2275 1775 2037 1962 
Q 1800 2150 1275 2225 
L 1275 2550 
Q 1800 2600 2037 2825 
Q 2275 3050 2250 3412 
Q 2225 3775 1925 3937 
Q 1625 4100 1287 3975 
Q 950 3850 750 3275 
L 300 3350 
Q 450 3800 712 4100 
Q 975 4400 1425 4450 
Q 1875 4500 2212 4337 
Q 2550 4175 2687 3837 
Q 2825 3500 2725 3100 
Q 2625 2700 2150 2400 
Q 2500 2250 2687 1950 
Q 2875 1650 2812 1162 
Q 2750 675 2375 375 
Q 2000 75 1525 87 
Q 1050 100 700 387 
Q 350 675 250 1225 
z
" transform="scale(0.015625)"/>
       </defs>
       <use xlink:href="#SimHei-33"/>
       <use xlink:href="#SimHei-30" x="50"/>
       <use xlink:href="#SimHei-30" x="100"/>
       <use xlink:href="#SimHei-30" x="150"/>
       <use xlink:href="#SimHei-30" x="200"/>
      </g>
     </g>
    </g>
    <g id="xtick_8">
     <g id="line2d_15">
      <path d="M 719.529521 450.214277 
L 719.529521 70.876736 
" clip-path="url(#p46ec1e1d97)" style="fill: none; stroke-dasharray: 2.96,1.28; stroke-dashoffset: 0; stroke: #b0b0b0; stroke-opacity: 0.7; stroke-width: 0.8"/>
     </g>
     <g id="line2d_16">
      <g>
       <use xlink:href="#ma1f2623a2a" x="719.529521" y="450.214277" style="stroke: #000000; stroke-width: 0.8"/>
      </g>
     </g>
     <g id="text_8">
      <!-- 35000 -->
      <g transform="translate(707.029521 464.089277) scale(0.1 -0.1)">
       <use xlink:href="#SimHei-33"/>
       <use xlink:href="#SimHei-35" x="50"/>
       <use xlink:href="#SimHei-30" x="100"/>
       <use xlink:href="#SimHei-30" x="150"/>
       <use xlink:href="#SimHei-30" x="200"/>
      </g>
     </g>
    </g>
    <g id="xtick_9">
     <g id="line2d_17">
      <path d="M 809.857121 450.214277 
L 809.857121 70.876736 
" clip-path="url(#p46ec1e1d97)" style="fill: none; stroke-dasharray: 2.96,1.28; stroke-dashoffset: 0; stroke: #b0b0b0; stroke-opacity: 0.7; stroke-width: 0.8"/>
     </g>
     <g id="line2d_18">
      <g>
       <use xlink:href="#ma1f2623a2a" x="809.857121" y="450.214277" style="stroke: #000000; stroke-width: 0.8"/>
      </g>
     </g>
     <g id="text_9">
      <!-- 40000 -->
      <g transform="translate(797.357121 464.089277) scale(0.1 -0.1)">
       <defs>
        <path id="SimHei-34" d="M 2000 1100 
L 75 1100 
L 75 1525 
L 2100 4450 
L 2475 4450 
L 2475 1525 
L 3075 1525 
L 3075 1100 
L 2475 1100 
L 2475 150 
L 2000 150 
L 2000 1100 
z
M 2000 1525 
L 2000 3500 
L 600 1525 
L 2000 1525 
z
" transform="scale(0.015625)"/>
       </defs>
       <use xlink:href="#SimHei-34"/>
       <use xlink:href="#SimHei-30" x="50"/>
       <use xlink:href="#SimHei-30" x="100"/>
       <use xlink:href="#SimHei-30" x="150"/>
       <use xlink:href="#SimHei-30" x="200"/>
      </g>
     </g>
    </g>
    <g id="text_10">
     <!-- 行程 s (mm) -->
     <g transform="translate(417.173125 479.042402) scale(0.12 -0.12)">
      <defs>
       <path id="SimHei-884c" d="M 5300 3100 
Q 5775 3100 6175 3125 
L 6175 2625 
Q 5775 2650 5325 2650 
L 4975 2650 
L 4975 -75 
Q 5000 -375 4787 -487 
Q 4575 -600 3950 -675 
Q 3900 -375 3675 -75 
Q 4100 -125 4275 -112 
Q 4450 -100 4475 150 
L 4475 2650 
L 3475 2650 
Q 3000 2650 2575 2625 
L 2575 3125 
Q 3025 3100 3475 3100 
L 5300 3100 
z
M 2300 3400 
Q 2075 3275 1962 3075 
Q 1850 2875 1650 2575 
L 1650 325 
Q 1650 0 1675 -675 
L 1150 -675 
Q 1175 75 1175 450 
L 1175 2050 
Q 950 1675 575 1300 
Q 400 1550 250 1725 
Q 825 2275 1150 2775 
Q 1475 3275 1725 3725 
Q 1975 3575 2300 3400 
z
M 4875 4800 
Q 5300 4800 5750 4825 
L 5750 4350 
Q 5300 4375 4825 4375 
L 3900 4375 
Q 3350 4375 2950 4350 
L 2950 4825 
Q 3350 4800 3900 4800 
L 4875 4800 
z
M 2075 4925 
Q 1875 4900 1550 4387 
Q 1225 3875 650 3250 
Q 500 3450 325 3625 
Q 725 4025 1050 4487 
Q 1375 4950 1525 5300 
Q 1775 5150 2075 4925 
z
" transform="scale(0.015625)"/>
       <path id="SimHei-7a0b" d="M 5825 4975 
Q 5800 4425 5800 3975 
Q 5800 3550 5825 3125 
L 3025 3125 
Q 3050 3600 3050 4025 
Q 3050 4450 3025 4975 
L 5825 4975 
z
M 400 4825 
Q 825 4875 1362 4987 
Q 1900 5100 2275 5275 
Q 2450 4950 2625 4725 
Q 2450 4750 2262 4712 
Q 2075 4675 1850 4650 
L 1850 3425 
Q 2200 3425 2600 3450 
L 2600 2975 
Q 2200 3000 1850 3000 
L 1850 800 
Q 1850 250 1875 -675 
L 1375 -675 
Q 1400 250 1400 775 
L 1400 1925 
Q 1050 1225 625 600 
Q 450 850 225 1050 
Q 575 1400 850 1850 
Q 1125 2300 1350 3000 
Q 725 3000 425 2975 
L 425 3450 
Q 850 3425 1050 3425 
L 1400 3425 
L 1400 4550 
Q 1075 4475 575 4400 
Q 500 4625 400 4825 
z
M 5100 2500 
Q 5500 2500 5950 2525 
L 5950 2075 
Q 5500 2100 5100 2100 
L 4625 2100 
L 4625 1300 
L 4900 1300 
Q 5275 1300 5775 1325 
L 5775 850 
Q 5275 875 4975 875 
L 4625 875 
L 4625 0 
L 5225 0 
Q 5675 0 6175 25 
L 6175 -450 
Q 5775 -425 5225 -425 
L 3550 -425 
Q 3000 -425 2600 -475 
L 2600 25 
Q 3000 0 3550 0 
L 4150 0 
L 4150 875 
L 3800 875 
Q 3400 875 3050 825 
L 3050 1325 
Q 3400 1300 3800 1300 
L 4150 1300 
L 4150 2100 
L 3750 2100 
Q 3300 2100 2900 2075 
L 2900 2525 
Q 3300 2500 3750 2500 
L 5100 2500 
z
M 5275 3575 
L 5275 4550 
L 3500 4550 
L 3500 3575 
L 5275 3575 
z
M 2300 2400 
Q 2550 2025 2825 1525 
Q 2675 1425 2425 1225 
Q 2175 1775 1925 2125 
Q 2075 2250 2300 2400 
z
" transform="scale(0.015625)"/>
       <path id="SimHei-20" transform="scale(0.015625)"/>
       <path id="SimHei-73" d="M 2750 900 
Q 2750 500 2437 287 
Q 2125 75 1650 75 
Q 1050 75 725 312 
Q 400 550 400 1000 
L 900 1000 
Q 900 700 1112 600 
Q 1325 500 1625 500 
Q 1925 500 2075 612 
Q 2225 725 2225 900 
Q 2225 1025 2100 1150 
Q 1975 1275 1475 1350 
Q 900 1425 687 1637 
Q 475 1850 475 2200 
Q 475 2500 762 2737 
Q 1050 2975 1600 2975 
Q 2100 2975 2387 2750 
Q 2675 2525 2675 2150 
L 2175 2150 
Q 2175 2375 2012 2462 
Q 1850 2550 1600 2550 
Q 1275 2550 1137 2437 
Q 1000 2325 1000 2175 
Q 1000 2000 1125 1900 
Q 1250 1800 1650 1750 
Q 2300 1650 2525 1437 
Q 2750 1225 2750 900 
z
" transform="scale(0.015625)"/>
       <path id="SimHei-28" d="M 2975 -200 
L 2700 -475 
Q 2075 125 1762 775 
Q 1450 1425 1450 2250 
Q 1450 3075 1762 3725 
Q 2075 4375 2700 5000 
L 2975 4725 
Q 2400 4175 2112 3587 
Q 1825 3000 1825 2250 
Q 1825 1500 2112 912 
Q 2400 325 2975 -200 
z
" transform="scale(0.015625)"/>
       <path id="SimHei-6d" d="M 3050 125 
L 2550 125 
L 2550 2150 
Q 2550 2300 2500 2400 
Q 2450 2500 2300 2500 
Q 2125 2500 1975 2312 
Q 1825 2125 1825 1825 
L 1825 125 
L 1325 125 
L 1325 2150 
Q 1325 2300 1275 2400 
Q 1225 2500 1075 2500 
Q 900 2500 750 2312 
Q 600 2125 600 1825 
L 600 125 
L 100 125 
L 100 2925 
L 600 2925 
L 600 2550 
Q 725 2750 900 2862 
Q 1075 2975 1275 2975 
Q 1475 2975 1612 2862 
Q 1750 2750 1800 2550 
Q 1925 2750 2087 2862 
Q 2250 2975 2450 2975 
Q 2750 2975 2900 2812 
Q 3050 2650 3050 2350 
L 3050 125 
z
" transform="scale(0.015625)"/>
       <path id="SimHei-29" d="M 1675 2250 
Q 1675 1425 1362 775 
Q 1050 125 425 -475 
L 150 -200 
Q 725 325 1012 912 
Q 1300 1500 1300 2250 
Q 1300 3000 1012 3587 
Q 725 4175 150 4725 
L 425 5000 
Q 1050 4375 1362 3725 
Q 1675 3075 1675 2250 
z
" transform="scale(0.015625)"/>
      </defs>
      <use xlink:href="#SimHei-884c"/>
      <use xlink:href="#SimHei-7a0b" x="100"/>
      <use xlink:href="#SimHei-20" x="200"/>
      <use xlink:href="#SimHei-73" x="250"/>
      <use xlink:href="#SimHei-20" x="300"/>
      <use xlink:href="#SimHei-28" x="350"/>
      <use xlink:href="#SimHei-6d" x="400"/>
      <use xlink:href="#SimHei-6d" x="450"/>
      <use xlink:href="#SimHei-29" x="500"/>
     </g>
    </g>
   </g>
   <g id="matplotlib.axis_2">
    <g id="ytick_1">
     <g id="line2d_19">
      <path d="M 59.121875 432.971662 
L 841.224375 432.971662 
" clip-path="url(#p46ec1e1d97)" style="fill: none; stroke-dasharray: 2.96,1.28; stroke-dashoffset: 0; stroke: #b0b0b0; stroke-opacity: 0.7; stroke-width: 0.8"/>
     </g>
     <g id="line2d_20">
      <defs>
       <path id="mabed0310b9" d="M 0 0 
L -3.5 0 
" style="stroke: #000000; stroke-width: 0.8"/>
      </defs>
      <g>
       <use xlink:href="#mabed0310b9" x="59.121875" y="432.971662" style="stroke: #000000; stroke-width: 0.8"/>
      </g>
     </g>
     <g id="text_11">
      <!-- 0 -->
      <g transform="translate(47.121875 436.409162) scale(0.1 -0.1)">
       <use xlink:href="#SimHei-30"/>
      </g>
     </g>
    </g>
    <g id="ytick_2">
     <g id="line2d_21">
      <path d="M 59.121875 378.087078 
L 841.224375 378.087078 
" clip-path="url(#p46ec1e1d97)" style="fill: none; stroke-dasharray: 2.96,1.28; stroke-dashoffset: 0; stroke: #b0b0b0; stroke-opacity: 0.7; stroke-width: 0.8"/>
     </g>
     <g id="line2d_22">
      <g>
       <use xlink:href="#mabed0310b9" x="59.121875" y="378.087078" style="stroke: #000000; stroke-width: 0.8"/>
      </g>
     </g>
     <g id="text_12">
      <!-- 20000 -->
      <g transform="translate(27.121875 381.524578) scale(0.1 -0.1)">
       <use xlink:href="#SimHei-32"/>
       <use xlink:href="#SimHei-30" x="50"/>
       <use xlink:href="#SimHei-30" x="100"/>
       <use xlink:href="#SimHei-30" x="150"/>
       <use xlink:href="#SimHei-30" x="200"/>
      </g>
     </g>
    </g>
    <g id="ytick_3">
     <g id="line2d_23">
      <path d="M 59.121875 323.202494 
L 841.224375 323.202494 
" clip-path="url(#p46ec1e1d97)" style="fill: none; stroke-dasharray: 2.96,1.28; stroke-dashoffset: 0; stroke: #b0b0b0; stroke-opacity: 0.7; stroke-width: 0.8"/>
     </g>
     <g id="line2d_24">
      <g>
       <use xlink:href="#mabed0310b9" x="59.121875" y="323.202494" style="stroke: #000000; stroke-width: 0.8"/>
      </g>
     </g>
     <g id="text_13">
      <!-- 40000 -->
      <g transform="translate(27.121875 326.639994) scale(0.1 -0.1)">
       <use xlink:href="#SimHei-34"/>
       <use xlink:href="#SimHei-30" x="50"/>
       <use xlink:href="#SimHei-30" x="100"/>
       <use xlink:href="#SimHei-30" x="150"/>
       <use xlink:href="#SimHei-30" x="200"/>
      </g>
     </g>
    </g>
    <g id="ytick_4">
     <g id="line2d_25">
      <path d="M 59.121875 268.31791 
L 841.224375 268.31791 
" clip-path="url(#p46ec1e1d97)" style="fill: none; stroke-dasharray: 2.96,1.28; stroke-dashoffset: 0; stroke: #b0b0b0; stroke-opacity: 0.7; stroke-width: 0.8"/>
     </g>
     <g id="line2d_26">
      <g>
       <use xlink:href="#mabed0310b9" x="59.121875" y="268.31791" style="stroke: #000000; stroke-width: 0.8"/>
      </g>
     </g>
     <g id="text_14">
      <!-- 60000 -->
      <g transform="translate(27.121875 271.75541) scale(0.1 -0.1)">
       <defs>
        <path id="SimHei-36" d="M 250 1612 
Q 275 1975 387 2225 
Q 500 2475 725 2850 
L 1750 4450 
L 2325 4450 
L 1275 2800 
Q 1950 2975 2350 2750 
Q 2750 2525 2887 2237 
Q 3025 1950 3037 1612 
Q 3050 1275 2937 950 
Q 2825 625 2537 362 
Q 2250 100 1737 75 
Q 1225 50 862 262 
Q 500 475 362 862 
Q 225 1250 250 1612 
z
M 1025 787 
Q 1250 550 1625 525 
Q 2000 500 2250 775 
Q 2500 1050 2500 1575 
Q 2500 2100 2187 2300 
Q 1875 2500 1487 2450 
Q 1100 2400 925 2075 
Q 750 1750 775 1387 
Q 800 1025 1025 787 
z
" transform="scale(0.015625)"/>
       </defs>
       <use xlink:href="#SimHei-36"/>
       <use xlink:href="#SimHei-30" x="50"/>
       <use xlink:href="#SimHei-30" x="100"/>
       <use xlink:href="#SimHei-30" x="150"/>
       <use xlink:href="#SimHei-30" x="200"/>
      </g>
     </g>
    </g>
    <g id="ytick_5">
     <g id="line2d_27">
      <path d="M 59.121875 213.433326 
L 841.224375 213.433326 
" clip-path="url(#p46ec1e1d97)" style="fill: none; stroke-dasharray: 2.96,1.28; stroke-dashoffset: 0; stroke: #b0b0b0; stroke-opacity: 0.7; stroke-width: 0.8"/>
     </g>
     <g id="line2d_28">
      <g>
       <use xlink:href="#mabed0310b9" x="59.121875" y="213.433326" style="stroke: #000000; stroke-width: 0.8"/>
      </g>
     </g>
     <g id="text_15">
      <!-- 80000 -->
      <g transform="translate(27.121875 216.870826) scale(0.1 -0.1)">
       <defs>
        <path id="SimHei-38" d="M 175 1375 
Q 175 1675 325 1962 
Q 475 2250 825 2425 
Q 525 2600 425 2812 
Q 325 3025 312 3300 
Q 300 3575 387 3775 
Q 475 3975 650 4150 
Q 825 4325 1037 4387 
Q 1250 4450 1500 4450 
Q 1750 4450 1950 4400 
Q 2150 4350 2375 4187 
Q 2600 4025 2700 3725 
Q 2800 3425 2687 3025 
Q 2575 2625 2100 2400 
Q 2525 2275 2700 2012 
Q 2875 1750 2875 1375 
Q 2875 1000 2762 775 
Q 2650 550 2512 400 
Q 2375 250 2137 162 
Q 1900 75 1537 75 
Q 1175 75 912 162 
Q 650 250 475 425 
Q 300 600 237 837 
Q 175 1075 175 1375 
z
M 687 1400 
Q 675 1100 787 875 
Q 900 650 1200 587 
Q 1500 525 1825 600 
Q 2150 675 2275 950 
Q 2400 1225 2362 1500 
Q 2325 1775 2050 1962 
Q 1775 2150 1450 2125 
Q 1125 2100 912 1900 
Q 700 1700 687 1400 
z
M 775 3350 
Q 775 3100 950 2875 
Q 1125 2650 1500 2650 
Q 1875 2650 2062 2875 
Q 2250 3100 2237 3412 
Q 2225 3725 2012 3875 
Q 1800 4025 1437 4000 
Q 1075 3975 925 3787 
Q 775 3600 775 3350 
z
" transform="scale(0.015625)"/>
       </defs>
       <use xlink:href="#SimHei-38"/>
       <use xlink:href="#SimHei-30" x="50"/>
       <use xlink:href="#SimHei-30" x="100"/>
       <use xlink:href="#SimHei-30" x="150"/>
       <use xlink:href="#SimHei-30" x="200"/>
      </g>
     </g>
    </g>
    <g id="ytick_6">
     <g id="line2d_29">
      <path d="M 59.121875 158.548742 
L 841.224375 158.548742 
" clip-path="url(#p46ec1e1d97)" style="fill: none; stroke-dasharray: 2.96,1.28; stroke-dashoffset: 0; stroke: #b0b0b0; stroke-opacity: 0.7; stroke-width: 0.8"/>
     </g>
     <g id="line2d_30">
      <g>
       <use xlink:href="#mabed0310b9" x="59.121875" y="158.548742" style="stroke: #000000; stroke-width: 0.8"/>
      </g>
     </g>
     <g id="text_16">
      <!-- 100000 -->
      <g transform="translate(22.121875 161.986242) scale(0.1 -0.1)">
       <use xlink:href="#SimHei-31"/>
       <use xlink:href="#SimHei-30" x="50"/>
       <use xlink:href="#SimHei-30" x="100"/>
       <use xlink:href="#SimHei-30" x="150"/>
       <use xlink:href="#SimHei-30" x="200"/>
       <use xlink:href="#SimHei-30" x="250"/>
      </g>
     </g>
    </g>
    <g id="ytick_7">
     <g id="line2d_31">
      <path d="M 59.121875 103.664158 
L 841.224375 103.664158 
" clip-path="url(#p46ec1e1d97)" style="fill: none; stroke-dasharray: 2.96,1.28; stroke-dashoffset: 0; stroke: #b0b0b0; stroke-opacity: 0.7; stroke-width: 0.8"/>
     </g>
     <g id="line2d_32">
      <g>
       <use xlink:href="#mabed0310b9" x="59.121875" y="103.664158" style="stroke: #000000; stroke-width: 0.8"/>
      </g>
     </g>
     <g id="text_17">
      <!-- 120000 -->
      <g transform="translate(22.121875 107.101658) scale(0.1 -0.1)">
       <use xlink:href="#SimHei-31"/>
       <use xlink:href="#SimHei-32" x="50"/>
       <use xlink:href="#SimHei-30" x="100"/>
       <use xlink:href="#SimHei-30" x="150"/>
       <use xlink:href="#SimHei-30" x="200"/>
       <use xlink:href="#SimHei-30" x="250"/>
      </g>
     </g>
    </g>
    <g id="text_18">
     <!-- 功率 P (W) -->
     <g transform="translate(16.621875 290.545507) rotate(-90) scale(0.12 -0.12)">
      <defs>
       <path id="SimHei-529f" d="M 5675 275 
Q 5575 -200 5225 -312 
Q 4875 -425 4450 -475 
Q 4400 -175 4200 100 
Q 4725 75 4937 137 
Q 5150 200 5175 425 
Q 5300 1775 5375 3275 
L 4250 3275 
Q 4225 2550 4125 1925 
Q 4025 1300 3787 850 
Q 3550 400 3250 50 
Q 2950 -300 2550 -650 
Q 2375 -400 2100 -250 
Q 2650 100 2925 425 
Q 3200 750 3400 1162 
Q 3600 1575 3675 2075 
Q 3750 2575 3775 3275 
L 3400 3275 
Q 3100 3275 2800 3250 
L 2800 3725 
Q 3125 3700 3450 3700 
L 3775 3700 
L 3775 4575 
Q 3775 4875 3750 5175 
Q 4075 5100 4325 5075 
Q 4275 4900 4262 4525 
Q 4250 4150 4250 3700 
L 5900 3700 
Q 5875 3350 5850 3037 
Q 5825 2725 5675 275 
z
M 2900 1000 
Q 2475 900 2200 837 
Q 1925 775 1337 600 
Q 750 425 500 350 
Q 400 700 300 900 
Q 450 900 1375 1100 
L 1375 3900 
L 1175 3900 
Q 875 3900 450 3875 
L 450 4350 
Q 850 4325 1175 4325 
L 2100 4325 
Q 2450 4325 2725 4350 
L 2725 3875 
Q 2425 3900 2125 3900 
L 1875 3900 
L 1875 1200 
L 2375 1325 
Q 2575 1375 2850 1450 
L 2900 1000 
z
" transform="scale(0.015625)"/>
       <path id="SimHei-7387" d="M 3325 5150 
Q 3425 4900 3550 4525 
L 4800 4525 
Q 5250 4525 5800 4550 
L 5800 4125 
Q 5250 4175 4775 4175 
L 2800 4175 
Q 2975 4050 3300 3900 
Q 3075 3750 2875 3537 
Q 2675 3325 2475 3125 
L 3275 3125 
Q 3575 3425 3775 3775 
Q 4000 3600 4275 3425 
Q 3950 3250 3600 2875 
Q 3250 2500 2625 2000 
L 3850 2100 
Q 3725 2250 3600 2425 
Q 3750 2475 4000 2650 
Q 4250 2350 4700 1700 
Q 4475 1625 4225 1450 
Q 4175 1600 4025 1775 
Q 3700 1750 3425 1750 
L 3425 1050 
L 5150 1050 
Q 5675 1050 6100 1075 
L 6100 650 
Q 5700 675 5125 675 
L 3425 675 
L 3425 175 
Q 3425 -300 3450 -625 
L 2900 -625 
Q 2925 -300 2925 175 
L 2925 675 
L 1325 675 
Q 825 675 325 650 
L 325 1075 
Q 825 1050 1350 1050 
L 2925 1050 
L 2925 1700 
Q 2700 1675 2475 1637 
Q 2250 1600 2025 1525 
Q 1950 1775 1850 2000 
Q 2075 2025 2325 2200 
Q 2575 2375 2975 2800 
Q 2300 2725 2025 2625 
Q 1975 2875 1850 3175 
Q 2075 3175 2325 3487 
Q 2575 3800 2750 4175 
L 1700 4175 
Q 1150 4175 650 4125 
L 650 4550 
Q 1150 4525 1550 4525 
L 2975 4525 
Q 2900 4825 2800 5025 
Q 3025 5075 3325 5150 
z
M 1625 2575 
Q 1725 2400 1825 2200 
Q 1575 2050 1325 1862 
Q 1075 1675 800 1425 
Q 625 1675 475 1875 
Q 800 2025 1100 2212 
Q 1400 2400 1625 2575 
z
M 4850 2650 
Q 5125 2475 5337 2337 
Q 5550 2200 5875 1950 
Q 5675 1800 5500 1600 
Q 5300 1775 5062 1975 
Q 4825 2175 4575 2325 
Q 4725 2475 4850 2650 
z
M 5725 3525 
Q 5550 3450 5300 3262 
Q 5050 3075 4800 2825 
Q 4625 3050 4475 3175 
Q 4700 3325 4875 3487 
Q 5050 3650 5300 3925 
Q 5525 3700 5725 3525 
z
M 1050 3850 
Q 1425 3600 1775 3275 
Q 1575 3100 1425 2925 
Q 1075 3300 675 3525 
Q 875 3700 1050 3850 
z
" transform="scale(0.015625)"/>
       <path id="SimHei-50" d="M 2950 3100 
Q 2950 2500 2600 2150 
Q 2250 1800 1625 1800 
L 900 1800 
L 900 125 
L 325 125 
L 325 4400 
L 1625 4400 
Q 2250 4400 2600 4050 
Q 2950 3700 2950 3100 
z
M 2375 3100 
Q 2375 3575 2150 3750 
Q 1925 3925 1475 3925 
L 900 3925 
L 900 2275 
L 1475 2275 
Q 1925 2275 2150 2450 
Q 2375 2625 2375 3100 
z
" transform="scale(0.015625)"/>
       <path id="SimHei-57" d="M 3075 4400 
L 2525 75 
L 2025 75 
L 1575 3275 
L 1525 3275 
L 1075 75 
L 575 75 
L 25 4400 
L 575 4400 
L 850 1675 
L 900 1675 
L 1275 4400 
L 1825 4400 
L 2200 1675 
L 2250 1675 
L 2525 4400 
L 3075 4400 
z
" transform="scale(0.015625)"/>
      </defs>
      <use xlink:href="#SimHei-529f"/>
      <use xlink:href="#SimHei-7387" x="100"/>
      <use xlink:href="#SimHei-20" x="200"/>
      <use xlink:href="#SimHei-50" x="250"/>
      <use xlink:href="#SimHei-20" x="300"/>
      <use xlink:href="#SimHei-28" x="350"/>
      <use xlink:href="#SimHei-57" x="400"/>
      <use xlink:href="#SimHei-29" x="450"/>
     </g>
    </g>
   </g>
   <g id="line2d_33">
    <path d="M 94.671989 432.971662 
L 105.590092 432.971662 
L 105.590092 88.119352 
L 105.726742 88.119352 
L 107.497163 88.119352 
L 107.497163 432.971662 
L 107.641841 88.119352 
L 109.412262 88.119352 
L 109.412262 432.971662 
L 109.55694 88.119352 
L 111.327361 88.119352 
L 111.327361 432.971662 
L 111.955238 432.971662 
L 113.50064 432.971662 
L 113.50064 88.119352 
L 114.484529 125.301328 
L 114.501674 125.301328 
L 114.587352 432.971662 
L 114.750318 88.119352 
L 115.286304 432.971662 
L 116.336474 432.971662 
L 116.408866 88.119352 
L 117.313313 333.645575 
L 117.352665 333.645575 
L 117.510114 432.971662 
L 118.1031 432.971662 
L 119.03721 432.971662 
L 119.03721 88.119352 
L 119.778396 88.119352 
L 120.136881 88.119352 
L 120.136881 432.971662 
L 121.064531 432.971662 
L 121.288588 432.971662 
L 121.334137 88.119352 
L 122.133456 88.119352 
L 122.491943 88.119352 
L 122.491943 432.971662 
L 123.416974 355.517488 
L 123.77546 355.517488 
L 123.77546 432.971662 
L 124.725979 432.971662 
L 126.139585 432.971662 
L 126.381495 91.354066 
L 127.12648 153.186085 
L 127.152164 153.186085 
L 127.596777 432.971662 
L 127.306301 88.119352 
L 128.133079 405.594699 
L 128.180676 404.936807 
L 128.728034 386.342457 
L 128.228269 429.614068 
L 129.160784 424.843476 
L 129.210588 425.675087 
L 129.210588 432.971662 
L 130.177958 339.938268 
L 130.198925 380.200033 
L 131.535773 380.200033 
L 131.535773 432.971662 
L 131.568703 339.938268 
L 131.589669 380.200033 
L 132.926518 380.200033 
L 132.926518 432.971662 
L 132.959447 339.938268 
L 132.980414 380.200033 
L 134.317263 380.200033 
L 134.317263 432.971662 
L 134.353189 339.739978 
L 135.239225 432.971662 
L 138.813446 432.971662 
L 138.813446 88.12349 
L 138.950096 88.12349 
L 140.720517 88.12349 
L 140.720517 432.971662 
L 140.865196 88.12349 
L 142.635617 88.12349 
L 142.635617 432.971662 
L 142.780295 88.12349 
L 144.550716 88.12349 
L 144.550716 432.971662 
L 145.192142 432.971662 
L 146.751093 432.971662 
L 146.751093 88.12349 
L 147.734982 125.30502 
L 147.752127 125.30502 
L 147.837805 432.971662 
L 148.000771 88.12349 
L 148.536757 432.971662 
L 149.586927 432.971662 
L 149.840293 88.121651 
L 150.563766 333.646767 
L 150.603118 333.646767 
L 150.760567 432.971662 
L 151.353552 432.971662 
L 152.287663 432.971662 
L 152.395184 88.121651 
L 153.028849 88.12349 
L 153.387334 88.12349 
L 153.387334 432.971662 
L 153.419398 88.121651 
L 154.314984 432.971662 
L 154.539041 432.971662 
L 154.675703 88.121651 
L 155.383909 88.121651 
L 155.742396 88.121651 
L 155.742396 432.971662 
L 156.667427 355.518004 
L 157.025913 355.518004 
L 157.025913 432.971662 
L 157.976432 432.971662 
L 159.390038 432.971662 
L 159.631948 91.358166 
L 160.376933 153.189443 
L 160.402617 153.189443 
L 160.84723 432.971662 
L 160.924089 88.121651 
L 161.383532 405.595027 
L 161.431129 404.937143 
L 161.978487 386.343016 
L 161.478722 429.614108 
L 162.411237 424.843573 
L 162.461041 425.675136 
L 162.461041 432.971662 
L 163.428411 339.939384 
L 163.449378 380.200667 
L 164.786226 380.200667 
L 164.786226 432.971662 
L 164.819156 339.939384 
L 164.840122 380.200667 
L 166.176971 380.200667 
L 166.176971 432.971662 
L 166.2099 339.939384 
L 166.230867 380.200667 
L 167.567716 380.200667 
L 167.567716 432.971662 
L 167.603642 339.741096 
L 168.489678 432.971662 
L 172.090998 432.971662 
L 172.099051 88.119811 
L 172.227648 88.119811 
L 173.998068 88.119811 
L 174.006097 432.971662 
L 174.142747 88.119811 
L 175.913168 88.119811 
L 175.921196 432.971662 
L 176.057846 88.119811 
L 177.828267 88.119811 
L 177.836295 432.971662 
L 178.483242 432.971662 
L 180.055743 432.971662 
L 180.077536 88.119811 
L 181.039631 125.303379 
L 181.056777 125.303379 
L 181.142455 432.971662 
L 181.305421 88.119811 
L 181.841407 432.971662 
L 182.891577 432.971662 
L 182.963969 88.119811 
L 183.868416 333.645708 
L 183.907767 333.645708 
L 184.065217 432.971662 
L 184.658202 432.971662 
L 185.592313 432.971662 
L 185.619191 88.119811 
L 186.333498 88.119811 
L 186.691983 88.119811 
L 186.724048 432.971662 
L 187.619633 432.971662 
L 187.843691 432.971662 
L 187.88924 88.119811 
L 188.688559 88.119811 
L 189.047046 88.119811 
L 189.081202 432.971662 
L 189.972076 355.517591 
L 190.330563 355.517591 
L 190.330563 432.971662 
L 191.281081 432.971662 
L 192.694687 432.971662 
L 192.936598 91.354522 
L 193.681583 153.186459 
L 193.707267 153.186459 
L 194.151879 432.971662 
L 193.861403 88.119811 
L 194.688181 405.594881 
L 194.735778 404.936844 
L 195.283136 386.342519 
L 194.783371 429.614072 
L 195.715886 424.843486 
L 195.76569 425.675097 
L 195.76569 432.971662 
L 196.73306 339.938392 
L 196.754027 380.200104 
L 198.090876 380.200104 
L 198.090876 432.971662 
L 198.123805 339.938392 
L 198.144772 380.200104 
L 199.48162 380.200104 
L 199.48162 432.971662 
L 199.51455 339.938392 
L 199.535517 380.200104 
L 200.872365 380.200104 
L 200.872365 432.971662 
L 200.908292 339.740102 
L 201.794328 432.971662 
L 205.422745 432.971662 
L 205.422745 88.12349 
L 205.559395 88.12349 
L 207.329816 88.12349 
L 207.329816 432.971662 
L 207.474495 88.12349 
L 209.244916 88.12349 
L 209.244916 432.971662 
L 209.389594 88.12349 
L 211.160015 88.12349 
L 211.160015 432.971662 
L 211.828539 432.971662 
L 213.414589 432.971662 
L 213.538912 88.121651 
L 214.398478 125.30502 
L 214.415623 125.30502 
L 214.501301 432.971662 
L 214.664267 88.12349 
L 215.200253 432.971662 
L 216.250423 432.971662 
L 216.322815 88.12349 
L 217.227262 333.646767 
L 217.266613 333.646767 
L 217.424063 432.971662 
L 218.017048 432.971662 
L 218.951159 432.971662 
L 218.951159 88.121651 
L 219.692345 88.121651 
L 220.050829 88.121651 
L 220.050829 432.971662 
L 220.978479 432.971662 
L 221.202537 432.971662 
L 222.020352 88.119811 
L 222.047405 88.119811 
L 222.405892 88.119811 
L 222.440048 432.971662 
L 223.330922 355.518004 
L 223.689409 355.518004 
L 223.689409 432.971662 
L 224.639927 432.971662 
L 226.053533 432.971662 
L 226.295444 91.358166 
L 227.040429 153.189443 
L 227.066113 153.189443 
L 227.510725 432.971662 
L 227.587584 88.121651 
L 228.047027 405.595027 
L 228.094624 404.937143 
L 228.641982 386.343016 
L 228.142218 429.614108 
L 229.074732 424.843573 
L 229.124536 425.675136 
L 229.124536 432.971662 
L 230.091906 339.939384 
L 230.112873 380.200667 
L 231.449722 380.200667 
L 231.449722 432.971662 
L 231.482651 339.939384 
L 231.503618 380.200667 
L 232.840466 380.200667 
L 232.840466 432.971662 
L 232.873396 339.939384 
L 232.894363 380.200667 
L 234.231211 380.200667 
L 234.231211 432.971662 
L 234.267138 339.741096 
L 235.153174 432.971662 
L 238.80056 432.971662 
L 238.80056 295.032117 
L 238.93721 295.032117 
L 240.707631 295.032117 
L 240.707631 432.971662 
L 240.852309 295.032117 
L 242.62273 295.032117 
L 242.62273 432.971662 
L 242.767409 295.032117 
L 244.53783 295.032117 
L 244.53783 432.971662 
L 245.211774 432.971662 
L 246.750104 432.971662 
L 246.750104 295.032117 
L 247.733993 309.9064 
L 247.751138 309.9064 
L 247.836816 432.971662 
L 247.999782 295.032117 
L 248.535768 432.971662 
L 249.585938 432.971662 
L 249.65833 295.032117 
L 250.562777 393.241624 
L 250.602128 393.241624 
L 250.759578 432.971662 
L 251.352563 432.971662 
L 252.286674 432.971662 
L 252.474831 295.030278 
L 253.02786 295.030278 
L 253.386344 295.030278 
L 253.386344 432.971662 
L 254.313994 432.971662 
L 254.538052 432.971662 
L 254.674714 295.030278 
L 255.38292 295.030278 
L 255.741407 295.030278 
L 255.741407 432.971662 
L 256.666437 401.990302 
L 257.024924 401.990302 
L 257.024924 432.971662 
L 257.975442 432.971662 
L 259.389048 432.971662 
L 259.630959 296.32599 
L 260.375944 321.05855 
L 260.401628 321.05855 
L 260.84624 432.971662 
L 260.555765 295.030278 
L 261.382542 422.021132 
L 261.43014 421.757832 
L 261.977497 414.320166 
L 261.477733 431.628637 
L 262.410247 429.72042 
L 262.460051 430.053061 
L 262.460051 432.971662 
L 263.427421 395.758676 
L 263.448388 411.863222 
L 264.785237 411.863222 
L 264.785237 432.971662 
L 264.818166 395.758676 
L 264.839133 411.863222 
L 266.175981 411.863222 
L 266.175981 432.971662 
L 266.208911 395.758676 
L 266.229878 411.863222 
L 267.566726 411.863222 
L 267.566726 432.971662 
L 267.602653 395.679361 
L 268.488689 432.971662 
L 272.146915 432.971662 
L 272.146915 295.030278 
L 272.283565 295.030278 
L 274.053985 295.030278 
L 274.053985 432.971662 
L 274.198664 295.030278 
L 275.969085 295.030278 
L 275.969085 432.971662 
L 276.113763 295.030278 
L 277.884184 295.030278 
L 277.884184 432.971662 
L 278.563548 432.971662 
L 280.107298 432.971662 
L 280.107298 295.030278 
L 281.091186 309.903118 
L 281.108332 309.903118 
L 281.19401 432.971662 
L 281.356976 295.032117 
L 281.892962 432.971662 
L 282.943132 432.971662 
L 283.015523 295.030278 
L 283.919971 393.241095 
L 283.959322 393.241095 
L 284.116771 432.971662 
L 284.709757 432.971662 
L 285.643868 432.971662 
L 285.643868 295.030278 
L 286.385053 295.030278 
L 286.743538 295.030278 
L 286.743538 432.971662 
L 287.671188 432.971662 
L 287.895246 432.971662 
L 287.940795 295.030278 
L 288.740114 295.030278 
L 289.0986 295.030278 
L 289.0986 432.971662 
L 290.023631 401.989889 
L 290.382118 401.989889 
L 290.382118 432.971662 
L 291.332636 432.971662 
L 292.746242 432.971662 
L 292.988153 296.324168 
L 293.733137 321.057058 
L 293.758822 321.057058 
L 294.203434 432.971662 
L 293.912958 295.030278 
L 294.739736 422.020986 
L 294.787333 421.757682 
L 295.334691 414.319918 
L 294.834926 431.62862 
L 295.767441 429.72042 
L 295.817245 430.053022 
L 295.817245 432.971662 
L 296.784615 395.75818 
L 296.805582 411.86294 
L 298.14243 411.86294 
L 298.14243 432.971662 
L 298.17536 395.75818 
L 298.196327 411.86294 
L 299.533175 411.86294 
L 299.533175 432.971662 
L 299.566105 395.75818 
L 299.587071 411.86294 
L 300.92392 411.86294 
L 300.92392 432.971662 
L 300.959846 395.679361 
L 301.845882 432.971662 
L 305.51829 432.971662 
L 305.51829 209.968195 
L 305.65494 209.968195 
L 307.425361 209.968195 
L 307.425361 432.971662 
L 307.570039 209.968195 
L 309.34046 209.968195 
L 309.34046 432.971662 
L 309.485138 209.968195 
L 311.255559 209.968195 
L 311.255559 432.971662 
L 311.943684 432.971662 
L 313.518317 432.971662 
L 313.518317 209.968195 
L 314.502205 234.012429 
L 314.51935 234.012429 
L 314.605028 432.971662 
L 314.767994 209.968195 
L 315.30398 432.971662 
L 316.35415 432.971662 
L 316.426542 209.968195 
L 317.330989 368.741088 
L 317.370341 368.741088 
L 317.52779 432.971662 
L 318.120776 432.971662 
L 319.054887 432.971662 
L 319.054887 209.968195 
L 319.796072 209.968195 
L 320.154557 209.968195 
L 320.154557 432.971662 
L 321.082207 432.971662 
L 321.306265 432.971662 
L 322.12408 209.966815 
L 322.151132 209.966815 
L 322.509619 209.966815 
L 322.509619 432.971662 
L 323.43465 382.88486 
L 323.793137 382.88486 
L 323.793137 432.971662 
L 324.743655 432.971662 
L 326.157261 432.971662 
L 326.399171 212.059967 
L 327.144156 252.044489 
L 327.16984 252.044489 
L 327.614453 432.971662 
L 327.716929 209.966815 
L 328.150755 415.267974 
L 328.198352 414.842539 
L 328.74571 402.818248 
L 328.245945 430.800427 
L 329.17846 427.715459 
L 329.228264 428.253203 
L 329.228264 432.971662 
L 330.195634 372.810344 
L 330.216601 398.846166 
L 331.553449 398.846166 
L 331.553449 432.971662 
L 331.586379 372.810344 
L 331.607345 398.846166 
L 332.944194 398.846166 
L 332.944194 432.971662 
L 332.977123 372.810344 
L 332.99809 398.846166 
L 334.334939 398.846166 
L 334.334939 432.971662 
L 334.370865 372.682117 
L 335.256901 432.971662 
L 338.946814 432.971662 
L 338.946814 210.429834 
L 339.083464 210.429834 
L 340.853885 210.429834 
L 340.853885 432.971662 
L 340.998563 210.429834 
L 342.768984 210.429834 
L 342.768984 432.971662 
L 342.913663 210.429834 
L 344.684083 210.429834 
L 344.684083 432.971662 
L 345.380952 432.971662 
L 346.964342 432.971662 
L 347.088665 210.427995 
L 347.94823 234.424294 
L 347.965376 234.424294 
L 348.051054 432.971662 
L 348.21402 210.429834 
L 348.750006 432.971662 
L 349.800176 432.971662 
L 349.872567 210.429834 
L 350.777015 368.874052 
L 350.816366 368.874052 
L 350.973815 432.971662 
L 351.566801 432.971662 
L 352.500912 432.971662 
L 352.715949 210.427995 
L 353.242097 210.427995 
L 353.600582 210.427995 
L 353.600582 432.971662 
L 354.528232 432.971662 
L 354.75229 432.971662 
L 355.570105 210.426156 
L 355.597157 210.427995 
L 355.955644 210.427995 
L 355.955644 432.971662 
L 356.880675 382.988132 
L 357.239162 382.988132 
L 357.239162 432.971662 
L 358.18968 432.971662 
L 359.603286 432.971662 
L 359.845197 212.517276 
L 360.590181 252.419026 
L 360.615866 252.419026 
L 361.060478 432.971662 
L 360.958161 210.427995 
L 361.59678 415.304476 
L 361.644377 414.880068 
L 362.191735 402.880668 
L 361.69197 430.804922 
L 362.624485 427.72634 
L 362.674289 428.26296 
L 362.674289 432.971662 
L 363.641659 372.934884 
L 363.662626 398.916809 
L 364.999474 398.916809 
L 364.999474 432.971662 
L 365.032404 372.934884 
L 365.053371 398.916809 
L 366.390219 398.916809 
L 366.390219 432.971662 
L 366.423149 372.934884 
L 366.444115 398.916809 
L 367.780964 398.916809 
L 367.780964 432.971662 
L 367.81689 372.806922 
L 368.702926 432.971662 
L 372.410345 432.971662 
L 372.410345 209.968195 
L 372.546995 209.968195 
L 374.317416 209.968195 
L 374.317416 432.971662 
L 374.462094 209.968195 
L 376.232515 209.968195 
L 376.232515 432.971662 
L 376.377193 209.968195 
L 378.147614 209.968195 
L 378.147614 432.971662 
L 378.853245 432.971662 
L 380.838568 432.971662 
L 380.838568 209.968195 
L 381.59154 432.971662 
L 382.521189 432.971662 
L 382.521189 209.968195 
L 383.262374 209.968195 
L 383.620859 209.968195 
L 383.620859 432.971662 
L 384.548509 432.971662 
L 384.772567 432.971662 
L 384.818116 209.968195 
L 385.422645 209.968195 
L 385.781132 209.968195 
L 385.781132 432.971662 
L 386.706163 382.88486 
L 387.064649 382.88486 
L 387.064649 432.971662 
L 388.015168 432.971662 
L 389.626407 432.971662 
L 390.253651 209.968195 
L 390.36563 209.968195 
L 391.619978 209.968195 
L 391.619978 432.971662 
L 392.613779 430.800427 
L 392.637576 430.800427 
L 393.621325 366.130833 
L 393.638088 366.130833 
L 393.638088 432.971662 
L 394.376981 356.353803 
L 394.536101 432.971662 
L 396.477631 432.971662 
L 396.50457 372.810344 
L 396.525537 398.846166 
L 397.862385 398.846166 
L 397.862385 432.971662 
L 397.895315 372.810344 
L 397.916281 398.846166 
L 399.25313 398.846166 
L 399.25313 432.971662 
L 399.289056 372.682117 
L 399.307026 398.846166 
L 400.643875 398.846166 
L 400.643875 432.971662 
L 400.676804 372.810344 
L 401.436 432.971662 
L 405.229747 432.971662 
L 405.229747 210.427995 
L 405.366397 210.427995 
L 407.136818 210.427995 
L 407.136818 432.971662 
L 407.281496 210.427995 
L 409.051917 210.427995 
L 409.051917 432.971662 
L 409.196595 210.427995 
L 410.967016 210.427995 
L 410.967016 432.971662 
L 411.681391 432.971662 
L 413.675471 432.971662 
L 413.675471 210.427995 
L 414.428443 432.971662 
L 415.358092 432.971662 
L 415.358092 210.427995 
L 416.099277 210.427995 
L 416.457762 210.427995 
L 416.457762 432.971662 
L 417.385412 432.971662 
L 417.60947 432.971662 
L 418.232496 210.426156 
L 418.259548 210.426156 
L 418.618035 210.426156 
L 418.618035 432.971662 
L 419.543066 382.987718 
L 419.901552 382.987718 
L 419.901552 432.971662 
L 420.852071 432.971662 
L 422.46331 432.971662 
L 423.090554 210.427995 
L 423.202533 210.427995 
L 424.456881 210.427995 
L 424.456881 432.971662 
L 424.5919 210.426156 
L 425.450682 430.804904 
L 425.474479 430.804904 
L 426.458228 366.268648 
L 426.474991 366.268648 
L 426.474991 432.971662 
L 427.213883 356.511778 
L 427.373003 432.971662 
L 429.314534 432.971662 
L 429.341473 372.934388 
L 429.36244 398.916528 
L 430.699288 398.916528 
L 430.699288 432.971662 
L 430.732218 372.934388 
L 430.753184 398.916528 
L 432.090033 398.916528 
L 432.090033 432.971662 
L 432.125959 372.806425 
L 432.143929 398.916528 
L 433.480778 398.916528 
L 433.480778 432.971662 
L 433.513707 372.934388 
L 434.272903 432.971662 
L 438.084155 432.971662 
L 438.100243 209.968195 
L 438.220805 209.970034 
L 439.991226 209.970034 
L 439.991226 432.971662 
L 440.135904 209.970034 
L 441.906325 209.970034 
L 441.906325 432.971662 
L 442.051004 209.970034 
L 443.821425 209.970034 
L 443.821425 432.971662 
L 444.544561 432.971662 
L 446.54739 432.971662 
L 446.54739 209.970034 
L 447.300362 432.971662 
L 448.23001 432.971662 
L 448.23001 209.968195 
L 448.971196 209.968195 
L 449.329681 209.968195 
L 449.329681 432.971662 
L 450.257331 432.971662 
L 450.481388 432.971662 
L 450.61805 209.968195 
L 451.131467 209.968195 
L 451.489954 209.968195 
L 451.489954 432.971662 
L 452.414984 382.88486 
L 452.773471 382.88486 
L 452.773471 432.971662 
L 453.723989 432.971662 
L 455.335228 432.971662 
L 456.013846 209.968195 
L 456.074452 209.970034 
L 457.328799 209.970034 
L 457.328799 432.971662 
L 457.463818 209.966815 
L 458.322601 430.800445 
L 458.346398 430.800445 
L 459.330147 366.130833 
L 459.34691 366.130833 
L 459.34691 432.971662 
L 460.085802 356.353803 
L 460.244922 432.971662 
L 462.186453 432.971662 
L 462.213391 372.81084 
L 462.234358 398.846447 
L 463.571207 398.846447 
L 463.571207 432.971662 
L 463.604136 372.81084 
L 463.625103 398.846447 
L 464.961951 398.846447 
L 464.961951 432.971662 
L 464.997878 372.682614 
L 465.015848 398.846447 
L 466.352696 398.846447 
L 466.352696 432.971662 
L 466.385626 372.81084 
L 467.144822 432.971662 
L 470.973597 432.971662 
L 470.989685 209.966815 
L 471.110247 209.968195 
L 472.880668 209.968195 
L 472.880668 432.971662 
L 473.025347 209.968195 
L 474.795768 209.968195 
L 474.795768 432.971662 
L 474.940446 209.968195 
L 476.710867 209.968195 
L 476.710867 432.971662 
L 477.442765 432.971662 
L 479.454356 432.971662 
L 479.454356 209.968195 
L 480.207327 432.971662 
L 481.136976 432.971662 
L 481.136976 209.968195 
L 481.878162 209.968195 
L 482.236646 209.968195 
L 482.236646 432.971662 
L 482.268711 209.966815 
L 483.164296 432.971662 
L 483.388354 432.971662 
L 483.59334 209.966815 
L 484.038433 209.968195 
L 484.396919 209.968195 
L 484.396919 432.971662 
L 485.32195 382.88486 
L 485.680437 382.88486 
L 485.680437 432.971662 
L 486.630955 432.971662 
L 488.242194 432.971662 
L 488.869438 209.968195 
L 488.981418 209.968195 
L 490.235765 209.968195 
L 490.235765 432.971662 
L 491.229566 430.800427 
L 491.253364 430.800427 
L 492.237113 366.130833 
L 492.253875 366.130833 
L 492.253875 432.971662 
L 492.992768 356.353803 
L 493.151888 432.971662 
L 495.093418 432.971662 
L 495.120357 372.810344 
L 495.141324 398.846166 
L 496.478172 398.846166 
L 496.478172 432.971662 
L 496.511102 372.810344 
L 496.532069 398.846166 
L 497.868917 398.846166 
L 497.868917 432.971662 
L 497.904844 372.682117 
L 497.922813 398.846166 
L 499.259662 398.846166 
L 499.259662 432.971662 
L 499.292591 372.810344 
L 500.051788 432.971662 
L 503.898069 432.971662 
L 503.898069 210.427995 
L 504.034718 210.427995 
L 505.805139 210.427995 
L 505.805139 432.971662 
L 505.949818 210.427995 
L 507.720239 210.427995 
L 507.720239 432.971662 
L 507.864917 210.427995 
L 509.635338 210.427995 
L 509.635338 432.971662 
L 510.37598 432.971662 
L 512.396328 432.971662 
L 512.396328 210.427995 
L 513.149299 432.971662 
L 514.078948 432.971662 
L 514.078948 210.427995 
L 514.820134 210.427995 
L 515.178618 210.427995 
L 515.178618 432.971662 
L 516.106268 432.971662 
L 516.330326 432.971662 
L 516.466988 210.426156 
L 516.980405 210.427995 
L 517.338891 210.427995 
L 517.338891 432.971662 
L 518.263922 382.988132 
L 518.622409 382.988132 
L 518.622409 432.971662 
L 519.572927 432.971662 
L 521.184166 432.971662 
L 521.888479 210.426156 
L 521.92339 210.427995 
L 523.177737 210.427995 
L 523.177737 432.971662 
L 523.610962 210.426156 
L 524.171538 430.804904 
L 524.195336 430.804904 
L 525.179085 366.268648 
L 525.195847 366.268648 
L 525.195847 432.971662 
L 525.93474 356.511778 
L 526.09386 432.971662 
L 528.03539 432.971662 
L 528.062329 372.934388 
L 528.083296 398.916528 
L 529.420144 398.916528 
L 529.420144 432.971662 
L 529.453074 372.934388 
L 529.474041 398.916528 
L 530.810889 398.916528 
L 530.810889 432.971662 
L 530.846816 372.806425 
L 530.864785 398.916528 
L 532.201634 398.916528 
L 532.201634 432.971662 
L 532.234563 372.934388 
L 532.99376 432.971662 
L 536.857582 432.971662 
L 536.857582 209.968195 
L 536.994231 209.968195 
L 538.764652 209.968195 
L 538.764652 432.971662 
L 538.909331 209.968195 
L 540.679752 209.968195 
L 540.679752 432.971662 
L 540.82443 209.968195 
L 542.594851 209.968195 
L 542.594851 432.971662 
L 543.344273 432.971662 
L 545.373385 432.971662 
L 545.373385 209.968195 
L 546.126356 432.971662 
L 547.056005 432.971662 
L 547.797191 209.966815 
L 548.155675 209.966815 
L 548.155675 432.971662 
L 549.083325 432.971662 
L 549.307383 432.971662 
L 549.352932 209.968195 
L 549.957462 209.968195 
L 550.315948 209.968195 
L 550.315948 432.971662 
L 551.240979 382.88455 
L 551.599466 382.88455 
L 551.599466 432.971662 
L 552.549984 432.971662 
L 554.161223 432.971662 
L 554.788467 209.968195 
L 554.900447 209.968195 
L 556.154794 209.968195 
L 556.154794 432.971662 
L 556.588019 209.966815 
L 557.148595 430.800427 
L 557.172393 430.800427 
L 558.156142 366.130833 
L 558.172904 366.130833 
L 558.172904 432.971662 
L 558.911797 356.353803 
L 559.070917 432.971662 
L 561.012447 432.971662 
L 561.039386 372.810344 
L 561.060353 398.846166 
L 562.397201 398.846166 
L 562.397201 432.971662 
L 562.430131 372.810344 
L 562.451098 398.846166 
L 563.787946 398.846166 
L 563.787946 432.971662 
L 563.823873 372.682117 
L 563.841842 398.846166 
L 565.178691 398.846166 
L 565.178691 432.971662 
L 565.21162 372.810344 
L 565.970817 432.971662 
L 569.852162 432.971662 
L 569.868249 209.968195 
L 569.988812 209.970034 
L 571.759233 209.970034 
L 571.759233 432.971662 
L 571.903911 209.970034 
L 573.674332 209.970034 
L 573.674332 432.971662 
L 573.819011 209.970034 
L 575.589432 209.970034 
L 575.589432 432.971662 
L 576.347615 432.971662 
L 578.385489 432.971662 
L 578.467016 209.968195 
L 579.13846 432.971662 
L 580.068109 432.971662 
L 580.256266 209.968195 
L 580.809295 209.968195 
L 581.167779 209.968195 
L 581.167779 432.971662 
L 582.095429 432.971662 
L 582.319487 432.971662 
L 582.969566 209.966815 
L 583.328052 209.966815 
L 583.328052 432.971662 
L 584.253083 382.885273 
L 584.61157 382.885273 
L 584.61157 432.971662 
L 585.562088 432.971662 
L 587.173327 432.971662 
L 587.87764 209.968195 
L 587.912551 209.970034 
L 589.166898 209.970034 
L 589.166898 432.971662 
L 589.436932 209.968195 
L 590.160699 430.800445 
L 590.184497 430.800445 
L 591.168246 366.130833 
L 591.185008 366.130833 
L 591.185008 432.971662 
L 591.923901 356.353803 
L 592.083021 432.971662 
L 594.024551 432.971662 
L 594.05149 372.81084 
L 594.072457 398.846447 
L 595.409305 398.846447 
L 595.409305 432.971662 
L 595.442235 372.81084 
L 595.463202 398.846447 
L 596.80005 398.846447 
L 596.80005 432.971662 
L 596.835977 372.682614 
L 596.853946 398.846447 
L 598.190795 398.846447 
L 598.190795 432.971662 
L 598.223724 372.81084 
L 598.982921 432.971662 
L 602.881772 432.971662 
L 602.897859 210.426156 
L 603.018422 210.427995 
L 604.788843 210.427995 
L 604.788843 432.971662 
L 604.933521 210.427995 
L 606.703942 210.427995 
L 606.703942 432.971662 
L 606.84862 210.427995 
L 608.619041 210.427995 
L 608.619041 432.971662 
L 609.385968 432.971662 
L 611.432599 432.971662 
L 611.432599 210.427995 
L 612.185571 432.971662 
L 613.11522 432.971662 
L 613.11522 210.427995 
L 613.856405 210.427995 
L 614.21489 210.427995 
L 614.21489 432.971662 
L 614.246954 210.426156 
L 615.14254 432.971662 
L 615.366598 432.971662 
L 615.87143 210.426156 
L 616.016676 210.427995 
L 616.375163 210.427995 
L 616.375163 432.971662 
L 617.300193 382.988132 
L 617.65868 382.988132 
L 617.65868 432.971662 
L 618.609198 432.971662 
L 620.220437 432.971662 
L 620.847682 210.429834 
L 620.959661 210.429834 
L 622.214008 210.427995 
L 622.214008 432.971662 
L 622.674333 210.426156 
L 623.20781 430.804904 
L 623.231607 430.804904 
L 624.215356 366.268097 
L 624.232119 366.268097 
L 624.232119 432.971662 
L 624.971011 356.511146 
L 625.130131 432.971662 
L 627.071662 432.971662 
L 627.098601 372.934388 
L 627.119567 398.916528 
L 628.456416 398.916528 
L 628.456416 432.971662 
L 628.489345 372.934388 
L 628.510312 398.916528 
L 629.847161 398.916528 
L 629.847161 432.971662 
L 629.883087 372.806425 
L 629.901057 398.916528 
L 631.237905 398.916528 
L 631.237905 432.971662 
L 631.270835 372.934388 
L 632.030031 432.971662 
L 635.946388 432.971662 
L 635.946388 209.968195 
L 636.083037 209.968195 
L 637.853458 209.968195 
L 637.853458 432.971662 
L 637.998137 209.968195 
L 639.768558 209.968195 
L 639.768558 432.971662 
L 639.913236 209.968195 
L 641.683657 209.968195 
L 641.683657 432.971662 
L 642.459346 432.971662 
L 644.514725 432.971662 
L 644.514725 209.968195 
L 645.267697 432.971662 
L 646.197346 432.971662 
L 646.850288 209.966815 
L 646.938531 209.966815 
L 647.297016 209.966815 
L 647.297016 432.971662 
L 648.224666 432.971662 
L 648.448724 432.971662 
L 648.494273 209.968195 
L 649.098802 209.968195 
L 649.457289 209.968195 
L 649.457289 432.971662 
L 650.382319 382.88486 
L 650.740806 382.88486 
L 650.740806 432.971662 
L 651.691324 432.971662 
L 653.302563 432.971662 
L 653.955506 209.968195 
L 654.041787 209.970034 
L 655.296134 209.968195 
L 655.296134 432.971662 
L 656.289936 430.800427 
L 656.313733 430.800427 
L 657.297482 366.130419 
L 657.314245 366.130419 
L 657.314245 432.971662 
L 658.053137 356.353803 
L 658.212257 432.971662 
L 660.153788 432.971662 
L 660.180727 372.810344 
L 660.201693 398.846166 
L 661.538542 398.846166 
L 661.538542 432.971662 
L 661.571471 372.810344 
L 661.592438 398.846166 
L 662.929287 398.846166 
L 662.929287 432.971662 
L 662.965213 372.682117 
L 662.983183 398.846166 
L 664.320031 398.846166 
L 664.320031 432.971662 
L 664.352961 372.810344 
L 665.112157 432.971662 
L 669.046019 432.971662 
L 669.046019 210.427995 
L 669.182669 210.427995 
L 670.95309 210.427995 
L 670.95309 432.971662 
L 671.097768 210.427995 
L 672.868189 210.427995 
L 672.868189 432.971662 
L 673.012868 210.427995 
L 674.783288 210.427995 
L 674.783288 432.971662 
L 675.567721 432.971662 
L 677.631857 432.971662 
L 677.631857 210.427995 
L 678.384829 432.971662 
L 679.314478 432.971662 
L 680.055663 210.426156 
L 680.414148 210.426156 
L 680.414148 432.971662 
L 681.341798 432.971662 
L 681.565856 432.971662 
L 681.611405 210.427995 
L 682.215934 210.427995 
L 682.574421 210.427995 
L 682.574421 432.971662 
L 683.499452 382.988132 
L 683.857939 382.988132 
L 683.857939 432.971662 
L 684.808457 432.971662 
L 686.419696 432.971662 
L 687.04694 210.429834 
L 687.158919 210.429834 
L 688.413267 210.427995 
L 688.413267 432.971662 
L 688.846492 210.426156 
L 689.407068 430.804904 
L 689.430865 430.804904 
L 690.414614 366.268648 
L 690.431377 366.268648 
L 690.431377 432.971662 
L 691.17027 356.511778 
L 691.32939 432.971662 
L 693.27092 432.971662 
L 693.297859 372.934388 
L 693.318826 398.916528 
L 694.655674 398.916528 
L 694.655674 432.971662 
L 694.688604 372.934388 
L 694.70957 398.916528 
L 696.046419 398.916528 
L 696.046419 432.971662 
L 696.082345 372.806425 
L 696.100315 398.916528 
L 697.437164 398.916528 
L 697.437164 432.971662 
L 697.470093 372.934388 
L 698.229289 432.971662 
L 702.180657 432.971662 
L 702.180657 209.968195 
L 702.317307 209.968195 
L 704.087728 209.968195 
L 704.087728 432.971662 
L 704.232406 209.968195 
L 706.002827 209.968195 
L 706.002827 432.971662 
L 706.147505 209.968195 
L 707.917926 209.968195 
L 707.917926 432.971662 
L 708.711121 432.971662 
L 710.784005 432.971662 
L 710.784005 209.968195 
L 711.536977 432.971662 
L 712.466626 432.971662 
L 713.207811 209.966815 
L 713.566296 209.966815 
L 713.566296 432.971662 
L 714.493946 432.971662 
L 714.718004 432.971662 
L 715.34103 209.966815 
L 715.368082 209.966815 
L 715.726569 209.966815 
L 715.726569 432.971662 
L 716.6516 382.88486 
L 717.010086 382.88486 
L 717.010086 432.971662 
L 717.960605 432.971662 
L 719.571844 432.971662 
L 720.199088 209.968195 
L 720.311067 209.968195 
L 721.565415 209.968195 
L 721.565415 432.971662 
L 721.700434 209.966815 
L 722.559216 430.800427 
L 722.583013 430.800427 
L 723.566762 366.130833 
L 723.583525 366.130833 
L 723.583525 432.971662 
L 724.322418 356.353803 
L 724.481537 432.971662 
L 726.423068 432.971662 
L 726.450007 372.810344 
L 726.470974 398.846166 
L 727.807822 398.846166 
L 727.807822 432.971662 
L 727.840752 372.810344 
L 727.861718 398.846166 
L 729.198567 398.846166 
L 729.198567 432.971662 
L 729.234493 372.682117 
L 729.252463 398.846166 
L 730.589312 398.846166 
L 730.589312 432.971662 
L 730.622241 372.810344 
L 731.381437 432.971662 
L 735.35181 432.971662 
L 735.35181 172.265973 
L 735.48846 172.265973 
L 737.258881 172.265973 
L 737.258881 432.971662 
L 737.403559 172.265973 
L 739.17398 172.265973 
L 739.17398 432.971662 
L 739.318658 172.265973 
L 741.089079 172.265973 
L 741.089079 432.971662 
L 741.892517 432.971662 
L 744.33995 432.971662 
L 744.33995 172.723934 
L 744.4766 172.723934 
L 746.247021 172.723934 
L 746.247021 432.971662 
L 746.3917 172.723934 
L 748.162121 172.723934 
L 748.162121 432.971662 
L 748.306799 172.723934 
L 750.07722 172.723934 
L 750.07722 432.971662 
L 750.890882 432.971662 
L 753.348559 432.971662 
L 753.348559 172.264594 
L 753.485209 172.264594 
L 755.25563 172.264594 
L 755.25563 432.971662 
L 755.400308 172.264594 
L 757.170729 172.264594 
L 757.170729 432.971662 
L 757.315408 172.264594 
L 759.085829 172.264594 
L 759.085829 432.971662 
L 759.909734 432.971662 
L 762.377654 432.971662 
L 762.393742 172.264594 
L 762.514304 172.265973 
L 764.284725 172.265973 
L 764.284725 432.971662 
L 764.429404 172.265973 
L 766.199825 172.265973 
L 766.199825 432.971662 
L 766.344503 172.265973 
L 768.114924 172.265973 
L 768.114924 432.971662 
L 768.949073 432.971662 
L 771.427218 432.971662 
L 771.427218 172.723934 
L 771.563868 172.723934 
L 773.334289 172.723934 
L 773.334289 432.971662 
L 773.478967 172.723934 
L 775.249388 172.723934 
L 775.249388 432.971662 
L 775.394066 172.723934 
L 777.164487 172.723934 
L 777.164487 432.971662 
L 778.008861 432.971662 
L 780.497249 432.971662 
L 780.497249 172.265973 
L 780.633899 172.265973 
L 782.40432 172.265973 
L 782.40432 432.971662 
L 782.548999 172.265973 
L 784.31942 172.265973 
L 784.31942 432.971662 
L 784.464098 172.265973 
L 786.234519 172.265973 
L 786.234519 432.971662 
L 787.089136 432.971662 
L 789.587767 432.971662 
L 789.587767 172.264594 
L 789.724417 172.264594 
L 791.494838 172.264594 
L 791.494838 432.971662 
L 791.639517 172.264594 
L 793.409937 172.264594 
L 793.409937 432.971662 
L 793.554616 172.264594 
L 795.325037 172.264594 
L 795.325037 432.971662 
L 796.189897 432.971662 
L 798.698772 432.971662 
L 798.698772 172.723934 
L 798.835421 172.723934 
L 800.605842 172.723934 
L 800.605842 432.971662 
L 800.750521 172.723934 
L 802.520942 172.723934 
L 802.520942 432.971662 
L 802.66562 172.723934 
L 804.436041 172.723934 
L 804.436041 432.971662 
L 805.311144 432.971662 
L 805.674261 432.971662 
L 805.674261 432.971662 
" clip-path="url(#p46ec1e1d97)" style="fill: none; stroke: #000000; stroke-width: 0.5; stroke-linecap: square"/>
   </g>
   <g id="patch_3">
    <path d="M 59.121875 450.214277 
L 59.121875 70.876736 
" style="fill: none; stroke: #000000; stroke-width: 0.8; stroke-linejoin: miter; stroke-linecap: square"/>
   </g>
   <g id="patch_4">
    <path d="M 841.224375 450.214277 
L 841.224375 70.876736 
" style="fill: none; stroke: #000000; stroke-width: 0.8; stroke-linejoin: miter; stroke-linecap: square"/>
   </g>
   <g id="patch_5">
    <path d="M 59.121875 450.214277 
L 841.224375 450.214277 
" style="fill: none; stroke: #000000; stroke-width: 0.8; stroke-linejoin: miter; stroke-linecap: square"/>
   </g>
   <g id="patch_6">
    <path d="M 59.121875 70.876736 
L 841.224375 70.876736 
" style="fill: none; stroke: #000000; stroke-width: 0.8; stroke-linejoin: miter; stroke-linecap: square"/>
   </g>
   <g id="text_19">
    <!-- 主轴功率预测 -->
    <g transform="translate(408.173125 18.410937) scale(0.14 -0.14)">
     <defs>
      <path id="SimHei-4e3b" d="M 4750 3850 
Q 5150 3850 5750 3875 
L 5750 3400 
Q 5150 3425 4750 3425 
L 3425 3425 
L 3425 2175 
L 4425 2175 
Q 4825 2175 5375 2200 
L 5375 1725 
Q 4825 1750 4425 1750 
L 3425 1750 
L 3425 150 
L 5000 150 
Q 5450 150 6050 175 
L 6050 -300 
Q 5450 -275 5000 -275 
L 350 -275 
L 350 200 
Q 950 150 1425 150 
L 2900 150 
L 2900 1750 
L 1925 1750 
Q 1525 1750 975 1725 
L 975 2200 
Q 1575 2175 1925 2175 
L 2900 2175 
L 2900 3425 
L 1650 3425 
Q 1125 3425 625 3400 
L 625 3875 
Q 1175 3850 1675 3850 
L 4750 3850 
z
M 3175 3900 
Q 2875 4350 2400 4875 
Q 2650 5050 2800 5200 
Q 3325 4600 3625 4175 
Q 3475 4100 3175 3900 
z
" transform="scale(0.015625)"/>
      <path id="SimHei-8f74" d="M 4200 3900 
Q 4200 4775 4175 5175 
L 4700 5175 
Q 4675 4800 4675 3900 
L 5950 3900 
Q 5925 3025 5925 1675 
Q 5925 325 5950 -525 
L 5450 -525 
L 5450 100 
L 3425 100 
L 3425 -575 
L 2950 -575 
Q 2975 325 2975 1675 
Q 2975 3025 2950 3900 
L 4200 3900 
z
M 2725 950 
Q 2250 900 2075 875 
Q 2075 200 2100 -600 
L 1575 -600 
Q 1600 200 1600 800 
Q 700 650 450 575 
Q 400 800 275 1075 
Q 700 1100 1600 1250 
L 1600 2075 
L 1100 2075 
Q 850 2075 525 2000 
L 300 2475 
Q 525 2600 700 3025 
Q 875 3450 1025 3925 
Q 700 3925 325 3900 
L 325 4350 
Q 700 4325 1125 4325 
Q 1300 4825 1375 5250 
Q 1625 5150 1925 5100 
Q 1825 4925 1600 4325 
Q 2175 4325 2750 4350 
L 2750 3900 
Q 2200 3925 1475 3925 
Q 1150 3000 925 2475 
L 1600 2475 
Q 1600 3050 1575 3400 
L 2100 3400 
Q 2075 3100 2075 2475 
Q 2425 2475 2625 2500 
L 2625 2050 
Q 2450 2075 2075 2075 
L 2075 1300 
L 2775 1400 
Q 2725 1175 2725 950 
z
M 4200 525 
L 4200 1850 
L 3425 1850 
L 3425 525 
L 4200 525 
z
M 5450 525 
L 5450 1850 
L 4675 1850 
L 4675 525 
L 5450 525 
z
M 4200 2250 
L 4200 3475 
L 3425 3475 
L 3425 2250 
L 4200 2250 
z
M 5450 2250 
L 5450 3475 
L 4675 3475 
L 4675 2250 
L 5450 2250 
z
" transform="scale(0.015625)"/>
      <path id="SimHei-9884" d="M 5200 4800 
Q 5575 4800 5950 4825 
L 5950 4400 
Q 5575 4425 5200 4425 
L 4500 4425 
Q 4425 4050 4350 3600 
L 5725 3600 
Q 5700 3225 5700 2800 
L 5700 1725 
Q 5700 1300 5725 850 
L 5250 850 
L 5250 3225 
L 3550 3225 
L 3550 800 
L 3075 800 
Q 3100 1375 3100 1725 
L 3100 2775 
Q 3100 3175 3075 3600 
L 3900 3600 
Q 4000 4150 4000 4425 
L 3725 4425 
Q 3300 4425 2850 4400 
L 2850 4825 
Q 3325 4800 3725 4800 
L 5200 4800 
z
M 2600 1775 
Q 2350 1825 2150 1825 
Q 2250 2250 2300 2450 
L 1750 2450 
L 1750 125 
Q 1725 -300 1425 -400 
Q 1125 -500 750 -500 
Q 700 -225 575 25 
Q 1125 -25 1212 37 
Q 1300 100 1300 350 
L 1300 2450 
L 1025 2450 
Q 700 2450 350 2425 
L 350 2850 
Q 700 2825 1000 2825 
L 2850 2825 
Q 2725 2325 2600 1775 
z
M 4725 2875 
Q 4625 2575 4600 2100 
Q 4575 1625 4462 1037 
Q 4350 450 3962 62 
Q 3575 -325 2925 -675 
Q 2700 -500 2475 -350 
Q 3075 -125 3437 200 
Q 3800 525 3950 937 
Q 4100 1350 4137 1850 
Q 4175 2350 4175 2925 
L 4725 2875 
z
M 1625 2900 
Q 1275 3275 800 3650 
Q 925 3775 1075 3950 
Q 1250 3825 1425 3675 
Q 1750 4150 1950 4375 
L 1400 4375 
Q 900 4375 450 4350 
L 450 4775 
Q 900 4750 1375 4750 
L 2575 4750 
L 2575 4375 
Q 2200 4100 1725 3400 
L 1950 3200 
Q 1750 3025 1625 2900 
z
M 4775 725 
Q 5725 0 6075 -325 
Q 5850 -500 5725 -650 
Q 5400 -325 5137 -87 
Q 4875 150 4525 350 
Q 4650 525 4775 725 
z
" transform="scale(0.015625)"/>
      <path id="SimHei-6d4b" d="M 4025 4725 
Q 4000 4475 4000 4000 
L 4000 2225 
Q 4000 1775 4025 1350 
L 3550 1350 
L 3550 4325 
L 2350 4325 
L 2350 1325 
L 1900 1325 
Q 1925 1775 1925 2225 
L 1925 4000 
Q 1925 4200 1900 4725 
L 4025 4725 
z
M 5900 5075 
Q 5875 4800 5875 4375 
L 5875 0 
Q 5875 -325 5650 -425 
Q 5425 -525 4975 -600 
Q 4925 -325 4775 -50 
Q 5125 -50 5262 -25 
Q 5400 0 5400 250 
L 5400 4375 
Q 5400 4775 5375 5075 
L 5900 5075 
z
M 3275 3725 
Q 3225 3400 3200 2325 
Q 3175 1250 2837 550 
Q 2500 -150 2075 -600 
Q 1850 -400 1600 -325 
Q 2200 250 2475 962 
Q 2750 1675 2762 2475 
Q 2775 3275 2725 3800 
Q 3000 3750 3275 3725 
z
M 4950 4275 
Q 4925 4000 4925 3575 
L 4925 1825 
Q 4925 1300 4950 850 
L 4450 850 
Q 4475 1150 4475 1825 
L 4475 3575 
Q 4475 4000 4450 4275 
L 4950 4275 
z
M 1700 1675 
Q 1375 1075 1112 487 
Q 850 -100 725 -400 
Q 500 -200 200 -25 
Q 475 300 762 850 
Q 1050 1400 1250 2000 
Q 1475 1825 1700 1675 
z
M 3400 1050 
Q 3800 650 4300 -125 
Q 4100 -225 3875 -450 
Q 3475 275 3025 750 
Q 3225 875 3400 1050 
z
M 600 3525 
Q 1125 3125 1500 2775 
Q 1300 2575 1150 2375 
Q 825 2775 300 3150 
Q 450 3300 600 3525 
z
M 1350 4000 
Q 950 4375 475 4675 
Q 625 4850 775 5050 
Q 1300 4700 1675 4375 
Q 1500 4250 1350 4000 
z
" transform="scale(0.015625)"/>
     </defs>
     <use xlink:href="#SimHei-4e3b"/>
     <use xlink:href="#SimHei-8f74" x="100"/>
     <use xlink:href="#SimHei-529f" x="200"/>
     <use xlink:href="#SimHei-7387" x="300"/>
     <use xlink:href="#SimHei-9884" x="400"/>
     <use xlink:href="#SimHei-6d4b" x="500"/>
    </g>
   </g>
  </g>
  <g id="axes_2">
   <g id="matplotlib.axis_3">
    <g id="xtick_10">
     <g id="line2d_34">
      <defs>
       <path id="m3b10a11a96" d="M 0 0 
L 0 -3.5 
" style="stroke: #000000; stroke-width: 0.8"/>
      </defs>
      <g>
       <use xlink:href="#m3b10a11a96" x="94.671989" y="70.876736" style="stroke: #000000; stroke-width: 0.8"/>
      </g>
     </g>
     <g id="text_20">
      <!-- N0018 -->
      <g transform="translate(98.561076 63.169629) rotate(-45) scale(0.08 -0.08)">
       <defs>
        <path id="SimHei-4e" d="M 2850 125 
L 2225 125 
L 850 3225 
L 825 3225 
L 825 125 
L 250 125 
L 250 4400 
L 875 4400 
L 2250 1300 
L 2275 1300 
L 2275 4400 
L 2850 4400 
L 2850 125 
z
" transform="scale(0.015625)"/>
       </defs>
       <use xlink:href="#SimHei-4e"/>
       <use xlink:href="#SimHei-30" x="50"/>
       <use xlink:href="#SimHei-30" x="100"/>
       <use xlink:href="#SimHei-31" x="150"/>
       <use xlink:href="#SimHei-38" x="200"/>
      </g>
     </g>
    </g>
    <g id="xtick_11">
     <g id="line2d_35">
      <g>
       <use xlink:href="#m3b10a11a96" x="155.742396" y="70.876736" style="stroke: #000000; stroke-width: 0.8"/>
      </g>
     </g>
     <g id="text_21">
      <!-- N0430 -->
      <g transform="translate(159.631483 63.169629) rotate(-45) scale(0.08 -0.08)">
       <use xlink:href="#SimHei-4e"/>
       <use xlink:href="#SimHei-30" x="50"/>
       <use xlink:href="#SimHei-34" x="100"/>
       <use xlink:href="#SimHei-33" x="150"/>
       <use xlink:href="#SimHei-30" x="200"/>
      </g>
     </g>
    </g>
    <g id="xtick_12">
     <g id="line2d_36">
      <g>
       <use xlink:href="#m3b10a11a96" x="207.37804" y="70.876736" style="stroke: #000000; stroke-width: 0.8"/>
      </g>
     </g>
     <g id="text_22">
      <!-- N0760.6 -->
      <g transform="translate(211.267127 63.169629) rotate(-45) scale(0.08 -0.08)">
       <defs>
        <path id="SimHei-37" d="M 850 150 
Q 1300 2050 2425 3925 
L 275 3925 
L 275 4375 
L 2950 4375 
L 2950 3950 
Q 1775 2050 1400 150 
L 850 150 
z
" transform="scale(0.015625)"/>
        <path id="SimHei-2e" d="M 1075 125 
L 500 125 
L 500 675 
L 1075 675 
L 1075 125 
z
" transform="scale(0.015625)"/>
       </defs>
       <use xlink:href="#SimHei-4e"/>
       <use xlink:href="#SimHei-30" x="50"/>
       <use xlink:href="#SimHei-37" x="100"/>
       <use xlink:href="#SimHei-36" x="150"/>
       <use xlink:href="#SimHei-30" x="200"/>
       <use xlink:href="#SimHei-2e" x="250"/>
       <use xlink:href="#SimHei-36" x="300"/>
      </g>
     </g>
    </g>
    <g id="xtick_13">
     <g id="line2d_37">
      <g>
       <use xlink:href="#m3b10a11a96" x="256.489494" y="70.876736" style="stroke: #000000; stroke-width: 0.8"/>
      </g>
     </g>
     <g id="text_23">
      <!-- N1160.12 -->
      <g transform="translate(260.378581 63.169629) rotate(-45) scale(0.08 -0.08)">
       <use xlink:href="#SimHei-4e"/>
       <use xlink:href="#SimHei-31" x="50"/>
       <use xlink:href="#SimHei-31" x="100"/>
       <use xlink:href="#SimHei-36" x="150"/>
       <use xlink:href="#SimHei-30" x="200"/>
       <use xlink:href="#SimHei-2e" x="250"/>
       <use xlink:href="#SimHei-31" x="300"/>
       <use xlink:href="#SimHei-32" x="350"/>
      </g>
     </g>
    </g>
    <g id="xtick_14">
     <g id="line2d_38">
      <g>
       <use xlink:href="#m3b10a11a96" x="311.255559" y="70.876736" style="stroke: #000000; stroke-width: 0.8"/>
      </g>
     </g>
     <g id="text_24">
      <!-- N1488 -->
      <g transform="translate(315.144646 63.169629) rotate(-45) scale(0.08 -0.08)">
       <use xlink:href="#SimHei-4e"/>
       <use xlink:href="#SimHei-31" x="50"/>
       <use xlink:href="#SimHei-34" x="100"/>
       <use xlink:href="#SimHei-38" x="150"/>
       <use xlink:href="#SimHei-38" x="200"/>
      </g>
     </g>
    </g>
    <g id="xtick_15">
     <g id="line2d_39">
      <g>
       <use xlink:href="#m3b10a11a96" x="357.716029" y="70.876736" style="stroke: #000000; stroke-width: 0.8"/>
      </g>
     </g>
     <g id="text_25">
      <!-- N1892.7 -->
      <g transform="translate(361.605116 63.169629) rotate(-45) scale(0.08 -0.08)">
       <defs>
        <path id="SimHei-39" d="M 800 75 
Q 1350 1000 1700 1750 
Q 1075 1650 662 1912 
Q 250 2175 162 2625 
Q 75 3075 175 3437 
Q 275 3800 487 4037 
Q 700 4275 1000 4375 
Q 1300 4475 1537 4475 
Q 1775 4475 2025 4375 
Q 2275 4275 2475 4075 
Q 2675 3875 2750 3662 
Q 2825 3450 2825 3112 
Q 2825 2775 2575 2250 
Q 2325 1725 1350 75 
L 800 75 
z
M 662 2875 
Q 700 2550 937 2337 
Q 1175 2125 1450 2150 
Q 1725 2175 1887 2300 
Q 2050 2425 2200 2725 
Q 2300 3100 2250 3362 
Q 2200 3625 1987 3800 
Q 1775 3975 1525 3975 
Q 1375 4000 1137 3900 
Q 900 3800 762 3500 
Q 625 3200 662 2875 
z
" transform="scale(0.015625)"/>
       </defs>
       <use xlink:href="#SimHei-4e"/>
       <use xlink:href="#SimHei-31" x="50"/>
       <use xlink:href="#SimHei-38" x="100"/>
       <use xlink:href="#SimHei-39" x="150"/>
       <use xlink:href="#SimHei-32" x="200"/>
       <use xlink:href="#SimHei-2e" x="250"/>
       <use xlink:href="#SimHei-37" x="300"/>
      </g>
     </g>
    </g>
    <g id="xtick_16">
     <g id="line2d_40">
      <g>
       <use xlink:href="#m3b10a11a96" x="418.259548" y="70.876736" style="stroke: #000000; stroke-width: 0.8"/>
      </g>
     </g>
     <g id="text_26">
      <!-- N2262.2 -->
      <g transform="translate(422.148636 63.169629) rotate(-45) scale(0.08 -0.08)">
       <use xlink:href="#SimHei-4e"/>
       <use xlink:href="#SimHei-32" x="50"/>
       <use xlink:href="#SimHei-32" x="100"/>
       <use xlink:href="#SimHei-36" x="150"/>
       <use xlink:href="#SimHei-32" x="200"/>
       <use xlink:href="#SimHei-2e" x="250"/>
       <use xlink:href="#SimHei-32" x="300"/>
      </g>
     </g>
    </g>
    <g id="xtick_17">
     <g id="line2d_41">
      <g>
       <use xlink:href="#m3b10a11a96" x="479.576646" y="70.876736" style="stroke: #000000; stroke-width: 0.8"/>
      </g>
     </g>
     <g id="text_27">
      <!-- N2632.4 -->
      <g transform="translate(483.465734 63.169629) rotate(-45) scale(0.08 -0.08)">
       <use xlink:href="#SimHei-4e"/>
       <use xlink:href="#SimHei-32" x="50"/>
       <use xlink:href="#SimHei-36" x="100"/>
       <use xlink:href="#SimHei-33" x="150"/>
       <use xlink:href="#SimHei-32" x="200"/>
       <use xlink:href="#SimHei-2e" x="250"/>
       <use xlink:href="#SimHei-34" x="300"/>
      </g>
     </g>
    </g>
    <g id="xtick_18">
     <g id="line2d_42">
      <g>
       <use xlink:href="#m3b10a11a96" x="536.897777" y="70.876736" style="stroke: #000000; stroke-width: 0.8"/>
      </g>
     </g>
     <g id="text_28">
      <!-- N3002.6 -->
      <g transform="translate(540.786864 63.169629) rotate(-45) scale(0.08 -0.08)">
       <use xlink:href="#SimHei-4e"/>
       <use xlink:href="#SimHei-33" x="50"/>
       <use xlink:href="#SimHei-30" x="100"/>
       <use xlink:href="#SimHei-30" x="150"/>
       <use xlink:href="#SimHei-32" x="200"/>
       <use xlink:href="#SimHei-2e" x="250"/>
       <use xlink:href="#SimHei-36" x="300"/>
      </g>
     </g>
    </g>
    <g id="xtick_19">
     <g id="line2d_43">
      <g>
       <use xlink:href="#m3b10a11a96" x="594.021562" y="70.876736" style="stroke: #000000; stroke-width: 0.8"/>
      </g>
     </g>
     <g id="text_29">
      <!-- N3386.1 -->
      <g transform="translate(597.910649 63.169629) rotate(-45) scale(0.08 -0.08)">
       <use xlink:href="#SimHei-4e"/>
       <use xlink:href="#SimHei-33" x="50"/>
       <use xlink:href="#SimHei-33" x="100"/>
       <use xlink:href="#SimHei-38" x="150"/>
       <use xlink:href="#SimHei-36" x="200"/>
       <use xlink:href="#SimHei-2e" x="250"/>
       <use xlink:href="#SimHei-31" x="300"/>
      </g>
     </g>
    </g>
    <g id="xtick_20">
     <g id="line2d_44">
      <g>
       <use xlink:href="#m3b10a11a96" x="655.431154" y="70.876736" style="stroke: #000000; stroke-width: 0.8"/>
      </g>
     </g>
     <g id="text_30">
      <!-- N3766.1 -->
      <g transform="translate(659.320241 63.169629) rotate(-45) scale(0.08 -0.08)">
       <use xlink:href="#SimHei-4e"/>
       <use xlink:href="#SimHei-33" x="50"/>
       <use xlink:href="#SimHei-37" x="100"/>
       <use xlink:href="#SimHei-36" x="150"/>
       <use xlink:href="#SimHei-36" x="200"/>
       <use xlink:href="#SimHei-2e" x="250"/>
       <use xlink:href="#SimHei-31" x="300"/>
      </g>
     </g>
    </g>
    <g id="xtick_21">
     <g id="line2d_45">
      <g>
       <use xlink:href="#m3b10a11a96" x="717.297885" y="70.876736" style="stroke: #000000; stroke-width: 0.8"/>
      </g>
     </g>
     <g id="text_31">
      <!-- N4148.14 -->
      <g transform="translate(721.186973 63.169629) rotate(-45) scale(0.08 -0.08)">
       <use xlink:href="#SimHei-4e"/>
       <use xlink:href="#SimHei-34" x="50"/>
       <use xlink:href="#SimHei-31" x="100"/>
       <use xlink:href="#SimHei-34" x="150"/>
       <use xlink:href="#SimHei-38" x="200"/>
       <use xlink:href="#SimHei-2e" x="250"/>
       <use xlink:href="#SimHei-31" x="300"/>
       <use xlink:href="#SimHei-34" x="350"/>
      </g>
     </g>
    </g>
    <g id="xtick_22">
     <g id="line2d_46">
      <g>
       <use xlink:href="#m3b10a11a96" x="804.572691" y="70.876736" style="stroke: #000000; stroke-width: 0.8"/>
      </g>
     </g>
     <g id="text_32">
      <!-- N4458.17 -->
      <g transform="translate(808.461778 63.169629) rotate(-45) scale(0.08 -0.08)">
       <use xlink:href="#SimHei-4e"/>
       <use xlink:href="#SimHei-34" x="50"/>
       <use xlink:href="#SimHei-34" x="100"/>
       <use xlink:href="#SimHei-35" x="150"/>
       <use xlink:href="#SimHei-38" x="200"/>
       <use xlink:href="#SimHei-2e" x="250"/>
       <use xlink:href="#SimHei-31" x="300"/>
       <use xlink:href="#SimHei-37" x="350"/>
      </g>
     </g>
    </g>
    <g id="text_33">
     <!-- 指令行号 N -->
     <g transform="translate(425.173125 32.653125) scale(0.1 -0.1)">
      <defs>
       <path id="SimHei-6307" d="M 5625 2225 
Q 5600 1925 5600 1350 
L 5600 300 
Q 5600 -225 5625 -525 
L 5125 -525 
L 5125 -125 
L 3300 -125 
L 3300 -625 
L 2800 -625 
Q 2825 -300 2825 300 
L 2825 1350 
Q 2825 1925 2800 2225 
L 5625 2225 
z
M 500 25 
Q 1075 -25 1175 37 
Q 1275 100 1275 275 
L 1275 1675 
Q 1050 1600 925 1537 
Q 800 1475 475 1275 
Q 400 1525 225 1800 
Q 625 1900 825 1975 
Q 1025 2050 1275 2125 
L 1275 3300 
L 1100 3300 
Q 775 3300 450 3275 
L 450 3725 
Q 750 3700 1100 3700 
L 1275 3700 
L 1275 4450 
Q 1275 4800 1250 5125 
L 1775 5125 
Q 1750 4850 1750 4450 
L 1750 3700 
Q 2075 3700 2425 3725 
L 2425 3275 
Q 2050 3300 1750 3300 
L 1750 2325 
Q 1850 2350 2025 2425 
L 2375 2575 
Q 2350 2300 2375 2100 
Q 2225 2050 2062 1987 
Q 1900 1925 1750 1850 
L 1750 100 
Q 1725 -200 1575 -337 
Q 1425 -475 675 -525 
Q 625 -250 500 25 
z
M 3325 5025 
Q 3300 4675 3300 4125 
Q 4125 4275 4512 4412 
Q 4900 4550 5225 4725 
Q 5325 4475 5575 4250 
Q 5450 4225 5237 4175 
Q 5025 4125 4725 4050 
Q 4425 3975 4037 3887 
Q 3650 3800 3300 3725 
L 3300 3175 
Q 3275 2925 3700 2925 
L 4925 2925 
Q 5300 2925 5387 3087 
Q 5475 3250 5550 3600 
Q 5750 3400 6050 3300 
Q 5825 2725 5700 2637 
Q 5575 2550 5275 2525 
L 3350 2525 
Q 3050 2525 2937 2687 
Q 2825 2850 2825 2975 
L 2825 4125 
Q 2825 4775 2800 5025 
L 3325 5025 
z
M 5125 275 
L 5125 875 
L 3300 875 
L 3300 275 
L 5125 275 
z
M 5125 1250 
L 5125 1825 
L 3300 1825 
L 3300 1250 
L 5125 1250 
z
" transform="scale(0.015625)"/>
       <path id="SimHei-4ee4" d="M 5375 2075 
L 5375 1550 
Q 4925 1325 4450 937 
Q 3975 550 3575 125 
L 4250 -325 
Q 4050 -550 3875 -775 
Q 3100 -125 1850 425 
L 2150 875 
Q 2400 775 3125 350 
Q 3800 1025 4450 1625 
L 2025 1625 
Q 1500 1625 975 1600 
L 975 2100 
Q 1525 2075 2025 2075 
L 5375 2075 
z
M 3375 4850 
Q 4450 3550 6200 2900 
Q 5950 2625 5800 2350 
Q 4150 3150 3100 4475 
Q 2075 3125 625 2225 
Q 400 2525 200 2700 
Q 875 2975 1675 3675 
Q 2475 4375 2950 5300 
Q 3275 5175 3550 5050 
Q 3475 5000 3375 4850 
z
M 2925 3600 
Q 3175 3350 3750 2725 
L 3300 2325 
Q 3050 2700 2550 3225 
Q 2750 3375 2925 3600 
z
" transform="scale(0.015625)"/>
       <path id="SimHei-53f7" d="M 5025 4925 
Q 5000 4550 5000 4075 
Q 5000 3600 5025 3175 
L 1400 3175 
Q 1425 3525 1425 4000 
Q 1425 4500 1400 4925 
L 5025 4925 
z
M 5175 2625 
Q 5650 2625 6025 2650 
L 6025 2200 
Q 5650 2225 5175 2225 
L 2450 2225 
Q 2350 1875 2225 1450 
L 5175 1450 
Q 5100 1050 5062 775 
Q 5025 500 4950 112 
Q 4875 -275 4650 -412 
Q 4425 -550 3225 -625 
Q 3125 -350 2975 -50 
Q 3875 -75 4112 -50 
Q 4350 -25 4425 212 
Q 4500 450 4575 1025 
L 1600 1025 
Q 1825 1625 1950 2225 
L 1350 2225 
Q 825 2225 375 2200 
L 375 2650 
Q 825 2625 1350 2625 
L 5175 2625 
z
M 4525 3575 
L 4525 4525 
L 1900 4525 
L 1900 3575 
L 4525 3575 
z
" transform="scale(0.015625)"/>
      </defs>
      <use xlink:href="#SimHei-6307"/>
      <use xlink:href="#SimHei-4ee4" x="100"/>
      <use xlink:href="#SimHei-884c" x="200"/>
      <use xlink:href="#SimHei-53f7" x="300"/>
      <use xlink:href="#SimHei-20" x="400"/>
      <use xlink:href="#SimHei-4e" x="450"/>
     </g>
    </g>
   </g>
   <g id="patch_7">
    <path d="M 59.121875 450.214277 
L 59.121875 70.876736 
" style="fill: none; stroke: #000000; stroke-width: 0.8; stroke-linejoin: miter; stroke-linecap: square"/>
   </g>
   <g id="patch_8">
    <path d="M 841.224375 450.214277 
L 841.224375 70.876736 
" style="fill: none; stroke: #000000; stroke-width: 0.8; stroke-linejoin: miter; stroke-linecap: square"/>
   </g>
   <g id="patch_9">
    <path d="M 59.121875 450.214277 
L 841.224375 450.214277 
" style="fill: none; stroke: #000000; stroke-width: 0.8; stroke-linejoin: miter; stroke-linecap: square"/>
   </g>
   <g id="patch_10">
    <path d="M 59.121875 70.876736 
L 841.224375 70.876736 
" style="fill: none; stroke: #000000; stroke-width: 0.8; stroke-linejoin: miter; stroke-linecap: square"/>
   </g>
  </g>
 </g>
 <defs>
  <clipPath id="p46ec1e1d97">
   <rect x="59.121875" y="70.876736" width="782.1025" height="379.337541"/>
  </clipPath>
 </defs>
</svg>
