<?xml version="1.0" encoding="utf-8" standalone="no"?>
<!DOCTYPE svg PUBLIC "-//W3C//DTD SVG 1.1//EN"
  "http://www.w3.org/Graphics/SVG/1.1/DTD/svg11.dtd">
<svg xmlns:xlink="http://www.w3.org/1999/xlink" width="1397.41625pt" height="606.367033pt" viewBox="0 0 1397.41625 606.367033" xmlns="http://www.w3.org/2000/svg" version="1.1">
 <metadata>
  <rdf:RDF xmlns:dc="http://purl.org/dc/elements/1.1/" xmlns:cc="http://creativecommons.org/ns#" xmlns:rdf="http://www.w3.org/1999/02/22-rdf-syntax-ns#">
   <cc:Work>
    <dc:type rdf:resource="http://purl.org/dc/dcmitype/StillImage"/>
    <dc:date>2025-12-24T14:43:13.483871</dc:date>
    <dc:format>image/svg+xml</dc:format>
    <dc:creator>
     <cc:Agent>
      <dc:title>Matplotlib v3.10.7, https://matplotlib.org/</dc:title>
     </cc:Agent>
    </dc:creator>
   </cc:Work>
  </rdf:RDF>
 </metadata>
 <defs>
  <style type="text/css">*{stroke-linejoin: round; stroke-linecap: butt}</style>
 </defs>
 <g id="figure_1">
  <g id="patch_1">
   <path d="M -0 606.367033 
L 1397.41625 606.367033 
L 1397.41625 0 
L -0 0 
z
" style="fill: #ffffff"/>
  </g>
  <g id="axes_1">
   <g id="patch_2">
    <path d="M 37.825 564.534221 
L 1390.21625 564.534221 
L 1390.21625 83.290799 
L 37.825 83.290799 
z
" style="fill: #ffffff"/>
   </g>
   <g id="matplotlib.axis_1">
    <g id="xtick_1">
     <g id="line2d_1">
      <path d="M 129.086376 564.534221 
L 129.086376 83.290799 
" clip-path="url(#paab72c8eb1)" style="fill: none; stroke-dasharray: 1.85,0.8; stroke-dashoffset: 0; stroke: #b0b0b0; stroke-opacity: 0.3; stroke-width: 0.5"/>
     </g>
     <g id="line2d_2">
      <defs>
       <path id="mde2774135d" d="M 0 0 
L 0 3.5 
" style="stroke: #333333; stroke-width: 0.8"/>
      </defs>
      <g>
       <use xlink:href="#mde2774135d" x="129.086376" y="564.534221" style="fill: #333333; stroke: #333333; stroke-width: 0.8"/>
      </g>
     </g>
     <g id="text_1">
      <!-- 0 -->
      <g style="fill: #333333" transform="translate(125.836376 580.471721) scale(0.13 -0.13)">
       <defs>
        <path id="SimHei-30" d="M 225 2537 
Q 250 3200 412 3587 
Q 575 3975 875 4225 
Q 1175 4475 1612 4475 
Q 2050 4475 2375 4112 
Q 2700 3750 2800 3200 
Q 2900 2650 2862 1937 
Q 2825 1225 2612 775 
Q 2400 325 1975 150 
Q 1550 -25 1125 187 
Q 700 400 525 750 
Q 350 1100 275 1487 
Q 200 1875 225 2537 
z
M 750 2687 
Q 675 2000 800 1462 
Q 925 925 1212 700 
Q 1500 475 1800 612 
Q 2100 750 2237 1162 
Q 2375 1575 2375 2062 
Q 2375 2550 2337 2950 
Q 2300 3350 2112 3675 
Q 1925 4000 1612 4012 
Q 1300 4025 1062 3700 
Q 825 3375 750 2687 
z
" transform="scale(0.015625)"/>
       </defs>
       <use xlink:href="#SimHei-30"/>
      </g>
     </g>
    </g>
    <g id="xtick_2">
     <g id="line2d_3">
      <path d="M 311.916328 564.534221 
L 311.916328 83.290799 
" clip-path="url(#paab72c8eb1)" style="fill: none; stroke-dasharray: 1.85,0.8; stroke-dashoffset: 0; stroke: #b0b0b0; stroke-opacity: 0.3; stroke-width: 0.5"/>
     </g>
     <g id="line2d_4">
      <g>
       <use xlink:href="#mde2774135d" x="311.916328" y="564.534221" style="fill: #333333; stroke: #333333; stroke-width: 0.8"/>
      </g>
     </g>
     <g id="text_2">
      <!-- 5000 -->
      <g style="fill: #333333" transform="translate(298.916328 580.471721) scale(0.13 -0.13)">
       <defs>
        <path id="SimHei-35" d="M 550 1325 
Q 725 650 1150 575 
Q 1575 500 1837 662 
Q 2100 825 2212 1087 
Q 2325 1350 2312 1675 
Q 2300 2000 2137 2225 
Q 1975 2450 1725 2525 
Q 1475 2600 1162 2525 
Q 850 2450 650 2175 
L 225 2225 
Q 275 2375 700 4375 
L 2675 4375 
L 2675 3925 
L 1075 3925 
Q 950 3250 825 2850 
Q 1200 3025 1525 3012 
Q 1850 3000 2150 2862 
Q 2450 2725 2587 2487 
Q 2725 2250 2787 2012 
Q 2850 1775 2837 1500 
Q 2825 1225 2725 937 
Q 2625 650 2425 462 
Q 2225 275 1937 162 
Q 1650 50 1275 75 
Q 900 100 562 350 
Q 225 600 100 1200 
L 550 1325 
z
" transform="scale(0.015625)"/>
       </defs>
       <use xlink:href="#SimHei-35"/>
       <use xlink:href="#SimHei-30" transform="translate(50 0)"/>
       <use xlink:href="#SimHei-30" transform="translate(100 0)"/>
       <use xlink:href="#SimHei-30" transform="translate(150 0)"/>
      </g>
     </g>
    </g>
    <g id="xtick_3">
     <g id="line2d_5">
      <path d="M 494.746279 564.534221 
L 494.746279 83.290799 
" clip-path="url(#paab72c8eb1)" style="fill: none; stroke-dasharray: 1.85,0.8; stroke-dashoffset: 0; stroke: #b0b0b0; stroke-opacity: 0.3; stroke-width: 0.5"/>
     </g>
     <g id="line2d_6">
      <g>
       <use xlink:href="#mde2774135d" x="494.746279" y="564.534221" style="fill: #333333; stroke: #333333; stroke-width: 0.8"/>
      </g>
     </g>
     <g id="text_3">
      <!-- 10000 -->
      <g style="fill: #333333" transform="translate(478.496279 580.471721) scale(0.13 -0.13)">
       <defs>
        <path id="SimHei-31" d="M 1400 3600 
Q 1075 3275 575 2975 
L 575 3450 
Q 1200 3875 1600 4450 
L 1900 4450 
L 1900 150 
L 1400 150 
L 1400 3600 
z
" transform="scale(0.015625)"/>
       </defs>
       <use xlink:href="#SimHei-31"/>
       <use xlink:href="#SimHei-30" transform="translate(50 0)"/>
       <use xlink:href="#SimHei-30" transform="translate(100 0)"/>
       <use xlink:href="#SimHei-30" transform="translate(150 0)"/>
       <use xlink:href="#SimHei-30" transform="translate(200 0)"/>
      </g>
     </g>
    </g>
    <g id="xtick_4">
     <g id="line2d_7">
      <path d="M 677.57623 564.534221 
L 677.57623 83.290799 
" clip-path="url(#paab72c8eb1)" style="fill: none; stroke-dasharray: 1.85,0.8; stroke-dashoffset: 0; stroke: #b0b0b0; stroke-opacity: 0.3; stroke-width: 0.5"/>
     </g>
     <g id="line2d_8">
      <g>
       <use xlink:href="#mde2774135d" x="677.57623" y="564.534221" style="fill: #333333; stroke: #333333; stroke-width: 0.8"/>
      </g>
     </g>
     <g id="text_4">
      <!-- 15000 -->
      <g style="fill: #333333" transform="translate(661.32623 580.471721) scale(0.13 -0.13)">
       <use xlink:href="#SimHei-31"/>
       <use xlink:href="#SimHei-35" transform="translate(50 0)"/>
       <use xlink:href="#SimHei-30" transform="translate(100 0)"/>
       <use xlink:href="#SimHei-30" transform="translate(150 0)"/>
       <use xlink:href="#SimHei-30" transform="translate(200 0)"/>
      </g>
     </g>
    </g>
    <g id="xtick_5">
     <g id="line2d_9">
      <path d="M 860.406182 564.534221 
L 860.406182 83.290799 
" clip-path="url(#paab72c8eb1)" style="fill: none; stroke-dasharray: 1.85,0.8; stroke-dashoffset: 0; stroke: #b0b0b0; stroke-opacity: 0.3; stroke-width: 0.5"/>
     </g>
     <g id="line2d_10">
      <g>
       <use xlink:href="#mde2774135d" x="860.406182" y="564.534221" style="fill: #333333; stroke: #333333; stroke-width: 0.8"/>
      </g>
     </g>
     <g id="text_5">
      <!-- 20000 -->
      <g style="fill: #333333" transform="translate(844.156182 580.471721) scale(0.13 -0.13)">
       <defs>
        <path id="SimHei-32" d="M 300 250 
Q 325 625 650 925 
Q 975 1225 1475 1862 
Q 1975 2500 2125 2850 
Q 2275 3200 2237 3450 
Q 2200 3700 2000 3862 
Q 1800 4025 1537 4000 
Q 1275 3975 1037 3800 
Q 800 3625 675 3275 
L 200 3350 
Q 400 3925 712 4187 
Q 1025 4450 1450 4475 
Q 1700 4500 1900 4462 
Q 2100 4425 2312 4287 
Q 2525 4150 2662 3875 
Q 2800 3600 2762 3212 
Q 2725 2825 2375 2287 
Q 2025 1750 1025 600 
L 2825 600 
L 2825 150 
L 300 150 
L 300 250 
z
" transform="scale(0.015625)"/>
       </defs>
       <use xlink:href="#SimHei-32"/>
       <use xlink:href="#SimHei-30" transform="translate(50 0)"/>
       <use xlink:href="#SimHei-30" transform="translate(100 0)"/>
       <use xlink:href="#SimHei-30" transform="translate(150 0)"/>
       <use xlink:href="#SimHei-30" transform="translate(200 0)"/>
      </g>
     </g>
    </g>
    <g id="xtick_6">
     <g id="line2d_11">
      <path d="M 1043.236133 564.534221 
L 1043.236133 83.290799 
" clip-path="url(#paab72c8eb1)" style="fill: none; stroke-dasharray: 1.85,0.8; stroke-dashoffset: 0; stroke: #b0b0b0; stroke-opacity: 0.3; stroke-width: 0.5"/>
     </g>
     <g id="line2d_12">
      <g>
       <use xlink:href="#mde2774135d" x="1043.236133" y="564.534221" style="fill: #333333; stroke: #333333; stroke-width: 0.8"/>
      </g>
     </g>
     <g id="text_6">
      <!-- 25000 -->
      <g style="fill: #333333" transform="translate(1026.986133 580.471721) scale(0.13 -0.13)">
       <use xlink:href="#SimHei-32"/>
       <use xlink:href="#SimHei-35" transform="translate(50 0)"/>
       <use xlink:href="#SimHei-30" transform="translate(100 0)"/>
       <use xlink:href="#SimHei-30" transform="translate(150 0)"/>
       <use xlink:href="#SimHei-30" transform="translate(200 0)"/>
      </g>
     </g>
    </g>
    <g id="xtick_7">
     <g id="line2d_13">
      <path d="M 1226.066084 564.534221 
L 1226.066084 83.290799 
" clip-path="url(#paab72c8eb1)" style="fill: none; stroke-dasharray: 1.85,0.8; stroke-dashoffset: 0; stroke: #b0b0b0; stroke-opacity: 0.3; stroke-width: 0.5"/>
     </g>
     <g id="line2d_14">
      <g>
       <use xlink:href="#mde2774135d" x="1226.066084" y="564.534221" style="fill: #333333; stroke: #333333; stroke-width: 0.8"/>
      </g>
     </g>
     <g id="text_7">
      <!-- 30000 -->
      <g style="fill: #333333" transform="translate(1209.816084 580.471721) scale(0.13 -0.13)">
       <defs>
        <path id="SimHei-33" d="M 250 1225 
L 700 1300 
Q 800 975 1025 762 
Q 1250 550 1587 562 
Q 1925 575 2125 837 
Q 2325 1100 2300 1437 
Q 2275 1775 2037 1962 
Q 1800 2150 1275 2225 
L 1275 2550 
Q 1800 2600 2037 2825 
Q 2275 3050 2250 3412 
Q 2225 3775 1925 3937 
Q 1625 4100 1287 3975 
Q 950 3850 750 3275 
L 300 3350 
Q 450 3800 712 4100 
Q 975 4400 1425 4450 
Q 1875 4500 2212 4337 
Q 2550 4175 2687 3837 
Q 2825 3500 2725 3100 
Q 2625 2700 2150 2400 
Q 2500 2250 2687 1950 
Q 2875 1650 2812 1162 
Q 2750 675 2375 375 
Q 2000 75 1525 87 
Q 1050 100 700 387 
Q 350 675 250 1225 
z
" transform="scale(0.015625)"/>
       </defs>
       <use xlink:href="#SimHei-33"/>
       <use xlink:href="#SimHei-30" transform="translate(50 0)"/>
       <use xlink:href="#SimHei-30" transform="translate(100 0)"/>
       <use xlink:href="#SimHei-30" transform="translate(150 0)"/>
       <use xlink:href="#SimHei-30" transform="translate(200 0)"/>
      </g>
     </g>
    </g>
    <g id="text_8">
     <!-- 行程 s (mm) -->
     <g style="fill: #333333" transform="translate(675.520625 597.417033) scale(0.14 -0.14)">
      <defs>
       <path id="SimHei-884c" d="M 5300 3100 
Q 5775 3100 6175 3125 
L 6175 2625 
Q 5775 2650 5325 2650 
L 4975 2650 
L 4975 -75 
Q 5000 -375 4787 -487 
Q 4575 -600 3950 -675 
Q 3900 -375 3675 -75 
Q 4100 -125 4275 -112 
Q 4450 -100 4475 150 
L 4475 2650 
L 3475 2650 
Q 3000 2650 2575 2625 
L 2575 3125 
Q 3025 3100 3475 3100 
L 5300 3100 
z
M 2300 3400 
Q 2075 3275 1962 3075 
Q 1850 2875 1650 2575 
L 1650 325 
Q 1650 0 1675 -675 
L 1150 -675 
Q 1175 75 1175 450 
L 1175 2050 
Q 950 1675 575 1300 
Q 400 1550 250 1725 
Q 825 2275 1150 2775 
Q 1475 3275 1725 3725 
Q 1975 3575 2300 3400 
z
M 4875 4800 
Q 5300 4800 5750 4825 
L 5750 4350 
Q 5300 4375 4825 4375 
L 3900 4375 
Q 3350 4375 2950 4350 
L 2950 4825 
Q 3350 4800 3900 4800 
L 4875 4800 
z
M 2075 4925 
Q 1875 4900 1550 4387 
Q 1225 3875 650 3250 
Q 500 3450 325 3625 
Q 725 4025 1050 4487 
Q 1375 4950 1525 5300 
Q 1775 5150 2075 4925 
z
" transform="scale(0.015625)"/>
       <path id="SimHei-7a0b" d="M 5825 4975 
Q 5800 4425 5800 3975 
Q 5800 3550 5825 3125 
L 3025 3125 
Q 3050 3600 3050 4025 
Q 3050 4450 3025 4975 
L 5825 4975 
z
M 400 4825 
Q 825 4875 1362 4987 
Q 1900 5100 2275 5275 
Q 2450 4950 2625 4725 
Q 2450 4750 2262 4712 
Q 2075 4675 1850 4650 
L 1850 3425 
Q 2200 3425 2600 3450 
L 2600 2975 
Q 2200 3000 1850 3000 
L 1850 800 
Q 1850 250 1875 -675 
L 1375 -675 
Q 1400 250 1400 775 
L 1400 1925 
Q 1050 1225 625 600 
Q 450 850 225 1050 
Q 575 1400 850 1850 
Q 1125 2300 1350 3000 
Q 725 3000 425 2975 
L 425 3450 
Q 850 3425 1050 3425 
L 1400 3425 
L 1400 4550 
Q 1075 4475 575 4400 
Q 500 4625 400 4825 
z
M 5100 2500 
Q 5500 2500 5950 2525 
L 5950 2075 
Q 5500 2100 5100 2100 
L 4625 2100 
L 4625 1300 
L 4900 1300 
Q 5275 1300 5775 1325 
L 5775 850 
Q 5275 875 4975 875 
L 4625 875 
L 4625 0 
L 5225 0 
Q 5675 0 6175 25 
L 6175 -450 
Q 5775 -425 5225 -425 
L 3550 -425 
Q 3000 -425 2600 -475 
L 2600 25 
Q 3000 0 3550 0 
L 4150 0 
L 4150 875 
L 3800 875 
Q 3400 875 3050 825 
L 3050 1325 
Q 3400 1300 3800 1300 
L 4150 1300 
L 4150 2100 
L 3750 2100 
Q 3300 2100 2900 2075 
L 2900 2525 
Q 3300 2500 3750 2500 
L 5100 2500 
z
M 5275 3575 
L 5275 4550 
L 3500 4550 
L 3500 3575 
L 5275 3575 
z
M 2300 2400 
Q 2550 2025 2825 1525 
Q 2675 1425 2425 1225 
Q 2175 1775 1925 2125 
Q 2075 2250 2300 2400 
z
" transform="scale(0.015625)"/>
       <path id="SimHei-20" transform="scale(0.015625)"/>
       <path id="SimHei-73" d="M 2750 900 
Q 2750 500 2437 287 
Q 2125 75 1650 75 
Q 1050 75 725 312 
Q 400 550 400 1000 
L 900 1000 
Q 900 700 1112 600 
Q 1325 500 1625 500 
Q 1925 500 2075 612 
Q 2225 725 2225 900 
Q 2225 1025 2100 1150 
Q 1975 1275 1475 1350 
Q 900 1425 687 1637 
Q 475 1850 475 2200 
Q 475 2500 762 2737 
Q 1050 2975 1600 2975 
Q 2100 2975 2387 2750 
Q 2675 2525 2675 2150 
L 2175 2150 
Q 2175 2375 2012 2462 
Q 1850 2550 1600 2550 
Q 1275 2550 1137 2437 
Q 1000 2325 1000 2175 
Q 1000 2000 1125 1900 
Q 1250 1800 1650 1750 
Q 2300 1650 2525 1437 
Q 2750 1225 2750 900 
z
" transform="scale(0.015625)"/>
       <path id="SimHei-28" d="M 2975 -200 
L 2700 -475 
Q 2075 125 1762 775 
Q 1450 1425 1450 2250 
Q 1450 3075 1762 3725 
Q 2075 4375 2700 5000 
L 2975 4725 
Q 2400 4175 2112 3587 
Q 1825 3000 1825 2250 
Q 1825 1500 2112 912 
Q 2400 325 2975 -200 
z
" transform="scale(0.015625)"/>
       <path id="SimHei-6d" d="M 3050 125 
L 2550 125 
L 2550 2150 
Q 2550 2300 2500 2400 
Q 2450 2500 2300 2500 
Q 2125 2500 1975 2312 
Q 1825 2125 1825 1825 
L 1825 125 
L 1325 125 
L 1325 2150 
Q 1325 2300 1275 2400 
Q 1225 2500 1075 2500 
Q 900 2500 750 2312 
Q 600 2125 600 1825 
L 600 125 
L 100 125 
L 100 2925 
L 600 2925 
L 600 2550 
Q 725 2750 900 2862 
Q 1075 2975 1275 2975 
Q 1475 2975 1612 2862 
Q 1750 2750 1800 2550 
Q 1925 2750 2087 2862 
Q 2250 2975 2450 2975 
Q 2750 2975 2900 2812 
Q 3050 2650 3050 2350 
L 3050 125 
z
" transform="scale(0.015625)"/>
       <path id="SimHei-29" d="M 1675 2250 
Q 1675 1425 1362 775 
Q 1050 125 425 -475 
L 150 -200 
Q 725 325 1012 912 
Q 1300 1500 1300 2250 
Q 1300 3000 1012 3587 
Q 725 4175 150 4725 
L 425 5000 
Q 1050 4375 1362 3725 
Q 1675 3075 1675 2250 
z
" transform="scale(0.015625)"/>
      </defs>
      <use xlink:href="#SimHei-884c"/>
      <use xlink:href="#SimHei-7a0b" transform="translate(100 0)"/>
      <use xlink:href="#SimHei-20" transform="translate(200 0)"/>
      <use xlink:href="#SimHei-73" transform="translate(250 0)"/>
      <use xlink:href="#SimHei-20" transform="translate(300 0)"/>
      <use xlink:href="#SimHei-28" transform="translate(350 0)"/>
      <use xlink:href="#SimHei-6d" transform="translate(400 0)"/>
      <use xlink:href="#SimHei-6d" transform="translate(450 0)"/>
      <use xlink:href="#SimHei-29" transform="translate(500 0)"/>
     </g>
    </g>
   </g>
   <g id="matplotlib.axis_2">
    <g id="ytick_1">
     <g id="line2d_15">
      <path d="M 37.825 526.253494 
L 1390.21625 526.253494 
" clip-path="url(#paab72c8eb1)" style="fill: none; stroke-dasharray: 1.85,0.8; stroke-dashoffset: 0; stroke: #b0b0b0; stroke-opacity: 0.3; stroke-width: 0.5"/>
     </g>
     <g id="line2d_16">
      <defs>
       <path id="mdbf5deb571" d="M 0 0 
L -3.5 0 
" style="stroke: #333333; stroke-width: 0.8"/>
      </defs>
      <g>
       <use xlink:href="#mdbf5deb571" x="37.825" y="526.253494" style="fill: #333333; stroke: #333333; stroke-width: 0.8"/>
      </g>
     </g>
     <g id="text_9">
      <!-- 0 -->
      <g style="fill: #333333" transform="translate(24.325 530.722244) scale(0.13 -0.13)">
       <use xlink:href="#SimHei-30"/>
      </g>
     </g>
    </g>
    <g id="ytick_2">
     <g id="line2d_17">
      <path d="M 37.825 435.108906 
L 1390.21625 435.108906 
" clip-path="url(#paab72c8eb1)" style="fill: none; stroke-dasharray: 1.85,0.8; stroke-dashoffset: 0; stroke: #b0b0b0; stroke-opacity: 0.3; stroke-width: 0.5"/>
     </g>
     <g id="line2d_18">
      <g>
       <use xlink:href="#mdbf5deb571" x="37.825" y="435.108906" style="fill: #333333; stroke: #333333; stroke-width: 0.8"/>
      </g>
     </g>
     <g id="text_10">
      <!-- 1 -->
      <g style="fill: #333333" transform="translate(24.325 439.577656) scale(0.13 -0.13)">
       <use xlink:href="#SimHei-31"/>
      </g>
     </g>
    </g>
    <g id="ytick_3">
     <g id="line2d_19">
      <path d="M 37.825 343.964319 
L 1390.21625 343.964319 
" clip-path="url(#paab72c8eb1)" style="fill: none; stroke-dasharray: 1.85,0.8; stroke-dashoffset: 0; stroke: #b0b0b0; stroke-opacity: 0.3; stroke-width: 0.5"/>
     </g>
     <g id="line2d_20">
      <g>
       <use xlink:href="#mdbf5deb571" x="37.825" y="343.964319" style="fill: #333333; stroke: #333333; stroke-width: 0.8"/>
      </g>
     </g>
     <g id="text_11">
      <!-- 2 -->
      <g style="fill: #333333" transform="translate(24.325 348.433069) scale(0.13 -0.13)">
       <use xlink:href="#SimHei-32"/>
      </g>
     </g>
    </g>
    <g id="ytick_4">
     <g id="line2d_21">
      <path d="M 37.825 252.819731 
L 1390.21625 252.819731 
" clip-path="url(#paab72c8eb1)" style="fill: none; stroke-dasharray: 1.85,0.8; stroke-dashoffset: 0; stroke: #b0b0b0; stroke-opacity: 0.3; stroke-width: 0.5"/>
     </g>
     <g id="line2d_22">
      <g>
       <use xlink:href="#mdbf5deb571" x="37.825" y="252.819731" style="fill: #333333; stroke: #333333; stroke-width: 0.8"/>
      </g>
     </g>
     <g id="text_12">
      <!-- 3 -->
      <g style="fill: #333333" transform="translate(24.325 257.288481) scale(0.13 -0.13)">
       <use xlink:href="#SimHei-33"/>
      </g>
     </g>
    </g>
    <g id="ytick_5">
     <g id="line2d_23">
      <path d="M 37.825 161.675144 
L 1390.21625 161.675144 
" clip-path="url(#paab72c8eb1)" style="fill: none; stroke-dasharray: 1.85,0.8; stroke-dashoffset: 0; stroke: #b0b0b0; stroke-opacity: 0.3; stroke-width: 0.5"/>
     </g>
     <g id="line2d_24">
      <g>
       <use xlink:href="#mdbf5deb571" x="37.825" y="161.675144" style="fill: #333333; stroke: #333333; stroke-width: 0.8"/>
      </g>
     </g>
     <g id="text_13">
      <!-- 4 -->
      <g style="fill: #333333" transform="translate(24.325 166.143894) scale(0.13 -0.13)">
       <defs>
        <path id="SimHei-34" d="M 2000 1100 
L 75 1100 
L 75 1525 
L 2100 4450 
L 2475 4450 
L 2475 1525 
L 3075 1525 
L 3075 1100 
L 2475 1100 
L 2475 150 
L 2000 150 
L 2000 1100 
z
M 2000 1525 
L 2000 3500 
L 600 1525 
L 2000 1525 
z
" transform="scale(0.015625)"/>
       </defs>
       <use xlink:href="#SimHei-34"/>
      </g>
     </g>
    </g>
    <g id="text_14">
     <!-- 切宽 ae (mm) -->
     <g style="fill: #333333" transform="translate(18.575 365.91251) rotate(-90) scale(0.14 -0.14)">
      <defs>
       <path id="SimHei-5207" d="M 4200 125 
Q 4875 125 5037 187 
Q 5200 250 5225 525 
L 5400 4175 
L 4250 4175 
Q 4275 2875 4075 1987 
Q 3875 1100 3500 575 
Q 3125 50 2425 -575 
Q 2275 -375 1900 -250 
Q 2550 200 2937 675 
Q 3325 1150 3550 1925 
Q 3775 2700 3750 4175 
Q 3200 4175 2700 4150 
L 2700 4600 
Q 3175 4575 3625 4575 
L 5900 4575 
Q 5875 4200 5850 3700 
L 5700 325 
Q 5625 -250 5312 -337 
Q 5000 -425 4450 -525 
Q 4400 -200 4200 125 
z
M 1175 4275 
Q 1175 4625 1150 5000 
L 1650 5000 
Q 1625 4625 1625 4300 
L 1625 3275 
Q 2150 3350 2700 3425 
Q 2725 3150 2750 2975 
Q 2325 2925 1625 2850 
L 1625 1050 
Q 2325 1475 2650 1750 
Q 2725 1550 2875 1300 
Q 2325 975 1225 200 
Q 1075 500 925 650 
Q 1175 850 1175 1125 
L 1175 2775 
Q 675 2725 325 2675 
Q 300 2975 275 3150 
Q 650 3175 1175 3225 
L 1175 4275 
z
" transform="scale(0.015625)"/>
       <path id="SimHei-5bbd" d="M 2225 3525 
Q 2225 3700 2200 3925 
L 2700 3925 
Q 2675 3700 2675 3525 
L 3650 3525 
Q 3650 3675 3625 3950 
L 4125 3950 
Q 4100 3675 4100 3525 
Q 4625 3525 5100 3550 
L 5100 3075 
Q 4575 3125 4100 3125 
L 4100 2475 
L 5025 2475 
Q 5000 2175 5000 1875 
L 5000 1475 
Q 5000 1225 5025 825 
L 4525 825 
L 4525 2100 
L 1800 2100 
L 1800 750 
L 1300 750 
Q 1325 1200 1325 1450 
L 1325 1850 
Q 1325 2175 1300 2475 
L 2225 2475 
L 2225 3125 
L 1875 3125 
Q 1700 3125 1225 3050 
L 1225 3550 
Q 1700 3525 1875 3525 
L 2225 3525 
z
M 5375 3500 
L 5375 4175 
L 950 4175 
L 950 3400 
L 425 3400 
Q 450 3725 450 3950 
Q 450 4200 425 4575 
L 3025 4575 
Q 2975 4700 2725 5125 
Q 3050 5200 3300 5300 
Q 3500 4900 3625 4575 
L 5900 4575 
Q 5875 4250 5875 3975 
Q 5875 3700 5900 3500 
L 5375 3500 
z
M 3325 1825 
Q 3100 900 2850 462 
Q 2600 25 2112 -237 
Q 1625 -500 650 -700 
Q 550 -350 400 -100 
Q 1025 -75 1450 37 
Q 1875 150 2150 387 
Q 2425 625 2550 987 
Q 2675 1350 2725 1950 
Q 3100 1850 3325 1825 
z
M 3975 1250 
Q 3950 925 3950 675 
L 3950 150 
Q 3950 -75 4200 -100 
L 4950 -100 
Q 5250 -100 5400 0 
Q 5550 100 5650 550 
Q 5875 400 6125 300 
Q 5925 -500 5175 -525 
L 4025 -525 
Q 3500 -500 3450 -25 
L 3450 725 
Q 3450 925 3425 1250 
L 3975 1250 
z
M 3650 2475 
L 3650 3125 
L 2675 3125 
L 2675 2475 
L 3650 2475 
z
" transform="scale(0.015625)"/>
       <path id="SimHei-61" d="M 2875 125 
L 2275 125 
Q 2225 175 2200 262 
Q 2175 350 2175 475 
Q 2000 275 1750 175 
Q 1500 75 1225 75 
Q 825 75 550 275 
Q 275 475 275 850 
Q 275 1225 525 1450 
Q 775 1675 1300 1750 
Q 1650 1800 1912 1875 
Q 2175 1950 2175 2075 
Q 2175 2225 2062 2375 
Q 1950 2525 1575 2525 
Q 1275 2525 1137 2412 
Q 1000 2300 950 2100 
L 400 2100 
Q 450 2500 762 2737 
Q 1075 2975 1575 2975 
Q 2125 2975 2400 2725 
Q 2675 2475 2675 2025 
L 2675 650 
Q 2675 500 2725 375 
Q 2775 250 2875 125 
z
M 2175 1050 
L 2175 1550 
Q 2025 1500 1887 1462 
Q 1750 1425 1425 1375 
Q 1050 1325 937 1200 
Q 825 1075 825 900 
Q 825 750 937 637 
Q 1050 525 1275 525 
Q 1500 525 1762 650 
Q 2025 775 2175 1050 
z
" transform="scale(0.015625)"/>
       <path id="SimHei-65" d="M 2850 1075 
Q 2800 625 2450 350 
Q 2100 75 1625 75 
Q 1025 75 637 462 
Q 250 850 250 1525 
Q 250 2200 637 2587 
Q 1025 2975 1625 2975 
Q 2150 2975 2487 2637 
Q 2825 2300 2825 1525 
L 800 1525 
Q 800 975 1037 750 
Q 1275 525 1625 525 
Q 1900 525 2075 662 
Q 2250 800 2300 1075 
L 2850 1075 
z
M 2250 1925 
Q 2200 2275 2025 2412 
Q 1850 2550 1575 2550 
Q 1325 2550 1125 2412 
Q 925 2275 825 1925 
L 2250 1925 
z
" transform="scale(0.015625)"/>
      </defs>
      <use xlink:href="#SimHei-5207"/>
      <use xlink:href="#SimHei-5bbd" transform="translate(100 0)"/>
      <use xlink:href="#SimHei-20" transform="translate(200 0)"/>
      <use xlink:href="#SimHei-61" transform="translate(250 0)"/>
      <use xlink:href="#SimHei-65" transform="translate(300 0)"/>
      <use xlink:href="#SimHei-20" transform="translate(350 0)"/>
      <use xlink:href="#SimHei-28" transform="translate(400 0)"/>
      <use xlink:href="#SimHei-6d" transform="translate(450 0)"/>
      <use xlink:href="#SimHei-6d" transform="translate(500 0)"/>
      <use xlink:href="#SimHei-29" transform="translate(550 0)"/>
     </g>
    </g>
   </g>
   <g id="patch_3">
    <path d="M 37.825 564.534221 
L 37.825 83.290799 
" style="fill: none; stroke: #000000; stroke-width: 0.8; stroke-linejoin: miter; stroke-linecap: square"/>
   </g>
   <g id="patch_4">
    <path d="M 1390.21625 564.534221 
L 1390.21625 83.290799 
" style="fill: none; stroke: #000000; stroke-width: 0.8; stroke-linejoin: miter; stroke-linecap: square"/>
   </g>
   <g id="patch_5">
    <path d="M 37.825 564.534221 
L 1390.21625 564.534221 
" style="fill: none; stroke: #000000; stroke-width: 0.8; stroke-linejoin: miter; stroke-linecap: square"/>
   </g>
   <g id="patch_6">
    <path d="M 37.825 83.290799 
L 1390.21625 83.290799 
" style="fill: none; stroke: #000000; stroke-width: 0.8; stroke-linejoin: miter; stroke-linecap: square"/>
   </g>
   <g id="text_15">
    <!-- 切宽变化 -->
    <g style="fill: #333333" transform="translate(678.020625 21.825) scale(0.18 -0.18)">
     <defs>
      <path id="SimHei-53d8" d="M 5200 1975 
Q 4950 1600 4537 1137 
Q 4125 675 3675 375 
Q 3925 225 4600 87 
Q 5275 -50 6000 -75 
Q 5700 -400 5650 -625 
Q 4850 -525 4212 -312 
Q 3575 -100 3225 125 
Q 2800 -125 2150 -325 
Q 1500 -525 700 -675 
Q 600 -425 400 -175 
Q 950 -150 1687 12 
Q 2425 175 2825 375 
Q 2275 775 1675 1575 
Q 1350 1575 1000 1550 
L 1000 2000 
Q 1450 1975 2075 1975 
L 5200 1975 
z
M 3225 5275 
Q 3400 4900 3550 4475 
L 4675 4475 
Q 5400 4475 5975 4500 
L 5975 4025 
Q 5375 4050 4725 4050 
L 4125 4050 
L 4125 2950 
Q 4125 2550 4150 2150 
L 3600 2150 
Q 3625 2550 3625 2950 
L 3625 4050 
L 2750 4050 
L 2750 2950 
Q 2750 2675 2775 2150 
L 2225 2150 
Q 2250 2675 2250 2950 
L 2250 4050 
L 1700 4050 
Q 975 4050 425 4025 
L 425 4500 
Q 950 4475 1700 4475 
L 2975 4475 
Q 2925 4675 2700 5125 
Q 2950 5150 3225 5275 
z
M 2200 1575 
Q 2650 975 3250 600 
Q 3850 1000 4275 1575 
L 2200 1575 
z
M 4850 3750 
Q 5375 3275 5950 2675 
Q 5750 2525 5500 2300 
Q 5075 2800 4450 3400 
Q 4675 3575 4850 3750 
z
M 1825 3500 
Q 1700 3375 1425 3025 
Q 1150 2675 825 2300 
Q 575 2475 375 2600 
Q 975 3150 1300 3825 
Q 1525 3650 1825 3500 
z
" transform="scale(0.015625)"/>
      <path id="SimHei-5316" d="M 3925 5025 
Q 3900 4900 3900 4400 
L 3900 2625 
Q 4375 3025 4775 3450 
Q 5175 3875 5400 4300 
Q 5600 4100 5900 3925 
Q 5700 3700 5225 3212 
Q 4750 2725 4487 2512 
Q 4225 2300 3900 2025 
L 3900 450 
Q 3900 50 4225 50 
L 5200 50 
Q 5400 75 5462 262 
Q 5525 450 5575 850 
Q 5800 650 6150 600 
Q 6000 -100 5825 -250 
Q 5650 -400 5350 -400 
L 3950 -400 
Q 3425 -400 3400 200 
L 3400 1675 
Q 3225 1525 2962 1350 
Q 2700 1175 2375 975 
Q 2225 1225 2025 1400 
Q 2350 1550 2737 1787 
Q 3125 2025 3400 2250 
L 3400 4500 
Q 3400 4800 3375 5025 
L 3925 5025 
z
M 2400 4850 
Q 2175 4550 2075 4337 
Q 1975 4125 1825 3775 
L 1825 675 
Q 1825 -75 1850 -550 
L 1325 -550 
Q 1350 -125 1350 650 
L 1350 3050 
Q 1125 2725 962 2525 
Q 800 2325 675 2175 
Q 500 2375 275 2525 
Q 625 2850 875 3212 
Q 1125 3575 1312 3912 
Q 1500 4250 1625 4575 
Q 1750 4900 1825 5100 
Q 1975 4975 2400 4850 
z
" transform="scale(0.015625)"/>
     </defs>
     <use xlink:href="#SimHei-5207"/>
     <use xlink:href="#SimHei-5bbd" transform="translate(100 0)"/>
     <use xlink:href="#SimHei-53d8" transform="translate(200 0)"/>
     <use xlink:href="#SimHei-5316" transform="translate(300 0)"/>
    </g>
   </g>
   <g id="line2d_25">
    <path d="M 145.401577 526.253494 
L 164.132651 526.253494 
L 164.132651 161.675144 
L 165.117449 161.675144 
L 179.221933 161.675144 
L 179.221933 526.253494 
L 180.221818 161.675144 
L 187.435995 161.675144 
L 187.600542 526.253494 
L 188.429463 161.675144 
L 191.014847 161.675144 
L 191.029423 526.253494 
L 192.005554 416.879989 
L 192.023837 416.879989 
L 192.096969 526.253494 
L 192.597525 161.675144 
L 192.896014 526.253494 
L 194.512516 526.253494 
L 194.5308 161.675144 
L 195.509807 161.675144 
L 197.191822 161.675144 
L 197.465537 526.253494 
L 198.179231 161.675144 
L 203.645786 161.675144 
L 203.846583 526.253494 
L 204.642508 161.675144 
L 204.96524 161.675144 
L 204.983518 526.253494 
L 205.965239 526.253494 
L 206.010456 526.253494 
L 206.028716 161.675144 
L 207.007292 207.218271 
L 207.025031 207.218271 
L 207.078697 161.675144 
L 208.009603 161.675144 
L 210.990626 161.675144 
L 210.990626 201.809752 
L 211.972729 161.675144 
L 212.248621 161.675144 
L 212.259596 526.253494 
L 213.239248 161.675144 
L 215.713582 161.675144 
L 215.72818 526.253494 
L 216.262401 526.253494 
L 219.840019 526.253494 
L 219.877518 161.675144 
L 220.82964 526.253494 
L 221.251578 526.253494 
L 221.324699 161.675144 
L 222.248473 161.675144 
L 224.807993 161.675144 
L 225.061694 526.253494 
L 225.804116 161.675144 
L 225.870815 161.675144 
L 225.901573 526.253494 
L 226.331124 526.253494 
L 231.362005 526.253494 
L 231.380311 161.675144 
L 232.347028 526.253494 
L 233.148103 526.253494 
L 233.184663 161.675144 
L 234.142735 526.253494 
L 234.587411 526.253494 
L 234.653518 482.504092 
L 235.057767 526.253494 
L 236.24041 526.253494 
L 236.331811 161.675144 
L 237.223146 161.675144 
L 239.526796 161.675144 
L 239.756471 522.840968 
L 240.517201 161.675144 
L 240.566682 161.675144 
L 240.581299 526.253494 
L 241.5587 161.675144 
L 241.718112 162.663151 
L 241.876927 453.449658 
L 242.119169 161.675144 
L 242.701963 161.675144 
L 245.006761 161.675144 
L 245.028824 526.253494 
L 246.005815 526.253494 
L 246.166739 526.253494 
L 246.185032 161.675144 
L 247.154763 161.675144 
L 247.701141 161.675144 
L 247.875419 526.253494 
L 248.690955 161.675144 
L 248.837137 161.675144 
L 249.687446 526.253494 
L 249.832784 526.253494 
L 250.552996 526.253494 
L 250.571293 161.675144 
L 251.542255 526.253494 
L 251.560539 526.253494 
L 251.578821 493.713874 
L 252.244902 526.253494 
L 252.773746 526.253494 
L 252.846883 161.675144 
L 253.770194 526.253494 
L 255.957901 526.253494 
L 256.122452 161.675144 
L 256.952326 161.675144 
L 257.456443 161.675144 
L 257.4601 526.253494 
L 258.445505 161.675144 
L 259.373547 161.675144 
L 259.39183 526.253494 
L 260.15218 526.253494 
L 260.645888 526.253494 
L 260.664169 161.675144 
L 261.642618 161.675144 
L 261.865718 161.675144 
L 261.883983 526.253494 
L 262.863855 161.675144 
L 264.032559 161.675144 
L 264.050837 526.253494 
L 265.025565 161.675144 
L 266.415033 161.675144 
L 266.426009 526.253494 
L 267.401813 161.675144 
L 268.97413 161.675144 
L 268.98146 526.253494 
L 269.963195 161.675144 
L 270.959052 161.675144 
L 270.988019 526.253494 
L 271.951943 526.253494 
L 272.826867 526.253494 
L 272.863414 161.675144 
L 273.82108 161.675144 
L 274.150552 161.675144 
L 274.16517 526.253494 
L 275.148996 161.675144 
L 276.310477 161.675144 
L 276.332406 526.253494 
L 277.307354 161.675144 
L 279.077493 161.675144 
L 279.088475 526.253494 
L 280.069164 161.675144 
L 281.767322 161.675144 
L 281.781933 526.253494 
L 282.755268 161.675144 
L 285.362206 161.675144 
L 285.37315 526.253494 
L 286.35739 161.675144 
L 289.467166 161.675144 
L 289.47812 526.253494 
L 290.458107 161.675144 
L 290.963633 161.675144 
L 291.365288 526.253494 
L 291.950344 170.789603 
L 291.968627 170.789603 
L 291.968627 161.675144 
L 292.951814 161.675144 
L 294.027541 161.675144 
L 294.038709 526.253494 
L 295.014978 161.675144 
L 296.752229 161.675144 
L 296.766858 526.253494 
L 297.536144 526.253494 
L 298.029855 526.253494 
L 298.066421 161.675144 
L 299.024766 161.675144 
L 299.74252 161.675144 
L 299.844212 526.253494 
L 300.72027 526.253494 
L 300.917758 526.253494 
L 301.04012 161.675144 
L 301.917282 161.675144 
L 302.530155 161.675144 
L 302.549851 526.253494 
L 303.52587 526.253494 
L 303.599544 526.253494 
L 303.617827 161.675144 
L 304.591397 161.675144 
L 304.933861 161.675144 
L 304.942605 526.253494 
L 305.901978 526.253494 
L 306.067971 526.253494 
L 306.086259 161.675144 
L 307.053293 161.675144 
L 307.270053 161.675144 
L 307.291973 526.253494 
L 308.259112 526.253494 
L 308.277395 526.253494 
L 308.295678 161.675144 
L 309.27304 161.675144 
L 309.431574 161.675144 
L 309.442576 526.253494 
L 310.42544 161.675144 
L 311.41465 161.675144 
L 311.547503 526.253494 
L 312.401289 526.253494 
L 312.419572 526.253494 
L 312.437855 161.675144 
L 313.407047 161.675144 
L 313.528132 161.675144 
L 313.553721 526.253494 
L 314.51356 161.675144 
L 315.456451 161.675144 
L 315.476743 526.253494 
L 316.443347 161.675144 
L 316.664417 161.675144 
L 316.681194 526.253494 
L 317.655474 526.253494 
L 318.445507 526.253494 
L 318.463789 161.675144 
L 319.437209 361.177886 
L 319.454946 361.177886 
L 319.543297 161.675144 
L 319.639258 526.253494 
L 320.41117 526.253494 
L 320.572102 526.253494 
L 320.572102 416.879989 
L 321.558768 526.253494 
L 321.681068 526.253494 
L 321.801235 161.675144 
L 322.676619 526.253494 
L 322.729843 526.253494 
L 323.060485 320.199279 
L 323.716259 526.253494 
L 327.067657 526.253494 
L 327.158582 161.675144 
L 328.062437 526.253494 
L 328.160066 526.253494 
L 328.306221 334.84986 
L 329.147239 526.253494 
L 333.709513 526.253494 
L 333.727787 161.675144 
L 334.705559 526.253494 
L 335.232182 526.253494 
L 335.250465 161.675144 
L 336.229013 526.253494 
L 336.764166 526.253494 
L 336.764166 161.675144 
L 337.753847 526.253494 
L 338.435821 526.253494 
L 338.454104 161.675144 
L 339.420924 526.253494 
L 340.176469 526.253494 
L 340.194749 161.675144 
L 341.160726 161.675144 
L 341.215846 161.675144 
L 341.223149 526.253494 
L 342.213568 161.675144 
L 343.308773 161.675144 
L 343.308773 526.253494 
L 344.30309 161.675144 
L 345.477003 161.675144 
L 345.484299 526.253494 
L 346.474879 161.675144 
L 347.244286 161.675144 
L 347.251409 526.253494 
L 348.24303 526.253494 
L 348.845626 526.253494 
L 348.918747 161.675144 
L 349.843503 526.253494 
L 350.543789 526.253494 
L 350.562072 161.675144 
L 351.542355 526.253494 
L 352.085428 526.253494 
L 352.10368 161.675144 
L 353.078143 526.253494 
L 353.675526 526.253494 
L 353.693809 161.675144 
L 354.6626 526.253494 
L 355.28225 526.253494 
L 355.300556 161.675144 
L 356.279082 161.675144 
L 357.282652 161.675144 
L 357.435554 526.253494 
L 358.272899 526.253494 
L 359.217103 526.253494 
L 359.269296 161.675144 
L 360.209164 500.793165 
L 360.22747 500.793165 
L 360.22747 526.253494 
L 361.192839 526.253494 
L 361.825415 526.253494 
L 361.843721 332.906658 
L 362.618829 526.253494 
L 363.920578 526.253494 
L 364.406705 179.277898 
L 364.916645 526.253494 
L 365.125118 526.253494 
L 365.125118 444.223365 
L 365.91629 526.253494 
L 368.50071 526.253494 
L 368.610392 161.675144 
L 369.497811 526.253494 
L 370.12496 526.253494 
L 370.143266 161.675144 
L 371.081697 526.253494 
L 376.364975 526.253494 
L 376.58377 408.141046 
L 377.359009 526.253494 
L 377.647022 526.198799 
L 378.574512 506.727407 
L 377.866437 526.253494 
L 378.629353 507.055527 
L 378.830462 506.782093 
L 379.046782 415.889247 
L 378.890241 526.253494 
L 379.825956 526.253494 
L 381.240742 526.253494 
L 381.315048 421.882004 
L 382.235213 526.253494 
L 382.491044 526.253494 
L 382.655592 487.256006 
L 383.474 507.00084 
L 383.675108 506.782093 
L 383.780354 422.616629 
L 383.762062 526.253494 
L 384.665996 526.253494 
L 388.907721 526.253494 
L 388.907721 161.675144 
L 389.892518 161.675144 
L 403.997002 161.675144 
L 403.997002 526.253494 
L 404.996887 161.675144 
L 412.211064 161.675144 
L 412.375611 526.253494 
L 413.204532 161.675144 
L 415.789916 161.675144 
L 415.804492 526.253494 
L 416.780623 416.879989 
L 416.798906 416.879989 
L 416.872038 526.253494 
L 417.372594 161.675144 
L 417.671083 526.253494 
L 419.287585 526.253494 
L 419.305869 161.675144 
L 420.284876 161.675144 
L 421.966891 161.675144 
L 422.240606 526.253494 
L 422.9543 161.675144 
L 428.420855 161.675144 
L 428.621652 526.253494 
L 429.417577 161.675144 
L 429.740309 161.675144 
L 429.758587 526.253494 
L 430.740308 526.253494 
L 430.785525 526.253494 
L 430.803785 161.675144 
L 431.782361 207.218271 
L 431.8001 207.218271 
L 431.853766 161.675144 
L 432.784672 161.675144 
L 435.647977 161.675144 
L 435.663165 526.253494 
L 436.643409 161.675144 
L 436.969107 161.675144 
L 436.983725 526.253494 
L 437.963868 161.675144 
L 440.515574 161.675144 
L 440.530211 526.253494 
L 441.073408 526.253494 
L 444.742415 526.253494 
L 444.770227 161.675144 
L 445.738696 526.253494 
L 446.700773 526.253494 
L 446.737359 161.675144 
L 447.697426 526.253494 
L 448.348189 526.253494 
L 448.38475 161.675144 
L 449.21204 526.253494 
L 450.955386 526.253494 
L 450.991934 161.675144 
L 451.944516 161.675144 
L 454.43093 161.675144 
L 454.685115 526.253494 
L 455.42757 161.675144 
L 455.511097 161.675144 
L 455.536576 526.253494 
L 456.505025 354.346599 
L 456.523285 354.346599 
L 456.587979 500.56585 
L 456.891187 161.675144 
L 457.511105 161.675144 
L 459.997918 161.675144 
L 460.021443 526.253494 
L 460.979132 526.253494 
L 461.140066 526.253494 
L 461.158372 161.675144 
L 462.12409 161.675144 
L 464.007059 161.675144 
L 464.947474 526.253494 
L 464.998344 526.253494 
L 465.777098 526.253494 
L 465.795376 161.675144 
L 466.761415 161.675144 
L 467.159797 161.675144 
L 467.170858 526.253494 
L 468.152389 161.675144 
L 469.291006 161.675144 
L 469.309281 526.253494 
L 469.856913 526.253494 
L 472.115797 526.253494 
L 472.210208 161.675144 
L 473.113065 161.675144 
L 473.190208 161.675144 
L 473.201169 526.253494 
L 474.183644 161.675144 
L 474.238564 161.675144 
L 474.238564 526.253494 
L 475.236425 526.253494 
L 476.059554 526.253494 
L 476.112763 484.714713 
L 476.660255 526.253494 
L 478.358954 526.253494 
L 478.634969 161.675144 
L 479.351705 161.675144 
L 479.944006 161.675144 
L 479.965941 526.253494 
L 480.937873 161.675144 
L 481.727945 161.675144 
L 481.746213 526.253494 
L 482.507198 526.253494 
L 483.001739 526.253494 
L 483.020011 161.675144 
L 483.997255 161.675144 
L 484.191891 161.675144 
L 484.206518 526.253494 
L 485.176521 161.675144 
L 486.314607 161.675144 
L 486.329195 526.253494 
L 487.307108 161.675144 
L 488.655717 161.675144 
L 488.666667 526.253494 
L 489.643383 161.675144 
L 491.176568 161.675144 
L 491.202152 526.253494 
L 492.171147 161.675144 
L 493.063257 161.675144 
L 493.093851 526.253494 
L 494.05588 526.253494 
L 494.946953 526.253494 
L 494.965222 161.675144 
L 495.930933 161.675144 
L 496.204171 161.675144 
L 496.207822 526.253494 
L 497.199212 161.675144 
L 498.332398 161.675144 
L 498.35066 526.253494 
L 499.319539 161.675144 
L 501.02088 161.675144 
L 501.042826 526.253494 
L 502.014126 161.675144 
L 503.668607 161.675144 
L 503.683227 526.253494 
L 504.661574 161.675144 
L 507.221065 161.675144 
L 507.232044 526.253494 
L 508.218697 161.675144 
L 511.263058 161.675144 
L 511.285018 526.253494 
L 512.26276 161.675144 
L 512.723276 161.675144 
L 513.183446 526.253494 
L 513.713653 161.675144 
L 515.750291 161.675144 
L 515.757603 526.253494 
L 516.748902 161.675144 
L 518.479619 161.675144 
L 518.739743 526.253494 
L 519.267099 526.253494 
L 519.760844 526.253494 
L 519.79741 161.675144 
L 520.755229 161.675144 
L 521.45535 161.675144 
L 521.57119 526.253494 
L 522.247688 526.253494 
L 522.654889 526.253494 
L 522.771374 161.675144 
L 523.642332 161.675144 
L 524.258895 161.675144 
L 524.277972 526.253494 
L 525.258439 526.253494 
L 525.332076 526.253494 
L 525.350359 161.675144 
L 526.323975 161.675144 
L 526.666421 161.675144 
L 526.676357 526.253494 
L 527.63896 526.253494 
L 527.801382 526.253494 
L 527.819671 161.675144 
L 528.7845 161.675144 
L 529.001444 161.675144 
L 529.016078 526.253494 
L 529.99377 526.253494 
L 530.012053 526.253494 
L 530.030336 161.675144 
L 531.007585 161.675144 
L 531.158156 161.675144 
L 531.176448 526.253494 
L 532.14978 161.675144 
L 533.152784 161.675144 
L 533.175492 526.253494 
L 534.13898 526.253494 
L 534.157263 526.253494 
L 534.175546 161.675144 
L 535.144672 161.675144 
L 535.269688 161.675144 
L 535.291596 526.253494 
L 536.269591 161.675144 
L 537.194637 161.675144 
L 537.212105 526.253494 
L 538.185256 161.675144 
L 538.406201 161.675144 
L 538.422954 526.253494 
L 539.398184 526.253494 
L 540.191642 526.253494 
L 540.209902 161.675144 
L 541.183454 386.060358 
L 541.201176 386.060358 
L 541.307107 161.675144 
L 541.400523 526.253494 
L 542.158483 526.253494 
L 542.319415 526.253494 
L 542.319415 416.879989 
L 543.315379 526.253494 
L 543.443291 526.253494 
L 543.587175 161.675144 
L 544.436406 526.253494 
L 544.541693 526.253494 
L 544.541693 365.22106 
L 545.468503 526.253494 
L 548.798009 526.253494 
L 548.888935 161.675144 
L 549.792731 526.253494 
L 549.89036 526.253494 
L 550.036515 334.84986 
L 550.877533 526.253494 
L 555.393972 526.253494 
L 555.412242 161.675144 
L 556.390527 526.253494 
L 556.871072 526.253494 
L 556.889355 161.675144 
L 557.869715 526.253494 
L 558.350338 526.253494 
L 558.368612 161.675144 
L 559.341382 526.253494 
L 559.927226 526.253494 
L 559.945509 161.675144 
L 560.919015 526.253494 
L 561.546757 526.253494 
L 561.565063 161.675144 
L 562.543246 526.253494 
L 563.340073 526.253494 
L 563.358356 161.675144 
L 564.326113 161.675144 
L 564.418694 161.675144 
L 564.436983 526.253494 
L 565.405755 161.675144 
L 566.424795 161.675144 
L 566.44551 526.253494 
L 567.414184 161.675144 
L 568.613683 161.675144 
L 568.682448 526.253494 
L 569.596155 327.126268 
L 569.614417 327.126268 
L 569.660346 526.253494 
L 570.013831 161.675144 
L 570.598348 161.675144 
L 570.790316 161.675144 
L 570.80465 526.253494 
L 571.779499 161.675144 
L 572.340807 161.675144 
L 572.362743 526.253494 
L 573.333231 465.703592 
L 573.344306 465.703592 
L 573.344306 526.253494 
L 573.634221 161.675144 
L 574.339142 526.253494 
L 574.762266 526.253494 
L 574.780549 161.675144 
L 575.760025 526.253494 
L 576.262252 526.253494 
L 576.280551 161.675144 
L 577.252132 526.253494 
L 577.902681 526.253494 
L 577.902681 334.84986 
L 578.729739 526.253494 
L 583.542591 526.253494 
L 584.107416 161.675144 
L 584.536442 161.675144 
L 585.205269 161.675144 
L 585.219887 526.253494 
L 586.195449 526.253494 
L 586.845286 526.253494 
L 586.845286 372.287499 
L 587.458355 526.253494 
L 589.132927 526.253494 
L 589.221217 161.675144 
L 590.132562 506.91881 
L 590.169122 506.727407 
L 590.169122 526.253494 
L 590.970113 161.675144 
L 591.161687 161.675144 
L 591.449908 161.675144 
L 591.457234 526.253494 
L 592.181868 526.253494 
L 592.620562 526.253494 
L 592.657123 161.675144 
L 593.508637 526.253494 
L 597.873646 526.253494 
L 598.613262 382.747252 
L 598.869005 506.782093 
L 599.015272 506.782093 
L 599.015272 526.253494 
L 599.865628 506.727407 
L 600.011896 526.253494 
L 600.59073 526.253494 
L 601.188513 375.653469 
L 601.585316 487.802965 
L 601.640157 487.584127 
L 601.676718 526.253494 
L 602.639098 526.253494 
L 602.897186 526.253494 
L 603.495859 372.756894 
L 603.880074 506.727407 
L 604.008061 506.782093 
L 604.008061 526.253494 
L 604.66433 487.310693 
L 604.993426 526.253494 
L 605.563489 526.253494 
L 606.147729 381.362766 
L 606.558164 487.256006 
L 606.649591 487.584127 
L 606.667846 526.253494 
L 607.631938 526.253494 
L 611.611679 526.253494 
L 611.611679 161.675144 
L 612.596476 161.675144 
L 626.70096 161.675144 
L 626.70096 526.253494 
L 627.700846 161.675144 
L 634.915022 161.675144 
L 635.079569 526.253494 
L 635.90849 161.675144 
L 638.493875 161.675144 
L 638.508451 526.253494 
L 639.484581 416.879989 
L 639.502864 416.879989 
L 639.575996 526.253494 
L 640.076552 161.675144 
L 640.375041 526.253494 
L 641.991543 526.253494 
L 642.009827 161.675144 
L 642.988834 161.675144 
L 644.67085 161.675144 
L 644.944564 526.253494 
L 645.658258 161.675144 
L 651.124813 161.675144 
L 651.32561 526.253494 
L 652.121536 161.675144 
L 652.444268 161.675144 
L 652.462546 526.253494 
L 653.444267 526.253494 
L 653.489483 526.253494 
L 653.507743 161.675144 
L 654.486319 207.218271 
L 654.504058 207.218271 
L 654.557724 161.675144 
L 655.48863 161.675144 
L 658.283374 161.675144 
L 658.297968 526.253494 
L 659.277016 161.675144 
L 659.635963 161.675144 
L 659.650299 526.253494 
L 660.629372 174.359736 
L 660.647306 174.359736 
L 660.647306 161.675144 
L 661.632784 161.675144 
L 663.269258 161.675144 
L 663.28391 526.253494 
L 663.834838 526.253494 
L 667.553249 526.253494 
L 667.571555 161.675144 
L 668.537151 526.253494 
L 669.441116 526.253494 
L 669.45937 161.675144 
L 670.439281 526.253494 
L 670.962477 526.253494 
L 670.980783 161.675144 
L 671.650481 526.253494 
L 672.791946 526.253494 
L 673.399381 161.675144 
L 673.788697 161.675144 
L 674.41103 161.675144 
L 674.41103 526.253494 
L 675.400042 161.675144 
L 675.904461 161.675144 
L 675.9191 526.253494 
L 676.341056 526.253494 
L 677.744177 526.253494 
L 677.762432 161.675144 
L 678.736456 526.253494 
L 679.593786 526.253494 
L 679.630347 161.675144 
L 680.587709 526.253494 
L 681.07986 526.253494 
L 681.098166 161.675144 
L 681.757184 526.253494 
L 682.895443 526.253494 
L 682.979912 161.675144 
L 683.886667 161.675144 
L 683.92954 161.675144 
L 683.955107 526.253494 
L 684.915912 161.675144 
L 685.406207 161.675144 
L 685.417187 526.253494 
L 686.406075 526.253494 
L 686.541049 526.253494 
L 686.559318 161.675144 
L 687.533185 526.253494 
L 688.038432 526.253494 
L 688.056715 161.675144 
L 689.035018 526.253494 
L 689.488665 526.253494 
L 689.506952 161.675144 
L 690.483638 526.253494 
L 690.942651 526.253494 
L 690.960934 161.675144 
L 691.936991 526.253494 
L 692.397597 526.253494 
L 692.415881 161.675144 
L 693.393722 526.253494 
L 694.007747 526.253494 
L 694.02603 161.675144 
L 694.996096 526.253494 
L 695.700168 526.253494 
L 695.718475 161.675144 
L 696.699181 161.675144 
L 696.702845 161.675144 
L 696.710003 526.253494 
L 697.692129 161.675144 
L 698.726271 161.675144 
L 698.737259 526.253494 
L 699.724566 161.675144 
L 700.843148 161.675144 
L 700.863936 526.253494 
L 701.83627 161.675144 
L 702.339515 161.675144 
L 702.364107 526.253494 
L 703.333153 526.253494 
L 704.117965 526.253494 
L 704.136234 161.675144 
L 705.11414 526.253494 
L 705.551634 526.253494 
L 705.569917 161.675144 
L 706.550115 526.253494 
L 706.925882 526.253494 
L 706.944162 161.675144 
L 707.9197 526.253494 
L 708.364361 526.253494 
L 708.382644 161.675144 
L 709.354361 526.253494 
L 709.814724 526.253494 
L 709.833014 161.675144 
L 710.805902 526.253494 
L 711.407835 526.253494 
L 711.426118 161.675144 
L 712.40183 526.253494 
L 713.129222 526.253494 
L 713.140391 161.675144 
L 714.116625 161.675144 
L 714.145298 161.675144 
L 714.163489 526.253494 
L 715.134871 161.675144 
L 716.246851 161.675144 
L 716.272426 526.253494 
L 717.236148 161.675144 
L 718.465206 161.675144 
L 718.482354 526.253494 
L 719.454657 161.675144 
L 721.076976 161.675144 
L 721.095239 526.253494 
L 722.067822 161.675144 
L 723.840038 161.675144 
L 723.851016 526.253494 
L 724.829001 161.675144 
L 727.180453 161.675144 
L 727.202365 526.253494 
L 728.174303 161.675144 
L 729.119302 161.675144 
L 729.126619 526.253494 
L 730.113624 161.675144 
L 730.715204 161.675144 
L 730.73398 526.253494 
L 731.712572 161.675144 
L 733.130927 161.675144 
L 733.134583 526.253494 
L 733.525483 526.253494 
L 734.443938 526.253494 
L 734.480525 161.675144 
L 735.438904 161.675144 
L 735.770702 161.675144 
L 735.778024 526.253494 
L 736.761922 161.675144 
L 738.064359 161.675144 
L 738.086312 526.253494 
L 739.054054 161.675144 
L 740.532469 161.675144 
L 740.550749 526.253494 
L 741.531607 161.675144 
L 741.927846 161.675144 
L 742.464868 526.253494 
L 742.914967 295.003269 
L 742.933221 295.003269 
L 742.988088 161.675144 
L 743.053943 526.253494 
L 743.558594 526.253494 
L 744.260479 526.253494 
L 744.278758 161.675144 
L 745.252611 161.675144 
L 745.447398 161.675144 
L 745.469277 526.253494 
L 746.434141 507.782132 
L 746.450763 507.782132 
L 746.450763 526.253494 
L 747.437458 272.371157 
L 747.454553 272.371157 
L 747.487741 161.675144 
L 747.513319 526.253494 
L 748.444426 526.253494 
L 749.405211 526.253494 
L 749.586844 161.675144 
L 750.39546 526.253494 
L 752.526494 526.253494 
L 752.554529 161.675144 
L 753.52486 526.253494 
L 753.841939 526.253494 
L 753.841939 467.948666 
L 754.469288 526.253494 
L 756.226365 526.253494 
L 756.243324 161.675144 
L 757.214113 309.380417 
L 757.232224 309.380417 
L 757.323205 161.675144 
L 758.21882 161.675144 
L 758.748922 161.675144 
L 759.002824 526.253494 
L 759.74521 161.675144 
L 759.812091 161.675144 
L 759.844165 526.253494 
L 760.797406 337.984322 
L 760.815681 337.984322 
L 760.89862 473.082202 
L 761.2018 161.675144 
L 761.803406 161.675144 
L 762.242213 161.675144 
L 762.461557 526.253494 
L 763.232157 526.253494 
L 763.925037 526.253494 
L 763.925037 161.675144 
L 764.911946 161.675144 
L 765.204298 161.675144 
L 766.152962 526.253494 
L 766.199922 526.253494 
L 766.978653 526.253494 
L 766.996949 161.675144 
L 767.962969 161.675144 
L 768.348808 161.675144 
L 768.658042 526.253494 
L 769.34697 526.253494 
L 770.286214 526.253494 
L 770.372202 161.675144 
L 771.276786 161.675144 
L 771.352262 161.675144 
L 771.363223 526.253494 
L 772.345665 161.675144 
L 772.400585 161.675144 
L 772.400585 526.253494 
L 773.396601 526.253494 
L 774.184207 526.253494 
L 774.23722 484.825362 
L 774.881992 526.253494 
L 778.400999 526.253494 
L 778.419266 161.675144 
L 779.394992 161.675144 
L 779.980762 161.675144 
L 780.002928 526.253494 
L 780.975703 161.675144 
L 782.592749 161.675144 
L 782.603729 526.253494 
L 783.588948 161.675144 
L 785.237927 161.675144 
L 785.259722 526.253494 
L 786.228728 161.675144 
L 787.9345 161.675144 
L 787.962806 526.253494 
L 788.920476 526.253494 
L 788.938738 526.253494 
L 788.957022 161.675144 
L 789.924779 161.675144 
L 790.730879 161.675144 
L 790.748832 526.253494 
L 791.720059 161.675144 
L 792.946824 161.675144 
L 792.946824 526.253494 
L 793.84749 526.253494 
L 794.45515 526.253494 
L 794.504608 161.675144 
L 795.451287 161.675144 
L 795.68497 161.675144 
L 795.706626 526.253494 
L 796.679363 161.675144 
L 797.716551 161.675144 
L 797.734718 526.253494 
L 798.711302 161.675144 
L 799.747647 161.675144 
L 799.769028 526.253494 
L 800.741768 161.675144 
L 801.785465 161.675144 
L 801.800076 526.253494 
L 802.776867 161.675144 
L 802.93375 161.675144 
L 803.772397 526.253494 
L 803.922249 526.253494 
L 804.69143 526.253494 
L 804.709713 161.675144 
L 805.687307 161.675144 
L 805.883636 161.675144 
L 805.894625 526.253494 
L 806.88287 526.253494 
L 807.804039 526.253494 
L 807.94372 161.675144 
L 808.799255 526.253494 
L 808.892287 526.253494 
L 809.528195 334.84986 
L 809.875572 334.84986 
L 810.021836 334.84986 
L 810.314364 526.253494 
L 810.925964 161.675144 
L 811.004973 161.675144 
L 811.130571 161.675144 
L 811.148007 526.253494 
L 811.514476 526.253494 
L 815.358027 526.253494 
L 815.41284 254.995353 
L 815.953634 526.253494 
L 816.752474 526.253494 
L 816.789033 331.974248 
L 817.71576 526.253494 
L 828.469389 526.253494 
L 829.205975 365.931076 
L 829.464272 506.782093 
L 829.6471 506.83678 
L 829.6471 526.253494 
L 830.311198 506.727407 
L 830.640294 526.253494 
L 831.250258 526.253494 
L 831.878405 356.178605 
L 832.239487 487.584127 
L 832.330862 487.584127 
L 832.385729 526.253494 
L 833.000165 487.256006 
L 833.317487 526.253494 
L 833.619495 526.253494 
L 834.193932 361.680092 
L 834.612902 506.91881 
L 834.75917 507.00084 
L 834.75917 526.253494 
L 835.380132 487.310693 
L 835.745788 526.253494 
L 836.3567 526.253494 
L 836.883724 349.944315 
L 837.34437 487.584127 
L 837.454051 487.584127 
L 837.472306 526.253494 
L 838.448952 526.253494 
L 842.753713 526.253494 
L 842.753713 161.675144 
L 843.738511 161.675144 
L 857.842995 161.675144 
L 857.842995 526.253494 
L 858.84288 161.675144 
L 866.057057 161.675144 
L 866.221604 526.253494 
L 867.050525 161.675144 
L 869.635909 161.675144 
L 869.650485 526.253494 
L 870.626616 416.879989 
L 870.644899 416.879989 
L 870.718031 526.253494 
L 871.218587 161.675144 
L 871.517076 526.253494 
L 873.133578 526.253494 
L 873.151862 161.675144 
L 874.130869 161.675144 
L 875.812884 161.675144 
L 876.086599 526.253494 
L 876.800293 161.675144 
L 882.266848 161.675144 
L 882.467645 526.253494 
L 883.26357 161.675144 
L 883.586302 161.675144 
L 883.60458 526.253494 
L 884.586301 526.253494 
L 884.631518 526.253494 
L 884.649778 161.675144 
L 885.628354 207.218271 
L 885.646093 207.218271 
L 885.699758 161.675144 
L 886.630665 161.675144 
L 889.40537 161.675144 
L 889.419964 526.253494 
L 890.403167 161.675144 
L 890.762808 161.675144 
L 890.777426 526.253494 
L 891.748101 183.718462 
L 891.783616 184.097624 
L 891.801525 161.675144 
L 892.76865 161.675144 
L 894.425075 161.675144 
L 894.439678 526.253494 
L 894.997159 526.253494 
L 898.730338 526.253494 
L 898.748593 161.675144 
L 899.723484 526.253494 
L 900.589009 526.253494 
L 900.625596 161.675144 
L 901.587875 526.253494 
L 902.080655 526.253494 
L 902.098935 161.675144 
L 902.736198 526.253494 
L 903.886623 526.253494 
L 904.51764 161.675144 
L 904.88222 161.675144 
L 905.497125 161.675144 
L 905.504444 526.253494 
L 906.483991 161.675144 
L 907.005367 161.675144 
L 907.030949 526.253494 
L 907.448029 526.253494 
L 908.871498 526.253494 
L 908.889778 161.675144 
L 909.871412 526.253494 
L 910.716814 526.253494 
L 910.753375 161.675144 
L 911.712653 526.253494 
L 912.172307 526.253494 
L 912.190613 161.675144 
L 912.882603 526.253494 
L 914.029295 526.253494 
L 914.11468 161.675144 
L 915.013515 161.675144 
L 915.050682 161.675144 
L 915.079953 526.253494 
L 916.03751 161.675144 
L 916.507685 161.675144 
L 916.526726 526.253494 
L 917.227584 526.253494 
L 917.648965 526.253494 
L 917.667245 161.675144 
L 918.642893 526.253494 
L 919.131622 526.253494 
L 919.149905 161.675144 
L 920.125822 526.253494 
L 920.558138 526.253494 
L 920.576401 161.675144 
L 921.551841 526.253494 
L 921.996509 526.253494 
L 922.014792 161.675144 
L 922.989643 526.253494 
L 923.431459 526.253494 
L 923.449746 161.675144 
L 924.427685 526.253494 
L 924.986657 526.253494 
L 925.00494 161.675144 
L 925.984844 526.253494 
L 926.641885 526.253494 
L 926.660166 161.675144 
L 927.637873 526.253494 
L 927.656156 526.253494 
L 928.507815 161.675144 
L 928.648332 161.675144 
L 929.611777 161.675144 
L 929.622769 526.253494 
L 930.608168 161.675144 
L 931.699684 161.675144 
L 931.707019 526.253494 
L 932.692411 161.675144 
L 933.185742 161.675144 
L 933.208545 526.253494 
L 934.182587 526.253494 
L 934.923423 526.253494 
L 934.941725 161.675144 
L 935.919148 526.253494 
L 936.349452 526.253494 
L 936.367735 161.675144 
L 937.343768 526.253494 
L 937.716256 526.253494 
L 937.734537 161.675144 
L 938.713769 526.253494 
L 939.103243 526.253494 
L 939.121526 161.675144 
L 940.095827 526.253494 
L 940.521822 526.253494 
L 940.529954 161.675144 
L 941.517762 526.253494 
L 942.076708 526.253494 
L 942.094991 161.675144 
L 943.069355 526.253494 
L 943.741553 526.253494 
L 943.75986 161.675144 
L 944.738662 526.253494 
L 944.756945 526.253494 
L 945.578274 161.675144 
L 945.748554 161.675144 
L 946.732935 161.675144 
L 946.751187 526.253494 
L 947.723268 161.675144 
L 948.888063 161.675144 
L 948.888063 526.253494 
L 949.877797 161.675144 
L 951.404743 161.675144 
L 951.433981 526.253494 
L 952.394836 161.675144 
L 954.010689 161.675144 
L 954.030892 526.253494 
L 955.005181 161.675144 
L 957.222121 161.675144 
L 957.251349 526.253494 
L 958.211028 161.675144 
L 959.165569 161.675144 
L 959.169189 260.567021 
L 960.161237 161.675144 
L 960.634526 161.675144 
L 960.654093 526.253494 
L 961.628765 161.675144 
L 963.030694 161.675144 
L 963.041665 526.253494 
L 964.027683 161.675144 
L 964.691716 161.675144 
L 964.706319 526.253494 
L 965.68414 161.675144 
L 966.871896 161.675144 
L 966.871896 526.253494 
L 967.866275 161.675144 
L 969.357866 161.675144 
L 969.372476 526.253494 
L 970.343391 161.675144 
L 970.407555 161.675144 
L 970.411753 526.253494 
L 971.398514 161.675144 
L 971.893094 161.675144 
L 971.900383 526.253494 
L 972.313106 526.253494 
L 973.540444 526.253494 
L 974.448489 161.675144 
L 974.539767 161.675144 
L 974.570053 161.675144 
L 974.719051 517.345195 
L 975.568687 161.675144 
L 975.609916 161.675144 
L 975.620885 526.253494 
L 976.608833 526.253494 
L 977.073136 526.253494 
L 977.239074 161.675144 
L 978.069268 526.253494 
L 978.12864 526.253494 
L 978.146949 328.969211 
L 979.118321 477.821265 
L 979.136129 477.821265 
L 979.277597 161.675144 
L 979.687469 526.253494 
L 980.13023 526.253494 
L 982.202795 526.253494 
L 982.23933 161.675144 
L 983.201369 526.253494 
L 983.479487 526.253494 
L 983.506311 410.245574 
L 984.18923 526.253494 
L 985.923432 526.253494 
L 985.941715 161.675144 
L 986.916036 526.253494 
L 990.553212 526.253494 
L 990.571491 161.675144 
L 991.538773 161.675144 
L 991.556745 161.675144 
L 991.574809 166.859448 
L 992.542477 161.675144 
L 992.816722 161.675144 
L 992.981269 526.253494 
L 993.803558 161.675144 
L 993.927799 161.675144 
L 993.953385 526.253494 
L 994.913773 439.685276 
L 994.92839 439.685276 
L 994.92839 526.253494 
L 995.299836 161.675144 
L 995.920296 161.675144 
L 996.358933 161.675144 
L 996.558517 470.20331 
L 997.357054 405.604492 
L 997.360717 405.604492 
L 997.36435 526.253494 
L 998.193509 161.675144 
L 998.35137 161.675144 
L 998.60744 162.068888 
L 998.747521 369.204078 
L 999.017129 161.675144 
L 999.600108 161.675144 
L 999.782845 161.675144 
L 1000.184827 526.253494 
L 1000.781569 526.253494 
L 1001.212433 526.253494 
L 1001.426623 161.675144 
L 1002.208634 292.700046 
L 1002.226469 292.700046 
L 1002.900192 526.253494 
L 1002.41134 161.675144 
L 1003.220909 526.253494 
L 1003.778381 526.253494 
L 1003.796647 161.675144 
L 1004.761645 493.850499 
L 1004.779921 493.850499 
L 1004.779921 472.25625 
L 1004.811851 526.253494 
L 1005.514518 526.253494 
L 1006.042206 526.253494 
L 1006.09704 161.675144 
L 1007.032752 526.253494 
L 1007.721136 526.253494 
L 1007.793983 504.930765 
L 1008.400099 526.253494 
L 1010.458426 526.253494 
L 1010.494982 161.675144 
L 1011.445609 161.675144 
L 1011.883163 161.675144 
L 1011.897758 526.253494 
L 1012.867746 389.536613 
L 1012.886029 389.536613 
L 1012.977444 526.253494 
L 1013.589044 161.675144 
L 1013.878341 443.093446 
L 1013.942056 443.093446 
L 1013.942056 526.253494 
L 1014.260803 526.253494 
L 1015.568187 526.253494 
L 1015.568187 161.675144 
L 1016.552417 161.675144 
L 1016.79691 161.675144 
L 1016.800577 526.253494 
L 1017.795673 393.681868 
L 1017.813948 393.681868 
L 1017.813948 161.675144 
L 1018.811361 161.675144 
L 1019.024003 161.675144 
L 1019.024003 526.253494 
L 1020.012321 161.675144 
L 1020.983679 161.675144 
L 1020.998309 526.253494 
L 1021.979215 252.432367 
L 1021.997516 252.432367 
L 1021.997516 161.675144 
L 1022.991773 161.675144 
L 1023.080447 161.675144 
L 1023.087732 526.253494 
L 1024.078498 161.675144 
L 1025.053288 161.675144 
L 1025.075224 526.253494 
L 1026.051383 161.675144 
L 1027.050529 161.675144 
L 1027.065042 526.253494 
L 1028.047231 161.675144 
L 1029.098678 161.675144 
L 1029.098678 526.253494 
L 1030.098013 161.675144 
L 1031.087077 161.675144 
L 1031.108885 526.253494 
L 1032.077916 161.675144 
L 1033.288711 161.675144 
L 1033.288711 526.253494 
L 1034.283678 161.675144 
L 1034.68806 161.675144 
L 1035.474535 526.253494 
L 1035.679273 526.253494 
L 1036.393563 526.253494 
L 1036.411846 161.675144 
L 1037.38883 161.675144 
L 1037.841787 161.675144 
L 1037.86733 526.253494 
L 1038.834114 161.675144 
L 1039.052959 161.675144 
L 1039.174195 526.253494 
L 1040.050875 264.627513 
L 1040.068637 264.627513 
L 1040.104128 161.675144 
L 1040.311764 526.253494 
L 1040.921667 526.253494 
L 1041.230769 526.253494 
L 1041.249052 161.675144 
L 1042.224974 526.253494 
L 1042.718693 526.253494 
L 1042.718693 389.536613 
L 1043.556572 526.253494 
L 1045.121396 526.253494 
L 1045.139677 161.675144 
L 1046.053259 526.253494 
L 1047.042063 526.253494 
L 1047.07863 161.675144 
L 1048.026307 161.675144 
L 1048.093178 161.675144 
L 1048.10046 526.253494 
L 1049.082511 161.675144 
L 1049.111287 161.675144 
L 1049.549316 526.253494 
L 1050.105612 526.253494 
L 1050.574014 526.253494 
L 1050.628852 175.53459 
L 1051.470345 526.253494 
L 1059.479056 526.253494 
L 1059.479056 198.132979 
L 1060.906958 198.132979 
L 1060.906958 161.675144 
L 1061.090507 161.675144 
L 1064.015185 161.675144 
L 1064.015185 526.253494 
L 1064.944796 161.675144 
L 1066.429572 161.675144 
L 1066.429572 526.253494 
L 1076.174131 526.253494 
L 1076.174131 225.476355 
L 1077.602033 225.476355 
L 1077.602033 161.675144 
L 1077.785581 161.675144 
L 1080.710259 161.675144 
L 1080.710259 526.253494 
L 1081.640572 161.675144 
L 1083.124637 161.675144 
L 1083.124637 526.253494 
L 1092.869196 526.253494 
L 1092.869196 225.476355 
L 1094.297098 225.476355 
L 1094.297098 161.675144 
L 1094.480646 161.675144 
L 1099.819699 161.675144 
L 1099.819699 526.253494 
L 1109.564258 526.253494 
L 1109.564258 225.476355 
L 1110.99216 225.476355 
L 1110.99216 161.675144 
L 1111.175708 161.675144 
L 1114.100386 161.675144 
L 1114.100386 526.253494 
L 1115.030699 161.675144 
L 1116.514764 161.675144 
L 1116.514764 526.253494 
L 1126.259323 526.253494 
L 1126.259323 362.193236 
L 1127.870773 362.193236 
L 1127.870773 161.675144 
L 1128.819363 161.675144 
L 1130.795451 161.675144 
L 1130.795451 526.253494 
L 1131.725764 161.675144 
L 1133.209829 161.675144 
L 1133.209829 526.253494 
L 1144.565838 526.253494 
L 1144.565838 170.789603 
L 1145.514428 170.789603 
L 1147.194928 170.789603 
L 1147.490516 526.253494 
L 1148.141328 498.910118 
L 1148.234554 498.910118 
L 1148.234554 170.789603 
L 1149.165328 170.789603 
L 1149.904891 170.789603 
L 1149.904891 526.253494 
L 1169.940402 526.253494 
L 1169.940402 526.253494 
" clip-path="url(#paab72c8eb1)" style="fill: none; stroke: #000000; stroke-width: 0.8; stroke-linecap: square"/>
   </g>
  </g>
  <g id="axes_2">
   <g id="matplotlib.axis_3">
    <g id="xtick_8">
     <g id="line2d_26">
      <defs>
       <path id="m987ef28317" d="M 0 0 
L 0 -3.5 
" style="stroke: #000000; stroke-width: 0.8"/>
      </defs>
      <g>
       <use xlink:href="#m987ef28317" x="145.401577" y="83.290799" style="stroke: #000000; stroke-width: 0.8"/>
      </g>
     </g>
     <g id="text_16">
      <!-- N140 -->
      <g transform="translate(149.290664 75.583692) rotate(-45) scale(0.08 -0.08)">
       <defs>
        <path id="SimHei-4e" d="M 2850 125 
L 2225 125 
L 850 3225 
L 825 3225 
L 825 125 
L 250 125 
L 250 4400 
L 875 4400 
L 2250 1300 
L 2275 1300 
L 2275 4400 
L 2850 4400 
L 2850 125 
z
" transform="scale(0.015625)"/>
       </defs>
       <use xlink:href="#SimHei-4e"/>
       <use xlink:href="#SimHei-31" transform="translate(50 0)"/>
       <use xlink:href="#SimHei-34" transform="translate(100 0)"/>
       <use xlink:href="#SimHei-30" transform="translate(150 0)"/>
      </g>
     </g>
    </g>
    <g id="xtick_9">
     <g id="line2d_27">
      <g>
       <use xlink:href="#m987ef28317" x="247.35588" y="83.290799" style="stroke: #000000; stroke-width: 0.8"/>
      </g>
     </g>
     <g id="text_17">
      <!-- N1050 -->
      <g transform="translate(251.244967 75.583692) rotate(-45) scale(0.08 -0.08)">
       <use xlink:href="#SimHei-4e"/>
       <use xlink:href="#SimHei-31" transform="translate(50 0)"/>
       <use xlink:href="#SimHei-30" transform="translate(100 0)"/>
       <use xlink:href="#SimHei-35" transform="translate(150 0)"/>
       <use xlink:href="#SimHei-30" transform="translate(200 0)"/>
      </g>
     </g>
    </g>
    <g id="xtick_10">
     <g id="line2d_28">
      <g>
       <use xlink:href="#m987ef28317" x="314.026152" y="83.290799" style="stroke: #000000; stroke-width: 0.8"/>
      </g>
     </g>
     <g id="text_18">
      <!-- N7090.17 -->
      <g transform="translate(317.915239 75.583692) rotate(-45) scale(0.08 -0.08)">
       <defs>
        <path id="SimHei-37" d="M 850 150 
Q 1300 2050 2425 3925 
L 275 3925 
L 275 4375 
L 2950 4375 
L 2950 3950 
Q 1775 2050 1400 150 
L 850 150 
z
" transform="scale(0.015625)"/>
        <path id="SimHei-39" d="M 800 75 
Q 1350 1000 1700 1750 
Q 1075 1650 662 1912 
Q 250 2175 162 2625 
Q 75 3075 175 3437 
Q 275 3800 487 4037 
Q 700 4275 1000 4375 
Q 1300 4475 1537 4475 
Q 1775 4475 2025 4375 
Q 2275 4275 2475 4075 
Q 2675 3875 2750 3662 
Q 2825 3450 2825 3112 
Q 2825 2775 2575 2250 
Q 2325 1725 1350 75 
L 800 75 
z
M 662 2875 
Q 700 2550 937 2337 
Q 1175 2125 1450 2150 
Q 1725 2175 1887 2300 
Q 2050 2425 2200 2725 
Q 2300 3100 2250 3362 
Q 2200 3625 1987 3800 
Q 1775 3975 1525 3975 
Q 1375 4000 1137 3900 
Q 900 3800 762 3500 
Q 625 3200 662 2875 
z
" transform="scale(0.015625)"/>
        <path id="SimHei-2e" d="M 1075 125 
L 500 125 
L 500 675 
L 1075 675 
L 1075 125 
z
" transform="scale(0.015625)"/>
       </defs>
       <use xlink:href="#SimHei-4e"/>
       <use xlink:href="#SimHei-37" transform="translate(50 0)"/>
       <use xlink:href="#SimHei-30" transform="translate(100 0)"/>
       <use xlink:href="#SimHei-39" transform="translate(150 0)"/>
       <use xlink:href="#SimHei-30" transform="translate(200 0)"/>
       <use xlink:href="#SimHei-2e" transform="translate(250 0)"/>
       <use xlink:href="#SimHei-31" transform="translate(300 0)"/>
       <use xlink:href="#SimHei-37" transform="translate(350 0)"/>
      </g>
     </g>
    </g>
    <g id="xtick_11">
     <g id="line2d_29">
      <g>
       <use xlink:href="#m987ef28317" x="391.994331" y="83.290799" style="stroke: #000000; stroke-width: 0.8"/>
      </g>
     </g>
     <g id="text_19">
      <!-- N2250 -->
      <g transform="translate(395.883418 75.583692) rotate(-45) scale(0.08 -0.08)">
       <use xlink:href="#SimHei-4e"/>
       <use xlink:href="#SimHei-32" transform="translate(50 0)"/>
       <use xlink:href="#SimHei-32" transform="translate(100 0)"/>
       <use xlink:href="#SimHei-35" transform="translate(150 0)"/>
       <use xlink:href="#SimHei-30" transform="translate(200 0)"/>
      </g>
     </g>
    </g>
    <g id="xtick_12">
     <g id="line2d_30">
      <g>
       <use xlink:href="#m987ef28317" x="472.115797" y="83.290799" style="stroke: #000000; stroke-width: 0.8"/>
      </g>
     </g>
     <g id="text_20">
      <!-- N2940 -->
      <g transform="translate(476.004885 75.583692) rotate(-45) scale(0.08 -0.08)">
       <use xlink:href="#SimHei-4e"/>
       <use xlink:href="#SimHei-32" transform="translate(50 0)"/>
       <use xlink:href="#SimHei-39" transform="translate(100 0)"/>
       <use xlink:href="#SimHei-34" transform="translate(150 0)"/>
       <use xlink:href="#SimHei-30" transform="translate(200 0)"/>
      </g>
     </g>
    </g>
    <g id="xtick_13">
     <g id="line2d_31">
      <g>
       <use xlink:href="#m987ef28317" x="537.716383" y="83.290799" style="stroke: #000000; stroke-width: 0.8"/>
      </g>
     </g>
     <g id="text_21">
      <!-- N8760.10 -->
      <g transform="translate(541.60547 75.583692) rotate(-45) scale(0.08 -0.08)">
       <defs>
        <path id="SimHei-38" d="M 175 1375 
Q 175 1675 325 1962 
Q 475 2250 825 2425 
Q 525 2600 425 2812 
Q 325 3025 312 3300 
Q 300 3575 387 3775 
Q 475 3975 650 4150 
Q 825 4325 1037 4387 
Q 1250 4450 1500 4450 
Q 1750 4450 1950 4400 
Q 2150 4350 2375 4187 
Q 2600 4025 2700 3725 
Q 2800 3425 2687 3025 
Q 2575 2625 2100 2400 
Q 2525 2275 2700 2012 
Q 2875 1750 2875 1375 
Q 2875 1000 2762 775 
Q 2650 550 2512 400 
Q 2375 250 2137 162 
Q 1900 75 1537 75 
Q 1175 75 912 162 
Q 650 250 475 425 
Q 300 600 237 837 
Q 175 1075 175 1375 
z
M 687 1400 
Q 675 1100 787 875 
Q 900 650 1200 587 
Q 1500 525 1825 600 
Q 2150 675 2275 950 
Q 2400 1225 2362 1500 
Q 2325 1775 2050 1962 
Q 1775 2150 1450 2125 
Q 1125 2100 912 1900 
Q 700 1700 687 1400 
z
M 775 3350 
Q 775 3100 950 2875 
Q 1125 2650 1500 2650 
Q 1875 2650 2062 2875 
Q 2250 3100 2237 3412 
Q 2225 3725 2012 3875 
Q 1800 4025 1437 4000 
Q 1075 3975 925 3787 
Q 775 3600 775 3350 
z
" transform="scale(0.015625)"/>
        <path id="SimHei-36" d="M 250 1612 
Q 275 1975 387 2225 
Q 500 2475 725 2850 
L 1750 4450 
L 2325 4450 
L 1275 2800 
Q 1950 2975 2350 2750 
Q 2750 2525 2887 2237 
Q 3025 1950 3037 1612 
Q 3050 1275 2937 950 
Q 2825 625 2537 362 
Q 2250 100 1737 75 
Q 1225 50 862 262 
Q 500 475 362 862 
Q 225 1250 250 1612 
z
M 1025 787 
Q 1250 550 1625 525 
Q 2000 500 2250 775 
Q 2500 1050 2500 1575 
Q 2500 2100 2187 2300 
Q 1875 2500 1487 2450 
Q 1100 2400 925 2075 
Q 750 1750 775 1387 
Q 800 1025 1025 787 
z
" transform="scale(0.015625)"/>
       </defs>
       <use xlink:href="#SimHei-4e"/>
       <use xlink:href="#SimHei-38" transform="translate(50 0)"/>
       <use xlink:href="#SimHei-37" transform="translate(100 0)"/>
       <use xlink:href="#SimHei-36" transform="translate(150 0)"/>
       <use xlink:href="#SimHei-30" transform="translate(200 0)"/>
       <use xlink:href="#SimHei-2e" transform="translate(250 0)"/>
       <use xlink:href="#SimHei-31" transform="translate(300 0)"/>
       <use xlink:href="#SimHei-30" transform="translate(350 0)"/>
      </g>
     </g>
    </g>
    <g id="xtick_14">
     <g id="line2d_32">
      <g>
       <use xlink:href="#m987ef28317" x="617.038032" y="83.290799" style="stroke: #000000; stroke-width: 0.8"/>
      </g>
     </g>
     <g id="text_22">
      <!-- N3940.2 -->
      <g transform="translate(620.927119 75.583692) rotate(-45) scale(0.08 -0.08)">
       <use xlink:href="#SimHei-4e"/>
       <use xlink:href="#SimHei-33" transform="translate(50 0)"/>
       <use xlink:href="#SimHei-39" transform="translate(100 0)"/>
       <use xlink:href="#SimHei-34" transform="translate(150 0)"/>
       <use xlink:href="#SimHei-30" transform="translate(200 0)"/>
       <use xlink:href="#SimHei-2e" transform="translate(250 0)"/>
       <use xlink:href="#SimHei-32" transform="translate(300 0)"/>
      </g>
     </g>
    </g>
    <g id="xtick_15">
     <g id="line2d_33">
      <g>
       <use xlink:href="#m987ef28317" x="693.649226" y="83.290799" style="stroke: #000000; stroke-width: 0.8"/>
      </g>
     </g>
     <g id="text_23">
      <!-- N2400.17 -->
      <g transform="translate(697.538313 75.583692) rotate(-45) scale(0.08 -0.08)">
       <use xlink:href="#SimHei-4e"/>
       <use xlink:href="#SimHei-32" transform="translate(50 0)"/>
       <use xlink:href="#SimHei-34" transform="translate(100 0)"/>
       <use xlink:href="#SimHei-30" transform="translate(150 0)"/>
       <use xlink:href="#SimHei-30" transform="translate(200 0)"/>
       <use xlink:href="#SimHei-2e" transform="translate(250 0)"/>
       <use xlink:href="#SimHei-31" transform="translate(300 0)"/>
       <use xlink:href="#SimHei-37" transform="translate(350 0)"/>
      </g>
     </g>
    </g>
    <g id="xtick_16">
     <g id="line2d_34">
      <g>
       <use xlink:href="#m987ef28317" x="757.798309" y="83.290799" style="stroke: #000000; stroke-width: 0.8"/>
      </g>
     </g>
     <g id="text_24">
      <!-- N6770 -->
      <g transform="translate(761.687396 75.583692) rotate(-45) scale(0.08 -0.08)">
       <use xlink:href="#SimHei-4e"/>
       <use xlink:href="#SimHei-36" transform="translate(50 0)"/>
       <use xlink:href="#SimHei-37" transform="translate(100 0)"/>
       <use xlink:href="#SimHei-37" transform="translate(150 0)"/>
       <use xlink:href="#SimHei-30" transform="translate(200 0)"/>
      </g>
     </g>
    </g>
    <g id="xtick_17">
     <g id="line2d_35">
      <g>
       <use xlink:href="#m987ef28317" x="838.638571" y="83.290799" style="stroke: #000000; stroke-width: 0.8"/>
      </g>
     </g>
     <g id="text_25">
      <!-- N3310 -->
      <g transform="translate(842.527658 75.583692) rotate(-45) scale(0.08 -0.08)">
       <use xlink:href="#SimHei-4e"/>
       <use xlink:href="#SimHei-33" transform="translate(50 0)"/>
       <use xlink:href="#SimHei-33" transform="translate(100 0)"/>
       <use xlink:href="#SimHei-31" transform="translate(150 0)"/>
       <use xlink:href="#SimHei-30" transform="translate(200 0)"/>
      </g>
     </g>
    </g>
    <g id="xtick_18">
     <g id="line2d_36">
      <g>
       <use xlink:href="#m987ef28317" x="920.906764" y="83.290799" style="stroke: #000000; stroke-width: 0.8"/>
      </g>
     </g>
     <g id="text_26">
      <!-- N2720 -->
      <g transform="translate(924.795851 75.583692) rotate(-45) scale(0.08 -0.08)">
       <use xlink:href="#SimHei-4e"/>
       <use xlink:href="#SimHei-32" transform="translate(50 0)"/>
       <use xlink:href="#SimHei-37" transform="translate(100 0)"/>
       <use xlink:href="#SimHei-32" transform="translate(150 0)"/>
       <use xlink:href="#SimHei-30" transform="translate(200 0)"/>
      </g>
     </g>
    </g>
    <g id="xtick_19">
     <g id="line2d_37">
      <g>
       <use xlink:href="#m987ef28317" x="982.14208" y="83.290799" style="stroke: #000000; stroke-width: 0.8"/>
      </g>
     </g>
     <g id="text_27">
      <!-- N6820 -->
      <g transform="translate(986.031167 75.583692) rotate(-45) scale(0.08 -0.08)">
       <use xlink:href="#SimHei-4e"/>
       <use xlink:href="#SimHei-36" transform="translate(50 0)"/>
       <use xlink:href="#SimHei-38" transform="translate(100 0)"/>
       <use xlink:href="#SimHei-32" transform="translate(150 0)"/>
       <use xlink:href="#SimHei-30" transform="translate(200 0)"/>
      </g>
     </g>
    </g>
    <g id="xtick_20">
     <g id="line2d_38">
      <g>
       <use xlink:href="#m987ef28317" x="1165.487989" y="83.290799" style="stroke: #000000; stroke-width: 0.8"/>
      </g>
     </g>
     <g id="text_28">
      <!-- N0 -->
      <g transform="translate(1169.377076 75.583692) rotate(-45) scale(0.08 -0.08)">
       <use xlink:href="#SimHei-4e"/>
       <use xlink:href="#SimHei-30" transform="translate(50 0)"/>
      </g>
     </g>
    </g>
    <g id="text_29">
     <!-- 指令行号 N -->
     <g transform="translate(689.020625 45.067187) scale(0.1 -0.1)">
      <defs>
       <path id="SimHei-6307" d="M 5625 2225 
Q 5600 1925 5600 1350 
L 5600 300 
Q 5600 -225 5625 -525 
L 5125 -525 
L 5125 -125 
L 3300 -125 
L 3300 -625 
L 2800 -625 
Q 2825 -300 2825 300 
L 2825 1350 
Q 2825 1925 2800 2225 
L 5625 2225 
z
M 500 25 
Q 1075 -25 1175 37 
Q 1275 100 1275 275 
L 1275 1675 
Q 1050 1600 925 1537 
Q 800 1475 475 1275 
Q 400 1525 225 1800 
Q 625 1900 825 1975 
Q 1025 2050 1275 2125 
L 1275 3300 
L 1100 3300 
Q 775 3300 450 3275 
L 450 3725 
Q 750 3700 1100 3700 
L 1275 3700 
L 1275 4450 
Q 1275 4800 1250 5125 
L 1775 5125 
Q 1750 4850 1750 4450 
L 1750 3700 
Q 2075 3700 2425 3725 
L 2425 3275 
Q 2050 3300 1750 3300 
L 1750 2325 
Q 1850 2350 2025 2425 
L 2375 2575 
Q 2350 2300 2375 2100 
Q 2225 2050 2062 1987 
Q 1900 1925 1750 1850 
L 1750 100 
Q 1725 -200 1575 -337 
Q 1425 -475 675 -525 
Q 625 -250 500 25 
z
M 3325 5025 
Q 3300 4675 3300 4125 
Q 4125 4275 4512 4412 
Q 4900 4550 5225 4725 
Q 5325 4475 5575 4250 
Q 5450 4225 5237 4175 
Q 5025 4125 4725 4050 
Q 4425 3975 4037 3887 
Q 3650 3800 3300 3725 
L 3300 3175 
Q 3275 2925 3700 2925 
L 4925 2925 
Q 5300 2925 5387 3087 
Q 5475 3250 5550 3600 
Q 5750 3400 6050 3300 
Q 5825 2725 5700 2637 
Q 5575 2550 5275 2525 
L 3350 2525 
Q 3050 2525 2937 2687 
Q 2825 2850 2825 2975 
L 2825 4125 
Q 2825 4775 2800 5025 
L 3325 5025 
z
M 5125 275 
L 5125 875 
L 3300 875 
L 3300 275 
L 5125 275 
z
M 5125 1250 
L 5125 1825 
L 3300 1825 
L 3300 1250 
L 5125 1250 
z
" transform="scale(0.015625)"/>
       <path id="SimHei-4ee4" d="M 5375 2075 
L 5375 1550 
Q 4925 1325 4450 937 
Q 3975 550 3575 125 
L 4250 -325 
Q 4050 -550 3875 -775 
Q 3100 -125 1850 425 
L 2150 875 
Q 2400 775 3125 350 
Q 3800 1025 4450 1625 
L 2025 1625 
Q 1500 1625 975 1600 
L 975 2100 
Q 1525 2075 2025 2075 
L 5375 2075 
z
M 3375 4850 
Q 4450 3550 6200 2900 
Q 5950 2625 5800 2350 
Q 4150 3150 3100 4475 
Q 2075 3125 625 2225 
Q 400 2525 200 2700 
Q 875 2975 1675 3675 
Q 2475 4375 2950 5300 
Q 3275 5175 3550 5050 
Q 3475 5000 3375 4850 
z
M 2925 3600 
Q 3175 3350 3750 2725 
L 3300 2325 
Q 3050 2700 2550 3225 
Q 2750 3375 2925 3600 
z
" transform="scale(0.015625)"/>
       <path id="SimHei-53f7" d="M 5025 4925 
Q 5000 4550 5000 4075 
Q 5000 3600 5025 3175 
L 1400 3175 
Q 1425 3525 1425 4000 
Q 1425 4500 1400 4925 
L 5025 4925 
z
M 5175 2625 
Q 5650 2625 6025 2650 
L 6025 2200 
Q 5650 2225 5175 2225 
L 2450 2225 
Q 2350 1875 2225 1450 
L 5175 1450 
Q 5100 1050 5062 775 
Q 5025 500 4950 112 
Q 4875 -275 4650 -412 
Q 4425 -550 3225 -625 
Q 3125 -350 2975 -50 
Q 3875 -75 4112 -50 
Q 4350 -25 4425 212 
Q 4500 450 4575 1025 
L 1600 1025 
Q 1825 1625 1950 2225 
L 1350 2225 
Q 825 2225 375 2200 
L 375 2650 
Q 825 2625 1350 2625 
L 5175 2625 
z
M 4525 3575 
L 4525 4525 
L 1900 4525 
L 1900 3575 
L 4525 3575 
z
" transform="scale(0.015625)"/>
      </defs>
      <use xlink:href="#SimHei-6307"/>
      <use xlink:href="#SimHei-4ee4" transform="translate(100 0)"/>
      <use xlink:href="#SimHei-884c" transform="translate(200 0)"/>
      <use xlink:href="#SimHei-53f7" transform="translate(300 0)"/>
      <use xlink:href="#SimHei-20" transform="translate(400 0)"/>
      <use xlink:href="#SimHei-4e" transform="translate(450 0)"/>
     </g>
    </g>
   </g>
   <g id="patch_7">
    <path d="M 37.825 564.534221 
L 37.825 83.290799 
" style="fill: none; stroke: #000000; stroke-width: 0.8; stroke-linejoin: miter; stroke-linecap: square"/>
   </g>
   <g id="patch_8">
    <path d="M 1390.21625 564.534221 
L 1390.21625 83.290799 
" style="fill: none; stroke: #000000; stroke-width: 0.8; stroke-linejoin: miter; stroke-linecap: square"/>
   </g>
   <g id="patch_9">
    <path d="M 37.825 564.534221 
L 1390.21625 564.534221 
" style="fill: none; stroke: #000000; stroke-width: 0.8; stroke-linejoin: miter; stroke-linecap: square"/>
   </g>
   <g id="patch_10">
    <path d="M 37.825 83.290799 
L 1390.21625 83.290799 
" style="fill: none; stroke: #000000; stroke-width: 0.8; stroke-linejoin: miter; stroke-linecap: square"/>
   </g>
  </g>
 </g>
 <defs>
  <clipPath id="paab72c8eb1">
   <rect x="37.825" y="83.290799" width="1352.39125" height="481.243422"/>
  </clipPath>
 </defs>
</svg>
