<?xml version="1.0" encoding="utf-8" standalone="no"?>
<!DOCTYPE svg PUBLIC "-//W3C//DTD SVG 1.1//EN"
  "http://www.w3.org/Graphics/SVG/1.1/DTD/svg11.dtd">
<svg xmlns:xlink="http://www.w3.org/1999/xlink" width="848.4225pt" height="487.913965pt" viewBox="0 0 848.4225 487.913965" xmlns="http://www.w3.org/2000/svg" version="1.1">
 <metadata>
  <rdf:RDF xmlns:dc="http://purl.org/dc/elements/1.1/" xmlns:cc="http://creativecommons.org/ns#" xmlns:rdf="http://www.w3.org/1999/02/22-rdf-syntax-ns#">
   <cc:Work>
    <dc:type rdf:resource="http://purl.org/dc/dcmitype/StillImage"/>
    <dc:date>2025-12-10T13:36:01.335312</dc:date>
    <dc:format>image/svg+xml</dc:format>
    <dc:creator>
     <cc:Agent>
      <dc:title>Matplotlib v3.9.2, https://matplotlib.org/</dc:title>
     </cc:Agent>
    </dc:creator>
   </cc:Work>
  </rdf:RDF>
 </metadata>
 <defs>
  <style type="text/css">*{stroke-linejoin: round; stroke-linecap: butt}</style>
 </defs>
 <g id="figure_1">
  <g id="patch_1">
   <path d="M 0 487.913965 
L 848.4225 487.913965 
L 848.4225 0 
L 0 0 
z
" style="fill: #ffffff"/>
  </g>
  <g id="axes_1">
   <g id="patch_2">
    <path d="M 44.45 450.38584 
L 841.2225 450.38584 
L 841.2225 71.040799 
L 44.45 71.040799 
z
" style="fill: #ffffff"/>
   </g>
   <g id="matplotlib.axis_1">
    <g id="xtick_1">
     <g id="line2d_1">
      <path d="M 69.132249 450.38584 
L 69.132249 71.040799 
" clip-path="url(#pb26c9a68be)" style="fill: none; stroke-dasharray: 2.96,1.28; stroke-dashoffset: 0; stroke: #b0b0b0; stroke-opacity: 0.7; stroke-width: 0.8"/>
     </g>
     <g id="line2d_2">
      <defs>
       <path id="m4dd9f67bac" d="M 0 0 
L 0 3.5 
" style="stroke: #000000; stroke-width: 0.8"/>
      </defs>
      <g>
       <use xlink:href="#m4dd9f67bac" x="69.132249" y="450.38584" style="stroke: #000000; stroke-width: 0.8"/>
      </g>
     </g>
     <g id="text_1">
      <!-- 0 -->
      <g transform="translate(66.632249 464.26084) scale(0.1 -0.1)">
       <defs>
        <path id="SimHei-30" d="M 225 2537 
Q 250 3200 412 3587 
Q 575 3975 875 4225 
Q 1175 4475 1612 4475 
Q 2050 4475 2375 4112 
Q 2700 3750 2800 3200 
Q 2900 2650 2862 1937 
Q 2825 1225 2612 775 
Q 2400 325 1975 150 
Q 1550 -25 1125 187 
Q 700 400 525 750 
Q 350 1100 275 1487 
Q 200 1875 225 2537 
z
M 750 2687 
Q 675 2000 800 1462 
Q 925 925 1212 700 
Q 1500 475 1800 612 
Q 2100 750 2237 1162 
Q 2375 1575 2375 2062 
Q 2375 2550 2337 2950 
Q 2300 3350 2112 3675 
Q 1925 4000 1612 4012 
Q 1300 4025 1062 3700 
Q 825 3375 750 2687 
z
" transform="scale(0.015625)"/>
       </defs>
       <use xlink:href="#SimHei-30"/>
      </g>
     </g>
    </g>
    <g id="xtick_2">
     <g id="line2d_3">
      <path d="M 198.391184 450.38584 
L 198.391184 71.040799 
" clip-path="url(#pb26c9a68be)" style="fill: none; stroke-dasharray: 2.96,1.28; stroke-dashoffset: 0; stroke: #b0b0b0; stroke-opacity: 0.7; stroke-width: 0.8"/>
     </g>
     <g id="line2d_4">
      <g>
       <use xlink:href="#m4dd9f67bac" x="198.391184" y="450.38584" style="stroke: #000000; stroke-width: 0.8"/>
      </g>
     </g>
     <g id="text_2">
      <!-- 5000 -->
      <g transform="translate(188.391184 464.26084) scale(0.1 -0.1)">
       <defs>
        <path id="SimHei-35" d="M 550 1325 
Q 725 650 1150 575 
Q 1575 500 1837 662 
Q 2100 825 2212 1087 
Q 2325 1350 2312 1675 
Q 2300 2000 2137 2225 
Q 1975 2450 1725 2525 
Q 1475 2600 1162 2525 
Q 850 2450 650 2175 
L 225 2225 
Q 275 2375 700 4375 
L 2675 4375 
L 2675 3925 
L 1075 3925 
Q 950 3250 825 2850 
Q 1200 3025 1525 3012 
Q 1850 3000 2150 2862 
Q 2450 2725 2587 2487 
Q 2725 2250 2787 2012 
Q 2850 1775 2837 1500 
Q 2825 1225 2725 937 
Q 2625 650 2425 462 
Q 2225 275 1937 162 
Q 1650 50 1275 75 
Q 900 100 562 350 
Q 225 600 100 1200 
L 550 1325 
z
" transform="scale(0.015625)"/>
       </defs>
       <use xlink:href="#SimHei-35"/>
       <use xlink:href="#SimHei-30" x="50"/>
       <use xlink:href="#SimHei-30" x="100"/>
       <use xlink:href="#SimHei-30" x="150"/>
      </g>
     </g>
    </g>
    <g id="xtick_3">
     <g id="line2d_5">
      <path d="M 327.65012 450.38584 
L 327.65012 71.040799 
" clip-path="url(#pb26c9a68be)" style="fill: none; stroke-dasharray: 2.96,1.28; stroke-dashoffset: 0; stroke: #b0b0b0; stroke-opacity: 0.7; stroke-width: 0.8"/>
     </g>
     <g id="line2d_6">
      <g>
       <use xlink:href="#m4dd9f67bac" x="327.65012" y="450.38584" style="stroke: #000000; stroke-width: 0.8"/>
      </g>
     </g>
     <g id="text_3">
      <!-- 10000 -->
      <g transform="translate(315.15012 464.26084) scale(0.1 -0.1)">
       <defs>
        <path id="SimHei-31" d="M 1400 3600 
Q 1075 3275 575 2975 
L 575 3450 
Q 1200 3875 1600 4450 
L 1900 4450 
L 1900 150 
L 1400 150 
L 1400 3600 
z
" transform="scale(0.015625)"/>
       </defs>
       <use xlink:href="#SimHei-31"/>
       <use xlink:href="#SimHei-30" x="50"/>
       <use xlink:href="#SimHei-30" x="100"/>
       <use xlink:href="#SimHei-30" x="150"/>
       <use xlink:href="#SimHei-30" x="200"/>
      </g>
     </g>
    </g>
    <g id="xtick_4">
     <g id="line2d_7">
      <path d="M 456.909055 450.38584 
L 456.909055 71.040799 
" clip-path="url(#pb26c9a68be)" style="fill: none; stroke-dasharray: 2.96,1.28; stroke-dashoffset: 0; stroke: #b0b0b0; stroke-opacity: 0.7; stroke-width: 0.8"/>
     </g>
     <g id="line2d_8">
      <g>
       <use xlink:href="#m4dd9f67bac" x="456.909055" y="450.38584" style="stroke: #000000; stroke-width: 0.8"/>
      </g>
     </g>
     <g id="text_4">
      <!-- 15000 -->
      <g transform="translate(444.409055 464.26084) scale(0.1 -0.1)">
       <use xlink:href="#SimHei-31"/>
       <use xlink:href="#SimHei-35" x="50"/>
       <use xlink:href="#SimHei-30" x="100"/>
       <use xlink:href="#SimHei-30" x="150"/>
       <use xlink:href="#SimHei-30" x="200"/>
      </g>
     </g>
    </g>
    <g id="xtick_5">
     <g id="line2d_9">
      <path d="M 586.16799 450.38584 
L 586.16799 71.040799 
" clip-path="url(#pb26c9a68be)" style="fill: none; stroke-dasharray: 2.96,1.28; stroke-dashoffset: 0; stroke: #b0b0b0; stroke-opacity: 0.7; stroke-width: 0.8"/>
     </g>
     <g id="line2d_10">
      <g>
       <use xlink:href="#m4dd9f67bac" x="586.16799" y="450.38584" style="stroke: #000000; stroke-width: 0.8"/>
      </g>
     </g>
     <g id="text_5">
      <!-- 20000 -->
      <g transform="translate(573.66799 464.26084) scale(0.1 -0.1)">
       <defs>
        <path id="SimHei-32" d="M 300 250 
Q 325 625 650 925 
Q 975 1225 1475 1862 
Q 1975 2500 2125 2850 
Q 2275 3200 2237 3450 
Q 2200 3700 2000 3862 
Q 1800 4025 1537 4000 
Q 1275 3975 1037 3800 
Q 800 3625 675 3275 
L 200 3350 
Q 400 3925 712 4187 
Q 1025 4450 1450 4475 
Q 1700 4500 1900 4462 
Q 2100 4425 2312 4287 
Q 2525 4150 2662 3875 
Q 2800 3600 2762 3212 
Q 2725 2825 2375 2287 
Q 2025 1750 1025 600 
L 2825 600 
L 2825 150 
L 300 150 
L 300 250 
z
" transform="scale(0.015625)"/>
       </defs>
       <use xlink:href="#SimHei-32"/>
       <use xlink:href="#SimHei-30" x="50"/>
       <use xlink:href="#SimHei-30" x="100"/>
       <use xlink:href="#SimHei-30" x="150"/>
       <use xlink:href="#SimHei-30" x="200"/>
      </g>
     </g>
    </g>
    <g id="xtick_6">
     <g id="line2d_11">
      <path d="M 715.426925 450.38584 
L 715.426925 71.040799 
" clip-path="url(#pb26c9a68be)" style="fill: none; stroke-dasharray: 2.96,1.28; stroke-dashoffset: 0; stroke: #b0b0b0; stroke-opacity: 0.7; stroke-width: 0.8"/>
     </g>
     <g id="line2d_12">
      <g>
       <use xlink:href="#m4dd9f67bac" x="715.426925" y="450.38584" style="stroke: #000000; stroke-width: 0.8"/>
      </g>
     </g>
     <g id="text_6">
      <!-- 25000 -->
      <g transform="translate(702.926925 464.26084) scale(0.1 -0.1)">
       <use xlink:href="#SimHei-32"/>
       <use xlink:href="#SimHei-35" x="50"/>
       <use xlink:href="#SimHei-30" x="100"/>
       <use xlink:href="#SimHei-30" x="150"/>
       <use xlink:href="#SimHei-30" x="200"/>
      </g>
     </g>
    </g>
    <g id="text_7">
     <!-- 行程 s (mm) -->
     <g transform="translate(409.83625 479.213965) scale(0.12 -0.12)">
      <defs>
       <path id="SimHei-884c" d="M 5300 3100 
Q 5775 3100 6175 3125 
L 6175 2625 
Q 5775 2650 5325 2650 
L 4975 2650 
L 4975 -75 
Q 5000 -375 4787 -487 
Q 4575 -600 3950 -675 
Q 3900 -375 3675 -75 
Q 4100 -125 4275 -112 
Q 4450 -100 4475 150 
L 4475 2650 
L 3475 2650 
Q 3000 2650 2575 2625 
L 2575 3125 
Q 3025 3100 3475 3100 
L 5300 3100 
z
M 2300 3400 
Q 2075 3275 1962 3075 
Q 1850 2875 1650 2575 
L 1650 325 
Q 1650 0 1675 -675 
L 1150 -675 
Q 1175 75 1175 450 
L 1175 2050 
Q 950 1675 575 1300 
Q 400 1550 250 1725 
Q 825 2275 1150 2775 
Q 1475 3275 1725 3725 
Q 1975 3575 2300 3400 
z
M 4875 4800 
Q 5300 4800 5750 4825 
L 5750 4350 
Q 5300 4375 4825 4375 
L 3900 4375 
Q 3350 4375 2950 4350 
L 2950 4825 
Q 3350 4800 3900 4800 
L 4875 4800 
z
M 2075 4925 
Q 1875 4900 1550 4387 
Q 1225 3875 650 3250 
Q 500 3450 325 3625 
Q 725 4025 1050 4487 
Q 1375 4950 1525 5300 
Q 1775 5150 2075 4925 
z
" transform="scale(0.015625)"/>
       <path id="SimHei-7a0b" d="M 5825 4975 
Q 5800 4425 5800 3975 
Q 5800 3550 5825 3125 
L 3025 3125 
Q 3050 3600 3050 4025 
Q 3050 4450 3025 4975 
L 5825 4975 
z
M 400 4825 
Q 825 4875 1362 4987 
Q 1900 5100 2275 5275 
Q 2450 4950 2625 4725 
Q 2450 4750 2262 4712 
Q 2075 4675 1850 4650 
L 1850 3425 
Q 2200 3425 2600 3450 
L 2600 2975 
Q 2200 3000 1850 3000 
L 1850 800 
Q 1850 250 1875 -675 
L 1375 -675 
Q 1400 250 1400 775 
L 1400 1925 
Q 1050 1225 625 600 
Q 450 850 225 1050 
Q 575 1400 850 1850 
Q 1125 2300 1350 3000 
Q 725 3000 425 2975 
L 425 3450 
Q 850 3425 1050 3425 
L 1400 3425 
L 1400 4550 
Q 1075 4475 575 4400 
Q 500 4625 400 4825 
z
M 5100 2500 
Q 5500 2500 5950 2525 
L 5950 2075 
Q 5500 2100 5100 2100 
L 4625 2100 
L 4625 1300 
L 4900 1300 
Q 5275 1300 5775 1325 
L 5775 850 
Q 5275 875 4975 875 
L 4625 875 
L 4625 0 
L 5225 0 
Q 5675 0 6175 25 
L 6175 -450 
Q 5775 -425 5225 -425 
L 3550 -425 
Q 3000 -425 2600 -475 
L 2600 25 
Q 3000 0 3550 0 
L 4150 0 
L 4150 875 
L 3800 875 
Q 3400 875 3050 825 
L 3050 1325 
Q 3400 1300 3800 1300 
L 4150 1300 
L 4150 2100 
L 3750 2100 
Q 3300 2100 2900 2075 
L 2900 2525 
Q 3300 2500 3750 2500 
L 5100 2500 
z
M 5275 3575 
L 5275 4550 
L 3500 4550 
L 3500 3575 
L 5275 3575 
z
M 2300 2400 
Q 2550 2025 2825 1525 
Q 2675 1425 2425 1225 
Q 2175 1775 1925 2125 
Q 2075 2250 2300 2400 
z
" transform="scale(0.015625)"/>
       <path id="SimHei-20" transform="scale(0.015625)"/>
       <path id="SimHei-73" d="M 2750 900 
Q 2750 500 2437 287 
Q 2125 75 1650 75 
Q 1050 75 725 312 
Q 400 550 400 1000 
L 900 1000 
Q 900 700 1112 600 
Q 1325 500 1625 500 
Q 1925 500 2075 612 
Q 2225 725 2225 900 
Q 2225 1025 2100 1150 
Q 1975 1275 1475 1350 
Q 900 1425 687 1637 
Q 475 1850 475 2200 
Q 475 2500 762 2737 
Q 1050 2975 1600 2975 
Q 2100 2975 2387 2750 
Q 2675 2525 2675 2150 
L 2175 2150 
Q 2175 2375 2012 2462 
Q 1850 2550 1600 2550 
Q 1275 2550 1137 2437 
Q 1000 2325 1000 2175 
Q 1000 2000 1125 1900 
Q 1250 1800 1650 1750 
Q 2300 1650 2525 1437 
Q 2750 1225 2750 900 
z
" transform="scale(0.015625)"/>
       <path id="SimHei-28" d="M 2975 -200 
L 2700 -475 
Q 2075 125 1762 775 
Q 1450 1425 1450 2250 
Q 1450 3075 1762 3725 
Q 2075 4375 2700 5000 
L 2975 4725 
Q 2400 4175 2112 3587 
Q 1825 3000 1825 2250 
Q 1825 1500 2112 912 
Q 2400 325 2975 -200 
z
" transform="scale(0.015625)"/>
       <path id="SimHei-6d" d="M 3050 125 
L 2550 125 
L 2550 2150 
Q 2550 2300 2500 2400 
Q 2450 2500 2300 2500 
Q 2125 2500 1975 2312 
Q 1825 2125 1825 1825 
L 1825 125 
L 1325 125 
L 1325 2150 
Q 1325 2300 1275 2400 
Q 1225 2500 1075 2500 
Q 900 2500 750 2312 
Q 600 2125 600 1825 
L 600 125 
L 100 125 
L 100 2925 
L 600 2925 
L 600 2550 
Q 725 2750 900 2862 
Q 1075 2975 1275 2975 
Q 1475 2975 1612 2862 
Q 1750 2750 1800 2550 
Q 1925 2750 2087 2862 
Q 2250 2975 2450 2975 
Q 2750 2975 2900 2812 
Q 3050 2650 3050 2350 
L 3050 125 
z
" transform="scale(0.015625)"/>
       <path id="SimHei-29" d="M 1675 2250 
Q 1675 1425 1362 775 
Q 1050 125 425 -475 
L 150 -200 
Q 725 325 1012 912 
Q 1300 1500 1300 2250 
Q 1300 3000 1012 3587 
Q 725 4175 150 4725 
L 425 5000 
Q 1050 4375 1362 3725 
Q 1675 3075 1675 2250 
z
" transform="scale(0.015625)"/>
      </defs>
      <use xlink:href="#SimHei-884c"/>
      <use xlink:href="#SimHei-7a0b" x="100"/>
      <use xlink:href="#SimHei-20" x="200"/>
      <use xlink:href="#SimHei-73" x="250"/>
      <use xlink:href="#SimHei-20" x="300"/>
      <use xlink:href="#SimHei-28" x="350"/>
      <use xlink:href="#SimHei-6d" x="400"/>
      <use xlink:href="#SimHei-6d" x="450"/>
      <use xlink:href="#SimHei-29" x="500"/>
     </g>
    </g>
   </g>
   <g id="matplotlib.axis_2">
    <g id="ytick_1">
     <g id="line2d_13">
      <path d="M 44.45 433.142883 
L 841.2225 433.142883 
" clip-path="url(#pb26c9a68be)" style="fill: none; stroke-dasharray: 2.96,1.28; stroke-dashoffset: 0; stroke: #b0b0b0; stroke-opacity: 0.7; stroke-width: 0.8"/>
     </g>
     <g id="line2d_14">
      <defs>
       <path id="ma499a1e8e8" d="M 0 0 
L -3.5 0 
" style="stroke: #000000; stroke-width: 0.8"/>
      </defs>
      <g>
       <use xlink:href="#ma499a1e8e8" x="44.45" y="433.142883" style="stroke: #000000; stroke-width: 0.8"/>
      </g>
     </g>
     <g id="text_8">
      <!-- 0.0 -->
      <g transform="translate(22.45 436.580383) scale(0.1 -0.1)">
       <defs>
        <path id="SimHei-2e" d="M 1075 125 
L 500 125 
L 500 675 
L 1075 675 
L 1075 125 
z
" transform="scale(0.015625)"/>
       </defs>
       <use xlink:href="#SimHei-30"/>
       <use xlink:href="#SimHei-2e" x="50"/>
       <use xlink:href="#SimHei-30" x="100"/>
      </g>
     </g>
    </g>
    <g id="ytick_2">
     <g id="line2d_15">
      <path d="M 44.45 390.035492 
L 841.2225 390.035492 
" clip-path="url(#pb26c9a68be)" style="fill: none; stroke-dasharray: 2.96,1.28; stroke-dashoffset: 0; stroke: #b0b0b0; stroke-opacity: 0.7; stroke-width: 0.8"/>
     </g>
     <g id="line2d_16">
      <g>
       <use xlink:href="#ma499a1e8e8" x="44.45" y="390.035492" style="stroke: #000000; stroke-width: 0.8"/>
      </g>
     </g>
     <g id="text_9">
      <!-- 0.5 -->
      <g transform="translate(22.45 393.472992) scale(0.1 -0.1)">
       <use xlink:href="#SimHei-30"/>
       <use xlink:href="#SimHei-2e" x="50"/>
       <use xlink:href="#SimHei-35" x="100"/>
      </g>
     </g>
    </g>
    <g id="ytick_3">
     <g id="line2d_17">
      <path d="M 44.45 346.928101 
L 841.2225 346.928101 
" clip-path="url(#pb26c9a68be)" style="fill: none; stroke-dasharray: 2.96,1.28; stroke-dashoffset: 0; stroke: #b0b0b0; stroke-opacity: 0.7; stroke-width: 0.8"/>
     </g>
     <g id="line2d_18">
      <g>
       <use xlink:href="#ma499a1e8e8" x="44.45" y="346.928101" style="stroke: #000000; stroke-width: 0.8"/>
      </g>
     </g>
     <g id="text_10">
      <!-- 1.0 -->
      <g transform="translate(22.45 350.365601) scale(0.1 -0.1)">
       <use xlink:href="#SimHei-31"/>
       <use xlink:href="#SimHei-2e" x="50"/>
       <use xlink:href="#SimHei-30" x="100"/>
      </g>
     </g>
    </g>
    <g id="ytick_4">
     <g id="line2d_19">
      <path d="M 44.45 303.82071 
L 841.2225 303.82071 
" clip-path="url(#pb26c9a68be)" style="fill: none; stroke-dasharray: 2.96,1.28; stroke-dashoffset: 0; stroke: #b0b0b0; stroke-opacity: 0.7; stroke-width: 0.8"/>
     </g>
     <g id="line2d_20">
      <g>
       <use xlink:href="#ma499a1e8e8" x="44.45" y="303.82071" style="stroke: #000000; stroke-width: 0.8"/>
      </g>
     </g>
     <g id="text_11">
      <!-- 1.5 -->
      <g transform="translate(22.45 307.25821) scale(0.1 -0.1)">
       <use xlink:href="#SimHei-31"/>
       <use xlink:href="#SimHei-2e" x="50"/>
       <use xlink:href="#SimHei-35" x="100"/>
      </g>
     </g>
    </g>
    <g id="ytick_5">
     <g id="line2d_21">
      <path d="M 44.45 260.713319 
L 841.2225 260.713319 
" clip-path="url(#pb26c9a68be)" style="fill: none; stroke-dasharray: 2.96,1.28; stroke-dashoffset: 0; stroke: #b0b0b0; stroke-opacity: 0.7; stroke-width: 0.8"/>
     </g>
     <g id="line2d_22">
      <g>
       <use xlink:href="#ma499a1e8e8" x="44.45" y="260.713319" style="stroke: #000000; stroke-width: 0.8"/>
      </g>
     </g>
     <g id="text_12">
      <!-- 2.0 -->
      <g transform="translate(22.45 264.150819) scale(0.1 -0.1)">
       <use xlink:href="#SimHei-32"/>
       <use xlink:href="#SimHei-2e" x="50"/>
       <use xlink:href="#SimHei-30" x="100"/>
      </g>
     </g>
    </g>
    <g id="ytick_6">
     <g id="line2d_23">
      <path d="M 44.45 217.605928 
L 841.2225 217.605928 
" clip-path="url(#pb26c9a68be)" style="fill: none; stroke-dasharray: 2.96,1.28; stroke-dashoffset: 0; stroke: #b0b0b0; stroke-opacity: 0.7; stroke-width: 0.8"/>
     </g>
     <g id="line2d_24">
      <g>
       <use xlink:href="#ma499a1e8e8" x="44.45" y="217.605928" style="stroke: #000000; stroke-width: 0.8"/>
      </g>
     </g>
     <g id="text_13">
      <!-- 2.5 -->
      <g transform="translate(22.45 221.043428) scale(0.1 -0.1)">
       <use xlink:href="#SimHei-32"/>
       <use xlink:href="#SimHei-2e" x="50"/>
       <use xlink:href="#SimHei-35" x="100"/>
      </g>
     </g>
    </g>
    <g id="ytick_7">
     <g id="line2d_25">
      <path d="M 44.45 174.498537 
L 841.2225 174.498537 
" clip-path="url(#pb26c9a68be)" style="fill: none; stroke-dasharray: 2.96,1.28; stroke-dashoffset: 0; stroke: #b0b0b0; stroke-opacity: 0.7; stroke-width: 0.8"/>
     </g>
     <g id="line2d_26">
      <g>
       <use xlink:href="#ma499a1e8e8" x="44.45" y="174.498537" style="stroke: #000000; stroke-width: 0.8"/>
      </g>
     </g>
     <g id="text_14">
      <!-- 3.0 -->
      <g transform="translate(22.45 177.936037) scale(0.1 -0.1)">
       <defs>
        <path id="SimHei-33" d="M 250 1225 
L 700 1300 
Q 800 975 1025 762 
Q 1250 550 1587 562 
Q 1925 575 2125 837 
Q 2325 1100 2300 1437 
Q 2275 1775 2037 1962 
Q 1800 2150 1275 2225 
L 1275 2550 
Q 1800 2600 2037 2825 
Q 2275 3050 2250 3412 
Q 2225 3775 1925 3937 
Q 1625 4100 1287 3975 
Q 950 3850 750 3275 
L 300 3350 
Q 450 3800 712 4100 
Q 975 4400 1425 4450 
Q 1875 4500 2212 4337 
Q 2550 4175 2687 3837 
Q 2825 3500 2725 3100 
Q 2625 2700 2150 2400 
Q 2500 2250 2687 1950 
Q 2875 1650 2812 1162 
Q 2750 675 2375 375 
Q 2000 75 1525 87 
Q 1050 100 700 387 
Q 350 675 250 1225 
z
" transform="scale(0.015625)"/>
       </defs>
       <use xlink:href="#SimHei-33"/>
       <use xlink:href="#SimHei-2e" x="50"/>
       <use xlink:href="#SimHei-30" x="100"/>
      </g>
     </g>
    </g>
    <g id="ytick_8">
     <g id="line2d_27">
      <path d="M 44.45 131.391146 
L 841.2225 131.391146 
" clip-path="url(#pb26c9a68be)" style="fill: none; stroke-dasharray: 2.96,1.28; stroke-dashoffset: 0; stroke: #b0b0b0; stroke-opacity: 0.7; stroke-width: 0.8"/>
     </g>
     <g id="line2d_28">
      <g>
       <use xlink:href="#ma499a1e8e8" x="44.45" y="131.391146" style="stroke: #000000; stroke-width: 0.8"/>
      </g>
     </g>
     <g id="text_15">
      <!-- 3.5 -->
      <g transform="translate(22.45 134.828646) scale(0.1 -0.1)">
       <use xlink:href="#SimHei-33"/>
       <use xlink:href="#SimHei-2e" x="50"/>
       <use xlink:href="#SimHei-35" x="100"/>
      </g>
     </g>
    </g>
    <g id="ytick_9">
     <g id="line2d_29">
      <path d="M 44.45 88.283755 
L 841.2225 88.283755 
" clip-path="url(#pb26c9a68be)" style="fill: none; stroke-dasharray: 2.96,1.28; stroke-dashoffset: 0; stroke: #b0b0b0; stroke-opacity: 0.7; stroke-width: 0.8"/>
     </g>
     <g id="line2d_30">
      <g>
       <use xlink:href="#ma499a1e8e8" x="44.45" y="88.283755" style="stroke: #000000; stroke-width: 0.8"/>
      </g>
     </g>
     <g id="text_16">
      <!-- 4.0 -->
      <g transform="translate(22.45 91.721255) scale(0.1 -0.1)">
       <defs>
        <path id="SimHei-34" d="M 2000 1100 
L 75 1100 
L 75 1525 
L 2100 4450 
L 2475 4450 
L 2475 1525 
L 3075 1525 
L 3075 1100 
L 2475 1100 
L 2475 150 
L 2000 150 
L 2000 1100 
z
M 2000 1525 
L 2000 3500 
L 600 1525 
L 2000 1525 
z
" transform="scale(0.015625)"/>
       </defs>
       <use xlink:href="#SimHei-34"/>
       <use xlink:href="#SimHei-2e" x="50"/>
       <use xlink:href="#SimHei-30" x="100"/>
      </g>
     </g>
    </g>
    <g id="text_17">
     <!-- 切宽 ae (mm) -->
     <g transform="translate(16.95 296.713319) rotate(-90) scale(0.12 -0.12)">
      <defs>
       <path id="SimHei-5207" d="M 4200 125 
Q 4875 125 5037 187 
Q 5200 250 5225 525 
L 5400 4175 
L 4250 4175 
Q 4275 2875 4075 1987 
Q 3875 1100 3500 575 
Q 3125 50 2425 -575 
Q 2275 -375 1900 -250 
Q 2550 200 2937 675 
Q 3325 1150 3550 1925 
Q 3775 2700 3750 4175 
Q 3200 4175 2700 4150 
L 2700 4600 
Q 3175 4575 3625 4575 
L 5900 4575 
Q 5875 4200 5850 3700 
L 5700 325 
Q 5625 -250 5312 -337 
Q 5000 -425 4450 -525 
Q 4400 -200 4200 125 
z
M 1175 4275 
Q 1175 4625 1150 5000 
L 1650 5000 
Q 1625 4625 1625 4300 
L 1625 3275 
Q 2150 3350 2700 3425 
Q 2725 3150 2750 2975 
Q 2325 2925 1625 2850 
L 1625 1050 
Q 2325 1475 2650 1750 
Q 2725 1550 2875 1300 
Q 2325 975 1225 200 
Q 1075 500 925 650 
Q 1175 850 1175 1125 
L 1175 2775 
Q 675 2725 325 2675 
Q 300 2975 275 3150 
Q 650 3175 1175 3225 
L 1175 4275 
z
" transform="scale(0.015625)"/>
       <path id="SimHei-5bbd" d="M 2225 3525 
Q 2225 3700 2200 3925 
L 2700 3925 
Q 2675 3700 2675 3525 
L 3650 3525 
Q 3650 3675 3625 3950 
L 4125 3950 
Q 4100 3675 4100 3525 
Q 4625 3525 5100 3550 
L 5100 3075 
Q 4575 3125 4100 3125 
L 4100 2475 
L 5025 2475 
Q 5000 2175 5000 1875 
L 5000 1475 
Q 5000 1225 5025 825 
L 4525 825 
L 4525 2100 
L 1800 2100 
L 1800 750 
L 1300 750 
Q 1325 1200 1325 1450 
L 1325 1850 
Q 1325 2175 1300 2475 
L 2225 2475 
L 2225 3125 
L 1875 3125 
Q 1700 3125 1225 3050 
L 1225 3550 
Q 1700 3525 1875 3525 
L 2225 3525 
z
M 5375 3500 
L 5375 4175 
L 950 4175 
L 950 3400 
L 425 3400 
Q 450 3725 450 3950 
Q 450 4200 425 4575 
L 3025 4575 
Q 2975 4700 2725 5125 
Q 3050 5200 3300 5300 
Q 3500 4900 3625 4575 
L 5900 4575 
Q 5875 4250 5875 3975 
Q 5875 3700 5900 3500 
L 5375 3500 
z
M 3325 1825 
Q 3100 900 2850 462 
Q 2600 25 2112 -237 
Q 1625 -500 650 -700 
Q 550 -350 400 -100 
Q 1025 -75 1450 37 
Q 1875 150 2150 387 
Q 2425 625 2550 987 
Q 2675 1350 2725 1950 
Q 3100 1850 3325 1825 
z
M 3975 1250 
Q 3950 925 3950 675 
L 3950 150 
Q 3950 -75 4200 -100 
L 4950 -100 
Q 5250 -100 5400 0 
Q 5550 100 5650 550 
Q 5875 400 6125 300 
Q 5925 -500 5175 -525 
L 4025 -525 
Q 3500 -500 3450 -25 
L 3450 725 
Q 3450 925 3425 1250 
L 3975 1250 
z
M 3650 2475 
L 3650 3125 
L 2675 3125 
L 2675 2475 
L 3650 2475 
z
" transform="scale(0.015625)"/>
       <path id="SimHei-61" d="M 2875 125 
L 2275 125 
Q 2225 175 2200 262 
Q 2175 350 2175 475 
Q 2000 275 1750 175 
Q 1500 75 1225 75 
Q 825 75 550 275 
Q 275 475 275 850 
Q 275 1225 525 1450 
Q 775 1675 1300 1750 
Q 1650 1800 1912 1875 
Q 2175 1950 2175 2075 
Q 2175 2225 2062 2375 
Q 1950 2525 1575 2525 
Q 1275 2525 1137 2412 
Q 1000 2300 950 2100 
L 400 2100 
Q 450 2500 762 2737 
Q 1075 2975 1575 2975 
Q 2125 2975 2400 2725 
Q 2675 2475 2675 2025 
L 2675 650 
Q 2675 500 2725 375 
Q 2775 250 2875 125 
z
M 2175 1050 
L 2175 1550 
Q 2025 1500 1887 1462 
Q 1750 1425 1425 1375 
Q 1050 1325 937 1200 
Q 825 1075 825 900 
Q 825 750 937 637 
Q 1050 525 1275 525 
Q 1500 525 1762 650 
Q 2025 775 2175 1050 
z
" transform="scale(0.015625)"/>
       <path id="SimHei-65" d="M 2850 1075 
Q 2800 625 2450 350 
Q 2100 75 1625 75 
Q 1025 75 637 462 
Q 250 850 250 1525 
Q 250 2200 637 2587 
Q 1025 2975 1625 2975 
Q 2150 2975 2487 2637 
Q 2825 2300 2825 1525 
L 800 1525 
Q 800 975 1037 750 
Q 1275 525 1625 525 
Q 1900 525 2075 662 
Q 2250 800 2300 1075 
L 2850 1075 
z
M 2250 1925 
Q 2200 2275 2025 2412 
Q 1850 2550 1575 2550 
Q 1325 2550 1125 2412 
Q 925 2275 825 1925 
L 2250 1925 
z
" transform="scale(0.015625)"/>
      </defs>
      <use xlink:href="#SimHei-5207"/>
      <use xlink:href="#SimHei-5bbd" x="100"/>
      <use xlink:href="#SimHei-20" x="200"/>
      <use xlink:href="#SimHei-61" x="250"/>
      <use xlink:href="#SimHei-65" x="300"/>
      <use xlink:href="#SimHei-20" x="350"/>
      <use xlink:href="#SimHei-28" x="400"/>
      <use xlink:href="#SimHei-6d" x="450"/>
      <use xlink:href="#SimHei-6d" x="500"/>
      <use xlink:href="#SimHei-29" x="550"/>
     </g>
    </g>
   </g>
   <g id="line2d_31">
    <path d="M 80.666932 433.142883 
L 93.909613 433.142883 
L 93.909613 88.283755 
L 94.908092 88.283755 
L 104.577583 88.283755 
L 104.577583 433.142883 
L 105.568863 88.283755 
L 110.384842 88.283755 
L 110.501175 433.142883 
L 111.384497 88.283755 
L 112.915055 88.283755 
L 112.92536 433.142883 
L 113.909125 433.142883 
L 114.001678 433.142883 
L 114.033992 88.283755 
L 114.245021 433.142883 
L 115.387871 433.142883 
L 115.400798 88.283755 
L 116.377313 88.283755 
L 117.282114 88.283755 
L 117.475628 433.142883 
L 118.277486 88.283755 
L 121.845002 88.283755 
L 121.986963 433.142883 
L 122.843447 433.142883 
L 123.516799 433.142883 
L 123.529709 88.283755 
L 124.516568 88.283755 
L 127.03773 88.283755 
L 127.934878 433.142883 
L 128.037553 94.402418 
L 128.050477 94.402418 
L 128.050477 88.283755 
L 128.256719 433.142883 
L 129.040828 88.283755 
L 130.376812 88.283755 
L 130.387132 433.142883 
L 130.764821 433.142883 
L 133.294161 433.142883 
L 133.320673 88.283755 
L 134.292119 373.940831 
L 134.305052 373.940831 
L 134.305052 392.023519 
L 134.343815 88.283755 
L 135.294211 88.283755 
L 136.806469 88.283755 
L 136.985833 433.142883 
L 137.802879 433.142883 
L 141.440089 433.142883 
L 141.453032 88.283755 
L 142.401388 433.142883 
L 142.702843 433.142883 
L 142.72869 88.283755 
L 143.688122 433.142883 
L 143.720419 433.142883 
L 143.767156 391.759788 
L 144.716331 433.142883 
L 144.889072 433.142883 
L 144.953692 88.283755 
L 145.88116 88.283755 
L 147.212514 88.283755 
L 147.958037 433.142883 
L 148.208509 433.142883 
L 148.460726 433.142883 
L 148.460726 88.283755 
L 149.457325 88.283755 
L 151.086794 88.283755 
L 151.102393 433.142883 
L 152.078923 88.283755 
L 152.991694 88.283755 
L 153.114907 433.142883 
L 153.989793 165.457193 
L 154.001298 165.457193 
L 154.062154 88.283755 
L 154.395992 433.142883 
L 154.994996 433.142883 
L 155.007927 433.142883 
L 155.020863 88.283755 
L 156.004361 433.142883 
L 156.577975 433.142883 
L 156.629682 88.283755 
L 157.460428 433.142883 
L 158.82914 433.142883 
L 158.945476 88.283755 
L 159.824475 88.283755 
L 159.888594 88.283755 
L 159.89118 433.142883 
L 160.876015 88.283755 
L 161.243967 88.283755 
L 161.256894 433.142883 
L 162.237247 88.283755 
L 163.005908 88.283755 
L 163.018821 433.142883 
L 164.003238 88.283755 
L 164.537842 88.283755 
L 164.550765 433.142883 
L 165.531643 88.283755 
L 166.222227 88.283755 
L 166.229987 433.142883 
L 167.217379 88.283755 
L 168.031483 88.283755 
L 168.036665 433.142883 
L 169.028098 88.283755 
L 169.434803 88.283755 
L 169.455282 433.142883 
L 170.238803 433.142883 
L 170.755329 433.142883 
L 170.781168 88.283755 
L 171.747917 433.142883 
L 172.173771 433.142883 
L 172.186691 88.283755 
L 173.171994 88.283755 
L 173.218207 88.283755 
L 173.23371 433.142883 
L 174.215994 88.283755 
L 175.174459 88.283755 
L 175.182223 433.142883 
L 176.165036 88.283755 
L 177.076141 88.283755 
L 177.086471 433.142883 
L 178.075616 88.283755 
L 179.617688 88.283755 
L 179.625425 433.142883 
L 180.607517 88.283755 
L 182.519853 88.283755 
L 182.527598 433.142883 
L 183.51813 88.283755 
L 183.57784 88.283755 
L 183.861806 433.142883 
L 184.575509 88.283755 
L 185.743992 88.283755 
L 185.751888 433.142883 
L 186.7325 88.283755 
L 187.670319 88.283755 
L 187.680662 433.142883 
L 188.666421 88.283755 
L 189.784425 88.283755 
L 189.85632 433.142883 
L 190.780836 88.283755 
L 191.755255 88.283755 
L 191.76918 433.142883 
L 192.753909 88.283755 
L 193.454651 88.283755 
L 193.460833 433.142883 
L 194.445612 88.283755 
L 195.106315 88.283755 
L 195.121812 433.142883 
L 196.103258 88.283755 
L 196.634489 88.283755 
L 196.642267 433.142883 
L 197.62658 88.283755 
L 198.036504 88.283755 
L 198.130429 433.142883 
L 199.030331 88.283755 
L 199.530714 88.283755 
L 199.548805 433.142883 
L 200.526549 88.283755 
L 200.894016 88.283755 
L 200.908363 433.142883 
L 201.882555 433.142883 
L 202.083866 433.142883 
L 202.258823 88.283755 
L 203.078721 372.645971 
L 203.08812 372.645971 
L 203.097891 433.142883 
L 203.783375 88.283755 
L 204.087772 433.142883 
L 204.51073 433.142883 
L 205.379715 88.283755 
L 205.509014 433.142883 
L 206.036231 433.142883 
L 206.269991 238.233677 
L 207.034383 433.142883 
L 209.103022 433.142883 
L 209.167305 88.283755 
L 210.095007 252.091841 
L 210.444007 252.091841 
L 210.521562 433.142883 
L 211.181081 433.142883 
L 213.798747 433.142883 
L 213.811667 88.283755 
L 214.796064 433.142883 
L 214.875259 433.142883 
L 214.888185 88.283755 
L 215.857889 433.142883 
L 215.958356 433.142883 
L 215.958356 88.283755 
L 216.93506 433.142883 
L 217.140199 433.142883 
L 217.153125 88.283755 
L 218.13521 433.142883 
L 218.37082 433.142883 
L 218.383744 88.283755 
L 219.365392 433.142883 
L 219.747018 433.142883 
L 219.759944 88.283755 
L 220.741229 433.142883 
L 221.192621 433.142883 
L 221.205545 88.283755 
L 222.186766 433.142883 
L 222.759399 433.142883 
L 222.772325 88.283755 
L 223.758979 242.474582 
L 223.771896 242.474582 
L 223.823589 433.142883 
L 224.551522 88.283755 
L 224.7629 88.283755 
L 225.061922 88.283755 
L 225.066818 433.142883 
L 226.049727 222.675357 
L 226.06193 222.675357 
L 226.110816 88.283755 
L 226.202971 433.142883 
L 227.050882 353.703807 
L 227.062903 353.703807 
L 227.147523 88.283755 
L 227.2782 433.142883 
L 228.059584 433.142883 
L 228.354869 433.142883 
L 228.447901 88.283755 
L 229.343166 433.142883 
L 229.405895 433.142883 
L 229.507477 88.283755 
L 230.400139 88.283755 
L 230.464719 88.283755 
L 230.572819 433.142883 
L 231.264466 433.142883 
L 231.832357 433.142883 
L 231.869257 88.283755 
L 232.825223 433.142883 
L 233.676407 433.142883 
L 233.689349 250.253742 
L 234.237343 433.142883 
L 235.157666 433.142883 
L 235.501353 104.934416 
L 236.151449 433.142883 
L 238.395773 433.142883 
L 238.473317 88.283755 
L 239.338949 433.142883 
L 239.544101 433.142883 
L 239.557044 88.283755 
L 240.533079 433.142883 
L 243.95573 433.142883 
L 244.110415 321.418872 
L 244.95261 414.983291 
L 245.017248 414.853969 
L 245.017248 433.142883 
L 245.85174 328.74799 
L 246.007059 433.142883 
L 247.402848 433.142883 
L 247.455381 334.416612 
L 248.390209 396.565055 
L 248.454828 396.823786 
L 248.467752 433.142883 
L 249.198328 335.111503 
L 249.452097 433.142883 
L 252.823324 433.142883 
L 252.823324 88.283755 
L 253.821803 88.283755 
L 263.491294 88.283755 
L 263.491294 433.142883 
L 264.482574 88.283755 
L 269.298554 88.283755 
L 269.414887 433.142883 
L 270.298208 88.283755 
L 271.828766 88.283755 
L 271.839071 433.142883 
L 272.822836 433.142883 
L 272.915389 433.142883 
L 272.947703 88.283755 
L 273.158732 433.142883 
L 274.301583 433.142883 
L 274.314509 88.283755 
L 275.291024 88.283755 
L 276.195825 88.283755 
L 276.389339 433.142883 
L 277.191197 88.283755 
L 280.758713 88.283755 
L 280.900674 433.142883 
L 281.757158 433.142883 
L 282.430511 433.142883 
L 282.44342 88.283755 
L 283.430279 88.283755 
L 285.868215 88.283755 
L 285.878953 433.142883 
L 286.86748 371.115227 
L 286.880393 371.115227 
L 287.004582 88.283755 
L 287.222194 433.142883 
L 287.879711 88.283755 
L 289.309557 88.283755 
L 289.319906 433.142883 
L 289.70394 433.142883 
L 292.297891 433.142883 
L 292.317554 88.283755 
L 293.296967 433.142883 
L 293.682431 433.142883 
L 293.708297 88.283755 
L 294.562983 433.142883 
L 294.847137 433.142883 
L 294.872985 88.283755 
L 295.833428 433.142883 
L 296.690399 433.142883 
L 296.716238 88.283755 
L 297.687001 88.283755 
L 299.147574 88.283755 
L 299.32728 433.142883 
L 300.142522 433.142883 
L 300.235158 433.142883 
L 300.248076 88.283755 
L 301.234737 88.283755 
L 303.083378 88.283755 
L 303.10001 433.142883 
L 304.072638 88.283755 
L 305.917801 88.283755 
L 306.582664 433.142883 
L 306.915771 433.142883 
L 307.1692 433.142883 
L 307.182122 88.283755 
L 308.167511 297.207174 
L 308.180434 297.207174 
L 308.524092 88.283755 
L 308.550381 433.142883 
L 309.171619 88.283755 
L 309.653498 88.283755 
L 309.666418 433.142883 
L 310.053589 433.142883 
L 311.650597 433.142883 
L 311.717344 88.283755 
L 312.65019 433.142883 
L 313.099614 433.142883 
L 313.112544 88.283755 
L 313.99147 433.142883 
L 314.438793 433.142883 
L 314.476412 393.850841 
L 314.863482 433.142883 
L 316.064446 433.142883 
L 316.259586 88.283755 
L 317.062225 88.283755 
L 317.185062 88.283755 
L 317.20057 433.142883 
L 318.176258 88.283755 
L 318.446288 88.283755 
L 318.459204 433.142883 
L 319.440785 88.283755 
L 320.188274 88.283755 
L 320.198615 433.142883 
L 321.187532 88.283755 
L 321.689012 88.283755 
L 321.699326 433.142883 
L 322.682589 88.283755 
L 323.344154 88.283755 
L 323.351895 433.142883 
L 324.338784 88.283755 
L 325.12637 88.283755 
L 325.144457 433.142883 
L 326.118858 88.283755 
L 326.46024 88.283755 
L 326.48187 433.142883 
L 327.265303 433.142883 
L 327.791994 433.142883 
L 327.80491 88.283755 
L 328.785358 433.142883 
L 329.161203 433.142883 
L 329.17414 88.283755 
L 330.156957 88.283755 
L 330.18547 88.283755 
L 330.198381 433.142883 
L 331.18153 88.283755 
L 332.086199 88.283755 
L 332.101715 433.142883 
L 333.077835 88.283755 
L 333.958116 88.283755 
L 333.968452 433.142883 
L 334.94829 88.283755 
L 336.469668 88.283755 
L 336.47743 433.142883 
L 337.461321 88.283755 
L 339.327316 88.283755 
L 339.342842 433.142883 
L 340.320496 88.283755 
L 340.359676 88.283755 
L 340.685011 433.142883 
L 341.359446 88.283755 
L 342.499745 88.283755 
L 342.504914 433.142883 
L 343.49686 88.283755 
L 344.429352 88.283755 
L 344.613257 433.142883 
L 345.427711 88.283755 
L 346.533164 88.283755 
L 346.615061 433.142883 
L 347.527509 88.283755 
L 348.515242 88.283755 
L 348.528729 433.142883 
L 349.504169 88.283755 
L 350.217339 88.283755 
L 350.224364 433.142883 
L 351.207548 88.283755 
L 351.868177 88.283755 
L 351.878523 433.142883 
L 352.867376 88.283755 
L 353.39295 88.283755 
L 353.405883 433.142883 
L 354.390783 88.283755 
L 354.803132 88.283755 
L 354.819187 433.142883 
L 355.796645 88.283755 
L 356.299762 88.283755 
L 356.315251 433.142883 
L 357.295409 88.283755 
L 357.660681 88.283755 
L 357.673031 433.142883 
L 358.651749 433.142883 
L 358.853072 433.142883 
L 359.028037 88.283755 
L 359.851067 381.452035 
L 359.860457 381.452035 
L 359.860457 433.142883 
L 360.568156 88.283755 
L 360.855088 433.142883 
L 361.283848 433.142883 
L 362.180141 88.283755 
L 362.278914 433.142883 
L 362.854976 433.142883 
L 362.854976 280.820331 
L 363.850415 433.142883 
L 365.864149 433.142883 
L 365.928432 88.283755 
L 366.856093 252.091841 
L 367.205092 252.091841 
L 367.282648 433.142883 
L 367.94218 433.142883 
L 370.527428 433.142883 
L 370.540345 88.283755 
L 371.523799 433.142883 
L 371.571723 433.142883 
L 371.584649 88.283755 
L 372.568614 433.142883 
L 372.617549 433.142883 
L 372.630469 88.283755 
L 373.527229 433.142883 
L 373.732393 433.142883 
L 373.745319 88.283755 
L 374.731438 433.142883 
L 374.877385 433.142883 
L 374.890327 88.283755 
L 375.876561 433.142883 
L 376.145242 433.142883 
L 376.158168 88.283755 
L 377.144439 433.142883 
L 377.485642 433.142883 
L 377.498584 88.283755 
L 378.482939 433.142883 
L 378.942859 433.142883 
L 378.955785 88.283755 
L 379.941161 433.142883 
L 380.500126 433.142883 
L 380.863521 88.283755 
L 381.496689 433.142883 
L 382.056419 433.142883 
L 382.069344 88.283755 
L 383.054631 433.142883 
L 383.168409 433.142883 
L 383.181337 88.283755 
L 384.167459 433.142883 
L 384.220617 433.142883 
L 384.233543 88.283755 
L 385.220168 433.142883 
L 385.281092 433.142883 
L 385.294029 88.283755 
L 386.249337 433.142883 
L 386.440859 433.142883 
L 386.440859 252.091841 
L 387.411903 433.142883 
L 390.428219 433.142883 
L 390.827544 88.283755 
L 391.428142 88.283755 
L 391.603715 88.283755 
L 391.61405 433.142883 
L 392.601446 433.142883 
L 392.76319 433.142883 
L 392.76319 287.504563 
L 393.196624 433.142883 
L 394.38053 433.142883 
L 394.44295 88.283755 
L 395.375603 433.142883 
L 395.666478 433.142883 
L 395.679402 88.283755 
L 396.5361 433.142883 
L 396.846253 433.142883 
L 396.872101 88.283755 
L 397.474112 433.142883 
L 400.56013 433.142883 
L 401.083031 297.398571 
L 401.552786 433.142883 
L 401.826259 433.142883 
L 402.818996 301.615336 
L 402.83191 301.615336 
L 402.977442 433.142883 
L 402.903708 290.688475 
L 403.825855 433.142883 
L 404.111722 433.142883 
L 404.534978 287.948569 
L 405.103846 433.142883 
L 405.335209 433.142883 
L 406.332298 322.263776 
L 406.34522 322.263776 
L 406.501667 433.142883 
L 406.409824 296.088969 
L 407.337168 433.142883 
L 410.272781 433.142883 
L 410.272781 88.283755 
L 411.271259 88.283755 
L 420.940751 88.283755 
L 420.940751 433.142883 
L 421.932031 88.283755 
L 426.74801 88.283755 
L 426.864343 433.142883 
L 427.747665 88.283755 
L 429.278223 88.283755 
L 429.288528 433.142883 
L 430.272293 433.142883 
L 430.364846 433.142883 
L 430.39716 88.283755 
L 430.608189 433.142883 
L 431.751039 433.142883 
L 431.763966 88.283755 
L 432.740481 88.283755 
L 433.645282 88.283755 
L 433.838795 433.142883 
L 434.640653 88.283755 
L 438.208169 88.283755 
L 438.35013 433.142883 
L 439.206615 433.142883 
L 439.879967 433.142883 
L 439.892877 88.283755 
L 440.879736 88.283755 
L 443.269199 88.283755 
L 443.279517 433.142883 
L 444.266244 433.142883 
L 444.289374 433.142883 
L 444.501011 88.283755 
L 445.288216 88.283755 
L 446.794169 88.283755 
L 446.804528 433.142883 
L 447.194029 433.142883 
L 449.822908 433.142883 
L 449.83585 88.283755 
L 450.819177 433.142883 
L 451.157611 433.142883 
L 451.170516 88.283755 
L 452.119419 433.142883 
L 452.233198 433.142883 
L 452.24614 88.283755 
L 452.71961 433.142883 
L 453.526614 433.142883 
L 453.956064 88.283755 
L 454.515609 88.283755 
L 454.67129 88.283755 
L 454.67129 433.142883 
L 455.664968 88.283755 
L 455.72713 88.283755 
L 455.737481 433.142883 
L 456.035799 433.142883 
L 457.027792 433.142883 
L 457.040697 88.283755 
L 458.02441 433.142883 
L 458.335447 433.142883 
L 458.361295 88.283755 
L 459.332784 433.142883 
L 459.386086 433.142883 
L 459.399028 88.283755 
L 459.864947 433.142883 
L 460.669684 433.142883 
L 460.729403 88.283755 
L 461.66811 433.142883 
L 461.965997 433.142883 
L 461.978923 88.283755 
L 462.949374 433.142883 
L 463.247091 433.142883 
L 463.260007 88.283755 
L 464.242178 433.142883 
L 464.305726 433.142883 
L 464.318652 88.283755 
L 465.298719 433.142883 
L 465.331026 433.142883 
L 465.343955 88.283755 
L 466.326665 433.142883 
L 466.35898 433.142883 
L 466.371906 88.283755 
L 467.355296 433.142883 
L 467.387612 433.142883 
L 467.400538 88.283755 
L 468.33445 433.142883 
L 468.525972 433.142883 
L 468.538898 88.283755 
L 469.525538 433.142883 
L 469.722497 433.142883 
L 469.735439 88.283755 
L 470.718949 433.142883 
L 471.048532 433.142883 
L 471.061458 88.283755 
L 472.036244 433.142883 
L 472.46172 433.142883 
L 472.474644 88.283755 
L 473.453164 433.142883 
L 473.97773 433.142883 
L 473.990656 88.283755 
L 474.977257 387.579664 
L 474.98977 387.579664 
L 474.98977 433.142883 
L 475.68671 88.283755 
L 475.988033 88.283755 
L 476.068094 88.283755 
L 476.075668 433.142883 
L 477.062343 88.283755 
L 477.088592 88.283755 
L 477.098936 433.142883 
L 478.086746 407.278449 
L 478.099672 407.278449 
L 478.099672 433.142883 
L 478.688879 88.283755 
L 479.091229 88.283755 
L 479.155373 88.283755 
L 479.173453 433.142883 
L 480.144855 88.283755 
L 480.228678 88.283755 
L 480.241602 433.142883 
L 481.228294 88.283755 
L 481.462599 88.283755 
L 481.485844 433.142883 
L 482.451675 88.283755 
L 482.763017 88.283755 
L 482.775878 433.142883 
L 483.751983 88.283755 
L 484.248795 88.283755 
L 484.266876 433.142883 
L 485.244459 88.283755 
L 485.817149 88.283755 
L 485.829273 433.142883 
L 486.809848 88.283755 
L 487.663644 88.283755 
L 487.676556 433.142883 
L 488.651703 88.283755 
L 489.617101 88.283755 
L 489.624863 433.142883 
L 490.614497 88.283755 
L 491.978741 88.283755 
L 491.994233 433.142883 
L 492.968829 88.283755 
L 493.349487 88.283755 
L 493.354661 433.142883 
L 494.343166 88.283755 
L 494.477774 88.283755 
L 494.491049 433.142883 
L 495.473933 88.283755 
L 496.185666 88.283755 
L 496.188251 433.142883 
L 497.179594 88.283755 
L 498.05196 88.283755 
L 498.057137 433.142883 
L 499.046299 88.283755 
L 499.673553 88.283755 
L 499.689073 433.142883 
L 500.663609 88.283755 
L 501.418482 88.283755 
L 501.431405 433.142883 
L 502.417581 101.841892 
L 502.43018 101.841892 
L 502.43018 88.283755 
L 502.784669 433.142883 
L 503.421596 433.142883 
L 504.054147 433.142883 
L 504.06707 88.283755 
L 505.048951 433.142883 
L 505.381441 433.142883 
L 505.394376 88.283755 
L 506.379408 433.142883 
L 506.937425 433.142883 
L 507.819834 88.283755 
L 507.932518 88.283755 
L 508.113219 88.283755 
L 508.126136 433.142883 
L 509.095113 433.142883 
L 509.898137 433.142883 
L 509.917957 88.283755 
L 510.892763 414.724647 
L 510.944459 414.853969 
L 510.944459 433.142883 
L 511.271673 433.142883 
L 512.513909 433.142883 
L 512.525898 88.283755 
L 513.508919 88.283755 
L 514.297331 88.283755 
L 514.476837 433.142883 
L 515.287234 433.142883 
L 515.379846 433.142883 
L 515.392772 88.283755 
L 516.379284 88.283755 
L 516.767052 88.283755 
L 516.922126 433.142883 
L 517.763104 433.142883 
L 517.956792 433.142883 
L 517.956792 88.283755 
L 518.951267 290.386723 
L 518.976779 289.769425 
L 519.531912 433.142883 
L 519.1587 88.283755 
L 519.941681 433.142883 
L 520.115668 433.142883 
L 520.128603 88.283755 
L 521.108497 326.823676 
L 521.121421 326.823676 
L 521.160206 311.155864 
L 521.302979 433.142883 
L 521.860701 433.142883 
L 522.45408 433.142883 
L 522.514873 88.283755 
L 523.447736 433.142883 
L 523.897162 433.142883 
L 523.910091 88.283755 
L 524.776021 433.142883 
L 525.209922 433.142883 
L 525.247402 393.955506 
L 525.703249 433.142883 
L 528.191152 433.142883 
L 528.204066 88.283755 
L 529.185201 88.283755 
L 529.308028 88.283755 
L 529.323699 433.142883 
L 530.304182 88.283755 
L 531.154676 88.283755 
L 531.162439 433.142883 
L 532.153174 88.283755 
L 533.02479 88.283755 
L 533.040199 433.142883 
L 534.015174 88.283755 
L 534.93124 88.283755 
L 534.951253 433.142883 
L 535.930291 88.283755 
L 536.908252 88.283755 
L 536.920945 433.142883 
L 537.899366 88.283755 
L 538.474903 88.283755 
L 538.474903 433.142883 
L 539.427501 433.142883 
L 539.541274 433.142883 
L 539.576241 88.283755 
L 540.531999 433.142883 
L 541.075801 433.142883 
L 541.088727 88.283755 
L 542.068761 433.142883 
L 542.537397 433.142883 
L 542.550331 88.283755 
L 543.536487 433.142883 
L 543.947802 433.142883 
L 543.960728 88.283755 
L 544.941182 433.142883 
L 545.341903 433.142883 
L 545.35483 88.283755 
L 546.337825 433.142883 
L 546.778222 433.142883 
L 546.791147 88.283755 
L 547.766704 433.142883 
L 548.223366 433.142883 
L 548.236296 88.283755 
L 549.217334 433.142883 
L 549.748185 433.142883 
L 550.197766 252.091841 
L 550.740653 407.278449 
L 550.753579 407.278449 
L 550.753579 433.142883 
L 551.185974 88.283755 
L 551.602046 433.142883 
L 554.319398 433.142883 
L 554.35815 176.556484 
L 555.318178 292.580889 
L 555.331105 292.580889 
L 555.331105 249.371765 
L 555.390076 433.142883 
L 556.324389 433.142883 
L 563.588999 433.142883 
L 564.109758 281.491944 
L 564.581425 433.142883 
L 564.852367 433.142883 
L 565.852351 378.509007 
L 565.865293 378.509007 
L 565.999139 272.266962 
L 565.869132 433.142883 
L 566.85685 433.142883 
L 567.230072 433.142883 
L 567.636193 277.470886 
L 568.229115 433.142883 
L 568.442512 433.142883 
L 568.474824 396.306411 
L 569.436706 396.565055 
L 569.462554 396.565055 
L 569.537849 266.369871 
L 569.485002 433.142883 
L 570.459067 433.142883 
L 573.687873 433.142883 
L 573.687873 88.283755 
L 574.686351 88.283755 
L 584.355843 88.283755 
L 584.355843 433.142883 
L 585.347122 88.283755 
L 590.163102 88.283755 
L 590.279435 433.142883 
L 591.162756 88.283755 
L 592.693314 88.283755 
L 592.70362 433.142883 
L 593.687384 433.142883 
L 593.779938 433.142883 
L 593.812252 88.283755 
L 594.02328 433.142883 
L 595.166131 433.142883 
L 595.179057 88.283755 
L 596.155572 88.283755 
L 597.060374 88.283755 
L 597.253887 433.142883 
L 598.055745 88.283755 
L 601.623261 88.283755 
L 601.765222 433.142883 
L 602.621707 433.142883 
L 603.295059 433.142883 
L 603.307968 88.283755 
L 604.294828 88.283755 
L 606.670124 88.283755 
L 606.680442 433.142883 
L 607.663014 433.142883 
L 607.675932 433.142883 
L 607.93707 88.283755 
L 608.673083 88.283755 
L 610.219005 88.283755 
L 610.229329 433.142883 
L 610.623462 433.142883 
L 613.262783 433.142883 
L 613.275689 88.283755 
L 614.259525 433.142883 
L 614.576845 433.142883 
L 614.602711 88.283755 
L 615.574412 433.142883 
L 615.631423 433.142883 
L 615.644347 88.283755 
L 616.094885 433.142883 
L 616.908225 433.142883 
L 617.354347 88.283755 
L 617.896355 88.283755 
L 618.046833 88.283755 
L 618.052007 433.142883 
L 619.039214 88.283755 
L 619.113145 88.283755 
L 619.131231 433.142883 
L 619.426103 433.142883 
L 620.432481 433.142883 
L 620.445405 88.283755 
L 621.431668 433.142883 
L 621.737101 433.142883 
L 621.762949 88.283755 
L 622.733819 433.142883 
L 622.76612 433.142883 
L 622.779062 88.283755 
L 623.758423 433.142883 
L 624.078991 433.142883 
L 624.139358 88.283755 
L 625.073966 433.142883 
L 625.366786 433.142883 
L 625.379712 88.283755 
L 626.340149 433.142883 
L 626.638061 433.142883 
L 626.650985 88.283755 
L 627.633153 433.142883 
L 627.686285 433.142883 
L 627.699211 88.283755 
L 628.681888 433.142883 
L 628.694818 433.142883 
L 628.707729 88.283755 
L 629.679417 433.142883 
L 629.711732 433.142883 
L 629.724658 88.283755 
L 630.711653 433.142883 
L 630.726227 433.142883 
L 630.739155 88.283755 
L 631.711965 433.142883 
L 631.825736 433.142883 
L 631.838662 88.283755 
L 632.823877 433.142883 
L 632.995966 433.142883 
L 633.00889 88.283755 
L 633.992965 433.142883 
L 634.302233 433.142883 
L 634.315159 88.283755 
L 635.299045 433.142883 
L 635.695349 433.142883 
L 635.708273 88.283755 
L 636.692172 433.142883 
L 637.190879 433.142883 
L 637.203805 88.283755 
L 638.18927 433.142883 
L 638.85093 433.142883 
L 638.863869 88.283755 
L 639.846192 433.142883 
L 639.859118 433.142883 
L 639.872044 88.283755 
L 640.858149 88.283755 
L 641.207041 88.283755 
L 641.21219 433.142883 
L 642.206466 88.283755 
L 642.265568 88.283755 
L 642.278478 433.142883 
L 643.255833 88.283755 
L 643.311364 88.283755 
L 643.31655 433.142883 
L 644.304961 88.283755 
L 644.52094 88.283755 
L 644.536459 433.142883 
L 645.513795 88.283755 
L 645.772051 88.283755 
L 645.779797 433.142883 
L 646.765727 88.283755 
L 647.200136 88.283755 
L 647.213039 433.142883 
L 648.195935 88.283755 
L 648.723789 88.283755 
L 648.723789 433.142883 
L 649.716123 88.283755 
L 650.503057 88.283755 
L 650.523728 433.142883 
L 651.495944 88.283755 
L 652.345434 88.283755 
L 652.359718 433.142883 
L 653.337534 88.283755 
L 654.615885 88.283755 
L 654.636548 433.142883 
L 655.614411 88.283755 
L 655.989883 88.283755 
L 655.992442 181.826794 
L 656.98176 88.283755 
L 657.028421 88.283755 
L 657.042254 433.142883 
L 658.022129 88.283755 
L 658.722487 88.283755 
L 658.730244 433.142883 
L 659.71217 88.283755 
L 659.896813 88.283755 
L 659.907137 433.142883 
L 660.885324 88.283755 
L 661.438178 88.283755 
L 661.438178 433.142883 
L 662.426636 88.283755 
L 663.195734 88.283755 
L 663.206063 433.142883 
L 664.189626 88.283755 
L 664.988115 88.283755 
L 664.993268 433.142883 
L 665.285059 433.142883 
L 666.152775 433.142883 
L 666.794753 88.283755 
L 667.148 279.252084 
L 667.1606 279.252084 
L 667.286921 88.283755 
L 667.623625 433.142883 
L 668.159476 433.142883 
L 668.650352 433.142883 
L 668.767669 88.283755 
L 669.643658 433.142883 
L 670.096278 433.142883 
L 670.208884 88.283755 
L 670.966914 433.142883 
L 672.27697 433.142883 
L 672.302799 88.283755 
L 673.276104 377.836445 
L 673.301952 378.276141 
L 673.379514 433.142883 
L 673.681359 433.142883 
L 674.907422 433.142883 
L 674.920349 88.283755 
L 675.722736 433.142883 
L 678.180631 433.142883 
L 678.193553 88.283755 
L 679.173413 88.283755 
L 679.780909 88.283755 
L 679.897242 433.142883 
L 680.777178 433.142883 
L 681.148304 433.142883 
L 681.158858 88.283755 
L 682.143127 88.283755 
L 682.285217 88.283755 
L 682.996037 433.142883 
L 683.282995 433.142883 
L 683.569317 433.142883 
L 683.582243 88.283755 
L 684.563769 88.283755 
L 684.705888 88.283755 
L 684.990085 433.142883 
L 685.703671 433.142883 
L 685.716592 433.142883 
L 685.868023 88.283755 
L 686.705457 88.283755 
L 686.894788 88.283755 
L 686.909821 433.142883 
L 687.894072 112.334231 
L 687.919192 112.34199 
L 688.185633 433.142883 
L 688.008045 88.283755 
L 688.758123 433.142883 
L 689.131193 433.142883 
L 689.16996 88.283755 
L 690.004931 433.142883 
L 690.31818 433.142883 
L 690.369682 412.973452 
L 690.7982 433.142883 
L 692.253416 433.142883 
L 692.279261 88.283755 
L 693.248641 88.283755 
L 693.260691 88.283755 
L 693.271009 433.142883 
L 694.249009 433.142883 
L 694.433658 433.142883 
L 694.466731 88.283755 
L 694.941659 433.142883 
L 695.865966 433.142883 
L 695.865966 88.283755 
L 696.858517 433.142883 
L 697.440776 433.142883 
L 697.453696 88.283755 
L 698.431163 433.142883 
L 698.90907 433.142883 
L 698.921996 88.283755 
L 699.901482 433.142883 
L 700.398498 433.142883 
L 700.411436 88.283755 
L 701.395288 433.142883 
L 701.817618 433.142883 
L 701.830544 88.283755 
L 702.816441 433.142883 
L 703.235564 433.142883 
L 703.248497 88.283755 
L 704.230454 433.142883 
L 704.646407 433.142883 
L 704.659333 88.283755 
L 705.643445 433.142883 
L 706.04608 433.142883 
L 706.04608 88.283755 
L 707.036608 433.142883 
L 707.502826 433.142883 
L 707.515752 88.283755 
L 708.490612 433.142883 
L 708.991118 433.142883 
L 709.004053 88.283755 
L 709.980894 407.278449 
L 709.99382 407.278449 
L 709.99382 433.142883 
L 710.602223 88.283755 
L 710.989054 433.142883 
L 711.07766 433.142883 
L 711.242405 88.283755 
L 712.059117 433.142883 
L 712.241678 433.142883 
L 712.254603 88.283755 
L 713.23763 88.283755 
L 713.344115 88.283755 
L 713.359426 433.142883 
L 714.336646 359.878596 
L 714.348843 359.878596 
L 714.384963 88.283755 
L 714.422782 433.142883 
L 715.34547 433.142883 
L 716.759787 433.142883 
L 716.772712 88.283755 
L 717.418605 433.142883 
L 718.117679 433.142883 
L 718.143531 88.283755 
L 719.111934 433.142883 
L 719.483784 433.142883 
L 719.491571 88.283755 
L 720.360748 433.142883 
L 720.614733 433.142883 
L 720.653503 101.393575 
L 721.24843 433.142883 
L 726.910508 433.142883 
L 726.910508 122.769668 
L 727.920021 122.769668 
L 727.920021 88.283755 
L 728.720431 88.283755 
L 730.117505 88.283755 
L 730.117505 433.142883 
L 731.037772 88.283755 
L 731.824453 88.283755 
L 731.824453 433.142883 
L 732.739038 433.142883 
L 738.713758 433.142883 
L 738.713758 148.634102 
L 739.72327 148.634102 
L 739.72327 88.283755 
L 740.523681 88.283755 
L 741.920755 88.283755 
L 741.920755 433.142883 
L 742.841466 88.283755 
L 743.627696 88.283755 
L 743.627696 433.142883 
L 744.54228 433.142883 
L 750.517001 433.142883 
L 750.517001 148.634102 
L 751.526513 148.634102 
L 751.526513 88.283755 
L 752.326923 88.283755 
L 755.430937 88.283755 
L 755.430937 433.142883 
L 756.345521 433.142883 
L 762.320242 433.142883 
L 762.320242 148.634102 
L 763.329754 148.634102 
L 763.329754 88.283755 
L 764.130164 88.283755 
L 765.527239 88.283755 
L 765.527239 433.142883 
L 766.44795 88.283755 
L 767.23418 88.283755 
L 767.23418 433.142883 
L 768.148764 433.142883 
L 774.123484 433.142883 
L 774.123484 277.956276 
L 775.262764 277.956276 
L 775.262764 88.283755 
L 775.933407 88.283755 
L 777.330481 88.283755 
L 777.330481 433.142883 
L 778.251193 88.283755 
L 779.037422 88.283755 
L 779.037422 433.142883 
L 779.952007 433.142883 
L 787.066006 433.142883 
L 787.066006 96.905233 
L 787.73665 96.905233 
L 788.924746 96.905233 
L 789.133724 433.142883 
L 789.923068 96.905233 
L 790.840663 96.905233 
L 790.840663 433.142883 
L 791.755248 433.142883 
L 805.005568 433.142883 
L 805.005568 433.142883 
" clip-path="url(#pb26c9a68be)" style="fill: none; stroke: #000000; stroke-width: 0.5; stroke-linecap: square"/>
   </g>
   <g id="patch_3">
    <path d="M 44.45 450.38584 
L 44.45 71.040799 
" style="fill: none; stroke: #000000; stroke-width: 0.8; stroke-linejoin: miter; stroke-linecap: square"/>
   </g>
   <g id="patch_4">
    <path d="M 841.2225 450.38584 
L 841.2225 71.040799 
" style="fill: none; stroke: #000000; stroke-width: 0.8; stroke-linejoin: miter; stroke-linecap: square"/>
   </g>
   <g id="patch_5">
    <path d="M 44.45 450.38584 
L 841.2225 450.38584 
" style="fill: none; stroke: #000000; stroke-width: 0.8; stroke-linejoin: miter; stroke-linecap: square"/>
   </g>
   <g id="patch_6">
    <path d="M 44.45 71.040799 
L 841.2225 71.040799 
" style="fill: none; stroke: #000000; stroke-width: 0.8; stroke-linejoin: miter; stroke-linecap: square"/>
   </g>
   <g id="text_18">
    <!-- 切宽变化 -->
    <g transform="translate(414.83625 18.575) scale(0.14 -0.14)">
     <defs>
      <path id="SimHei-53d8" d="M 5200 1975 
Q 4950 1600 4537 1137 
Q 4125 675 3675 375 
Q 3925 225 4600 87 
Q 5275 -50 6000 -75 
Q 5700 -400 5650 -625 
Q 4850 -525 4212 -312 
Q 3575 -100 3225 125 
Q 2800 -125 2150 -325 
Q 1500 -525 700 -675 
Q 600 -425 400 -175 
Q 950 -150 1687 12 
Q 2425 175 2825 375 
Q 2275 775 1675 1575 
Q 1350 1575 1000 1550 
L 1000 2000 
Q 1450 1975 2075 1975 
L 5200 1975 
z
M 3225 5275 
Q 3400 4900 3550 4475 
L 4675 4475 
Q 5400 4475 5975 4500 
L 5975 4025 
Q 5375 4050 4725 4050 
L 4125 4050 
L 4125 2950 
Q 4125 2550 4150 2150 
L 3600 2150 
Q 3625 2550 3625 2950 
L 3625 4050 
L 2750 4050 
L 2750 2950 
Q 2750 2675 2775 2150 
L 2225 2150 
Q 2250 2675 2250 2950 
L 2250 4050 
L 1700 4050 
Q 975 4050 425 4025 
L 425 4500 
Q 950 4475 1700 4475 
L 2975 4475 
Q 2925 4675 2700 5125 
Q 2950 5150 3225 5275 
z
M 2200 1575 
Q 2650 975 3250 600 
Q 3850 1000 4275 1575 
L 2200 1575 
z
M 4850 3750 
Q 5375 3275 5950 2675 
Q 5750 2525 5500 2300 
Q 5075 2800 4450 3400 
Q 4675 3575 4850 3750 
z
M 1825 3500 
Q 1700 3375 1425 3025 
Q 1150 2675 825 2300 
Q 575 2475 375 2600 
Q 975 3150 1300 3825 
Q 1525 3650 1825 3500 
z
" transform="scale(0.015625)"/>
      <path id="SimHei-5316" d="M 3925 5025 
Q 3900 4900 3900 4400 
L 3900 2625 
Q 4375 3025 4775 3450 
Q 5175 3875 5400 4300 
Q 5600 4100 5900 3925 
Q 5700 3700 5225 3212 
Q 4750 2725 4487 2512 
Q 4225 2300 3900 2025 
L 3900 450 
Q 3900 50 4225 50 
L 5200 50 
Q 5400 75 5462 262 
Q 5525 450 5575 850 
Q 5800 650 6150 600 
Q 6000 -100 5825 -250 
Q 5650 -400 5350 -400 
L 3950 -400 
Q 3425 -400 3400 200 
L 3400 1675 
Q 3225 1525 2962 1350 
Q 2700 1175 2375 975 
Q 2225 1225 2025 1400 
Q 2350 1550 2737 1787 
Q 3125 2025 3400 2250 
L 3400 4500 
Q 3400 4800 3375 5025 
L 3925 5025 
z
M 2400 4850 
Q 2175 4550 2075 4337 
Q 1975 4125 1825 3775 
L 1825 675 
Q 1825 -75 1850 -550 
L 1325 -550 
Q 1350 -125 1350 650 
L 1350 3050 
Q 1125 2725 962 2525 
Q 800 2325 675 2175 
Q 500 2375 275 2525 
Q 625 2850 875 3212 
Q 1125 3575 1312 3912 
Q 1500 4250 1625 4575 
Q 1750 4900 1825 5100 
Q 1975 4975 2400 4850 
z
" transform="scale(0.015625)"/>
     </defs>
     <use xlink:href="#SimHei-5207"/>
     <use xlink:href="#SimHei-5bbd" x="100"/>
     <use xlink:href="#SimHei-53d8" x="200"/>
     <use xlink:href="#SimHei-5316" x="300"/>
    </g>
   </g>
  </g>
  <g id="axes_2">
   <g id="matplotlib.axis_3">
    <g id="xtick_7">
     <g id="line2d_32">
      <defs>
       <path id="md2729903b9" d="M 0 0 
L 0 -3.5 
" style="stroke: #000000; stroke-width: 0.8"/>
      </defs>
      <g>
       <use xlink:href="#md2729903b9" x="80.666932" y="71.040799" style="stroke: #000000; stroke-width: 0.8"/>
      </g>
     </g>
     <g id="text_19">
      <!-- N140 -->
      <g transform="translate(84.556019 63.333692) rotate(-45) scale(0.08 -0.08)">
       <defs>
        <path id="SimHei-4e" d="M 2850 125 
L 2225 125 
L 850 3225 
L 825 3225 
L 825 125 
L 250 125 
L 250 4400 
L 875 4400 
L 2250 1300 
L 2275 1300 
L 2275 4400 
L 2850 4400 
L 2850 125 
z
" transform="scale(0.015625)"/>
       </defs>
       <use xlink:href="#SimHei-4e"/>
       <use xlink:href="#SimHei-31" x="50"/>
       <use xlink:href="#SimHei-34" x="100"/>
       <use xlink:href="#SimHei-30" x="150"/>
      </g>
     </g>
    </g>
    <g id="xtick_8">
     <g id="line2d_33">
      <g>
       <use xlink:href="#md2729903b9" x="152.747598" y="71.040799" style="stroke: #000000; stroke-width: 0.8"/>
      </g>
     </g>
     <g id="text_20">
      <!-- N1050 -->
      <g transform="translate(156.636685 63.333692) rotate(-45) scale(0.08 -0.08)">
       <use xlink:href="#SimHei-4e"/>
       <use xlink:href="#SimHei-31" x="50"/>
       <use xlink:href="#SimHei-30" x="100"/>
       <use xlink:href="#SimHei-35" x="150"/>
       <use xlink:href="#SimHei-30" x="200"/>
      </g>
     </g>
    </g>
    <g id="xtick_9">
     <g id="line2d_34">
      <g>
       <use xlink:href="#md2729903b9" x="199.882809" y="71.040799" style="stroke: #000000; stroke-width: 0.8"/>
      </g>
     </g>
     <g id="text_21">
      <!-- N7090.17 -->
      <g transform="translate(203.771896 63.333692) rotate(-45) scale(0.08 -0.08)">
       <defs>
        <path id="SimHei-37" d="M 850 150 
Q 1300 2050 2425 3925 
L 275 3925 
L 275 4375 
L 2950 4375 
L 2950 3950 
Q 1775 2050 1400 150 
L 850 150 
z
" transform="scale(0.015625)"/>
        <path id="SimHei-39" d="M 800 75 
Q 1350 1000 1700 1750 
Q 1075 1650 662 1912 
Q 250 2175 162 2625 
Q 75 3075 175 3437 
Q 275 3800 487 4037 
Q 700 4275 1000 4375 
Q 1300 4475 1537 4475 
Q 1775 4475 2025 4375 
Q 2275 4275 2475 4075 
Q 2675 3875 2750 3662 
Q 2825 3450 2825 3112 
Q 2825 2775 2575 2250 
Q 2325 1725 1350 75 
L 800 75 
z
M 662 2875 
Q 700 2550 937 2337 
Q 1175 2125 1450 2150 
Q 1725 2175 1887 2300 
Q 2050 2425 2200 2725 
Q 2300 3100 2250 3362 
Q 2200 3625 1987 3800 
Q 1775 3975 1525 3975 
Q 1375 4000 1137 3900 
Q 900 3800 762 3500 
Q 625 3200 662 2875 
z
" transform="scale(0.015625)"/>
       </defs>
       <use xlink:href="#SimHei-4e"/>
       <use xlink:href="#SimHei-37" x="50"/>
       <use xlink:href="#SimHei-30" x="100"/>
       <use xlink:href="#SimHei-39" x="150"/>
       <use xlink:href="#SimHei-30" x="200"/>
       <use xlink:href="#SimHei-2e" x="250"/>
       <use xlink:href="#SimHei-31" x="300"/>
       <use xlink:href="#SimHei-37" x="350"/>
      </g>
     </g>
    </g>
    <g id="xtick_10">
     <g id="line2d_35">
      <g>
       <use xlink:href="#md2729903b9" x="255.005527" y="71.040799" style="stroke: #000000; stroke-width: 0.8"/>
      </g>
     </g>
     <g id="text_22">
      <!-- N2250 -->
      <g transform="translate(258.894614 63.333692) rotate(-45) scale(0.08 -0.08)">
       <use xlink:href="#SimHei-4e"/>
       <use xlink:href="#SimHei-32" x="50"/>
       <use xlink:href="#SimHei-32" x="100"/>
       <use xlink:href="#SimHei-35" x="150"/>
       <use xlink:href="#SimHei-30" x="200"/>
      </g>
     </g>
    </g>
    <g id="xtick_11">
     <g id="line2d_36">
      <g>
       <use xlink:href="#md2729903b9" x="311.650597" y="71.040799" style="stroke: #000000; stroke-width: 0.8"/>
      </g>
     </g>
     <g id="text_23">
      <!-- N2940 -->
      <g transform="translate(315.539684 63.333692) rotate(-45) scale(0.08 -0.08)">
       <use xlink:href="#SimHei-4e"/>
       <use xlink:href="#SimHei-32" x="50"/>
       <use xlink:href="#SimHei-39" x="100"/>
       <use xlink:href="#SimHei-34" x="150"/>
       <use xlink:href="#SimHei-30" x="200"/>
      </g>
     </g>
    </g>
    <g id="xtick_12">
     <g id="line2d_37">
      <g>
       <use xlink:href="#md2729903b9" x="358.02955" y="71.040799" style="stroke: #000000; stroke-width: 0.8"/>
      </g>
     </g>
     <g id="text_24">
      <!-- N8760.10 -->
      <g transform="translate(361.918638 63.333692) rotate(-45) scale(0.08 -0.08)">
       <defs>
        <path id="SimHei-38" d="M 175 1375 
Q 175 1675 325 1962 
Q 475 2250 825 2425 
Q 525 2600 425 2812 
Q 325 3025 312 3300 
Q 300 3575 387 3775 
Q 475 3975 650 4150 
Q 825 4325 1037 4387 
Q 1250 4450 1500 4450 
Q 1750 4450 1950 4400 
Q 2150 4350 2375 4187 
Q 2600 4025 2700 3725 
Q 2800 3425 2687 3025 
Q 2575 2625 2100 2400 
Q 2525 2275 2700 2012 
Q 2875 1750 2875 1375 
Q 2875 1000 2762 775 
Q 2650 550 2512 400 
Q 2375 250 2137 162 
Q 1900 75 1537 75 
Q 1175 75 912 162 
Q 650 250 475 425 
Q 300 600 237 837 
Q 175 1075 175 1375 
z
M 687 1400 
Q 675 1100 787 875 
Q 900 650 1200 587 
Q 1500 525 1825 600 
Q 2150 675 2275 950 
Q 2400 1225 2362 1500 
Q 2325 1775 2050 1962 
Q 1775 2150 1450 2125 
Q 1125 2100 912 1900 
Q 700 1700 687 1400 
z
M 775 3350 
Q 775 3100 950 2875 
Q 1125 2650 1500 2650 
Q 1875 2650 2062 2875 
Q 2250 3100 2237 3412 
Q 2225 3725 2012 3875 
Q 1800 4025 1437 4000 
Q 1075 3975 925 3787 
Q 775 3600 775 3350 
z
" transform="scale(0.015625)"/>
        <path id="SimHei-36" d="M 250 1612 
Q 275 1975 387 2225 
Q 500 2475 725 2850 
L 1750 4450 
L 2325 4450 
L 1275 2800 
Q 1950 2975 2350 2750 
Q 2750 2525 2887 2237 
Q 3025 1950 3037 1612 
Q 3050 1275 2937 950 
Q 2825 625 2537 362 
Q 2250 100 1737 75 
Q 1225 50 862 262 
Q 500 475 362 862 
Q 225 1250 250 1612 
z
M 1025 787 
Q 1250 550 1625 525 
Q 2000 500 2250 775 
Q 2500 1050 2500 1575 
Q 2500 2100 2187 2300 
Q 1875 2500 1487 2450 
Q 1100 2400 925 2075 
Q 750 1750 775 1387 
Q 800 1025 1025 787 
z
" transform="scale(0.015625)"/>
       </defs>
       <use xlink:href="#SimHei-4e"/>
       <use xlink:href="#SimHei-38" x="50"/>
       <use xlink:href="#SimHei-37" x="100"/>
       <use xlink:href="#SimHei-36" x="150"/>
       <use xlink:href="#SimHei-30" x="200"/>
       <use xlink:href="#SimHei-2e" x="250"/>
       <use xlink:href="#SimHei-31" x="300"/>
       <use xlink:href="#SimHei-30" x="350"/>
      </g>
     </g>
    </g>
    <g id="xtick_13">
     <g id="line2d_38">
      <g>
       <use xlink:href="#md2729903b9" x="414.109158" y="71.040799" style="stroke: #000000; stroke-width: 0.8"/>
      </g>
     </g>
     <g id="text_25">
      <!-- N3940.2 -->
      <g transform="translate(417.998245 63.333692) rotate(-45) scale(0.08 -0.08)">
       <use xlink:href="#SimHei-4e"/>
       <use xlink:href="#SimHei-33" x="50"/>
       <use xlink:href="#SimHei-39" x="100"/>
       <use xlink:href="#SimHei-34" x="150"/>
       <use xlink:href="#SimHei-30" x="200"/>
       <use xlink:href="#SimHei-2e" x="250"/>
       <use xlink:href="#SimHei-32" x="300"/>
      </g>
     </g>
    </g>
    <g id="xtick_14">
     <g id="line2d_39">
      <g>
       <use xlink:href="#md2729903b9" x="468.272501" y="71.040799" style="stroke: #000000; stroke-width: 0.8"/>
      </g>
     </g>
     <g id="text_26">
      <!-- N2400.17 -->
      <g transform="translate(472.161588 63.333692) rotate(-45) scale(0.08 -0.08)">
       <use xlink:href="#SimHei-4e"/>
       <use xlink:href="#SimHei-32" x="50"/>
       <use xlink:href="#SimHei-34" x="100"/>
       <use xlink:href="#SimHei-30" x="150"/>
       <use xlink:href="#SimHei-30" x="200"/>
       <use xlink:href="#SimHei-2e" x="250"/>
       <use xlink:href="#SimHei-31" x="300"/>
       <use xlink:href="#SimHei-37" x="350"/>
      </g>
     </g>
    </g>
    <g id="xtick_15">
     <g id="line2d_40">
      <g>
       <use xlink:href="#md2729903b9" x="513.625257" y="71.040799" style="stroke: #000000; stroke-width: 0.8"/>
      </g>
     </g>
     <g id="text_27">
      <!-- N6770 -->
      <g transform="translate(517.514344 63.333692) rotate(-45) scale(0.08 -0.08)">
       <use xlink:href="#SimHei-4e"/>
       <use xlink:href="#SimHei-36" x="50"/>
       <use xlink:href="#SimHei-37" x="100"/>
       <use xlink:href="#SimHei-37" x="150"/>
       <use xlink:href="#SimHei-30" x="200"/>
      </g>
     </g>
    </g>
    <g id="xtick_16">
     <g id="line2d_41">
      <g>
       <use xlink:href="#md2729903b9" x="570.778508" y="71.040799" style="stroke: #000000; stroke-width: 0.8"/>
      </g>
     </g>
     <g id="text_28">
      <!-- N3310 -->
      <g transform="translate(574.667596 63.333692) rotate(-45) scale(0.08 -0.08)">
       <use xlink:href="#SimHei-4e"/>
       <use xlink:href="#SimHei-33" x="50"/>
       <use xlink:href="#SimHei-33" x="100"/>
       <use xlink:href="#SimHei-31" x="150"/>
       <use xlink:href="#SimHei-30" x="200"/>
      </g>
     </g>
    </g>
    <g id="xtick_17">
     <g id="line2d_42">
      <g>
       <use xlink:href="#md2729903b9" x="628.941292" y="71.040799" style="stroke: #000000; stroke-width: 0.8"/>
      </g>
     </g>
     <g id="text_29">
      <!-- N2720 -->
      <g transform="translate(632.83038 63.333692) rotate(-45) scale(0.08 -0.08)">
       <use xlink:href="#SimHei-4e"/>
       <use xlink:href="#SimHei-32" x="50"/>
       <use xlink:href="#SimHei-37" x="100"/>
       <use xlink:href="#SimHei-32" x="150"/>
       <use xlink:href="#SimHei-30" x="200"/>
      </g>
     </g>
    </g>
    <g id="xtick_18">
     <g id="line2d_43">
      <g>
       <use xlink:href="#md2729903b9" x="672.234044" y="71.040799" style="stroke: #000000; stroke-width: 0.8"/>
      </g>
     </g>
     <g id="text_30">
      <!-- N6820 -->
      <g transform="translate(676.123132 63.333692) rotate(-45) scale(0.08 -0.08)">
       <use xlink:href="#SimHei-4e"/>
       <use xlink:href="#SimHei-36" x="50"/>
       <use xlink:href="#SimHei-38" x="100"/>
       <use xlink:href="#SimHei-32" x="150"/>
       <use xlink:href="#SimHei-30" x="200"/>
      </g>
     </g>
    </g>
    <g id="xtick_19">
     <g id="line2d_44">
      <g>
       <use xlink:href="#md2729903b9" x="801.857757" y="71.040799" style="stroke: #000000; stroke-width: 0.8"/>
      </g>
     </g>
     <g id="text_31">
      <!-- N0 -->
      <g transform="translate(805.746844 63.333692) rotate(-45) scale(0.08 -0.08)">
       <use xlink:href="#SimHei-4e"/>
       <use xlink:href="#SimHei-30" x="50"/>
      </g>
     </g>
    </g>
    <g id="text_32">
     <!-- 指令行号 N -->
     <g transform="translate(417.83625 32.817187) scale(0.1 -0.1)">
      <defs>
       <path id="SimHei-6307" d="M 5625 2225 
Q 5600 1925 5600 1350 
L 5600 300 
Q 5600 -225 5625 -525 
L 5125 -525 
L 5125 -125 
L 3300 -125 
L 3300 -625 
L 2800 -625 
Q 2825 -300 2825 300 
L 2825 1350 
Q 2825 1925 2800 2225 
L 5625 2225 
z
M 500 25 
Q 1075 -25 1175 37 
Q 1275 100 1275 275 
L 1275 1675 
Q 1050 1600 925 1537 
Q 800 1475 475 1275 
Q 400 1525 225 1800 
Q 625 1900 825 1975 
Q 1025 2050 1275 2125 
L 1275 3300 
L 1100 3300 
Q 775 3300 450 3275 
L 450 3725 
Q 750 3700 1100 3700 
L 1275 3700 
L 1275 4450 
Q 1275 4800 1250 5125 
L 1775 5125 
Q 1750 4850 1750 4450 
L 1750 3700 
Q 2075 3700 2425 3725 
L 2425 3275 
Q 2050 3300 1750 3300 
L 1750 2325 
Q 1850 2350 2025 2425 
L 2375 2575 
Q 2350 2300 2375 2100 
Q 2225 2050 2062 1987 
Q 1900 1925 1750 1850 
L 1750 100 
Q 1725 -200 1575 -337 
Q 1425 -475 675 -525 
Q 625 -250 500 25 
z
M 3325 5025 
Q 3300 4675 3300 4125 
Q 4125 4275 4512 4412 
Q 4900 4550 5225 4725 
Q 5325 4475 5575 4250 
Q 5450 4225 5237 4175 
Q 5025 4125 4725 4050 
Q 4425 3975 4037 3887 
Q 3650 3800 3300 3725 
L 3300 3175 
Q 3275 2925 3700 2925 
L 4925 2925 
Q 5300 2925 5387 3087 
Q 5475 3250 5550 3600 
Q 5750 3400 6050 3300 
Q 5825 2725 5700 2637 
Q 5575 2550 5275 2525 
L 3350 2525 
Q 3050 2525 2937 2687 
Q 2825 2850 2825 2975 
L 2825 4125 
Q 2825 4775 2800 5025 
L 3325 5025 
z
M 5125 275 
L 5125 875 
L 3300 875 
L 3300 275 
L 5125 275 
z
M 5125 1250 
L 5125 1825 
L 3300 1825 
L 3300 1250 
L 5125 1250 
z
" transform="scale(0.015625)"/>
       <path id="SimHei-4ee4" d="M 5375 2075 
L 5375 1550 
Q 4925 1325 4450 937 
Q 3975 550 3575 125 
L 4250 -325 
Q 4050 -550 3875 -775 
Q 3100 -125 1850 425 
L 2150 875 
Q 2400 775 3125 350 
Q 3800 1025 4450 1625 
L 2025 1625 
Q 1500 1625 975 1600 
L 975 2100 
Q 1525 2075 2025 2075 
L 5375 2075 
z
M 3375 4850 
Q 4450 3550 6200 2900 
Q 5950 2625 5800 2350 
Q 4150 3150 3100 4475 
Q 2075 3125 625 2225 
Q 400 2525 200 2700 
Q 875 2975 1675 3675 
Q 2475 4375 2950 5300 
Q 3275 5175 3550 5050 
Q 3475 5000 3375 4850 
z
M 2925 3600 
Q 3175 3350 3750 2725 
L 3300 2325 
Q 3050 2700 2550 3225 
Q 2750 3375 2925 3600 
z
" transform="scale(0.015625)"/>
       <path id="SimHei-53f7" d="M 5025 4925 
Q 5000 4550 5000 4075 
Q 5000 3600 5025 3175 
L 1400 3175 
Q 1425 3525 1425 4000 
Q 1425 4500 1400 4925 
L 5025 4925 
z
M 5175 2625 
Q 5650 2625 6025 2650 
L 6025 2200 
Q 5650 2225 5175 2225 
L 2450 2225 
Q 2350 1875 2225 1450 
L 5175 1450 
Q 5100 1050 5062 775 
Q 5025 500 4950 112 
Q 4875 -275 4650 -412 
Q 4425 -550 3225 -625 
Q 3125 -350 2975 -50 
Q 3875 -75 4112 -50 
Q 4350 -25 4425 212 
Q 4500 450 4575 1025 
L 1600 1025 
Q 1825 1625 1950 2225 
L 1350 2225 
Q 825 2225 375 2200 
L 375 2650 
Q 825 2625 1350 2625 
L 5175 2625 
z
M 4525 3575 
L 4525 4525 
L 1900 4525 
L 1900 3575 
L 4525 3575 
z
" transform="scale(0.015625)"/>
      </defs>
      <use xlink:href="#SimHei-6307"/>
      <use xlink:href="#SimHei-4ee4" x="100"/>
      <use xlink:href="#SimHei-884c" x="200"/>
      <use xlink:href="#SimHei-53f7" x="300"/>
      <use xlink:href="#SimHei-20" x="400"/>
      <use xlink:href="#SimHei-4e" x="450"/>
     </g>
    </g>
   </g>
   <g id="patch_7">
    <path d="M 44.45 450.38584 
L 44.45 71.040799 
" style="fill: none; stroke: #000000; stroke-width: 0.8; stroke-linejoin: miter; stroke-linecap: square"/>
   </g>
   <g id="patch_8">
    <path d="M 841.2225 450.38584 
L 841.2225 71.040799 
" style="fill: none; stroke: #000000; stroke-width: 0.8; stroke-linejoin: miter; stroke-linecap: square"/>
   </g>
   <g id="patch_9">
    <path d="M 44.45 450.38584 
L 841.2225 450.38584 
" style="fill: none; stroke: #000000; stroke-width: 0.8; stroke-linejoin: miter; stroke-linecap: square"/>
   </g>
   <g id="patch_10">
    <path d="M 44.45 71.040799 
L 841.2225 71.040799 
" style="fill: none; stroke: #000000; stroke-width: 0.8; stroke-linejoin: miter; stroke-linecap: square"/>
   </g>
  </g>
 </g>
 <defs>
  <clipPath id="pb26c9a68be">
   <rect x="44.45" y="71.040799" width="796.7725" height="379.345041"/>
  </clipPath>
 </defs>
</svg>
