<?xml version="1.0" encoding="utf-8" standalone="no"?>
<!DOCTYPE svg PUBLIC "-//W3C//DTD SVG 1.1//EN"
  "http://www.w3.org/Graphics/SVG/1.1/DTD/svg11.dtd">
<svg xmlns:xlink="http://www.w3.org/1999/xlink" width="1351.33625pt" height="471.727033pt" viewBox="0 0 1351.33625 471.727033" xmlns="http://www.w3.org/2000/svg" version="1.1">
 <metadata>
  <rdf:RDF xmlns:dc="http://purl.org/dc/elements/1.1/" xmlns:cc="http://creativecommons.org/ns#" xmlns:rdf="http://www.w3.org/1999/02/22-rdf-syntax-ns#">
   <cc:Work>
    <dc:type rdf:resource="http://purl.org/dc/dcmitype/StillImage"/>
    <dc:date>2025-12-27T09:58:55.747904</dc:date>
    <dc:format>image/svg+xml</dc:format>
    <dc:creator>
     <cc:Agent>
      <dc:title>Matplotlib v3.10.7, https://matplotlib.org/</dc:title>
     </cc:Agent>
    </dc:creator>
   </cc:Work>
  </rdf:RDF>
 </metadata>
 <defs>
  <style type="text/css">*{stroke-linejoin: round; stroke-linecap: butt}</style>
 </defs>
 <g id="figure_1">
  <g id="patch_1">
   <path d="M 0 471.727033 
L 1351.33625 471.727033 
L 1351.33625 0 
L 0 0 
z
" style="fill: #ffffff"/>
  </g>
  <g id="axes_1">
   <g id="patch_2">
    <path d="M 37.825 429.894221 
L 1344.13625 429.894221 
L 1344.13625 83.290799 
L 37.825 83.290799 
z
" style="fill: #ffffff"/>
   </g>
   <g id="matplotlib.axis_1">
    <g id="xtick_1">
     <g id="line2d_1">
      <path d="M 125.976829 429.894221 
L 125.976829 83.290799 
" clip-path="url(#p86a39d40c9)" style="fill: none; stroke-dasharray: 1.85,0.8; stroke-dashoffset: 0; stroke: #b0b0b0; stroke-opacity: 0.3; stroke-width: 0.5"/>
     </g>
     <g id="line2d_2">
      <defs>
       <path id="m069fd8e785" d="M 0 0 
L 0 3.5 
" style="stroke: #333333; stroke-width: 0.8"/>
      </defs>
      <g>
       <use xlink:href="#m069fd8e785" x="125.976829" y="429.894221" style="fill: #333333; stroke: #333333; stroke-width: 0.8"/>
      </g>
     </g>
     <g id="text_1">
      <!-- 0 -->
      <g style="fill: #333333" transform="translate(122.726829 445.831721) scale(0.13 -0.13)">
       <defs>
        <path id="SimHei-30" d="M 225 2537 
Q 250 3200 412 3587 
Q 575 3975 875 4225 
Q 1175 4475 1612 4475 
Q 2050 4475 2375 4112 
Q 2700 3750 2800 3200 
Q 2900 2650 2862 1937 
Q 2825 1225 2612 775 
Q 2400 325 1975 150 
Q 1550 -25 1125 187 
Q 700 400 525 750 
Q 350 1100 275 1487 
Q 200 1875 225 2537 
z
M 750 2687 
Q 675 2000 800 1462 
Q 925 925 1212 700 
Q 1500 475 1800 612 
Q 2100 750 2237 1162 
Q 2375 1575 2375 2062 
Q 2375 2550 2337 2950 
Q 2300 3350 2112 3675 
Q 1925 4000 1612 4012 
Q 1300 4025 1062 3700 
Q 825 3375 750 2687 
z
" transform="scale(0.015625)"/>
       </defs>
       <use xlink:href="#SimHei-30"/>
      </g>
     </g>
    </g>
    <g id="xtick_2">
     <g id="line2d_3">
      <path d="M 302.577219 429.894221 
L 302.577219 83.290799 
" clip-path="url(#p86a39d40c9)" style="fill: none; stroke-dasharray: 1.85,0.8; stroke-dashoffset: 0; stroke: #b0b0b0; stroke-opacity: 0.3; stroke-width: 0.5"/>
     </g>
     <g id="line2d_4">
      <g>
       <use xlink:href="#m069fd8e785" x="302.577219" y="429.894221" style="fill: #333333; stroke: #333333; stroke-width: 0.8"/>
      </g>
     </g>
     <g id="text_2">
      <!-- 5000 -->
      <g style="fill: #333333" transform="translate(289.577219 445.831721) scale(0.13 -0.13)">
       <defs>
        <path id="SimHei-35" d="M 550 1325 
Q 725 650 1150 575 
Q 1575 500 1837 662 
Q 2100 825 2212 1087 
Q 2325 1350 2312 1675 
Q 2300 2000 2137 2225 
Q 1975 2450 1725 2525 
Q 1475 2600 1162 2525 
Q 850 2450 650 2175 
L 225 2225 
Q 275 2375 700 4375 
L 2675 4375 
L 2675 3925 
L 1075 3925 
Q 950 3250 825 2850 
Q 1200 3025 1525 3012 
Q 1850 3000 2150 2862 
Q 2450 2725 2587 2487 
Q 2725 2250 2787 2012 
Q 2850 1775 2837 1500 
Q 2825 1225 2725 937 
Q 2625 650 2425 462 
Q 2225 275 1937 162 
Q 1650 50 1275 75 
Q 900 100 562 350 
Q 225 600 100 1200 
L 550 1325 
z
" transform="scale(0.015625)"/>
       </defs>
       <use xlink:href="#SimHei-35"/>
       <use xlink:href="#SimHei-30" transform="translate(50 0)"/>
       <use xlink:href="#SimHei-30" transform="translate(100 0)"/>
       <use xlink:href="#SimHei-30" transform="translate(150 0)"/>
      </g>
     </g>
    </g>
    <g id="xtick_3">
     <g id="line2d_5">
      <path d="M 479.177609 429.894221 
L 479.177609 83.290799 
" clip-path="url(#p86a39d40c9)" style="fill: none; stroke-dasharray: 1.85,0.8; stroke-dashoffset: 0; stroke: #b0b0b0; stroke-opacity: 0.3; stroke-width: 0.5"/>
     </g>
     <g id="line2d_6">
      <g>
       <use xlink:href="#m069fd8e785" x="479.177609" y="429.894221" style="fill: #333333; stroke: #333333; stroke-width: 0.8"/>
      </g>
     </g>
     <g id="text_3">
      <!-- 10000 -->
      <g style="fill: #333333" transform="translate(462.927609 445.831721) scale(0.13 -0.13)">
       <defs>
        <path id="SimHei-31" d="M 1400 3600 
Q 1075 3275 575 2975 
L 575 3450 
Q 1200 3875 1600 4450 
L 1900 4450 
L 1900 150 
L 1400 150 
L 1400 3600 
z
" transform="scale(0.015625)"/>
       </defs>
       <use xlink:href="#SimHei-31"/>
       <use xlink:href="#SimHei-30" transform="translate(50 0)"/>
       <use xlink:href="#SimHei-30" transform="translate(100 0)"/>
       <use xlink:href="#SimHei-30" transform="translate(150 0)"/>
       <use xlink:href="#SimHei-30" transform="translate(200 0)"/>
      </g>
     </g>
    </g>
    <g id="xtick_4">
     <g id="line2d_7">
      <path d="M 655.777999 429.894221 
L 655.777999 83.290799 
" clip-path="url(#p86a39d40c9)" style="fill: none; stroke-dasharray: 1.85,0.8; stroke-dashoffset: 0; stroke: #b0b0b0; stroke-opacity: 0.3; stroke-width: 0.5"/>
     </g>
     <g id="line2d_8">
      <g>
       <use xlink:href="#m069fd8e785" x="655.777999" y="429.894221" style="fill: #333333; stroke: #333333; stroke-width: 0.8"/>
      </g>
     </g>
     <g id="text_4">
      <!-- 15000 -->
      <g style="fill: #333333" transform="translate(639.527999 445.831721) scale(0.13 -0.13)">
       <use xlink:href="#SimHei-31"/>
       <use xlink:href="#SimHei-35" transform="translate(50 0)"/>
       <use xlink:href="#SimHei-30" transform="translate(100 0)"/>
       <use xlink:href="#SimHei-30" transform="translate(150 0)"/>
       <use xlink:href="#SimHei-30" transform="translate(200 0)"/>
      </g>
     </g>
    </g>
    <g id="xtick_5">
     <g id="line2d_9">
      <path d="M 832.37839 429.894221 
L 832.37839 83.290799 
" clip-path="url(#p86a39d40c9)" style="fill: none; stroke-dasharray: 1.85,0.8; stroke-dashoffset: 0; stroke: #b0b0b0; stroke-opacity: 0.3; stroke-width: 0.5"/>
     </g>
     <g id="line2d_10">
      <g>
       <use xlink:href="#m069fd8e785" x="832.37839" y="429.894221" style="fill: #333333; stroke: #333333; stroke-width: 0.8"/>
      </g>
     </g>
     <g id="text_5">
      <!-- 20000 -->
      <g style="fill: #333333" transform="translate(816.12839 445.831721) scale(0.13 -0.13)">
       <defs>
        <path id="SimHei-32" d="M 300 250 
Q 325 625 650 925 
Q 975 1225 1475 1862 
Q 1975 2500 2125 2850 
Q 2275 3200 2237 3450 
Q 2200 3700 2000 3862 
Q 1800 4025 1537 4000 
Q 1275 3975 1037 3800 
Q 800 3625 675 3275 
L 200 3350 
Q 400 3925 712 4187 
Q 1025 4450 1450 4475 
Q 1700 4500 1900 4462 
Q 2100 4425 2312 4287 
Q 2525 4150 2662 3875 
Q 2800 3600 2762 3212 
Q 2725 2825 2375 2287 
Q 2025 1750 1025 600 
L 2825 600 
L 2825 150 
L 300 150 
L 300 250 
z
" transform="scale(0.015625)"/>
       </defs>
       <use xlink:href="#SimHei-32"/>
       <use xlink:href="#SimHei-30" transform="translate(50 0)"/>
       <use xlink:href="#SimHei-30" transform="translate(100 0)"/>
       <use xlink:href="#SimHei-30" transform="translate(150 0)"/>
       <use xlink:href="#SimHei-30" transform="translate(200 0)"/>
      </g>
     </g>
    </g>
    <g id="xtick_6">
     <g id="line2d_11">
      <path d="M 1008.97878 429.894221 
L 1008.97878 83.290799 
" clip-path="url(#p86a39d40c9)" style="fill: none; stroke-dasharray: 1.85,0.8; stroke-dashoffset: 0; stroke: #b0b0b0; stroke-opacity: 0.3; stroke-width: 0.5"/>
     </g>
     <g id="line2d_12">
      <g>
       <use xlink:href="#m069fd8e785" x="1008.97878" y="429.894221" style="fill: #333333; stroke: #333333; stroke-width: 0.8"/>
      </g>
     </g>
     <g id="text_6">
      <!-- 25000 -->
      <g style="fill: #333333" transform="translate(992.72878 445.831721) scale(0.13 -0.13)">
       <use xlink:href="#SimHei-32"/>
       <use xlink:href="#SimHei-35" transform="translate(50 0)"/>
       <use xlink:href="#SimHei-30" transform="translate(100 0)"/>
       <use xlink:href="#SimHei-30" transform="translate(150 0)"/>
       <use xlink:href="#SimHei-30" transform="translate(200 0)"/>
      </g>
     </g>
    </g>
    <g id="xtick_7">
     <g id="line2d_13">
      <path d="M 1185.57917 429.894221 
L 1185.57917 83.290799 
" clip-path="url(#p86a39d40c9)" style="fill: none; stroke-dasharray: 1.85,0.8; stroke-dashoffset: 0; stroke: #b0b0b0; stroke-opacity: 0.3; stroke-width: 0.5"/>
     </g>
     <g id="line2d_14">
      <g>
       <use xlink:href="#m069fd8e785" x="1185.57917" y="429.894221" style="fill: #333333; stroke: #333333; stroke-width: 0.8"/>
      </g>
     </g>
     <g id="text_7">
      <!-- 30000 -->
      <g style="fill: #333333" transform="translate(1169.32917 445.831721) scale(0.13 -0.13)">
       <defs>
        <path id="SimHei-33" d="M 250 1225 
L 700 1300 
Q 800 975 1025 762 
Q 1250 550 1587 562 
Q 1925 575 2125 837 
Q 2325 1100 2300 1437 
Q 2275 1775 2037 1962 
Q 1800 2150 1275 2225 
L 1275 2550 
Q 1800 2600 2037 2825 
Q 2275 3050 2250 3412 
Q 2225 3775 1925 3937 
Q 1625 4100 1287 3975 
Q 950 3850 750 3275 
L 300 3350 
Q 450 3800 712 4100 
Q 975 4400 1425 4450 
Q 1875 4500 2212 4337 
Q 2550 4175 2687 3837 
Q 2825 3500 2725 3100 
Q 2625 2700 2150 2400 
Q 2500 2250 2687 1950 
Q 2875 1650 2812 1162 
Q 2750 675 2375 375 
Q 2000 75 1525 87 
Q 1050 100 700 387 
Q 350 675 250 1225 
z
" transform="scale(0.015625)"/>
       </defs>
       <use xlink:href="#SimHei-33"/>
       <use xlink:href="#SimHei-30" transform="translate(50 0)"/>
       <use xlink:href="#SimHei-30" transform="translate(100 0)"/>
       <use xlink:href="#SimHei-30" transform="translate(150 0)"/>
       <use xlink:href="#SimHei-30" transform="translate(200 0)"/>
      </g>
     </g>
    </g>
    <g id="text_8">
     <!-- 行程 s (mm) -->
     <g style="fill: #333333" transform="translate(652.480625 462.777033) scale(0.14 -0.14)">
      <defs>
       <path id="SimHei-884c" d="M 5300 3100 
Q 5775 3100 6175 3125 
L 6175 2625 
Q 5775 2650 5325 2650 
L 4975 2650 
L 4975 -75 
Q 5000 -375 4787 -487 
Q 4575 -600 3950 -675 
Q 3900 -375 3675 -75 
Q 4100 -125 4275 -112 
Q 4450 -100 4475 150 
L 4475 2650 
L 3475 2650 
Q 3000 2650 2575 2625 
L 2575 3125 
Q 3025 3100 3475 3100 
L 5300 3100 
z
M 2300 3400 
Q 2075 3275 1962 3075 
Q 1850 2875 1650 2575 
L 1650 325 
Q 1650 0 1675 -675 
L 1150 -675 
Q 1175 75 1175 450 
L 1175 2050 
Q 950 1675 575 1300 
Q 400 1550 250 1725 
Q 825 2275 1150 2775 
Q 1475 3275 1725 3725 
Q 1975 3575 2300 3400 
z
M 4875 4800 
Q 5300 4800 5750 4825 
L 5750 4350 
Q 5300 4375 4825 4375 
L 3900 4375 
Q 3350 4375 2950 4350 
L 2950 4825 
Q 3350 4800 3900 4800 
L 4875 4800 
z
M 2075 4925 
Q 1875 4900 1550 4387 
Q 1225 3875 650 3250 
Q 500 3450 325 3625 
Q 725 4025 1050 4487 
Q 1375 4950 1525 5300 
Q 1775 5150 2075 4925 
z
" transform="scale(0.015625)"/>
       <path id="SimHei-7a0b" d="M 5825 4975 
Q 5800 4425 5800 3975 
Q 5800 3550 5825 3125 
L 3025 3125 
Q 3050 3600 3050 4025 
Q 3050 4450 3025 4975 
L 5825 4975 
z
M 400 4825 
Q 825 4875 1362 4987 
Q 1900 5100 2275 5275 
Q 2450 4950 2625 4725 
Q 2450 4750 2262 4712 
Q 2075 4675 1850 4650 
L 1850 3425 
Q 2200 3425 2600 3450 
L 2600 2975 
Q 2200 3000 1850 3000 
L 1850 800 
Q 1850 250 1875 -675 
L 1375 -675 
Q 1400 250 1400 775 
L 1400 1925 
Q 1050 1225 625 600 
Q 450 850 225 1050 
Q 575 1400 850 1850 
Q 1125 2300 1350 3000 
Q 725 3000 425 2975 
L 425 3450 
Q 850 3425 1050 3425 
L 1400 3425 
L 1400 4550 
Q 1075 4475 575 4400 
Q 500 4625 400 4825 
z
M 5100 2500 
Q 5500 2500 5950 2525 
L 5950 2075 
Q 5500 2100 5100 2100 
L 4625 2100 
L 4625 1300 
L 4900 1300 
Q 5275 1300 5775 1325 
L 5775 850 
Q 5275 875 4975 875 
L 4625 875 
L 4625 0 
L 5225 0 
Q 5675 0 6175 25 
L 6175 -450 
Q 5775 -425 5225 -425 
L 3550 -425 
Q 3000 -425 2600 -475 
L 2600 25 
Q 3000 0 3550 0 
L 4150 0 
L 4150 875 
L 3800 875 
Q 3400 875 3050 825 
L 3050 1325 
Q 3400 1300 3800 1300 
L 4150 1300 
L 4150 2100 
L 3750 2100 
Q 3300 2100 2900 2075 
L 2900 2525 
Q 3300 2500 3750 2500 
L 5100 2500 
z
M 5275 3575 
L 5275 4550 
L 3500 4550 
L 3500 3575 
L 5275 3575 
z
M 2300 2400 
Q 2550 2025 2825 1525 
Q 2675 1425 2425 1225 
Q 2175 1775 1925 2125 
Q 2075 2250 2300 2400 
z
" transform="scale(0.015625)"/>
       <path id="SimHei-20" transform="scale(0.015625)"/>
       <path id="SimHei-73" d="M 2750 900 
Q 2750 500 2437 287 
Q 2125 75 1650 75 
Q 1050 75 725 312 
Q 400 550 400 1000 
L 900 1000 
Q 900 700 1112 600 
Q 1325 500 1625 500 
Q 1925 500 2075 612 
Q 2225 725 2225 900 
Q 2225 1025 2100 1150 
Q 1975 1275 1475 1350 
Q 900 1425 687 1637 
Q 475 1850 475 2200 
Q 475 2500 762 2737 
Q 1050 2975 1600 2975 
Q 2100 2975 2387 2750 
Q 2675 2525 2675 2150 
L 2175 2150 
Q 2175 2375 2012 2462 
Q 1850 2550 1600 2550 
Q 1275 2550 1137 2437 
Q 1000 2325 1000 2175 
Q 1000 2000 1125 1900 
Q 1250 1800 1650 1750 
Q 2300 1650 2525 1437 
Q 2750 1225 2750 900 
z
" transform="scale(0.015625)"/>
       <path id="SimHei-28" d="M 2975 -200 
L 2700 -475 
Q 2075 125 1762 775 
Q 1450 1425 1450 2250 
Q 1450 3075 1762 3725 
Q 2075 4375 2700 5000 
L 2975 4725 
Q 2400 4175 2112 3587 
Q 1825 3000 1825 2250 
Q 1825 1500 2112 912 
Q 2400 325 2975 -200 
z
" transform="scale(0.015625)"/>
       <path id="SimHei-6d" d="M 3050 125 
L 2550 125 
L 2550 2150 
Q 2550 2300 2500 2400 
Q 2450 2500 2300 2500 
Q 2125 2500 1975 2312 
Q 1825 2125 1825 1825 
L 1825 125 
L 1325 125 
L 1325 2150 
Q 1325 2300 1275 2400 
Q 1225 2500 1075 2500 
Q 900 2500 750 2312 
Q 600 2125 600 1825 
L 600 125 
L 100 125 
L 100 2925 
L 600 2925 
L 600 2550 
Q 725 2750 900 2862 
Q 1075 2975 1275 2975 
Q 1475 2975 1612 2862 
Q 1750 2750 1800 2550 
Q 1925 2750 2087 2862 
Q 2250 2975 2450 2975 
Q 2750 2975 2900 2812 
Q 3050 2650 3050 2350 
L 3050 125 
z
" transform="scale(0.015625)"/>
       <path id="SimHei-29" d="M 1675 2250 
Q 1675 1425 1362 775 
Q 1050 125 425 -475 
L 150 -200 
Q 725 325 1012 912 
Q 1300 1500 1300 2250 
Q 1300 3000 1012 3587 
Q 725 4175 150 4725 
L 425 5000 
Q 1050 4375 1362 3725 
Q 1675 3075 1675 2250 
z
" transform="scale(0.015625)"/>
      </defs>
      <use xlink:href="#SimHei-884c"/>
      <use xlink:href="#SimHei-7a0b" transform="translate(100 0)"/>
      <use xlink:href="#SimHei-20" transform="translate(200 0)"/>
      <use xlink:href="#SimHei-73" transform="translate(250 0)"/>
      <use xlink:href="#SimHei-20" transform="translate(300 0)"/>
      <use xlink:href="#SimHei-28" transform="translate(350 0)"/>
      <use xlink:href="#SimHei-6d" transform="translate(400 0)"/>
      <use xlink:href="#SimHei-6d" transform="translate(450 0)"/>
      <use xlink:href="#SimHei-29" transform="translate(500 0)"/>
     </g>
    </g>
   </g>
   <g id="matplotlib.axis_2">
    <g id="ytick_1">
     <g id="line2d_15">
      <path d="M 37.825 402.323494 
L 1344.13625 402.323494 
" clip-path="url(#p86a39d40c9)" style="fill: none; stroke-dasharray: 1.85,0.8; stroke-dashoffset: 0; stroke: #b0b0b0; stroke-opacity: 0.3; stroke-width: 0.5"/>
     </g>
     <g id="line2d_16">
      <defs>
       <path id="m6a5afa6a31" d="M 0 0 
L -3.5 0 
" style="stroke: #333333; stroke-width: 0.8"/>
      </defs>
      <g>
       <use xlink:href="#m6a5afa6a31" x="37.825" y="402.323494" style="fill: #333333; stroke: #333333; stroke-width: 0.8"/>
      </g>
     </g>
     <g id="text_9">
      <!-- 0 -->
      <g style="fill: #333333" transform="translate(24.325 406.792244) scale(0.13 -0.13)">
       <use xlink:href="#SimHei-30"/>
      </g>
     </g>
    </g>
    <g id="ytick_2">
     <g id="line2d_17">
      <path d="M 37.825 336.678906 
L 1344.13625 336.678906 
" clip-path="url(#p86a39d40c9)" style="fill: none; stroke-dasharray: 1.85,0.8; stroke-dashoffset: 0; stroke: #b0b0b0; stroke-opacity: 0.3; stroke-width: 0.5"/>
     </g>
     <g id="line2d_18">
      <g>
       <use xlink:href="#m6a5afa6a31" x="37.825" y="336.678906" style="fill: #333333; stroke: #333333; stroke-width: 0.8"/>
      </g>
     </g>
     <g id="text_10">
      <!-- 1 -->
      <g style="fill: #333333" transform="translate(24.325 341.147656) scale(0.13 -0.13)">
       <use xlink:href="#SimHei-31"/>
      </g>
     </g>
    </g>
    <g id="ytick_3">
     <g id="line2d_19">
      <path d="M 37.825 271.034319 
L 1344.13625 271.034319 
" clip-path="url(#p86a39d40c9)" style="fill: none; stroke-dasharray: 1.85,0.8; stroke-dashoffset: 0; stroke: #b0b0b0; stroke-opacity: 0.3; stroke-width: 0.5"/>
     </g>
     <g id="line2d_20">
      <g>
       <use xlink:href="#m6a5afa6a31" x="37.825" y="271.034319" style="fill: #333333; stroke: #333333; stroke-width: 0.8"/>
      </g>
     </g>
     <g id="text_11">
      <!-- 2 -->
      <g style="fill: #333333" transform="translate(24.325 275.503069) scale(0.13 -0.13)">
       <use xlink:href="#SimHei-32"/>
      </g>
     </g>
    </g>
    <g id="ytick_4">
     <g id="line2d_21">
      <path d="M 37.825 205.389731 
L 1344.13625 205.389731 
" clip-path="url(#p86a39d40c9)" style="fill: none; stroke-dasharray: 1.85,0.8; stroke-dashoffset: 0; stroke: #b0b0b0; stroke-opacity: 0.3; stroke-width: 0.5"/>
     </g>
     <g id="line2d_22">
      <g>
       <use xlink:href="#m6a5afa6a31" x="37.825" y="205.389731" style="fill: #333333; stroke: #333333; stroke-width: 0.8"/>
      </g>
     </g>
     <g id="text_12">
      <!-- 3 -->
      <g style="fill: #333333" transform="translate(24.325 209.858481) scale(0.13 -0.13)">
       <use xlink:href="#SimHei-33"/>
      </g>
     </g>
    </g>
    <g id="ytick_5">
     <g id="line2d_23">
      <path d="M 37.825 139.745144 
L 1344.13625 139.745144 
" clip-path="url(#p86a39d40c9)" style="fill: none; stroke-dasharray: 1.85,0.8; stroke-dashoffset: 0; stroke: #b0b0b0; stroke-opacity: 0.3; stroke-width: 0.5"/>
     </g>
     <g id="line2d_24">
      <g>
       <use xlink:href="#m6a5afa6a31" x="37.825" y="139.745144" style="fill: #333333; stroke: #333333; stroke-width: 0.8"/>
      </g>
     </g>
     <g id="text_13">
      <!-- 4 -->
      <g style="fill: #333333" transform="translate(24.325 144.213894) scale(0.13 -0.13)">
       <defs>
        <path id="SimHei-34" d="M 2000 1100 
L 75 1100 
L 75 1525 
L 2100 4450 
L 2475 4450 
L 2475 1525 
L 3075 1525 
L 3075 1100 
L 2475 1100 
L 2475 150 
L 2000 150 
L 2000 1100 
z
M 2000 1525 
L 2000 3500 
L 600 1525 
L 2000 1525 
z
" transform="scale(0.015625)"/>
       </defs>
       <use xlink:href="#SimHei-34"/>
      </g>
     </g>
    </g>
    <g id="text_14">
     <!-- 切宽 ae (mm) -->
     <g style="fill: #333333" transform="translate(18.575 298.59251) rotate(-90) scale(0.14 -0.14)">
      <defs>
       <path id="SimHei-5207" d="M 4200 125 
Q 4875 125 5037 187 
Q 5200 250 5225 525 
L 5400 4175 
L 4250 4175 
Q 4275 2875 4075 1987 
Q 3875 1100 3500 575 
Q 3125 50 2425 -575 
Q 2275 -375 1900 -250 
Q 2550 200 2937 675 
Q 3325 1150 3550 1925 
Q 3775 2700 3750 4175 
Q 3200 4175 2700 4150 
L 2700 4600 
Q 3175 4575 3625 4575 
L 5900 4575 
Q 5875 4200 5850 3700 
L 5700 325 
Q 5625 -250 5312 -337 
Q 5000 -425 4450 -525 
Q 4400 -200 4200 125 
z
M 1175 4275 
Q 1175 4625 1150 5000 
L 1650 5000 
Q 1625 4625 1625 4300 
L 1625 3275 
Q 2150 3350 2700 3425 
Q 2725 3150 2750 2975 
Q 2325 2925 1625 2850 
L 1625 1050 
Q 2325 1475 2650 1750 
Q 2725 1550 2875 1300 
Q 2325 975 1225 200 
Q 1075 500 925 650 
Q 1175 850 1175 1125 
L 1175 2775 
Q 675 2725 325 2675 
Q 300 2975 275 3150 
Q 650 3175 1175 3225 
L 1175 4275 
z
" transform="scale(0.015625)"/>
       <path id="SimHei-5bbd" d="M 2225 3525 
Q 2225 3700 2200 3925 
L 2700 3925 
Q 2675 3700 2675 3525 
L 3650 3525 
Q 3650 3675 3625 3950 
L 4125 3950 
Q 4100 3675 4100 3525 
Q 4625 3525 5100 3550 
L 5100 3075 
Q 4575 3125 4100 3125 
L 4100 2475 
L 5025 2475 
Q 5000 2175 5000 1875 
L 5000 1475 
Q 5000 1225 5025 825 
L 4525 825 
L 4525 2100 
L 1800 2100 
L 1800 750 
L 1300 750 
Q 1325 1200 1325 1450 
L 1325 1850 
Q 1325 2175 1300 2475 
L 2225 2475 
L 2225 3125 
L 1875 3125 
Q 1700 3125 1225 3050 
L 1225 3550 
Q 1700 3525 1875 3525 
L 2225 3525 
z
M 5375 3500 
L 5375 4175 
L 950 4175 
L 950 3400 
L 425 3400 
Q 450 3725 450 3950 
Q 450 4200 425 4575 
L 3025 4575 
Q 2975 4700 2725 5125 
Q 3050 5200 3300 5300 
Q 3500 4900 3625 4575 
L 5900 4575 
Q 5875 4250 5875 3975 
Q 5875 3700 5900 3500 
L 5375 3500 
z
M 3325 1825 
Q 3100 900 2850 462 
Q 2600 25 2112 -237 
Q 1625 -500 650 -700 
Q 550 -350 400 -100 
Q 1025 -75 1450 37 
Q 1875 150 2150 387 
Q 2425 625 2550 987 
Q 2675 1350 2725 1950 
Q 3100 1850 3325 1825 
z
M 3975 1250 
Q 3950 925 3950 675 
L 3950 150 
Q 3950 -75 4200 -100 
L 4950 -100 
Q 5250 -100 5400 0 
Q 5550 100 5650 550 
Q 5875 400 6125 300 
Q 5925 -500 5175 -525 
L 4025 -525 
Q 3500 -500 3450 -25 
L 3450 725 
Q 3450 925 3425 1250 
L 3975 1250 
z
M 3650 2475 
L 3650 3125 
L 2675 3125 
L 2675 2475 
L 3650 2475 
z
" transform="scale(0.015625)"/>
       <path id="SimHei-61" d="M 2875 125 
L 2275 125 
Q 2225 175 2200 262 
Q 2175 350 2175 475 
Q 2000 275 1750 175 
Q 1500 75 1225 75 
Q 825 75 550 275 
Q 275 475 275 850 
Q 275 1225 525 1450 
Q 775 1675 1300 1750 
Q 1650 1800 1912 1875 
Q 2175 1950 2175 2075 
Q 2175 2225 2062 2375 
Q 1950 2525 1575 2525 
Q 1275 2525 1137 2412 
Q 1000 2300 950 2100 
L 400 2100 
Q 450 2500 762 2737 
Q 1075 2975 1575 2975 
Q 2125 2975 2400 2725 
Q 2675 2475 2675 2025 
L 2675 650 
Q 2675 500 2725 375 
Q 2775 250 2875 125 
z
M 2175 1050 
L 2175 1550 
Q 2025 1500 1887 1462 
Q 1750 1425 1425 1375 
Q 1050 1325 937 1200 
Q 825 1075 825 900 
Q 825 750 937 637 
Q 1050 525 1275 525 
Q 1500 525 1762 650 
Q 2025 775 2175 1050 
z
" transform="scale(0.015625)"/>
       <path id="SimHei-65" d="M 2850 1075 
Q 2800 625 2450 350 
Q 2100 75 1625 75 
Q 1025 75 637 462 
Q 250 850 250 1525 
Q 250 2200 637 2587 
Q 1025 2975 1625 2975 
Q 2150 2975 2487 2637 
Q 2825 2300 2825 1525 
L 800 1525 
Q 800 975 1037 750 
Q 1275 525 1625 525 
Q 1900 525 2075 662 
Q 2250 800 2300 1075 
L 2850 1075 
z
M 2250 1925 
Q 2200 2275 2025 2412 
Q 1850 2550 1575 2550 
Q 1325 2550 1125 2412 
Q 925 2275 825 1925 
L 2250 1925 
z
" transform="scale(0.015625)"/>
      </defs>
      <use xlink:href="#SimHei-5207"/>
      <use xlink:href="#SimHei-5bbd" transform="translate(100 0)"/>
      <use xlink:href="#SimHei-20" transform="translate(200 0)"/>
      <use xlink:href="#SimHei-61" transform="translate(250 0)"/>
      <use xlink:href="#SimHei-65" transform="translate(300 0)"/>
      <use xlink:href="#SimHei-20" transform="translate(350 0)"/>
      <use xlink:href="#SimHei-28" transform="translate(400 0)"/>
      <use xlink:href="#SimHei-6d" transform="translate(450 0)"/>
      <use xlink:href="#SimHei-6d" transform="translate(500 0)"/>
      <use xlink:href="#SimHei-29" transform="translate(550 0)"/>
     </g>
    </g>
   </g>
   <g id="patch_3">
    <path d="M 37.825 429.894221 
L 37.825 83.290799 
" style="fill: none; stroke: #000000; stroke-width: 0.8; stroke-linejoin: miter; stroke-linecap: square"/>
   </g>
   <g id="patch_4">
    <path d="M 1344.13625 429.894221 
L 1344.13625 83.290799 
" style="fill: none; stroke: #000000; stroke-width: 0.8; stroke-linejoin: miter; stroke-linecap: square"/>
   </g>
   <g id="patch_5">
    <path d="M 37.825 429.894221 
L 1344.13625 429.894221 
" style="fill: none; stroke: #000000; stroke-width: 0.8; stroke-linejoin: miter; stroke-linecap: square"/>
   </g>
   <g id="patch_6">
    <path d="M 37.825 83.290799 
L 1344.13625 83.290799 
" style="fill: none; stroke: #000000; stroke-width: 0.8; stroke-linejoin: miter; stroke-linecap: square"/>
   </g>
   <g id="text_15">
    <!-- 切宽变化 -->
    <g style="fill: #333333" transform="translate(654.980625 21.825) scale(0.18 -0.18)">
     <defs>
      <path id="SimHei-53d8" d="M 5200 1975 
Q 4950 1600 4537 1137 
Q 4125 675 3675 375 
Q 3925 225 4600 87 
Q 5275 -50 6000 -75 
Q 5700 -400 5650 -625 
Q 4850 -525 4212 -312 
Q 3575 -100 3225 125 
Q 2800 -125 2150 -325 
Q 1500 -525 700 -675 
Q 600 -425 400 -175 
Q 950 -150 1687 12 
Q 2425 175 2825 375 
Q 2275 775 1675 1575 
Q 1350 1575 1000 1550 
L 1000 2000 
Q 1450 1975 2075 1975 
L 5200 1975 
z
M 3225 5275 
Q 3400 4900 3550 4475 
L 4675 4475 
Q 5400 4475 5975 4500 
L 5975 4025 
Q 5375 4050 4725 4050 
L 4125 4050 
L 4125 2950 
Q 4125 2550 4150 2150 
L 3600 2150 
Q 3625 2550 3625 2950 
L 3625 4050 
L 2750 4050 
L 2750 2950 
Q 2750 2675 2775 2150 
L 2225 2150 
Q 2250 2675 2250 2950 
L 2250 4050 
L 1700 4050 
Q 975 4050 425 4025 
L 425 4500 
Q 950 4475 1700 4475 
L 2975 4475 
Q 2925 4675 2700 5125 
Q 2950 5150 3225 5275 
z
M 2200 1575 
Q 2650 975 3250 600 
Q 3850 1000 4275 1575 
L 2200 1575 
z
M 4850 3750 
Q 5375 3275 5950 2675 
Q 5750 2525 5500 2300 
Q 5075 2800 4450 3400 
Q 4675 3575 4850 3750 
z
M 1825 3500 
Q 1700 3375 1425 3025 
Q 1150 2675 825 2300 
Q 575 2475 375 2600 
Q 975 3150 1300 3825 
Q 1525 3650 1825 3500 
z
" transform="scale(0.015625)"/>
      <path id="SimHei-5316" d="M 3925 5025 
Q 3900 4900 3900 4400 
L 3900 2625 
Q 4375 3025 4775 3450 
Q 5175 3875 5400 4300 
Q 5600 4100 5900 3925 
Q 5700 3700 5225 3212 
Q 4750 2725 4487 2512 
Q 4225 2300 3900 2025 
L 3900 450 
Q 3900 50 4225 50 
L 5200 50 
Q 5400 75 5462 262 
Q 5525 450 5575 850 
Q 5800 650 6150 600 
Q 6000 -100 5825 -250 
Q 5650 -400 5350 -400 
L 3950 -400 
Q 3425 -400 3400 200 
L 3400 1675 
Q 3225 1525 2962 1350 
Q 2700 1175 2375 975 
Q 2225 1225 2025 1400 
Q 2350 1550 2737 1787 
Q 3125 2025 3400 2250 
L 3400 4500 
Q 3400 4800 3375 5025 
L 3925 5025 
z
M 2400 4850 
Q 2175 4550 2075 4337 
Q 1975 4125 1825 3775 
L 1825 675 
Q 1825 -75 1850 -550 
L 1325 -550 
Q 1350 -125 1350 650 
L 1350 3050 
Q 1125 2725 962 2525 
Q 800 2325 675 2175 
Q 500 2375 275 2525 
Q 625 2850 875 3212 
Q 1125 3575 1312 3912 
Q 1500 4250 1625 4575 
Q 1750 4900 1825 5100 
Q 1975 4975 2400 4850 
z
" transform="scale(0.015625)"/>
     </defs>
     <use xlink:href="#SimHei-5207"/>
     <use xlink:href="#SimHei-5bbd" transform="translate(100 0)"/>
     <use xlink:href="#SimHei-53d8" transform="translate(200 0)"/>
     <use xlink:href="#SimHei-5316" transform="translate(300 0)"/>
    </g>
   </g>
   <g id="line2d_25">
    <path d="M 141.736122 402.323494 
L 159.828973 402.323494 
L 159.828973 139.745144 
L 160.812772 139.745144 
L 174.404118 139.745144 
L 174.404118 402.323494 
L 175.387595 139.745144 
L 182.338303 139.745144 
L 182.497243 402.323494 
L 183.333214 139.745144 
L 185.795213 139.745144 
L 185.809292 402.323494 
L 186.787483 362.936741 
L 186.805143 362.936741 
L 186.840463 402.323494 
L 187.323964 139.745144 
L 187.612282 402.323494 
L 189.173705 402.323494 
L 189.191366 139.745144 
L 190.172319 139.745144 
L 191.76172 139.745144 
L 192.026108 402.323494 
L 192.750811 139.745144 
L 197.995778 139.745144 
L 198.189732 402.323494 
L 198.993837 139.745144 
L 199.270274 139.745144 
L 199.287929 402.323494 
L 200.262222 402.323494 
L 200.279876 402.323494 
L 200.297514 139.745144 
L 201.277075 141.621923 
L 201.29436 141.621923 
L 201.29436 142.935471 
L 201.311719 139.745144 
L 202.281547 139.745144 
L 205.090357 139.745144 
L 205.090357 168.651082 
L 206.074317 139.745144 
L 206.305489 139.745144 
L 206.316089 402.323494 
L 207.297553 139.745144 
L 209.652388 139.745144 
L 209.666488 402.323494 
L 210.182507 402.323494 
L 213.638225 402.323494 
L 213.674447 139.745144 
L 214.629441 402.323494 
L 215.001688 402.323494 
L 215.072318 139.745144 
L 215.999936 139.745144 
L 218.436926 139.745144 
L 218.681982 402.323494 
L 219.431642 139.745144 
L 219.463534 139.745144 
L 219.493244 402.323494 
L 219.908159 402.323494 
L 224.767623 402.323494 
L 224.785305 139.745144 
L 225.754398 402.323494 
L 226.492863 402.323494 
L 226.528178 139.745144 
L 227.46161 402.323494 
L 227.883129 402.323494 
L 227.946984 370.814092 
L 228.337459 402.323494 
L 229.479805 402.323494 
L 229.568092 139.745144 
L 230.46438 139.745144 
L 232.654215 139.745144 
L 232.876064 399.865708 
L 233.641589 139.745144 
L 233.658669 139.745144 
L 233.672787 402.323494 
L 234.650282 139.745144 
L 234.770866 140.456731 
L 234.92427 349.88837 
L 235.158258 139.745144 
L 235.756516 139.745144 
L 237.947461 139.745144 
L 237.968772 402.323494 
L 238.912474 402.323494 
L 239.067915 402.323494 
L 239.085585 139.745144 
L 240.057595 139.745144 
L 240.550035 139.745144 
L 240.718375 402.323494 
L 241.541429 139.745144 
L 241.647325 139.745144 
L 242.468661 402.323494 
L 242.644353 402.323494 
L 243.30472 402.323494 
L 243.322393 139.745144 
L 244.295591 378.887654 
L 244.313265 378.887654 
L 244.313265 402.323494 
L 245.294359 402.323494 
L 245.449802 402.323494 
L 245.520447 139.745144 
L 246.442212 402.323494 
L 248.525463 402.323494 
L 248.684408 139.745144 
L 249.521216 139.745144 
L 249.972945 139.745144 
L 249.976477 402.323494 
L 250.971391 139.745144 
L 251.824728 139.745144 
L 251.842388 402.323494 
L 252.57683 402.323494 
L 253.053716 402.323494 
L 253.071374 139.745144 
L 254.049823 139.745144 
L 254.231983 139.745144 
L 254.249626 402.323494 
L 255.226813 139.745144 
L 256.324994 139.745144 
L 256.342649 402.323494 
L 257.314238 139.745144 
L 258.626289 139.745144 
L 258.636892 402.323494 
L 259.622975 139.745144 
L 261.09819 139.745144 
L 261.105271 402.323494 
L 262.096344 139.745144 
L 263.01548 139.745144 
L 263.04346 402.323494 
L 264.014284 402.323494 
L 264.819653 402.323494 
L 264.854955 139.745144 
L 265.813588 139.745144 
L 266.098236 139.745144 
L 266.112356 402.323494 
L 267.094907 139.745144 
L 268.184567 139.745144 
L 268.205748 402.323494 
L 269.174062 139.745144 
L 270.857302 139.745144 
L 270.867909 402.323494 
L 271.849179 139.745144 
L 273.45548 139.745144 
L 273.469593 402.323494 
L 274.455021 139.745144 
L 276.927875 139.745144 
L 276.938447 402.323494 
L 277.919065 139.745144 
L 280.892968 139.745144 
L 280.903549 402.323494 
L 281.879263 139.745144 
L 282.338445 139.745144 
L 282.726415 402.323494 
L 283.326856 139.745144 
L 285.297957 139.745144 
L 285.308744 402.323494 
L 286.292429 139.745144 
L 287.929806 139.745144 
L 287.943938 402.323494 
L 288.687012 402.323494 
L 289.1639 402.323494 
L 289.19922 139.745144 
L 290.159829 139.745144 
L 290.81821 139.745144 
L 290.916437 402.323494 
L 291.811365 402.323494 
L 291.953404 402.323494 
L 292.071597 139.745144 
L 292.936362 139.745144 
L 293.510862 139.745144 
L 293.529887 402.323494 
L 294.499663 402.323494 
L 294.543813 402.323494 
L 294.561473 139.745144 
L 295.536828 139.745144 
L 295.832666 139.745144 
L 295.841112 402.323494 
L 296.767796 402.323494 
L 296.928134 402.323494 
L 296.945799 139.745144 
L 297.914639 139.745144 
L 298.089257 139.745144 
L 298.11043 402.323494 
L 299.079936 139.745144 
L 300.177128 139.745144 
L 300.187756 402.323494 
L 301.17531 139.745144 
L 302.092635 139.745144 
L 302.220962 402.323494 
L 303.080976 139.745144 
L 304.134105 139.745144 
L 304.158822 402.323494 
L 305.129654 139.745144 
L 305.996721 139.745144 
L 306.016321 402.323494 
L 306.993352 139.745144 
L 307.163527 139.745144 
L 307.179732 402.323494 
L 308.156142 402.323494 
L 308.88393 402.323494 
L 308.901589 139.745144 
L 309.876098 233.82828 
L 309.893206 233.82828 
L 309.944315 139.745144 
L 310.037006 402.323494 
L 310.88629 402.323494 
L 310.938065 402.323494 
L 310.938065 323.549989 
L 311.925041 402.323494 
L 312.009246 402.323494 
L 312.125319 139.745144 
L 313.004626 402.323494 
L 313.022286 402.323494 
L 313.341662 253.918149 
L 313.975092 402.323494 
L 317.212297 402.323494 
L 317.300125 139.745144 
L 318.208496 402.323494 
L 318.267485 402.323494 
L 318.408661 264.46986 
L 319.256342 402.323494 
L 323.627845 402.323494 
L 323.645497 139.745144 
L 324.62335 402.323494 
L 325.098633 402.323494 
L 325.116293 139.745144 
L 326.093296 402.323494 
L 326.578417 402.323494 
L 326.578417 139.745144 
L 327.569697 402.323494 
L 328.193114 402.323494 
L 328.210774 139.745144 
L 329.179992 402.323494 
L 329.874454 402.323494 
L 329.892111 139.745144 
L 330.871361 139.745144 
L 330.878416 139.745144 
L 330.885469 402.323494 
L 331.867633 139.745144 
L 332.90003 139.745144 
L 332.90003 402.323494 
L 333.888399 139.745144 
L 334.994382 139.745144 
L 335.00143 402.323494 
L 335.984 139.745144 
L 336.701448 139.745144 
L 336.708329 402.323494 
L 337.666163 402.323494 
L 338.248226 402.323494 
L 338.318856 139.745144 
L 339.247423 402.323494 
L 339.888528 402.323494 
L 339.906188 139.745144 
L 340.884839 402.323494 
L 341.377639 402.323494 
L 341.395268 139.745144 
L 342.369925 402.323494 
L 342.913557 402.323494 
L 342.931217 139.745144 
L 343.900305 402.323494 
L 344.465536 402.323494 
L 344.483218 139.745144 
L 345.463114 139.745144 
L 346.397778 139.745144 
L 346.54547 402.323494 
L 347.354284 402.323494 
L 348.266317 402.323494 
L 348.316731 139.745144 
L 349.259915 402.323494 
L 350.785755 402.323494 
L 350.803437 263.070318 
L 351.552135 402.323494 
L 352.80953 402.323494 
L 353.279093 152.423083 
L 353.796224 402.323494 
L 353.973028 402.323494 
L 353.973028 343.243365 
L 354.737242 402.323494 
L 357.233603 402.323494 
L 357.339548 139.745144 
L 358.230269 402.323494 
L 358.80251 402.323494 
L 358.820192 139.745144 
L 359.726648 402.323494 
L 364.82991 402.323494 
L 365.041249 317.255986 
L 365.825374 402.323494 
L 366.068273 402.284101 
L 366.964161 388.260323 
L 366.280211 402.323494 
L 367.052448 388.457256 
L 367.211389 388.299709 
L 367.420339 322.836432 
L 367.269132 402.323494 
L 368.208263 402.323494 
L 369.539544 402.323494 
L 369.611318 327.152564 
L 370.535437 402.323494 
L 370.747245 402.323494 
L 370.906186 374.236538 
L 371.732023 388.496643 
L 371.890964 388.299709 
L 371.992624 327.681659 
L 371.974956 402.323494 
L 372.883381 402.323494 
L 376.945286 402.323494 
L 376.945286 139.745144 
L 377.929085 139.745144 
L 391.520431 139.745144 
L 391.520431 402.323494 
L 392.503907 139.745144 
L 399.454615 139.745144 
L 399.613556 402.323494 
L 400.449526 139.745144 
L 402.911525 139.745144 
L 402.925605 402.323494 
L 403.903795 362.936741 
L 403.921455 362.936741 
L 403.956775 402.323494 
L 404.440276 139.745144 
L 404.728595 402.323494 
L 406.290018 402.323494 
L 406.307679 139.745144 
L 407.288631 139.745144 
L 408.878032 139.745144 
L 409.142421 402.323494 
L 409.867124 139.745144 
L 415.11209 139.745144 
L 415.306045 402.323494 
L 416.11015 139.745144 
L 416.386587 139.745144 
L 416.404242 402.323494 
L 417.378535 402.323494 
L 417.396189 402.323494 
L 417.413827 139.745144 
L 418.393387 141.621923 
L 418.410673 141.621923 
L 418.410673 142.935471 
L 418.428031 139.745144 
L 419.397859 139.745144 
L 422.092962 139.745144 
L 422.107633 402.323494 
L 423.089798 139.745144 
L 423.369078 139.745144 
L 423.383197 402.323494 
L 424.364967 139.745144 
L 426.794706 139.745144 
L 426.808845 402.323494 
L 427.333533 402.323494 
L 430.877526 402.323494 
L 430.90439 139.745144 
L 431.875176 402.323494 
L 432.769157 402.323494 
L 432.804497 139.745144 
L 433.763654 402.323494 
L 434.360441 402.323494 
L 434.395756 139.745144 
L 435.194858 402.323494 
L 436.878803 402.323494 
L 436.914105 139.745144 
L 437.869551 139.745144 
L 440.235925 139.745144 
L 440.481448 402.323494 
L 441.231418 139.745144 
L 441.279287 139.745144 
L 441.303898 402.323494 
L 442.274653 317.473269 
L 442.292218 317.473269 
L 442.319476 383.822617 
L 442.612353 139.745144 
L 443.28179 139.745144 
L 445.613228 139.745144 
L 445.635952 402.323494 
L 446.56101 402.323494 
L 446.71646 402.323494 
L 446.734142 139.745144 
L 447.702277 139.745144 
L 449.485766 139.745144 
L 450.394138 402.323494 
L 450.478595 402.323494 
L 451.195494 402.323494 
L 451.213149 139.745144 
L 452.181519 139.745144 
L 452.531081 139.745144 
L 452.541766 402.323494 
L 453.525144 139.745144 
L 454.589674 139.745144 
L 454.607326 402.323494 
L 455.136299 402.323494 
L 457.318216 402.323494 
L 457.409409 139.745144 
L 458.315975 139.745144 
L 458.356018 139.745144 
L 458.366606 402.323494 
L 459.350917 139.745144 
L 459.368653 139.745144 
L 459.368653 402.323494 
L 460.363095 402.323494 
L 461.127597 402.323494 
L 461.178993 372.406236 
L 461.70783 402.323494 
L 463.348649 402.323494 
L 463.61526 139.745144 
L 464.342841 139.745144 
L 464.879694 139.745144 
L 464.900882 402.323494 
L 465.871989 139.745144 
L 466.602848 139.745144 
L 466.620494 402.323494 
L 467.35555 402.323494 
L 467.833241 402.323494 
L 467.85089 139.745144 
L 468.827536 139.745144 
L 468.982841 139.745144 
L 468.996969 402.323494 
L 469.979758 139.745144 
L 471.03323 139.745144 
L 471.047321 402.323494 
L 472.022033 139.745144 
L 473.294571 139.745144 
L 473.305148 402.323494 
L 474.291728 139.745144 
L 475.729529 139.745144 
L 475.754241 402.323494 
L 476.719864 139.745144 
L 477.551933 139.745144 
L 477.581485 402.323494 
L 478.550491 402.323494 
L 479.371446 402.323494 
L 479.389093 139.745144 
L 480.355084 139.745144 
L 480.585826 139.745144 
L 480.589353 402.323494 
L 481.579175 139.745144 
L 482.641539 139.745144 
L 482.659179 402.323494 
L 483.638191 139.745144 
L 485.238416 139.745144 
L 485.259614 402.323494 
L 486.231823 139.745144 
L 487.795927 139.745144 
L 487.810049 402.323494 
L 488.78497 139.745144 
L 491.227342 139.745144 
L 491.237947 402.323494 
L 492.220921 139.745144 
L 495.131612 139.745144 
L 495.152825 402.323494 
L 496.126685 139.745144 
L 496.542077 139.745144 
L 496.986567 402.323494 
L 497.534028 139.745144 
L 499.465953 139.745144 
L 499.473015 402.323494 
L 500.457426 139.745144 
L 502.102283 139.745144 
L 502.353544 402.323494 
L 502.862932 402.323494 
L 503.339854 402.323494 
L 503.375174 139.745144 
L 504.3353 139.745144 
L 504.976623 139.745144 
L 505.088515 402.323494 
L 505.976036 402.323494 
L 506.13529 402.323494 
L 506.247806 139.745144 
L 507.124082 139.745144 
L 507.684642 139.745144 
L 507.703069 402.323494 
L 508.677107 402.323494 
L 508.721257 402.323494 
L 508.738917 139.745144 
L 509.714312 139.745144 
L 510.010137 139.745144 
L 510.019735 402.323494 
L 510.949539 402.323494 
L 511.106427 402.323494 
L 511.124092 139.745144 
L 512.090826 139.745144 
L 512.265599 139.745144 
L 512.279734 402.323494 
L 513.259434 139.745144 
L 514.348825 139.745144 
L 514.366494 402.323494 
L 515.342445 139.745144 
L 516.27549 139.745144 
L 516.297425 402.323494 
L 517.263404 139.745144 
L 518.320265 139.745144 
L 518.341427 402.323494 
L 519.315582 139.745144 
L 520.179625 139.745144 
L 520.196498 402.323494 
L 521.169233 139.745144 
L 521.349908 139.745144 
L 521.36609 402.323494 
L 522.343426 402.323494 
L 523.074514 402.323494 
L 523.092151 139.745144 
L 524.066758 233.635284 
L 524.083881 233.635284 
L 524.151971 139.745144 
L 524.242204 402.323494 
L 525.078011 402.323494 
L 525.129787 402.323494 
L 525.129787 323.549989 
L 526.127111 402.323494 
L 526.215369 402.323494 
L 526.35435 139.745144 
L 527.210616 402.323494 
L 527.276346 402.323494 
L 527.276346 286.34395 
L 528.171576 402.323494 
L 531.387636 402.323494 
L 531.475464 139.745144 
L 532.383778 402.323494 
L 532.442767 402.323494 
L 532.583943 264.46986 
L 533.431624 402.323494 
L 537.758855 402.323494 
L 537.776502 139.745144 
L 538.756116 402.323494 
L 539.185626 402.323494 
L 539.203286 139.745144 
L 540.180824 402.323494 
L 540.614488 402.323494 
L 540.63214 139.745144 
L 541.605124 402.323494 
L 542.137647 402.323494 
L 542.155307 139.745144 
L 543.130934 402.323494 
L 543.701996 402.323494 
L 543.719678 139.745144 
L 544.699852 402.323494 
L 545.434209 402.323494 
L 545.451869 139.745144 
L 546.418445 139.745144 
L 546.476077 139.745144 
L 546.493744 402.323494 
L 547.473724 139.745144 
L 548.413825 139.745144 
L 548.433834 402.323494 
L 549.41132 139.745144 
L 550.528131 139.745144 
L 550.594552 402.323494 
L 551.512426 315.671326 
L 551.53007 315.671326 
L 551.539131 402.323494 
L 551.880571 139.745144 
L 552.528744 139.745144 
L 552.6306 139.745144 
L 552.644445 402.323494 
L 553.623628 139.745144 
L 554.128261 139.745144 
L 554.149449 402.323494 
L 555.121138 402.323494 
L 555.20388 402.323494 
L 555.377604 139.745144 
L 556.198471 402.323494 
L 556.467213 402.323494 
L 556.484873 139.745144 
L 557.462778 402.323494 
L 557.91609 402.323494 
L 557.933766 139.745144 
L 558.907562 402.323494 
L 559.500625 402.323494 
L 559.500625 264.46986 
L 560.478713 402.323494 
L 564.948367 402.323494 
L 565.493947 139.745144 
L 565.943667 139.745144 
L 566.554392 139.745144 
L 566.568512 402.323494 
L 567.546123 402.323494 
L 568.138529 402.323494 
L 568.138529 291.433374 
L 568.730709 402.323494 
L 570.348223 402.323494 
L 570.433504 139.745144 
L 571.331454 388.260323 
L 571.349112 388.260323 
L 571.349112 402.323494 
L 572.122811 139.745144 
L 572.341237 139.745144 
L 572.586258 139.745144 
L 572.593334 402.323494 
L 573.561575 402.323494 
L 573.717024 402.323494 
L 573.752339 139.745144 
L 574.574839 402.323494 
L 578.79112 402.323494 
L 579.505534 298.966747 
L 579.787903 388.398176 
L 579.893848 388.299709 
L 579.893848 402.323494 
L 580.715229 388.260323 
L 580.891827 402.323494 
L 581.415624 402.323494 
L 581.993039 293.857629 
L 582.411662 374.472859 
L 582.429295 374.472859 
L 582.464609 402.323494 
L 583.411825 402.323494 
L 583.643492 402.323494 
L 584.221767 291.771444 
L 584.62823 388.299709 
L 584.716517 388.299709 
L 584.716517 402.323494 
L 585.350424 374.275925 
L 585.703622 402.323494 
L 586.218947 402.323494 
L 586.78328 297.969606 
L 587.215045 374.236538 
L 587.268042 374.472859 
L 587.285675 402.323494 
L 588.266776 402.323494 
L 592.061057 402.323494 
L 592.061057 139.745144 
L 593.044856 139.745144 
L 606.636201 139.745144 
L 606.636201 402.323494 
L 607.619678 139.745144 
L 614.570386 139.745144 
L 614.729326 402.323494 
L 615.565297 139.745144 
L 618.027296 139.745144 
L 618.041375 402.323494 
L 619.019566 362.936741 
L 619.037226 362.936741 
L 619.072546 402.323494 
L 619.556047 139.745144 
L 619.844366 402.323494 
L 621.405789 402.323494 
L 621.42345 139.745144 
L 622.404402 139.745144 
L 623.993803 139.745144 
L 624.258191 402.323494 
L 624.982894 139.745144 
L 630.227861 139.745144 
L 630.421816 402.323494 
L 631.225921 139.745144 
L 631.502358 139.745144 
L 631.520013 402.323494 
L 632.494305 402.323494 
L 632.51196 402.323494 
L 632.529597 139.745144 
L 633.509158 141.621923 
L 633.526443 141.621923 
L 633.526443 142.935471 
L 633.543802 139.745144 
L 634.51363 139.745144 
L 637.142508 139.745144 
L 637.156605 402.323494 
L 638.137581 139.745144 
L 638.44901 139.745144 
L 638.462858 402.323494 
L 639.443243 141.235276 
L 639.460663 141.235276 
L 639.460663 139.745144 
L 640.448423 139.745144 
L 641.958508 139.745144 
L 641.972661 402.323494 
L 642.504817 402.323494 
L 646.096531 402.323494 
L 646.114213 139.745144 
L 647.082226 402.323494 
L 647.920072 402.323494 
L 647.937705 139.745144 
L 648.913595 402.323494 
L 649.389596 402.323494 
L 649.407279 139.745144 
L 650.054158 402.323494 
L 651.156729 402.323494 
L 651.743468 139.745144 
L 652.154811 139.745144 
L 652.720647 139.745144 
L 652.720647 402.323494 
L 653.71114 139.745144 
L 654.163192 139.745144 
L 654.177333 402.323494 
L 654.584911 402.323494 
L 655.940224 402.323494 
L 655.957856 139.745144 
L 656.933982 402.323494 
L 657.726811 402.323494 
L 657.762126 139.745144 
L 658.723558 402.323494 
L 659.16225 402.323494 
L 659.179933 139.745144 
L 659.816496 402.323494 
L 660.91597 402.323494 
L 660.997562 139.745144 
L 661.914833 262.961348 
L 661.918388 262.961348 
L 662.704721 139.745144 
L 661.939528 402.323494 
L 662.915424 139.745144 
L 663.341185 139.745144 
L 663.351792 402.323494 
L 664.306985 402.323494 
L 664.43736 402.323494 
L 664.455007 139.745144 
L 665.433422 402.323494 
L 665.883723 402.323494 
L 665.901383 139.745144 
L 666.881035 402.323494 
L 667.284542 402.323494 
L 667.302206 139.745144 
L 668.280283 402.323494 
L 668.688986 402.323494 
L 668.706646 139.745144 
L 669.688304 402.323494 
L 670.094358 402.323494 
L 670.112019 139.745144 
L 671.090107 402.323494 
L 671.649646 402.323494 
L 671.667306 139.745144 
L 672.639633 402.323494 
L 673.284401 402.323494 
L 673.302083 139.745144 
L 674.273434 402.323494 
L 674.291094 402.323494 
L 675.113761 139.745144 
L 675.279122 139.745144 
L 676.207395 139.745144 
L 676.218009 402.323494 
L 677.200322 139.745144 
L 678.252144 139.745144 
L 678.272224 402.323494 
L 679.238914 139.745144 
L 679.697526 139.745144 
L 679.72128 402.323494 
L 680.690656 402.323494 
L 681.415378 402.323494 
L 681.433025 139.745144 
L 682.412309 402.323494 
L 682.800198 402.323494 
L 682.817858 139.745144 
L 683.799337 402.323494 
L 684.127621 402.323494 
L 684.145278 139.745144 
L 685.122252 402.323494 
L 685.517087 402.323494 
L 685.534747 139.745144 
L 686.512204 402.323494 
L 686.918032 402.323494 
L 686.935698 139.745144 
L 687.916934 402.323494 
L 688.45686 402.323494 
L 688.474521 139.745144 
L 689.452302 402.323494 
L 690.119594 402.323494 
L 690.130384 139.745144 
L 691.118621 402.323494 
L 691.139782 402.323494 
L 691.962461 139.745144 
L 692.127436 139.745144 
L 693.130997 139.745144 
L 693.1557 402.323494 
L 694.115947 139.745144 
L 695.273766 139.745144 
L 695.29033 402.323494 
L 696.271323 139.745144 
L 697.796545 139.745144 
L 697.814186 402.323494 
L 698.783994 139.745144 
L 700.465461 139.745144 
L 700.476065 402.323494 
L 701.458634 139.745144 
L 703.692059 139.745144 
L 703.713224 402.323494 
L 704.682377 139.745144 
L 705.564845 139.745144 
L 705.571913 402.323494 
L 706.560066 139.745144 
L 707.10637 139.745144 
L 707.124506 402.323494 
L 708.095819 139.745144 
L 709.439782 139.745144 
L 709.443314 402.323494 
L 709.820894 402.323494 
L 710.708055 402.323494 
L 710.743395 139.745144 
L 711.70378 139.745144 
L 711.989612 139.745144 
L 711.996685 402.323494 
L 712.977911 139.745144 
L 714.205117 139.745144 
L 714.226322 402.323494 
L 715.202217 139.745144 
L 716.589132 139.745144 
L 716.606788 402.323494 
L 717.580768 139.745144 
L 717.936963 139.745144 
L 718.455688 402.323494 
L 718.925765 179.518543 
L 718.943423 179.518543 
L 718.96108 139.745144 
L 719.024692 402.323494 
L 719.512147 402.323494 
L 720.190117 402.323494 
L 720.207773 139.745144 
L 721.181254 139.745144 
L 721.336594 139.745144 
L 721.357727 402.323494 
L 722.321936 402.323494 
L 723.17511 402.323494 
L 723.307416 139.745144 
L 724.167126 402.323494 
L 725.159553 402.323494 
L 725.334997 139.745144 
L 726.139254 402.323494 
L 728.174484 402.323494 
L 728.201564 139.745144 
L 729.174018 402.323494 
L 729.445108 402.323494 
L 729.445108 360.330914 
L 730.051082 402.323494 
L 731.74829 402.323494 
L 731.764671 139.745144 
L 732.737409 181.427488 
L 732.772562 180.876073 
L 732.807757 139.745144 
L 733.761157 139.745144 
L 734.184896 139.745144 
L 734.430146 402.323494 
L 735.179884 139.745144 
L 735.211839 139.745144 
L 735.24282 402.323494 
L 736.198871 308.148456 
L 736.216537 308.148456 
L 736.261347 364.028214 
L 736.554197 139.745144 
L 737.205948 139.745144 
L 737.55916 139.745144 
L 737.77103 402.323494 
L 738.550673 402.323494 
L 739.184645 402.323494 
L 739.184645 139.745144 
L 740.173214 139.745144 
L 740.420317 139.745144 
L 741.336658 402.323494 
L 741.417339 402.323494 
L 742.134215 402.323494 
L 742.151888 139.745144 
L 743.120234 139.745144 
L 743.457685 139.745144 
L 743.756383 402.323494 
L 744.451532 402.323494 
L 745.329078 402.323494 
L 745.412136 139.745144 
L 746.320354 139.745144 
L 746.358803 139.745144 
L 746.36939 402.323494 
L 747.35367 139.745144 
L 747.371406 139.745144 
L 747.371406 402.323494 
L 748.368176 402.323494 
L 749.094255 402.323494 
L 749.145461 372.485928 
L 749.768264 402.323494 
L 753.167368 402.323494 
L 753.185012 139.745144 
L 754.162352 139.745144 
L 754.693303 139.745144 
L 754.714715 402.323494 
L 755.68911 139.745144 
L 757.216292 139.745144 
L 757.226898 402.323494 
L 758.20525 139.745144 
L 759.771341 139.745144 
L 759.792394 402.323494 
L 760.761597 139.745144 
L 762.376034 139.745144 
L 762.403376 402.323494 
L 763.363715 139.745144 
L 763.434345 139.745144 
L 763.445703 402.323494 
L 764.421114 139.745144 
L 765.077132 139.745144 
L 765.094473 402.323494 
L 766.066489 139.745144 
L 767.217573 139.745144 
L 767.217573 402.323494 
L 768.087551 402.323494 
L 768.674506 402.323494 
L 768.722279 139.745144 
L 769.671151 139.745144 
L 769.862423 139.745144 
L 769.88334 402.323494 
L 770.857144 139.745144 
L 771.824781 139.745144 
L 771.842329 402.323494 
L 772.819781 139.745144 
L 773.786672 139.745144 
L 773.807325 402.323494 
L 774.781201 139.745144 
L 775.755056 139.745144 
L 775.769169 402.323494 
L 776.754986 139.745144 
L 776.864215 139.745144 
L 777.674286 402.323494 
L 777.854353 402.323494 
L 778.562006 402.323494 
L 778.579666 139.745144 
L 779.557527 139.745144 
L 779.71359 139.745144 
L 779.724204 402.323494 
L 780.707795 402.323494 
L 781.568558 402.323494 
L 781.70348 139.745144 
L 782.567986 402.323494 
L 782.619726 402.323494 
L 783.233968 264.46986 
L 783.604829 264.46986 
L 783.710789 264.46986 
L 783.99335 402.323494 
L 784.58411 139.745144 
L 784.660427 139.745144 
L 784.781746 139.745144 
L 784.798588 402.323494 
L 785.15257 402.323494 
L 788.86516 402.323494 
L 788.918105 206.956668 
L 789.440473 402.323494 
L 790.212094 402.323494 
L 790.247407 262.398773 
L 791.142558 402.323494 
L 801.529778 402.323494 
L 802.241267 286.855321 
L 802.526102 388.398176 
L 802.667361 388.339096 
L 802.667361 402.323494 
L 803.308831 388.260323 
L 803.662054 402.323494 
L 804.215895 402.323494 
L 804.82264 279.83135 
L 805.206733 374.472859 
L 805.25968 374.472859 
L 805.312677 402.323494 
L 805.906177 374.236538 
L 806.247986 402.323494 
L 806.504405 402.323494 
L 807.059269 283.793657 
L 807.499303 388.299709 
L 807.605248 388.457256 
L 807.605248 402.323494 
L 808.205052 374.275925 
L 808.593564 402.323494 
L 809.148345 402.323494 
L 809.657412 275.34126 
L 810.137677 374.472859 
L 810.208307 374.472859 
L 810.225939 402.323494 
L 811.203679 402.323494 
L 815.327393 402.323494 
L 815.327393 139.745144 
L 816.311192 139.745144 
L 829.902538 139.745144 
L 829.902538 402.323494 
L 830.886015 139.745144 
L 837.836723 139.745144 
L 837.995663 402.323494 
L 838.831634 139.745144 
L 841.293633 139.745144 
L 841.307712 402.323494 
L 842.285903 362.936741 
L 842.303563 362.936741 
L 842.338883 402.323494 
L 842.822384 139.745144 
L 843.110702 402.323494 
L 844.672125 402.323494 
L 844.689786 139.745144 
L 845.670739 139.745144 
L 847.26014 139.745144 
L 847.524528 402.323494 
L 848.249231 139.745144 
L 853.494198 139.745144 
L 853.688153 402.323494 
L 854.492258 139.745144 
L 854.768694 139.745144 
L 854.78635 402.323494 
L 855.760642 402.323494 
L 855.778297 402.323494 
L 855.795934 139.745144 
L 856.775495 141.621923 
L 856.79278 141.621923 
L 856.79278 142.935471 
L 856.810139 139.745144 
L 857.779967 139.745144 
L 860.389489 139.745144 
L 860.403586 402.323494 
L 861.388612 139.745144 
L 861.700675 139.745144 
L 861.714795 402.323494 
L 862.686701 142.407032 
L 862.704 142.407032 
L 862.721323 139.745144 
L 862.756183 144.354707 
L 863.691141 139.745144 
L 865.238158 139.745144 
L 865.252263 402.323494 
L 865.790749 402.323494 
L 869.396728 402.323494 
L 869.41436 139.745144 
L 870.391366 402.323494 
L 871.192068 402.323494 
L 871.227408 139.745144 
L 872.186231 402.323494 
L 872.63289 402.323494 
L 872.650547 139.745144 
L 873.266096 402.323494 
L 874.377323 402.323494 
L 874.986839 139.745144 
L 875.374261 139.745144 
L 875.93295 139.745144 
L 875.94002 402.323494 
L 876.921336 139.745144 
L 877.389802 139.745144 
L 877.414512 402.323494 
L 877.817381 402.323494 
L 879.192348 402.323494 
L 879.210005 139.745144 
L 880.175866 402.323494 
L 880.974789 402.323494 
L 881.010104 139.745144 
L 881.971365 402.323494 
L 882.380689 402.323494 
L 882.398371 139.745144 
L 883.066783 402.323494 
L 884.174404 402.323494 
L 884.25688 139.745144 
L 885.171592 191.236758 
L 885.175119 191.236758 
L 885.189263 402.323494 
L 885.951517 139.745144 
L 886.162046 139.745144 
L 886.568347 139.745144 
L 886.586739 402.323494 
L 887.539888 402.323494 
L 887.67074 402.323494 
L 887.688398 139.745144 
L 888.666473 402.323494 
L 889.102879 402.323494 
L 889.120539 139.745144 
L 890.0999 402.323494 
L 890.480789 402.323494 
L 890.49843 139.745144 
L 891.475309 402.323494 
L 891.870151 402.323494 
L 891.887811 139.745144 
L 892.866154 402.323494 
L 893.256208 402.323494 
L 893.273871 139.745144 
L 894.250268 402.323494 
L 894.758416 402.323494 
L 894.776076 139.745144 
L 895.752387 402.323494 
L 896.357245 402.323494 
L 896.374903 139.745144 
L 897.354617 402.323494 
L 898.141937 402.323494 
L 898.159597 139.745144 
L 899.131764 139.745144 
L 899.225944 139.745144 
L 899.236561 402.323494 
L 900.216934 139.745144 
L 901.24271 139.745144 
L 901.249795 402.323494 
L 902.229129 139.745144 
L 902.678133 139.745144 
L 902.70016 402.323494 
L 903.674675 402.323494 
L 904.356607 402.323494 
L 904.374285 139.745144 
L 905.353074 402.323494 
L 905.734047 402.323494 
L 905.751707 139.745144 
L 906.72916 402.323494 
L 907.05428 402.323494 
L 907.071937 139.745144 
L 908.052497 402.323494 
L 908.394007 402.323494 
L 908.411667 139.745144 
L 909.389442 402.323494 
L 909.764251 402.323494 
L 909.772106 139.745144 
L 910.758031 402.323494 
L 911.266158 402.323494 
L 911.283818 139.745144 
L 912.260297 402.323494 
L 912.874277 402.323494 
L 912.891959 139.745144 
L 913.872731 402.323494 
L 914.630754 402.323494 
L 914.648415 139.745144 
L 915.619662 139.745144 
L 915.763733 139.745144 
L 915.781363 402.323494 
L 916.749526 139.745144 
L 917.84543 139.745144 
L 917.84543 402.323494 
L 918.843206 139.745144 
L 920.276359 139.745144 
L 920.304601 402.323494 
L 921.264506 139.745144 
L 922.793512 139.745144 
L 922.813027 402.323494 
L 923.779887 139.745144 
L 925.895522 139.745144 
L 925.923753 402.323494 
L 926.880931 139.745144 
L 927.77275 139.745144 
L 927.776247 210.969521 
L 928.769144 139.745144 
L 929.191656 139.745144 
L 929.210556 402.323494 
L 930.178005 139.745144 
L 931.506179 139.745144 
L 931.516776 402.323494 
L 932.503403 139.745144 
L 933.110605 139.745144 
L 933.124711 402.323494 
L 934.099163 139.745144 
L 935.2165 139.745144 
L 935.2165 402.323494 
L 936.214302 139.745144 
L 937.617766 139.745144 
L 937.631878 402.323494 
L 938.614012 139.745144 
L 938.631688 139.745144 
L 938.635743 402.323494 
L 939.623446 139.745144 
L 940.06661 139.745144 
L 940.073651 402.323494 
L 940.472311 402.323494 
L 941.65783 402.323494 
L 942.534936 139.745144 
L 942.652357 376.3606 
L 942.667499 376.3606 
L 942.667499 139.745144 
L 943.667384 402.323494 
L 943.681516 402.323494 
L 944.015324 139.745144 
L 944.673444 402.323494 
L 945.070153 402.323494 
L 945.230437 139.745144 
L 946.045561 402.323494 
L 946.089693 402.323494 
L 946.107378 260.234471 
L 947.080027 317.269771 
L 947.097171 317.269771 
L 947.199502 139.745144 
L 947.595408 402.323494 
L 948.07609 402.323494 
L 950.02503 402.323494 
L 950.060319 139.745144 
L 951.020298 402.323494 
L 951.258221 402.323494 
L 951.284131 318.771719 
L 951.943781 402.323494 
L 953.618893 402.323494 
L 953.636553 139.745144 
L 954.607501 402.323494 
L 958.090923 402.323494 
L 958.108579 139.745144 
L 959.077711 139.745144 
L 960.277308 139.745144 
L 960.436248 402.323494 
L 961.262215 139.745144 
L 961.350527 139.745144 
L 961.375241 402.323494 
L 962.346057 390.694555 
L 962.36092 390.694555 
L 962.36092 402.323494 
L 962.675815 139.745144 
L 963.345775 139.745144 
L 963.698825 139.745144 
L 964.669985 402.323494 
L 964.698255 402.323494 
L 965.453232 402.323494 
L 965.470892 139.745144 
L 966.441433 139.745144 
L 967.006074 139.745144 
L 967.39436 402.323494 
L 968.005932 402.323494 
L 968.386952 402.323494 
L 968.593845 139.745144 
L 969.38347 277.03686 
L 969.400226 277.03686 
L 969.545009 139.745144 
L 970.017204 402.323494 
L 970.393717 402.323494 
L 970.86547 402.323494 
L 970.883114 139.745144 
L 971.863727 402.323494 
L 971.881388 402.323494 
L 971.899048 378.887654 
L 972.542453 402.323494 
L 973.05216 402.323494 
L 973.105126 139.745144 
L 974.042325 402.323494 
L 974.673884 402.323494 
L 974.74425 386.966337 
L 975.329713 402.323494 
L 977.317907 402.323494 
L 977.353217 139.745144 
L 978.306774 139.745144 
L 978.694099 139.745144 
L 978.708196 402.323494 
L 979.680454 343.243365 
L 979.698114 343.243365 
L 979.751094 402.323494 
L 980.341855 139.745144 
L 980.682839 402.323494 
L 982.253563 402.323494 
L 982.253563 139.745144 
L 983.239449 139.745144 
L 983.44042 139.745144 
L 983.443962 402.323494 
L 984.422804 139.745144 
L 985.591629 139.745144 
L 985.591629 402.323494 
L 986.591236 139.745144 
L 987.484533 139.745144 
L 987.498664 402.323494 
L 988.481469 139.745144 
L 989.509858 139.745144 
L 989.516894 402.323494 
L 990.500156 139.745144 
L 991.415478 139.745144 
L 991.436667 402.323494 
L 992.415298 139.745144 
L 993.344667 139.745144 
L 993.358686 402.323494 
L 994.342598 139.745144 
L 995.32303 139.745144 
L 995.32303 402.323494 
L 996.317431 139.745144 
L 997.243678 139.745144 
L 997.264743 402.323494 
L 998.233936 139.745144 
L 999.370296 139.745144 
L 999.370296 402.323494 
L 1000.360354 139.745144 
L 1000.721965 139.745144 
L 1001.481643 402.323494 
L 1001.714724 402.323494 
L 1002.369356 402.323494 
L 1002.387016 139.745144 
L 1003.365141 139.745144 
L 1003.768235 139.745144 
L 1003.792908 402.323494 
L 1004.767213 139.745144 
L 1004.938139 139.745144 
L 1005.055244 402.323494 
L 1005.936353 171.296558 
L 1005.953491 171.296558 
L 1005.953491 139.745144 
L 1006.154052 402.323494 
L 1006.95188 402.323494 
L 1007.041745 402.323494 
L 1007.059405 139.745144 
L 1008.036735 402.323494 
L 1008.478971 402.323494 
L 1008.478971 303.856613 
L 1009.2883 402.323494 
L 1010.799806 402.323494 
L 1010.817464 139.745144 
L 1011.699918 402.323494 
L 1012.65503 402.323494 
L 1012.690351 139.745144 
L 1013.639397 139.745144 
L 1013.67033 139.745144 
L 1013.677365 402.323494 
L 1014.668322 232.819979 
L 1014.683329 232.819979 
L 1015.076854 402.323494 
L 1014.866511 139.745144 
L 1015.676938 402.323494 
L 1016.066637 402.323494 
L 1016.119606 149.72706 
L 1016.932427 402.323494 
L 1024.668258 402.323494 
L 1024.668258 166.002979 
L 1026.047507 166.002979 
L 1026.047507 139.745144 
L 1026.224802 139.745144 
L 1029.049827 139.745144 
L 1029.049827 402.323494 
L 1030.037711 139.745144 
L 1031.381949 139.745144 
L 1031.381949 402.323494 
L 1040.794482 402.323494 
L 1040.794482 185.696355 
L 1042.173731 185.696355 
L 1042.173731 139.745144 
L 1042.351025 139.745144 
L 1045.17605 139.745144 
L 1045.17605 402.323494 
L 1046.164571 139.745144 
L 1047.508163 139.745144 
L 1047.508163 402.323494 
L 1056.920696 402.323494 
L 1056.920696 185.696355 
L 1058.299945 185.696355 
L 1058.299945 139.745144 
L 1058.477239 139.745144 
L 1063.634375 139.745144 
L 1063.634375 402.323494 
L 1073.046907 402.323494 
L 1073.046907 185.696355 
L 1074.426156 185.696355 
L 1074.426156 139.745144 
L 1074.603451 139.745144 
L 1077.428476 139.745144 
L 1077.428476 402.323494 
L 1078.416997 139.745144 
L 1079.760589 139.745144 
L 1079.760589 402.323494 
L 1089.173122 402.323494 
L 1089.173122 284.163236 
L 1090.729665 284.163236 
L 1090.729665 139.745144 
L 1091.645934 139.745144 
L 1093.554691 139.745144 
L 1093.554691 402.323494 
L 1094.543212 139.745144 
L 1095.886803 139.745144 
L 1095.886803 402.323494 
L 1106.855879 402.323494 
L 1106.855879 146.309603 
L 1107.772148 146.309603 
L 1109.395388 146.309603 
L 1109.680905 402.323494 
L 1110.309542 382.630118 
L 1110.399592 382.630118 
L 1110.399592 146.309603 
L 1111.298651 146.309603 
L 1112.013015 146.309603 
L 1112.013015 402.323494 
L 1131.365857 402.323494 
L 1131.365857 402.323494 
" clip-path="url(#p86a39d40c9)" style="fill: none; stroke: #000000; stroke-width: 0.8; stroke-linecap: square"/>
   </g>
  </g>
  <g id="axes_2">
   <g id="matplotlib.axis_3">
    <g id="xtick_8">
     <g id="line2d_26">
      <defs>
       <path id="mb7f75c982f" d="M 0 0 
L 0 -3.5 
" style="stroke: #000000; stroke-width: 0.8"/>
      </defs>
      <g>
       <use xlink:href="#mb7f75c982f" x="141.736122" y="83.290799" style="stroke: #000000; stroke-width: 0.8"/>
      </g>
     </g>
     <g id="text_16">
      <!-- N140 -->
      <g transform="translate(145.625209 75.583692) rotate(-45) scale(0.08 -0.08)">
       <defs>
        <path id="SimHei-4e" d="M 2850 125 
L 2225 125 
L 850 3225 
L 825 3225 
L 825 125 
L 250 125 
L 250 4400 
L 875 4400 
L 2250 1300 
L 2275 1300 
L 2275 4400 
L 2850 4400 
L 2850 125 
z
" transform="scale(0.015625)"/>
       </defs>
       <use xlink:href="#SimHei-4e"/>
       <use xlink:href="#SimHei-31" transform="translate(50 0)"/>
       <use xlink:href="#SimHei-34" transform="translate(100 0)"/>
       <use xlink:href="#SimHei-30" transform="translate(150 0)"/>
      </g>
     </g>
    </g>
    <g id="xtick_9">
     <g id="line2d_27">
      <g>
       <use xlink:href="#mb7f75c982f" x="240.216538" y="83.290799" style="stroke: #000000; stroke-width: 0.8"/>
      </g>
     </g>
     <g id="text_17">
      <!-- N1050 -->
      <g transform="translate(244.105625 75.583692) rotate(-45) scale(0.08 -0.08)">
       <use xlink:href="#SimHei-4e"/>
       <use xlink:href="#SimHei-31" transform="translate(50 0)"/>
       <use xlink:href="#SimHei-30" transform="translate(100 0)"/>
       <use xlink:href="#SimHei-35" transform="translate(150 0)"/>
       <use xlink:href="#SimHei-30" transform="translate(200 0)"/>
      </g>
     </g>
    </g>
    <g id="xtick_10">
     <g id="line2d_28">
      <g>
       <use xlink:href="#mb7f75c982f" x="304.615156" y="83.290799" style="stroke: #000000; stroke-width: 0.8"/>
      </g>
     </g>
     <g id="text_18">
      <!-- N7090.17 -->
      <g transform="translate(308.504243 75.583692) rotate(-45) scale(0.08 -0.08)">
       <defs>
        <path id="SimHei-37" d="M 850 150 
Q 1300 2050 2425 3925 
L 275 3925 
L 275 4375 
L 2950 4375 
L 2950 3950 
Q 1775 2050 1400 150 
L 850 150 
z
" transform="scale(0.015625)"/>
        <path id="SimHei-39" d="M 800 75 
Q 1350 1000 1700 1750 
Q 1075 1650 662 1912 
Q 250 2175 162 2625 
Q 75 3075 175 3437 
Q 275 3800 487 4037 
Q 700 4275 1000 4375 
Q 1300 4475 1537 4475 
Q 1775 4475 2025 4375 
Q 2275 4275 2475 4075 
Q 2675 3875 2750 3662 
Q 2825 3450 2825 3112 
Q 2825 2775 2575 2250 
Q 2325 1725 1350 75 
L 800 75 
z
M 662 2875 
Q 700 2550 937 2337 
Q 1175 2125 1450 2150 
Q 1725 2175 1887 2300 
Q 2050 2425 2200 2725 
Q 2300 3100 2250 3362 
Q 2200 3625 1987 3800 
Q 1775 3975 1525 3975 
Q 1375 4000 1137 3900 
Q 900 3800 762 3500 
Q 625 3200 662 2875 
z
" transform="scale(0.015625)"/>
        <path id="SimHei-2e" d="M 1075 125 
L 500 125 
L 500 675 
L 1075 675 
L 1075 125 
z
" transform="scale(0.015625)"/>
       </defs>
       <use xlink:href="#SimHei-4e"/>
       <use xlink:href="#SimHei-37" transform="translate(50 0)"/>
       <use xlink:href="#SimHei-30" transform="translate(100 0)"/>
       <use xlink:href="#SimHei-39" transform="translate(150 0)"/>
       <use xlink:href="#SimHei-30" transform="translate(200 0)"/>
       <use xlink:href="#SimHei-2e" transform="translate(250 0)"/>
       <use xlink:href="#SimHei-31" transform="translate(300 0)"/>
       <use xlink:href="#SimHei-37" transform="translate(350 0)"/>
      </g>
     </g>
    </g>
    <g id="xtick_11">
     <g id="line2d_29">
      <g>
       <use xlink:href="#mb7f75c982f" x="379.926727" y="83.290799" style="stroke: #000000; stroke-width: 0.8"/>
      </g>
     </g>
     <g id="text_19">
      <!-- N2250 -->
      <g transform="translate(383.815814 75.583692) rotate(-45) scale(0.08 -0.08)">
       <use xlink:href="#SimHei-4e"/>
       <use xlink:href="#SimHei-32" transform="translate(50 0)"/>
       <use xlink:href="#SimHei-32" transform="translate(100 0)"/>
       <use xlink:href="#SimHei-35" transform="translate(150 0)"/>
       <use xlink:href="#SimHei-30" transform="translate(200 0)"/>
      </g>
     </g>
    </g>
    <g id="xtick_12">
     <g id="line2d_30">
      <g>
       <use xlink:href="#mb7f75c982f" x="457.318216" y="83.290799" style="stroke: #000000; stroke-width: 0.8"/>
      </g>
     </g>
     <g id="text_20">
      <!-- N2940 -->
      <g transform="translate(461.207303 75.583692) rotate(-45) scale(0.08 -0.08)">
       <use xlink:href="#SimHei-4e"/>
       <use xlink:href="#SimHei-32" transform="translate(50 0)"/>
       <use xlink:href="#SimHei-39" transform="translate(100 0)"/>
       <use xlink:href="#SimHei-34" transform="translate(150 0)"/>
       <use xlink:href="#SimHei-30" transform="translate(200 0)"/>
      </g>
     </g>
    </g>
    <g id="xtick_13">
     <g id="line2d_31">
      <g>
       <use xlink:href="#mb7f75c982f" x="520.683594" y="83.290799" style="stroke: #000000; stroke-width: 0.8"/>
      </g>
     </g>
     <g id="text_21">
      <!-- N8760.10 -->
      <g transform="translate(524.572681 75.583692) rotate(-45) scale(0.08 -0.08)">
       <defs>
        <path id="SimHei-38" d="M 175 1375 
Q 175 1675 325 1962 
Q 475 2250 825 2425 
Q 525 2600 425 2812 
Q 325 3025 312 3300 
Q 300 3575 387 3775 
Q 475 3975 650 4150 
Q 825 4325 1037 4387 
Q 1250 4450 1500 4450 
Q 1750 4450 1950 4400 
Q 2150 4350 2375 4187 
Q 2600 4025 2700 3725 
Q 2800 3425 2687 3025 
Q 2575 2625 2100 2400 
Q 2525 2275 2700 2012 
Q 2875 1750 2875 1375 
Q 2875 1000 2762 775 
Q 2650 550 2512 400 
Q 2375 250 2137 162 
Q 1900 75 1537 75 
Q 1175 75 912 162 
Q 650 250 475 425 
Q 300 600 237 837 
Q 175 1075 175 1375 
z
M 687 1400 
Q 675 1100 787 875 
Q 900 650 1200 587 
Q 1500 525 1825 600 
Q 2150 675 2275 950 
Q 2400 1225 2362 1500 
Q 2325 1775 2050 1962 
Q 1775 2150 1450 2125 
Q 1125 2100 912 1900 
Q 700 1700 687 1400 
z
M 775 3350 
Q 775 3100 950 2875 
Q 1125 2650 1500 2650 
Q 1875 2650 2062 2875 
Q 2250 3100 2237 3412 
Q 2225 3725 2012 3875 
Q 1800 4025 1437 4000 
Q 1075 3975 925 3787 
Q 775 3600 775 3350 
z
" transform="scale(0.015625)"/>
        <path id="SimHei-36" d="M 250 1612 
Q 275 1975 387 2225 
Q 500 2475 725 2850 
L 1750 4450 
L 2325 4450 
L 1275 2800 
Q 1950 2975 2350 2750 
Q 2750 2525 2887 2237 
Q 3025 1950 3037 1612 
Q 3050 1275 2937 950 
Q 2825 625 2537 362 
Q 2250 100 1737 75 
Q 1225 50 862 262 
Q 500 475 362 862 
Q 225 1250 250 1612 
z
M 1025 787 
Q 1250 550 1625 525 
Q 2000 500 2250 775 
Q 2500 1050 2500 1575 
Q 2500 2100 2187 2300 
Q 1875 2500 1487 2450 
Q 1100 2400 925 2075 
Q 750 1750 775 1387 
Q 800 1025 1025 787 
z
" transform="scale(0.015625)"/>
       </defs>
       <use xlink:href="#SimHei-4e"/>
       <use xlink:href="#SimHei-38" transform="translate(50 0)"/>
       <use xlink:href="#SimHei-37" transform="translate(100 0)"/>
       <use xlink:href="#SimHei-36" transform="translate(150 0)"/>
       <use xlink:href="#SimHei-30" transform="translate(200 0)"/>
       <use xlink:href="#SimHei-2e" transform="translate(250 0)"/>
       <use xlink:href="#SimHei-31" transform="translate(300 0)"/>
       <use xlink:href="#SimHei-30" transform="translate(350 0)"/>
      </g>
     </g>
    </g>
    <g id="xtick_14">
     <g id="line2d_32">
      <g>
       <use xlink:href="#mb7f75c982f" x="597.302518" y="83.290799" style="stroke: #000000; stroke-width: 0.8"/>
      </g>
     </g>
     <g id="text_22">
      <!-- N3940.2 -->
      <g transform="translate(601.191605 75.583692) rotate(-45) scale(0.08 -0.08)">
       <use xlink:href="#SimHei-4e"/>
       <use xlink:href="#SimHei-33" transform="translate(50 0)"/>
       <use xlink:href="#SimHei-39" transform="translate(100 0)"/>
       <use xlink:href="#SimHei-34" transform="translate(150 0)"/>
       <use xlink:href="#SimHei-30" transform="translate(200 0)"/>
       <use xlink:href="#SimHei-2e" transform="translate(250 0)"/>
       <use xlink:href="#SimHei-32" transform="translate(300 0)"/>
      </g>
     </g>
    </g>
    <g id="xtick_15">
     <g id="line2d_33">
      <g>
       <use xlink:href="#mb7f75c982f" x="671.30334" y="83.290799" style="stroke: #000000; stroke-width: 0.8"/>
      </g>
     </g>
     <g id="text_23">
      <!-- N2400.17 -->
      <g transform="translate(675.192427 75.583692) rotate(-45) scale(0.08 -0.08)">
       <use xlink:href="#SimHei-4e"/>
       <use xlink:href="#SimHei-32" transform="translate(50 0)"/>
       <use xlink:href="#SimHei-34" transform="translate(100 0)"/>
       <use xlink:href="#SimHei-30" transform="translate(150 0)"/>
       <use xlink:href="#SimHei-30" transform="translate(200 0)"/>
       <use xlink:href="#SimHei-2e" transform="translate(250 0)"/>
       <use xlink:href="#SimHei-31" transform="translate(300 0)"/>
       <use xlink:href="#SimHei-37" transform="translate(350 0)"/>
      </g>
     </g>
    </g>
    <g id="xtick_16">
     <g id="line2d_34">
      <g>
       <use xlink:href="#mb7f75c982f" x="733.266673" y="83.290799" style="stroke: #000000; stroke-width: 0.8"/>
      </g>
     </g>
     <g id="text_24">
      <!-- N6770 -->
      <g transform="translate(737.15576 75.583692) rotate(-45) scale(0.08 -0.08)">
       <use xlink:href="#SimHei-4e"/>
       <use xlink:href="#SimHei-36" transform="translate(50 0)"/>
       <use xlink:href="#SimHei-37" transform="translate(100 0)"/>
       <use xlink:href="#SimHei-37" transform="translate(150 0)"/>
       <use xlink:href="#SimHei-30" transform="translate(200 0)"/>
      </g>
     </g>
    </g>
    <g id="xtick_17">
     <g id="line2d_35">
      <g>
       <use xlink:href="#mb7f75c982f" x="811.352466" y="83.290799" style="stroke: #000000; stroke-width: 0.8"/>
      </g>
     </g>
     <g id="text_25">
      <!-- N3310 -->
      <g transform="translate(815.241554 75.583692) rotate(-45) scale(0.08 -0.08)">
       <use xlink:href="#SimHei-4e"/>
       <use xlink:href="#SimHei-33" transform="translate(50 0)"/>
       <use xlink:href="#SimHei-33" transform="translate(100 0)"/>
       <use xlink:href="#SimHei-31" transform="translate(150 0)"/>
       <use xlink:href="#SimHei-30" transform="translate(200 0)"/>
      </g>
     </g>
    </g>
    <g id="xtick_18">
     <g id="line2d_36">
      <g>
       <use xlink:href="#mb7f75c982f" x="890.817536" y="83.290799" style="stroke: #000000; stroke-width: 0.8"/>
      </g>
     </g>
     <g id="text_26">
      <!-- N2720 -->
      <g transform="translate(894.706624 75.583692) rotate(-45) scale(0.08 -0.08)">
       <use xlink:href="#SimHei-4e"/>
       <use xlink:href="#SimHei-32" transform="translate(50 0)"/>
       <use xlink:href="#SimHei-37" transform="translate(100 0)"/>
       <use xlink:href="#SimHei-32" transform="translate(150 0)"/>
       <use xlink:href="#SimHei-30" transform="translate(200 0)"/>
      </g>
     </g>
    </g>
    <g id="xtick_19">
     <g id="line2d_37">
      <g>
       <use xlink:href="#mb7f75c982f" x="949.966383" y="83.290799" style="stroke: #000000; stroke-width: 0.8"/>
      </g>
     </g>
     <g id="text_27">
      <!-- N6820 -->
      <g transform="translate(953.85547 75.583692) rotate(-45) scale(0.08 -0.08)">
       <use xlink:href="#SimHei-4e"/>
       <use xlink:href="#SimHei-36" transform="translate(50 0)"/>
       <use xlink:href="#SimHei-38" transform="translate(100 0)"/>
       <use xlink:href="#SimHei-32" transform="translate(150 0)"/>
       <use xlink:href="#SimHei-30" transform="translate(200 0)"/>
      </g>
     </g>
    </g>
    <g id="xtick_20">
     <g id="line2d_38">
      <g>
       <use xlink:href="#mb7f75c982f" x="1127.065151" y="83.290799" style="stroke: #000000; stroke-width: 0.8"/>
      </g>
     </g>
     <g id="text_28">
      <!-- N0 -->
      <g transform="translate(1130.954238 75.583692) rotate(-45) scale(0.08 -0.08)">
       <use xlink:href="#SimHei-4e"/>
       <use xlink:href="#SimHei-30" transform="translate(50 0)"/>
      </g>
     </g>
    </g>
    <g id="text_29">
     <!-- 指令行号 N -->
     <g transform="translate(665.980625 45.067187) scale(0.1 -0.1)">
      <defs>
       <path id="SimHei-6307" d="M 5625 2225 
Q 5600 1925 5600 1350 
L 5600 300 
Q 5600 -225 5625 -525 
L 5125 -525 
L 5125 -125 
L 3300 -125 
L 3300 -625 
L 2800 -625 
Q 2825 -300 2825 300 
L 2825 1350 
Q 2825 1925 2800 2225 
L 5625 2225 
z
M 500 25 
Q 1075 -25 1175 37 
Q 1275 100 1275 275 
L 1275 1675 
Q 1050 1600 925 1537 
Q 800 1475 475 1275 
Q 400 1525 225 1800 
Q 625 1900 825 1975 
Q 1025 2050 1275 2125 
L 1275 3300 
L 1100 3300 
Q 775 3300 450 3275 
L 450 3725 
Q 750 3700 1100 3700 
L 1275 3700 
L 1275 4450 
Q 1275 4800 1250 5125 
L 1775 5125 
Q 1750 4850 1750 4450 
L 1750 3700 
Q 2075 3700 2425 3725 
L 2425 3275 
Q 2050 3300 1750 3300 
L 1750 2325 
Q 1850 2350 2025 2425 
L 2375 2575 
Q 2350 2300 2375 2100 
Q 2225 2050 2062 1987 
Q 1900 1925 1750 1850 
L 1750 100 
Q 1725 -200 1575 -337 
Q 1425 -475 675 -525 
Q 625 -250 500 25 
z
M 3325 5025 
Q 3300 4675 3300 4125 
Q 4125 4275 4512 4412 
Q 4900 4550 5225 4725 
Q 5325 4475 5575 4250 
Q 5450 4225 5237 4175 
Q 5025 4125 4725 4050 
Q 4425 3975 4037 3887 
Q 3650 3800 3300 3725 
L 3300 3175 
Q 3275 2925 3700 2925 
L 4925 2925 
Q 5300 2925 5387 3087 
Q 5475 3250 5550 3600 
Q 5750 3400 6050 3300 
Q 5825 2725 5700 2637 
Q 5575 2550 5275 2525 
L 3350 2525 
Q 3050 2525 2937 2687 
Q 2825 2850 2825 2975 
L 2825 4125 
Q 2825 4775 2800 5025 
L 3325 5025 
z
M 5125 275 
L 5125 875 
L 3300 875 
L 3300 275 
L 5125 275 
z
M 5125 1250 
L 5125 1825 
L 3300 1825 
L 3300 1250 
L 5125 1250 
z
" transform="scale(0.015625)"/>
       <path id="SimHei-4ee4" d="M 5375 2075 
L 5375 1550 
Q 4925 1325 4450 937 
Q 3975 550 3575 125 
L 4250 -325 
Q 4050 -550 3875 -775 
Q 3100 -125 1850 425 
L 2150 875 
Q 2400 775 3125 350 
Q 3800 1025 4450 1625 
L 2025 1625 
Q 1500 1625 975 1600 
L 975 2100 
Q 1525 2075 2025 2075 
L 5375 2075 
z
M 3375 4850 
Q 4450 3550 6200 2900 
Q 5950 2625 5800 2350 
Q 4150 3150 3100 4475 
Q 2075 3125 625 2225 
Q 400 2525 200 2700 
Q 875 2975 1675 3675 
Q 2475 4375 2950 5300 
Q 3275 5175 3550 5050 
Q 3475 5000 3375 4850 
z
M 2925 3600 
Q 3175 3350 3750 2725 
L 3300 2325 
Q 3050 2700 2550 3225 
Q 2750 3375 2925 3600 
z
" transform="scale(0.015625)"/>
       <path id="SimHei-53f7" d="M 5025 4925 
Q 5000 4550 5000 4075 
Q 5000 3600 5025 3175 
L 1400 3175 
Q 1425 3525 1425 4000 
Q 1425 4500 1400 4925 
L 5025 4925 
z
M 5175 2625 
Q 5650 2625 6025 2650 
L 6025 2200 
Q 5650 2225 5175 2225 
L 2450 2225 
Q 2350 1875 2225 1450 
L 5175 1450 
Q 5100 1050 5062 775 
Q 5025 500 4950 112 
Q 4875 -275 4650 -412 
Q 4425 -550 3225 -625 
Q 3125 -350 2975 -50 
Q 3875 -75 4112 -50 
Q 4350 -25 4425 212 
Q 4500 450 4575 1025 
L 1600 1025 
Q 1825 1625 1950 2225 
L 1350 2225 
Q 825 2225 375 2200 
L 375 2650 
Q 825 2625 1350 2625 
L 5175 2625 
z
M 4525 3575 
L 4525 4525 
L 1900 4525 
L 1900 3575 
L 4525 3575 
z
" transform="scale(0.015625)"/>
      </defs>
      <use xlink:href="#SimHei-6307"/>
      <use xlink:href="#SimHei-4ee4" transform="translate(100 0)"/>
      <use xlink:href="#SimHei-884c" transform="translate(200 0)"/>
      <use xlink:href="#SimHei-53f7" transform="translate(300 0)"/>
      <use xlink:href="#SimHei-20" transform="translate(400 0)"/>
      <use xlink:href="#SimHei-4e" transform="translate(450 0)"/>
     </g>
    </g>
   </g>
   <g id="patch_7">
    <path d="M 37.825 429.894221 
L 37.825 83.290799 
" style="fill: none; stroke: #000000; stroke-width: 0.8; stroke-linejoin: miter; stroke-linecap: square"/>
   </g>
   <g id="patch_8">
    <path d="M 1344.13625 429.894221 
L 1344.13625 83.290799 
" style="fill: none; stroke: #000000; stroke-width: 0.8; stroke-linejoin: miter; stroke-linecap: square"/>
   </g>
   <g id="patch_9">
    <path d="M 37.825 429.894221 
L 1344.13625 429.894221 
" style="fill: none; stroke: #000000; stroke-width: 0.8; stroke-linejoin: miter; stroke-linecap: square"/>
   </g>
   <g id="patch_10">
    <path d="M 37.825 83.290799 
L 1344.13625 83.290799 
" style="fill: none; stroke: #000000; stroke-width: 0.8; stroke-linejoin: miter; stroke-linecap: square"/>
   </g>
  </g>
 </g>
 <defs>
  <clipPath id="p86a39d40c9">
   <rect x="37.825" y="83.290799" width="1306.31125" height="346.603422"/>
  </clipPath>
 </defs>
</svg>
