<?xml version="1.0" encoding="utf-8" standalone="no"?>
<!DOCTYPE svg PUBLIC "-//W3C//DTD SVG 1.1//EN"
  "http://www.w3.org/Graphics/SVG/1.1/DTD/svg11.dtd">
<svg xmlns:xlink="http://www.w3.org/1999/xlink" width="1351.843125pt" height="471.586408pt" viewBox="0 0 1351.843125 471.586408" xmlns="http://www.w3.org/2000/svg" version="1.1">
 <metadata>
  <rdf:RDF xmlns:dc="http://purl.org/dc/elements/1.1/" xmlns:cc="http://creativecommons.org/ns#" xmlns:rdf="http://www.w3.org/1999/02/22-rdf-syntax-ns#">
   <cc:Work>
    <dc:type rdf:resource="http://purl.org/dc/dcmitype/StillImage"/>
    <dc:date>2025-12-27T09:58:53.293441</dc:date>
    <dc:format>image/svg+xml</dc:format>
    <dc:creator>
     <cc:Agent>
      <dc:title>Matplotlib v3.10.7, https://matplotlib.org/</dc:title>
     </cc:Agent>
    </dc:creator>
   </cc:Work>
  </rdf:RDF>
 </metadata>
 <defs>
  <style type="text/css">*{stroke-linejoin: round; stroke-linecap: butt}</style>
 </defs>
 <g id="figure_1">
  <g id="patch_1">
   <path d="M 0 471.586408 
L 1351.843125 471.586408 
L 1351.843125 0 
L 0 0 
z
" style="fill: #ffffff"/>
  </g>
  <g id="axes_1">
   <g id="patch_2">
    <path d="M 44.215625 429.753596 
L 1344.643125 429.753596 
L 1344.643125 83.150174 
L 44.215625 83.150174 
z
" style="fill: #ffffff"/>
   </g>
   <g id="matplotlib.axis_1">
    <g id="xtick_1">
     <g id="line2d_1">
      <path d="M 131.97041 429.753596 
L 131.97041 83.150174 
" clip-path="url(#p9d8460f15c)" style="fill: none; stroke-dasharray: 1.85,0.8; stroke-dashoffset: 0; stroke: #b0b0b0; stroke-opacity: 0.3; stroke-width: 0.5"/>
     </g>
     <g id="line2d_2">
      <defs>
       <path id="mbd10eac444" d="M 0 0 
L 0 3.5 
" style="stroke: #333333; stroke-width: 0.8"/>
      </defs>
      <g>
       <use xlink:href="#mbd10eac444" x="131.97041" y="429.753596" style="fill: #333333; stroke: #333333; stroke-width: 0.8"/>
      </g>
     </g>
     <g id="text_1">
      <!-- 0 -->
      <g style="fill: #333333" transform="translate(128.72041 445.691096) scale(0.13 -0.13)">
       <defs>
        <path id="SimHei-30" d="M 225 2537 
Q 250 3200 412 3587 
Q 575 3975 875 4225 
Q 1175 4475 1612 4475 
Q 2050 4475 2375 4112 
Q 2700 3750 2800 3200 
Q 2900 2650 2862 1937 
Q 2825 1225 2612 775 
Q 2400 325 1975 150 
Q 1550 -25 1125 187 
Q 700 400 525 750 
Q 350 1100 275 1487 
Q 200 1875 225 2537 
z
M 750 2687 
Q 675 2000 800 1462 
Q 925 925 1212 700 
Q 1500 475 1800 612 
Q 2100 750 2237 1162 
Q 2375 1575 2375 2062 
Q 2375 2550 2337 2950 
Q 2300 3350 2112 3675 
Q 1925 4000 1612 4012 
Q 1300 4025 1062 3700 
Q 825 3375 750 2687 
z
" transform="scale(0.015625)"/>
       </defs>
       <use xlink:href="#SimHei-30"/>
      </g>
     </g>
    </g>
    <g id="xtick_2">
     <g id="line2d_3">
      <path d="M 307.775375 429.753596 
L 307.775375 83.150174 
" clip-path="url(#p9d8460f15c)" style="fill: none; stroke-dasharray: 1.85,0.8; stroke-dashoffset: 0; stroke: #b0b0b0; stroke-opacity: 0.3; stroke-width: 0.5"/>
     </g>
     <g id="line2d_4">
      <g>
       <use xlink:href="#mbd10eac444" x="307.775375" y="429.753596" style="fill: #333333; stroke: #333333; stroke-width: 0.8"/>
      </g>
     </g>
     <g id="text_2">
      <!-- 5000 -->
      <g style="fill: #333333" transform="translate(294.775375 445.691096) scale(0.13 -0.13)">
       <defs>
        <path id="SimHei-35" d="M 550 1325 
Q 725 650 1150 575 
Q 1575 500 1837 662 
Q 2100 825 2212 1087 
Q 2325 1350 2312 1675 
Q 2300 2000 2137 2225 
Q 1975 2450 1725 2525 
Q 1475 2600 1162 2525 
Q 850 2450 650 2175 
L 225 2225 
Q 275 2375 700 4375 
L 2675 4375 
L 2675 3925 
L 1075 3925 
Q 950 3250 825 2850 
Q 1200 3025 1525 3012 
Q 1850 3000 2150 2862 
Q 2450 2725 2587 2487 
Q 2725 2250 2787 2012 
Q 2850 1775 2837 1500 
Q 2825 1225 2725 937 
Q 2625 650 2425 462 
Q 2225 275 1937 162 
Q 1650 50 1275 75 
Q 900 100 562 350 
Q 225 600 100 1200 
L 550 1325 
z
" transform="scale(0.015625)"/>
       </defs>
       <use xlink:href="#SimHei-35"/>
       <use xlink:href="#SimHei-30" transform="translate(50 0)"/>
       <use xlink:href="#SimHei-30" transform="translate(100 0)"/>
       <use xlink:href="#SimHei-30" transform="translate(150 0)"/>
      </g>
     </g>
    </g>
    <g id="xtick_3">
     <g id="line2d_5">
      <path d="M 483.58034 429.753596 
L 483.58034 83.150174 
" clip-path="url(#p9d8460f15c)" style="fill: none; stroke-dasharray: 1.85,0.8; stroke-dashoffset: 0; stroke: #b0b0b0; stroke-opacity: 0.3; stroke-width: 0.5"/>
     </g>
     <g id="line2d_6">
      <g>
       <use xlink:href="#mbd10eac444" x="483.58034" y="429.753596" style="fill: #333333; stroke: #333333; stroke-width: 0.8"/>
      </g>
     </g>
     <g id="text_3">
      <!-- 10000 -->
      <g style="fill: #333333" transform="translate(467.33034 445.691096) scale(0.13 -0.13)">
       <defs>
        <path id="SimHei-31" d="M 1400 3600 
Q 1075 3275 575 2975 
L 575 3450 
Q 1200 3875 1600 4450 
L 1900 4450 
L 1900 150 
L 1400 150 
L 1400 3600 
z
" transform="scale(0.015625)"/>
       </defs>
       <use xlink:href="#SimHei-31"/>
       <use xlink:href="#SimHei-30" transform="translate(50 0)"/>
       <use xlink:href="#SimHei-30" transform="translate(100 0)"/>
       <use xlink:href="#SimHei-30" transform="translate(150 0)"/>
       <use xlink:href="#SimHei-30" transform="translate(200 0)"/>
      </g>
     </g>
    </g>
    <g id="xtick_4">
     <g id="line2d_7">
      <path d="M 659.385305 429.753596 
L 659.385305 83.150174 
" clip-path="url(#p9d8460f15c)" style="fill: none; stroke-dasharray: 1.85,0.8; stroke-dashoffset: 0; stroke: #b0b0b0; stroke-opacity: 0.3; stroke-width: 0.5"/>
     </g>
     <g id="line2d_8">
      <g>
       <use xlink:href="#mbd10eac444" x="659.385305" y="429.753596" style="fill: #333333; stroke: #333333; stroke-width: 0.8"/>
      </g>
     </g>
     <g id="text_4">
      <!-- 15000 -->
      <g style="fill: #333333" transform="translate(643.135305 445.691096) scale(0.13 -0.13)">
       <use xlink:href="#SimHei-31"/>
       <use xlink:href="#SimHei-35" transform="translate(50 0)"/>
       <use xlink:href="#SimHei-30" transform="translate(100 0)"/>
       <use xlink:href="#SimHei-30" transform="translate(150 0)"/>
       <use xlink:href="#SimHei-30" transform="translate(200 0)"/>
      </g>
     </g>
    </g>
    <g id="xtick_5">
     <g id="line2d_9">
      <path d="M 835.190271 429.753596 
L 835.190271 83.150174 
" clip-path="url(#p9d8460f15c)" style="fill: none; stroke-dasharray: 1.85,0.8; stroke-dashoffset: 0; stroke: #b0b0b0; stroke-opacity: 0.3; stroke-width: 0.5"/>
     </g>
     <g id="line2d_10">
      <g>
       <use xlink:href="#mbd10eac444" x="835.190271" y="429.753596" style="fill: #333333; stroke: #333333; stroke-width: 0.8"/>
      </g>
     </g>
     <g id="text_5">
      <!-- 20000 -->
      <g style="fill: #333333" transform="translate(818.940271 445.691096) scale(0.13 -0.13)">
       <defs>
        <path id="SimHei-32" d="M 300 250 
Q 325 625 650 925 
Q 975 1225 1475 1862 
Q 1975 2500 2125 2850 
Q 2275 3200 2237 3450 
Q 2200 3700 2000 3862 
Q 1800 4025 1537 4000 
Q 1275 3975 1037 3800 
Q 800 3625 675 3275 
L 200 3350 
Q 400 3925 712 4187 
Q 1025 4450 1450 4475 
Q 1700 4500 1900 4462 
Q 2100 4425 2312 4287 
Q 2525 4150 2662 3875 
Q 2800 3600 2762 3212 
Q 2725 2825 2375 2287 
Q 2025 1750 1025 600 
L 2825 600 
L 2825 150 
L 300 150 
L 300 250 
z
" transform="scale(0.015625)"/>
       </defs>
       <use xlink:href="#SimHei-32"/>
       <use xlink:href="#SimHei-30" transform="translate(50 0)"/>
       <use xlink:href="#SimHei-30" transform="translate(100 0)"/>
       <use xlink:href="#SimHei-30" transform="translate(150 0)"/>
       <use xlink:href="#SimHei-30" transform="translate(200 0)"/>
      </g>
     </g>
    </g>
    <g id="xtick_6">
     <g id="line2d_11">
      <path d="M 1010.995236 429.753596 
L 1010.995236 83.150174 
" clip-path="url(#p9d8460f15c)" style="fill: none; stroke-dasharray: 1.85,0.8; stroke-dashoffset: 0; stroke: #b0b0b0; stroke-opacity: 0.3; stroke-width: 0.5"/>
     </g>
     <g id="line2d_12">
      <g>
       <use xlink:href="#mbd10eac444" x="1010.995236" y="429.753596" style="fill: #333333; stroke: #333333; stroke-width: 0.8"/>
      </g>
     </g>
     <g id="text_6">
      <!-- 25000 -->
      <g style="fill: #333333" transform="translate(994.745236 445.691096) scale(0.13 -0.13)">
       <use xlink:href="#SimHei-32"/>
       <use xlink:href="#SimHei-35" transform="translate(50 0)"/>
       <use xlink:href="#SimHei-30" transform="translate(100 0)"/>
       <use xlink:href="#SimHei-30" transform="translate(150 0)"/>
       <use xlink:href="#SimHei-30" transform="translate(200 0)"/>
      </g>
     </g>
    </g>
    <g id="xtick_7">
     <g id="line2d_13">
      <path d="M 1186.800201 429.753596 
L 1186.800201 83.150174 
" clip-path="url(#p9d8460f15c)" style="fill: none; stroke-dasharray: 1.85,0.8; stroke-dashoffset: 0; stroke: #b0b0b0; stroke-opacity: 0.3; stroke-width: 0.5"/>
     </g>
     <g id="line2d_14">
      <g>
       <use xlink:href="#mbd10eac444" x="1186.800201" y="429.753596" style="fill: #333333; stroke: #333333; stroke-width: 0.8"/>
      </g>
     </g>
     <g id="text_7">
      <!-- 30000 -->
      <g style="fill: #333333" transform="translate(1170.550201 445.691096) scale(0.13 -0.13)">
       <defs>
        <path id="SimHei-33" d="M 250 1225 
L 700 1300 
Q 800 975 1025 762 
Q 1250 550 1587 562 
Q 1925 575 2125 837 
Q 2325 1100 2300 1437 
Q 2275 1775 2037 1962 
Q 1800 2150 1275 2225 
L 1275 2550 
Q 1800 2600 2037 2825 
Q 2275 3050 2250 3412 
Q 2225 3775 1925 3937 
Q 1625 4100 1287 3975 
Q 950 3850 750 3275 
L 300 3350 
Q 450 3800 712 4100 
Q 975 4400 1425 4450 
Q 1875 4500 2212 4337 
Q 2550 4175 2687 3837 
Q 2825 3500 2725 3100 
Q 2625 2700 2150 2400 
Q 2500 2250 2687 1950 
Q 2875 1650 2812 1162 
Q 2750 675 2375 375 
Q 2000 75 1525 87 
Q 1050 100 700 387 
Q 350 675 250 1225 
z
" transform="scale(0.015625)"/>
       </defs>
       <use xlink:href="#SimHei-33"/>
       <use xlink:href="#SimHei-30" transform="translate(50 0)"/>
       <use xlink:href="#SimHei-30" transform="translate(100 0)"/>
       <use xlink:href="#SimHei-30" transform="translate(150 0)"/>
       <use xlink:href="#SimHei-30" transform="translate(200 0)"/>
      </g>
     </g>
    </g>
    <g id="text_8">
     <!-- 行程 s (mm) -->
     <g style="fill: #333333" transform="translate(655.929375 462.636408) scale(0.14 -0.14)">
      <defs>
       <path id="SimHei-884c" d="M 5300 3100 
Q 5775 3100 6175 3125 
L 6175 2625 
Q 5775 2650 5325 2650 
L 4975 2650 
L 4975 -75 
Q 5000 -375 4787 -487 
Q 4575 -600 3950 -675 
Q 3900 -375 3675 -75 
Q 4100 -125 4275 -112 
Q 4450 -100 4475 150 
L 4475 2650 
L 3475 2650 
Q 3000 2650 2575 2625 
L 2575 3125 
Q 3025 3100 3475 3100 
L 5300 3100 
z
M 2300 3400 
Q 2075 3275 1962 3075 
Q 1850 2875 1650 2575 
L 1650 325 
Q 1650 0 1675 -675 
L 1150 -675 
Q 1175 75 1175 450 
L 1175 2050 
Q 950 1675 575 1300 
Q 400 1550 250 1725 
Q 825 2275 1150 2775 
Q 1475 3275 1725 3725 
Q 1975 3575 2300 3400 
z
M 4875 4800 
Q 5300 4800 5750 4825 
L 5750 4350 
Q 5300 4375 4825 4375 
L 3900 4375 
Q 3350 4375 2950 4350 
L 2950 4825 
Q 3350 4800 3900 4800 
L 4875 4800 
z
M 2075 4925 
Q 1875 4900 1550 4387 
Q 1225 3875 650 3250 
Q 500 3450 325 3625 
Q 725 4025 1050 4487 
Q 1375 4950 1525 5300 
Q 1775 5150 2075 4925 
z
" transform="scale(0.015625)"/>
       <path id="SimHei-7a0b" d="M 5825 4975 
Q 5800 4425 5800 3975 
Q 5800 3550 5825 3125 
L 3025 3125 
Q 3050 3600 3050 4025 
Q 3050 4450 3025 4975 
L 5825 4975 
z
M 400 4825 
Q 825 4875 1362 4987 
Q 1900 5100 2275 5275 
Q 2450 4950 2625 4725 
Q 2450 4750 2262 4712 
Q 2075 4675 1850 4650 
L 1850 3425 
Q 2200 3425 2600 3450 
L 2600 2975 
Q 2200 3000 1850 3000 
L 1850 800 
Q 1850 250 1875 -675 
L 1375 -675 
Q 1400 250 1400 775 
L 1400 1925 
Q 1050 1225 625 600 
Q 450 850 225 1050 
Q 575 1400 850 1850 
Q 1125 2300 1350 3000 
Q 725 3000 425 2975 
L 425 3450 
Q 850 3425 1050 3425 
L 1400 3425 
L 1400 4550 
Q 1075 4475 575 4400 
Q 500 4625 400 4825 
z
M 5100 2500 
Q 5500 2500 5950 2525 
L 5950 2075 
Q 5500 2100 5100 2100 
L 4625 2100 
L 4625 1300 
L 4900 1300 
Q 5275 1300 5775 1325 
L 5775 850 
Q 5275 875 4975 875 
L 4625 875 
L 4625 0 
L 5225 0 
Q 5675 0 6175 25 
L 6175 -450 
Q 5775 -425 5225 -425 
L 3550 -425 
Q 3000 -425 2600 -475 
L 2600 25 
Q 3000 0 3550 0 
L 4150 0 
L 4150 875 
L 3800 875 
Q 3400 875 3050 825 
L 3050 1325 
Q 3400 1300 3800 1300 
L 4150 1300 
L 4150 2100 
L 3750 2100 
Q 3300 2100 2900 2075 
L 2900 2525 
Q 3300 2500 3750 2500 
L 5100 2500 
z
M 5275 3575 
L 5275 4550 
L 3500 4550 
L 3500 3575 
L 5275 3575 
z
M 2300 2400 
Q 2550 2025 2825 1525 
Q 2675 1425 2425 1225 
Q 2175 1775 1925 2125 
Q 2075 2250 2300 2400 
z
" transform="scale(0.015625)"/>
       <path id="SimHei-20" transform="scale(0.015625)"/>
       <path id="SimHei-73" d="M 2750 900 
Q 2750 500 2437 287 
Q 2125 75 1650 75 
Q 1050 75 725 312 
Q 400 550 400 1000 
L 900 1000 
Q 900 700 1112 600 
Q 1325 500 1625 500 
Q 1925 500 2075 612 
Q 2225 725 2225 900 
Q 2225 1025 2100 1150 
Q 1975 1275 1475 1350 
Q 900 1425 687 1637 
Q 475 1850 475 2200 
Q 475 2500 762 2737 
Q 1050 2975 1600 2975 
Q 2100 2975 2387 2750 
Q 2675 2525 2675 2150 
L 2175 2150 
Q 2175 2375 2012 2462 
Q 1850 2550 1600 2550 
Q 1275 2550 1137 2437 
Q 1000 2325 1000 2175 
Q 1000 2000 1125 1900 
Q 1250 1800 1650 1750 
Q 2300 1650 2525 1437 
Q 2750 1225 2750 900 
z
" transform="scale(0.015625)"/>
       <path id="SimHei-28" d="M 2975 -200 
L 2700 -475 
Q 2075 125 1762 775 
Q 1450 1425 1450 2250 
Q 1450 3075 1762 3725 
Q 2075 4375 2700 5000 
L 2975 4725 
Q 2400 4175 2112 3587 
Q 1825 3000 1825 2250 
Q 1825 1500 2112 912 
Q 2400 325 2975 -200 
z
" transform="scale(0.015625)"/>
       <path id="SimHei-6d" d="M 3050 125 
L 2550 125 
L 2550 2150 
Q 2550 2300 2500 2400 
Q 2450 2500 2300 2500 
Q 2125 2500 1975 2312 
Q 1825 2125 1825 1825 
L 1825 125 
L 1325 125 
L 1325 2150 
Q 1325 2300 1275 2400 
Q 1225 2500 1075 2500 
Q 900 2500 750 2312 
Q 600 2125 600 1825 
L 600 125 
L 100 125 
L 100 2925 
L 600 2925 
L 600 2550 
Q 725 2750 900 2862 
Q 1075 2975 1275 2975 
Q 1475 2975 1612 2862 
Q 1750 2750 1800 2550 
Q 1925 2750 2087 2862 
Q 2250 2975 2450 2975 
Q 2750 2975 2900 2812 
Q 3050 2650 3050 2350 
L 3050 125 
z
" transform="scale(0.015625)"/>
       <path id="SimHei-29" d="M 1675 2250 
Q 1675 1425 1362 775 
Q 1050 125 425 -475 
L 150 -200 
Q 725 325 1012 912 
Q 1300 1500 1300 2250 
Q 1300 3000 1012 3587 
Q 725 4175 150 4725 
L 425 5000 
Q 1050 4375 1362 3725 
Q 1675 3075 1675 2250 
z
" transform="scale(0.015625)"/>
      </defs>
      <use xlink:href="#SimHei-884c"/>
      <use xlink:href="#SimHei-7a0b" transform="translate(100 0)"/>
      <use xlink:href="#SimHei-20" transform="translate(200 0)"/>
      <use xlink:href="#SimHei-73" transform="translate(250 0)"/>
      <use xlink:href="#SimHei-20" transform="translate(300 0)"/>
      <use xlink:href="#SimHei-28" transform="translate(350 0)"/>
      <use xlink:href="#SimHei-6d" transform="translate(400 0)"/>
      <use xlink:href="#SimHei-6d" transform="translate(450 0)"/>
      <use xlink:href="#SimHei-29" transform="translate(500 0)"/>
     </g>
    </g>
   </g>
   <g id="matplotlib.axis_2">
    <g id="ytick_1">
     <g id="line2d_15">
      <path d="M 44.215625 402.182869 
L 1344.643125 402.182869 
" clip-path="url(#p9d8460f15c)" style="fill: none; stroke-dasharray: 1.85,0.8; stroke-dashoffset: 0; stroke: #b0b0b0; stroke-opacity: 0.3; stroke-width: 0.5"/>
     </g>
     <g id="line2d_16">
      <defs>
       <path id="m23f4b2abfe" d="M 0 0 
L -3.5 0 
" style="stroke: #333333; stroke-width: 0.8"/>
      </defs>
      <g>
       <use xlink:href="#m23f4b2abfe" x="44.215625" y="402.182869" style="fill: #333333; stroke: #333333; stroke-width: 0.8"/>
      </g>
     </g>
     <g id="text_9">
      <!-- 0 -->
      <g style="fill: #333333" transform="translate(30.715625 406.651619) scale(0.13 -0.13)">
       <use xlink:href="#SimHei-30"/>
      </g>
     </g>
    </g>
    <g id="ytick_2">
     <g id="line2d_17">
      <path d="M 44.215625 343.832124 
L 1344.643125 343.832124 
" clip-path="url(#p9d8460f15c)" style="fill: none; stroke-dasharray: 1.85,0.8; stroke-dashoffset: 0; stroke: #b0b0b0; stroke-opacity: 0.3; stroke-width: 0.5"/>
     </g>
     <g id="line2d_18">
      <g>
       <use xlink:href="#m23f4b2abfe" x="44.215625" y="343.832124" style="fill: #333333; stroke: #333333; stroke-width: 0.8"/>
      </g>
     </g>
     <g id="text_10">
      <!-- 2 -->
      <g style="fill: #333333" transform="translate(30.715625 348.300874) scale(0.13 -0.13)">
       <use xlink:href="#SimHei-32"/>
      </g>
     </g>
    </g>
    <g id="ytick_3">
     <g id="line2d_19">
      <path d="M 44.215625 285.48138 
L 1344.643125 285.48138 
" clip-path="url(#p9d8460f15c)" style="fill: none; stroke-dasharray: 1.85,0.8; stroke-dashoffset: 0; stroke: #b0b0b0; stroke-opacity: 0.3; stroke-width: 0.5"/>
     </g>
     <g id="line2d_20">
      <g>
       <use xlink:href="#m23f4b2abfe" x="44.215625" y="285.48138" style="fill: #333333; stroke: #333333; stroke-width: 0.8"/>
      </g>
     </g>
     <g id="text_11">
      <!-- 4 -->
      <g style="fill: #333333" transform="translate(30.715625 289.95013) scale(0.13 -0.13)">
       <defs>
        <path id="SimHei-34" d="M 2000 1100 
L 75 1100 
L 75 1525 
L 2100 4450 
L 2475 4450 
L 2475 1525 
L 3075 1525 
L 3075 1100 
L 2475 1100 
L 2475 150 
L 2000 150 
L 2000 1100 
z
M 2000 1525 
L 2000 3500 
L 600 1525 
L 2000 1525 
z
" transform="scale(0.015625)"/>
       </defs>
       <use xlink:href="#SimHei-34"/>
      </g>
     </g>
    </g>
    <g id="ytick_4">
     <g id="line2d_21">
      <path d="M 44.215625 227.130636 
L 1344.643125 227.130636 
" clip-path="url(#p9d8460f15c)" style="fill: none; stroke-dasharray: 1.85,0.8; stroke-dashoffset: 0; stroke: #b0b0b0; stroke-opacity: 0.3; stroke-width: 0.5"/>
     </g>
     <g id="line2d_22">
      <g>
       <use xlink:href="#m23f4b2abfe" x="44.215625" y="227.130636" style="fill: #333333; stroke: #333333; stroke-width: 0.8"/>
      </g>
     </g>
     <g id="text_12">
      <!-- 6 -->
      <g style="fill: #333333" transform="translate(30.715625 231.599386) scale(0.13 -0.13)">
       <defs>
        <path id="SimHei-36" d="M 250 1612 
Q 275 1975 387 2225 
Q 500 2475 725 2850 
L 1750 4450 
L 2325 4450 
L 1275 2800 
Q 1950 2975 2350 2750 
Q 2750 2525 2887 2237 
Q 3025 1950 3037 1612 
Q 3050 1275 2937 950 
Q 2825 625 2537 362 
Q 2250 100 1737 75 
Q 1225 50 862 262 
Q 500 475 362 862 
Q 225 1250 250 1612 
z
M 1025 787 
Q 1250 550 1625 525 
Q 2000 500 2250 775 
Q 2500 1050 2500 1575 
Q 2500 2100 2187 2300 
Q 1875 2500 1487 2450 
Q 1100 2400 925 2075 
Q 750 1750 775 1387 
Q 800 1025 1025 787 
z
" transform="scale(0.015625)"/>
       </defs>
       <use xlink:href="#SimHei-36"/>
      </g>
     </g>
    </g>
    <g id="ytick_5">
     <g id="line2d_23">
      <path d="M 44.215625 168.779891 
L 1344.643125 168.779891 
" clip-path="url(#p9d8460f15c)" style="fill: none; stroke-dasharray: 1.85,0.8; stroke-dashoffset: 0; stroke: #b0b0b0; stroke-opacity: 0.3; stroke-width: 0.5"/>
     </g>
     <g id="line2d_24">
      <g>
       <use xlink:href="#m23f4b2abfe" x="44.215625" y="168.779891" style="fill: #333333; stroke: #333333; stroke-width: 0.8"/>
      </g>
     </g>
     <g id="text_13">
      <!-- 8 -->
      <g style="fill: #333333" transform="translate(30.715625 173.248641) scale(0.13 -0.13)">
       <defs>
        <path id="SimHei-38" d="M 175 1375 
Q 175 1675 325 1962 
Q 475 2250 825 2425 
Q 525 2600 425 2812 
Q 325 3025 312 3300 
Q 300 3575 387 3775 
Q 475 3975 650 4150 
Q 825 4325 1037 4387 
Q 1250 4450 1500 4450 
Q 1750 4450 1950 4400 
Q 2150 4350 2375 4187 
Q 2600 4025 2700 3725 
Q 2800 3425 2687 3025 
Q 2575 2625 2100 2400 
Q 2525 2275 2700 2012 
Q 2875 1750 2875 1375 
Q 2875 1000 2762 775 
Q 2650 550 2512 400 
Q 2375 250 2137 162 
Q 1900 75 1537 75 
Q 1175 75 912 162 
Q 650 250 475 425 
Q 300 600 237 837 
Q 175 1075 175 1375 
z
M 687 1400 
Q 675 1100 787 875 
Q 900 650 1200 587 
Q 1500 525 1825 600 
Q 2150 675 2275 950 
Q 2400 1225 2362 1500 
Q 2325 1775 2050 1962 
Q 1775 2150 1450 2125 
Q 1125 2100 912 1900 
Q 700 1700 687 1400 
z
M 775 3350 
Q 775 3100 950 2875 
Q 1125 2650 1500 2650 
Q 1875 2650 2062 2875 
Q 2250 3100 2237 3412 
Q 2225 3725 2012 3875 
Q 1800 4025 1437 4000 
Q 1075 3975 925 3787 
Q 775 3600 775 3350 
z
" transform="scale(0.015625)"/>
       </defs>
       <use xlink:href="#SimHei-38"/>
      </g>
     </g>
    </g>
    <g id="ytick_6">
     <g id="line2d_25">
      <path d="M 44.215625 110.429147 
L 1344.643125 110.429147 
" clip-path="url(#p9d8460f15c)" style="fill: none; stroke-dasharray: 1.85,0.8; stroke-dashoffset: 0; stroke: #b0b0b0; stroke-opacity: 0.3; stroke-width: 0.5"/>
     </g>
     <g id="line2d_26">
      <g>
       <use xlink:href="#m23f4b2abfe" x="44.215625" y="110.429147" style="fill: #333333; stroke: #333333; stroke-width: 0.8"/>
      </g>
     </g>
     <g id="text_14">
      <!-- 10 -->
      <g style="fill: #333333" transform="translate(24.215625 114.897897) scale(0.13 -0.13)">
       <use xlink:href="#SimHei-31"/>
       <use xlink:href="#SimHei-30" transform="translate(50 0)"/>
      </g>
     </g>
    </g>
    <g id="text_15">
     <!-- 切深 ap (mm) -->
     <g style="fill: #333333" transform="translate(18.465625 298.451885) rotate(-90) scale(0.14 -0.14)">
      <defs>
       <path id="SimHei-5207" d="M 4200 125 
Q 4875 125 5037 187 
Q 5200 250 5225 525 
L 5400 4175 
L 4250 4175 
Q 4275 2875 4075 1987 
Q 3875 1100 3500 575 
Q 3125 50 2425 -575 
Q 2275 -375 1900 -250 
Q 2550 200 2937 675 
Q 3325 1150 3550 1925 
Q 3775 2700 3750 4175 
Q 3200 4175 2700 4150 
L 2700 4600 
Q 3175 4575 3625 4575 
L 5900 4575 
Q 5875 4200 5850 3700 
L 5700 325 
Q 5625 -250 5312 -337 
Q 5000 -425 4450 -525 
Q 4400 -200 4200 125 
z
M 1175 4275 
Q 1175 4625 1150 5000 
L 1650 5000 
Q 1625 4625 1625 4300 
L 1625 3275 
Q 2150 3350 2700 3425 
Q 2725 3150 2750 2975 
Q 2325 2925 1625 2850 
L 1625 1050 
Q 2325 1475 2650 1750 
Q 2725 1550 2875 1300 
Q 2325 975 1225 200 
Q 1075 500 925 650 
Q 1175 850 1175 1125 
L 1175 2775 
Q 675 2725 325 2675 
Q 300 2975 275 3150 
Q 650 3175 1175 3225 
L 1175 4275 
z
" transform="scale(0.015625)"/>
       <path id="SimHei-6df1" d="M 3675 -625 
Q 3700 -175 3700 25 
L 3700 1675 
Q 3350 975 2925 475 
Q 2500 -25 2150 -325 
Q 2000 -150 1700 0 
Q 2150 275 2600 800 
Q 3050 1325 3225 1825 
Q 2600 1825 2125 1800 
L 2125 2250 
Q 2525 2225 3700 2225 
Q 3700 2675 3675 3050 
L 4200 3050 
Q 4175 2675 4175 2225 
Q 5400 2225 6000 2250 
L 6000 1800 
Q 5600 1825 4575 1825 
Q 4750 1325 5175 862 
Q 5600 400 6125 200 
Q 5825 75 5725 -200 
Q 5200 100 4800 562 
Q 4400 1025 4175 1750 
L 4175 25 
Q 4175 -125 4225 -625 
L 3675 -625 
z
M 5875 4850 
Q 5850 4600 5850 4300 
Q 5850 4025 5875 3725 
L 5375 3725 
L 5375 4450 
L 2550 4450 
L 2550 3650 
L 2075 3650 
Q 2100 4025 2100 4275 
Q 2100 4525 2075 4850 
L 5875 4850 
z
M 1850 1525 
Q 1625 1150 1362 487 
Q 1100 -175 975 -525 
Q 725 -350 375 -250 
Q 625 50 950 712 
Q 1275 1375 1450 1850 
Q 1625 1650 1850 1525 
z
M 4625 4075 
Q 5100 3650 5700 2975 
Q 5450 2825 5300 2625 
Q 4775 3350 4250 3775 
Q 4450 3925 4625 4075 
z
M 3700 3750 
Q 3500 3650 3200 3312 
Q 2900 2975 2500 2600 
Q 2325 2775 2050 2900 
Q 2425 3125 2775 3487 
Q 3125 3850 3250 4050 
Q 3425 3900 3700 3750 
z
M 550 3650 
Q 1125 3300 1600 2900 
Q 1450 2750 1300 2500 
Q 850 2975 275 3275 
Q 400 3450 550 3650 
z
M 1000 5150 
Q 1450 4850 1950 4400 
Q 1775 4250 1625 4025 
Q 1175 4525 675 4850 
Q 850 4950 1000 5150 
z
" transform="scale(0.015625)"/>
       <path id="SimHei-61" d="M 2875 125 
L 2275 125 
Q 2225 175 2200 262 
Q 2175 350 2175 475 
Q 2000 275 1750 175 
Q 1500 75 1225 75 
Q 825 75 550 275 
Q 275 475 275 850 
Q 275 1225 525 1450 
Q 775 1675 1300 1750 
Q 1650 1800 1912 1875 
Q 2175 1950 2175 2075 
Q 2175 2225 2062 2375 
Q 1950 2525 1575 2525 
Q 1275 2525 1137 2412 
Q 1000 2300 950 2100 
L 400 2100 
Q 450 2500 762 2737 
Q 1075 2975 1575 2975 
Q 2125 2975 2400 2725 
Q 2675 2475 2675 2025 
L 2675 650 
Q 2675 500 2725 375 
Q 2775 250 2875 125 
z
M 2175 1050 
L 2175 1550 
Q 2025 1500 1887 1462 
Q 1750 1425 1425 1375 
Q 1050 1325 937 1200 
Q 825 1075 825 900 
Q 825 750 937 637 
Q 1050 525 1275 525 
Q 1500 525 1762 650 
Q 2025 775 2175 1050 
z
" transform="scale(0.015625)"/>
       <path id="SimHei-70" d="M 2825 1525 
Q 2825 800 2475 425 
Q 2125 50 1625 50 
Q 1350 50 1150 162 
Q 950 275 800 500 
L 800 -800 
L 300 -800 
L 300 2925 
L 800 2925 
L 800 2550 
Q 950 2775 1150 2875 
Q 1350 2975 1625 2975 
Q 2125 2975 2475 2612 
Q 2825 2250 2825 1525 
z
M 2275 1525 
Q 2275 2000 2087 2262 
Q 1900 2525 1525 2525 
Q 1225 2525 1012 2262 
Q 800 2000 800 1525 
Q 800 1050 1012 775 
Q 1225 500 1525 500 
Q 1900 500 2087 775 
Q 2275 1050 2275 1525 
z
" transform="scale(0.015625)"/>
      </defs>
      <use xlink:href="#SimHei-5207"/>
      <use xlink:href="#SimHei-6df1" transform="translate(100 0)"/>
      <use xlink:href="#SimHei-20" transform="translate(200 0)"/>
      <use xlink:href="#SimHei-61" transform="translate(250 0)"/>
      <use xlink:href="#SimHei-70" transform="translate(300 0)"/>
      <use xlink:href="#SimHei-20" transform="translate(350 0)"/>
      <use xlink:href="#SimHei-28" transform="translate(400 0)"/>
      <use xlink:href="#SimHei-6d" transform="translate(450 0)"/>
      <use xlink:href="#SimHei-6d" transform="translate(500 0)"/>
      <use xlink:href="#SimHei-29" transform="translate(550 0)"/>
     </g>
    </g>
   </g>
   <g id="patch_3">
    <path d="M 44.215625 429.753596 
L 44.215625 83.150174 
" style="fill: none; stroke: #000000; stroke-width: 0.8; stroke-linejoin: miter; stroke-linecap: square"/>
   </g>
   <g id="patch_4">
    <path d="M 1344.643125 429.753596 
L 1344.643125 83.150174 
" style="fill: none; stroke: #000000; stroke-width: 0.8; stroke-linejoin: miter; stroke-linecap: square"/>
   </g>
   <g id="patch_5">
    <path d="M 44.215625 429.753596 
L 1344.643125 429.753596 
" style="fill: none; stroke: #000000; stroke-width: 0.8; stroke-linejoin: miter; stroke-linecap: square"/>
   </g>
   <g id="patch_6">
    <path d="M 44.215625 83.150174 
L 1344.643125 83.150174 
" style="fill: none; stroke: #000000; stroke-width: 0.8; stroke-linejoin: miter; stroke-linecap: square"/>
   </g>
   <g id="text_16">
    <!-- 切深变化 -->
    <g style="fill: #333333" transform="translate(658.429375 21.684375) scale(0.18 -0.18)">
     <defs>
      <path id="SimHei-53d8" d="M 5200 1975 
Q 4950 1600 4537 1137 
Q 4125 675 3675 375 
Q 3925 225 4600 87 
Q 5275 -50 6000 -75 
Q 5700 -400 5650 -625 
Q 4850 -525 4212 -312 
Q 3575 -100 3225 125 
Q 2800 -125 2150 -325 
Q 1500 -525 700 -675 
Q 600 -425 400 -175 
Q 950 -150 1687 12 
Q 2425 175 2825 375 
Q 2275 775 1675 1575 
Q 1350 1575 1000 1550 
L 1000 2000 
Q 1450 1975 2075 1975 
L 5200 1975 
z
M 3225 5275 
Q 3400 4900 3550 4475 
L 4675 4475 
Q 5400 4475 5975 4500 
L 5975 4025 
Q 5375 4050 4725 4050 
L 4125 4050 
L 4125 2950 
Q 4125 2550 4150 2150 
L 3600 2150 
Q 3625 2550 3625 2950 
L 3625 4050 
L 2750 4050 
L 2750 2950 
Q 2750 2675 2775 2150 
L 2225 2150 
Q 2250 2675 2250 2950 
L 2250 4050 
L 1700 4050 
Q 975 4050 425 4025 
L 425 4500 
Q 950 4475 1700 4475 
L 2975 4475 
Q 2925 4675 2700 5125 
Q 2950 5150 3225 5275 
z
M 2200 1575 
Q 2650 975 3250 600 
Q 3850 1000 4275 1575 
L 2200 1575 
z
M 4850 3750 
Q 5375 3275 5950 2675 
Q 5750 2525 5500 2300 
Q 5075 2800 4450 3400 
Q 4675 3575 4850 3750 
z
M 1825 3500 
Q 1700 3375 1425 3025 
Q 1150 2675 825 2300 
Q 575 2475 375 2600 
Q 975 3150 1300 3825 
Q 1525 3650 1825 3500 
z
" transform="scale(0.015625)"/>
      <path id="SimHei-5316" d="M 3925 5025 
Q 3900 4900 3900 4400 
L 3900 2625 
Q 4375 3025 4775 3450 
Q 5175 3875 5400 4300 
Q 5600 4100 5900 3925 
Q 5700 3700 5225 3212 
Q 4750 2725 4487 2512 
Q 4225 2300 3900 2025 
L 3900 450 
Q 3900 50 4225 50 
L 5200 50 
Q 5400 75 5462 262 
Q 5525 450 5575 850 
Q 5800 650 6150 600 
Q 6000 -100 5825 -250 
Q 5650 -400 5350 -400 
L 3950 -400 
Q 3425 -400 3400 200 
L 3400 1675 
Q 3225 1525 2962 1350 
Q 2700 1175 2375 975 
Q 2225 1225 2025 1400 
Q 2350 1550 2737 1787 
Q 3125 2025 3400 2250 
L 3400 4500 
Q 3400 4800 3375 5025 
L 3925 5025 
z
M 2400 4850 
Q 2175 4550 2075 4337 
Q 1975 4125 1825 3775 
L 1825 675 
Q 1825 -75 1850 -550 
L 1325 -550 
Q 1350 -125 1350 650 
L 1350 3050 
Q 1125 2725 962 2525 
Q 800 2325 675 2175 
Q 500 2375 275 2525 
Q 625 2850 875 3212 
Q 1125 3575 1312 3912 
Q 1500 4250 1625 4575 
Q 1750 4900 1825 5100 
Q 1975 4975 2400 4850 
z
" transform="scale(0.015625)"/>
     </defs>
     <use xlink:href="#SimHei-5207"/>
     <use xlink:href="#SimHei-6df1" transform="translate(100 0)"/>
     <use xlink:href="#SimHei-53d8" transform="translate(200 0)"/>
     <use xlink:href="#SimHei-5316" transform="translate(300 0)"/>
    </g>
   </g>
   <g id="line2d_27">
    <path d="M 147.658722 402.182869 
L 165.670081 402.182869 
L 166.112507 227.48074 
L 166.665653 227.48074 
L 188.288992 227.48074 
L 188.288992 402.182869 
L 189.279431 227.48074 
L 192.595069 227.48074 
L 192.595069 402.182869 
L 193.328251 402.182869 
L 194.882641 402.182869 
L 194.882641 227.48074 
L 195.876757 227.48074 
L 197.722197 227.48074 
L 197.722197 402.182869 
L 198.707319 227.48074 
L 203.858059 227.48074 
L 203.858059 402.182869 
L 204.85189 227.48074 
L 204.954823 227.48074 
L 204.954823 402.182869 
L 205.938789 227.48074 
L 206.609623 227.48074 
L 206.609623 402.182869 
L 207.597413 227.48074 
L 211.954824 227.48074 
L 211.954824 402.182869 
L 212.942404 227.48074 
L 215.293661 227.48074 
L 215.293661 402.182869 
L 215.796817 402.182869 
L 219.23697 402.182869 
L 219.23697 227.48074 
L 220.223722 227.48074 
L 220.276481 227.48074 
L 220.276481 402.182869 
L 221.271606 227.48074 
L 224.25801 227.48074 
L 224.25801 402.182869 
L 225.237829 402.182869 
L 230.31624 402.182869 
L 230.31624 227.48074 
L 231.316149 402.182869 
L 232.03371 402.182869 
L 232.03371 227.48074 
L 232.998094 402.182869 
L 233.417714 402.182869 
L 233.417714 227.48074 
L 233.869998 402.182869 
L 235.007199 402.182869 
L 235.007199 227.48074 
L 236.004921 227.48074 
L 239.191845 227.48074 
L 239.191845 402.182869 
L 240.188178 227.48074 
L 243.465206 227.48074 
L 243.465206 402.182869 
L 244.397382 402.182869 
L 244.552123 402.182869 
L 244.552123 227.48074 
L 245.537346 227.48074 
L 246.195149 227.48074 
L 246.195149 402.182869 
L 247.190084 227.48074 
L 247.951318 227.48074 
L 247.951318 402.182869 
L 248.936051 227.48074 
L 249.773848 227.48074 
L 249.773848 402.182869 
L 250.750522 402.182869 
L 250.905265 402.182869 
L 250.905265 227.48074 
L 251.903573 402.182869 
L 253.967073 402.182869 
L 253.967073 227.48074 
L 254.958341 227.48074 
L 255.432623 227.48074 
L 255.432623 402.182869 
L 256.432403 227.48074 
L 257.272575 227.48074 
L 257.272575 402.182869 
L 258.000193 402.182869 
L 258.474931 402.182869 
L 258.474931 227.48074 
L 259.466551 227.48074 
L 259.679322 227.48074 
L 259.679322 402.182869 
L 260.669564 227.48074 
L 261.756087 227.48074 
L 261.756087 402.182869 
L 262.747283 227.48074 
L 264.044058 227.48074 
L 264.044058 402.182869 
L 265.029675 227.48074 
L 266.508175 227.48074 
L 266.508175 402.182869 
L 267.506942 227.48074 
L 268.41968 227.48074 
L 268.41968 402.182869 
L 269.417767 402.182869 
L 270.187873 402.182869 
L 270.187873 227.48074 
L 271.17733 227.48074 
L 271.492331 227.48074 
L 271.492331 402.182869 
L 272.485395 227.48074 
L 273.558716 227.48074 
L 273.558716 402.182869 
L 274.550985 227.48074 
L 276.222922 227.48074 
L 276.222922 402.182869 
L 277.219678 227.48074 
L 278.798853 227.48074 
L 278.798853 402.182869 
L 279.795334 227.48074 
L 282.255614 227.48074 
L 282.255614 402.182869 
L 283.243497 227.48074 
L 286.21341 227.48074 
L 286.21341 402.182869 
L 287.200726 227.48074 
L 290.584679 227.48074 
L 290.584679 402.182869 
L 291.578264 227.48074 
L 293.563699 227.48074 
L 293.563699 402.182869 
L 294.563049 227.48074 
L 296.290192 227.48074 
L 296.290192 402.182869 
L 297.281894 227.48074 
L 299.0325 227.48074 
L 299.0325 402.182869 
L 300.02457 227.48074 
L 301.080166 227.48074 
L 301.080166 402.182869 
L 302.075154 402.182869 
L 302.151733 402.182869 
L 302.151733 227.48074 
L 303.151076 227.48074 
L 303.578352 227.48074 
L 303.578352 402.182869 
L 304.562095 227.48074 
L 305.403706 227.48074 
L 305.403706 402.182869 
L 306.393563 227.48074 
L 307.526205 227.48074 
L 307.526205 402.182869 
L 308.510856 227.48074 
L 309.360399 227.48074 
L 309.360399 402.182869 
L 310.346856 227.48074 
L 311.198987 227.48074 
L 311.198987 402.182869 
L 312.194963 227.48074 
L 312.373401 227.48074 
L 312.373401 402.182869 
L 313.364305 402.182869 
L 313.455484 402.182869 
L 313.455484 227.48074 
L 314.442831 402.182869 
L 314.921623 402.182869 
L 314.921623 227.48074 
L 315.801338 402.182869 
L 316.098563 402.182869 
L 316.098563 227.48074 
L 317.097922 402.182869 
L 317.148221 402.182869 
L 317.148221 227.48074 
L 318.129476 402.182869 
L 318.173396 402.182869 
L 318.173396 227.48074 
L 319.121911 402.182869 
L 322.344535 402.182869 
L 322.344535 234.774583 
L 323.336247 402.182869 
L 323.371415 402.182869 
L 323.371415 227.48074 
L 324.361793 402.182869 
L 324.954613 402.182869 
L 324.954613 227.48074 
L 325.170902 402.182869 
L 328.731187 402.182869 
L 328.731187 227.48074 
L 329.722208 402.182869 
L 330.195351 402.182869 
L 330.195351 227.48074 
L 331.19344 402.182869 
L 331.650892 402.182869 
L 331.650892 227.48074 
L 332.637704 402.182869 
L 333.275894 402.182869 
L 333.275894 227.48074 
L 334.275879 402.182869 
L 334.94966 402.182869 
L 334.94966 227.48074 
L 335.9491 227.48074 
L 335.969011 227.48074 
L 335.969011 402.182869 
L 336.961127 227.48074 
L 337.979188 227.48074 
L 337.979188 402.182869 
L 338.974707 227.48074 
L 340.066236 227.48074 
L 340.066236 402.182869 
L 341.059171 227.48074 
L 342.086883 227.48074 
L 342.086883 402.182869 
L 342.706275 402.182869 
L 343.285716 402.182869 
L 343.285716 227.48074 
L 344.280412 402.182869 
L 344.91863 402.182869 
L 344.91863 227.48074 
L 345.918373 402.182869 
L 346.401034 402.182869 
L 346.401034 227.48074 
L 347.399914 402.182869 
L 347.930035 402.182869 
L 347.930035 227.48074 
L 348.929935 402.182869 
L 349.475023 402.182869 
L 349.475023 227.48074 
L 350.468108 227.48074 
L 351.548753 227.48074 
L 351.548753 402.182869 
L 352.486297 402.182869 
L 353.258684 402.182869 
L 353.258684 227.48074 
L 354.247807 227.48074 
L 354.300541 227.48074 
L 354.300541 402.182869 
L 355.225992 402.182869 
L 355.766775 402.182869 
L 355.766775 227.48074 
L 356.529704 402.182869 
L 357.763854 402.182869 
L 357.763854 227.48074 
L 358.763684 402.182869 
L 358.939692 402.182869 
L 358.939692 227.48074 
L 359.700464 402.182869 
L 362.185582 402.182869 
L 362.185582 227.48074 
L 363.177758 402.182869 
L 363.747422 402.182869 
L 363.747422 227.48074 
L 364.667397 402.182869 
L 365.154051 402.182869 
L 365.154051 227.48074 
L 365.604972 402.182869 
L 369.747673 402.182869 
L 369.747673 315.006857 
L 370.738654 402.182869 
L 370.945303 402.182869 
L 370.945303 315.006857 
L 371.942623 315.006857 
L 372.175909 315.006857 
L 372.175909 402.182869 
L 373.163533 402.182869 
L 374.436095 402.182869 
L 374.436095 315.006857 
L 375.427503 402.182869 
L 375.603176 402.182869 
L 375.603176 315.006857 
L 376.601121 315.006857 
L 376.860538 315.006857 
L 376.860538 402.182869 
L 377.852741 402.182869 
L 381.808481 402.182869 
L 382.250907 227.130636 
L 382.804053 227.130636 
L 404.427392 227.130636 
L 404.427392 402.182869 
L 405.417831 227.130636 
L 408.733469 227.130636 
L 408.733469 402.182869 
L 409.179631 225.1683 
L 409.466651 402.182869 
L 411.021041 402.182869 
L 411.021041 227.130636 
L 412.015157 227.130636 
L 413.860597 227.130636 
L 413.860597 402.182869 
L 414.84572 227.130636 
L 419.99646 227.130636 
L 419.99646 402.182869 
L 420.99029 227.130636 
L 421.093223 227.130636 
L 421.093223 402.182869 
L 422.077189 227.130636 
L 422.748023 227.130636 
L 422.748023 402.182869 
L 423.735813 227.130636 
L 426.767413 227.130636 
L 426.767413 402.182869 
L 427.762734 227.130636 
L 428.040765 227.130636 
L 428.040765 402.182869 
L 429.032044 227.130636 
L 431.454499 227.130636 
L 431.454499 402.182869 
L 431.969775 402.182869 
L 435.497805 402.182869 
L 435.497805 227.130636 
L 436.490961 402.182869 
L 437.380916 402.182869 
L 437.380916 227.130636 
L 438.37883 402.182869 
L 438.965033 402.182869 
L 438.965033 227.130636 
L 439.795691 402.182869 
L 441.472051 402.182869 
L 441.472051 227.130636 
L 442.458337 227.130636 
L 445.05847 227.130636 
L 445.05847 402.182869 
L 446.056631 402.182869 
L 446.293275 402.182869 
L 446.293275 227.130636 
L 447.284167 227.130636 
L 450.435922 227.130636 
L 450.435922 402.182869 
L 451.431131 227.130636 
L 454.933386 227.130636 
L 454.933386 402.182869 
L 455.925861 227.130636 
L 457.602802 227.130636 
L 457.602802 402.182869 
L 458.588355 227.130636 
L 459.134786 227.130636 
L 459.134786 402.182869 
L 459.647314 402.182869 
L 461.819403 402.182869 
L 461.819403 227.130636 
L 462.812669 227.130636 
L 463.087929 227.130636 
L 463.087929 402.182869 
L 464.071219 227.130636 
L 464.278496 227.130636 
L 464.278496 402.182869 
L 465.003222 402.182869 
L 465.611627 402.182869 
L 465.611627 227.130636 
L 466.189246 402.182869 
L 467.822675 402.182869 
L 467.822675 227.130636 
L 468.812389 227.130636 
L 469.367916 227.130636 
L 469.367916 402.182869 
L 470.36753 227.130636 
L 471.093829 227.130636 
L 471.093829 402.182869 
L 471.811529 402.182869 
L 472.287068 402.182869 
L 472.287068 227.130636 
L 473.276885 227.130636 
L 473.452588 227.130636 
L 473.452588 402.182869 
L 474.439578 227.130636 
L 475.493718 227.130636 
L 475.493718 402.182869 
L 476.488063 227.130636 
L 477.748395 227.130636 
L 477.748395 402.182869 
L 478.746623 227.130636 
L 480.172391 227.130636 
L 480.172391 402.182869 
L 481.164257 227.130636 
L 481.991405 227.130636 
L 481.991405 402.182869 
L 482.987666 402.182869 
L 483.773304 402.182869 
L 483.773304 227.130636 
L 484.768871 227.130636 
L 484.999769 227.130636 
L 484.999769 402.182869 
L 485.987283 227.130636 
L 487.049735 227.130636 
L 487.049735 402.182869 
L 488.035825 227.130636 
L 489.638451 227.130636 
L 489.638451 402.182869 
L 490.636723 227.130636 
L 492.184446 227.130636 
L 492.184446 402.182869 
L 493.175102 227.130636 
L 495.58987 227.130636 
L 495.58987 402.182869 
L 496.580167 227.130636 
L 499.490612 227.130636 
L 499.490612 402.182869 
L 500.483419 227.130636 
L 503.798938 227.130636 
L 503.798938 402.182869 
L 504.792722 227.130636 
L 506.774952 227.130636 
L 506.774952 402.182869 
L 507.773943 227.130636 
L 509.503153 227.130636 
L 509.503153 402.182869 
L 510.493434 227.130636 
L 510.54631 227.130636 
L 510.54631 402.182869 
L 511.54029 227.130636 
L 512.245325 227.130636 
L 512.245325 402.182869 
L 513.237363 227.130636 
L 514.287074 227.130636 
L 514.287074 402.182869 
L 515.285731 402.182869 
L 515.365347 402.182869 
L 515.365347 227.130636 
L 516.362584 227.130636 
L 516.54703 227.130636 
L 516.54703 402.182869 
L 517.543818 227.130636 
L 518.624759 227.130636 
L 518.624759 402.182869 
L 519.623306 227.130636 
L 520.74393 227.130636 
L 520.74393 402.182869 
L 521.728589 227.130636 
L 522.574796 227.130636 
L 522.574796 402.182869 
L 523.568081 227.130636 
L 524.614117 227.130636 
L 524.614117 402.182869 
L 525.611444 402.182869 
L 525.985182 402.182869 
L 525.985182 227.130636 
L 526.978409 402.182869 
L 527.279529 402.182869 
L 527.279529 227.130636 
L 528.267304 227.130636 
L 528.638653 227.130636 
L 528.638653 402.182869 
L 529.627036 402.182869 
L 530.406237 402.182869 
L 530.406237 227.130636 
L 531.404173 402.182869 
L 531.462435 402.182869 
L 531.462435 227.130636 
L 532.353633 402.182869 
L 535.555208 402.182869 
L 535.555208 227.130636 
L 536.546863 402.182869 
L 536.582031 402.182869 
L 536.582031 227.130636 
L 537.57241 402.182869 
L 538.16523 402.182869 
L 538.16523 227.130636 
L 538.381536 402.182869 
L 541.89773 402.182869 
L 541.89773 227.130636 
L 542.897394 402.182869 
L 543.318075 402.182869 
L 543.318075 227.130636 
L 544.316101 402.182869 
L 544.740502 402.182869 
L 544.740502 227.130636 
L 545.737751 402.182869 
L 546.2568 402.182869 
L 546.2568 227.130636 
L 547.245613 402.182869 
L 547.814103 402.182869 
L 547.814103 227.130636 
L 548.807464 227.130636 
L 548.877786 227.130636 
L 548.877786 402.182869 
L 549.877365 227.130636 
L 550.593276 227.130636 
L 550.593276 402.182869 
L 551.58405 227.130636 
L 552.524628 227.130636 
L 552.524628 402.182869 
L 553.512309 227.130636 
L 554.675615 227.130636 
L 554.675615 402.182869 
L 555.674546 227.130636 
L 556.72911 227.130636 
L 556.72911 402.182869 
L 557.718423 227.130636 
L 558.21801 227.130636 
L 558.21801 402.182869 
L 559.20753 402.182869 
L 559.249553 402.182869 
L 559.249553 227.130636 
L 560.247258 402.182869 
L 560.521825 402.182869 
L 560.521825 227.130636 
L 561.520816 402.182869 
L 561.964175 402.182869 
L 561.964175 227.130636 
L 562.951182 402.182869 
L 563.541573 402.182869 
L 563.541573 227.130636 
L 564.515256 402.182869 
L 564.670007 402.182869 
L 564.670007 227.130636 
L 565.666281 402.182869 
L 568.964778 402.182869 
L 568.964778 227.130636 
L 569.955596 227.130636 
L 570.607709 227.130636 
L 570.607709 402.182869 
L 571.603593 402.182869 
L 572.140571 402.182869 
L 572.140571 227.130636 
L 572.730084 402.182869 
L 574.340313 402.182869 
L 574.340313 227.130636 
L 575.336694 227.130636 
L 575.371849 227.130636 
L 575.371849 402.182869 
L 576.358077 227.130636 
L 576.81343 227.130636 
L 576.81343 402.182869 
L 577.812962 227.130636 
L 578.00483 227.130636 
L 578.00483 402.182869 
L 578.547892 402.182869 
L 582.727641 402.182869 
L 582.727641 314.656752 
L 583.719873 314.656752 
L 583.878099 314.656752 
L 583.878099 402.182869 
L 584.871584 402.182869 
L 585.305132 402.182869 
L 585.305132 314.656752 
L 586.296659 314.656752 
L 586.437306 314.656752 
L 586.437306 402.182869 
L 587.433902 402.182869 
L 587.558121 402.182869 
L 587.558121 314.656752 
L 588.556001 314.656752 
L 588.679071 314.656752 
L 588.679071 402.182869 
L 589.677816 402.182869 
L 590.122001 402.182869 
L 590.122001 314.656752 
L 591.113587 314.656752 
L 591.271838 314.656752 
L 591.271838 402.182869 
L 592.267848 402.182869 
L 595.95535 402.182869 
L 596.397776 227.130636 
L 596.950922 227.130636 
L 618.574261 227.130636 
L 618.574261 402.182869 
L 619.5647 227.130636 
L 622.880338 227.130636 
L 622.880338 402.182869 
L 623.3265 225.1683 
L 623.61352 402.182869 
L 625.16791 402.182869 
L 625.16791 227.130636 
L 626.162026 227.130636 
L 628.007466 227.130636 
L 628.007466 402.182869 
L 628.992589 227.130636 
L 634.143329 227.130636 
L 634.143329 402.182869 
L 635.137159 227.130636 
L 635.240092 227.130636 
L 635.240092 402.182869 
L 636.224058 227.130636 
L 636.894892 227.130636 
L 636.894892 402.182869 
L 637.882682 227.130636 
L 640.850907 227.130636 
L 640.850907 402.182869 
L 641.841922 227.130636 
L 642.148153 227.130636 
L 642.148153 402.182869 
L 643.141463 227.130636 
L 645.652687 227.130636 
L 645.652687 402.182869 
L 646.171907 402.182869 
L 649.747443 402.182869 
L 649.747443 227.130636 
L 650.746275 402.182869 
L 651.562771 402.182869 
L 651.562771 227.130636 
L 652.559133 402.182869 
L 653.025676 402.182869 
L 653.025676 227.130636 
L 653.687245 402.182869 
L 654.767254 402.182869 
L 654.767254 227.130636 
L 655.760873 227.130636 
L 656.341724 227.130636 
L 656.341724 402.182869 
L 657.327756 227.130636 
L 657.809763 227.130636 
L 657.809763 402.182869 
L 658.197591 402.182869 
L 659.546799 402.182869 
L 659.546799 227.130636 
L 660.536082 402.182869 
L 661.32534 402.182869 
L 661.32534 227.130636 
L 662.324895 402.182869 
L 662.754313 402.182869 
L 662.754313 227.130636 
L 663.405612 402.182869 
L 664.484237 402.182869 
L 664.484237 227.130636 
L 665.46927 227.130636 
L 665.526305 227.130636 
L 665.526305 402.182869 
L 666.523331 227.130636 
L 667.301022 227.130636 
L 667.301022 402.182869 
L 668.290728 227.130636 
L 668.784771 227.130636 
L 668.784771 402.182869 
L 669.770388 227.130636 
L 670.04798 227.130636 
L 670.04798 402.182869 
L 671.036077 227.130636 
L 671.41916 227.130636 
L 671.41916 402.182869 
L 672.418032 227.130636 
L 672.925925 227.130636 
L 672.925925 402.182869 
L 673.923864 227.130636 
L 674.507129 227.130636 
L 674.507129 402.182869 
L 675.504677 227.130636 
L 676.153415 227.130636 
L 676.153415 402.182869 
L 677.147037 227.130636 
L 677.797435 227.130636 
L 677.797435 402.182869 
L 678.78386 227.130636 
L 679.907048 227.130636 
L 679.907048 402.182869 
L 680.899744 227.130636 
L 681.939676 227.130636 
L 681.939676 402.182869 
L 682.927345 227.130636 
L 683.220743 227.130636 
L 683.220743 402.182869 
L 684.215402 402.182869 
L 684.907211 402.182869 
L 684.907211 227.130636 
L 685.906544 402.182869 
L 686.285793 402.182869 
L 686.285793 227.130636 
L 687.280432 402.182869 
L 687.607237 402.182869 
L 687.607237 227.130636 
L 688.604306 402.182869 
L 688.990445 402.182869 
L 688.990445 227.130636 
L 689.988002 402.182869 
L 690.38508 402.182869 
L 690.38508 227.130636 
L 691.379483 402.182869 
L 691.916978 402.182869 
L 691.916978 227.130636 
L 692.907935 402.182869 
L 693.572222 402.182869 
L 693.572222 227.130636 
L 694.570235 227.130636 
L 694.710879 227.130636 
L 694.710879 402.182869 
L 695.695926 227.130636 
L 696.598185 227.130636 
L 696.598185 402.182869 
L 697.596079 227.130636 
L 698.881131 227.130636 
L 698.881131 402.182869 
L 699.868768 227.130636 
L 701.242712 227.130636 
L 701.242712 402.182869 
L 702.228506 227.130636 
L 703.894381 227.130636 
L 703.894381 402.182869 
L 704.887855 227.130636 
L 707.11076 227.130636 
L 707.11076 402.182869 
L 708.100401 227.130636 
L 708.972544 227.130636 
L 708.972544 402.182869 
L 709.955943 227.130636 
L 710.680046 227.130636 
L 710.680046 402.182869 
L 711.668299 227.130636 
L 712.808906 227.130636 
L 712.808906 402.182869 
L 713.184786 402.182869 
L 714.067951 402.182869 
L 714.067951 227.130636 
L 715.059191 227.130636 
L 715.364828 227.130636 
L 715.364828 402.182869 
L 716.359243 227.130636 
L 717.570371 227.130636 
L 717.570371 402.182869 
L 718.556263 227.130636 
L 719.947155 227.130636 
L 719.947155 402.182869 
L 720.937987 227.130636 
L 721.780688 227.130636 
L 721.780688 402.182869 
L 722.775255 402.182869 
L 723.507304 402.182869 
L 723.507304 227.130636 
L 724.493978 227.130636 
L 724.673172 227.130636 
L 724.673172 402.182869 
L 725.662038 402.182869 
L 726.462008 402.182869 
L 726.462008 227.130636 
L 727.458664 227.130636 
L 727.475071 227.130636 
L 727.475071 402.182869 
L 728.471941 227.130636 
L 729.052644 227.130636 
L 729.052644 402.182869 
L 729.567942 402.182869 
L 731.45571 402.182869 
L 731.45571 227.130636 
L 732.450741 402.182869 
L 732.720611 402.182869 
L 732.720611 227.130636 
L 733.323855 402.182869 
L 735.013419 402.182869 
L 735.013419 227.130636 
L 735.998082 227.130636 
L 737.683195 227.130636 
L 737.683195 402.182869 
L 738.681679 402.182869 
L 738.911378 402.182869 
L 738.911378 227.130636 
L 739.902039 227.130636 
L 741.02659 227.130636 
L 741.02659 402.182869 
L 742.025061 402.182869 
L 742.398708 402.182869 
L 742.398708 227.130636 
L 743.382849 227.130636 
L 744.561937 227.130636 
L 744.561937 402.182869 
L 745.554216 227.130636 
L 746.967425 227.130636 
L 746.967425 402.182869 
L 747.725983 402.182869 
L 748.533038 402.182869 
L 748.533038 227.130636 
L 749.519848 227.130636 
L 749.793487 227.130636 
L 749.793487 402.182869 
L 750.77678 227.130636 
L 750.984062 227.130636 
L 750.984062 402.182869 
L 751.691107 402.182869 
L 752.281255 402.182869 
L 752.281255 227.130636 
L 752.952229 402.182869 
L 756.336023 402.182869 
L 756.336023 227.130636 
L 757.326525 227.130636 
L 758.052205 227.130636 
L 758.052205 402.182869 
L 759.041499 227.130636 
L 760.377268 227.130636 
L 760.377268 402.182869 
L 761.365222 227.130636 
L 763.128045 227.130636 
L 763.128045 402.182869 
L 764.121981 227.130636 
L 765.653618 227.130636 
L 765.653618 402.182869 
L 766.650128 227.130636 
L 768.406208 227.130636 
L 768.406208 402.182869 
L 769.404529 227.130636 
L 770.326661 227.130636 
L 770.326661 402.182869 
L 771.189004 402.182869 
L 771.773315 402.182869 
L 771.773315 227.130636 
L 772.765471 227.130636 
L 773.173541 227.130636 
L 773.173541 402.182869 
L 774.157743 227.130636 
L 774.937064 227.130636 
L 774.937064 402.182869 
L 775.93513 227.130636 
L 777.079744 227.130636 
L 777.079744 402.182869 
L 778.063719 227.130636 
L 778.853323 227.130636 
L 778.853323 402.182869 
L 779.847287 227.130636 
L 780.73601 227.130636 
L 780.73601 402.182869 
L 781.726253 227.130636 
L 781.798615 227.130636 
L 781.798615 402.182869 
L 782.790766 402.182869 
L 782.808358 402.182869 
L 782.808358 227.130636 
L 783.797961 402.182869 
L 784.592317 402.182869 
L 784.592317 227.130636 
L 785.589038 402.182869 
L 785.655725 402.182869 
L 785.655725 227.130636 
L 786.653971 227.130636 
L 787.058322 227.130636 
L 787.058322 402.182869 
L 787.577589 221.602778 
L 788.032953 402.182869 
L 791.873029 402.182869 
L 791.873029 227.130636 
L 792.86975 402.182869 
L 793.213896 402.182869 
L 793.213896 227.130636 
L 794.140169 402.182869 
L 804.400965 402.182869 
L 804.400965 314.656752 
L 805.384527 314.656752 
L 805.630666 314.656752 
L 805.630666 402.182869 
L 806.620854 402.182869 
L 807.08755 402.182869 
L 807.08755 314.656752 
L 808.070686 314.656752 
L 808.246465 314.656752 
L 808.246465 402.182869 
L 809.230295 402.182869 
L 809.397679 402.182869 
L 809.397679 314.656752 
L 810.388062 314.656752 
L 810.546312 314.656752 
L 810.546312 402.182869 
L 811.530177 402.182869 
L 812.034967 402.182869 
L 812.034967 314.656752 
L 813.03213 314.656752 
L 813.207958 314.656752 
L 813.207958 402.182869 
L 814.206737 402.182869 
L 818.216074 402.182869 
L 818.658499 343.48202 
L 819.211646 343.48202 
L 840.834985 343.48202 
L 840.834985 402.182869 
L 841.825424 343.48202 
L 845.141062 343.48202 
L 845.141062 402.182869 
L 845.587224 341.519976 
L 845.874244 402.182869 
L 847.428634 402.182869 
L 847.428634 343.48202 
L 848.42275 343.48202 
L 850.26819 343.48202 
L 850.26819 402.182869 
L 851.253312 343.48202 
L 856.404052 343.48202 
L 856.404052 402.182869 
L 857.397883 343.48202 
L 857.500816 343.48202 
L 857.500816 402.182869 
L 858.484782 343.48202 
L 859.155615 343.48202 
L 859.155615 402.182869 
L 860.143406 343.48202 
L 864.397949 343.48202 
L 864.397949 402.182869 
L 865.396537 343.48202 
L 867.923127 343.48202 
L 867.923127 402.182869 
L 868.452137 402.182869 
L 872.041875 402.182869 
L 872.041875 343.48202 
L 873.032032 402.182869 
L 873.829129 402.182869 
L 873.829129 343.48202 
L 874.82612 402.182869 
L 875.263461 402.182869 
L 875.263461 343.48202 
L 875.893815 402.182869 
L 877.000037 402.182869 
L 877.000037 343.48202 
L 877.992484 343.48202 
L 878.570905 343.48202 
L 878.570905 402.182869 
L 879.567579 343.48202 
L 880.037394 343.48202 
L 880.037394 402.182869 
L 880.424601 402.182869 
L 881.793374 402.182869 
L 881.793374 343.48202 
L 882.790026 402.182869 
L 883.567787 402.182869 
L 883.567787 343.48202 
L 884.566921 402.182869 
L 884.967355 402.182869 
L 884.967355 343.48202 
L 885.650358 402.182869 
L 886.752991 402.182869 
L 886.752991 343.48202 
L 887.752721 343.48202 
L 887.76761 343.48202 
L 887.76761 402.182869 
L 888.764352 343.48202 
L 889.44073 343.48202 
L 889.44073 402.182869 
L 890.433243 343.48202 
L 890.998553 343.48202 
L 890.998553 402.182869 
L 891.983176 343.48202 
L 892.247967 343.48202 
L 892.247967 402.182869 
L 893.24146 343.48202 
L 893.753317 343.48202 
L 893.753317 402.182869 
L 894.746245 343.48202 
L 895.069733 343.48202 
L 895.069733 402.182869 
L 896.065272 343.48202 
L 896.499139 343.48202 
L 896.499139 402.182869 
L 897.498637 343.48202 
L 898.16125 343.48202 
L 898.16125 402.182869 
L 899.148354 343.48202 
L 899.996903 343.48202 
L 899.996903 402.182869 
L 900.996635 343.48202 
L 901.761356 343.48202 
L 901.761356 402.182869 
L 902.752835 343.48202 
L 903.925747 343.48202 
L 903.925747 402.182869 
L 904.912877 343.48202 
L 905.944369 343.48202 
L 905.944369 402.182869 
L 906.934366 343.48202 
L 907.55476 343.48202 
L 907.55476 402.182869 
L 908.549784 343.48202 
L 908.765516 343.48202 
L 908.765516 402.182869 
L 909.76493 343.48202 
L 910.232012 343.48202 
L 910.232012 402.182869 
L 911.221704 343.48202 
L 911.523608 343.48202 
L 911.523608 402.182869 
L 912.516798 343.48202 
L 912.932942 343.48202 
L 912.932942 402.182869 
L 913.928553 343.48202 
L 914.584202 343.48202 
L 914.584202 402.182869 
L 915.582099 343.48202 
L 916.282393 343.48202 
L 916.282393 402.182869 
L 917.268413 343.48202 
L 918.228549 343.48202 
L 918.228549 402.182869 
L 919.226759 343.48202 
L 920.45088 343.48202 
L 920.45088 402.182869 
L 921.437775 343.48202 
L 922.727474 343.48202 
L 922.727474 402.182869 
L 923.724338 343.48202 
L 925.217582 343.48202 
L 925.217582 402.182869 
L 926.207708 343.48202 
L 928.317621 343.48202 
L 928.317621 402.182869 
L 929.313631 343.48202 
L 931.7621 343.48202 
L 931.7621 402.182869 
L 932.750045 343.48202 
L 933.889156 343.48202 
L 933.889156 402.182869 
L 934.881327 343.48202 
L 935.486349 343.48202 
L 935.486349 402.182869 
L 936.48362 343.48202 
L 937.579247 343.48202 
L 937.579247 402.182869 
L 938.572013 343.48202 
L 939.969687 343.48202 
L 939.969687 402.182869 
L 940.969031 343.48202 
L 940.98976 343.48202 
L 940.98976 402.182869 
L 941.986663 343.48202 
L 942.41454 343.48202 
L 942.41454 402.182869 
L 942.797327 402.182869 
L 943.977506 402.182869 
L 943.977506 343.48202 
L 944.967554 343.48202 
L 945.981528 343.48202 
L 945.981528 402.182869 
L 946.979537 402.182869 
L 947.37446 402.182869 
L 947.37446 343.48202 
L 948.371849 402.182869 
L 948.389408 402.182869 
L 948.389408 343.48202 
L 949.375281 343.48202 
L 949.888341 343.48202 
L 949.888341 402.182869 
L 950.525214 402.182869 
L 952.307019 402.182869 
L 952.307019 343.48202 
L 953.303869 402.182869 
L 953.534656 402.182869 
L 953.534656 343.48202 
L 954.217128 402.182869 
L 955.884695 402.182869 
L 955.884695 343.48202 
L 956.88445 402.182869 
L 960.336583 402.182869 
L 960.336583 343.48202 
L 961.33628 343.48202 
L 962.759247 343.48202 
L 962.759247 402.182869 
L 963.753488 343.48202 
L 963.771097 343.48202 
L 963.771097 402.182869 
L 964.764484 343.48202 
L 966.893029 343.48202 
L 966.893029 402.182869 
L 967.881076 343.48202 
L 969.680345 343.48202 
L 969.680345 402.182869 
L 970.674134 343.48202 
L 972.212467 343.48202 
L 972.212467 402.182869 
L 973.210655 343.48202 
L 974.100109 343.48202 
L 974.100109 402.182869 
L 975.075661 402.182869 
L 975.230433 402.182869 
L 975.230433 343.48202 
L 976.227188 402.182869 
L 976.844853 402.182869 
L 976.844853 343.48202 
L 977.497728 402.182869 
L 979.476967 402.182869 
L 979.476967 343.48202 
L 980.46138 343.48202 
L 980.868437 343.48202 
L 980.868437 402.182869 
L 981.864034 343.48202 
L 981.934356 343.48202 
L 981.934356 402.182869 
L 982.487295 341.533397 
L 982.888033 402.182869 
L 984.390392 402.182869 
L 984.390392 343.48202 
L 985.389359 343.48202 
L 985.582454 343.48202 
L 985.582454 402.182869 
L 986.567448 343.48202 
L 987.73805 343.48202 
L 987.73805 402.182869 
L 988.724097 343.48202 
L 989.611869 343.48202 
L 989.611869 402.182869 
L 990.605141 343.48202 
L 991.811849 343.48202 
L 991.811849 402.182869 
L 992.802446 343.48202 
L 993.532135 343.48202 
L 993.532135 402.182869 
L 994.519487 343.48202 
L 995.645818 343.48202 
L 995.645818 402.182869 
L 996.637751 343.48202 
L 997.432612 343.48202 
L 997.432612 402.182869 
L 998.421111 343.48202 
L 999.530831 343.48202 
L 999.530831 402.182869 
L 1000.524012 343.48202 
L 1001.447608 343.48202 
L 1001.447608 402.182869 
L 1002.445692 343.48202 
L 1003.728737 343.48202 
L 1003.728737 402.182869 
L 1004.721838 402.182869 
L 1005.062574 402.182869 
L 1005.062574 343.48202 
L 1006.0573 402.182869 
L 1006.662983 402.182869 
L 1006.662983 343.48202 
L 1007.656952 402.182869 
L 1007.84657 402.182869 
L 1007.84657 343.48202 
L 1008.7697 402.182869 
L 1009.066925 402.182869 
L 1009.066925 343.48202 
L 1010.064362 402.182869 
L 1010.497678 402.182869 
L 1010.497678 343.48202 
L 1011.303362 402.182869 
L 1012.80806 402.182869 
L 1012.80806 343.48202 
L 1013.704117 402.182869 
L 1014.654928 402.182869 
L 1014.654928 343.48202 
L 1015.651525 343.48202 
L 1015.672658 343.48202 
L 1015.672658 402.182869 
L 1016.659151 343.48202 
L 1017.065843 343.48202 
L 1017.065843 402.182869 
L 1018.051169 343.48202 
L 1018.389143 343.48202 
L 1018.389143 402.182869 
L 1018.913059 402.182869 
L 1026.614047 402.182869 
L 1026.614047 343.832124 
L 1029.075722 343.686248 
L 1029.075722 139.604519 
L 1030.975881 140.472778 
L 1031.332033 346.19533 
L 1031.959315 308.121469 
L 1032.048788 308.121469 
L 1032.765862 144.330929 
L 1032.945889 357.252796 
L 1033.297499 357.252796 
L 1033.297499 402.182869 
L 1042.667637 402.182869 
L 1042.667637 343.832124 
L 1045.129311 343.686248 
L 1045.129311 139.604519 
L 1047.02947 139.690878 
L 1047.385552 346.19533 
L 1048.013539 308.063118 
L 1048.102989 308.063118 
L 1048.819664 144.272578 
L 1048.999469 357.311146 
L 1049.351079 357.311146 
L 1049.351079 402.182869 
L 1058.721217 402.182869 
L 1058.721217 343.832124 
L 1061.182891 343.686248 
L 1061.182891 139.604519 
L 1063.083051 139.958708 
L 1063.439273 346.19533 
L 1064.067124 308.033943 
L 1064.156637 308.033943 
L 1064.873175 144.272578 
L 1065.053047 357.311146 
L 1065.404657 357.311146 
L 1065.404657 402.182869 
L 1074.774795 402.182869 
L 1074.774795 343.832124 
L 1076.324327 343.832124 
L 1076.324327 402.03685 
L 1077.236469 139.604519 
L 1079.136628 140.472778 
L 1079.49271 346.19533 
L 1080.120697 308.063118 
L 1080.210147 308.063118 
L 1080.926822 144.272578 
L 1081.106627 357.311146 
L 1081.458237 357.311146 
L 1081.458237 402.182869 
L 1090.828375 402.182869 
L 1090.828375 343.832124 
L 1093.290049 343.686248 
L 1093.290049 139.604519 
L 1095.190209 139.690878 
L 1095.190209 402.182869 
L 1096.174277 308.063118 
L 1096.263728 308.063118 
L 1096.800705 187.714708 
L 1096.980403 358.74074 
L 1097.160208 357.311146 
L 1097.511818 357.311146 
L 1097.511818 402.182869 
L 1109.343629 402.036961 
L 1109.343629 198.10114 
L 1110.959558 198.10114 
L 1111.243789 402.182869 
L 1111.242511 197.166945 
L 1111.959239 396.464525 
L 1112.04878 396.464525 
L 1113.033913 358.74074 
L 1113.213785 358.74074 
L 1113.213785 357.311146 
L 1113.565395 402.182869 
L 1132.83107 402.182869 
L 1132.83107 402.182869 
" clip-path="url(#p9d8460f15c)" style="fill: none; stroke: #000000; stroke-width: 0.8; stroke-linecap: square"/>
   </g>
  </g>
  <g id="axes_2">
   <g id="matplotlib.axis_3">
    <g id="xtick_8">
     <g id="line2d_28">
      <defs>
       <path id="mffaeec6d69" d="M 0 0 
L 0 -3.5 
" style="stroke: #000000; stroke-width: 0.8"/>
      </defs>
      <g>
       <use xlink:href="#mffaeec6d69" x="147.658722" y="83.150174" style="stroke: #000000; stroke-width: 0.8"/>
      </g>
     </g>
     <g id="text_17">
      <!-- N140 -->
      <g transform="translate(151.547809 75.443067) rotate(-45) scale(0.08 -0.08)">
       <defs>
        <path id="SimHei-4e" d="M 2850 125 
L 2225 125 
L 850 3225 
L 825 3225 
L 825 125 
L 250 125 
L 250 4400 
L 875 4400 
L 2250 1300 
L 2275 1300 
L 2275 4400 
L 2850 4400 
L 2850 125 
z
" transform="scale(0.015625)"/>
       </defs>
       <use xlink:href="#SimHei-4e"/>
       <use xlink:href="#SimHei-31" transform="translate(50 0)"/>
       <use xlink:href="#SimHei-34" transform="translate(100 0)"/>
       <use xlink:href="#SimHei-30" transform="translate(150 0)"/>
      </g>
     </g>
    </g>
    <g id="xtick_9">
     <g id="line2d_29">
      <g>
       <use xlink:href="#mffaeec6d69" x="245.695572" y="83.150174" style="stroke: #000000; stroke-width: 0.8"/>
      </g>
     </g>
     <g id="text_18">
      <!-- N1050 -->
      <g transform="translate(249.58466 75.443067) rotate(-45) scale(0.08 -0.08)">
       <use xlink:href="#SimHei-4e"/>
       <use xlink:href="#SimHei-31" transform="translate(50 0)"/>
       <use xlink:href="#SimHei-30" transform="translate(100 0)"/>
       <use xlink:href="#SimHei-35" transform="translate(150 0)"/>
       <use xlink:href="#SimHei-30" transform="translate(200 0)"/>
      </g>
     </g>
    </g>
    <g id="xtick_10">
     <g id="line2d_30">
      <g>
       <use xlink:href="#mffaeec6d69" x="309.804132" y="83.150174" style="stroke: #000000; stroke-width: 0.8"/>
      </g>
     </g>
     <g id="text_19">
      <!-- N7090.17 -->
      <g transform="translate(313.69322 75.443067) rotate(-45) scale(0.08 -0.08)">
       <defs>
        <path id="SimHei-37" d="M 850 150 
Q 1300 2050 2425 3925 
L 275 3925 
L 275 4375 
L 2950 4375 
L 2950 3950 
Q 1775 2050 1400 150 
L 850 150 
z
" transform="scale(0.015625)"/>
        <path id="SimHei-39" d="M 800 75 
Q 1350 1000 1700 1750 
Q 1075 1650 662 1912 
Q 250 2175 162 2625 
Q 75 3075 175 3437 
Q 275 3800 487 4037 
Q 700 4275 1000 4375 
Q 1300 4475 1537 4475 
Q 1775 4475 2025 4375 
Q 2275 4275 2475 4075 
Q 2675 3875 2750 3662 
Q 2825 3450 2825 3112 
Q 2825 2775 2575 2250 
Q 2325 1725 1350 75 
L 800 75 
z
M 662 2875 
Q 700 2550 937 2337 
Q 1175 2125 1450 2150 
Q 1725 2175 1887 2300 
Q 2050 2425 2200 2725 
Q 2300 3100 2250 3362 
Q 2200 3625 1987 3800 
Q 1775 3975 1525 3975 
Q 1375 4000 1137 3900 
Q 900 3800 762 3500 
Q 625 3200 662 2875 
z
" transform="scale(0.015625)"/>
        <path id="SimHei-2e" d="M 1075 125 
L 500 125 
L 500 675 
L 1075 675 
L 1075 125 
z
" transform="scale(0.015625)"/>
       </defs>
       <use xlink:href="#SimHei-4e"/>
       <use xlink:href="#SimHei-37" transform="translate(50 0)"/>
       <use xlink:href="#SimHei-30" transform="translate(100 0)"/>
       <use xlink:href="#SimHei-39" transform="translate(150 0)"/>
       <use xlink:href="#SimHei-30" transform="translate(200 0)"/>
       <use xlink:href="#SimHei-2e" transform="translate(250 0)"/>
       <use xlink:href="#SimHei-31" transform="translate(300 0)"/>
       <use xlink:href="#SimHei-37" transform="translate(350 0)"/>
      </g>
     </g>
    </g>
    <g id="xtick_11">
     <g id="line2d_31">
      <g>
       <use xlink:href="#mffaeec6d69" x="384.776493" y="83.150174" style="stroke: #000000; stroke-width: 0.8"/>
      </g>
     </g>
     <g id="text_20">
      <!-- N2250 -->
      <g transform="translate(388.66558 75.443067) rotate(-45) scale(0.08 -0.08)">
       <use xlink:href="#SimHei-4e"/>
       <use xlink:href="#SimHei-32" transform="translate(50 0)"/>
       <use xlink:href="#SimHei-32" transform="translate(100 0)"/>
       <use xlink:href="#SimHei-35" transform="translate(150 0)"/>
       <use xlink:href="#SimHei-30" transform="translate(200 0)"/>
      </g>
     </g>
    </g>
    <g id="xtick_12">
     <g id="line2d_32">
      <g>
       <use xlink:href="#mffaeec6d69" x="461.819403" y="83.150174" style="stroke: #000000; stroke-width: 0.8"/>
      </g>
     </g>
     <g id="text_21">
      <!-- N2940 -->
      <g transform="translate(465.708491 75.443067) rotate(-45) scale(0.08 -0.08)">
       <use xlink:href="#SimHei-4e"/>
       <use xlink:href="#SimHei-32" transform="translate(50 0)"/>
       <use xlink:href="#SimHei-39" transform="translate(100 0)"/>
       <use xlink:href="#SimHei-34" transform="translate(150 0)"/>
       <use xlink:href="#SimHei-30" transform="translate(200 0)"/>
      </g>
     </g>
    </g>
    <g id="xtick_13">
     <g id="line2d_33">
      <g>
       <use xlink:href="#mffaeec6d69" x="524.899378" y="83.150174" style="stroke: #000000; stroke-width: 0.8"/>
      </g>
     </g>
     <g id="text_22">
      <!-- N8760.10 -->
      <g transform="translate(528.788465 75.443067) rotate(-45) scale(0.08 -0.08)">
       <use xlink:href="#SimHei-4e"/>
       <use xlink:href="#SimHei-38" transform="translate(50 0)"/>
       <use xlink:href="#SimHei-37" transform="translate(100 0)"/>
       <use xlink:href="#SimHei-36" transform="translate(150 0)"/>
       <use xlink:href="#SimHei-30" transform="translate(200 0)"/>
       <use xlink:href="#SimHei-2e" transform="translate(250 0)"/>
       <use xlink:href="#SimHei-31" transform="translate(300 0)"/>
       <use xlink:href="#SimHei-30" transform="translate(350 0)"/>
      </g>
     </g>
    </g>
    <g id="xtick_14">
     <g id="line2d_34">
      <g>
       <use xlink:href="#mffaeec6d69" x="601.173203" y="83.150174" style="stroke: #000000; stroke-width: 0.8"/>
      </g>
     </g>
     <g id="text_23">
      <!-- N3940.2 -->
      <g transform="translate(605.06229 75.443067) rotate(-45) scale(0.08 -0.08)">
       <use xlink:href="#SimHei-4e"/>
       <use xlink:href="#SimHei-33" transform="translate(50 0)"/>
       <use xlink:href="#SimHei-39" transform="translate(100 0)"/>
       <use xlink:href="#SimHei-34" transform="translate(150 0)"/>
       <use xlink:href="#SimHei-30" transform="translate(200 0)"/>
       <use xlink:href="#SimHei-2e" transform="translate(250 0)"/>
       <use xlink:href="#SimHei-32" transform="translate(300 0)"/>
      </g>
     </g>
    </g>
    <g id="xtick_15">
     <g id="line2d_35">
      <g>
       <use xlink:href="#mffaeec6d69" x="674.840718" y="83.150174" style="stroke: #000000; stroke-width: 0.8"/>
      </g>
     </g>
     <g id="text_24">
      <!-- N2400.17 -->
      <g transform="translate(678.729806 75.443067) rotate(-45) scale(0.08 -0.08)">
       <use xlink:href="#SimHei-4e"/>
       <use xlink:href="#SimHei-32" transform="translate(50 0)"/>
       <use xlink:href="#SimHei-34" transform="translate(100 0)"/>
       <use xlink:href="#SimHei-30" transform="translate(150 0)"/>
       <use xlink:href="#SimHei-30" transform="translate(200 0)"/>
       <use xlink:href="#SimHei-2e" transform="translate(250 0)"/>
       <use xlink:href="#SimHei-31" transform="translate(300 0)"/>
       <use xlink:href="#SimHei-37" transform="translate(350 0)"/>
      </g>
     </g>
    </g>
    <g id="xtick_16">
     <g id="line2d_36">
      <g>
       <use xlink:href="#mffaeec6d69" x="736.524962" y="83.150174" style="stroke: #000000; stroke-width: 0.8"/>
      </g>
     </g>
     <g id="text_25">
      <!-- N6770 -->
      <g transform="translate(740.41405 75.443067) rotate(-45) scale(0.08 -0.08)">
       <use xlink:href="#SimHei-4e"/>
       <use xlink:href="#SimHei-36" transform="translate(50 0)"/>
       <use xlink:href="#SimHei-37" transform="translate(100 0)"/>
       <use xlink:href="#SimHei-37" transform="translate(150 0)"/>
       <use xlink:href="#SimHei-30" transform="translate(200 0)"/>
      </g>
     </g>
    </g>
    <g id="xtick_17">
     <g id="line2d_37">
      <g>
       <use xlink:href="#mffaeec6d69" x="814.25905" y="83.150174" style="stroke: #000000; stroke-width: 0.8"/>
      </g>
     </g>
     <g id="text_26">
      <!-- N3310 -->
      <g transform="translate(818.148137 75.443067) rotate(-45) scale(0.08 -0.08)">
       <use xlink:href="#SimHei-4e"/>
       <use xlink:href="#SimHei-33" transform="translate(50 0)"/>
       <use xlink:href="#SimHei-33" transform="translate(100 0)"/>
       <use xlink:href="#SimHei-31" transform="translate(150 0)"/>
       <use xlink:href="#SimHei-30" transform="translate(200 0)"/>
      </g>
     </g>
    </g>
    <g id="xtick_18">
     <g id="line2d_38">
      <g>
       <use xlink:href="#mffaeec6d69" x="893.366202" y="83.150174" style="stroke: #000000; stroke-width: 0.8"/>
      </g>
     </g>
     <g id="text_27">
      <!-- N2720 -->
      <g transform="translate(897.255289 75.443067) rotate(-45) scale(0.08 -0.08)">
       <use xlink:href="#SimHei-4e"/>
       <use xlink:href="#SimHei-32" transform="translate(50 0)"/>
       <use xlink:href="#SimHei-37" transform="translate(100 0)"/>
       <use xlink:href="#SimHei-32" transform="translate(150 0)"/>
       <use xlink:href="#SimHei-30" transform="translate(200 0)"/>
      </g>
     </g>
    </g>
    <g id="xtick_19">
     <g id="line2d_39">
      <g>
       <use xlink:href="#mffaeec6d69" x="952.248636" y="83.150174" style="stroke: #000000; stroke-width: 0.8"/>
      </g>
     </g>
     <g id="text_28">
      <!-- N6820 -->
      <g transform="translate(956.137723 75.443067) rotate(-45) scale(0.08 -0.08)">
       <use xlink:href="#SimHei-4e"/>
       <use xlink:href="#SimHei-36" transform="translate(50 0)"/>
       <use xlink:href="#SimHei-38" transform="translate(100 0)"/>
       <use xlink:href="#SimHei-32" transform="translate(150 0)"/>
       <use xlink:href="#SimHei-30" transform="translate(200 0)"/>
      </g>
     </g>
    </g>
    <g id="xtick_20">
     <g id="line2d_40">
      <g>
       <use xlink:href="#mffaeec6d69" x="1128.549734" y="83.150174" style="stroke: #000000; stroke-width: 0.8"/>
      </g>
     </g>
     <g id="text_29">
      <!-- N0 -->
      <g transform="translate(1132.438822 75.443067) rotate(-45) scale(0.08 -0.08)">
       <use xlink:href="#SimHei-4e"/>
       <use xlink:href="#SimHei-30" transform="translate(50 0)"/>
      </g>
     </g>
    </g>
    <g id="text_30">
     <!-- 指令行号 N -->
     <g transform="translate(669.429375 44.926562) scale(0.1 -0.1)">
      <defs>
       <path id="SimHei-6307" d="M 5625 2225 
Q 5600 1925 5600 1350 
L 5600 300 
Q 5600 -225 5625 -525 
L 5125 -525 
L 5125 -125 
L 3300 -125 
L 3300 -625 
L 2800 -625 
Q 2825 -300 2825 300 
L 2825 1350 
Q 2825 1925 2800 2225 
L 5625 2225 
z
M 500 25 
Q 1075 -25 1175 37 
Q 1275 100 1275 275 
L 1275 1675 
Q 1050 1600 925 1537 
Q 800 1475 475 1275 
Q 400 1525 225 1800 
Q 625 1900 825 1975 
Q 1025 2050 1275 2125 
L 1275 3300 
L 1100 3300 
Q 775 3300 450 3275 
L 450 3725 
Q 750 3700 1100 3700 
L 1275 3700 
L 1275 4450 
Q 1275 4800 1250 5125 
L 1775 5125 
Q 1750 4850 1750 4450 
L 1750 3700 
Q 2075 3700 2425 3725 
L 2425 3275 
Q 2050 3300 1750 3300 
L 1750 2325 
Q 1850 2350 2025 2425 
L 2375 2575 
Q 2350 2300 2375 2100 
Q 2225 2050 2062 1987 
Q 1900 1925 1750 1850 
L 1750 100 
Q 1725 -200 1575 -337 
Q 1425 -475 675 -525 
Q 625 -250 500 25 
z
M 3325 5025 
Q 3300 4675 3300 4125 
Q 4125 4275 4512 4412 
Q 4900 4550 5225 4725 
Q 5325 4475 5575 4250 
Q 5450 4225 5237 4175 
Q 5025 4125 4725 4050 
Q 4425 3975 4037 3887 
Q 3650 3800 3300 3725 
L 3300 3175 
Q 3275 2925 3700 2925 
L 4925 2925 
Q 5300 2925 5387 3087 
Q 5475 3250 5550 3600 
Q 5750 3400 6050 3300 
Q 5825 2725 5700 2637 
Q 5575 2550 5275 2525 
L 3350 2525 
Q 3050 2525 2937 2687 
Q 2825 2850 2825 2975 
L 2825 4125 
Q 2825 4775 2800 5025 
L 3325 5025 
z
M 5125 275 
L 5125 875 
L 3300 875 
L 3300 275 
L 5125 275 
z
M 5125 1250 
L 5125 1825 
L 3300 1825 
L 3300 1250 
L 5125 1250 
z
" transform="scale(0.015625)"/>
       <path id="SimHei-4ee4" d="M 5375 2075 
L 5375 1550 
Q 4925 1325 4450 937 
Q 3975 550 3575 125 
L 4250 -325 
Q 4050 -550 3875 -775 
Q 3100 -125 1850 425 
L 2150 875 
Q 2400 775 3125 350 
Q 3800 1025 4450 1625 
L 2025 1625 
Q 1500 1625 975 1600 
L 975 2100 
Q 1525 2075 2025 2075 
L 5375 2075 
z
M 3375 4850 
Q 4450 3550 6200 2900 
Q 5950 2625 5800 2350 
Q 4150 3150 3100 4475 
Q 2075 3125 625 2225 
Q 400 2525 200 2700 
Q 875 2975 1675 3675 
Q 2475 4375 2950 5300 
Q 3275 5175 3550 5050 
Q 3475 5000 3375 4850 
z
M 2925 3600 
Q 3175 3350 3750 2725 
L 3300 2325 
Q 3050 2700 2550 3225 
Q 2750 3375 2925 3600 
z
" transform="scale(0.015625)"/>
       <path id="SimHei-53f7" d="M 5025 4925 
Q 5000 4550 5000 4075 
Q 5000 3600 5025 3175 
L 1400 3175 
Q 1425 3525 1425 4000 
Q 1425 4500 1400 4925 
L 5025 4925 
z
M 5175 2625 
Q 5650 2625 6025 2650 
L 6025 2200 
Q 5650 2225 5175 2225 
L 2450 2225 
Q 2350 1875 2225 1450 
L 5175 1450 
Q 5100 1050 5062 775 
Q 5025 500 4950 112 
Q 4875 -275 4650 -412 
Q 4425 -550 3225 -625 
Q 3125 -350 2975 -50 
Q 3875 -75 4112 -50 
Q 4350 -25 4425 212 
Q 4500 450 4575 1025 
L 1600 1025 
Q 1825 1625 1950 2225 
L 1350 2225 
Q 825 2225 375 2200 
L 375 2650 
Q 825 2625 1350 2625 
L 5175 2625 
z
M 4525 3575 
L 4525 4525 
L 1900 4525 
L 1900 3575 
L 4525 3575 
z
" transform="scale(0.015625)"/>
      </defs>
      <use xlink:href="#SimHei-6307"/>
      <use xlink:href="#SimHei-4ee4" transform="translate(100 0)"/>
      <use xlink:href="#SimHei-884c" transform="translate(200 0)"/>
      <use xlink:href="#SimHei-53f7" transform="translate(300 0)"/>
      <use xlink:href="#SimHei-20" transform="translate(400 0)"/>
      <use xlink:href="#SimHei-4e" transform="translate(450 0)"/>
     </g>
    </g>
   </g>
   <g id="patch_7">
    <path d="M 44.215625 429.753596 
L 44.215625 83.150174 
" style="fill: none; stroke: #000000; stroke-width: 0.8; stroke-linejoin: miter; stroke-linecap: square"/>
   </g>
   <g id="patch_8">
    <path d="M 1344.643125 429.753596 
L 1344.643125 83.150174 
" style="fill: none; stroke: #000000; stroke-width: 0.8; stroke-linejoin: miter; stroke-linecap: square"/>
   </g>
   <g id="patch_9">
    <path d="M 44.215625 429.753596 
L 1344.643125 429.753596 
" style="fill: none; stroke: #000000; stroke-width: 0.8; stroke-linejoin: miter; stroke-linecap: square"/>
   </g>
   <g id="patch_10">
    <path d="M 44.215625 83.150174 
L 1344.643125 83.150174 
" style="fill: none; stroke: #000000; stroke-width: 0.8; stroke-linejoin: miter; stroke-linecap: square"/>
   </g>
  </g>
 </g>
 <defs>
  <clipPath id="p9d8460f15c">
   <rect x="44.215625" y="83.150174" width="1300.4275" height="346.603422"/>
  </clipPath>
 </defs>
</svg>
