<?xml version="1.0" encoding="utf-8" standalone="no"?>
<!DOCTYPE svg PUBLIC "-//W3C//DTD SVG 1.1//EN"
  "http://www.w3.org/Graphics/SVG/1.1/DTD/svg11.dtd">
<svg xmlns:xlink="http://www.w3.org/1999/xlink" width="1385.416863pt" height="583.856333pt" viewBox="0 0 1385.416863 583.856333" xmlns="http://www.w3.org/2000/svg" version="1.1">
 <metadata>
  <rdf:RDF xmlns:dc="http://purl.org/dc/elements/1.1/" xmlns:cc="http://creativecommons.org/ns#" xmlns:rdf="http://www.w3.org/1999/02/22-rdf-syntax-ns#">
   <cc:Work>
    <dc:type rdf:resource="http://purl.org/dc/dcmitype/StillImage"/>
    <dc:date>2025-12-24T14:43:09.780112</dc:date>
    <dc:format>image/svg+xml</dc:format>
    <dc:creator>
     <cc:Agent>
      <dc:title>Matplotlib v3.10.7, https://matplotlib.org/</dc:title>
     </cc:Agent>
    </dc:creator>
   </cc:Work>
  </rdf:RDF>
 </metadata>
 <defs>
  <style type="text/css">*{stroke-linejoin: round; stroke-linecap: butt}</style>
 </defs>
 <g id="figure_1">
  <g id="patch_1">
   <path d="M -0 583.856333 
L 1385.416863 583.856333 
L 1385.416863 0 
L -0 0 
z
" style="fill: #ffffff"/>
  </g>
  <g id="axes_1">
   <g id="patch_2">
    <path d="M 44.215625 542.02352 
L 1378.216863 542.02352 
L 1378.216863 83.150174 
L 44.215625 83.150174 
z
" style="fill: #ffffff"/>
   </g>
   <g id="matplotlib.axis_1">
    <g id="xtick_1">
     <g id="line2d_1">
      <path d="M 134.236016 542.02352 
L 134.236016 83.150174 
" clip-path="url(#pc8653e5245)" style="fill: none; stroke-dasharray: 1.85,0.8; stroke-dashoffset: 0; stroke: #b0b0b0; stroke-opacity: 0.3; stroke-width: 0.5"/>
     </g>
     <g id="line2d_2">
      <defs>
       <path id="md2dc661d6f" d="M 0 0 
L 0 3.5 
" style="stroke: #333333; stroke-width: 0.8"/>
      </defs>
      <g>
       <use xlink:href="#md2dc661d6f" x="134.236016" y="542.02352" style="fill: #333333; stroke: #333333; stroke-width: 0.8"/>
      </g>
     </g>
     <g id="text_1">
      <!-- 0 -->
      <g style="fill: #333333" transform="translate(130.986016 557.96102) scale(0.13 -0.13)">
       <defs>
        <path id="SimHei-30" d="M 225 2537 
Q 250 3200 412 3587 
Q 575 3975 875 4225 
Q 1175 4475 1612 4475 
Q 2050 4475 2375 4112 
Q 2700 3750 2800 3200 
Q 2900 2650 2862 1937 
Q 2825 1225 2612 775 
Q 2400 325 1975 150 
Q 1550 -25 1125 187 
Q 700 400 525 750 
Q 350 1100 275 1487 
Q 200 1875 225 2537 
z
M 750 2687 
Q 675 2000 800 1462 
Q 925 925 1212 700 
Q 1500 475 1800 612 
Q 2100 750 2237 1162 
Q 2375 1575 2375 2062 
Q 2375 2550 2337 2950 
Q 2300 3350 2112 3675 
Q 1925 4000 1612 4012 
Q 1300 4025 1062 3700 
Q 825 3375 750 2687 
z
" transform="scale(0.015625)"/>
       </defs>
       <use xlink:href="#SimHei-30"/>
      </g>
     </g>
    </g>
    <g id="xtick_2">
     <g id="line2d_3">
      <path d="M 314.579819 542.02352 
L 314.579819 83.150174 
" clip-path="url(#pc8653e5245)" style="fill: none; stroke-dasharray: 1.85,0.8; stroke-dashoffset: 0; stroke: #b0b0b0; stroke-opacity: 0.3; stroke-width: 0.5"/>
     </g>
     <g id="line2d_4">
      <g>
       <use xlink:href="#md2dc661d6f" x="314.579819" y="542.02352" style="fill: #333333; stroke: #333333; stroke-width: 0.8"/>
      </g>
     </g>
     <g id="text_2">
      <!-- 5000 -->
      <g style="fill: #333333" transform="translate(301.579819 557.96102) scale(0.13 -0.13)">
       <defs>
        <path id="SimHei-35" d="M 550 1325 
Q 725 650 1150 575 
Q 1575 500 1837 662 
Q 2100 825 2212 1087 
Q 2325 1350 2312 1675 
Q 2300 2000 2137 2225 
Q 1975 2450 1725 2525 
Q 1475 2600 1162 2525 
Q 850 2450 650 2175 
L 225 2225 
Q 275 2375 700 4375 
L 2675 4375 
L 2675 3925 
L 1075 3925 
Q 950 3250 825 2850 
Q 1200 3025 1525 3012 
Q 1850 3000 2150 2862 
Q 2450 2725 2587 2487 
Q 2725 2250 2787 2012 
Q 2850 1775 2837 1500 
Q 2825 1225 2725 937 
Q 2625 650 2425 462 
Q 2225 275 1937 162 
Q 1650 50 1275 75 
Q 900 100 562 350 
Q 225 600 100 1200 
L 550 1325 
z
" transform="scale(0.015625)"/>
       </defs>
       <use xlink:href="#SimHei-35"/>
       <use xlink:href="#SimHei-30" transform="translate(50 0)"/>
       <use xlink:href="#SimHei-30" transform="translate(100 0)"/>
       <use xlink:href="#SimHei-30" transform="translate(150 0)"/>
      </g>
     </g>
    </g>
    <g id="xtick_3">
     <g id="line2d_5">
      <path d="M 494.923622 542.02352 
L 494.923622 83.150174 
" clip-path="url(#pc8653e5245)" style="fill: none; stroke-dasharray: 1.85,0.8; stroke-dashoffset: 0; stroke: #b0b0b0; stroke-opacity: 0.3; stroke-width: 0.5"/>
     </g>
     <g id="line2d_6">
      <g>
       <use xlink:href="#md2dc661d6f" x="494.923622" y="542.02352" style="fill: #333333; stroke: #333333; stroke-width: 0.8"/>
      </g>
     </g>
     <g id="text_3">
      <!-- 10000 -->
      <g style="fill: #333333" transform="translate(478.673622 557.96102) scale(0.13 -0.13)">
       <defs>
        <path id="SimHei-31" d="M 1400 3600 
Q 1075 3275 575 2975 
L 575 3450 
Q 1200 3875 1600 4450 
L 1900 4450 
L 1900 150 
L 1400 150 
L 1400 3600 
z
" transform="scale(0.015625)"/>
       </defs>
       <use xlink:href="#SimHei-31"/>
       <use xlink:href="#SimHei-30" transform="translate(50 0)"/>
       <use xlink:href="#SimHei-30" transform="translate(100 0)"/>
       <use xlink:href="#SimHei-30" transform="translate(150 0)"/>
       <use xlink:href="#SimHei-30" transform="translate(200 0)"/>
      </g>
     </g>
    </g>
    <g id="xtick_4">
     <g id="line2d_7">
      <path d="M 675.267426 542.02352 
L 675.267426 83.150174 
" clip-path="url(#pc8653e5245)" style="fill: none; stroke-dasharray: 1.85,0.8; stroke-dashoffset: 0; stroke: #b0b0b0; stroke-opacity: 0.3; stroke-width: 0.5"/>
     </g>
     <g id="line2d_8">
      <g>
       <use xlink:href="#md2dc661d6f" x="675.267426" y="542.02352" style="fill: #333333; stroke: #333333; stroke-width: 0.8"/>
      </g>
     </g>
     <g id="text_4">
      <!-- 15000 -->
      <g style="fill: #333333" transform="translate(659.017426 557.96102) scale(0.13 -0.13)">
       <use xlink:href="#SimHei-31"/>
       <use xlink:href="#SimHei-35" transform="translate(50 0)"/>
       <use xlink:href="#SimHei-30" transform="translate(100 0)"/>
       <use xlink:href="#SimHei-30" transform="translate(150 0)"/>
       <use xlink:href="#SimHei-30" transform="translate(200 0)"/>
      </g>
     </g>
    </g>
    <g id="xtick_5">
     <g id="line2d_9">
      <path d="M 855.611229 542.02352 
L 855.611229 83.150174 
" clip-path="url(#pc8653e5245)" style="fill: none; stroke-dasharray: 1.85,0.8; stroke-dashoffset: 0; stroke: #b0b0b0; stroke-opacity: 0.3; stroke-width: 0.5"/>
     </g>
     <g id="line2d_10">
      <g>
       <use xlink:href="#md2dc661d6f" x="855.611229" y="542.02352" style="fill: #333333; stroke: #333333; stroke-width: 0.8"/>
      </g>
     </g>
     <g id="text_5">
      <!-- 20000 -->
      <g style="fill: #333333" transform="translate(839.361229 557.96102) scale(0.13 -0.13)">
       <defs>
        <path id="SimHei-32" d="M 300 250 
Q 325 625 650 925 
Q 975 1225 1475 1862 
Q 1975 2500 2125 2850 
Q 2275 3200 2237 3450 
Q 2200 3700 2000 3862 
Q 1800 4025 1537 4000 
Q 1275 3975 1037 3800 
Q 800 3625 675 3275 
L 200 3350 
Q 400 3925 712 4187 
Q 1025 4450 1450 4475 
Q 1700 4500 1900 4462 
Q 2100 4425 2312 4287 
Q 2525 4150 2662 3875 
Q 2800 3600 2762 3212 
Q 2725 2825 2375 2287 
Q 2025 1750 1025 600 
L 2825 600 
L 2825 150 
L 300 150 
L 300 250 
z
" transform="scale(0.015625)"/>
       </defs>
       <use xlink:href="#SimHei-32"/>
       <use xlink:href="#SimHei-30" transform="translate(50 0)"/>
       <use xlink:href="#SimHei-30" transform="translate(100 0)"/>
       <use xlink:href="#SimHei-30" transform="translate(150 0)"/>
       <use xlink:href="#SimHei-30" transform="translate(200 0)"/>
      </g>
     </g>
    </g>
    <g id="xtick_6">
     <g id="line2d_11">
      <path d="M 1035.955032 542.02352 
L 1035.955032 83.150174 
" clip-path="url(#pc8653e5245)" style="fill: none; stroke-dasharray: 1.85,0.8; stroke-dashoffset: 0; stroke: #b0b0b0; stroke-opacity: 0.3; stroke-width: 0.5"/>
     </g>
     <g id="line2d_12">
      <g>
       <use xlink:href="#md2dc661d6f" x="1035.955032" y="542.02352" style="fill: #333333; stroke: #333333; stroke-width: 0.8"/>
      </g>
     </g>
     <g id="text_6">
      <!-- 25000 -->
      <g style="fill: #333333" transform="translate(1019.705032 557.96102) scale(0.13 -0.13)">
       <use xlink:href="#SimHei-32"/>
       <use xlink:href="#SimHei-35" transform="translate(50 0)"/>
       <use xlink:href="#SimHei-30" transform="translate(100 0)"/>
       <use xlink:href="#SimHei-30" transform="translate(150 0)"/>
       <use xlink:href="#SimHei-30" transform="translate(200 0)"/>
      </g>
     </g>
    </g>
    <g id="xtick_7">
     <g id="line2d_13">
      <path d="M 1216.298835 542.02352 
L 1216.298835 83.150174 
" clip-path="url(#pc8653e5245)" style="fill: none; stroke-dasharray: 1.85,0.8; stroke-dashoffset: 0; stroke: #b0b0b0; stroke-opacity: 0.3; stroke-width: 0.5"/>
     </g>
     <g id="line2d_14">
      <g>
       <use xlink:href="#md2dc661d6f" x="1216.298835" y="542.02352" style="fill: #333333; stroke: #333333; stroke-width: 0.8"/>
      </g>
     </g>
     <g id="text_7">
      <!-- 30000 -->
      <g style="fill: #333333" transform="translate(1200.048835 557.96102) scale(0.13 -0.13)">
       <defs>
        <path id="SimHei-33" d="M 250 1225 
L 700 1300 
Q 800 975 1025 762 
Q 1250 550 1587 562 
Q 1925 575 2125 837 
Q 2325 1100 2300 1437 
Q 2275 1775 2037 1962 
Q 1800 2150 1275 2225 
L 1275 2550 
Q 1800 2600 2037 2825 
Q 2275 3050 2250 3412 
Q 2225 3775 1925 3937 
Q 1625 4100 1287 3975 
Q 950 3850 750 3275 
L 300 3350 
Q 450 3800 712 4100 
Q 975 4400 1425 4450 
Q 1875 4500 2212 4337 
Q 2550 4175 2687 3837 
Q 2825 3500 2725 3100 
Q 2625 2700 2150 2400 
Q 2500 2250 2687 1950 
Q 2875 1650 2812 1162 
Q 2750 675 2375 375 
Q 2000 75 1525 87 
Q 1050 100 700 387 
Q 350 675 250 1225 
z
" transform="scale(0.015625)"/>
       </defs>
       <use xlink:href="#SimHei-33"/>
       <use xlink:href="#SimHei-30" transform="translate(50 0)"/>
       <use xlink:href="#SimHei-30" transform="translate(100 0)"/>
       <use xlink:href="#SimHei-30" transform="translate(150 0)"/>
       <use xlink:href="#SimHei-30" transform="translate(200 0)"/>
      </g>
     </g>
    </g>
    <g id="text_8">
     <!-- 行程 s (mm) -->
     <g style="fill: #333333" transform="translate(672.716244 574.906333) scale(0.14 -0.14)">
      <defs>
       <path id="SimHei-884c" d="M 5300 3100 
Q 5775 3100 6175 3125 
L 6175 2625 
Q 5775 2650 5325 2650 
L 4975 2650 
L 4975 -75 
Q 5000 -375 4787 -487 
Q 4575 -600 3950 -675 
Q 3900 -375 3675 -75 
Q 4100 -125 4275 -112 
Q 4450 -100 4475 150 
L 4475 2650 
L 3475 2650 
Q 3000 2650 2575 2625 
L 2575 3125 
Q 3025 3100 3475 3100 
L 5300 3100 
z
M 2300 3400 
Q 2075 3275 1962 3075 
Q 1850 2875 1650 2575 
L 1650 325 
Q 1650 0 1675 -675 
L 1150 -675 
Q 1175 75 1175 450 
L 1175 2050 
Q 950 1675 575 1300 
Q 400 1550 250 1725 
Q 825 2275 1150 2775 
Q 1475 3275 1725 3725 
Q 1975 3575 2300 3400 
z
M 4875 4800 
Q 5300 4800 5750 4825 
L 5750 4350 
Q 5300 4375 4825 4375 
L 3900 4375 
Q 3350 4375 2950 4350 
L 2950 4825 
Q 3350 4800 3900 4800 
L 4875 4800 
z
M 2075 4925 
Q 1875 4900 1550 4387 
Q 1225 3875 650 3250 
Q 500 3450 325 3625 
Q 725 4025 1050 4487 
Q 1375 4950 1525 5300 
Q 1775 5150 2075 4925 
z
" transform="scale(0.015625)"/>
       <path id="SimHei-7a0b" d="M 5825 4975 
Q 5800 4425 5800 3975 
Q 5800 3550 5825 3125 
L 3025 3125 
Q 3050 3600 3050 4025 
Q 3050 4450 3025 4975 
L 5825 4975 
z
M 400 4825 
Q 825 4875 1362 4987 
Q 1900 5100 2275 5275 
Q 2450 4950 2625 4725 
Q 2450 4750 2262 4712 
Q 2075 4675 1850 4650 
L 1850 3425 
Q 2200 3425 2600 3450 
L 2600 2975 
Q 2200 3000 1850 3000 
L 1850 800 
Q 1850 250 1875 -675 
L 1375 -675 
Q 1400 250 1400 775 
L 1400 1925 
Q 1050 1225 625 600 
Q 450 850 225 1050 
Q 575 1400 850 1850 
Q 1125 2300 1350 3000 
Q 725 3000 425 2975 
L 425 3450 
Q 850 3425 1050 3425 
L 1400 3425 
L 1400 4550 
Q 1075 4475 575 4400 
Q 500 4625 400 4825 
z
M 5100 2500 
Q 5500 2500 5950 2525 
L 5950 2075 
Q 5500 2100 5100 2100 
L 4625 2100 
L 4625 1300 
L 4900 1300 
Q 5275 1300 5775 1325 
L 5775 850 
Q 5275 875 4975 875 
L 4625 875 
L 4625 0 
L 5225 0 
Q 5675 0 6175 25 
L 6175 -450 
Q 5775 -425 5225 -425 
L 3550 -425 
Q 3000 -425 2600 -475 
L 2600 25 
Q 3000 0 3550 0 
L 4150 0 
L 4150 875 
L 3800 875 
Q 3400 875 3050 825 
L 3050 1325 
Q 3400 1300 3800 1300 
L 4150 1300 
L 4150 2100 
L 3750 2100 
Q 3300 2100 2900 2075 
L 2900 2525 
Q 3300 2500 3750 2500 
L 5100 2500 
z
M 5275 3575 
L 5275 4550 
L 3500 4550 
L 3500 3575 
L 5275 3575 
z
M 2300 2400 
Q 2550 2025 2825 1525 
Q 2675 1425 2425 1225 
Q 2175 1775 1925 2125 
Q 2075 2250 2300 2400 
z
" transform="scale(0.015625)"/>
       <path id="SimHei-20" transform="scale(0.015625)"/>
       <path id="SimHei-73" d="M 2750 900 
Q 2750 500 2437 287 
Q 2125 75 1650 75 
Q 1050 75 725 312 
Q 400 550 400 1000 
L 900 1000 
Q 900 700 1112 600 
Q 1325 500 1625 500 
Q 1925 500 2075 612 
Q 2225 725 2225 900 
Q 2225 1025 2100 1150 
Q 1975 1275 1475 1350 
Q 900 1425 687 1637 
Q 475 1850 475 2200 
Q 475 2500 762 2737 
Q 1050 2975 1600 2975 
Q 2100 2975 2387 2750 
Q 2675 2525 2675 2150 
L 2175 2150 
Q 2175 2375 2012 2462 
Q 1850 2550 1600 2550 
Q 1275 2550 1137 2437 
Q 1000 2325 1000 2175 
Q 1000 2000 1125 1900 
Q 1250 1800 1650 1750 
Q 2300 1650 2525 1437 
Q 2750 1225 2750 900 
z
" transform="scale(0.015625)"/>
       <path id="SimHei-28" d="M 2975 -200 
L 2700 -475 
Q 2075 125 1762 775 
Q 1450 1425 1450 2250 
Q 1450 3075 1762 3725 
Q 2075 4375 2700 5000 
L 2975 4725 
Q 2400 4175 2112 3587 
Q 1825 3000 1825 2250 
Q 1825 1500 2112 912 
Q 2400 325 2975 -200 
z
" transform="scale(0.015625)"/>
       <path id="SimHei-6d" d="M 3050 125 
L 2550 125 
L 2550 2150 
Q 2550 2300 2500 2400 
Q 2450 2500 2300 2500 
Q 2125 2500 1975 2312 
Q 1825 2125 1825 1825 
L 1825 125 
L 1325 125 
L 1325 2150 
Q 1325 2300 1275 2400 
Q 1225 2500 1075 2500 
Q 900 2500 750 2312 
Q 600 2125 600 1825 
L 600 125 
L 100 125 
L 100 2925 
L 600 2925 
L 600 2550 
Q 725 2750 900 2862 
Q 1075 2975 1275 2975 
Q 1475 2975 1612 2862 
Q 1750 2750 1800 2550 
Q 1925 2750 2087 2862 
Q 2250 2975 2450 2975 
Q 2750 2975 2900 2812 
Q 3050 2650 3050 2350 
L 3050 125 
z
" transform="scale(0.015625)"/>
       <path id="SimHei-29" d="M 1675 2250 
Q 1675 1425 1362 775 
Q 1050 125 425 -475 
L 150 -200 
Q 725 325 1012 912 
Q 1300 1500 1300 2250 
Q 1300 3000 1012 3587 
Q 725 4175 150 4725 
L 425 5000 
Q 1050 4375 1362 3725 
Q 1675 3075 1675 2250 
z
" transform="scale(0.015625)"/>
      </defs>
      <use xlink:href="#SimHei-884c"/>
      <use xlink:href="#SimHei-7a0b" transform="translate(100 0)"/>
      <use xlink:href="#SimHei-20" transform="translate(200 0)"/>
      <use xlink:href="#SimHei-73" transform="translate(250 0)"/>
      <use xlink:href="#SimHei-20" transform="translate(300 0)"/>
      <use xlink:href="#SimHei-28" transform="translate(350 0)"/>
      <use xlink:href="#SimHei-6d" transform="translate(400 0)"/>
      <use xlink:href="#SimHei-6d" transform="translate(450 0)"/>
      <use xlink:href="#SimHei-29" transform="translate(500 0)"/>
     </g>
    </g>
   </g>
   <g id="matplotlib.axis_2">
    <g id="ytick_1">
     <g id="line2d_15">
      <path d="M 44.215625 505.522231 
L 1378.216863 505.522231 
" clip-path="url(#pc8653e5245)" style="fill: none; stroke-dasharray: 1.85,0.8; stroke-dashoffset: 0; stroke: #b0b0b0; stroke-opacity: 0.3; stroke-width: 0.5"/>
     </g>
     <g id="line2d_16">
      <defs>
       <path id="mc6e063c0e6" d="M 0 0 
L -3.5 0 
" style="stroke: #333333; stroke-width: 0.8"/>
      </defs>
      <g>
       <use xlink:href="#mc6e063c0e6" x="44.215625" y="505.522231" style="fill: #333333; stroke: #333333; stroke-width: 0.8"/>
      </g>
     </g>
     <g id="text_9">
      <!-- 0 -->
      <g style="fill: #333333" transform="translate(30.715625 509.990981) scale(0.13 -0.13)">
       <use xlink:href="#SimHei-30"/>
      </g>
     </g>
    </g>
    <g id="ytick_2">
     <g id="line2d_17">
      <path d="M 44.215625 428.270826 
L 1378.216863 428.270826 
" clip-path="url(#pc8653e5245)" style="fill: none; stroke-dasharray: 1.85,0.8; stroke-dashoffset: 0; stroke: #b0b0b0; stroke-opacity: 0.3; stroke-width: 0.5"/>
     </g>
     <g id="line2d_18">
      <g>
       <use xlink:href="#mc6e063c0e6" x="44.215625" y="428.270826" style="fill: #333333; stroke: #333333; stroke-width: 0.8"/>
      </g>
     </g>
     <g id="text_10">
      <!-- 2 -->
      <g style="fill: #333333" transform="translate(30.715625 432.739576) scale(0.13 -0.13)">
       <use xlink:href="#SimHei-32"/>
      </g>
     </g>
    </g>
    <g id="ytick_3">
     <g id="line2d_19">
      <path d="M 44.215625 351.019421 
L 1378.216863 351.019421 
" clip-path="url(#pc8653e5245)" style="fill: none; stroke-dasharray: 1.85,0.8; stroke-dashoffset: 0; stroke: #b0b0b0; stroke-opacity: 0.3; stroke-width: 0.5"/>
     </g>
     <g id="line2d_20">
      <g>
       <use xlink:href="#mc6e063c0e6" x="44.215625" y="351.019421" style="fill: #333333; stroke: #333333; stroke-width: 0.8"/>
      </g>
     </g>
     <g id="text_11">
      <!-- 4 -->
      <g style="fill: #333333" transform="translate(30.715625 355.488171) scale(0.13 -0.13)">
       <defs>
        <path id="SimHei-34" d="M 2000 1100 
L 75 1100 
L 75 1525 
L 2100 4450 
L 2475 4450 
L 2475 1525 
L 3075 1525 
L 3075 1100 
L 2475 1100 
L 2475 150 
L 2000 150 
L 2000 1100 
z
M 2000 1525 
L 2000 3500 
L 600 1525 
L 2000 1525 
z
" transform="scale(0.015625)"/>
       </defs>
       <use xlink:href="#SimHei-34"/>
      </g>
     </g>
    </g>
    <g id="ytick_4">
     <g id="line2d_21">
      <path d="M 44.215625 273.768016 
L 1378.216863 273.768016 
" clip-path="url(#pc8653e5245)" style="fill: none; stroke-dasharray: 1.85,0.8; stroke-dashoffset: 0; stroke: #b0b0b0; stroke-opacity: 0.3; stroke-width: 0.5"/>
     </g>
     <g id="line2d_22">
      <g>
       <use xlink:href="#mc6e063c0e6" x="44.215625" y="273.768016" style="fill: #333333; stroke: #333333; stroke-width: 0.8"/>
      </g>
     </g>
     <g id="text_12">
      <!-- 6 -->
      <g style="fill: #333333" transform="translate(30.715625 278.236766) scale(0.13 -0.13)">
       <defs>
        <path id="SimHei-36" d="M 250 1612 
Q 275 1975 387 2225 
Q 500 2475 725 2850 
L 1750 4450 
L 2325 4450 
L 1275 2800 
Q 1950 2975 2350 2750 
Q 2750 2525 2887 2237 
Q 3025 1950 3037 1612 
Q 3050 1275 2937 950 
Q 2825 625 2537 362 
Q 2250 100 1737 75 
Q 1225 50 862 262 
Q 500 475 362 862 
Q 225 1250 250 1612 
z
M 1025 787 
Q 1250 550 1625 525 
Q 2000 500 2250 775 
Q 2500 1050 2500 1575 
Q 2500 2100 2187 2300 
Q 1875 2500 1487 2450 
Q 1100 2400 925 2075 
Q 750 1750 775 1387 
Q 800 1025 1025 787 
z
" transform="scale(0.015625)"/>
       </defs>
       <use xlink:href="#SimHei-36"/>
      </g>
     </g>
    </g>
    <g id="ytick_5">
     <g id="line2d_23">
      <path d="M 44.215625 196.516611 
L 1378.216863 196.516611 
" clip-path="url(#pc8653e5245)" style="fill: none; stroke-dasharray: 1.85,0.8; stroke-dashoffset: 0; stroke: #b0b0b0; stroke-opacity: 0.3; stroke-width: 0.5"/>
     </g>
     <g id="line2d_24">
      <g>
       <use xlink:href="#mc6e063c0e6" x="44.215625" y="196.516611" style="fill: #333333; stroke: #333333; stroke-width: 0.8"/>
      </g>
     </g>
     <g id="text_13">
      <!-- 8 -->
      <g style="fill: #333333" transform="translate(30.715625 200.985361) scale(0.13 -0.13)">
       <defs>
        <path id="SimHei-38" d="M 175 1375 
Q 175 1675 325 1962 
Q 475 2250 825 2425 
Q 525 2600 425 2812 
Q 325 3025 312 3300 
Q 300 3575 387 3775 
Q 475 3975 650 4150 
Q 825 4325 1037 4387 
Q 1250 4450 1500 4450 
Q 1750 4450 1950 4400 
Q 2150 4350 2375 4187 
Q 2600 4025 2700 3725 
Q 2800 3425 2687 3025 
Q 2575 2625 2100 2400 
Q 2525 2275 2700 2012 
Q 2875 1750 2875 1375 
Q 2875 1000 2762 775 
Q 2650 550 2512 400 
Q 2375 250 2137 162 
Q 1900 75 1537 75 
Q 1175 75 912 162 
Q 650 250 475 425 
Q 300 600 237 837 
Q 175 1075 175 1375 
z
M 687 1400 
Q 675 1100 787 875 
Q 900 650 1200 587 
Q 1500 525 1825 600 
Q 2150 675 2275 950 
Q 2400 1225 2362 1500 
Q 2325 1775 2050 1962 
Q 1775 2150 1450 2125 
Q 1125 2100 912 1900 
Q 700 1700 687 1400 
z
M 775 3350 
Q 775 3100 950 2875 
Q 1125 2650 1500 2650 
Q 1875 2650 2062 2875 
Q 2250 3100 2237 3412 
Q 2225 3725 2012 3875 
Q 1800 4025 1437 4000 
Q 1075 3975 925 3787 
Q 775 3600 775 3350 
z
" transform="scale(0.015625)"/>
       </defs>
       <use xlink:href="#SimHei-38"/>
      </g>
     </g>
    </g>
    <g id="ytick_6">
     <g id="line2d_25">
      <path d="M 44.215625 119.265205 
L 1378.216863 119.265205 
" clip-path="url(#pc8653e5245)" style="fill: none; stroke-dasharray: 1.85,0.8; stroke-dashoffset: 0; stroke: #b0b0b0; stroke-opacity: 0.3; stroke-width: 0.5"/>
     </g>
     <g id="line2d_26">
      <g>
       <use xlink:href="#mc6e063c0e6" x="44.215625" y="119.265205" style="fill: #333333; stroke: #333333; stroke-width: 0.8"/>
      </g>
     </g>
     <g id="text_14">
      <!-- 10 -->
      <g style="fill: #333333" transform="translate(24.215625 123.733955) scale(0.13 -0.13)">
       <use xlink:href="#SimHei-31"/>
       <use xlink:href="#SimHei-30" transform="translate(50 0)"/>
      </g>
     </g>
    </g>
    <g id="text_15">
     <!-- 切深 ap (mm) -->
     <g style="fill: #333333" transform="translate(18.465625 354.586847) rotate(-90) scale(0.14 -0.14)">
      <defs>
       <path id="SimHei-5207" d="M 4200 125 
Q 4875 125 5037 187 
Q 5200 250 5225 525 
L 5400 4175 
L 4250 4175 
Q 4275 2875 4075 1987 
Q 3875 1100 3500 575 
Q 3125 50 2425 -575 
Q 2275 -375 1900 -250 
Q 2550 200 2937 675 
Q 3325 1150 3550 1925 
Q 3775 2700 3750 4175 
Q 3200 4175 2700 4150 
L 2700 4600 
Q 3175 4575 3625 4575 
L 5900 4575 
Q 5875 4200 5850 3700 
L 5700 325 
Q 5625 -250 5312 -337 
Q 5000 -425 4450 -525 
Q 4400 -200 4200 125 
z
M 1175 4275 
Q 1175 4625 1150 5000 
L 1650 5000 
Q 1625 4625 1625 4300 
L 1625 3275 
Q 2150 3350 2700 3425 
Q 2725 3150 2750 2975 
Q 2325 2925 1625 2850 
L 1625 1050 
Q 2325 1475 2650 1750 
Q 2725 1550 2875 1300 
Q 2325 975 1225 200 
Q 1075 500 925 650 
Q 1175 850 1175 1125 
L 1175 2775 
Q 675 2725 325 2675 
Q 300 2975 275 3150 
Q 650 3175 1175 3225 
L 1175 4275 
z
" transform="scale(0.015625)"/>
       <path id="SimHei-6df1" d="M 3675 -625 
Q 3700 -175 3700 25 
L 3700 1675 
Q 3350 975 2925 475 
Q 2500 -25 2150 -325 
Q 2000 -150 1700 0 
Q 2150 275 2600 800 
Q 3050 1325 3225 1825 
Q 2600 1825 2125 1800 
L 2125 2250 
Q 2525 2225 3700 2225 
Q 3700 2675 3675 3050 
L 4200 3050 
Q 4175 2675 4175 2225 
Q 5400 2225 6000 2250 
L 6000 1800 
Q 5600 1825 4575 1825 
Q 4750 1325 5175 862 
Q 5600 400 6125 200 
Q 5825 75 5725 -200 
Q 5200 100 4800 562 
Q 4400 1025 4175 1750 
L 4175 25 
Q 4175 -125 4225 -625 
L 3675 -625 
z
M 5875 4850 
Q 5850 4600 5850 4300 
Q 5850 4025 5875 3725 
L 5375 3725 
L 5375 4450 
L 2550 4450 
L 2550 3650 
L 2075 3650 
Q 2100 4025 2100 4275 
Q 2100 4525 2075 4850 
L 5875 4850 
z
M 1850 1525 
Q 1625 1150 1362 487 
Q 1100 -175 975 -525 
Q 725 -350 375 -250 
Q 625 50 950 712 
Q 1275 1375 1450 1850 
Q 1625 1650 1850 1525 
z
M 4625 4075 
Q 5100 3650 5700 2975 
Q 5450 2825 5300 2625 
Q 4775 3350 4250 3775 
Q 4450 3925 4625 4075 
z
M 3700 3750 
Q 3500 3650 3200 3312 
Q 2900 2975 2500 2600 
Q 2325 2775 2050 2900 
Q 2425 3125 2775 3487 
Q 3125 3850 3250 4050 
Q 3425 3900 3700 3750 
z
M 550 3650 
Q 1125 3300 1600 2900 
Q 1450 2750 1300 2500 
Q 850 2975 275 3275 
Q 400 3450 550 3650 
z
M 1000 5150 
Q 1450 4850 1950 4400 
Q 1775 4250 1625 4025 
Q 1175 4525 675 4850 
Q 850 4950 1000 5150 
z
" transform="scale(0.015625)"/>
       <path id="SimHei-61" d="M 2875 125 
L 2275 125 
Q 2225 175 2200 262 
Q 2175 350 2175 475 
Q 2000 275 1750 175 
Q 1500 75 1225 75 
Q 825 75 550 275 
Q 275 475 275 850 
Q 275 1225 525 1450 
Q 775 1675 1300 1750 
Q 1650 1800 1912 1875 
Q 2175 1950 2175 2075 
Q 2175 2225 2062 2375 
Q 1950 2525 1575 2525 
Q 1275 2525 1137 2412 
Q 1000 2300 950 2100 
L 400 2100 
Q 450 2500 762 2737 
Q 1075 2975 1575 2975 
Q 2125 2975 2400 2725 
Q 2675 2475 2675 2025 
L 2675 650 
Q 2675 500 2725 375 
Q 2775 250 2875 125 
z
M 2175 1050 
L 2175 1550 
Q 2025 1500 1887 1462 
Q 1750 1425 1425 1375 
Q 1050 1325 937 1200 
Q 825 1075 825 900 
Q 825 750 937 637 
Q 1050 525 1275 525 
Q 1500 525 1762 650 
Q 2025 775 2175 1050 
z
" transform="scale(0.015625)"/>
       <path id="SimHei-70" d="M 2825 1525 
Q 2825 800 2475 425 
Q 2125 50 1625 50 
Q 1350 50 1150 162 
Q 950 275 800 500 
L 800 -800 
L 300 -800 
L 300 2925 
L 800 2925 
L 800 2550 
Q 950 2775 1150 2875 
Q 1350 2975 1625 2975 
Q 2125 2975 2475 2612 
Q 2825 2250 2825 1525 
z
M 2275 1525 
Q 2275 2000 2087 2262 
Q 1900 2525 1525 2525 
Q 1225 2525 1012 2262 
Q 800 2000 800 1525 
Q 800 1050 1012 775 
Q 1225 500 1525 500 
Q 1900 500 2087 775 
Q 2275 1050 2275 1525 
z
" transform="scale(0.015625)"/>
      </defs>
      <use xlink:href="#SimHei-5207"/>
      <use xlink:href="#SimHei-6df1" transform="translate(100 0)"/>
      <use xlink:href="#SimHei-20" transform="translate(200 0)"/>
      <use xlink:href="#SimHei-61" transform="translate(250 0)"/>
      <use xlink:href="#SimHei-70" transform="translate(300 0)"/>
      <use xlink:href="#SimHei-20" transform="translate(350 0)"/>
      <use xlink:href="#SimHei-28" transform="translate(400 0)"/>
      <use xlink:href="#SimHei-6d" transform="translate(450 0)"/>
      <use xlink:href="#SimHei-6d" transform="translate(500 0)"/>
      <use xlink:href="#SimHei-29" transform="translate(550 0)"/>
     </g>
    </g>
   </g>
   <g id="patch_3">
    <path d="M 44.215625 542.02352 
L 44.215625 83.150174 
" style="fill: none; stroke: #000000; stroke-width: 0.8; stroke-linejoin: miter; stroke-linecap: square"/>
   </g>
   <g id="patch_4">
    <path d="M 1378.216863 542.02352 
L 1378.216863 83.150174 
" style="fill: none; stroke: #000000; stroke-width: 0.8; stroke-linejoin: miter; stroke-linecap: square"/>
   </g>
   <g id="patch_5">
    <path d="M 44.215625 542.02352 
L 1378.216863 542.02352 
" style="fill: none; stroke: #000000; stroke-width: 0.8; stroke-linejoin: miter; stroke-linecap: square"/>
   </g>
   <g id="patch_6">
    <path d="M 44.215625 83.150174 
L 1378.216863 83.150174 
" style="fill: none; stroke: #000000; stroke-width: 0.8; stroke-linejoin: miter; stroke-linecap: square"/>
   </g>
   <g id="text_16">
    <!-- 切深变化 -->
    <g style="fill: #333333" transform="translate(675.216244 21.684375) scale(0.18 -0.18)">
     <defs>
      <path id="SimHei-53d8" d="M 5200 1975 
Q 4950 1600 4537 1137 
Q 4125 675 3675 375 
Q 3925 225 4600 87 
Q 5275 -50 6000 -75 
Q 5700 -400 5650 -625 
Q 4850 -525 4212 -312 
Q 3575 -100 3225 125 
Q 2800 -125 2150 -325 
Q 1500 -525 700 -675 
Q 600 -425 400 -175 
Q 950 -150 1687 12 
Q 2425 175 2825 375 
Q 2275 775 1675 1575 
Q 1350 1575 1000 1550 
L 1000 2000 
Q 1450 1975 2075 1975 
L 5200 1975 
z
M 3225 5275 
Q 3400 4900 3550 4475 
L 4675 4475 
Q 5400 4475 5975 4500 
L 5975 4025 
Q 5375 4050 4725 4050 
L 4125 4050 
L 4125 2950 
Q 4125 2550 4150 2150 
L 3600 2150 
Q 3625 2550 3625 2950 
L 3625 4050 
L 2750 4050 
L 2750 2950 
Q 2750 2675 2775 2150 
L 2225 2150 
Q 2250 2675 2250 2950 
L 2250 4050 
L 1700 4050 
Q 975 4050 425 4025 
L 425 4500 
Q 950 4475 1700 4475 
L 2975 4475 
Q 2925 4675 2700 5125 
Q 2950 5150 3225 5275 
z
M 2200 1575 
Q 2650 975 3250 600 
Q 3850 1000 4275 1575 
L 2200 1575 
z
M 4850 3750 
Q 5375 3275 5950 2675 
Q 5750 2525 5500 2300 
Q 5075 2800 4450 3400 
Q 4675 3575 4850 3750 
z
M 1825 3500 
Q 1700 3375 1425 3025 
Q 1150 2675 825 2300 
Q 575 2475 375 2600 
Q 975 3150 1300 3825 
Q 1525 3650 1825 3500 
z
" transform="scale(0.015625)"/>
      <path id="SimHei-5316" d="M 3925 5025 
Q 3900 4900 3900 4400 
L 3900 2625 
Q 4375 3025 4775 3450 
Q 5175 3875 5400 4300 
Q 5600 4100 5900 3925 
Q 5700 3700 5225 3212 
Q 4750 2725 4487 2512 
Q 4225 2300 3900 2025 
L 3900 450 
Q 3900 50 4225 50 
L 5200 50 
Q 5400 75 5462 262 
Q 5525 450 5575 850 
Q 5800 650 6150 600 
Q 6000 -100 5825 -250 
Q 5650 -400 5350 -400 
L 3950 -400 
Q 3425 -400 3400 200 
L 3400 1675 
Q 3225 1525 2962 1350 
Q 2700 1175 2375 975 
Q 2225 1225 2025 1400 
Q 2350 1550 2737 1787 
Q 3125 2025 3400 2250 
L 3400 4500 
Q 3400 4800 3375 5025 
L 3925 5025 
z
M 2400 4850 
Q 2175 4550 2075 4337 
Q 1975 4125 1825 3775 
L 1825 675 
Q 1825 -75 1850 -550 
L 1325 -550 
Q 1350 -125 1350 650 
L 1350 3050 
Q 1125 2725 962 2525 
Q 800 2325 675 2175 
Q 500 2375 275 2525 
Q 625 2850 875 3212 
Q 1125 3575 1312 3912 
Q 1500 4250 1625 4575 
Q 1750 4900 1825 5100 
Q 1975 4975 2400 4850 
z
" transform="scale(0.015625)"/>
     </defs>
     <use xlink:href="#SimHei-5207"/>
     <use xlink:href="#SimHei-6df1" transform="translate(100 0)"/>
     <use xlink:href="#SimHei-53d8" transform="translate(200 0)"/>
     <use xlink:href="#SimHei-5316" transform="translate(300 0)"/>
    </g>
   </g>
   <g id="line2d_27">
    <path d="M 150.32936 505.522231 
L 168.805727 505.522231 
L 169.259575 274.231524 
L 169.793719 274.231524 
L 192.008601 274.231524 
L 192.008601 505.522231 
L 193.006582 274.231524 
L 196.42585 274.231524 
L 196.42585 505.522231 
L 197.177961 505.522231 
L 198.772481 505.522231 
L 198.772481 274.231524 
L 199.756211 274.231524 
L 201.685347 274.231524 
L 201.685347 505.522231 
L 202.677869 274.231524 
L 207.979622 274.231524 
L 207.979622 505.522231 
L 208.963085 274.231524 
L 209.104701 274.231524 
L 209.104701 505.522231 
L 210.096042 505.522231 
L 210.114071 505.522231 
L 210.114071 274.231524 
L 211.097352 274.231524 
L 216.285425 274.231524 
L 216.285425 505.522231 
L 217.280501 274.231524 
L 219.710462 274.231524 
L 219.710462 505.522231 
L 220.226608 505.522231 
L 223.755577 505.522231 
L 223.755577 274.231524 
L 224.749773 274.231524 
L 224.821925 274.231524 
L 224.821925 505.522231 
L 225.806696 274.231524 
L 228.906247 274.231524 
L 228.906247 505.522231 
L 229.899725 505.522231 
L 235.120886 505.522231 
L 235.120886 274.231524 
L 236.110521 505.522231 
L 236.882696 505.522231 
L 236.882696 274.231524 
L 237.871978 505.522231 
L 238.302432 505.522231 
L 238.302432 274.231524 
L 238.766393 505.522231 
L 239.932953 505.522231 
L 239.932953 274.231524 
L 240.920362 274.231524 
L 244.225636 274.231524 
L 244.225636 505.522231 
L 245.213029 274.231524 
L 248.609325 274.231524 
L 248.609325 505.522231 
L 249.565567 505.522231 
L 249.724303 505.522231 
L 249.724303 274.231524 
L 250.716927 274.231524 
L 251.409748 274.231524 
L 251.409748 505.522231 
L 252.394393 274.231524 
L 253.211257 274.231524 
L 253.211257 505.522231 
L 254.205874 274.231524 
L 255.080839 274.231524 
L 255.080839 505.522231 
L 255.719815 505.522231 
L 256.241467 505.522231 
L 256.241467 274.231524 
L 257.234317 505.522231 
L 259.382323 505.522231 
L 259.382323 274.231524 
L 260.381216 274.231524 
L 260.88571 274.231524 
L 260.88571 505.522231 
L 261.880097 274.231524 
L 262.773165 274.231524 
L 262.773165 505.522231 
L 263.519568 505.522231 
L 264.006562 505.522231 
L 264.006562 274.231524 
L 264.989738 274.231524 
L 265.242047 274.231524 
L 265.242047 505.522231 
L 266.241708 274.231524 
L 267.37243 274.231524 
L 267.37243 505.522231 
L 268.357395 274.231524 
L 269.71947 274.231524 
L 269.71947 505.522231 
L 270.71507 274.231524 
L 272.247205 274.231524 
L 272.247205 505.522231 
L 273.240867 274.231524 
L 274.208059 274.231524 
L 274.208059 505.522231 
L 275.207564 505.522231 
L 276.021903 505.522231 
L 276.021903 274.231524 
L 277.019753 274.231524 
L 277.360039 274.231524 
L 277.360039 505.522231 
L 278.345385 274.231524 
L 279.479773 274.231524 
L 279.479773 505.522231 
L 280.468612 274.231524 
L 282.212762 274.231524 
L 282.212762 505.522231 
L 283.200434 274.231524 
L 284.855196 274.231524 
L 284.855196 505.522231 
L 285.845841 274.231524 
L 288.401202 274.231524 
L 288.401202 505.522231 
L 289.398984 274.231524 
L 292.461179 274.231524 
L 292.461179 505.522231 
L 293.458452 274.231524 
L 296.945303 274.231524 
L 296.945303 505.522231 
L 297.93554 274.231524 
L 300.001234 274.231524 
L 300.001234 505.522231 
L 300.997516 274.231524 
L 302.798118 274.231524 
L 302.798118 505.522231 
L 303.797415 274.231524 
L 305.611225 274.231524 
L 305.611225 505.522231 
L 306.595559 274.231524 
L 307.711756 274.231524 
L 307.711756 505.522231 
L 308.647253 505.522231 
L 308.810989 505.522231 
L 308.810989 274.231524 
L 309.800654 274.231524 
L 310.27444 274.231524 
L 310.27444 505.522231 
L 311.266545 274.231524 
L 312.146919 274.231524 
L 312.146919 505.522231 
L 313.134587 274.231524 
L 314.324216 274.231524 
L 314.324216 505.522231 
L 315.317622 274.231524 
L 316.205764 274.231524 
L 316.205764 505.522231 
L 317.201901 274.231524 
L 318.09182 274.231524 
L 318.09182 505.522231 
L 319.089561 274.231524 
L 319.296554 274.231524 
L 319.296554 505.522231 
L 320.295012 505.522231 
L 320.406574 505.522231 
L 320.406574 274.231524 
L 321.402247 505.522231 
L 321.910565 505.522231 
L 321.910565 274.231524 
L 322.812992 505.522231 
L 323.117891 505.522231 
L 323.117891 274.231524 
L 324.108509 505.522231 
L 324.194649 505.522231 
L 324.194649 274.231524 
L 325.193791 505.522231 
L 325.24629 505.522231 
L 325.24629 274.231524 
L 326.219294 505.522231 
L 329.525118 505.522231 
L 329.525118 283.88795 
L 330.524396 505.522231 
L 330.578509 505.522231 
L 330.578509 274.231524 
L 331.576422 505.522231 
L 332.202582 505.522231 
L 332.202582 274.231524 
L 332.424455 505.522231 
L 336.076657 505.522231 
L 336.076657 274.231524 
L 337.070552 505.522231 
L 337.578622 505.522231 
L 337.578622 274.231524 
L 338.578129 505.522231 
L 339.071741 505.522231 
L 339.071741 274.231524 
L 340.065996 505.522231 
L 340.738696 505.522231 
L 340.738696 274.231524 
L 341.728436 505.522231 
L 342.455675 505.522231 
L 342.455675 274.231524 
L 343.443299 274.231524 
L 343.501343 274.231524 
L 343.501343 505.522231 
L 344.491104 274.231524 
L 345.563418 274.231524 
L 345.563418 505.522231 
L 346.554704 274.231524 
L 347.704348 274.231524 
L 347.704348 505.522231 
L 348.694726 274.231524 
L 349.777163 274.231524 
L 349.777163 505.522231 
L 350.412546 505.522231 
L 351.006947 505.522231 
L 351.006947 274.231524 
L 351.991255 505.522231 
L 352.682019 505.522231 
L 352.682019 274.231524 
L 353.675121 505.522231 
L 354.202694 505.522231 
L 354.202694 274.231524 
L 355.193264 505.522231 
L 355.77117 505.522231 
L 355.77117 274.231524 
L 356.760831 505.522231 
L 357.356046 505.522231 
L 357.356046 274.231524 
L 358.339322 274.231524 
L 359.483315 274.231524 
L 359.483315 505.522231 
L 360.445064 505.522231 
L 361.237392 505.522231 
L 361.237392 274.231524 
L 362.23402 505.522231 
L 362.252051 505.522231 
L 362.252051 274.231524 
L 363.220863 505.522231 
L 363.810235 505.522231 
L 363.810235 274.231524 
L 364.592861 505.522231 
L 365.858874 505.522231 
L 365.858874 274.231524 
L 366.85316 505.522231 
L 367.065069 505.522231 
L 367.065069 274.231524 
L 367.845482 505.522231 
L 370.394759 505.522231 
L 370.394759 274.231524 
L 371.378301 505.522231 
L 371.996922 505.522231 
L 371.996922 274.231524 
L 372.940649 505.522231 
L 373.439867 505.522231 
L 373.439867 274.231524 
L 373.902429 505.522231 
L 378.152085 505.522231 
L 378.170099 390.108632 
L 379.150636 505.522231 
L 379.380635 505.522231 
L 379.398666 390.108632 
L 380.36764 390.108632 
L 380.643011 390.108632 
L 380.644465 505.522231 
L 381.638109 505.522231 
L 382.96155 505.522231 
L 382.979041 390.108632 
L 383.960537 505.522231 
L 384.158762 505.522231 
L 384.176819 390.108632 
L 385.146408 390.108632 
L 385.448585 390.108632 
L 385.466628 505.522231 
L 386.448402 505.522231 
L 390.524272 505.522231 
L 390.97812 273.768016 
L 391.512264 273.768016 
L 413.727146 273.768016 
L 413.727146 505.522231 
L 414.725127 273.768016 
L 418.144395 273.768016 
L 418.144395 505.522231 
L 418.602076 271.170051 
L 418.896506 505.522231 
L 420.491026 505.522231 
L 420.491026 273.768016 
L 421.474756 273.768016 
L 423.403892 273.768016 
L 423.403892 505.522231 
L 424.396414 273.768016 
L 429.698167 273.768016 
L 429.698167 505.522231 
L 430.68163 273.768016 
L 430.823246 273.768016 
L 430.823246 505.522231 
L 431.814587 505.522231 
L 431.832616 505.522231 
L 431.832616 273.768016 
L 432.815897 273.768016 
L 436.643929 273.768016 
L 436.643929 505.522231 
L 437.628878 273.768016 
L 437.950157 273.768016 
L 437.950157 505.522231 
L 438.949111 273.768016 
L 441.452024 273.768016 
L 441.452024 505.522231 
L 441.980603 505.522231 
L 445.599718 505.522231 
L 445.599718 273.768016 
L 446.582452 273.768016 
L 446.600458 273.768016 
L 446.600458 505.522231 
L 447.585567 273.768016 
L 448.339622 273.768016 
L 448.339622 505.522231 
L 449.3347 273.768016 
L 449.476204 273.768016 
L 449.476204 505.522231 
L 450.471134 505.522231 
L 451.728204 505.522231 
L 451.728204 273.768016 
L 452.721919 273.768016 
L 455.407216 273.768016 
L 455.407216 505.522231 
L 456.402764 505.522231 
L 456.673899 505.522231 
L 456.673899 273.768016 
L 457.672457 273.768016 
L 460.923499 273.768016 
L 460.923499 505.522231 
L 461.913083 273.768016 
L 465.537076 273.768016 
L 465.537076 505.522231 
L 466.523537 273.768016 
L 468.27541 273.768016 
L 468.27541 505.522231 
L 469.268366 273.768016 
L 469.846946 273.768016 
L 469.846946 505.522231 
L 470.372706 505.522231 
L 472.600873 505.522231 
L 472.600873 273.768016 
L 473.58458 273.768016 
L 473.902149 273.768016 
L 473.902149 505.522231 
L 474.893009 273.768016 
L 475.123454 273.768016 
L 475.123454 505.522231 
L 475.86689 505.522231 
L 476.491002 505.522231 
L 476.491002 273.768016 
L 477.083534 505.522231 
L 478.759135 505.522231 
L 478.759135 273.768016 
L 479.756391 273.768016 
L 480.34427 273.768016 
L 480.34427 505.522231 
L 481.335962 273.768016 
L 482.114741 273.768016 
L 482.114741 505.522231 
L 482.85097 505.522231 
L 483.338787 505.522231 
L 483.338787 273.768016 
L 484.337518 273.768016 
L 484.534397 273.768016 
L 484.534397 505.522231 
L 485.530803 273.768016 
L 486.628224 273.768016 
L 486.628224 505.522231 
L 487.616368 273.768016 
L 488.941111 273.768016 
L 488.941111 505.522231 
L 489.934175 273.768016 
L 491.427689 273.768016 
L 491.427689 505.522231 
L 492.41378 273.768016 
L 493.293664 273.768016 
L 493.293664 505.522231 
L 494.291294 505.522231 
L 495.121568 505.522231 
L 495.121568 273.768016 
L 496.109154 273.768016 
L 496.379697 273.768016 
L 496.379697 505.522231 
L 497.376094 273.768016 
L 498.482588 273.768016 
L 498.482588 505.522231 
L 499.478755 273.768016 
L 501.138138 273.768016 
L 501.138138 505.522231 
L 502.127365 273.768016 
L 503.749865 273.768016 
L 503.749865 505.522231 
L 504.734631 273.768016 
L 507.243208 273.768016 
L 507.243208 505.522231 
L 508.22801 273.768016 
L 511.244657 273.768016 
L 511.244657 505.522231 
L 512.231969 273.768016 
L 515.664213 273.768016 
L 515.664213 505.522231 
L 516.654509 273.768016 
L 518.71706 273.768016 
L 518.71706 505.522231 
L 519.713015 273.768016 
L 521.515696 273.768016 
L 521.515696 505.522231 
L 522.513535 273.768016 
L 522.585786 273.768016 
L 522.585786 505.522231 
L 523.569699 273.768016 
L 524.328664 273.768016 
L 524.328664 505.522231 
L 525.312965 273.768016 
L 526.423126 273.768016 
L 526.423126 505.522231 
L 527.369024 505.522231 
L 527.529238 505.522231 
L 527.529238 273.768016 
L 528.51674 273.768016 
L 528.741429 273.768016 
L 528.741429 505.522231 
L 529.727882 273.768016 
L 530.872799 273.768016 
L 530.872799 505.522231 
L 531.868545 273.768016 
L 533.046682 273.768016 
L 533.046682 505.522231 
L 534.040096 273.768016 
L 534.924816 273.768016 
L 534.924816 505.522231 
L 535.912403 273.768016 
L 537.016787 273.768016 
L 537.016787 505.522231 
L 538.006376 273.768016 
L 538.023061 273.768016 
L 538.023061 505.522231 
L 539.02246 505.522231 
L 539.751013 505.522231 
L 539.751013 273.768016 
L 540.746819 273.768016 
L 541.145227 273.768016 
L 541.145227 505.522231 
L 542.14219 505.522231 
L 542.958445 505.522231 
L 542.958445 273.768016 
L 543.952764 505.522231 
L 544.041911 505.522231 
L 544.041911 273.768016 
L 544.956118 505.522231 
L 548.240349 505.522231 
L 548.240349 273.768016 
L 549.23957 505.522231 
L 549.293682 505.522231 
L 549.293682 273.768016 
L 550.291596 505.522231 
L 550.917755 505.522231 
L 550.917755 273.768016 
L 551.139646 505.522231 
L 554.746619 505.522231 
L 554.746619 273.768016 
L 555.743794 505.522231 
L 556.203634 505.522231 
L 556.203634 273.768016 
L 557.196806 505.522231 
L 557.662784 505.522231 
L 557.662784 273.768016 
L 558.651706 505.522231 
L 559.218229 505.522231 
L 559.218229 273.768016 
L 560.214559 505.522231 
L 560.815738 505.522231 
L 560.815738 273.768016 
L 561.798676 273.768016 
L 561.906882 273.768016 
L 561.906882 505.522231 
L 562.899053 273.768016 
L 563.666662 273.768016 
L 563.666662 505.522231 
L 564.652086 273.768016 
L 565.647877 273.768016 
L 565.647877 505.522231 
L 566.646083 273.768016 
L 567.854396 273.768016 
L 567.854396 505.522231 
L 568.843054 505.522231 
L 568.86106 505.522231 
L 568.86106 273.768016 
L 569.846562 273.768016 
L 569.960908 273.768016 
L 569.960908 505.522231 
L 570.94768 273.768016 
L 571.488248 273.768016 
L 571.488248 505.522231 
L 572.476932 505.522231 
L 572.546422 505.522231 
L 572.546422 273.768016 
L 573.541045 505.522231 
L 573.851541 505.522231 
L 573.851541 273.768016 
L 574.843848 505.522231 
L 575.331129 505.522231 
L 575.331129 273.768016 
L 576.325583 505.522231 
L 576.949252 505.522231 
L 576.949252 273.768016 
L 577.948072 505.522231 
L 578.106819 505.522231 
L 578.106819 273.768016 
L 579.096146 505.522231 
L 582.51247 505.522231 
L 582.51247 273.768016 
L 583.51082 273.768016 
L 584.197817 273.768016 
L 584.197817 505.522231 
L 585.183348 505.522231 
L 585.770254 505.522231 
L 585.770254 273.768016 
L 586.374987 505.522231 
L 588.026787 505.522231 
L 588.026787 273.768016 
L 589.012829 273.768016 
L 589.084955 273.768016 
L 589.084955 505.522231 
L 590.079291 273.768016 
L 590.563754 273.768016 
L 590.563754 505.522231 
L 591.553017 273.768016 
L 591.785913 273.768016 
L 591.785913 505.522231 
L 592.342995 505.522231 
L 596.630655 505.522231 
L 596.630655 389.645123 
L 597.630472 389.645123 
L 597.810814 389.645123 
L 597.810814 505.522231 
L 598.793885 505.522231 
L 599.27469 505.522231 
L 599.27469 389.645123 
L 600.273784 389.645123 
L 600.436094 389.645123 
L 600.436094 505.522231 
L 601.422359 505.522231 
L 601.585846 505.522231 
L 601.585846 389.645123 
L 602.5734 389.645123 
L 602.735736 389.645123 
L 602.735736 505.522231 
L 603.725707 505.522231 
L 604.215918 505.522231 
L 604.215918 389.645123 
L 605.215074 389.645123 
L 605.395441 389.645123 
L 605.395441 505.522231 
L 606.394152 505.522231 
L 610.19987 505.522231 
L 610.653718 273.768016 
L 611.187862 273.768016 
L 633.402744 273.768016 
L 633.402744 505.522231 
L 634.400725 273.768016 
L 637.819993 273.768016 
L 637.819993 505.522231 
L 638.277674 271.170051 
L 638.572104 505.522231 
L 640.166624 505.522231 
L 640.166624 273.768016 
L 641.150354 273.768016 
L 643.07949 273.768016 
L 643.07949 505.522231 
L 644.072011 273.768016 
L 649.373765 273.768016 
L 649.373765 505.522231 
L 650.357228 273.768016 
L 650.498844 273.768016 
L 650.498844 505.522231 
L 651.490185 505.522231 
L 651.508214 505.522231 
L 651.508214 273.768016 
L 652.491495 273.768016 
L 656.254516 273.768016 
L 656.254516 505.522231 
L 657.253082 273.768016 
L 657.585254 273.768016 
L 657.585254 505.522231 
L 658.568704 273.768016 
L 661.180266 273.768016 
L 661.180266 505.522231 
L 661.712891 505.522231 
L 665.380738 505.522231 
L 665.380738 273.768016 
L 666.369296 505.522231 
L 667.242933 505.522231 
L 667.242933 273.768016 
L 668.242518 505.522231 
L 668.743607 505.522231 
L 668.743607 273.768016 
L 669.422255 505.522231 
L 670.530148 505.522231 
L 670.530148 273.768016 
L 671.5134 273.768016 
L 672.145266 273.768016 
L 672.145266 505.522231 
L 673.138792 273.768016 
L 673.651206 273.768016 
L 673.651206 505.522231 
L 674.049048 505.522231 
L 675.433089 505.522231 
L 675.433089 273.768016 
L 676.429892 505.522231 
L 677.257547 505.522231 
L 677.257547 273.768016 
L 678.252952 505.522231 
L 678.723413 505.522231 
L 678.723413 273.768016 
L 679.391526 505.522231 
L 680.497999 505.522231 
L 680.497999 273.768016 
L 681.492052 273.768016 
L 681.56697 273.768016 
L 681.56697 505.522231 
L 682.556142 273.768016 
L 683.387506 273.768016 
L 683.387506 505.522231 
L 684.385982 273.768016 
L 684.909561 273.768016 
L 684.909561 505.522231 
L 685.904021 273.768016 
L 686.205383 273.768016 
L 686.205383 505.522231 
L 687.203865 273.768016 
L 687.611963 273.768016 
L 687.611963 505.522231 
L 688.607223 273.768016 
L 689.15763 273.768016 
L 689.15763 505.522231 
L 690.149702 273.768016 
L 690.779657 273.768016 
L 690.779657 505.522231 
L 691.770373 273.768016 
L 692.468445 273.768016 
L 692.468445 505.522231 
L 693.455052 273.768016 
L 694.15491 273.768016 
L 694.15491 505.522231 
L 695.15199 273.768016 
L 696.318988 273.768016 
L 696.318988 505.522231 
L 697.303757 273.768016 
L 698.404093 273.768016 
L 698.404093 505.522231 
L 699.400415 273.768016 
L 699.718234 273.768016 
L 699.718234 505.522231 
L 700.71577 505.522231 
L 701.448242 505.522231 
L 701.448242 273.768016 
L 702.445053 505.522231 
L 702.862415 505.522231 
L 702.862415 273.768016 
L 703.86148 505.522231 
L 704.217976 505.522231 
L 704.217976 273.768016 
L 705.212453 505.522231 
L 705.636895 505.522231 
L 705.636895 273.768016 
L 706.631864 505.522231 
L 707.067536 505.522231 
L 707.067536 273.768016 
L 708.06327 505.522231 
L 708.638983 505.522231 
L 708.638983 273.768016 
L 709.637493 505.522231 
L 710.336962 505.522231 
L 710.336962 273.768016 
L 711.335615 273.768016 
L 711.505016 273.768016 
L 711.505016 505.522231 
L 712.498984 273.768016 
L 713.441047 273.768016 
L 713.441047 505.522231 
L 714.433399 273.768016 
L 715.782933 273.768016 
L 715.782933 505.522231 
L 716.77921 273.768016 
L 718.205484 273.768016 
L 718.205484 505.522231 
L 719.20079 273.768016 
L 720.925613 273.768016 
L 720.925613 505.522231 
L 721.916356 273.768016 
L 724.225031 273.768016 
L 724.225031 505.522231 
L 725.224249 273.768016 
L 726.134881 273.768016 
L 726.134881 505.522231 
L 727.125924 273.768016 
L 727.886466 273.768016 
L 727.886466 505.522231 
L 728.883259 273.768016 
L 730.070288 273.768016 
L 730.070288 505.522231 
L 730.455872 505.522231 
L 731.361838 505.522231 
L 731.361838 273.768016 
L 732.360981 273.768016 
L 732.692197 273.768016 
L 732.692197 505.522231 
L 733.679809 273.768016 
L 734.954682 273.768016 
L 734.954682 505.522231 
L 735.951263 273.768016 
L 737.392829 273.768016 
L 737.392829 505.522231 
L 738.380232 273.768016 
L 739.273699 273.768016 
L 739.273699 505.522231 
L 740.271235 505.522231 
L 741.044892 505.522231 
L 741.044892 273.768016 
L 742.040341 273.768016 
L 742.240859 273.768016 
L 742.240859 505.522231 
L 743.238546 505.522231 
L 744.075878 505.522231 
L 744.075878 273.768016 
L 745.067681 273.768016 
L 745.115097 273.768016 
L 745.115097 505.522231 
L 746.101643 273.768016 
L 746.733398 273.768016 
L 746.733398 505.522231 
L 747.261999 505.522231 
L 749.198505 505.522231 
L 749.198505 273.768016 
L 750.197668 505.522231 
L 750.496062 505.522231 
L 750.496062 273.768016 
L 751.114881 505.522231 
L 752.848065 505.522231 
L 752.848065 273.768016 
L 753.840246 273.768016 
L 755.586768 273.768016 
L 755.586768 505.522231 
L 756.582672 505.522231 
L 756.846659 505.522231 
L 756.846659 273.768016 
L 757.844979 273.768016 
L 759.016481 273.768016 
L 759.016481 505.522231 
L 760.010754 505.522231 
L 760.424024 505.522231 
L 760.424024 273.768016 
L 761.415537 273.768016 
L 762.643102 273.768016 
L 762.643102 505.522231 
L 763.629374 273.768016 
L 765.110694 273.768016 
L 765.110694 505.522231 
L 765.888835 505.522231 
L 766.716726 505.522231 
L 766.716726 273.768016 
L 767.71148 273.768016 
L 768.009718 273.768016 
L 768.009718 505.522231 
L 769.000569 273.768016 
L 769.23103 273.768016 
L 769.23103 505.522231 
L 769.956329 505.522231 
L 770.561713 505.522231 
L 770.561713 273.768016 
L 771.25001 505.522231 
L 774.721165 505.522231 
L 774.721165 273.768016 
L 775.719446 273.768016 
L 776.481654 273.768016 
L 776.481654 505.522231 
L 777.479707 273.768016 
L 778.866745 273.768016 
L 778.866745 505.522231 
L 779.865835 273.768016 
L 781.688539 273.768016 
L 781.688539 505.522231 
L 782.674243 273.768016 
L 784.279317 273.768016 
L 784.279317 505.522231 
L 785.271475 273.768016 
L 787.102972 273.768016 
L 787.102972 505.522231 
L 788.093026 273.768016 
L 789.073005 273.768016 
L 789.073005 505.522231 
L 789.957612 505.522231 
L 790.557008 505.522231 
L 790.557008 273.768016 
L 791.539601 273.768016 
L 791.993384 273.768016 
L 791.993384 505.522231 
L 792.98604 273.768016 
L 793.802437 273.768016 
L 793.802437 505.522231 
L 794.801395 273.768016 
L 796.000436 273.768016 
L 796.000436 505.522231 
L 796.992866 273.768016 
L 797.819805 273.768016 
L 797.819805 505.522231 
L 798.808772 273.768016 
L 799.751098 273.768016 
L 799.751098 505.522231 
L 800.740448 273.768016 
L 800.841136 273.768016 
L 800.841136 505.522231 
L 801.840929 273.768016 
L 801.844521 273.768016 
L 801.844521 505.522231 
L 802.830383 505.522231 
L 803.706965 505.522231 
L 803.706965 273.768016 
L 804.706061 505.522231 
L 804.797827 505.522231 
L 804.797827 273.768016 
L 805.785776 273.768016 
L 806.236636 273.768016 
L 806.236636 505.522231 
L 806.769308 266.449604 
L 807.236429 505.522231 
L 811.175646 505.522231 
L 811.175646 273.768016 
L 811.763154 505.522231 
L 812.55113 505.522231 
L 812.55113 273.768016 
L 813.501318 505.522231 
L 824.027022 505.522231 
L 824.027022 389.645123 
L 825.017919 389.645123 
L 825.288471 389.645123 
L 825.288471 505.522231 
L 826.286191 505.522231 
L 826.782967 505.522231 
L 826.782967 389.645123 
L 827.773429 389.645123 
L 827.971802 389.645123 
L 827.971802 505.522231 
L 828.96301 505.522231 
L 829.152738 505.522231 
L 829.152738 389.645123 
L 830.150684 389.645123 
L 830.331026 389.645123 
L 830.331026 505.522231 
L 831.322234 389.645123 
L 831.340291 389.645123 
L 831.340291 505.522231 
L 832.334899 505.522231 
L 832.352508 505.522231 
L 832.352508 389.645123 
L 833.342196 505.522231 
L 833.532654 505.522231 
L 833.532654 389.645123 
L 834.270925 505.522231 
L 838.198801 505.522231 
L 838.652649 427.807318 
L 839.186794 427.807318 
L 861.401675 427.807318 
L 861.401675 505.522231 
L 862.399657 427.807318 
L 865.818925 427.807318 
L 865.818925 505.522231 
L 866.276606 425.209739 
L 866.571035 505.522231 
L 868.165556 505.522231 
L 868.165556 427.807318 
L 869.149286 427.807318 
L 871.078421 427.807318 
L 871.078421 505.522231 
L 872.070943 427.807318 
L 877.372697 427.807318 
L 877.372697 505.522231 
L 878.35616 427.807318 
L 878.497776 427.807318 
L 878.497776 505.522231 
L 879.489117 505.522231 
L 879.507146 505.522231 
L 879.507146 427.807318 
L 880.490426 427.807318 
L 885.572975 427.807318 
L 885.572975 505.522231 
L 886.561988 427.807318 
L 889.189165 427.807318 
L 889.189165 505.522231 
L 889.731833 505.522231 
L 893.414248 505.522231 
L 893.414248 427.807318 
L 894.411931 505.522231 
L 895.247645 505.522231 
L 895.247645 427.807318 
L 896.24043 505.522231 
L 896.719007 505.522231 
L 896.719007 427.807318 
L 897.365635 505.522231 
L 898.500417 505.522231 
L 898.500417 427.807318 
L 899.482475 427.807318 
L 900.111842 427.807318 
L 900.111842 505.522231 
L 901.098356 427.807318 
L 901.616192 427.807318 
L 901.616192 505.522231 
L 902.013395 505.522231 
L 903.417507 505.522231 
L 903.417507 427.807318 
L 904.403824 505.522231 
L 905.23773 505.522231 
L 905.23773 427.807318 
L 906.234197 505.522231 
L 906.673431 505.522231 
L 906.673431 427.807318 
L 907.374068 505.522231 
L 908.505168 505.522231 
L 908.505168 427.807318 
L 909.492353 427.807318 
L 909.545982 427.807318 
L 909.545982 505.522231 
L 910.534942 427.807318 
L 911.262297 427.807318 
L 911.262297 505.522231 
L 912.248689 427.807318 
L 912.86034 427.807318 
L 912.86034 505.522231 
L 913.853875 427.807318 
L 914.142011 427.807318 
L 914.142011 505.522231 
L 915.130724 427.807318 
L 915.686225 427.807318 
L 915.686225 505.522231 
L 916.672556 427.807318 
L 917.036627 427.807318 
L 917.036627 505.522231 
L 918.026539 427.807318 
L 918.502936 427.807318 
L 918.502936 505.522231 
L 919.497883 427.807318 
L 920.20796 427.807318 
L 920.20796 505.522231 
L 921.204752 427.807318 
L 922.091004 427.807318 
L 922.091004 505.522231 
L 923.083235 427.807318 
L 923.901011 427.807318 
L 923.901011 505.522231 
L 924.887753 427.807318 
L 926.12128 427.807318 
L 926.12128 505.522231 
L 927.117106 427.807318 
L 928.192018 427.807318 
L 928.192018 505.522231 
L 929.182753 427.807318 
L 929.843986 427.807318 
L 929.843986 505.522231 
L 930.832286 427.807318 
L 931.086001 427.807318 
L 931.086001 505.522231 
L 932.080616 427.807318 
L 932.590357 427.807318 
L 932.590357 505.522231 
L 933.589549 427.807318 
L 933.915299 427.807318 
L 933.915299 505.522231 
L 934.902731 427.807318 
L 935.361019 427.807318 
L 935.361019 505.522231 
L 936.352154 427.807318 
L 937.05491 427.807318 
L 937.05491 505.522231 
L 938.047259 427.807318 
L 938.796944 427.807318 
L 938.796944 505.522231 
L 939.793103 427.807318 
L 940.793345 427.807318 
L 940.793345 505.522231 
L 941.786115 427.807318 
L 943.073051 427.807318 
L 943.073051 505.522231 
L 944.068633 427.807318 
L 945.40842 427.807318 
L 945.40842 505.522231 
L 946.39786 427.807318 
L 947.962817 427.807318 
L 947.962817 505.522231 
L 948.950171 427.807318 
L 951.142891 427.807318 
L 951.142891 505.522231 
L 952.132673 427.807318 
L 954.676298 427.807318 
L 954.676298 505.522231 
L 955.672773 427.807318 
L 956.858269 427.807318 
L 956.858269 505.522231 
L 957.841166 427.807318 
L 958.496697 427.807318 
L 958.496697 505.522231 
L 959.488186 427.807318 
L 960.643629 427.807318 
L 960.643629 505.522231 
L 961.634831 427.807318 
L 963.095784 427.807318 
L 963.095784 505.522231 
L 964.080748 427.807318 
L 964.142192 427.807318 
L 964.142192 505.522231 
L 965.129568 427.807318 
L 965.603757 427.807318 
L 965.603757 505.522231 
L 965.996427 505.522231 
L 967.207075 505.522231 
L 967.207075 427.807318 
L 968.19281 427.807318 
L 969.262836 427.807318 
L 969.262836 505.522231 
L 970.251356 505.522231 
L 970.691729 505.522231 
L 970.691729 427.807318 
L 971.687813 505.522231 
L 971.732881 505.522231 
L 971.732881 427.807318 
L 972.726669 427.807318 
L 973.270512 427.807318 
L 973.270512 505.522231 
L 973.923828 505.522231 
L 975.751635 505.522231 
L 975.751635 427.807318 
L 976.749283 505.522231 
L 977.010966 505.522231 
L 977.010966 427.807318 
L 977.711058 505.522231 
L 979.421677 505.522231 
L 979.421677 427.807318 
L 980.415244 505.522231 
L 983.988501 505.522231 
L 983.988501 427.807318 
L 984.978387 427.807318 
L 986.473713 427.807318 
L 986.473713 505.522231 
L 987.45758 505.522231 
L 987.493622 505.522231 
L 987.493622 427.807318 
L 988.480996 427.807318 
L 990.714219 427.807318 
L 990.714219 505.522231 
L 991.711775 427.807318 
L 993.573496 427.807318 
L 993.573496 505.522231 
L 994.556902 427.807318 
L 996.170991 427.807318 
L 996.170991 505.522231 
L 997.164715 427.807318 
L 998.107367 427.807318 
L 998.107367 505.522231 
L 998.746362 505.522231 
L 999.266873 505.522231 
L 999.266873 427.807318 
L 1000.26666 505.522231 
L 1000.922973 505.522231 
L 1000.922973 427.807318 
L 1001.592704 505.522231 
L 1003.623041 505.522231 
L 1003.623041 427.807318 
L 1004.614835 427.807318 
L 1005.050436 427.807318 
L 1005.050436 505.522231 
L 1006.035668 427.807318 
L 1006.143874 427.807318 
L 1006.143874 505.522231 
L 1006.711088 425.227507 
L 1007.122172 505.522231 
L 1008.663319 505.522231 
L 1008.663319 427.807318 
L 1009.652146 427.807318 
L 1009.886156 427.807318 
L 1009.886156 505.522231 
L 1010.878542 427.807318 
L 1012.097405 427.807318 
L 1012.097405 505.522231 
L 1013.092938 427.807318 
L 1014.019601 427.807318 
L 1014.019601 505.522231 
L 1015.00522 427.807318 
L 1016.276379 427.807318 
L 1016.276379 505.522231 
L 1017.27542 427.807318 
L 1018.041078 427.807318 
L 1018.041078 505.522231 
L 1019.040453 427.807318 
L 1020.209331 427.807318 
L 1020.209331 505.522231 
L 1021.193069 427.807318 
L 1022.042256 427.807318 
L 1022.042256 505.522231 
L 1023.040639 427.807318 
L 1024.194646 427.807318 
L 1024.194646 505.522231 
L 1025.179716 427.807318 
L 1026.160909 427.807318 
L 1026.160909 505.522231 
L 1027.153921 427.807318 
L 1028.500931 427.807318 
L 1028.500931 505.522231 
L 1029.48592 427.807318 
L 1029.502739 427.807318 
L 1029.502739 505.522231 
L 1030.499942 427.807318 
L 1030.659235 427.807318 
L 1030.659235 505.522231 
L 1031.654193 427.807318 
L 1031.98303 427.807318 
L 1031.98303 505.522231 
L 1032.969834 427.807318 
L 1033.272346 427.807318 
L 1033.272346 505.522231 
L 1034.259701 505.522231 
L 1034.399245 505.522231 
L 1034.399245 427.807318 
L 1035.392155 505.522231 
L 1035.444629 505.522231 
L 1035.444629 427.807318 
L 1036.271114 505.522231 
L 1037.814659 505.522231 
L 1037.814659 427.807318 
L 1038.73385 505.522231 
L 1039.709208 505.522231 
L 1039.709208 427.807318 
L 1040.697285 427.807318 
L 1040.753213 427.807318 
L 1040.753213 505.522231 
L 1041.750295 427.807318 
L 1042.182368 427.807318 
L 1042.182368 505.522231 
L 1043.175078 505.522231 
L 1043.193132 505.522231 
L 1043.193132 427.807318 
L 1044.077274 505.522231 
L 1051.977082 505.522231 
L 1051.977082 428.270826 
L 1054.50231 428.077697 
L 1054.50231 157.890908 
L 1056.450216 157.890908 
L 1056.816874 431.399508 
L 1057.368498 396.443247 
L 1057.460351 396.443247 
L 1058.287721 164.148272 
L 1058.472396 164.148272 
L 1058.833083 505.522231 
L 1068.445134 505.522231 
L 1068.445134 428.270826 
L 1070.970363 428.077697 
L 1070.970363 157.890908 
L 1072.919579 158.00524 
L 1073.284854 431.399508 
L 1073.837242 396.32737 
L 1073.929054 396.32737 
L 1074.755992 164.07102 
L 1074.940439 164.07102 
L 1075.301126 505.522231 
L 1084.913177 505.522231 
L 1084.913177 428.270826 
L 1087.438406 428.077697 
L 1087.438406 157.890908 
L 1089.387622 158.359824 
L 1089.753042 431.399508 
L 1090.305249 396.32737 
L 1090.397102 396.32737 
L 1091.223963 164.07102 
L 1091.408479 164.07102 
L 1091.769167 505.522231 
L 1101.381217 505.522231 
L 1101.381217 428.270826 
L 1102.970755 428.270826 
L 1102.970755 505.328914 
L 1103.906446 157.890908 
L 1105.854351 157.890908 
L 1106.220937 431.399508 
L 1106.773326 396.32737 
L 1106.865137 396.32737 
L 1107.692075 164.07102 
L 1107.876522 164.07102 
L 1108.23721 505.522231 
L 1117.84926 505.522231 
L 1117.84926 428.270826 
L 1120.374489 428.077697 
L 1120.374489 157.890908 
L 1122.323706 158.00524 
L 1122.323706 505.522231 
L 1123.241369 396.32737 
L 1123.33318 396.32737 
L 1123.975781 221.584692 
L 1124.160118 448.00856 
L 1124.344565 448.00856 
L 1124.344565 446.115901 
L 1124.705253 505.522231 
L 1136.842532 505.329061 
L 1136.842532 235.335442 
L 1138.50018 235.335442 
L 1138.791749 505.522231 
L 1138.790437 234.098647 
L 1139.433711 504.486834 
L 1139.52567 504.486834 
L 1140.443787 452.489142 
L 1140.628089 452.489142 
L 1140.812605 446.115901 
L 1141.173293 505.522231 
L 1160.936359 505.522231 
L 1160.936359 505.522231 
" clip-path="url(#pc8653e5245)" style="fill: none; stroke: #000000; stroke-width: 0.8; stroke-linecap: square"/>
   </g>
  </g>
  <g id="axes_2">
   <g id="matplotlib.axis_3">
    <g id="xtick_8">
     <g id="line2d_28">
      <defs>
       <path id="m0d09123660" d="M 0 0 
L 0 -3.5 
" style="stroke: #000000; stroke-width: 0.8"/>
      </defs>
      <g>
       <use xlink:href="#m0d09123660" x="150.32936" y="83.150174" style="stroke: #000000; stroke-width: 0.8"/>
      </g>
     </g>
     <g id="text_17">
      <!-- N140 -->
      <g transform="translate(154.218447 75.443067) rotate(-45) scale(0.08 -0.08)">
       <defs>
        <path id="SimHei-4e" d="M 2850 125 
L 2225 125 
L 850 3225 
L 825 3225 
L 825 125 
L 250 125 
L 250 4400 
L 875 4400 
L 2250 1300 
L 2275 1300 
L 2275 4400 
L 2850 4400 
L 2850 125 
z
" transform="scale(0.015625)"/>
       </defs>
       <use xlink:href="#SimHei-4e"/>
       <use xlink:href="#SimHei-31" transform="translate(50 0)"/>
       <use xlink:href="#SimHei-34" transform="translate(100 0)"/>
       <use xlink:href="#SimHei-30" transform="translate(150 0)"/>
      </g>
     </g>
    </g>
    <g id="xtick_9">
     <g id="line2d_29">
      <g>
       <use xlink:href="#m0d09123660" x="250.897273" y="83.150174" style="stroke: #000000; stroke-width: 0.8"/>
      </g>
     </g>
     <g id="text_18">
      <!-- N1050 -->
      <g transform="translate(254.786361 75.443067) rotate(-45) scale(0.08 -0.08)">
       <use xlink:href="#SimHei-4e"/>
       <use xlink:href="#SimHei-31" transform="translate(50 0)"/>
       <use xlink:href="#SimHei-30" transform="translate(100 0)"/>
       <use xlink:href="#SimHei-35" transform="translate(150 0)"/>
       <use xlink:href="#SimHei-30" transform="translate(200 0)"/>
      </g>
     </g>
    </g>
    <g id="xtick_10">
     <g id="line2d_30">
      <g>
       <use xlink:href="#m0d09123660" x="316.660954" y="83.150174" style="stroke: #000000; stroke-width: 0.8"/>
      </g>
     </g>
     <g id="text_19">
      <!-- N7090.17 -->
      <g transform="translate(320.550041 75.443067) rotate(-45) scale(0.08 -0.08)">
       <defs>
        <path id="SimHei-37" d="M 850 150 
Q 1300 2050 2425 3925 
L 275 3925 
L 275 4375 
L 2950 4375 
L 2950 3950 
Q 1775 2050 1400 150 
L 850 150 
z
" transform="scale(0.015625)"/>
        <path id="SimHei-39" d="M 800 75 
Q 1350 1000 1700 1750 
Q 1075 1650 662 1912 
Q 250 2175 162 2625 
Q 75 3075 175 3437 
Q 275 3800 487 4037 
Q 700 4275 1000 4375 
Q 1300 4475 1537 4475 
Q 1775 4475 2025 4375 
Q 2275 4275 2475 4075 
Q 2675 3875 2750 3662 
Q 2825 3450 2825 3112 
Q 2825 2775 2575 2250 
Q 2325 1725 1350 75 
L 800 75 
z
M 662 2875 
Q 700 2550 937 2337 
Q 1175 2125 1450 2150 
Q 1725 2175 1887 2300 
Q 2050 2425 2200 2725 
Q 2300 3100 2250 3362 
Q 2200 3625 1987 3800 
Q 1775 3975 1525 3975 
Q 1375 4000 1137 3900 
Q 900 3800 762 3500 
Q 625 3200 662 2875 
z
" transform="scale(0.015625)"/>
        <path id="SimHei-2e" d="M 1075 125 
L 500 125 
L 500 675 
L 1075 675 
L 1075 125 
z
" transform="scale(0.015625)"/>
       </defs>
       <use xlink:href="#SimHei-4e"/>
       <use xlink:href="#SimHei-37" transform="translate(50 0)"/>
       <use xlink:href="#SimHei-30" transform="translate(100 0)"/>
       <use xlink:href="#SimHei-39" transform="translate(150 0)"/>
       <use xlink:href="#SimHei-30" transform="translate(200 0)"/>
       <use xlink:href="#SimHei-2e" transform="translate(250 0)"/>
       <use xlink:href="#SimHei-31" transform="translate(300 0)"/>
       <use xlink:href="#SimHei-37" transform="translate(350 0)"/>
      </g>
     </g>
    </g>
    <g id="xtick_11">
     <g id="line2d_31">
      <g>
       <use xlink:href="#m0d09123660" x="393.56891" y="83.150174" style="stroke: #000000; stroke-width: 0.8"/>
      </g>
     </g>
     <g id="text_20">
      <!-- N2250 -->
      <g transform="translate(397.457998 75.443067) rotate(-45) scale(0.08 -0.08)">
       <use xlink:href="#SimHei-4e"/>
       <use xlink:href="#SimHei-32" transform="translate(50 0)"/>
       <use xlink:href="#SimHei-32" transform="translate(100 0)"/>
       <use xlink:href="#SimHei-35" transform="translate(150 0)"/>
       <use xlink:href="#SimHei-30" transform="translate(200 0)"/>
      </g>
     </g>
    </g>
    <g id="xtick_12">
     <g id="line2d_32">
      <g>
       <use xlink:href="#m0d09123660" x="472.600873" y="83.150174" style="stroke: #000000; stroke-width: 0.8"/>
      </g>
     </g>
     <g id="text_21">
      <!-- N2940 -->
      <g transform="translate(476.489961 75.443067) rotate(-45) scale(0.08 -0.08)">
       <use xlink:href="#SimHei-4e"/>
       <use xlink:href="#SimHei-32" transform="translate(50 0)"/>
       <use xlink:href="#SimHei-39" transform="translate(100 0)"/>
       <use xlink:href="#SimHei-34" transform="translate(150 0)"/>
       <use xlink:href="#SimHei-30" transform="translate(200 0)"/>
      </g>
     </g>
    </g>
    <g id="xtick_13">
     <g id="line2d_33">
      <g>
       <use xlink:href="#m0d09123660" x="537.309413" y="83.150174" style="stroke: #000000; stroke-width: 0.8"/>
      </g>
     </g>
     <g id="text_22">
      <!-- N8760.10 -->
      <g transform="translate(541.1985 75.443067) rotate(-45) scale(0.08 -0.08)">
       <use xlink:href="#SimHei-4e"/>
       <use xlink:href="#SimHei-38" transform="translate(50 0)"/>
       <use xlink:href="#SimHei-37" transform="translate(100 0)"/>
       <use xlink:href="#SimHei-36" transform="translate(150 0)"/>
       <use xlink:href="#SimHei-30" transform="translate(200 0)"/>
       <use xlink:href="#SimHei-2e" transform="translate(250 0)"/>
       <use xlink:href="#SimHei-31" transform="translate(300 0)"/>
       <use xlink:href="#SimHei-30" transform="translate(350 0)"/>
      </g>
     </g>
    </g>
    <g id="xtick_14">
     <g id="line2d_34">
      <g>
       <use xlink:href="#m0d09123660" x="615.552434" y="83.150174" style="stroke: #000000; stroke-width: 0.8"/>
      </g>
     </g>
     <g id="text_23">
      <!-- N3940.2 -->
      <g transform="translate(619.441521 75.443067) rotate(-45) scale(0.08 -0.08)">
       <use xlink:href="#SimHei-4e"/>
       <use xlink:href="#SimHei-33" transform="translate(50 0)"/>
       <use xlink:href="#SimHei-39" transform="translate(100 0)"/>
       <use xlink:href="#SimHei-34" transform="translate(150 0)"/>
       <use xlink:href="#SimHei-30" transform="translate(200 0)"/>
       <use xlink:href="#SimHei-2e" transform="translate(250 0)"/>
       <use xlink:href="#SimHei-32" transform="translate(300 0)"/>
      </g>
     </g>
    </g>
    <g id="xtick_15">
     <g id="line2d_35">
      <g>
       <use xlink:href="#m0d09123660" x="691.121858" y="83.150174" style="stroke: #000000; stroke-width: 0.8"/>
      </g>
     </g>
     <g id="text_24">
      <!-- N2400.17 -->
      <g transform="translate(695.010945 75.443067) rotate(-45) scale(0.08 -0.08)">
       <use xlink:href="#SimHei-4e"/>
       <use xlink:href="#SimHei-32" transform="translate(50 0)"/>
       <use xlink:href="#SimHei-34" transform="translate(100 0)"/>
       <use xlink:href="#SimHei-30" transform="translate(150 0)"/>
       <use xlink:href="#SimHei-30" transform="translate(200 0)"/>
       <use xlink:href="#SimHei-2e" transform="translate(250 0)"/>
       <use xlink:href="#SimHei-31" transform="translate(300 0)"/>
       <use xlink:href="#SimHei-37" transform="translate(350 0)"/>
      </g>
     </g>
    </g>
    <g id="xtick_16">
     <g id="line2d_36">
      <g>
       <use xlink:href="#m0d09123660" x="754.398633" y="83.150174" style="stroke: #000000; stroke-width: 0.8"/>
      </g>
     </g>
     <g id="text_25">
      <!-- N6770 -->
      <g transform="translate(758.28772 75.443067) rotate(-45) scale(0.08 -0.08)">
       <use xlink:href="#SimHei-4e"/>
       <use xlink:href="#SimHei-36" transform="translate(50 0)"/>
       <use xlink:href="#SimHei-37" transform="translate(100 0)"/>
       <use xlink:href="#SimHei-37" transform="translate(150 0)"/>
       <use xlink:href="#SimHei-30" transform="translate(200 0)"/>
      </g>
     </g>
    </g>
    <g id="xtick_17">
     <g id="line2d_37">
      <g>
       <use xlink:href="#m0d09123660" x="834.139617" y="83.150174" style="stroke: #000000; stroke-width: 0.8"/>
      </g>
     </g>
     <g id="text_26">
      <!-- N3310 -->
      <g transform="translate(838.028705 75.443067) rotate(-45) scale(0.08 -0.08)">
       <use xlink:href="#SimHei-4e"/>
       <use xlink:href="#SimHei-33" transform="translate(50 0)"/>
       <use xlink:href="#SimHei-33" transform="translate(100 0)"/>
       <use xlink:href="#SimHei-31" transform="translate(150 0)"/>
       <use xlink:href="#SimHei-30" transform="translate(200 0)"/>
      </g>
     </g>
    </g>
    <g id="xtick_18">
     <g id="line2d_38">
      <g>
       <use xlink:href="#m0d09123660" x="915.289115" y="83.150174" style="stroke: #000000; stroke-width: 0.8"/>
      </g>
     </g>
     <g id="text_27">
      <!-- N2720 -->
      <g transform="translate(919.178203 75.443067) rotate(-45) scale(0.08 -0.08)">
       <use xlink:href="#SimHei-4e"/>
       <use xlink:href="#SimHei-32" transform="translate(50 0)"/>
       <use xlink:href="#SimHei-37" transform="translate(100 0)"/>
       <use xlink:href="#SimHei-32" transform="translate(150 0)"/>
       <use xlink:href="#SimHei-30" transform="translate(200 0)"/>
      </g>
     </g>
    </g>
    <g id="xtick_19">
     <g id="line2d_39">
      <g>
       <use xlink:href="#m0d09123660" x="975.691744" y="83.150174" style="stroke: #000000; stroke-width: 0.8"/>
      </g>
     </g>
     <g id="text_28">
      <!-- N6820 -->
      <g transform="translate(979.580832 75.443067) rotate(-45) scale(0.08 -0.08)">
       <use xlink:href="#SimHei-4e"/>
       <use xlink:href="#SimHei-36" transform="translate(50 0)"/>
       <use xlink:href="#SimHei-38" transform="translate(100 0)"/>
       <use xlink:href="#SimHei-32" transform="translate(150 0)"/>
       <use xlink:href="#SimHei-30" transform="translate(200 0)"/>
      </g>
     </g>
    </g>
    <g id="xtick_20">
     <g id="line2d_40">
      <g>
       <use xlink:href="#m0d09123660" x="1156.54449" y="83.150174" style="stroke: #000000; stroke-width: 0.8"/>
      </g>
     </g>
     <g id="text_29">
      <!-- N0 -->
      <g transform="translate(1160.433577 75.443067) rotate(-45) scale(0.08 -0.08)">
       <use xlink:href="#SimHei-4e"/>
       <use xlink:href="#SimHei-30" transform="translate(50 0)"/>
      </g>
     </g>
    </g>
    <g id="text_30">
     <!-- 指令行号 N -->
     <g transform="translate(686.216244 44.926563) scale(0.1 -0.1)">
      <defs>
       <path id="SimHei-6307" d="M 5625 2225 
Q 5600 1925 5600 1350 
L 5600 300 
Q 5600 -225 5625 -525 
L 5125 -525 
L 5125 -125 
L 3300 -125 
L 3300 -625 
L 2800 -625 
Q 2825 -300 2825 300 
L 2825 1350 
Q 2825 1925 2800 2225 
L 5625 2225 
z
M 500 25 
Q 1075 -25 1175 37 
Q 1275 100 1275 275 
L 1275 1675 
Q 1050 1600 925 1537 
Q 800 1475 475 1275 
Q 400 1525 225 1800 
Q 625 1900 825 1975 
Q 1025 2050 1275 2125 
L 1275 3300 
L 1100 3300 
Q 775 3300 450 3275 
L 450 3725 
Q 750 3700 1100 3700 
L 1275 3700 
L 1275 4450 
Q 1275 4800 1250 5125 
L 1775 5125 
Q 1750 4850 1750 4450 
L 1750 3700 
Q 2075 3700 2425 3725 
L 2425 3275 
Q 2050 3300 1750 3300 
L 1750 2325 
Q 1850 2350 2025 2425 
L 2375 2575 
Q 2350 2300 2375 2100 
Q 2225 2050 2062 1987 
Q 1900 1925 1750 1850 
L 1750 100 
Q 1725 -200 1575 -337 
Q 1425 -475 675 -525 
Q 625 -250 500 25 
z
M 3325 5025 
Q 3300 4675 3300 4125 
Q 4125 4275 4512 4412 
Q 4900 4550 5225 4725 
Q 5325 4475 5575 4250 
Q 5450 4225 5237 4175 
Q 5025 4125 4725 4050 
Q 4425 3975 4037 3887 
Q 3650 3800 3300 3725 
L 3300 3175 
Q 3275 2925 3700 2925 
L 4925 2925 
Q 5300 2925 5387 3087 
Q 5475 3250 5550 3600 
Q 5750 3400 6050 3300 
Q 5825 2725 5700 2637 
Q 5575 2550 5275 2525 
L 3350 2525 
Q 3050 2525 2937 2687 
Q 2825 2850 2825 2975 
L 2825 4125 
Q 2825 4775 2800 5025 
L 3325 5025 
z
M 5125 275 
L 5125 875 
L 3300 875 
L 3300 275 
L 5125 275 
z
M 5125 1250 
L 5125 1825 
L 3300 1825 
L 3300 1250 
L 5125 1250 
z
" transform="scale(0.015625)"/>
       <path id="SimHei-4ee4" d="M 5375 2075 
L 5375 1550 
Q 4925 1325 4450 937 
Q 3975 550 3575 125 
L 4250 -325 
Q 4050 -550 3875 -775 
Q 3100 -125 1850 425 
L 2150 875 
Q 2400 775 3125 350 
Q 3800 1025 4450 1625 
L 2025 1625 
Q 1500 1625 975 1600 
L 975 2100 
Q 1525 2075 2025 2075 
L 5375 2075 
z
M 3375 4850 
Q 4450 3550 6200 2900 
Q 5950 2625 5800 2350 
Q 4150 3150 3100 4475 
Q 2075 3125 625 2225 
Q 400 2525 200 2700 
Q 875 2975 1675 3675 
Q 2475 4375 2950 5300 
Q 3275 5175 3550 5050 
Q 3475 5000 3375 4850 
z
M 2925 3600 
Q 3175 3350 3750 2725 
L 3300 2325 
Q 3050 2700 2550 3225 
Q 2750 3375 2925 3600 
z
" transform="scale(0.015625)"/>
       <path id="SimHei-53f7" d="M 5025 4925 
Q 5000 4550 5000 4075 
Q 5000 3600 5025 3175 
L 1400 3175 
Q 1425 3525 1425 4000 
Q 1425 4500 1400 4925 
L 5025 4925 
z
M 5175 2625 
Q 5650 2625 6025 2650 
L 6025 2200 
Q 5650 2225 5175 2225 
L 2450 2225 
Q 2350 1875 2225 1450 
L 5175 1450 
Q 5100 1050 5062 775 
Q 5025 500 4950 112 
Q 4875 -275 4650 -412 
Q 4425 -550 3225 -625 
Q 3125 -350 2975 -50 
Q 3875 -75 4112 -50 
Q 4350 -25 4425 212 
Q 4500 450 4575 1025 
L 1600 1025 
Q 1825 1625 1950 2225 
L 1350 2225 
Q 825 2225 375 2200 
L 375 2650 
Q 825 2625 1350 2625 
L 5175 2625 
z
M 4525 3575 
L 4525 4525 
L 1900 4525 
L 1900 3575 
L 4525 3575 
z
" transform="scale(0.015625)"/>
      </defs>
      <use xlink:href="#SimHei-6307"/>
      <use xlink:href="#SimHei-4ee4" transform="translate(100 0)"/>
      <use xlink:href="#SimHei-884c" transform="translate(200 0)"/>
      <use xlink:href="#SimHei-53f7" transform="translate(300 0)"/>
      <use xlink:href="#SimHei-20" transform="translate(400 0)"/>
      <use xlink:href="#SimHei-4e" transform="translate(450 0)"/>
     </g>
    </g>
   </g>
   <g id="patch_7">
    <path d="M 44.215625 542.02352 
L 44.215625 83.150174 
" style="fill: none; stroke: #000000; stroke-width: 0.8; stroke-linejoin: miter; stroke-linecap: square"/>
   </g>
   <g id="patch_8">
    <path d="M 1378.216863 542.02352 
L 1378.216863 83.150174 
" style="fill: none; stroke: #000000; stroke-width: 0.8; stroke-linejoin: miter; stroke-linecap: square"/>
   </g>
   <g id="patch_9">
    <path d="M 44.215625 542.02352 
L 1378.216863 542.02352 
" style="fill: none; stroke: #000000; stroke-width: 0.8; stroke-linejoin: miter; stroke-linecap: square"/>
   </g>
   <g id="patch_10">
    <path d="M 44.215625 83.150174 
L 1378.216863 83.150174 
" style="fill: none; stroke: #000000; stroke-width: 0.8; stroke-linejoin: miter; stroke-linecap: square"/>
   </g>
  </g>
 </g>
 <defs>
  <clipPath id="pc8653e5245">
   <rect x="44.215625" y="83.150174" width="1334.001238" height="458.873346"/>
  </clipPath>
 </defs>
</svg>
