<?xml version="1.0" encoding="utf-8" standalone="no"?>
<!DOCTYPE svg PUBLIC "-//W3C//DTD SVG 1.1//EN"
  "http://www.w3.org/Graphics/SVG/1.1/DTD/svg11.dtd">
<svg xmlns:xlink="http://www.w3.org/1999/xlink" width="1349.327pt" height="471.802971pt" viewBox="0 0 1349.327 471.802971" xmlns="http://www.w3.org/2000/svg" version="1.1">
 <metadata>
  <rdf:RDF xmlns:dc="http://purl.org/dc/elements/1.1/" xmlns:cc="http://creativecommons.org/ns#" xmlns:rdf="http://www.w3.org/1999/02/22-rdf-syntax-ns#">
   <cc:Work>
    <dc:type rdf:resource="http://purl.org/dc/dcmitype/StillImage"/>
    <dc:date>2025-12-27T09:58:58.044002</dc:date>
    <dc:format>image/svg+xml</dc:format>
    <dc:creator>
     <cc:Agent>
      <dc:title>Matplotlib v3.10.7, https://matplotlib.org/</dc:title>
     </cc:Agent>
    </dc:creator>
   </cc:Work>
  </rdf:RDF>
 </metadata>
 <defs>
  <style type="text/css">*{stroke-linejoin: round; stroke-linecap: butt}</style>
 </defs>
 <g id="figure_1">
  <g id="patch_1">
   <path d="M 0 471.802971 
L 1349.327 471.802971 
L 1349.327 0 
L 0 0 
z
" style="fill: #ffffff"/>
  </g>
  <g id="axes_1">
   <g id="patch_2">
    <path d="M 58.48 429.970158 
L 1342.127 429.970158 
L 1342.127 83.220486 
L 58.48 83.220486 
z
" style="fill: #ffffff"/>
   </g>
   <g id="matplotlib.axis_1">
    <g id="xtick_1">
     <g id="line2d_1">
      <path d="M 145.102412 429.970158 
L 145.102412 83.220486 
" clip-path="url(#pa3ef1c00d3)" style="fill: none; stroke-dasharray: 1.85,0.8; stroke-dashoffset: 0; stroke: #b0b0b0; stroke-opacity: 0.3; stroke-width: 0.5"/>
     </g>
     <g id="line2d_2">
      <defs>
       <path id="mbd68596df0" d="M 0 0 
L 0 3.5 
" style="stroke: #333333; stroke-width: 0.8"/>
      </defs>
      <g>
       <use xlink:href="#mbd68596df0" x="145.102412" y="429.970158" style="fill: #333333; stroke: #333333; stroke-width: 0.8"/>
      </g>
     </g>
     <g id="text_1">
      <!-- 0 -->
      <g style="fill: #333333" transform="translate(141.852412 445.907658) scale(0.13 -0.13)">
       <defs>
        <path id="SimHei-30" d="M 225 2537 
Q 250 3200 412 3587 
Q 575 3975 875 4225 
Q 1175 4475 1612 4475 
Q 2050 4475 2375 4112 
Q 2700 3750 2800 3200 
Q 2900 2650 2862 1937 
Q 2825 1225 2612 775 
Q 2400 325 1975 150 
Q 1550 -25 1125 187 
Q 700 400 525 750 
Q 350 1100 275 1487 
Q 200 1875 225 2537 
z
M 750 2687 
Q 675 2000 800 1462 
Q 925 925 1212 700 
Q 1500 475 1800 612 
Q 2100 750 2237 1162 
Q 2375 1575 2375 2062 
Q 2375 2550 2337 2950 
Q 2300 3350 2112 3675 
Q 1925 4000 1612 4012 
Q 1300 4025 1062 3700 
Q 825 3375 750 2687 
z
" transform="scale(0.015625)"/>
       </defs>
       <use xlink:href="#SimHei-30"/>
      </g>
     </g>
    </g>
    <g id="xtick_2">
     <g id="line2d_3">
      <path d="M 318.638819 429.970158 
L 318.638819 83.220486 
" clip-path="url(#pa3ef1c00d3)" style="fill: none; stroke-dasharray: 1.85,0.8; stroke-dashoffset: 0; stroke: #b0b0b0; stroke-opacity: 0.3; stroke-width: 0.5"/>
     </g>
     <g id="line2d_4">
      <g>
       <use xlink:href="#mbd68596df0" x="318.638819" y="429.970158" style="fill: #333333; stroke: #333333; stroke-width: 0.8"/>
      </g>
     </g>
     <g id="text_2">
      <!-- 5000 -->
      <g style="fill: #333333" transform="translate(305.638819 445.907658) scale(0.13 -0.13)">
       <defs>
        <path id="SimHei-35" d="M 550 1325 
Q 725 650 1150 575 
Q 1575 500 1837 662 
Q 2100 825 2212 1087 
Q 2325 1350 2312 1675 
Q 2300 2000 2137 2225 
Q 1975 2450 1725 2525 
Q 1475 2600 1162 2525 
Q 850 2450 650 2175 
L 225 2225 
Q 275 2375 700 4375 
L 2675 4375 
L 2675 3925 
L 1075 3925 
Q 950 3250 825 2850 
Q 1200 3025 1525 3012 
Q 1850 3000 2150 2862 
Q 2450 2725 2587 2487 
Q 2725 2250 2787 2012 
Q 2850 1775 2837 1500 
Q 2825 1225 2725 937 
Q 2625 650 2425 462 
Q 2225 275 1937 162 
Q 1650 50 1275 75 
Q 900 100 562 350 
Q 225 600 100 1200 
L 550 1325 
z
" transform="scale(0.015625)"/>
       </defs>
       <use xlink:href="#SimHei-35"/>
       <use xlink:href="#SimHei-30" transform="translate(50 0)"/>
       <use xlink:href="#SimHei-30" transform="translate(100 0)"/>
       <use xlink:href="#SimHei-30" transform="translate(150 0)"/>
      </g>
     </g>
    </g>
    <g id="xtick_3">
     <g id="line2d_5">
      <path d="M 492.175226 429.970158 
L 492.175226 83.220486 
" clip-path="url(#pa3ef1c00d3)" style="fill: none; stroke-dasharray: 1.85,0.8; stroke-dashoffset: 0; stroke: #b0b0b0; stroke-opacity: 0.3; stroke-width: 0.5"/>
     </g>
     <g id="line2d_6">
      <g>
       <use xlink:href="#mbd68596df0" x="492.175226" y="429.970158" style="fill: #333333; stroke: #333333; stroke-width: 0.8"/>
      </g>
     </g>
     <g id="text_3">
      <!-- 10000 -->
      <g style="fill: #333333" transform="translate(475.925226 445.907658) scale(0.13 -0.13)">
       <defs>
        <path id="SimHei-31" d="M 1400 3600 
Q 1075 3275 575 2975 
L 575 3450 
Q 1200 3875 1600 4450 
L 1900 4450 
L 1900 150 
L 1400 150 
L 1400 3600 
z
" transform="scale(0.015625)"/>
       </defs>
       <use xlink:href="#SimHei-31"/>
       <use xlink:href="#SimHei-30" transform="translate(50 0)"/>
       <use xlink:href="#SimHei-30" transform="translate(100 0)"/>
       <use xlink:href="#SimHei-30" transform="translate(150 0)"/>
       <use xlink:href="#SimHei-30" transform="translate(200 0)"/>
      </g>
     </g>
    </g>
    <g id="xtick_4">
     <g id="line2d_7">
      <path d="M 665.711633 429.970158 
L 665.711633 83.220486 
" clip-path="url(#pa3ef1c00d3)" style="fill: none; stroke-dasharray: 1.85,0.8; stroke-dashoffset: 0; stroke: #b0b0b0; stroke-opacity: 0.3; stroke-width: 0.5"/>
     </g>
     <g id="line2d_8">
      <g>
       <use xlink:href="#mbd68596df0" x="665.711633" y="429.970158" style="fill: #333333; stroke: #333333; stroke-width: 0.8"/>
      </g>
     </g>
     <g id="text_4">
      <!-- 15000 -->
      <g style="fill: #333333" transform="translate(649.461633 445.907658) scale(0.13 -0.13)">
       <use xlink:href="#SimHei-31"/>
       <use xlink:href="#SimHei-35" transform="translate(50 0)"/>
       <use xlink:href="#SimHei-30" transform="translate(100 0)"/>
       <use xlink:href="#SimHei-30" transform="translate(150 0)"/>
       <use xlink:href="#SimHei-30" transform="translate(200 0)"/>
      </g>
     </g>
    </g>
    <g id="xtick_5">
     <g id="line2d_9">
      <path d="M 839.24804 429.970158 
L 839.24804 83.220486 
" clip-path="url(#pa3ef1c00d3)" style="fill: none; stroke-dasharray: 1.85,0.8; stroke-dashoffset: 0; stroke: #b0b0b0; stroke-opacity: 0.3; stroke-width: 0.5"/>
     </g>
     <g id="line2d_10">
      <g>
       <use xlink:href="#mbd68596df0" x="839.24804" y="429.970158" style="fill: #333333; stroke: #333333; stroke-width: 0.8"/>
      </g>
     </g>
     <g id="text_5">
      <!-- 20000 -->
      <g style="fill: #333333" transform="translate(822.99804 445.907658) scale(0.13 -0.13)">
       <defs>
        <path id="SimHei-32" d="M 300 250 
Q 325 625 650 925 
Q 975 1225 1475 1862 
Q 1975 2500 2125 2850 
Q 2275 3200 2237 3450 
Q 2200 3700 2000 3862 
Q 1800 4025 1537 4000 
Q 1275 3975 1037 3800 
Q 800 3625 675 3275 
L 200 3350 
Q 400 3925 712 4187 
Q 1025 4450 1450 4475 
Q 1700 4500 1900 4462 
Q 2100 4425 2312 4287 
Q 2525 4150 2662 3875 
Q 2800 3600 2762 3212 
Q 2725 2825 2375 2287 
Q 2025 1750 1025 600 
L 2825 600 
L 2825 150 
L 300 150 
L 300 250 
z
" transform="scale(0.015625)"/>
       </defs>
       <use xlink:href="#SimHei-32"/>
       <use xlink:href="#SimHei-30" transform="translate(50 0)"/>
       <use xlink:href="#SimHei-30" transform="translate(100 0)"/>
       <use xlink:href="#SimHei-30" transform="translate(150 0)"/>
       <use xlink:href="#SimHei-30" transform="translate(200 0)"/>
      </g>
     </g>
    </g>
    <g id="xtick_6">
     <g id="line2d_11">
      <path d="M 1012.784448 429.970158 
L 1012.784448 83.220486 
" clip-path="url(#pa3ef1c00d3)" style="fill: none; stroke-dasharray: 1.85,0.8; stroke-dashoffset: 0; stroke: #b0b0b0; stroke-opacity: 0.3; stroke-width: 0.5"/>
     </g>
     <g id="line2d_12">
      <g>
       <use xlink:href="#mbd68596df0" x="1012.784448" y="429.970158" style="fill: #333333; stroke: #333333; stroke-width: 0.8"/>
      </g>
     </g>
     <g id="text_6">
      <!-- 25000 -->
      <g style="fill: #333333" transform="translate(996.534448 445.907658) scale(0.13 -0.13)">
       <use xlink:href="#SimHei-32"/>
       <use xlink:href="#SimHei-35" transform="translate(50 0)"/>
       <use xlink:href="#SimHei-30" transform="translate(100 0)"/>
       <use xlink:href="#SimHei-30" transform="translate(150 0)"/>
       <use xlink:href="#SimHei-30" transform="translate(200 0)"/>
      </g>
     </g>
    </g>
    <g id="xtick_7">
     <g id="line2d_13">
      <path d="M 1186.320855 429.970158 
L 1186.320855 83.220486 
" clip-path="url(#pa3ef1c00d3)" style="fill: none; stroke-dasharray: 1.85,0.8; stroke-dashoffset: 0; stroke: #b0b0b0; stroke-opacity: 0.3; stroke-width: 0.5"/>
     </g>
     <g id="line2d_14">
      <g>
       <use xlink:href="#mbd68596df0" x="1186.320855" y="429.970158" style="fill: #333333; stroke: #333333; stroke-width: 0.8"/>
      </g>
     </g>
     <g id="text_7">
      <!-- 30000 -->
      <g style="fill: #333333" transform="translate(1170.070855 445.907658) scale(0.13 -0.13)">
       <defs>
        <path id="SimHei-33" d="M 250 1225 
L 700 1300 
Q 800 975 1025 762 
Q 1250 550 1587 562 
Q 1925 575 2125 837 
Q 2325 1100 2300 1437 
Q 2275 1775 2037 1962 
Q 1800 2150 1275 2225 
L 1275 2550 
Q 1800 2600 2037 2825 
Q 2275 3050 2250 3412 
Q 2225 3775 1925 3937 
Q 1625 4100 1287 3975 
Q 950 3850 750 3275 
L 300 3350 
Q 450 3800 712 4100 
Q 975 4400 1425 4450 
Q 1875 4500 2212 4337 
Q 2550 4175 2687 3837 
Q 2825 3500 2725 3100 
Q 2625 2700 2150 2400 
Q 2500 2250 2687 1950 
Q 2875 1650 2812 1162 
Q 2750 675 2375 375 
Q 2000 75 1525 87 
Q 1050 100 700 387 
Q 350 675 250 1225 
z
" transform="scale(0.015625)"/>
       </defs>
       <use xlink:href="#SimHei-33"/>
       <use xlink:href="#SimHei-30" transform="translate(50 0)"/>
       <use xlink:href="#SimHei-30" transform="translate(100 0)"/>
       <use xlink:href="#SimHei-30" transform="translate(150 0)"/>
       <use xlink:href="#SimHei-30" transform="translate(200 0)"/>
      </g>
     </g>
    </g>
    <g id="text_8">
     <!-- 行程 s (mm) -->
     <g style="fill: #333333" transform="translate(661.8035 462.852971) scale(0.14 -0.14)">
      <defs>
       <path id="SimHei-884c" d="M 5300 3100 
Q 5775 3100 6175 3125 
L 6175 2625 
Q 5775 2650 5325 2650 
L 4975 2650 
L 4975 -75 
Q 5000 -375 4787 -487 
Q 4575 -600 3950 -675 
Q 3900 -375 3675 -75 
Q 4100 -125 4275 -112 
Q 4450 -100 4475 150 
L 4475 2650 
L 3475 2650 
Q 3000 2650 2575 2625 
L 2575 3125 
Q 3025 3100 3475 3100 
L 5300 3100 
z
M 2300 3400 
Q 2075 3275 1962 3075 
Q 1850 2875 1650 2575 
L 1650 325 
Q 1650 0 1675 -675 
L 1150 -675 
Q 1175 75 1175 450 
L 1175 2050 
Q 950 1675 575 1300 
Q 400 1550 250 1725 
Q 825 2275 1150 2775 
Q 1475 3275 1725 3725 
Q 1975 3575 2300 3400 
z
M 4875 4800 
Q 5300 4800 5750 4825 
L 5750 4350 
Q 5300 4375 4825 4375 
L 3900 4375 
Q 3350 4375 2950 4350 
L 2950 4825 
Q 3350 4800 3900 4800 
L 4875 4800 
z
M 2075 4925 
Q 1875 4900 1550 4387 
Q 1225 3875 650 3250 
Q 500 3450 325 3625 
Q 725 4025 1050 4487 
Q 1375 4950 1525 5300 
Q 1775 5150 2075 4925 
z
" transform="scale(0.015625)"/>
       <path id="SimHei-7a0b" d="M 5825 4975 
Q 5800 4425 5800 3975 
Q 5800 3550 5825 3125 
L 3025 3125 
Q 3050 3600 3050 4025 
Q 3050 4450 3025 4975 
L 5825 4975 
z
M 400 4825 
Q 825 4875 1362 4987 
Q 1900 5100 2275 5275 
Q 2450 4950 2625 4725 
Q 2450 4750 2262 4712 
Q 2075 4675 1850 4650 
L 1850 3425 
Q 2200 3425 2600 3450 
L 2600 2975 
Q 2200 3000 1850 3000 
L 1850 800 
Q 1850 250 1875 -675 
L 1375 -675 
Q 1400 250 1400 775 
L 1400 1925 
Q 1050 1225 625 600 
Q 450 850 225 1050 
Q 575 1400 850 1850 
Q 1125 2300 1350 3000 
Q 725 3000 425 2975 
L 425 3450 
Q 850 3425 1050 3425 
L 1400 3425 
L 1400 4550 
Q 1075 4475 575 4400 
Q 500 4625 400 4825 
z
M 5100 2500 
Q 5500 2500 5950 2525 
L 5950 2075 
Q 5500 2100 5100 2100 
L 4625 2100 
L 4625 1300 
L 4900 1300 
Q 5275 1300 5775 1325 
L 5775 850 
Q 5275 875 4975 875 
L 4625 875 
L 4625 0 
L 5225 0 
Q 5675 0 6175 25 
L 6175 -450 
Q 5775 -425 5225 -425 
L 3550 -425 
Q 3000 -425 2600 -475 
L 2600 25 
Q 3000 0 3550 0 
L 4150 0 
L 4150 875 
L 3800 875 
Q 3400 875 3050 825 
L 3050 1325 
Q 3400 1300 3800 1300 
L 4150 1300 
L 4150 2100 
L 3750 2100 
Q 3300 2100 2900 2075 
L 2900 2525 
Q 3300 2500 3750 2500 
L 5100 2500 
z
M 5275 3575 
L 5275 4550 
L 3500 4550 
L 3500 3575 
L 5275 3575 
z
M 2300 2400 
Q 2550 2025 2825 1525 
Q 2675 1425 2425 1225 
Q 2175 1775 1925 2125 
Q 2075 2250 2300 2400 
z
" transform="scale(0.015625)"/>
       <path id="SimHei-20" transform="scale(0.015625)"/>
       <path id="SimHei-73" d="M 2750 900 
Q 2750 500 2437 287 
Q 2125 75 1650 75 
Q 1050 75 725 312 
Q 400 550 400 1000 
L 900 1000 
Q 900 700 1112 600 
Q 1325 500 1625 500 
Q 1925 500 2075 612 
Q 2225 725 2225 900 
Q 2225 1025 2100 1150 
Q 1975 1275 1475 1350 
Q 900 1425 687 1637 
Q 475 1850 475 2200 
Q 475 2500 762 2737 
Q 1050 2975 1600 2975 
Q 2100 2975 2387 2750 
Q 2675 2525 2675 2150 
L 2175 2150 
Q 2175 2375 2012 2462 
Q 1850 2550 1600 2550 
Q 1275 2550 1137 2437 
Q 1000 2325 1000 2175 
Q 1000 2000 1125 1900 
Q 1250 1800 1650 1750 
Q 2300 1650 2525 1437 
Q 2750 1225 2750 900 
z
" transform="scale(0.015625)"/>
       <path id="SimHei-28" d="M 2975 -200 
L 2700 -475 
Q 2075 125 1762 775 
Q 1450 1425 1450 2250 
Q 1450 3075 1762 3725 
Q 2075 4375 2700 5000 
L 2975 4725 
Q 2400 4175 2112 3587 
Q 1825 3000 1825 2250 
Q 1825 1500 2112 912 
Q 2400 325 2975 -200 
z
" transform="scale(0.015625)"/>
       <path id="SimHei-6d" d="M 3050 125 
L 2550 125 
L 2550 2150 
Q 2550 2300 2500 2400 
Q 2450 2500 2300 2500 
Q 2125 2500 1975 2312 
Q 1825 2125 1825 1825 
L 1825 125 
L 1325 125 
L 1325 2150 
Q 1325 2300 1275 2400 
Q 1225 2500 1075 2500 
Q 900 2500 750 2312 
Q 600 2125 600 1825 
L 600 125 
L 100 125 
L 100 2925 
L 600 2925 
L 600 2550 
Q 725 2750 900 2862 
Q 1075 2975 1275 2975 
Q 1475 2975 1612 2862 
Q 1750 2750 1800 2550 
Q 1925 2750 2087 2862 
Q 2250 2975 2450 2975 
Q 2750 2975 2900 2812 
Q 3050 2650 3050 2350 
L 3050 125 
z
" transform="scale(0.015625)"/>
       <path id="SimHei-29" d="M 1675 2250 
Q 1675 1425 1362 775 
Q 1050 125 425 -475 
L 150 -200 
Q 725 325 1012 912 
Q 1300 1500 1300 2250 
Q 1300 3000 1012 3587 
Q 725 4175 150 4725 
L 425 5000 
Q 1050 4375 1362 3725 
Q 1675 3075 1675 2250 
z
" transform="scale(0.015625)"/>
      </defs>
      <use xlink:href="#SimHei-884c"/>
      <use xlink:href="#SimHei-7a0b" transform="translate(100 0)"/>
      <use xlink:href="#SimHei-20" transform="translate(200 0)"/>
      <use xlink:href="#SimHei-73" transform="translate(250 0)"/>
      <use xlink:href="#SimHei-20" transform="translate(300 0)"/>
      <use xlink:href="#SimHei-28" transform="translate(350 0)"/>
      <use xlink:href="#SimHei-6d" transform="translate(400 0)"/>
      <use xlink:href="#SimHei-6d" transform="translate(450 0)"/>
      <use xlink:href="#SimHei-29" transform="translate(500 0)"/>
     </g>
    </g>
   </g>
   <g id="matplotlib.axis_2">
    <g id="ytick_1">
     <g id="line2d_15">
      <path d="M 58.48 402.387798 
L 1342.127 402.387798 
" clip-path="url(#pa3ef1c00d3)" style="fill: none; stroke-dasharray: 1.85,0.8; stroke-dashoffset: 0; stroke: #b0b0b0; stroke-opacity: 0.3; stroke-width: 0.5"/>
     </g>
     <g id="line2d_16">
      <defs>
       <path id="m16f399c5ed" d="M 0 0 
L -3.5 0 
" style="stroke: #333333; stroke-width: 0.8"/>
      </defs>
      <g>
       <use xlink:href="#m16f399c5ed" x="58.48" y="402.387798" style="fill: #333333; stroke: #333333; stroke-width: 0.8"/>
      </g>
     </g>
     <g id="text_9">
      <!-- 0 -->
      <g style="fill: #333333" transform="translate(44.98 406.856548) scale(0.13 -0.13)">
       <use xlink:href="#SimHei-30"/>
      </g>
     </g>
    </g>
    <g id="ytick_2">
     <g id="line2d_17">
      <path d="M 58.48 336.708944 
L 1342.127 336.708944 
" clip-path="url(#pa3ef1c00d3)" style="fill: none; stroke-dasharray: 1.85,0.8; stroke-dashoffset: 0; stroke: #b0b0b0; stroke-opacity: 0.3; stroke-width: 0.5"/>
     </g>
     <g id="line2d_18">
      <g>
       <use xlink:href="#m16f399c5ed" x="58.48" y="336.708944" style="fill: #333333; stroke: #333333; stroke-width: 0.8"/>
      </g>
     </g>
     <g id="text_10">
      <!-- 1000 -->
      <g style="fill: #333333" transform="translate(25.48 341.177694) scale(0.13 -0.13)">
       <use xlink:href="#SimHei-31"/>
       <use xlink:href="#SimHei-30" transform="translate(50 0)"/>
       <use xlink:href="#SimHei-30" transform="translate(100 0)"/>
       <use xlink:href="#SimHei-30" transform="translate(150 0)"/>
      </g>
     </g>
    </g>
    <g id="ytick_3">
     <g id="line2d_19">
      <path d="M 58.48 271.030089 
L 1342.127 271.030089 
" clip-path="url(#pa3ef1c00d3)" style="fill: none; stroke-dasharray: 1.85,0.8; stroke-dashoffset: 0; stroke: #b0b0b0; stroke-opacity: 0.3; stroke-width: 0.5"/>
     </g>
     <g id="line2d_20">
      <g>
       <use xlink:href="#m16f399c5ed" x="58.48" y="271.030089" style="fill: #333333; stroke: #333333; stroke-width: 0.8"/>
      </g>
     </g>
     <g id="text_11">
      <!-- 2000 -->
      <g style="fill: #333333" transform="translate(25.48 275.498839) scale(0.13 -0.13)">
       <use xlink:href="#SimHei-32"/>
       <use xlink:href="#SimHei-30" transform="translate(50 0)"/>
       <use xlink:href="#SimHei-30" transform="translate(100 0)"/>
       <use xlink:href="#SimHei-30" transform="translate(150 0)"/>
      </g>
     </g>
    </g>
    <g id="ytick_4">
     <g id="line2d_21">
      <path d="M 58.48 205.351235 
L 1342.127 205.351235 
" clip-path="url(#pa3ef1c00d3)" style="fill: none; stroke-dasharray: 1.85,0.8; stroke-dashoffset: 0; stroke: #b0b0b0; stroke-opacity: 0.3; stroke-width: 0.5"/>
     </g>
     <g id="line2d_22">
      <g>
       <use xlink:href="#m16f399c5ed" x="58.48" y="205.351235" style="fill: #333333; stroke: #333333; stroke-width: 0.8"/>
      </g>
     </g>
     <g id="text_12">
      <!-- 3000 -->
      <g style="fill: #333333" transform="translate(25.48 209.819985) scale(0.13 -0.13)">
       <use xlink:href="#SimHei-33"/>
       <use xlink:href="#SimHei-30" transform="translate(50 0)"/>
       <use xlink:href="#SimHei-30" transform="translate(100 0)"/>
       <use xlink:href="#SimHei-30" transform="translate(150 0)"/>
      </g>
     </g>
    </g>
    <g id="ytick_5">
     <g id="line2d_23">
      <path d="M 58.48 139.672381 
L 1342.127 139.672381 
" clip-path="url(#pa3ef1c00d3)" style="fill: none; stroke-dasharray: 1.85,0.8; stroke-dashoffset: 0; stroke: #b0b0b0; stroke-opacity: 0.3; stroke-width: 0.5"/>
     </g>
     <g id="line2d_24">
      <g>
       <use xlink:href="#m16f399c5ed" x="58.48" y="139.672381" style="fill: #333333; stroke: #333333; stroke-width: 0.8"/>
      </g>
     </g>
     <g id="text_13">
      <!-- 4000 -->
      <g style="fill: #333333" transform="translate(25.48 144.141131) scale(0.13 -0.13)">
       <defs>
        <path id="SimHei-34" d="M 2000 1100 
L 75 1100 
L 75 1525 
L 2100 4450 
L 2475 4450 
L 2475 1525 
L 3075 1525 
L 3075 1100 
L 2475 1100 
L 2475 150 
L 2000 150 
L 2000 1100 
z
M 2000 1525 
L 2000 3500 
L 600 1525 
L 2000 1525 
z
" transform="scale(0.015625)"/>
       </defs>
       <use xlink:href="#SimHei-34"/>
       <use xlink:href="#SimHei-30" transform="translate(50 0)"/>
       <use xlink:href="#SimHei-30" transform="translate(100 0)"/>
       <use xlink:href="#SimHei-30" transform="translate(150 0)"/>
      </g>
     </g>
    </g>
    <g id="text_14">
     <!-- 材料去除率 MRR (mm$^3$/s) -->
     <g style="fill: #333333" transform="translate(19.73 333.525322) rotate(-90) scale(0.14 -0.14)">
      <defs>
       <path id="SimHei-6750" d="M 4675 3750 
L 4675 4300 
Q 4675 4750 4650 5175 
L 5200 5175 
Q 5150 4750 5150 4275 
L 5150 3750 
Q 5650 3750 6100 3775 
L 6100 3300 
Q 5650 3325 5150 3325 
L 5150 125 
Q 5150 -250 4962 -375 
Q 4775 -500 4225 -625 
Q 4150 -325 4000 -50 
Q 4425 -50 4550 0 
Q 4675 50 4675 325 
L 4675 2675 
Q 4325 2000 3887 1412 
Q 3450 825 2800 225 
Q 2675 400 2400 625 
Q 2950 975 3512 1675 
Q 4075 2375 4500 3325 
L 3650 3325 
Q 3350 3325 2950 3300 
L 2950 3775 
Q 3350 3750 3650 3750 
L 4675 3750 
z
M 2200 2700 
Q 2650 2125 2850 1825 
Q 2625 1675 2450 1550 
Q 2100 2150 1925 2325 
L 1925 425 
Q 1925 -100 1950 -625 
L 1425 -625 
Q 1450 -75 1450 425 
L 1450 2175 
Q 1275 1800 1037 1400 
Q 800 1000 550 650 
Q 475 825 225 1100 
Q 525 1425 875 2062 
Q 1225 2700 1400 3325 
Q 875 3325 425 3300 
L 425 3775 
Q 925 3750 1450 3750 
L 1450 4350 
Q 1450 4725 1425 5175 
L 1950 5175 
Q 1925 4775 1925 4350 
L 1925 3750 
Q 2300 3750 2725 3775 
L 2725 3300 
Q 2300 3325 1925 3325 
L 1925 2475 
Q 2125 2600 2200 2700 
z
" transform="scale(0.015625)"/>
       <path id="SimHei-6599" d="M 1450 4400 
Q 1450 4800 1425 5100 
L 1925 5100 
Q 1900 4850 1900 4375 
L 1900 3075 
Q 2300 3075 2800 3100 
L 2800 2650 
Q 2300 2675 1900 2675 
L 1900 375 
Q 1900 -25 1925 -650 
L 1425 -650 
Q 1450 -25 1450 375 
L 1450 1875 
Q 1225 1300 600 475 
Q 425 650 225 800 
Q 600 1225 887 1712 
Q 1175 2200 1350 2675 
Q 875 2675 350 2650 
L 350 3100 
Q 875 3075 1450 3075 
L 1450 4400 
z
M 4800 4325 
Q 4800 4750 4775 5050 
L 5300 5050 
Q 5275 4750 5275 4325 
L 5275 1650 
Q 5525 1700 6125 1850 
L 6150 1400 
Q 5625 1300 5275 1225 
L 5275 325 
Q 5275 -50 5300 -650 
L 4775 -650 
Q 4800 125 4800 1125 
Q 3175 850 2750 725 
L 2600 1225 
Q 3700 1350 4800 1550 
L 4800 4325 
z
M 3350 3175 
Q 4025 2600 4450 2150 
L 4075 1775 
Q 3675 2300 3050 2800 
Q 3300 3025 3350 3175 
z
M 3550 4575 
Q 4150 4000 4575 3500 
Q 4375 3375 4175 3200 
Q 3825 3650 3250 4250 
Q 3475 4450 3550 4575 
z
M 750 4600 
Q 900 4400 1300 3625 
Q 1100 3525 875 3375 
Q 800 3600 350 4400 
Q 550 4475 750 4600 
z
M 3000 4350 
Q 2825 4075 2350 3300 
Q 2225 3425 1975 3550 
Q 2300 3925 2575 4600 
Q 2800 4450 3000 4350 
z
M 2325 2400 
Q 2650 2025 2975 1600 
Q 2800 1450 2600 1275 
Q 2300 1775 1975 2125 
Q 2175 2250 2325 2400 
z
" transform="scale(0.015625)"/>
       <path id="SimHei-53bb" d="M 3325 1625 
Q 3050 1450 2725 1037 
Q 2400 625 1775 25 
Q 2500 100 3125 162 
Q 3750 225 4500 325 
Q 3950 975 3725 1150 
Q 3950 1250 4200 1450 
Q 4500 1125 4900 662 
Q 5300 200 5750 -275 
Q 5450 -425 5200 -600 
Q 5000 -300 4750 -25 
Q 3025 -200 2262 -337 
Q 1500 -475 1175 -600 
Q 1075 -325 900 0 
Q 1200 75 1812 700 
Q 2425 1325 2675 1975 
L 1450 1975 
Q 750 1975 250 1950 
L 250 2400 
Q 775 2375 1450 2375 
L 2975 2375 
L 2975 3550 
L 2075 3550 
Q 1450 3550 975 3525 
L 975 3975 
Q 1450 3950 2050 3950 
L 2975 3950 
L 2975 4450 
Q 2975 4825 2950 5175 
L 3550 5175 
Q 3500 4850 3500 4500 
L 3500 3950 
L 4250 3950 
Q 4875 3950 5425 3975 
L 5425 3525 
Q 4875 3550 4275 3550 
L 3500 3550 
L 3500 2375 
L 5025 2375 
Q 5625 2375 6175 2400 
L 6175 1950 
Q 5625 1975 5025 1975 
L 2850 1975 
Q 3125 1775 3325 1625 
z
" transform="scale(0.015625)"/>
       <path id="SimHei-9664" d="M 4325 2850 
L 4325 2100 
L 4900 2100 
Q 5250 2100 5725 2125 
L 5725 1675 
Q 5275 1700 4925 1700 
L 4325 1700 
L 4325 75 
Q 4325 -375 4125 -475 
Q 3925 -575 3450 -675 
Q 3425 -400 3250 -75 
Q 3650 -75 3775 -50 
Q 3900 -25 3900 250 
L 3900 1700 
L 3425 1700 
Q 2975 1700 2550 1675 
L 2550 2125 
Q 2950 2100 3450 2100 
L 3900 2100 
L 3900 2850 
L 3625 2850 
Q 3375 2850 3100 2825 
L 3100 3200 
Q 2800 2825 2625 2675 
Q 2450 2850 2200 3000 
Q 2850 3500 3262 4125 
Q 3675 4750 3875 5300 
Q 4100 5175 4425 5050 
Q 4375 4975 4275 4850 
Q 4625 4275 5025 3925 
Q 5425 3575 6200 3250 
Q 5975 3075 5825 2750 
Q 5525 2900 5125 3225 
L 5125 2825 
Q 4800 2850 4525 2850 
L 4325 2850 
z
M 2500 4850 
Q 2350 4475 1800 2950 
Q 2175 2425 2275 2150 
Q 2375 1875 2375 1550 
Q 2375 1225 2150 1000 
Q 1925 775 1450 675 
Q 1375 950 1225 1225 
Q 1725 1275 1850 1437 
Q 1975 1600 1862 1975 
Q 1750 2350 1300 2950 
Q 1650 3625 1875 4450 
L 1025 4450 
L 1025 -625 
L 550 -625 
Q 575 -25 575 925 
L 575 3800 
Q 575 4375 550 4850 
L 2500 4850 
z
M 5050 3275 
Q 4375 3875 4025 4500 
Q 3600 3775 3150 3275 
L 5050 3275 
z
M 5050 1250 
Q 5275 975 5512 687 
Q 5750 400 6075 100 
Q 5800 0 5600 -225 
Q 5425 50 5137 412 
Q 4850 775 4650 950 
L 5050 1250 
z
M 3525 975 
Q 3350 800 3100 462 
Q 2850 125 2550 -225 
Q 2350 -50 2150 75 
Q 2425 325 2650 612 
Q 2875 900 3075 1275 
Q 3275 1100 3525 975 
z
" transform="scale(0.015625)"/>
       <path id="SimHei-7387" d="M 3325 5150 
Q 3425 4900 3550 4525 
L 4800 4525 
Q 5250 4525 5800 4550 
L 5800 4125 
Q 5250 4175 4775 4175 
L 2800 4175 
Q 2975 4050 3300 3900 
Q 3075 3750 2875 3537 
Q 2675 3325 2475 3125 
L 3275 3125 
Q 3575 3425 3775 3775 
Q 4000 3600 4275 3425 
Q 3950 3250 3600 2875 
Q 3250 2500 2625 2000 
L 3850 2100 
Q 3725 2250 3600 2425 
Q 3750 2475 4000 2650 
Q 4250 2350 4700 1700 
Q 4475 1625 4225 1450 
Q 4175 1600 4025 1775 
Q 3700 1750 3425 1750 
L 3425 1050 
L 5150 1050 
Q 5675 1050 6100 1075 
L 6100 650 
Q 5700 675 5125 675 
L 3425 675 
L 3425 175 
Q 3425 -300 3450 -625 
L 2900 -625 
Q 2925 -300 2925 175 
L 2925 675 
L 1325 675 
Q 825 675 325 650 
L 325 1075 
Q 825 1050 1350 1050 
L 2925 1050 
L 2925 1700 
Q 2700 1675 2475 1637 
Q 2250 1600 2025 1525 
Q 1950 1775 1850 2000 
Q 2075 2025 2325 2200 
Q 2575 2375 2975 2800 
Q 2300 2725 2025 2625 
Q 1975 2875 1850 3175 
Q 2075 3175 2325 3487 
Q 2575 3800 2750 4175 
L 1700 4175 
Q 1150 4175 650 4125 
L 650 4550 
Q 1150 4525 1550 4525 
L 2975 4525 
Q 2900 4825 2800 5025 
Q 3025 5075 3325 5150 
z
M 1625 2575 
Q 1725 2400 1825 2200 
Q 1575 2050 1325 1862 
Q 1075 1675 800 1425 
Q 625 1675 475 1875 
Q 800 2025 1100 2212 
Q 1400 2400 1625 2575 
z
M 4850 2650 
Q 5125 2475 5337 2337 
Q 5550 2200 5875 1950 
Q 5675 1800 5500 1600 
Q 5300 1775 5062 1975 
Q 4825 2175 4575 2325 
Q 4725 2475 4850 2650 
z
M 5725 3525 
Q 5550 3450 5300 3262 
Q 5050 3075 4800 2825 
Q 4625 3050 4475 3175 
Q 4700 3325 4875 3487 
Q 5050 3650 5300 3925 
Q 5525 3700 5725 3525 
z
M 1050 3850 
Q 1425 3600 1775 3275 
Q 1575 3100 1425 2925 
Q 1075 3300 675 3525 
Q 875 3700 1050 3850 
z
" transform="scale(0.015625)"/>
       <path id="SimHei-4d" d="M 2925 125 
L 2425 125 
L 2425 3175 
L 2375 3175 
L 1775 125 
L 1375 125 
L 775 3175 
L 725 3175 
L 725 125 
L 225 125 
L 225 4400 
L 1000 4400 
L 1550 1575 
L 1600 1575 
L 2150 4400 
L 2925 4400 
L 2925 125 
z
" transform="scale(0.015625)"/>
       <path id="SimHei-52" d="M 3000 125 
L 2400 125 
L 1500 1975 
L 850 1975 
L 850 125 
L 275 125 
L 275 4400 
L 1525 4400 
Q 2125 4400 2500 4112 
Q 2875 3825 2875 3175 
Q 2875 2675 2625 2400 
Q 2375 2125 2050 2050 
L 3000 125 
z
M 2300 3175 
Q 2300 3525 2087 3725 
Q 1875 3925 1400 3925 
L 850 3925 
L 850 2450 
L 1550 2450 
Q 1850 2450 2075 2612 
Q 2300 2775 2300 3175 
z
" transform="scale(0.015625)"/>
       <path id="DejaVuSans-33" d="M 2597 2516 
Q 3050 2419 3304 2112 
Q 3559 1806 3559 1356 
Q 3559 666 3084 287 
Q 2609 -91 1734 -91 
Q 1441 -91 1130 -33 
Q 819 25 488 141 
L 488 750 
Q 750 597 1062 519 
Q 1375 441 1716 441 
Q 2309 441 2620 675 
Q 2931 909 2931 1356 
Q 2931 1769 2642 2001 
Q 2353 2234 1838 2234 
L 1294 2234 
L 1294 2753 
L 1863 2753 
Q 2328 2753 2575 2939 
Q 2822 3125 2822 3475 
Q 2822 3834 2567 4026 
Q 2313 4219 1838 4219 
Q 1578 4219 1281 4162 
Q 984 4106 628 3988 
L 628 4550 
Q 988 4650 1302 4700 
Q 1616 4750 1894 4750 
Q 2613 4750 3031 4423 
Q 3450 4097 3450 3541 
Q 3450 3153 3228 2886 
Q 3006 2619 2597 2516 
z
" transform="scale(0.015625)"/>
       <path id="SimHei-2f" d="M 3000 4550 
L 350 -175 
L 100 -25 
L 2750 4700 
L 3000 4550 
z
" transform="scale(0.015625)"/>
      </defs>
      <use xlink:href="#SimHei-6750" transform="translate(0 0.765625)"/>
      <use xlink:href="#SimHei-6599" transform="translate(100 0.765625)"/>
      <use xlink:href="#SimHei-53bb" transform="translate(200 0.765625)"/>
      <use xlink:href="#SimHei-9664" transform="translate(300 0.765625)"/>
      <use xlink:href="#SimHei-7387" transform="translate(400 0.765625)"/>
      <use xlink:href="#SimHei-20" transform="translate(500 0.765625)"/>
      <use xlink:href="#SimHei-4d" transform="translate(550 0.765625)"/>
      <use xlink:href="#SimHei-52" transform="translate(600 0.765625)"/>
      <use xlink:href="#SimHei-52" transform="translate(650 0.765625)"/>
      <use xlink:href="#SimHei-20" transform="translate(700 0.765625)"/>
      <use xlink:href="#SimHei-28" transform="translate(750 0.765625)"/>
      <use xlink:href="#SimHei-6d" transform="translate(800 0.765625)"/>
      <use xlink:href="#SimHei-6d" transform="translate(850 0.765625)"/>
      <use xlink:href="#DejaVuSans-33" transform="translate(900.957031 39.046875) scale(0.7)"/>
      <use xlink:href="#SimHei-2f" transform="translate(948.227539 0.765625)"/>
      <use xlink:href="#SimHei-73" transform="translate(998.227539 0.765625)"/>
      <use xlink:href="#SimHei-29" transform="translate(1048.227539 0.765625)"/>
     </g>
    </g>
   </g>
   <g id="patch_3">
    <path d="M 58.48 429.970158 
L 58.48 83.220486 
" style="fill: none; stroke: #000000; stroke-width: 0.8; stroke-linejoin: miter; stroke-linecap: square"/>
   </g>
   <g id="patch_4">
    <path d="M 1342.127 429.970158 
L 1342.127 83.220486 
" style="fill: none; stroke: #000000; stroke-width: 0.8; stroke-linejoin: miter; stroke-linecap: square"/>
   </g>
   <g id="patch_5">
    <path d="M 58.48 429.970158 
L 1342.127 429.970158 
" style="fill: none; stroke: #000000; stroke-width: 0.8; stroke-linejoin: miter; stroke-linecap: square"/>
   </g>
   <g id="patch_6">
    <path d="M 58.48 83.220486 
L 1342.127 83.220486 
" style="fill: none; stroke: #000000; stroke-width: 0.8; stroke-linejoin: miter; stroke-linecap: square"/>
   </g>
   <g id="text_15">
    <!-- 材料去除率 -->
    <g style="fill: #333333" transform="translate(655.3035 21.754687) scale(0.18 -0.18)">
     <use xlink:href="#SimHei-6750"/>
     <use xlink:href="#SimHei-6599" transform="translate(100 0)"/>
     <use xlink:href="#SimHei-53bb" transform="translate(200 0)"/>
     <use xlink:href="#SimHei-9664" transform="translate(300 0)"/>
     <use xlink:href="#SimHei-7387" transform="translate(400 0)"/>
    </g>
   </g>
   <g id="line2d_25">
    <path d="M 160.588284 402.387798 
L 178.367228 402.387798 
L 178.803944 323.730802 
L 179.366017 323.730802 
L 192.689496 323.730802 
L 192.689496 402.387798 
L 193.673264 323.730802 
L 200.486024 323.730802 
L 200.642207 402.387798 
L 201.481051 323.730802 
L 203.882958 323.730802 
L 203.896793 402.387798 
L 204.875366 396.488523 
L 204.910073 396.488523 
L 204.910073 402.387798 
L 205.437811 151.169412 
L 205.668502 402.387798 
L 207.202834 402.387798 
L 207.220189 323.730802 
L 208.201468 323.730802 
L 209.745947 323.730802 
L 210.005748 402.387798 
L 210.735199 323.730802 
L 215.871845 323.730802 
L 216.062435 402.387798 
L 216.869948 323.730802 
L 217.12423 323.730802 
L 217.141579 402.387798 
L 218.116315 352.806361 
L 218.133647 352.806361 
L 218.133647 323.730802 
L 218.778492 402.387798 
L 219.130255 323.730802 
L 222.843335 323.730802 
L 222.843335 332.389757 
L 223.827577 323.730802 
L 224.037384 323.730802 
L 224.047801 402.387798 
L 225.029556 323.730802 
L 227.326216 323.730802 
L 227.340071 402.387798 
L 227.847137 402.387798 
L 231.242899 402.387798 
L 231.278492 323.730802 
L 232.234293 402.387798 
L 232.582706 402.387798 
L 232.652111 323.730802 
L 233.580989 323.730802 
L 235.958343 323.730802 
L 236.199148 402.387798 
L 236.95158 323.730802 
L 236.96714 323.730802 
L 236.996335 402.387798 
L 237.404051 402.387798 
L 242.179204 402.387798 
L 242.19658 323.730802 
L 243.168787 402.387798 
L 243.874511 402.387798 
L 243.909214 323.730802 
L 244.826451 402.387798 
L 245.240657 402.387798 
L 245.303404 392.948958 
L 245.687104 402.387798 
L 246.809631 402.387798 
L 246.896386 323.730802 
L 247.794479 323.730802 
L 249.928965 323.730802 
L 250.146966 401.651553 
L 250.926408 362.092409 
L 250.929866 362.092409 
L 250.929866 402.387798 
L 251.60475 323.730802 
L 251.923755 323.730802 
L 252.008893 323.943962 
L 252.159635 386.680527 
L 252.389563 323.730802 
L 252.994796 323.730802 
L 255.130374 323.730802 
L 255.151316 402.387798 
L 256.078645 402.387798 
L 256.231389 402.387798 
L 256.248752 323.730802 
L 257.221253 323.730802 
L 257.687795 323.730802 
L 257.853214 402.387798 
L 258.679336 323.730802 
L 258.766047 323.730802 
L 259.573133 402.387798 
L 259.76313 402.387798 
L 260.394686 402.387798 
L 260.412052 323.730802 
L 261.385734 402.387798 
L 261.40307 402.387798 
L 261.40307 395.915841 
L 262.349805 402.387798 
L 262.502551 402.387798 
L 262.571971 323.730802 
L 263.498187 402.387798 
L 265.52485 402.387798 
L 265.681037 323.730802 
L 266.520598 323.730802 
L 266.947219 323.730802 
L 266.95069 402.387798 
L 267.9432 323.730802 
L 268.766873 323.730802 
L 268.784228 402.387798 
L 269.505927 402.387798 
L 269.974539 402.387798 
L 269.991891 323.730802 
L 270.969594 323.730802 
L 271.132364 323.730802 
L 271.1497 402.387798 
L 272.125315 323.730802 
L 273.189061 323.730802 
L 273.20641 402.387798 
L 274.17632 323.730802 
L 275.450429 323.730802 
L 275.460848 402.387798 
L 276.444703 323.730802 
L 277.879443 323.730802 
L 277.886401 402.387798 
L 278.875002 323.730802 
L 279.763469 323.730802 
L 279.790963 402.387798 
L 280.760558 402.387798 
L 281.536339 402.387798 
L 281.571029 323.730802 
L 282.529432 323.730802 
L 282.799689 323.730802 
L 282.806614 402.387798 
L 283.788115 323.730802 
L 284.842872 323.730802 
L 284.863686 402.387798 
L 285.828982 323.730802 
L 287.469236 323.730802 
L 287.479659 402.387798 
L 288.460629 323.730802 
L 290.022336 323.730802 
L 290.036205 402.387798 
L 291.019827 323.730802 
L 293.434486 323.730802 
L 293.444875 402.387798 
L 294.423496 323.730802 
L 297.330785 323.730802 
L 297.341182 402.387798 
L 298.329661 323.730802 
L 298.751184 323.730802 
L 299.132422 402.387798 
L 299.739799 323.730802 
L 301.659348 323.730802 
L 301.669949 402.387798 
L 302.650713 323.730802 
L 304.245536 323.730802 
L 304.259422 402.387798 
L 304.989604 402.387798 
L 305.458218 402.387798 
L 305.492926 323.730802 
L 306.454035 323.730802 
L 307.083826 323.730802 
L 307.180349 402.387798 
L 308.082798 402.387798 
L 308.199325 402.387798 
L 308.315467 323.730802 
L 309.182431 323.730802 
L 309.729761 323.730802 
L 309.748456 402.387798 
L 310.727437 402.387798 
L 310.744791 402.387798 
L 310.762144 323.730802 
L 311.737731 323.730802 
L 312.011283 323.730802 
L 312.019582 402.387798 
L 313.005323 402.387798 
L 313.087744 402.387798 
L 313.105103 323.730802 
L 314.074191 323.730802 
L 314.228722 323.730802 
L 314.249528 402.387798 
L 315.219566 323.730802 
L 316.280369 323.730802 
L 316.290812 402.387798 
L 317.274837 323.730802 
L 318.162643 323.730802 
L 318.288743 402.387798 
L 319.15119 323.730802 
L 320.168693 323.730802 
L 320.192981 402.387798 
L 321.161926 323.730802 
L 321.998993 323.730802 
L 322.018253 402.387798 
L 322.98949 323.730802 
L 323.145555 323.730802 
L 323.161479 402.387798 
L 324.138281 402.387798 
L 324.836109 402.387798 
L 324.853462 323.730802 
L 325.827875 347.497603 
L 325.844636 347.497603 
L 325.878097 323.730802 
L 325.96918 402.387798 
L 326.837252 402.387798 
L 326.854606 402.387798 
L 326.854606 378.790699 
L 327.841069 402.387798 
L 327.907201 402.387798 
L 328.021261 323.730802 
L 328.902665 383.89892 
L 328.92005 383.89892 
L 329.216501 357.932044 
L 328.963598 402.387798 
L 329.838941 402.387798 
L 333.019981 402.387798 
L 333.106285 151.169412 
L 334.016248 402.387798 
L 334.056862 402.387798 
L 334.195588 361.092875 
L 335.045916 402.387798 
L 339.324221 402.387798 
L 339.341566 323.730802 
L 340.320192 402.387798 
L 340.769491 402.387798 
L 340.786845 323.730802 
L 341.762512 402.387798 
L 342.223601 402.387798 
L 342.223601 323.730802 
L 343.215036 402.387798 
L 343.810283 402.387798 
L 343.827637 323.730802 
L 344.797365 402.387798 
L 345.462451 402.387798 
L 345.479802 323.730802 
L 346.462284 389.930182 
L 346.465458 389.930182 
L 347.327418 323.730802 
L 346.468648 402.387798 
L 347.462011 323.730802 
L 348.435535 323.730802 
L 348.435535 402.387798 
L 349.421 323.730802 
L 350.49355 323.730802 
L 350.500476 402.387798 
L 351.493126 323.730802 
L 352.170999 323.730802 
L 352.17776 402.387798 
L 353.118976 402.387798 
L 353.690941 402.387798 
L 353.760345 323.730802 
L 354.690155 402.387798 
L 355.302783 402.387798 
L 355.320137 323.730802 
L 356.297443 402.387798 
L 356.766059 402.387798 
L 356.783382 323.730802 
L 357.762957 402.387798 
L 358.275329 402.387798 
L 358.292683 323.730802 
L 359.270139 402.387798 
L 359.800381 402.387798 
L 359.817757 323.730802 
L 360.797777 323.730802 
L 361.699099 323.730802 
L 361.844229 402.387798 
L 362.639011 402.387798 
L 363.535219 402.387798 
L 363.584759 323.730802 
L 364.52893 402.375998 
L 366.010946 402.387798 
L 366.028321 360.673633 
L 366.76403 402.387798 
L 367.999609 402.387798 
L 368.461025 327.528558 
L 368.997174 402.387798 
L 369.14292 402.387798 
L 369.14292 384.689974 
L 369.893876 402.387798 
L 372.346925 402.387798 
L 372.451031 323.730802 
L 373.341936 402.387798 
L 373.888612 402.387798 
L 373.905987 323.730802 
L 374.796716 402.387798 
L 379.811437 402.387798 
L 380.01911 389.672078 
L 380.806988 402.387798 
L 381.028315 402.38191 
L 381.90866 400.285663 
L 381.236576 402.387798 
L 382.012766 400.291551 
L 382.151599 400.291551 
L 382.356923 390.506232 
L 382.208339 402.387798 
L 383.148521 402.387798 
L 384.43936 402.387798 
L 384.509889 391.151399 
L 385.435334 402.387798 
L 385.626108 402.387798 
L 385.782292 398.189416 
L 386.611151 400.291551 
L 386.749984 400.291551 
L 386.84988 391.230487 
L 386.832518 402.387798 
L 387.742531 402.387798 
L 391.716614 402.387798 
L 392.153331 323.573173 
L 392.715403 323.573173 
L 406.038883 323.573173 
L 406.038883 402.387798 
L 407.02265 323.573173 
L 413.835411 323.573173 
L 413.991593 402.387798 
L 414.830437 323.573173 
L 417.232344 323.573173 
L 417.246179 402.387798 
L 418.224752 396.476701 
L 418.259459 396.476701 
L 418.259459 402.387798 
L 418.787197 139.698652 
L 419.017888 402.387798 
L 420.55222 402.387798 
L 420.569575 323.573173 
L 421.550854 323.573173 
L 423.095333 323.573173 
L 423.355135 402.387798 
L 424.084585 323.573173 
L 429.221232 323.573173 
L 429.411821 402.387798 
L 430.219335 323.573173 
L 430.473616 323.573173 
L 430.490965 402.387798 
L 431.465702 352.706999 
L 431.483033 352.706999 
L 431.483033 323.573173 
L 432.127879 402.387798 
L 432.479642 323.573173 
L 436.080987 323.573173 
L 436.095403 402.387798 
L 437.077881 323.573173 
L 437.334962 323.573173 
L 437.348837 402.387798 
L 438.330812 323.573173 
L 440.701156 323.573173 
L 440.71505 402.387798 
L 441.230635 402.387798 
L 444.71314 402.387798 
L 444.739538 323.573173 
L 445.710807 402.387798 
L 446.571952 402.387798 
L 446.606678 323.573173 
L 447.564801 402.387798 
L 448.135627 402.387798 
L 448.170329 323.573173 
L 448.955567 402.387798 
L 450.610296 402.387798 
L 450.644986 323.573173 
L 451.601208 323.573173 
L 453.909172 323.573173 
L 454.150436 402.387798 
L 454.903227 323.573173 
L 454.934432 323.573173 
L 454.958617 402.387798 
L 455.929789 383.655532 
L 455.946156 383.655532 
L 455.956575 396.834638 
L 456.24437 323.573173 
L 456.9369 323.573173 
L 459.193181 323.573173 
L 459.21551 402.387798 
L 460.124518 402.387798 
L 460.277271 402.387798 
L 460.294647 323.573173 
L 461.263338 323.573173 
L 463.015853 324.11857 
L 463.891143 402.387798 
L 463.380971 323.573173 
L 464.005394 402.387798 
L 464.678595 402.387798 
L 464.695944 323.573173 
L 465.664835 323.573173 
L 465.99101 323.573173 
L 466.001509 402.387798 
L 466.985183 323.573173 
L 468.013886 323.573173 
L 468.031232 402.387798 
L 468.551028 402.387798 
L 470.695089 402.387798 
L 470.7847 323.573173 
L 471.692396 323.573173 
L 471.714886 323.573173 
L 471.725289 402.387798 
L 472.709951 402.387798 
L 472.727317 402.387798 
L 472.727317 323.573173 
L 473.72319 402.387798 
L 474.438378 402.387798 
L 474.488882 393.407935 
L 475.008544 402.387798 
L 476.620895 402.387798 
L 476.88288 323.573173 
L 477.61517 323.573173 
L 478.125377 323.573173 
L 478.146197 402.387798 
L 479.116614 323.573173 
L 479.818635 323.573173 
L 479.835974 402.387798 
L 480.558277 402.387798 
L 481.02768 402.387798 
L 481.045023 323.573173 
L 482.020726 323.573173 
L 482.157335 323.573173 
L 482.171218 402.387798 
L 483.152415 323.573173 
L 484.17215 323.573173 
L 484.185996 402.387798 
L 485.159016 323.573173 
L 486.394258 323.573173 
L 486.404651 402.387798 
L 487.388898 323.573173 
L 488.786969 323.573173 
L 488.811252 402.387798 
L 489.775102 323.573173 
L 490.577755 323.573173 
L 490.606794 402.387798 
L 491.574603 402.387798 
L 492.3657 402.387798 
L 492.38304 323.573173 
L 493.364575 323.573173 
L 493.559011 323.573173 
L 493.562476 402.387798 
L 494.551111 323.573173 
L 495.579057 323.573173 
L 495.596391 402.387798 
L 496.573218 323.573173 
L 498.130879 323.573173 
L 498.151709 402.387798 
L 499.123786 323.573173 
L 500.644017 323.573173 
L 500.657895 402.387798 
L 501.630926 323.573173 
L 504.015898 323.573173 
L 504.026319 402.387798 
L 505.007305 323.573173 
L 507.85243 323.573173 
L 507.873275 402.387798 
L 508.845125 323.573173 
L 509.238423 323.573173 
L 509.675202 402.387798 
L 510.230518 323.573173 
L 512.11157 323.573173 
L 512.11851 402.387798 
L 513.099658 323.573173 
L 514.702161 323.573173 
L 514.949063 402.387798 
L 515.449613 402.387798 
L 515.91826 402.387798 
L 515.952968 323.573173 
L 516.913569 323.573173 
L 517.526631 323.573173 
L 517.636583 402.387798 
L 518.522952 402.387798 
L 518.665196 402.387798 
L 518.77576 323.573173 
L 519.654005 323.573173 
L 520.187667 323.573173 
L 520.205775 402.387798 
L 521.162913 402.387798 
L 521.206297 402.387798 
L 521.223651 323.573173 
L 522.199277 323.573173 
L 522.472815 323.573173 
L 522.482246 402.387798 
L 523.471495 402.387798 
L 523.550085 402.387798 
L 523.567443 323.573173 
L 524.534453 323.573173 
L 524.689146 323.573173 
L 524.703035 402.387798 
L 525.683091 323.573173 
L 526.736228 323.573173 
L 526.75359 402.387798 
L 527.725597 323.573173 
L 528.629466 323.573173 
L 528.65102 402.387798 
L 529.617593 323.573173 
L 530.645705 323.573173 
L 530.659559 402.387798 
L 531.631761 323.573173 
L 532.465865 323.573173 
L 532.482445 402.387798 
L 533.459828 323.573173 
L 533.615843 323.573173 
L 533.631745 402.387798 
L 534.609475 402.387798 
L 535.310528 402.387798 
L 535.327859 323.573173 
L 536.302383 347.289873 
L 536.319174 347.289873 
L 536.369292 323.573173 
L 536.457959 402.387798 
L 537.312788 402.387798 
L 537.330142 402.387798 
L 537.330142 378.74341 
L 538.327487 402.387798 
L 538.396889 402.387798 
L 538.53346 323.573173 
L 539.396091 402.387798 
L 539.439458 402.387798 
L 539.439458 367.575772 
L 540.319157 402.387798 
L 543.479419 402.387798 
L 543.565723 139.698652 
L 544.47563 402.387798 
L 544.516244 402.387798 
L 544.65497 361.01012 
L 545.505298 402.387798 
L 549.740098 402.387798 
L 549.75744 323.573173 
L 550.733694 402.387798 
L 551.142115 402.387798 
L 551.159469 323.573173 
L 552.141707 402.387798 
L 552.546187 402.387798 
L 552.563533 323.573173 
L 553.541509 402.387798 
L 554.042919 402.387798 
L 554.060273 323.573173 
L 555.036342 402.387798 
L 555.580127 402.387798 
L 555.597503 323.573173 
L 556.578024 402.387798 
L 557.282286 402.387798 
L 557.29964 323.573173 
L 558.280302 323.573173 
L 558.306079 323.573173 
L 558.323438 402.387798 
L 559.301427 323.573173 
L 560.213672 323.889022 
L 560.229869 402.387798 
L 561.055577 323.573173 
L 561.204805 323.573173 
L 562.28783 323.573173 
L 562.353099 402.387798 
L 563.281289 402.387798 
L 563.298615 402.387798 
L 563.616806 323.573173 
L 564.286381 323.573173 
L 564.353821 323.573173 
L 564.367426 402.387798 
L 565.342919 323.573173 
L 565.825498 323.573173 
L 565.846319 402.387798 
L 566.813602 402.387798 
L 566.882456 402.387798 
L 567.053165 323.573173 
L 567.866738 402.387798 
L 568.12387 402.387798 
L 568.141224 323.573173 
L 569.117774 402.387798 
L 569.547609 402.387798 
L 569.564979 323.573173 
L 570.539233 402.387798 
L 571.104653 402.387798 
L 571.104653 361.01012 
L 572.065771 402.387798 
L 576.457877 402.387798 
L 576.993991 323.573173 
L 577.453276 323.573173 
L 578.039523 324.483482 
L 578.049913 402.387798 
L 578.913908 323.573173 
L 579.027939 402.387798 
L 579.59269 402.387798 
L 579.59269 369.103397 
L 580.174597 402.387798 
L 581.764047 402.387798 
L 581.847849 323.573173 
L 582.747571 402.387798 
L 583.490495 402.387798 
L 583.507846 323.573173 
L 584.488063 402.387798 
L 585.0744 402.387798 
L 585.109102 323.573173 
L 585.917332 402.387798 
L 590.060461 402.387798 
L 590.762481 386.876193 
L 591.057277 400.29791 
L 591.144057 400.283132 
L 591.144057 402.387798 
L 591.951187 400.277221 
L 592.142098 402.387798 
L 592.639431 402.387798 
L 593.206828 386.109425 
L 593.635514 400.29791 
L 593.670216 400.29791 
L 593.670216 402.387798 
L 594.653979 402.387798 
L 594.828646 402.387798 
L 595.396888 385.796334 
L 595.81365 400.283132 
L 595.883054 400.283132 
L 595.883054 402.387798 
L 596.505963 398.178466 
L 596.870384 402.387798 
L 597.359417 402.387798 
L 597.913959 386.726544 
L 598.355609 398.208022 
L 598.390311 398.208022 
L 598.407637 402.387798 
L 599.386476 402.387798 
L 603.100167 402.387798 
L 603.536884 323.573173 
L 604.098957 323.573173 
L 617.422436 323.573173 
L 617.422436 402.387798 
L 618.406203 323.573173 
L 625.218964 323.573173 
L 625.375147 402.387798 
L 626.213991 323.573173 
L 628.615897 323.573173 
L 628.629732 402.387798 
L 629.608305 396.476701 
L 629.643013 396.476701 
L 629.643013 402.387798 
L 630.17075 139.698652 
L 630.401441 402.387798 
L 631.935774 402.387798 
L 631.953128 323.573173 
L 632.934407 323.573173 
L 634.478887 323.573173 
L 634.738688 402.387798 
L 635.468139 323.573173 
L 640.604785 323.573173 
L 640.795375 402.387798 
L 641.602888 323.573173 
L 641.857169 323.573173 
L 641.874518 402.387798 
L 642.849255 352.706999 
L 642.866586 352.706999 
L 642.866586 323.573173 
L 643.511432 402.387798 
L 643.863195 323.573173 
L 647.399464 323.573173 
L 647.413316 402.387798 
L 648.394627 323.573173 
L 648.683299 323.573173 
L 648.696906 402.387798 
L 649.677399 323.573173 
L 652.131907 323.573173 
L 652.145815 402.387798 
L 652.668738 402.387798 
L 656.198137 402.387798 
L 656.215512 323.573173 
L 657.184079 402.387798 
L 657.99004 402.387798 
L 658.007366 323.573173 
L 658.987953 402.387798 
L 659.434068 402.387798 
L 659.451443 323.573173 
L 660.087099 402.387798 
L 661.170541 402.387798 
L 661.7471 323.573173 
L 662.168667 323.573173 
L 662.707325 323.573173 
L 662.707325 402.387798 
L 663.697922 323.573173 
L 664.124842 323.573173 
L 664.138738 402.387798 
L 664.539245 402.387798 
L 665.871043 402.387798 
L 665.88837 323.573173 
L 666.863077 402.387798 
L 667.626634 402.387798 
L 667.661336 323.573173 
L 668.620503 402.387798 
L 669.037168 402.387798 
L 669.054544 323.573173 
L 669.680063 402.387798 
L 670.760461 402.387798 
L 670.840637 323.573173 
L 671.759337 363.092599 
L 671.762818 363.092599 
L 671.766261 402.387798 
L 672.518177 323.573173 
L 672.757551 323.573173 
L 673.143599 323.573173 
L 673.154022 402.387798 
L 674.092643 402.387798 
L 674.220755 402.387798 
L 674.238096 323.573173 
L 675.21996 402.387798 
L 675.642024 402.387798 
L 675.659378 323.573173 
L 676.635632 402.387798 
L 677.018539 402.387798 
L 677.035897 323.573173 
L 678.017454 402.387798 
L 678.398617 402.387798 
L 678.415971 323.573173 
L 679.394221 402.387798 
L 679.779606 402.387798 
L 679.79696 323.573173 
L 680.773692 402.387798 
L 681.307909 402.387798 
L 681.325263 323.573173 
L 682.298072 402.387798 
L 682.914302 402.387798 
L 682.931678 323.573173 
L 683.90353 396.476701 
L 683.920883 396.476701 
L 683.920883 402.387798 
L 684.711923 323.573173 
L 684.91949 323.573173 
L 685.790067 324.483482 
L 685.797013 402.387798 
L 686.609194 323.573173 
L 686.776815 323.573173 
L 687.795856 323.573173 
L 687.815587 402.387798 
L 688.794084 323.573173 
L 689.21616 323.573173 
L 689.239502 402.387798 
L 690.214003 402.387798 
L 690.904209 402.387798 
L 690.921549 323.573173 
L 691.897456 402.387798 
L 692.265001 402.387798 
L 692.282355 323.573173 
L 693.260852 402.387798 
L 693.569394 402.387798 
L 693.586745 323.573173 
L 694.56721 402.387798 
L 694.934753 402.387798 
L 694.952107 323.573173 
L 695.933054 402.387798 
L 696.311392 402.387798 
L 696.328752 323.573173 
L 697.308584 402.387798 
L 697.823522 402.387798 
L 697.840876 323.573173 
L 698.819044 402.387798 
L 699.457408 402.387798 
L 699.46801 323.573173 
L 700.442542 402.387798 
L 700.459896 402.387798 
L 701.268302 323.573173 
L 701.445206 323.573173 
L 702.416564 323.573173 
L 702.440838 402.387798 
L 703.414186 323.573173 
L 704.522156 323.573173 
L 704.538432 402.387798 
L 705.516864 323.573173 
L 707.001165 323.573173 
L 707.0185 402.387798 
L 707.986655 323.573173 
L 709.623776 323.573173 
L 709.634196 402.387798 
L 710.613175 323.573173 
L 712.794393 323.573173 
L 712.815191 402.387798 
L 713.782747 323.573173 
L 714.634686 323.573173 
L 714.641632 402.387798 
L 715.629715 323.573173 
L 716.149467 323.573173 
L 716.167288 402.387798 
L 717.149277 323.573173 
L 718.442394 323.573173 
L 718.445865 402.387798 
L 718.816894 402.387798 
L 719.688663 402.387798 
L 719.72339 323.573173 
L 720.684163 323.573173 
L 720.947985 323.573173 
L 720.954935 402.387798 
L 721.934672 323.573173 
L 723.125052 323.573173 
L 723.145889 402.387798 
L 724.119058 323.573173 
L 725.467704 323.573173 
L 725.485054 402.387798 
L 726.455879 323.573173 
L 726.792151 323.573173 
L 727.301876 402.387798 
L 727.781149 327.364747 
L 727.7985 327.364747 
L 727.7985 323.573173 
L 727.861007 402.387798 
L 728.340006 402.387798 
L 729.006213 402.387798 
L 729.023562 323.573173 
L 729.996161 323.573173 
L 730.132799 323.573173 
L 730.153565 402.387798 
L 731.117063 402.387798 
L 731.939417 402.387798 
L 732.069428 323.573173 
L 732.93219 402.387798 
L 733.88943 402.387798 
L 734.06183 323.573173 
L 734.874877 402.387798 
L 736.852053 402.387798 
L 736.878663 323.573173 
L 737.848059 402.387798 
L 738.100632 402.387798 
L 738.100632 389.783448 
L 738.696092 402.387798 
L 740.363854 402.387798 
L 740.37995 323.573173 
L 741.353059 335.918893 
L 741.370355 335.918893 
L 741.404939 323.573173 
L 742.359152 323.573173 
L 742.758185 323.573173 
L 742.99918 402.387798 
L 743.751723 323.573173 
L 743.767311 323.573173 
L 743.797754 402.387798 
L 744.754578 376.919443 
L 744.771824 376.919443 
L 744.798611 390.893217 
L 745.086379 323.573173 
L 745.761531 323.573173 
L 746.073906 323.573173 
L 746.2821 402.387798 
L 747.065561 402.387798 
L 747.671189 402.387798 
L 747.671189 323.573173 
L 748.659962 323.573173 
L 748.902743 324.280534 
L 749.785865 402.387798 
L 749.284809 323.573173 
L 749.896376 402.387798 
L 750.569585 402.387798 
L 750.586951 323.573173 
L 751.555816 323.573173 
L 751.870093 323.573173 
L 752.163608 402.387798 
L 752.868603 402.387798 
L 753.709018 402.387798 
L 753.790635 323.573173 
L 754.699924 323.573173 
L 754.720877 323.573173 
L 754.73128 402.387798 
L 755.715912 402.387798 
L 755.733277 402.387798 
L 755.733277 323.573173 
L 756.729426 402.387798 
L 757.408869 402.387798 
L 757.459188 393.431856 
L 758.071185 402.387798 
L 761.411315 402.387798 
L 761.428653 323.573173 
L 762.406149 323.573173 
L 762.910775 323.573173 
L 762.931815 402.387798 
L 763.901961 323.573173 
L 765.389991 323.573173 
L 765.400413 402.387798 
L 766.389825 323.573173 
L 767.90071 323.573173 
L 767.921398 402.387798 
L 768.898957 323.573173 
L 770.460212 323.573173 
L 770.48708 402.387798 
L 771.448119 323.573173 
L 771.500162 323.573173 
L 771.511323 402.387798 
L 772.487009 323.573173 
L 773.114447 323.573173 
L 773.131487 402.387798 
L 774.112128 323.573173 
L 775.217752 323.573173 
L 775.217752 402.387798 
L 776.072635 402.387798 
L 776.649407 402.387798 
L 776.696351 323.573173 
L 777.645637 323.573173 
L 777.816714 323.573173 
L 777.837268 402.387798 
L 778.806764 323.573173 
L 779.745026 323.573173 
L 779.762269 402.387798 
L 780.733581 323.573173 
L 781.672878 323.573173 
L 781.693172 402.387798 
L 782.662675 323.573173 
L 783.607111 323.573173 
L 783.620979 402.387798 
L 784.604295 323.573173 
L 784.697026 323.573173 
L 785.493043 402.387798 
L 785.687339 402.387798 
L 786.36536 402.387798 
L 786.382714 323.573173 
L 787.360069 323.573173 
L 787.496965 323.573173 
L 787.507395 402.387798 
L 788.488672 402.387798 
L 789.31975 402.387798 
L 789.452331 323.573173 
L 790.309296 402.387798 
L 790.352681 402.387798 
L 790.956265 361.01012 
L 791.338045 361.01012 
L 791.424813 361.01012 
L 791.702472 402.387798 
L 792.329051 139.698652 
L 792.357976 139.698652 
L 792.477189 139.698652 
L 792.493739 402.387798 
L 792.84158 402.387798 
L 796.489757 402.387798 
L 796.541784 343.747155 
L 797.487258 402.387798 
L 797.813322 402.387798 
L 797.848023 360.388469 
L 798.727642 402.387798 
L 808.934647 402.387798 
L 809.633791 385.058531 
L 809.931011 400.29791 
L 810.052493 400.289043 
L 810.052493 402.387798 
L 810.682833 400.277221 
L 811.047279 402.387798 
L 811.57416 402.387798 
L 812.170377 384.004385 
L 812.565133 398.208022 
L 812.599835 398.208022 
L 812.651913 402.387798 
L 813.235116 398.172555 
L 813.588351 402.387798 
L 813.822965 402.387798 
L 814.368202 384.599041 
L 814.817953 400.306777 
L 814.904708 400.306777 
L 814.904708 402.387798 
L 815.494105 398.178466 
L 815.893252 402.387798 
L 816.421033 402.387798 
L 816.921268 383.33052 
L 817.410527 398.208022 
L 817.462604 398.208022 
L 817.479931 402.387798 
L 818.440707 402.387798 
L 822.492876 402.387798 
L 822.929593 375.958627 
L 823.491665 375.958627 
L 836.815145 375.958627 
L 836.815145 402.387798 
L 837.798912 375.958627 
L 844.629026 376.619356 
L 844.767855 402.387798 
L 845.156183 375.958627 
L 845.624042 375.958627 
L 848.008606 375.958627 
L 848.022441 402.387798 
L 849.001014 400.40561 
L 849.035721 400.40561 
L 849.035721 402.387798 
L 849.563459 314.299371 
L 849.79415 402.387798 
L 851.328482 402.387798 
L 851.345837 375.958627 
L 852.327116 375.958627 
L 853.888928 376.408385 
L 854.131396 402.387798 
L 854.479894 375.958627 
L 854.878202 375.958627 
L 859.997494 375.958627 
L 860.188083 402.387798 
L 860.995597 375.958627 
L 861.249878 375.958627 
L 861.267227 402.387798 
L 862.241963 385.72817 
L 862.259295 385.72817 
L 862.259295 375.958627 
L 862.904141 402.387798 
L 863.255903 375.958627 
L 866.776594 376.55249 
L 866.787005 402.387798 
L 867.114928 375.958627 
L 867.772295 375.958627 
L 868.065065 376.481528 
L 868.075465 402.387798 
L 868.474088 375.958627 
L 869.06453 376.295995 
L 871.537698 375.958627 
L 871.551559 402.387798 
L 872.080702 402.387798 
L 875.624118 402.387798 
L 875.641444 375.958627 
L 876.619149 402.387798 
L 877.388309 402.387798 
L 877.423036 375.958627 
L 878.386875 402.387798 
L 878.804133 402.387798 
L 878.821484 375.958627 
L 879.426353 402.387798 
L 880.5183 402.387798 
L 881.117242 375.958627 
L 881.515251 375.958627 
L 882.046938 375.958627 
L 882.053885 402.387798 
L 883.03546 375.958627 
L 883.478513 375.958627 
L 883.502795 402.387798 
L 883.898674 402.387798 
L 885.249786 402.387798 
L 885.267137 375.958627 
L 886.241601 402.387798 
L 887.001302 402.387798 
L 887.036004 375.958627 
L 887.994543 402.387798 
L 888.382809 402.387798 
L 888.400185 375.958627 
L 889.057 402.387798 
L 890.145404 402.387798 
L 890.226449 375.958627 
L 891.142655 402.387798 
L 891.874331 402.387798 
L 891.891685 375.958627 
L 892.867889 402.387798 
L 893.581079 402.387798 
L 893.598431 375.958627 
L 894.579963 402.387798 
L 894.988371 402.387798 
L 895.005724 375.958627 
L 895.982507 402.387798 
L 896.342375 402.387798 
L 896.359709 375.958627 
L 897.340081 402.387798 
L 897.707631 402.387798 
L 897.724985 375.958627 
L 898.700783 402.387798 
L 899.06964 402.387798 
L 899.086997 375.958627 
L 900.062084 402.387798 
L 900.545785 402.387798 
L 900.563139 375.958627 
L 901.539874 402.387798 
L 902.116875 402.387798 
L 902.134226 375.958627 
L 903.114297 402.387798 
L 903.870603 402.387798 
L 903.887957 375.958627 
L 904.859074 375.958627 
L 904.935802 375.958627 
L 904.946235 402.387798 
L 905.924098 375.958627 
L 906.917578 375.958627 
L 906.92454 402.387798 
L 907.915338 375.958627 
L 908.328097 375.958627 
L 908.349741 402.387798 
L 909.322076 402.387798 
L 909.977449 402.387798 
L 909.99482 375.958627 
L 910.977073 402.387798 
L 911.330991 402.387798 
L 911.348345 375.958627 
L 912.329885 402.387798 
L 912.628318 402.387798 
L 912.645669 375.958627 
L 913.622844 402.387798 
L 913.944802 402.387798 
L 913.962155 375.958627 
L 914.944628 402.387798 
L 915.291272 402.387798 
L 915.298991 375.958627 
L 916.291223 402.387798 
L 916.767121 402.387798 
L 916.784475 375.958627 
L 917.763327 402.387798 
L 918.34734 402.387798 
L 918.364715 375.958627 
L 919.345824 402.387798 
L 920.073343 402.387798 
L 920.090696 375.958627 
L 921.060992 375.958627 
L 921.186664 375.958627 
L 921.203988 402.387798 
L 922.185029 375.958627 
L 923.232244 375.958627 
L 923.232244 402.387798 
L 924.227097 375.958627 
L 925.620997 375.958627 
L 925.648749 402.387798 
L 926.607769 375.958627 
L 928.094478 375.958627 
L 928.113654 402.387798 
L 929.091004 375.958627 
L 931.142668 375.958627 
L 931.17041 402.387798 
L 932.14139 375.958627 
L 932.990763 376.160744 
L 932.990763 383.12754 
L 933.008091 375.958627 
L 933.983452 375.958627 
L 934.381615 375.958627 
L 934.400187 402.387798 
L 935.378362 375.958627 
L 936.655982 375.958627 
L 936.666395 402.387798 
L 937.6527 375.958627 
L 938.232571 375.958627 
L 938.246432 402.387798 
L 939.219027 375.958627 
L 940.301929 375.958627 
L 940.301929 402.387798 
L 941.295762 375.958627 
L 942.661534 375.958627 
L 942.675401 402.387798 
L 943.657864 382.349861 
L 943.661849 382.349861 
L 943.661849 402.387798 
L 943.943853 375.958627 
L 944.649409 375.958627 
L 945.067891 375.958627 
L 945.07481 402.387798 
L 945.466553 402.387798 
L 946.649363 402.387798 
L 947.493392 375.958627 
L 947.638822 400.101609 
L 947.654197 400.101609 
L 948.606192 402.387798 
L 948.154151 375.958627 
L 948.651799 402.387798 
L 948.930729 402.387798 
L 948.948095 375.958627 
L 949.917267 402.387798 
L 949.984624 402.387798 
L 950.142127 375.958627 
L 950.969143 402.387798 
L 950.986475 402.387798 
L 951.003853 388.086181 
L 951.976473 390.581557 
L 951.99331 390.581557 
L 952.077028 375.958627 
L 952.466066 402.387798 
L 952.990516 402.387798 
L 954.853534 402.387798 
L 954.888211 375.958627 
L 955.849499 402.387798 
L 956.065329 402.387798 
L 956.09079 393.978102 
L 956.738995 402.387798 
L 958.385044 402.387798 
L 958.402398 375.958627 
L 959.371898 402.387798 
L 962.779485 402.387798 
L 962.796835 375.958627 
L 963.766283 375.958627 
L 964.945291 376.619356 
L 965.08412 402.387798 
L 965.755335 375.958627 
L 965.942128 375.958627 
L 965.982536 375.958627 
L 966.006822 402.387798 
L 966.975399 402.387798 
L 967.072599 402.387798 
L 967.28483 375.958627 
L 968.064616 375.958627 
L 968.307412 376.34152 
L 969.244402 402.387798 
L 968.711618 375.958627 
L 969.291838 402.387798 
L 970.01406 402.387798 
L 970.031413 375.958627 
L 971.002436 375.958627 
L 971.53996 375.958627 
L 971.92151 402.387798 
L 972.536307 402.387798 
L 972.896881 402.387798 
L 973.100183 375.958627 
L 973.892575 388.111354 
L 973.908465 388.111354 
L 974.034846 375.958627 
L 974.498848 402.387798 
L 974.90291 402.387798 
L 975.332397 402.387798 
L 975.349735 375.958627 
L 976.330689 401.539461 
L 976.348042 401.539461 
L 976.348042 400.028922 
L 976.365409 402.387798 
L 977.328373 402.387798 
L 977.481148 402.387798 
L 977.533195 375.958627 
L 978.47597 402.387798 
L 979.14388 402.387798 
L 979.14388 400.842061 
L 979.719186 402.387798 
L 981.672885 402.387798 
L 981.707583 375.958627 
L 982.661949 375.958627 
L 983.025201 375.958627 
L 983.039053 402.387798 
L 984.011796 398.423422 
L 984.046504 398.423422 
L 984.063857 402.387798 
L 984.690436 314.299371 
L 985.039935 402.387798 
L 986.522908 402.387798 
L 986.522908 375.958627 
L 987.508985 375.958627 
L 987.689173 375.958627 
L 987.692654 402.387798 
L 988.671872 375.958627 
L 989.80306 375.958627 
L 989.80306 402.387798 
L 990.800692 375.958627 
L 991.663122 375.958627 
L 991.677008 402.387798 
L 992.657463 375.958627 
L 993.656745 376.529233 
L 993.660222 402.387798 
L 994.530644 375.958627 
L 994.654231 375.958627 
L 995.525866 375.958627 
L 995.546687 402.387798 
L 996.521299 375.958627 
L 997.425072 376.619356 
L 997.435359 402.387798 
L 998.328431 375.958627 
L 998.415027 375.958627 
L 999.365623 375.958627 
L 999.365623 402.387798 
L 1000.357531 375.958627 
L 1001.252947 375.958627 
L 1001.273647 402.387798 
L 1002.251194 375.958627 
L 1003.342669 375.958627 
L 1003.342669 402.387798 
L 1004.330255 375.958627 
L 1004.670887 375.958627 
L 1005.417384 402.387798 
L 1005.663776 402.387798 
L 1006.289696 402.387798 
L 1006.30705 375.958627 
L 1007.285078 375.958627 
L 1007.664305 375.958627 
L 1007.68855 402.387798 
L 1008.660027 375.958627 
L 1008.813911 375.958627 
L 1008.928984 402.387798 
L 1009.811647 375.958627 
L 1009.988174 375.958627 
L 1010.008729 402.387798 
L 1010.986664 396.579426 
L 1011.000071 396.579426 
L 1011.013897 402.387798 
L 1011.385563 375.958627 
L 1011.996744 402.387798 
L 1012.29331 402.387798 
L 1012.29331 392.476859 
L 1013.088598 402.387798 
L 1014.573879 402.387798 
L 1014.591232 375.958627 
L 1015.458374 402.387798 
L 1016.396916 402.387798 
L 1016.431624 375.958627 
L 1017.394601 395.106826 
L 1017.401513 394.99166 
L 1017.401513 402.387798 
L 1018.241432 375.958627 
L 1018.390024 389.661227 
L 1018.405052 389.661227 
L 1018.776721 402.387798 
L 1018.570028 375.958627 
L 1019.401358 402.387798 
L 1019.749332 402.387798 
L 1019.801382 376.963332 
L 1020.600101 402.387798 
L 1028.201717 402.387798 
L 1028.201717 386.624873 
L 1029.557036 386.624873 
L 1029.731254 384.829651 
L 1030.631626 384.829651 
L 1030.631626 323.573173 
L 1032.507266 323.833786 
L 1032.507266 402.387798 
L 1033.47801 374.154648 
L 1033.566328 374.154648 
L 1034.274149 324.991836 
L 1034.451853 388.90174 
L 1034.798926 388.90174 
L 1034.798926 402.387798 
L 1044.048153 402.387798 
L 1044.048153 387.93845 
L 1045.403472 387.93845 
L 1045.577691 384.829651 
L 1046.478062 384.829651 
L 1046.478062 323.573173 
L 1048.353703 323.599094 
L 1048.353703 402.387798 
L 1049.325073 374.137133 
L 1049.413369 374.137133 
L 1050.120796 324.974322 
L 1050.298281 388.919254 
L 1050.645354 388.919254 
L 1050.645354 402.387798 
L 1059.894581 402.387798 
L 1059.894581 387.93845 
L 1061.2499 387.93845 
L 1061.424118 384.829651 
L 1062.32449 384.829651 
L 1062.32449 323.573173 
L 1064.20013 323.679485 
L 1064.551756 385.582768 
L 1065.171505 374.128376 
L 1065.259863 374.128376 
L 1065.967155 324.974322 
L 1066.144706 388.919254 
L 1066.491779 388.919254 
L 1066.491779 402.387798 
L 1075.741006 402.387798 
L 1075.741006 387.93845 
L 1077.096325 387.93845 
L 1077.096325 384.873437 
L 1077.270543 402.343969 
L 1078.170915 402.343969 
L 1078.170915 323.573173 
L 1080.046555 323.833786 
L 1080.046555 402.387798 
L 1081.017925 374.137133 
L 1081.106221 374.137133 
L 1081.813649 324.974322 
L 1081.991133 388.919254 
L 1082.338206 388.919254 
L 1082.338206 402.387798 
L 1091.587433 402.387798 
L 1091.587433 394.506335 
L 1093.116971 394.506335 
L 1094.017342 323.573173 
L 1095.892983 323.599094 
L 1095.892983 402.387798 
L 1096.864353 374.137133 
L 1096.952649 374.137133 
L 1097.482697 338.013764 
L 1097.660076 389.348356 
L 1097.837561 388.919254 
L 1098.184634 388.919254 
L 1098.184634 402.387798 
L 1109.86377 402.345098 
L 1109.86377 342.662732 
L 1111.458847 342.662732 
L 1111.73941 402.387798 
L 1111.738148 342.389337 
L 1112.445628 400.714309 
L 1112.622399 400.227637 
L 1113.506435 389.674342 
L 1114.031059 389.255968 
L 1114.031059 402.387798 
L 1133.048133 402.387798 
L 1133.048133 402.387798 
" clip-path="url(#pa3ef1c00d3)" style="fill: none; stroke: #000000; stroke-width: 0.8; stroke-linecap: square"/>
   </g>
  </g>
  <g id="axes_2">
   <g id="matplotlib.axis_3">
    <g id="xtick_8">
     <g id="line2d_26">
      <defs>
       <path id="m2a91d09584" d="M 0 0 
L 0 -3.5 
" style="stroke: #000000; stroke-width: 0.8"/>
      </defs>
      <g>
       <use xlink:href="#m2a91d09584" x="160.588284" y="83.220486" style="stroke: #000000; stroke-width: 0.8"/>
      </g>
     </g>
     <g id="text_16">
      <!-- N140 -->
      <g transform="translate(164.477371 75.513379) rotate(-45) scale(0.08 -0.08)">
       <defs>
        <path id="SimHei-4e" d="M 2850 125 
L 2225 125 
L 850 3225 
L 825 3225 
L 825 125 
L 250 125 
L 250 4400 
L 875 4400 
L 2250 1300 
L 2275 1300 
L 2275 4400 
L 2850 4400 
L 2850 125 
z
" transform="scale(0.015625)"/>
       </defs>
       <use xlink:href="#SimHei-4e"/>
       <use xlink:href="#SimHei-31" transform="translate(50 0)"/>
       <use xlink:href="#SimHei-34" transform="translate(100 0)"/>
       <use xlink:href="#SimHei-30" transform="translate(150 0)"/>
      </g>
     </g>
    </g>
    <g id="xtick_9">
     <g id="line2d_27">
      <g>
       <use xlink:href="#m2a91d09584" x="257.360084" y="83.220486" style="stroke: #000000; stroke-width: 0.8"/>
      </g>
     </g>
     <g id="text_17">
      <!-- N1050 -->
      <g transform="translate(261.249171 75.513379) rotate(-45) scale(0.08 -0.08)">
       <use xlink:href="#SimHei-4e"/>
       <use xlink:href="#SimHei-31" transform="translate(50 0)"/>
       <use xlink:href="#SimHei-30" transform="translate(100 0)"/>
       <use xlink:href="#SimHei-35" transform="translate(150 0)"/>
       <use xlink:href="#SimHei-30" transform="translate(200 0)"/>
      </g>
     </g>
    </g>
    <g id="xtick_10">
     <g id="line2d_28">
      <g>
       <use xlink:href="#m2a91d09584" x="320.641397" y="83.220486" style="stroke: #000000; stroke-width: 0.8"/>
      </g>
     </g>
     <g id="text_18">
      <!-- N7090.17 -->
      <g transform="translate(324.530485 75.513379) rotate(-45) scale(0.08 -0.08)">
       <defs>
        <path id="SimHei-37" d="M 850 150 
Q 1300 2050 2425 3925 
L 275 3925 
L 275 4375 
L 2950 4375 
L 2950 3950 
Q 1775 2050 1400 150 
L 850 150 
z
" transform="scale(0.015625)"/>
        <path id="SimHei-39" d="M 800 75 
Q 1350 1000 1700 1750 
Q 1075 1650 662 1912 
Q 250 2175 162 2625 
Q 75 3075 175 3437 
Q 275 3800 487 4037 
Q 700 4275 1000 4375 
Q 1300 4475 1537 4475 
Q 1775 4475 2025 4375 
Q 2275 4275 2475 4075 
Q 2675 3875 2750 3662 
Q 2825 3450 2825 3112 
Q 2825 2775 2575 2250 
Q 2325 1725 1350 75 
L 800 75 
z
M 662 2875 
Q 700 2550 937 2337 
Q 1175 2125 1450 2150 
Q 1725 2175 1887 2300 
Q 2050 2425 2200 2725 
Q 2300 3100 2250 3362 
Q 2200 3625 1987 3800 
Q 1775 3975 1525 3975 
Q 1375 4000 1137 3900 
Q 900 3800 762 3500 
Q 625 3200 662 2875 
z
" transform="scale(0.015625)"/>
        <path id="SimHei-2e" d="M 1075 125 
L 500 125 
L 500 675 
L 1075 675 
L 1075 125 
z
" transform="scale(0.015625)"/>
       </defs>
       <use xlink:href="#SimHei-4e"/>
       <use xlink:href="#SimHei-37" transform="translate(50 0)"/>
       <use xlink:href="#SimHei-30" transform="translate(100 0)"/>
       <use xlink:href="#SimHei-39" transform="translate(150 0)"/>
       <use xlink:href="#SimHei-30" transform="translate(200 0)"/>
       <use xlink:href="#SimHei-2e" transform="translate(250 0)"/>
       <use xlink:href="#SimHei-31" transform="translate(300 0)"/>
       <use xlink:href="#SimHei-37" transform="translate(350 0)"/>
      </g>
     </g>
    </g>
    <g id="xtick_11">
     <g id="line2d_29">
      <g>
       <use xlink:href="#m2a91d09584" x="394.646327" y="83.220486" style="stroke: #000000; stroke-width: 0.8"/>
      </g>
     </g>
     <g id="text_19">
      <!-- N2250 -->
      <g transform="translate(398.535415 75.513379) rotate(-45) scale(0.08 -0.08)">
       <use xlink:href="#SimHei-4e"/>
       <use xlink:href="#SimHei-32" transform="translate(50 0)"/>
       <use xlink:href="#SimHei-32" transform="translate(100 0)"/>
       <use xlink:href="#SimHei-35" transform="translate(150 0)"/>
       <use xlink:href="#SimHei-30" transform="translate(200 0)"/>
      </g>
     </g>
    </g>
    <g id="xtick_12">
     <g id="line2d_30">
      <g>
       <use xlink:href="#m2a91d09584" x="470.695089" y="83.220486" style="stroke: #000000; stroke-width: 0.8"/>
      </g>
     </g>
     <g id="text_20">
      <!-- N2940 -->
      <g transform="translate(474.584176 75.513379) rotate(-45) scale(0.08 -0.08)">
       <use xlink:href="#SimHei-4e"/>
       <use xlink:href="#SimHei-32" transform="translate(50 0)"/>
       <use xlink:href="#SimHei-39" transform="translate(100 0)"/>
       <use xlink:href="#SimHei-34" transform="translate(150 0)"/>
       <use xlink:href="#SimHei-30" transform="translate(200 0)"/>
      </g>
     </g>
    </g>
    <g id="xtick_13">
     <g id="line2d_31">
      <g>
       <use xlink:href="#m2a91d09584" x="532.96109" y="83.220486" style="stroke: #000000; stroke-width: 0.8"/>
      </g>
     </g>
     <g id="text_21">
      <!-- N8760.10 -->
      <g transform="translate(536.850177 75.513379) rotate(-45) scale(0.08 -0.08)">
       <defs>
        <path id="SimHei-38" d="M 175 1375 
Q 175 1675 325 1962 
Q 475 2250 825 2425 
Q 525 2600 425 2812 
Q 325 3025 312 3300 
Q 300 3575 387 3775 
Q 475 3975 650 4150 
Q 825 4325 1037 4387 
Q 1250 4450 1500 4450 
Q 1750 4450 1950 4400 
Q 2150 4350 2375 4187 
Q 2600 4025 2700 3725 
Q 2800 3425 2687 3025 
Q 2575 2625 2100 2400 
Q 2525 2275 2700 2012 
Q 2875 1750 2875 1375 
Q 2875 1000 2762 775 
Q 2650 550 2512 400 
Q 2375 250 2137 162 
Q 1900 75 1537 75 
Q 1175 75 912 162 
Q 650 250 475 425 
Q 300 600 237 837 
Q 175 1075 175 1375 
z
M 687 1400 
Q 675 1100 787 875 
Q 900 650 1200 587 
Q 1500 525 1825 600 
Q 2150 675 2275 950 
Q 2400 1225 2362 1500 
Q 2325 1775 2050 1962 
Q 1775 2150 1450 2125 
Q 1125 2100 912 1900 
Q 700 1700 687 1400 
z
M 775 3350 
Q 775 3100 950 2875 
Q 1125 2650 1500 2650 
Q 1875 2650 2062 2875 
Q 2250 3100 2237 3412 
Q 2225 3725 2012 3875 
Q 1800 4025 1437 4000 
Q 1075 3975 925 3787 
Q 775 3600 775 3350 
z
" transform="scale(0.015625)"/>
        <path id="SimHei-36" d="M 250 1612 
Q 275 1975 387 2225 
Q 500 2475 725 2850 
L 1750 4450 
L 2325 4450 
L 1275 2800 
Q 1950 2975 2350 2750 
Q 2750 2525 2887 2237 
Q 3025 1950 3037 1612 
Q 3050 1275 2937 950 
Q 2825 625 2537 362 
Q 2250 100 1737 75 
Q 1225 50 862 262 
Q 500 475 362 862 
Q 225 1250 250 1612 
z
M 1025 787 
Q 1250 550 1625 525 
Q 2000 500 2250 775 
Q 2500 1050 2500 1575 
Q 2500 2100 2187 2300 
Q 1875 2500 1487 2450 
Q 1100 2400 925 2075 
Q 750 1750 775 1387 
Q 800 1025 1025 787 
z
" transform="scale(0.015625)"/>
       </defs>
       <use xlink:href="#SimHei-4e"/>
       <use xlink:href="#SimHei-38" transform="translate(50 0)"/>
       <use xlink:href="#SimHei-37" transform="translate(100 0)"/>
       <use xlink:href="#SimHei-36" transform="translate(150 0)"/>
       <use xlink:href="#SimHei-30" transform="translate(200 0)"/>
       <use xlink:href="#SimHei-2e" transform="translate(250 0)"/>
       <use xlink:href="#SimHei-31" transform="translate(300 0)"/>
       <use xlink:href="#SimHei-30" transform="translate(350 0)"/>
      </g>
     </g>
    </g>
    <g id="xtick_14">
     <g id="line2d_32">
      <g>
       <use xlink:href="#m2a91d09584" x="608.25069" y="83.220486" style="stroke: #000000; stroke-width: 0.8"/>
      </g>
     </g>
     <g id="text_22">
      <!-- N3940.2 -->
      <g transform="translate(612.139777 75.513379) rotate(-45) scale(0.08 -0.08)">
       <use xlink:href="#SimHei-4e"/>
       <use xlink:href="#SimHei-33" transform="translate(50 0)"/>
       <use xlink:href="#SimHei-39" transform="translate(100 0)"/>
       <use xlink:href="#SimHei-34" transform="translate(150 0)"/>
       <use xlink:href="#SimHei-30" transform="translate(200 0)"/>
       <use xlink:href="#SimHei-2e" transform="translate(250 0)"/>
       <use xlink:href="#SimHei-32" transform="translate(300 0)"/>
      </g>
     </g>
    </g>
    <g id="xtick_15">
     <g id="line2d_33">
      <g>
       <use xlink:href="#m2a91d09584" x="680.967612" y="83.220486" style="stroke: #000000; stroke-width: 0.8"/>
      </g>
     </g>
     <g id="text_23">
      <!-- N2400.17 -->
      <g transform="translate(684.856699 75.513379) rotate(-45) scale(0.08 -0.08)">
       <use xlink:href="#SimHei-4e"/>
       <use xlink:href="#SimHei-32" transform="translate(50 0)"/>
       <use xlink:href="#SimHei-34" transform="translate(100 0)"/>
       <use xlink:href="#SimHei-30" transform="translate(150 0)"/>
       <use xlink:href="#SimHei-30" transform="translate(200 0)"/>
       <use xlink:href="#SimHei-2e" transform="translate(250 0)"/>
       <use xlink:href="#SimHei-31" transform="translate(300 0)"/>
       <use xlink:href="#SimHei-37" transform="translate(350 0)"/>
      </g>
     </g>
    </g>
    <g id="xtick_16">
     <g id="line2d_34">
      <g>
       <use xlink:href="#m2a91d09584" x="741.855893" y="83.220486" style="stroke: #000000; stroke-width: 0.8"/>
      </g>
     </g>
     <g id="text_24">
      <!-- N6770 -->
      <g transform="translate(745.74498 75.513379) rotate(-45) scale(0.08 -0.08)">
       <use xlink:href="#SimHei-4e"/>
       <use xlink:href="#SimHei-36" transform="translate(50 0)"/>
       <use xlink:href="#SimHei-37" transform="translate(100 0)"/>
       <use xlink:href="#SimHei-37" transform="translate(150 0)"/>
       <use xlink:href="#SimHei-30" transform="translate(200 0)"/>
      </g>
     </g>
    </g>
    <g id="xtick_17">
     <g id="line2d_35">
      <g>
       <use xlink:href="#m2a91d09584" x="818.586913" y="83.220486" style="stroke: #000000; stroke-width: 0.8"/>
      </g>
     </g>
     <g id="text_25">
      <!-- N3310 -->
      <g transform="translate(822.476 75.513379) rotate(-45) scale(0.08 -0.08)">
       <use xlink:href="#SimHei-4e"/>
       <use xlink:href="#SimHei-33" transform="translate(50 0)"/>
       <use xlink:href="#SimHei-33" transform="translate(100 0)"/>
       <use xlink:href="#SimHei-31" transform="translate(150 0)"/>
       <use xlink:href="#SimHei-30" transform="translate(200 0)"/>
      </g>
     </g>
    </g>
    <g id="xtick_18">
     <g id="line2d_36">
      <g>
       <use xlink:href="#m2a91d09584" x="896.673279" y="83.220486" style="stroke: #000000; stroke-width: 0.8"/>
      </g>
     </g>
     <g id="text_26">
      <!-- N2720 -->
      <g transform="translate(900.562367 75.513379) rotate(-45) scale(0.08 -0.08)">
       <use xlink:href="#SimHei-4e"/>
       <use xlink:href="#SimHei-32" transform="translate(50 0)"/>
       <use xlink:href="#SimHei-37" transform="translate(100 0)"/>
       <use xlink:href="#SimHei-32" transform="translate(150 0)"/>
       <use xlink:href="#SimHei-30" transform="translate(200 0)"/>
      </g>
     </g>
    </g>
    <g id="xtick_19">
     <g id="line2d_37">
      <g>
       <use xlink:href="#m2a91d09584" x="954.795904" y="83.220486" style="stroke: #000000; stroke-width: 0.8"/>
      </g>
     </g>
     <g id="text_27">
      <!-- N6820 -->
      <g transform="translate(958.684992 75.513379) rotate(-45) scale(0.08 -0.08)">
       <use xlink:href="#SimHei-4e"/>
       <use xlink:href="#SimHei-36" transform="translate(50 0)"/>
       <use xlink:href="#SimHei-38" transform="translate(100 0)"/>
       <use xlink:href="#SimHei-32" transform="translate(150 0)"/>
       <use xlink:href="#SimHei-30" transform="translate(200 0)"/>
      </g>
     </g>
    </g>
    <g id="xtick_20">
     <g id="line2d_38">
      <g>
       <use xlink:href="#m2a91d09584" x="1128.822043" y="83.220486" style="stroke: #000000; stroke-width: 0.8"/>
      </g>
     </g>
     <g id="text_28">
      <!-- N0 -->
      <g transform="translate(1132.71113 75.513379) rotate(-45) scale(0.08 -0.08)">
       <use xlink:href="#SimHei-4e"/>
       <use xlink:href="#SimHei-30" transform="translate(50 0)"/>
      </g>
     </g>
    </g>
    <g id="text_29">
     <!-- 指令行号 N -->
     <g transform="translate(675.3035 44.996875) scale(0.1 -0.1)">
      <defs>
       <path id="SimHei-6307" d="M 5625 2225 
Q 5600 1925 5600 1350 
L 5600 300 
Q 5600 -225 5625 -525 
L 5125 -525 
L 5125 -125 
L 3300 -125 
L 3300 -625 
L 2800 -625 
Q 2825 -300 2825 300 
L 2825 1350 
Q 2825 1925 2800 2225 
L 5625 2225 
z
M 500 25 
Q 1075 -25 1175 37 
Q 1275 100 1275 275 
L 1275 1675 
Q 1050 1600 925 1537 
Q 800 1475 475 1275 
Q 400 1525 225 1800 
Q 625 1900 825 1975 
Q 1025 2050 1275 2125 
L 1275 3300 
L 1100 3300 
Q 775 3300 450 3275 
L 450 3725 
Q 750 3700 1100 3700 
L 1275 3700 
L 1275 4450 
Q 1275 4800 1250 5125 
L 1775 5125 
Q 1750 4850 1750 4450 
L 1750 3700 
Q 2075 3700 2425 3725 
L 2425 3275 
Q 2050 3300 1750 3300 
L 1750 2325 
Q 1850 2350 2025 2425 
L 2375 2575 
Q 2350 2300 2375 2100 
Q 2225 2050 2062 1987 
Q 1900 1925 1750 1850 
L 1750 100 
Q 1725 -200 1575 -337 
Q 1425 -475 675 -525 
Q 625 -250 500 25 
z
M 3325 5025 
Q 3300 4675 3300 4125 
Q 4125 4275 4512 4412 
Q 4900 4550 5225 4725 
Q 5325 4475 5575 4250 
Q 5450 4225 5237 4175 
Q 5025 4125 4725 4050 
Q 4425 3975 4037 3887 
Q 3650 3800 3300 3725 
L 3300 3175 
Q 3275 2925 3700 2925 
L 4925 2925 
Q 5300 2925 5387 3087 
Q 5475 3250 5550 3600 
Q 5750 3400 6050 3300 
Q 5825 2725 5700 2637 
Q 5575 2550 5275 2525 
L 3350 2525 
Q 3050 2525 2937 2687 
Q 2825 2850 2825 2975 
L 2825 4125 
Q 2825 4775 2800 5025 
L 3325 5025 
z
M 5125 275 
L 5125 875 
L 3300 875 
L 3300 275 
L 5125 275 
z
M 5125 1250 
L 5125 1825 
L 3300 1825 
L 3300 1250 
L 5125 1250 
z
" transform="scale(0.015625)"/>
       <path id="SimHei-4ee4" d="M 5375 2075 
L 5375 1550 
Q 4925 1325 4450 937 
Q 3975 550 3575 125 
L 4250 -325 
Q 4050 -550 3875 -775 
Q 3100 -125 1850 425 
L 2150 875 
Q 2400 775 3125 350 
Q 3800 1025 4450 1625 
L 2025 1625 
Q 1500 1625 975 1600 
L 975 2100 
Q 1525 2075 2025 2075 
L 5375 2075 
z
M 3375 4850 
Q 4450 3550 6200 2900 
Q 5950 2625 5800 2350 
Q 4150 3150 3100 4475 
Q 2075 3125 625 2225 
Q 400 2525 200 2700 
Q 875 2975 1675 3675 
Q 2475 4375 2950 5300 
Q 3275 5175 3550 5050 
Q 3475 5000 3375 4850 
z
M 2925 3600 
Q 3175 3350 3750 2725 
L 3300 2325 
Q 3050 2700 2550 3225 
Q 2750 3375 2925 3600 
z
" transform="scale(0.015625)"/>
       <path id="SimHei-53f7" d="M 5025 4925 
Q 5000 4550 5000 4075 
Q 5000 3600 5025 3175 
L 1400 3175 
Q 1425 3525 1425 4000 
Q 1425 4500 1400 4925 
L 5025 4925 
z
M 5175 2625 
Q 5650 2625 6025 2650 
L 6025 2200 
Q 5650 2225 5175 2225 
L 2450 2225 
Q 2350 1875 2225 1450 
L 5175 1450 
Q 5100 1050 5062 775 
Q 5025 500 4950 112 
Q 4875 -275 4650 -412 
Q 4425 -550 3225 -625 
Q 3125 -350 2975 -50 
Q 3875 -75 4112 -50 
Q 4350 -25 4425 212 
Q 4500 450 4575 1025 
L 1600 1025 
Q 1825 1625 1950 2225 
L 1350 2225 
Q 825 2225 375 2200 
L 375 2650 
Q 825 2625 1350 2625 
L 5175 2625 
z
M 4525 3575 
L 4525 4525 
L 1900 4525 
L 1900 3575 
L 4525 3575 
z
" transform="scale(0.015625)"/>
      </defs>
      <use xlink:href="#SimHei-6307"/>
      <use xlink:href="#SimHei-4ee4" transform="translate(100 0)"/>
      <use xlink:href="#SimHei-884c" transform="translate(200 0)"/>
      <use xlink:href="#SimHei-53f7" transform="translate(300 0)"/>
      <use xlink:href="#SimHei-20" transform="translate(400 0)"/>
      <use xlink:href="#SimHei-4e" transform="translate(450 0)"/>
     </g>
    </g>
   </g>
   <g id="patch_7">
    <path d="M 58.48 429.970158 
L 58.48 83.220486 
" style="fill: none; stroke: #000000; stroke-width: 0.8; stroke-linejoin: miter; stroke-linecap: square"/>
   </g>
   <g id="patch_8">
    <path d="M 1342.127 429.970158 
L 1342.127 83.220486 
" style="fill: none; stroke: #000000; stroke-width: 0.8; stroke-linejoin: miter; stroke-linecap: square"/>
   </g>
   <g id="patch_9">
    <path d="M 58.48 429.970158 
L 1342.127 429.970158 
" style="fill: none; stroke: #000000; stroke-width: 0.8; stroke-linejoin: miter; stroke-linecap: square"/>
   </g>
   <g id="patch_10">
    <path d="M 58.48 83.220486 
L 1342.127 83.220486 
" style="fill: none; stroke: #000000; stroke-width: 0.8; stroke-linejoin: miter; stroke-linecap: square"/>
   </g>
  </g>
 </g>
 <defs>
  <clipPath id="pa3ef1c00d3">
   <rect x="58.48" y="83.220486" width="1283.647" height="346.749672"/>
  </clipPath>
 </defs>
</svg>
