<?xml version="1.0" encoding="utf-8" standalone="no"?>
<!DOCTYPE svg PUBLIC "-//W3C//DTD SVG 1.1//EN"
  "http://www.w3.org/Graphics/SVG/1.1/DTD/svg11.dtd">
<svg xmlns:xlink="http://www.w3.org/1999/xlink" width="1395.407pt" height="606.442971pt" viewBox="0 0 1395.407 606.442971" xmlns="http://www.w3.org/2000/svg" version="1.1">
 <metadata>
  <rdf:RDF xmlns:dc="http://purl.org/dc/elements/1.1/" xmlns:cc="http://creativecommons.org/ns#" xmlns:rdf="http://www.w3.org/1999/02/22-rdf-syntax-ns#">
   <cc:Work>
    <dc:type rdf:resource="http://purl.org/dc/dcmitype/StillImage"/>
    <dc:date>2025-12-24T14:43:16.996407</dc:date>
    <dc:format>image/svg+xml</dc:format>
    <dc:creator>
     <cc:Agent>
      <dc:title>Matplotlib v3.10.7, https://matplotlib.org/</dc:title>
     </cc:Agent>
    </dc:creator>
   </cc:Work>
  </rdf:RDF>
 </metadata>
 <defs>
  <style type="text/css">*{stroke-linejoin: round; stroke-linecap: butt}</style>
 </defs>
 <g id="figure_1">
  <g id="patch_1">
   <path d="M 0 606.442971 
L 1395.407 606.442971 
L 1395.407 0 
L 0 0 
z
" style="fill: #ffffff"/>
  </g>
  <g id="axes_1">
   <g id="patch_2">
    <path d="M 58.48 564.610158 
L 1388.207 564.610158 
L 1388.207 83.220486 
L 58.48 83.220486 
z
" style="fill: #ffffff"/>
   </g>
   <g id="matplotlib.axis_1">
    <g id="xtick_1">
     <g id="line2d_1">
      <path d="M 148.211959 564.610158 
L 148.211959 83.220486 
" clip-path="url(#p16420685cc)" style="fill: none; stroke-dasharray: 1.85,0.8; stroke-dashoffset: 0; stroke: #b0b0b0; stroke-opacity: 0.3; stroke-width: 0.5"/>
     </g>
     <g id="line2d_2">
      <defs>
       <path id="m052759dd74" d="M 0 0 
L 0 3.5 
" style="stroke: #333333; stroke-width: 0.8"/>
      </defs>
      <g>
       <use xlink:href="#m052759dd74" x="148.211959" y="564.610158" style="fill: #333333; stroke: #333333; stroke-width: 0.8"/>
      </g>
     </g>
     <g id="text_1">
      <!-- 0 -->
      <g style="fill: #333333" transform="translate(144.961959 580.547658) scale(0.13 -0.13)">
       <defs>
        <path id="SimHei-30" d="M 225 2537 
Q 250 3200 412 3587 
Q 575 3975 875 4225 
Q 1175 4475 1612 4475 
Q 2050 4475 2375 4112 
Q 2700 3750 2800 3200 
Q 2900 2650 2862 1937 
Q 2825 1225 2612 775 
Q 2400 325 1975 150 
Q 1550 -25 1125 187 
Q 700 400 525 750 
Q 350 1100 275 1487 
Q 200 1875 225 2537 
z
M 750 2687 
Q 675 2000 800 1462 
Q 925 925 1212 700 
Q 1500 475 1800 612 
Q 2100 750 2237 1162 
Q 2375 1575 2375 2062 
Q 2375 2550 2337 2950 
Q 2300 3350 2112 3675 
Q 1925 4000 1612 4012 
Q 1300 4025 1062 3700 
Q 825 3375 750 2687 
z
" transform="scale(0.015625)"/>
       </defs>
       <use xlink:href="#SimHei-30"/>
      </g>
     </g>
    </g>
    <g id="xtick_2">
     <g id="line2d_3">
      <path d="M 327.977927 564.610158 
L 327.977927 83.220486 
" clip-path="url(#p16420685cc)" style="fill: none; stroke-dasharray: 1.85,0.8; stroke-dashoffset: 0; stroke: #b0b0b0; stroke-opacity: 0.3; stroke-width: 0.5"/>
     </g>
     <g id="line2d_4">
      <g>
       <use xlink:href="#m052759dd74" x="327.977927" y="564.610158" style="fill: #333333; stroke: #333333; stroke-width: 0.8"/>
      </g>
     </g>
     <g id="text_2">
      <!-- 5000 -->
      <g style="fill: #333333" transform="translate(314.977927 580.547658) scale(0.13 -0.13)">
       <defs>
        <path id="SimHei-35" d="M 550 1325 
Q 725 650 1150 575 
Q 1575 500 1837 662 
Q 2100 825 2212 1087 
Q 2325 1350 2312 1675 
Q 2300 2000 2137 2225 
Q 1975 2450 1725 2525 
Q 1475 2600 1162 2525 
Q 850 2450 650 2175 
L 225 2225 
Q 275 2375 700 4375 
L 2675 4375 
L 2675 3925 
L 1075 3925 
Q 950 3250 825 2850 
Q 1200 3025 1525 3012 
Q 1850 3000 2150 2862 
Q 2450 2725 2587 2487 
Q 2725 2250 2787 2012 
Q 2850 1775 2837 1500 
Q 2825 1225 2725 937 
Q 2625 650 2425 462 
Q 2225 275 1937 162 
Q 1650 50 1275 75 
Q 900 100 562 350 
Q 225 600 100 1200 
L 550 1325 
z
" transform="scale(0.015625)"/>
       </defs>
       <use xlink:href="#SimHei-35"/>
       <use xlink:href="#SimHei-30" transform="translate(50 0)"/>
       <use xlink:href="#SimHei-30" transform="translate(100 0)"/>
       <use xlink:href="#SimHei-30" transform="translate(150 0)"/>
      </g>
     </g>
    </g>
    <g id="xtick_3">
     <g id="line2d_5">
      <path d="M 507.743896 564.610158 
L 507.743896 83.220486 
" clip-path="url(#p16420685cc)" style="fill: none; stroke-dasharray: 1.85,0.8; stroke-dashoffset: 0; stroke: #b0b0b0; stroke-opacity: 0.3; stroke-width: 0.5"/>
     </g>
     <g id="line2d_6">
      <g>
       <use xlink:href="#m052759dd74" x="507.743896" y="564.610158" style="fill: #333333; stroke: #333333; stroke-width: 0.8"/>
      </g>
     </g>
     <g id="text_3">
      <!-- 10000 -->
      <g style="fill: #333333" transform="translate(491.493896 580.547658) scale(0.13 -0.13)">
       <defs>
        <path id="SimHei-31" d="M 1400 3600 
Q 1075 3275 575 2975 
L 575 3450 
Q 1200 3875 1600 4450 
L 1900 4450 
L 1900 150 
L 1400 150 
L 1400 3600 
z
" transform="scale(0.015625)"/>
       </defs>
       <use xlink:href="#SimHei-31"/>
       <use xlink:href="#SimHei-30" transform="translate(50 0)"/>
       <use xlink:href="#SimHei-30" transform="translate(100 0)"/>
       <use xlink:href="#SimHei-30" transform="translate(150 0)"/>
       <use xlink:href="#SimHei-30" transform="translate(200 0)"/>
      </g>
     </g>
    </g>
    <g id="xtick_4">
     <g id="line2d_7">
      <path d="M 687.509864 564.610158 
L 687.509864 83.220486 
" clip-path="url(#p16420685cc)" style="fill: none; stroke-dasharray: 1.85,0.8; stroke-dashoffset: 0; stroke: #b0b0b0; stroke-opacity: 0.3; stroke-width: 0.5"/>
     </g>
     <g id="line2d_8">
      <g>
       <use xlink:href="#m052759dd74" x="687.509864" y="564.610158" style="fill: #333333; stroke: #333333; stroke-width: 0.8"/>
      </g>
     </g>
     <g id="text_4">
      <!-- 15000 -->
      <g style="fill: #333333" transform="translate(671.259864 580.547658) scale(0.13 -0.13)">
       <use xlink:href="#SimHei-31"/>
       <use xlink:href="#SimHei-35" transform="translate(50 0)"/>
       <use xlink:href="#SimHei-30" transform="translate(100 0)"/>
       <use xlink:href="#SimHei-30" transform="translate(150 0)"/>
       <use xlink:href="#SimHei-30" transform="translate(200 0)"/>
      </g>
     </g>
    </g>
    <g id="xtick_5">
     <g id="line2d_9">
      <path d="M 867.275833 564.610158 
L 867.275833 83.220486 
" clip-path="url(#p16420685cc)" style="fill: none; stroke-dasharray: 1.85,0.8; stroke-dashoffset: 0; stroke: #b0b0b0; stroke-opacity: 0.3; stroke-width: 0.5"/>
     </g>
     <g id="line2d_10">
      <g>
       <use xlink:href="#m052759dd74" x="867.275833" y="564.610158" style="fill: #333333; stroke: #333333; stroke-width: 0.8"/>
      </g>
     </g>
     <g id="text_5">
      <!-- 20000 -->
      <g style="fill: #333333" transform="translate(851.025833 580.547658) scale(0.13 -0.13)">
       <defs>
        <path id="SimHei-32" d="M 300 250 
Q 325 625 650 925 
Q 975 1225 1475 1862 
Q 1975 2500 2125 2850 
Q 2275 3200 2237 3450 
Q 2200 3700 2000 3862 
Q 1800 4025 1537 4000 
Q 1275 3975 1037 3800 
Q 800 3625 675 3275 
L 200 3350 
Q 400 3925 712 4187 
Q 1025 4450 1450 4475 
Q 1700 4500 1900 4462 
Q 2100 4425 2312 4287 
Q 2525 4150 2662 3875 
Q 2800 3600 2762 3212 
Q 2725 2825 2375 2287 
Q 2025 1750 1025 600 
L 2825 600 
L 2825 150 
L 300 150 
L 300 250 
z
" transform="scale(0.015625)"/>
       </defs>
       <use xlink:href="#SimHei-32"/>
       <use xlink:href="#SimHei-30" transform="translate(50 0)"/>
       <use xlink:href="#SimHei-30" transform="translate(100 0)"/>
       <use xlink:href="#SimHei-30" transform="translate(150 0)"/>
       <use xlink:href="#SimHei-30" transform="translate(200 0)"/>
      </g>
     </g>
    </g>
    <g id="xtick_6">
     <g id="line2d_11">
      <path d="M 1047.041801 564.610158 
L 1047.041801 83.220486 
" clip-path="url(#p16420685cc)" style="fill: none; stroke-dasharray: 1.85,0.8; stroke-dashoffset: 0; stroke: #b0b0b0; stroke-opacity: 0.3; stroke-width: 0.5"/>
     </g>
     <g id="line2d_12">
      <g>
       <use xlink:href="#m052759dd74" x="1047.041801" y="564.610158" style="fill: #333333; stroke: #333333; stroke-width: 0.8"/>
      </g>
     </g>
     <g id="text_6">
      <!-- 25000 -->
      <g style="fill: #333333" transform="translate(1030.791801 580.547658) scale(0.13 -0.13)">
       <use xlink:href="#SimHei-32"/>
       <use xlink:href="#SimHei-35" transform="translate(50 0)"/>
       <use xlink:href="#SimHei-30" transform="translate(100 0)"/>
       <use xlink:href="#SimHei-30" transform="translate(150 0)"/>
       <use xlink:href="#SimHei-30" transform="translate(200 0)"/>
      </g>
     </g>
    </g>
    <g id="xtick_7">
     <g id="line2d_13">
      <path d="M 1226.807769 564.610158 
L 1226.807769 83.220486 
" clip-path="url(#p16420685cc)" style="fill: none; stroke-dasharray: 1.85,0.8; stroke-dashoffset: 0; stroke: #b0b0b0; stroke-opacity: 0.3; stroke-width: 0.5"/>
     </g>
     <g id="line2d_14">
      <g>
       <use xlink:href="#m052759dd74" x="1226.807769" y="564.610158" style="fill: #333333; stroke: #333333; stroke-width: 0.8"/>
      </g>
     </g>
     <g id="text_7">
      <!-- 30000 -->
      <g style="fill: #333333" transform="translate(1210.557769 580.547658) scale(0.13 -0.13)">
       <defs>
        <path id="SimHei-33" d="M 250 1225 
L 700 1300 
Q 800 975 1025 762 
Q 1250 550 1587 562 
Q 1925 575 2125 837 
Q 2325 1100 2300 1437 
Q 2275 1775 2037 1962 
Q 1800 2150 1275 2225 
L 1275 2550 
Q 1800 2600 2037 2825 
Q 2275 3050 2250 3412 
Q 2225 3775 1925 3937 
Q 1625 4100 1287 3975 
Q 950 3850 750 3275 
L 300 3350 
Q 450 3800 712 4100 
Q 975 4400 1425 4450 
Q 1875 4500 2212 4337 
Q 2550 4175 2687 3837 
Q 2825 3500 2725 3100 
Q 2625 2700 2150 2400 
Q 2500 2250 2687 1950 
Q 2875 1650 2812 1162 
Q 2750 675 2375 375 
Q 2000 75 1525 87 
Q 1050 100 700 387 
Q 350 675 250 1225 
z
" transform="scale(0.015625)"/>
       </defs>
       <use xlink:href="#SimHei-33"/>
       <use xlink:href="#SimHei-30" transform="translate(50 0)"/>
       <use xlink:href="#SimHei-30" transform="translate(100 0)"/>
       <use xlink:href="#SimHei-30" transform="translate(150 0)"/>
       <use xlink:href="#SimHei-30" transform="translate(200 0)"/>
      </g>
     </g>
    </g>
    <g id="text_8">
     <!-- 行程 s (mm) -->
     <g style="fill: #333333" transform="translate(684.8435 597.492971) scale(0.14 -0.14)">
      <defs>
       <path id="SimHei-884c" d="M 5300 3100 
Q 5775 3100 6175 3125 
L 6175 2625 
Q 5775 2650 5325 2650 
L 4975 2650 
L 4975 -75 
Q 5000 -375 4787 -487 
Q 4575 -600 3950 -675 
Q 3900 -375 3675 -75 
Q 4100 -125 4275 -112 
Q 4450 -100 4475 150 
L 4475 2650 
L 3475 2650 
Q 3000 2650 2575 2625 
L 2575 3125 
Q 3025 3100 3475 3100 
L 5300 3100 
z
M 2300 3400 
Q 2075 3275 1962 3075 
Q 1850 2875 1650 2575 
L 1650 325 
Q 1650 0 1675 -675 
L 1150 -675 
Q 1175 75 1175 450 
L 1175 2050 
Q 950 1675 575 1300 
Q 400 1550 250 1725 
Q 825 2275 1150 2775 
Q 1475 3275 1725 3725 
Q 1975 3575 2300 3400 
z
M 4875 4800 
Q 5300 4800 5750 4825 
L 5750 4350 
Q 5300 4375 4825 4375 
L 3900 4375 
Q 3350 4375 2950 4350 
L 2950 4825 
Q 3350 4800 3900 4800 
L 4875 4800 
z
M 2075 4925 
Q 1875 4900 1550 4387 
Q 1225 3875 650 3250 
Q 500 3450 325 3625 
Q 725 4025 1050 4487 
Q 1375 4950 1525 5300 
Q 1775 5150 2075 4925 
z
" transform="scale(0.015625)"/>
       <path id="SimHei-7a0b" d="M 5825 4975 
Q 5800 4425 5800 3975 
Q 5800 3550 5825 3125 
L 3025 3125 
Q 3050 3600 3050 4025 
Q 3050 4450 3025 4975 
L 5825 4975 
z
M 400 4825 
Q 825 4875 1362 4987 
Q 1900 5100 2275 5275 
Q 2450 4950 2625 4725 
Q 2450 4750 2262 4712 
Q 2075 4675 1850 4650 
L 1850 3425 
Q 2200 3425 2600 3450 
L 2600 2975 
Q 2200 3000 1850 3000 
L 1850 800 
Q 1850 250 1875 -675 
L 1375 -675 
Q 1400 250 1400 775 
L 1400 1925 
Q 1050 1225 625 600 
Q 450 850 225 1050 
Q 575 1400 850 1850 
Q 1125 2300 1350 3000 
Q 725 3000 425 2975 
L 425 3450 
Q 850 3425 1050 3425 
L 1400 3425 
L 1400 4550 
Q 1075 4475 575 4400 
Q 500 4625 400 4825 
z
M 5100 2500 
Q 5500 2500 5950 2525 
L 5950 2075 
Q 5500 2100 5100 2100 
L 4625 2100 
L 4625 1300 
L 4900 1300 
Q 5275 1300 5775 1325 
L 5775 850 
Q 5275 875 4975 875 
L 4625 875 
L 4625 0 
L 5225 0 
Q 5675 0 6175 25 
L 6175 -450 
Q 5775 -425 5225 -425 
L 3550 -425 
Q 3000 -425 2600 -475 
L 2600 25 
Q 3000 0 3550 0 
L 4150 0 
L 4150 875 
L 3800 875 
Q 3400 875 3050 825 
L 3050 1325 
Q 3400 1300 3800 1300 
L 4150 1300 
L 4150 2100 
L 3750 2100 
Q 3300 2100 2900 2075 
L 2900 2525 
Q 3300 2500 3750 2500 
L 5100 2500 
z
M 5275 3575 
L 5275 4550 
L 3500 4550 
L 3500 3575 
L 5275 3575 
z
M 2300 2400 
Q 2550 2025 2825 1525 
Q 2675 1425 2425 1225 
Q 2175 1775 1925 2125 
Q 2075 2250 2300 2400 
z
" transform="scale(0.015625)"/>
       <path id="SimHei-20" transform="scale(0.015625)"/>
       <path id="SimHei-73" d="M 2750 900 
Q 2750 500 2437 287 
Q 2125 75 1650 75 
Q 1050 75 725 312 
Q 400 550 400 1000 
L 900 1000 
Q 900 700 1112 600 
Q 1325 500 1625 500 
Q 1925 500 2075 612 
Q 2225 725 2225 900 
Q 2225 1025 2100 1150 
Q 1975 1275 1475 1350 
Q 900 1425 687 1637 
Q 475 1850 475 2200 
Q 475 2500 762 2737 
Q 1050 2975 1600 2975 
Q 2100 2975 2387 2750 
Q 2675 2525 2675 2150 
L 2175 2150 
Q 2175 2375 2012 2462 
Q 1850 2550 1600 2550 
Q 1275 2550 1137 2437 
Q 1000 2325 1000 2175 
Q 1000 2000 1125 1900 
Q 1250 1800 1650 1750 
Q 2300 1650 2525 1437 
Q 2750 1225 2750 900 
z
" transform="scale(0.015625)"/>
       <path id="SimHei-28" d="M 2975 -200 
L 2700 -475 
Q 2075 125 1762 775 
Q 1450 1425 1450 2250 
Q 1450 3075 1762 3725 
Q 2075 4375 2700 5000 
L 2975 4725 
Q 2400 4175 2112 3587 
Q 1825 3000 1825 2250 
Q 1825 1500 2112 912 
Q 2400 325 2975 -200 
z
" transform="scale(0.015625)"/>
       <path id="SimHei-6d" d="M 3050 125 
L 2550 125 
L 2550 2150 
Q 2550 2300 2500 2400 
Q 2450 2500 2300 2500 
Q 2125 2500 1975 2312 
Q 1825 2125 1825 1825 
L 1825 125 
L 1325 125 
L 1325 2150 
Q 1325 2300 1275 2400 
Q 1225 2500 1075 2500 
Q 900 2500 750 2312 
Q 600 2125 600 1825 
L 600 125 
L 100 125 
L 100 2925 
L 600 2925 
L 600 2550 
Q 725 2750 900 2862 
Q 1075 2975 1275 2975 
Q 1475 2975 1612 2862 
Q 1750 2750 1800 2550 
Q 1925 2750 2087 2862 
Q 2250 2975 2450 2975 
Q 2750 2975 2900 2812 
Q 3050 2650 3050 2350 
L 3050 125 
z
" transform="scale(0.015625)"/>
       <path id="SimHei-29" d="M 1675 2250 
Q 1675 1425 1362 775 
Q 1050 125 425 -475 
L 150 -200 
Q 725 325 1012 912 
Q 1300 1500 1300 2250 
Q 1300 3000 1012 3587 
Q 725 4175 150 4725 
L 425 5000 
Q 1050 4375 1362 3725 
Q 1675 3075 1675 2250 
z
" transform="scale(0.015625)"/>
      </defs>
      <use xlink:href="#SimHei-884c"/>
      <use xlink:href="#SimHei-7a0b" transform="translate(100 0)"/>
      <use xlink:href="#SimHei-20" transform="translate(200 0)"/>
      <use xlink:href="#SimHei-73" transform="translate(250 0)"/>
      <use xlink:href="#SimHei-20" transform="translate(300 0)"/>
      <use xlink:href="#SimHei-28" transform="translate(350 0)"/>
      <use xlink:href="#SimHei-6d" transform="translate(400 0)"/>
      <use xlink:href="#SimHei-6d" transform="translate(450 0)"/>
      <use xlink:href="#SimHei-29" transform="translate(500 0)"/>
     </g>
    </g>
   </g>
   <g id="matplotlib.axis_2">
    <g id="ytick_1">
     <g id="line2d_15">
      <path d="M 58.48 526.317798 
L 1388.207 526.317798 
" clip-path="url(#p16420685cc)" style="fill: none; stroke-dasharray: 1.85,0.8; stroke-dashoffset: 0; stroke: #b0b0b0; stroke-opacity: 0.3; stroke-width: 0.5"/>
     </g>
     <g id="line2d_16">
      <defs>
       <path id="me232fbe4ad" d="M 0 0 
L -3.5 0 
" style="stroke: #333333; stroke-width: 0.8"/>
      </defs>
      <g>
       <use xlink:href="#me232fbe4ad" x="58.48" y="526.317798" style="fill: #333333; stroke: #333333; stroke-width: 0.8"/>
      </g>
     </g>
     <g id="text_9">
      <!-- 0 -->
      <g style="fill: #333333" transform="translate(44.98 530.786548) scale(0.13 -0.13)">
       <use xlink:href="#SimHei-30"/>
      </g>
     </g>
    </g>
    <g id="ytick_2">
     <g id="line2d_17">
      <path d="M 58.48 435.136393 
L 1388.207 435.136393 
" clip-path="url(#p16420685cc)" style="fill: none; stroke-dasharray: 1.85,0.8; stroke-dashoffset: 0; stroke: #b0b0b0; stroke-opacity: 0.3; stroke-width: 0.5"/>
     </g>
     <g id="line2d_18">
      <g>
       <use xlink:href="#me232fbe4ad" x="58.48" y="435.136393" style="fill: #333333; stroke: #333333; stroke-width: 0.8"/>
      </g>
     </g>
     <g id="text_10">
      <!-- 1000 -->
      <g style="fill: #333333" transform="translate(25.48 439.605143) scale(0.13 -0.13)">
       <use xlink:href="#SimHei-31"/>
       <use xlink:href="#SimHei-30" transform="translate(50 0)"/>
       <use xlink:href="#SimHei-30" transform="translate(100 0)"/>
       <use xlink:href="#SimHei-30" transform="translate(150 0)"/>
      </g>
     </g>
    </g>
    <g id="ytick_3">
     <g id="line2d_19">
      <path d="M 58.48 343.954989 
L 1388.207 343.954989 
" clip-path="url(#p16420685cc)" style="fill: none; stroke-dasharray: 1.85,0.8; stroke-dashoffset: 0; stroke: #b0b0b0; stroke-opacity: 0.3; stroke-width: 0.5"/>
     </g>
     <g id="line2d_20">
      <g>
       <use xlink:href="#me232fbe4ad" x="58.48" y="343.954989" style="fill: #333333; stroke: #333333; stroke-width: 0.8"/>
      </g>
     </g>
     <g id="text_11">
      <!-- 2000 -->
      <g style="fill: #333333" transform="translate(25.48 348.423739) scale(0.13 -0.13)">
       <use xlink:href="#SimHei-32"/>
       <use xlink:href="#SimHei-30" transform="translate(50 0)"/>
       <use xlink:href="#SimHei-30" transform="translate(100 0)"/>
       <use xlink:href="#SimHei-30" transform="translate(150 0)"/>
      </g>
     </g>
    </g>
    <g id="ytick_4">
     <g id="line2d_21">
      <path d="M 58.48 252.773584 
L 1388.207 252.773584 
" clip-path="url(#p16420685cc)" style="fill: none; stroke-dasharray: 1.85,0.8; stroke-dashoffset: 0; stroke: #b0b0b0; stroke-opacity: 0.3; stroke-width: 0.5"/>
     </g>
     <g id="line2d_22">
      <g>
       <use xlink:href="#me232fbe4ad" x="58.48" y="252.773584" style="fill: #333333; stroke: #333333; stroke-width: 0.8"/>
      </g>
     </g>
     <g id="text_12">
      <!-- 3000 -->
      <g style="fill: #333333" transform="translate(25.48 257.242334) scale(0.13 -0.13)">
       <use xlink:href="#SimHei-33"/>
       <use xlink:href="#SimHei-30" transform="translate(50 0)"/>
       <use xlink:href="#SimHei-30" transform="translate(100 0)"/>
       <use xlink:href="#SimHei-30" transform="translate(150 0)"/>
      </g>
     </g>
    </g>
    <g id="ytick_5">
     <g id="line2d_23">
      <path d="M 58.48 161.59218 
L 1388.207 161.59218 
" clip-path="url(#p16420685cc)" style="fill: none; stroke-dasharray: 1.85,0.8; stroke-dashoffset: 0; stroke: #b0b0b0; stroke-opacity: 0.3; stroke-width: 0.5"/>
     </g>
     <g id="line2d_24">
      <g>
       <use xlink:href="#me232fbe4ad" x="58.48" y="161.59218" style="fill: #333333; stroke: #333333; stroke-width: 0.8"/>
      </g>
     </g>
     <g id="text_13">
      <!-- 4000 -->
      <g style="fill: #333333" transform="translate(25.48 166.06093) scale(0.13 -0.13)">
       <defs>
        <path id="SimHei-34" d="M 2000 1100 
L 75 1100 
L 75 1525 
L 2100 4450 
L 2475 4450 
L 2475 1525 
L 3075 1525 
L 3075 1100 
L 2475 1100 
L 2475 150 
L 2000 150 
L 2000 1100 
z
M 2000 1525 
L 2000 3500 
L 600 1525 
L 2000 1525 
z
" transform="scale(0.015625)"/>
       </defs>
       <use xlink:href="#SimHei-34"/>
       <use xlink:href="#SimHei-30" transform="translate(50 0)"/>
       <use xlink:href="#SimHei-30" transform="translate(100 0)"/>
       <use xlink:href="#SimHei-30" transform="translate(150 0)"/>
      </g>
     </g>
    </g>
    <g id="text_14">
     <!-- 材料去除率 MRR (mm$^3$/s) -->
     <g style="fill: #333333" transform="translate(19.73 400.845322) rotate(-90) scale(0.14 -0.14)">
      <defs>
       <path id="SimHei-6750" d="M 4675 3750 
L 4675 4300 
Q 4675 4750 4650 5175 
L 5200 5175 
Q 5150 4750 5150 4275 
L 5150 3750 
Q 5650 3750 6100 3775 
L 6100 3300 
Q 5650 3325 5150 3325 
L 5150 125 
Q 5150 -250 4962 -375 
Q 4775 -500 4225 -625 
Q 4150 -325 4000 -50 
Q 4425 -50 4550 0 
Q 4675 50 4675 325 
L 4675 2675 
Q 4325 2000 3887 1412 
Q 3450 825 2800 225 
Q 2675 400 2400 625 
Q 2950 975 3512 1675 
Q 4075 2375 4500 3325 
L 3650 3325 
Q 3350 3325 2950 3300 
L 2950 3775 
Q 3350 3750 3650 3750 
L 4675 3750 
z
M 2200 2700 
Q 2650 2125 2850 1825 
Q 2625 1675 2450 1550 
Q 2100 2150 1925 2325 
L 1925 425 
Q 1925 -100 1950 -625 
L 1425 -625 
Q 1450 -75 1450 425 
L 1450 2175 
Q 1275 1800 1037 1400 
Q 800 1000 550 650 
Q 475 825 225 1100 
Q 525 1425 875 2062 
Q 1225 2700 1400 3325 
Q 875 3325 425 3300 
L 425 3775 
Q 925 3750 1450 3750 
L 1450 4350 
Q 1450 4725 1425 5175 
L 1950 5175 
Q 1925 4775 1925 4350 
L 1925 3750 
Q 2300 3750 2725 3775 
L 2725 3300 
Q 2300 3325 1925 3325 
L 1925 2475 
Q 2125 2600 2200 2700 
z
" transform="scale(0.015625)"/>
       <path id="SimHei-6599" d="M 1450 4400 
Q 1450 4800 1425 5100 
L 1925 5100 
Q 1900 4850 1900 4375 
L 1900 3075 
Q 2300 3075 2800 3100 
L 2800 2650 
Q 2300 2675 1900 2675 
L 1900 375 
Q 1900 -25 1925 -650 
L 1425 -650 
Q 1450 -25 1450 375 
L 1450 1875 
Q 1225 1300 600 475 
Q 425 650 225 800 
Q 600 1225 887 1712 
Q 1175 2200 1350 2675 
Q 875 2675 350 2650 
L 350 3100 
Q 875 3075 1450 3075 
L 1450 4400 
z
M 4800 4325 
Q 4800 4750 4775 5050 
L 5300 5050 
Q 5275 4750 5275 4325 
L 5275 1650 
Q 5525 1700 6125 1850 
L 6150 1400 
Q 5625 1300 5275 1225 
L 5275 325 
Q 5275 -50 5300 -650 
L 4775 -650 
Q 4800 125 4800 1125 
Q 3175 850 2750 725 
L 2600 1225 
Q 3700 1350 4800 1550 
L 4800 4325 
z
M 3350 3175 
Q 4025 2600 4450 2150 
L 4075 1775 
Q 3675 2300 3050 2800 
Q 3300 3025 3350 3175 
z
M 3550 4575 
Q 4150 4000 4575 3500 
Q 4375 3375 4175 3200 
Q 3825 3650 3250 4250 
Q 3475 4450 3550 4575 
z
M 750 4600 
Q 900 4400 1300 3625 
Q 1100 3525 875 3375 
Q 800 3600 350 4400 
Q 550 4475 750 4600 
z
M 3000 4350 
Q 2825 4075 2350 3300 
Q 2225 3425 1975 3550 
Q 2300 3925 2575 4600 
Q 2800 4450 3000 4350 
z
M 2325 2400 
Q 2650 2025 2975 1600 
Q 2800 1450 2600 1275 
Q 2300 1775 1975 2125 
Q 2175 2250 2325 2400 
z
" transform="scale(0.015625)"/>
       <path id="SimHei-53bb" d="M 3325 1625 
Q 3050 1450 2725 1037 
Q 2400 625 1775 25 
Q 2500 100 3125 162 
Q 3750 225 4500 325 
Q 3950 975 3725 1150 
Q 3950 1250 4200 1450 
Q 4500 1125 4900 662 
Q 5300 200 5750 -275 
Q 5450 -425 5200 -600 
Q 5000 -300 4750 -25 
Q 3025 -200 2262 -337 
Q 1500 -475 1175 -600 
Q 1075 -325 900 0 
Q 1200 75 1812 700 
Q 2425 1325 2675 1975 
L 1450 1975 
Q 750 1975 250 1950 
L 250 2400 
Q 775 2375 1450 2375 
L 2975 2375 
L 2975 3550 
L 2075 3550 
Q 1450 3550 975 3525 
L 975 3975 
Q 1450 3950 2050 3950 
L 2975 3950 
L 2975 4450 
Q 2975 4825 2950 5175 
L 3550 5175 
Q 3500 4850 3500 4500 
L 3500 3950 
L 4250 3950 
Q 4875 3950 5425 3975 
L 5425 3525 
Q 4875 3550 4275 3550 
L 3500 3550 
L 3500 2375 
L 5025 2375 
Q 5625 2375 6175 2400 
L 6175 1950 
Q 5625 1975 5025 1975 
L 2850 1975 
Q 3125 1775 3325 1625 
z
" transform="scale(0.015625)"/>
       <path id="SimHei-9664" d="M 4325 2850 
L 4325 2100 
L 4900 2100 
Q 5250 2100 5725 2125 
L 5725 1675 
Q 5275 1700 4925 1700 
L 4325 1700 
L 4325 75 
Q 4325 -375 4125 -475 
Q 3925 -575 3450 -675 
Q 3425 -400 3250 -75 
Q 3650 -75 3775 -50 
Q 3900 -25 3900 250 
L 3900 1700 
L 3425 1700 
Q 2975 1700 2550 1675 
L 2550 2125 
Q 2950 2100 3450 2100 
L 3900 2100 
L 3900 2850 
L 3625 2850 
Q 3375 2850 3100 2825 
L 3100 3200 
Q 2800 2825 2625 2675 
Q 2450 2850 2200 3000 
Q 2850 3500 3262 4125 
Q 3675 4750 3875 5300 
Q 4100 5175 4425 5050 
Q 4375 4975 4275 4850 
Q 4625 4275 5025 3925 
Q 5425 3575 6200 3250 
Q 5975 3075 5825 2750 
Q 5525 2900 5125 3225 
L 5125 2825 
Q 4800 2850 4525 2850 
L 4325 2850 
z
M 2500 4850 
Q 2350 4475 1800 2950 
Q 2175 2425 2275 2150 
Q 2375 1875 2375 1550 
Q 2375 1225 2150 1000 
Q 1925 775 1450 675 
Q 1375 950 1225 1225 
Q 1725 1275 1850 1437 
Q 1975 1600 1862 1975 
Q 1750 2350 1300 2950 
Q 1650 3625 1875 4450 
L 1025 4450 
L 1025 -625 
L 550 -625 
Q 575 -25 575 925 
L 575 3800 
Q 575 4375 550 4850 
L 2500 4850 
z
M 5050 3275 
Q 4375 3875 4025 4500 
Q 3600 3775 3150 3275 
L 5050 3275 
z
M 5050 1250 
Q 5275 975 5512 687 
Q 5750 400 6075 100 
Q 5800 0 5600 -225 
Q 5425 50 5137 412 
Q 4850 775 4650 950 
L 5050 1250 
z
M 3525 975 
Q 3350 800 3100 462 
Q 2850 125 2550 -225 
Q 2350 -50 2150 75 
Q 2425 325 2650 612 
Q 2875 900 3075 1275 
Q 3275 1100 3525 975 
z
" transform="scale(0.015625)"/>
       <path id="SimHei-7387" d="M 3325 5150 
Q 3425 4900 3550 4525 
L 4800 4525 
Q 5250 4525 5800 4550 
L 5800 4125 
Q 5250 4175 4775 4175 
L 2800 4175 
Q 2975 4050 3300 3900 
Q 3075 3750 2875 3537 
Q 2675 3325 2475 3125 
L 3275 3125 
Q 3575 3425 3775 3775 
Q 4000 3600 4275 3425 
Q 3950 3250 3600 2875 
Q 3250 2500 2625 2000 
L 3850 2100 
Q 3725 2250 3600 2425 
Q 3750 2475 4000 2650 
Q 4250 2350 4700 1700 
Q 4475 1625 4225 1450 
Q 4175 1600 4025 1775 
Q 3700 1750 3425 1750 
L 3425 1050 
L 5150 1050 
Q 5675 1050 6100 1075 
L 6100 650 
Q 5700 675 5125 675 
L 3425 675 
L 3425 175 
Q 3425 -300 3450 -625 
L 2900 -625 
Q 2925 -300 2925 175 
L 2925 675 
L 1325 675 
Q 825 675 325 650 
L 325 1075 
Q 825 1050 1350 1050 
L 2925 1050 
L 2925 1700 
Q 2700 1675 2475 1637 
Q 2250 1600 2025 1525 
Q 1950 1775 1850 2000 
Q 2075 2025 2325 2200 
Q 2575 2375 2975 2800 
Q 2300 2725 2025 2625 
Q 1975 2875 1850 3175 
Q 2075 3175 2325 3487 
Q 2575 3800 2750 4175 
L 1700 4175 
Q 1150 4175 650 4125 
L 650 4550 
Q 1150 4525 1550 4525 
L 2975 4525 
Q 2900 4825 2800 5025 
Q 3025 5075 3325 5150 
z
M 1625 2575 
Q 1725 2400 1825 2200 
Q 1575 2050 1325 1862 
Q 1075 1675 800 1425 
Q 625 1675 475 1875 
Q 800 2025 1100 2212 
Q 1400 2400 1625 2575 
z
M 4850 2650 
Q 5125 2475 5337 2337 
Q 5550 2200 5875 1950 
Q 5675 1800 5500 1600 
Q 5300 1775 5062 1975 
Q 4825 2175 4575 2325 
Q 4725 2475 4850 2650 
z
M 5725 3525 
Q 5550 3450 5300 3262 
Q 5050 3075 4800 2825 
Q 4625 3050 4475 3175 
Q 4700 3325 4875 3487 
Q 5050 3650 5300 3925 
Q 5525 3700 5725 3525 
z
M 1050 3850 
Q 1425 3600 1775 3275 
Q 1575 3100 1425 2925 
Q 1075 3300 675 3525 
Q 875 3700 1050 3850 
z
" transform="scale(0.015625)"/>
       <path id="SimHei-4d" d="M 2925 125 
L 2425 125 
L 2425 3175 
L 2375 3175 
L 1775 125 
L 1375 125 
L 775 3175 
L 725 3175 
L 725 125 
L 225 125 
L 225 4400 
L 1000 4400 
L 1550 1575 
L 1600 1575 
L 2150 4400 
L 2925 4400 
L 2925 125 
z
" transform="scale(0.015625)"/>
       <path id="SimHei-52" d="M 3000 125 
L 2400 125 
L 1500 1975 
L 850 1975 
L 850 125 
L 275 125 
L 275 4400 
L 1525 4400 
Q 2125 4400 2500 4112 
Q 2875 3825 2875 3175 
Q 2875 2675 2625 2400 
Q 2375 2125 2050 2050 
L 3000 125 
z
M 2300 3175 
Q 2300 3525 2087 3725 
Q 1875 3925 1400 3925 
L 850 3925 
L 850 2450 
L 1550 2450 
Q 1850 2450 2075 2612 
Q 2300 2775 2300 3175 
z
" transform="scale(0.015625)"/>
       <path id="DejaVuSans-33" d="M 2597 2516 
Q 3050 2419 3304 2112 
Q 3559 1806 3559 1356 
Q 3559 666 3084 287 
Q 2609 -91 1734 -91 
Q 1441 -91 1130 -33 
Q 819 25 488 141 
L 488 750 
Q 750 597 1062 519 
Q 1375 441 1716 441 
Q 2309 441 2620 675 
Q 2931 909 2931 1356 
Q 2931 1769 2642 2001 
Q 2353 2234 1838 2234 
L 1294 2234 
L 1294 2753 
L 1863 2753 
Q 2328 2753 2575 2939 
Q 2822 3125 2822 3475 
Q 2822 3834 2567 4026 
Q 2313 4219 1838 4219 
Q 1578 4219 1281 4162 
Q 984 4106 628 3988 
L 628 4550 
Q 988 4650 1302 4700 
Q 1616 4750 1894 4750 
Q 2613 4750 3031 4423 
Q 3450 4097 3450 3541 
Q 3450 3153 3228 2886 
Q 3006 2619 2597 2516 
z
" transform="scale(0.015625)"/>
       <path id="SimHei-2f" d="M 3000 4550 
L 350 -175 
L 100 -25 
L 2750 4700 
L 3000 4550 
z
" transform="scale(0.015625)"/>
      </defs>
      <use xlink:href="#SimHei-6750" transform="translate(0 0.765625)"/>
      <use xlink:href="#SimHei-6599" transform="translate(100 0.765625)"/>
      <use xlink:href="#SimHei-53bb" transform="translate(200 0.765625)"/>
      <use xlink:href="#SimHei-9664" transform="translate(300 0.765625)"/>
      <use xlink:href="#SimHei-7387" transform="translate(400 0.765625)"/>
      <use xlink:href="#SimHei-20" transform="translate(500 0.765625)"/>
      <use xlink:href="#SimHei-4d" transform="translate(550 0.765625)"/>
      <use xlink:href="#SimHei-52" transform="translate(600 0.765625)"/>
      <use xlink:href="#SimHei-52" transform="translate(650 0.765625)"/>
      <use xlink:href="#SimHei-20" transform="translate(700 0.765625)"/>
      <use xlink:href="#SimHei-28" transform="translate(750 0.765625)"/>
      <use xlink:href="#SimHei-6d" transform="translate(800 0.765625)"/>
      <use xlink:href="#SimHei-6d" transform="translate(850 0.765625)"/>
      <use xlink:href="#DejaVuSans-33" transform="translate(900.957031 39.046875) scale(0.7)"/>
      <use xlink:href="#SimHei-2f" transform="translate(948.227539 0.765625)"/>
      <use xlink:href="#SimHei-73" transform="translate(998.227539 0.765625)"/>
      <use xlink:href="#SimHei-29" transform="translate(1048.227539 0.765625)"/>
     </g>
    </g>
   </g>
   <g id="patch_3">
    <path d="M 58.48 564.610158 
L 58.48 83.220486 
" style="fill: none; stroke: #000000; stroke-width: 0.8; stroke-linejoin: miter; stroke-linecap: square"/>
   </g>
   <g id="patch_4">
    <path d="M 1388.207 564.610158 
L 1388.207 83.220486 
" style="fill: none; stroke: #000000; stroke-width: 0.8; stroke-linejoin: miter; stroke-linecap: square"/>
   </g>
   <g id="patch_5">
    <path d="M 58.48 564.610158 
L 1388.207 564.610158 
" style="fill: none; stroke: #000000; stroke-width: 0.8; stroke-linejoin: miter; stroke-linecap: square"/>
   </g>
   <g id="patch_6">
    <path d="M 58.48 83.220486 
L 1388.207 83.220486 
" style="fill: none; stroke: #000000; stroke-width: 0.8; stroke-linejoin: miter; stroke-linecap: square"/>
   </g>
   <g id="text_15">
    <!-- 材料去除率 -->
    <g style="fill: #333333" transform="translate(678.3435 21.754687) scale(0.18 -0.18)">
     <use xlink:href="#SimHei-6750"/>
     <use xlink:href="#SimHei-6599" transform="translate(100 0)"/>
     <use xlink:href="#SimHei-53bb" transform="translate(200 0)"/>
     <use xlink:href="#SimHei-9664" transform="translate(300 0)"/>
     <use xlink:href="#SimHei-7387" transform="translate(400 0)"/>
    </g>
   </g>
   <g id="line2d_25">
    <path d="M 164.253739 526.317798 
L 182.670906 526.317798 
L 183.1233 417.118948 
L 183.655732 417.118948 
L 197.507311 417.118948 
L 197.507311 526.317798 
L 198.49044 417.118948 
L 205.583717 417.118948 
L 205.745506 526.317798 
L 206.578499 417.118948 
L 209.102592 417.118948 
L 209.116924 526.317798 
L 210.094672 501.748057 
L 210.112649 501.748057 
L 210.166579 526.317798 
L 210.713261 177.553412 
L 210.952233 526.317798 
L 212.541645 526.317798 
L 212.559622 417.118948 
L 213.540189 417.118948 
L 215.17605 417.118948 
L 215.445177 526.317798 
L 216.164891 417.118948 
L 221.521854 417.118948 
L 221.719285 526.317798 
L 222.51982 417.118948 
L 222.819196 417.118948 
L 222.837167 526.317798 
L 223.802436 526.317798 
L 223.846895 526.317798 
L 223.864849 417.118948 
L 224.844467 419.384551 
L 224.861968 419.384551 
L 224.897233 417.118948 
L 225.848492 417.118948 
L 228.743604 417.118948 
L 228.743604 429.140103 
L 229.727225 417.118948 
L 229.980517 417.118948 
L 229.991308 526.317798 
L 230.972455 417.118948 
L 233.38741 417.118948 
L 233.401763 526.317798 
L 233.927031 526.317798 
L 237.444693 526.317798 
L 237.481564 417.118948 
L 238.435703 526.317798 
L 238.832597 526.317798 
L 238.904492 417.118948 
L 239.830762 417.118948 
L 242.329411 417.118948 
L 242.57886 526.317798 
L 243.325487 417.118948 
L 243.374422 417.118948 
L 243.404664 526.317798 
L 243.827016 526.317798 
L 248.773587 526.317798 
L 248.791586 417.118948 
L 249.76005 526.317798 
L 250.529752 526.317798 
L 250.565699 417.118948 
L 251.515864 526.317798 
L 251.944938 526.317798 
L 252.009938 513.213936 
L 252.407413 526.317798 
L 253.570236 526.317798 
L 253.660105 417.118948 
L 254.554481 417.118948 
L 256.801546 417.118948 
L 257.027373 525.295675 
L 257.79111 417.118948 
L 257.827624 417.825191 
L 257.838377 526.317798 
L 258.537488 417.118948 
L 258.816334 417.118948 
L 258.956139 417.414877 
L 259.112292 504.511525 
L 259.350475 417.118948 
L 259.941479 417.118948 
L 262.189674 417.118948 
L 262.211368 526.317798 
L 263.171986 526.317798 
L 263.330213 526.317798 
L 263.3482 417.118948 
L 264.319656 417.118948 
L 264.8389 417.118948 
L 265.010258 526.317798 
L 265.830096 417.118948 
L 265.955859 417.118948 
L 266.791918 526.317798 
L 266.952787 526.317798 
L 267.642963 526.317798 
L 267.660953 417.118948 
L 268.63362 522.812679 
L 268.651596 522.812679 
L 268.651596 516.5715 
L 268.669587 526.317798 
L 269.306515 526.317798 
L 269.826495 526.317798 
L 269.898407 417.118948 
L 270.826099 526.317798 
L 272.957288 526.317798 
L 273.119082 417.118948 
L 273.952981 417.118948 
L 274.430717 417.118948 
L 274.434312 526.317798 
L 275.417394 417.118948 
L 276.315693 417.118948 
L 276.33367 526.317798 
L 277.081277 526.317798 
L 277.566711 526.317798 
L 277.584685 417.118948 
L 278.563729 417.118948 
L 278.766099 417.118948 
L 278.784057 526.317798 
L 279.763017 417.118948 
L 280.896626 417.118948 
L 280.914598 526.317798 
L 281.888122 417.118948 
L 283.239173 417.118948 
L 283.249965 526.317798 
L 284.238664 417.118948 
L 285.755383 417.118948 
L 285.76259 526.317798 
L 286.741993 417.118948 
L 287.70704 417.118948 
L 287.735522 526.317798 
L 288.699483 526.317798 
L 289.543553 526.317798 
L 289.579488 417.118948 
L 290.538206 417.118948 
L 290.852254 417.118948 
L 290.859428 526.317798 
L 291.843088 417.118948 
L 292.968783 417.118948 
L 292.990344 526.317798 
L 293.962208 417.118948 
L 295.689427 417.118948 
L 295.700225 526.317798 
L 296.681782 417.118948 
L 298.334178 417.118948 
L 298.348544 526.317798 
L 299.320657 417.118948 
L 301.868817 417.118948 
L 301.879578 526.317798 
L 302.862443 417.118948 
L 305.904984 417.118948 
L 305.915754 526.317798 
L 306.893952 417.118948 
L 307.376371 417.118948 
L 307.771295 526.317798 
L 308.364523 417.118948 
L 310.388932 417.118948 
L 310.399913 526.317798 
L 311.386978 417.118948 
L 313.067958 417.118948 
L 313.082343 526.317798 
L 313.838736 526.317798 
L 314.324173 526.317798 
L 314.360126 417.118948 
L 315.320174 417.118948 
L 316.008137 417.118948 
L 316.108124 526.317798 
L 317.003156 526.317798 
L 317.163679 526.317798 
L 317.28399 417.118948 
L 318.146452 417.118948 
L 318.749054 417.118948 
L 318.76842 526.317798 
L 319.748686 526.317798 
L 319.800521 526.317798 
L 319.818498 417.118948 
L 320.793541 417.118948 
L 321.112478 417.118948 
L 321.121075 526.317798 
L 322.06437 526.317798 
L 322.227581 526.317798 
L 322.245563 417.118948 
L 323.214075 417.118948 
L 323.409518 417.118948 
L 323.43107 526.317798 
L 324.399978 468.988402 
L 324.417955 468.988402 
L 324.417955 417.118948 
L 325.413915 417.118948 
L 325.534815 417.118948 
L 325.545633 526.317798 
L 326.524357 417.118948 
L 327.484657 417.118948 
L 327.615284 526.317798 
L 328.472738 468.988402 
L 328.490714 468.988402 
L 328.490714 417.118948 
L 329.4777 417.118948 
L 329.56272 417.118948 
L 329.58788 526.317798 
L 330.560921 417.118948 
L 331.458723 417.118948 
L 331.478675 526.317798 
L 332.447056 417.118948 
L 332.646445 417.118948 
L 332.662941 526.317798 
L 333.638856 526.317798 
L 334.397686 526.317798 
L 334.415662 417.118948 
L 335.390208 466.750098 
L 335.407639 466.750098 
L 335.477079 417.118948 
L 335.571432 526.317798 
L 336.404924 526.317798 
L 336.488642 526.317798 
L 336.488642 493.558143 
L 337.476087 526.317798 
L 337.579024 526.317798 
L 337.697177 417.118948 
L 338.565313 526.317798 
L 338.610222 526.317798 
L 338.935324 464.600246 
L 339.580108 526.317798 
L 342.875341 526.317798 
L 342.964742 177.553412 
L 343.871417 526.317798 
L 343.949443 526.317798 
L 344.093149 468.988402 
L 344.938049 526.317798 
L 349.405888 526.317798 
L 349.423856 417.118948 
L 350.396598 526.317798 
L 350.90304 526.317798 
L 350.921016 417.118948 
L 351.899345 526.317798 
L 352.409349 526.317798 
L 352.409349 417.118948 
L 353.400421 526.317798 
L 354.052989 526.317798 
L 354.070966 417.118948 
L 355.039558 526.317798 
L 355.764467 526.317798 
L 355.782441 417.118948 
L 356.748926 417.118948 
L 356.786425 417.118948 
L 356.793606 526.317798 
L 357.780165 417.118948 
L 358.844277 417.118948 
L 358.844277 526.317798 
L 359.835959 417.118948 
L 360.976171 417.118948 
L 360.983345 526.317798 
L 361.970172 417.118948 
L 362.713836 417.118948 
L 362.72084 526.317798 
L 363.695843 526.317798 
L 364.28834 526.317798 
L 364.360236 417.118948 
L 365.287471 526.317798 
L 365.958044 526.317798 
L 365.976021 417.118948 
L 366.956066 526.317798 
L 367.473848 526.317798 
L 367.491794 417.118948 
L 368.472562 526.317798 
L 369.037298 526.317798 
L 369.055275 417.118948 
L 370.023788 526.317798 
L 370.617096 526.317798 
L 370.635095 417.118948 
L 371.614855 417.118948 
L 372.583973 417.118948 
L 372.734313 526.317798 
L 373.557625 526.317798 
L 374.486006 526.317798 
L 374.537324 417.118948 
L 375.47944 526.317798 
L 377.050605 526.317798 
L 377.068605 468.406372 
L 377.830723 526.317798 
L 379.110657 526.317798 
L 379.588637 422.391341 
L 380.108772 526.317798 
L 380.29501 526.317798 
L 380.29501 501.748057 
L 381.072923 526.317798 
L 383.614032 526.317798 
L 383.721875 417.118948 
L 384.612396 526.317798 
L 385.211061 526.317798 
L 385.229061 417.118948 
L 386.151765 526.317798 
L 391.346503 526.317798 
L 391.561631 508.66467 
L 392.341855 526.317798 
L 392.607064 526.309623 
L 393.519011 523.399422 
L 392.822802 526.317798 
L 393.590906 523.407596 
L 393.770671 523.407596 
L 393.983366 509.822719 
L 393.829448 526.317798 
L 394.767438 526.317798 
L 396.140558 526.317798 
L 396.213619 510.718399 
L 397.136344 526.317798 
L 397.369907 526.317798 
L 397.531698 520.48922 
L 398.354363 523.407596 
L 398.534128 523.407596 
L 398.63761 510.828196 
L 398.619625 526.317798 
L 399.526383 526.317798 
L 403.679049 526.317798 
L 404.131442 416.900112 
L 404.663875 416.900112 
L 418.515454 416.900112 
L 418.515454 526.317798 
L 419.498583 416.900112 
L 426.59186 416.900112 
L 426.753649 526.317798 
L 427.586641 416.900112 
L 430.110735 416.900112 
L 430.125067 526.317798 
L 431.102815 501.698819 
L 431.120792 501.698819 
L 431.174721 526.317798 
L 431.721404 161.628652 
L 431.960376 526.317798 
L 433.549787 526.317798 
L 433.567765 416.900112 
L 434.548332 416.900112 
L 436.184192 416.900112 
L 436.45332 526.317798 
L 437.173034 416.900112 
L 442.529996 416.900112 
L 442.727428 526.317798 
L 443.527963 416.900112 
L 443.827338 416.900112 
L 443.84531 526.317798 
L 444.810579 526.317798 
L 444.855038 526.317798 
L 444.872991 416.900112 
L 445.852609 419.170256 
L 445.870111 419.170256 
L 445.905376 416.900112 
L 446.856635 416.900112 
L 449.636001 416.900112 
L 449.650935 526.317798 
L 450.632728 416.900112 
L 450.934991 416.900112 
L 450.949364 526.317798 
L 451.930897 416.900112 
L 454.422024 416.900112 
L 454.436416 526.317798 
L 454.970509 526.317798 
L 458.578029 526.317798 
L 458.605375 416.900112 
L 459.575562 526.317798 
L 460.503568 526.317798 
L 460.539541 416.900112 
L 461.49972 526.317798 
L 462.123375 526.317798 
L 462.159323 416.900112 
L 462.972749 526.317798 
L 464.686879 526.317798 
L 464.722814 416.900112 
L 465.67741 416.900112 
L 468.104178 416.900112 
L 468.354102 526.317798 
L 469.1009 416.900112 
L 469.166242 416.900112 
L 469.191295 526.317798 
L 470.161467 487.074598 
L 470.17945 487.074598 
L 470.225077 518.608392 
L 470.523204 416.900112 
L 471.168687 416.900112 
L 473.57787 416.900112 
L 473.601001 526.317798 
L 474.542641 526.317798 
L 474.700877 526.317798 
L 474.718877 416.900112 
L 475.686388 416.900112 
L 477.537768 417.657283 
L 478.444478 526.317798 
L 477.915992 416.900112 
L 478.530449 526.317798 
L 479.260199 526.317798 
L 479.27817 416.900112 
L 480.245946 416.900112 
L 480.619725 416.900112 
L 480.630602 526.317798 
L 481.613664 416.900112 
L 482.715219 416.900112 
L 482.733188 526.317798 
L 483.271642 526.317798 
L 485.49267 526.317798 
L 485.585499 416.900112 
L 486.490821 416.900112 
L 486.549076 416.900112 
L 486.559853 526.317798 
L 487.543809 416.900112 
L 487.579862 416.900112 
L 487.579862 526.317798 
L 488.57719 526.317798 
L 489.370335 526.317798 
L 489.422653 513.85113 
L 489.960969 526.317798 
L 491.6312 526.317798 
L 491.90259 416.900112 
L 492.625262 416.900112 
L 493.189689 416.900112 
L 493.211256 526.317798 
L 494.183234 416.900112 
L 494.943731 416.900112 
L 494.961693 526.317798 
L 495.709925 526.317798 
L 496.196178 526.317798 
L 496.214144 416.900112 
L 497.19171 416.900112 
L 497.366385 416.900112 
L 497.380767 526.317798 
L 498.365381 416.900112 
L 499.453527 416.900112 
L 499.467871 526.317798 
L 500.444574 416.900112 
L 501.755404 416.900112 
L 501.76617 526.317798 
L 502.740795 416.900112 
L 504.234008 416.900112 
L 504.259163 526.317798 
L 505.226862 416.900112 
L 506.089079 416.900112 
L 506.11916 526.317798 
L 507.081248 526.317798 
L 507.941207 526.317798 
L 507.95917 416.900112 
L 508.925629 416.900112 
L 509.177355 416.900112 
L 509.180945 526.317798 
L 510.172085 416.900112 
L 511.269916 416.900112 
L 511.287872 526.317798 
L 512.269424 416.900112 
L 513.913343 416.900112 
L 513.934921 526.317798 
L 514.907261 416.900112 
L 516.516697 416.900112 
L 516.531073 526.317798 
L 517.50813 416.900112 
L 520.009621 416.900112 
L 520.020416 526.317798 
L 521.005655 416.900112 
L 523.983876 416.900112 
L 524.005468 526.317798 
L 524.981626 416.900112 
L 525.419623 416.900112 
L 525.872081 526.317798 
L 526.411379 416.900112 
L 528.395909 416.900112 
L 528.403098 526.317798 
L 529.391234 416.900112 
L 531.079497 416.900112 
L 531.335262 526.317798 
L 531.85378 526.317798 
L 532.339251 526.317798 
L 532.375204 416.900112 
L 533.334769 416.900112 
L 534.005359 416.900112 
L 534.119257 526.317798 
L 534.990622 526.317798 
L 535.184795 526.317798 
L 535.299328 416.900112 
L 536.173494 416.900112 
L 536.76192 416.900112 
L 536.780677 526.317798 
L 537.758445 526.317798 
L 537.817116 526.317798 
L 537.835092 416.900112 
L 538.810181 416.900112 
L 539.129099 416.900112 
L 539.138869 526.317798 
L 540.08534 526.317798 
L 540.24504 526.317798 
L 540.263022 416.900112 
L 541.229379 416.900112 
L 541.424991 416.900112 
L 541.439379 526.317798 
L 542.418663 477.079839 
L 542.43664 477.079839 
L 542.43664 416.900112 
L 543.43246 416.900112 
L 543.545559 416.900112 
L 543.563544 526.317798 
L 544.544168 416.900112 
L 545.506759 416.900112 
L 545.529087 526.317798 
L 546.494405 477.079839 
L 546.512381 477.079839 
L 546.512381 416.900112 
L 547.499323 416.900112 
L 547.595377 416.900112 
L 547.609728 526.317798 
L 548.586151 416.900112 
L 549.480877 416.900112 
L 549.498052 526.317798 
L 550.472871 416.900112 
L 550.672136 416.900112 
L 550.688609 526.317798 
L 551.665457 526.317798 
L 552.427656 526.317798 
L 552.44561 416.900112 
L 553.420271 474.046781 
L 553.437686 474.046781 
L 553.524427 416.900112 
L 553.616277 526.317798 
L 554.436051 526.317798 
L 554.51977 526.317798 
L 554.51977 493.492492 
L 555.517006 526.317798 
L 555.624811 526.317798 
L 555.766284 416.900112 
L 556.623261 526.317798 
L 556.704806 526.317798 
L 556.704806 477.988553 
L 557.616084 526.317798 
L 560.889792 526.317798 
L 560.979194 161.628652 
L 561.885811 526.317798 
L 561.963837 526.317798 
L 562.107542 468.873513 
L 562.952442 526.317798 
L 567.375215 526.317798 
L 567.393179 416.900112 
L 568.369195 526.317798 
L 568.827561 526.317798 
L 568.845538 416.900112 
L 569.825666 526.317798 
L 570.282037 526.317798 
L 570.300005 416.900112 
L 571.279117 526.317798 
L 571.832498 526.317798 
L 571.850475 416.900112 
L 572.825635 526.317798 
L 573.424888 526.317798 
L 573.442887 416.900112 
L 574.422654 526.317798 
L 575.188151 526.317798 
L 575.206127 416.900112 
L 576.173858 416.900112 
L 576.248695 416.900112 
L 576.266678 526.317798 
L 577.23396 416.900112 
L 578.224766 417.338604 
L 578.241545 526.317798 
L 579.096894 416.900112 
L 579.221952 416.900112 
L 580.373382 416.900112 
L 580.440994 526.317798 
L 581.357345 477.860535 
L 581.375321 477.860535 
L 581.402504 526.317798 
L 581.750065 416.900112 
L 582.358901 416.900112 
L 582.513538 416.900112 
L 582.527631 526.317798 
L 583.511084 416.900112 
L 584.038044 416.900112 
L 584.059612 526.317798 
L 585.036383 526.317798 
L 585.132945 526.317798 
L 585.309782 416.900112 
L 586.130981 526.317798 
L 586.418923 526.317798 
L 586.4369 416.900112 
L 587.416159 526.317798 
L 587.893771 526.317798 
L 587.911764 416.900112 
L 588.885038 526.317798 
L 589.506709 526.317798 
L 589.506709 468.873513 
L 590.502329 526.317798 
L 595.052102 526.317798 
L 595.607461 416.900112 
L 596.047254 416.900112 
L 596.686915 416.900112 
L 596.701288 526.317798 
L 597.67845 526.317798 
L 598.299448 526.317798 
L 598.299448 480.109342 
L 598.902243 526.317798 
L 600.548751 526.317798 
L 600.635561 416.900112 
L 601.531633 520.51505 
L 601.567581 520.457606 
L 601.567581 526.317798 
L 602.355149 416.900112 
L 602.560433 416.900112 
L 602.826903 416.900112 
L 602.834106 526.317798 
L 603.819703 526.317798 
L 603.977938 526.317798 
L 604.013886 416.900112 
L 604.85113 526.317798 
L 609.142988 526.317798 
L 609.870208 504.783166 
L 610.139639 523.43694 
L 610.265482 523.395908 
L 610.265482 526.317798 
L 611.101586 523.387702 
L 611.263377 526.317798 
L 611.814536 526.317798 
L 612.402302 503.718669 
L 612.810429 520.474018 
L 612.846377 520.51505 
L 612.882325 526.317798 
L 613.828577 526.317798 
L 614.082339 526.317798 
L 614.67098 503.284007 
L 615.066755 523.416424 
L 615.174598 523.395908 
L 615.174598 526.317798 
L 615.819868 520.474018 
L 616.161423 526.317798 
L 616.703959 526.317798 
L 617.278408 504.57541 
L 617.699939 520.556095 
L 617.77186 520.51505 
L 617.789808 526.317798 
L 618.737743 526.317798 
L 622.650789 526.317798 
L 623.103183 416.900112 
L 623.635616 416.900112 
L 637.487195 416.900112 
L 637.487195 526.317798 
L 638.470323 416.900112 
L 645.5636 416.900112 
L 645.72539 526.317798 
L 646.558382 416.900112 
L 649.082476 416.900112 
L 649.096808 526.317798 
L 650.074556 501.698819 
L 650.092533 501.698819 
L 650.146462 526.317798 
L 650.693145 161.628652 
L 650.932117 526.317798 
L 652.521528 526.317798 
L 652.539506 416.900112 
L 653.520073 416.900112 
L 655.155933 416.900112 
L 655.425061 526.317798 
L 656.144774 416.900112 
L 661.501737 416.900112 
L 661.699169 526.317798 
L 662.499704 416.900112 
L 662.799079 416.900112 
L 662.817051 526.317798 
L 663.78232 526.317798 
L 663.826779 526.317798 
L 663.844732 416.900112 
L 664.82435 419.170256 
L 664.841852 419.170256 
L 664.877117 416.900112 
L 665.828376 416.900112 
L 668.54033 416.900112 
L 668.554679 526.317798 
L 669.535262 416.900112 
L 669.870251 416.900112 
L 669.884347 526.317798 
L 670.864646 416.900112 
L 673.442657 416.900112 
L 673.457064 526.317798 
L 673.998759 526.317798 
L 677.654855 526.317798 
L 677.672854 416.900112 
L 678.640245 526.317798 
L 679.511083 526.317798 
L 679.529031 416.900112 
L 680.507464 526.317798 
L 681.006948 526.317798 
L 681.024948 416.900112 
L 681.683422 526.317798 
L 682.805757 526.317798 
L 683.403013 416.900112 
L 683.803771 416.900112 
L 684.397708 416.900112 
L 684.397708 526.317798 
L 685.388051 416.900112 
L 685.866111 416.900112 
L 685.880505 526.317798 
L 686.29539 526.317798 
L 687.674997 526.317798 
L 687.692945 416.900112 
L 688.668606 526.317798 
L 689.493609 526.317798 
L 689.529556 416.900112 
L 690.493304 526.317798 
L 690.954778 526.317798 
L 690.972777 416.900112 
L 691.620751 526.317798 
L 692.739934 526.317798 
L 692.822987 416.900112 
L 693.730905 416.900112 
L 693.756701 416.900112 
L 693.781839 526.317798 
L 694.742537 416.900112 
L 695.208621 416.900112 
L 695.219417 526.317798 
L 696.191733 526.317798 
L 696.324444 526.317798 
L 696.342407 416.900112 
L 697.324235 526.317798 
L 697.796734 526.317798 
L 697.81471 416.900112 
L 698.790713 526.317798 
L 699.222662 526.317798 
L 699.240643 416.900112 
L 700.222115 526.317798 
L 700.652282 526.317798 
L 700.670258 416.900112 
L 701.64834 526.317798 
L 702.082845 526.317798 
L 702.100822 416.900112 
L 703.080252 526.317798 
L 703.666011 526.317798 
L 703.683988 416.900112 
L 704.655771 526.317798 
L 705.33007 526.317798 
L 705.348069 416.900112 
L 706.329928 526.317798 
L 706.333375 526.317798 
L 707.192221 416.900112 
L 707.330717 416.900112 
L 708.305458 416.900112 
L 708.316263 526.317798 
L 709.301463 416.900112 
L 710.38686 416.900112 
L 710.4073 526.317798 
L 711.377089 416.900112 
L 711.85815 416.900112 
L 711.88233 526.317798 
L 712.857776 526.317798 
L 713.606795 526.317798 
L 713.624758 416.900112 
L 714.600412 526.317798 
L 715.016438 526.317798 
L 715.034414 416.900112 
L 716.012301 526.317798 
L 716.367655 526.317798 
L 716.385629 416.900112 
L 717.366005 526.317798 
L 717.782027 526.317798 
L 717.800004 416.900112 
L 718.780877 526.317798 
L 719.208084 526.317798 
L 719.226068 416.900112 
L 720.200628 526.317798 
L 720.774497 526.317798 
L 720.792473 416.900112 
L 721.769807 526.317798 
L 722.467035 526.317798 
L 722.478018 416.900112 
L 723.466083 467.232248 
L 723.476812 466.505167 
L 723.48397 526.317798 
L 724.342936 416.900112 
L 724.466706 416.900112 
L 725.532418 416.900112 
L 725.557564 526.317798 
L 726.51992 416.900112 
L 727.713596 416.900112 
L 727.730456 526.317798 
L 728.700236 416.900112 
L 730.281596 416.900112 
L 730.299553 526.317798 
L 731.271208 416.900112 
L 732.998353 416.900112 
L 733.009147 526.317798 
L 733.995886 416.900112 
L 736.282787 416.900112 
L 736.304332 526.317798 
L 737.275316 416.900112 
L 738.189143 416.900112 
L 738.196338 526.317798 
L 739.184484 416.900112 
L 739.758301 416.900112 
L 739.776762 526.317798 
L 740.751932 416.900112 
L 742.133539 416.900112 
L 742.137134 526.317798 
L 742.521483 526.317798 
L 743.424546 526.317798 
L 743.460519 416.900112 
L 744.420487 416.900112 
L 744.729075 416.900112 
L 744.736274 526.317798 
L 745.719244 416.900112 
L 746.984293 416.900112 
L 747.005878 526.317798 
L 747.970957 416.900112 
L 749.411042 416.900112 
L 749.429014 526.317798 
L 750.406672 416.900112 
L 750.783033 416.900112 
L 751.311056 526.317798 
L 751.77156 445.07927 
L 751.78956 445.07927 
L 751.825507 416.900112 
L 751.890259 526.317798 
L 752.386452 526.317798 
L 753.076574 526.317798 
L 753.094547 416.900112 
L 754.068835 416.900112 
L 754.243603 416.900112 
L 754.265115 526.317798 
L 755.230152 526.317798 
L 756.115074 526.317798 
L 756.249752 416.900112 
L 757.110124 526.317798 
L 758.135088 526.317798 
L 758.313677 416.900112 
L 759.13235 526.317798 
L 761.204063 526.317798 
L 761.231628 416.900112 
L 762.200025 526.317798 
L 762.497463 526.317798 
L 762.497463 508.819284 
L 763.114298 526.317798 
L 764.841929 526.317798 
L 764.858604 416.900112 
L 765.830931 451.542299 
L 765.848778 451.542299 
L 765.920387 416.900112 
L 766.836947 416.900112 
L 767.322211 416.900112 
L 767.571858 526.317798 
L 768.31847 416.900112 
L 768.367563 416.900112 
L 768.399099 526.317798 
L 769.354334 474.724897 
L 769.372287 474.724897 
L 769.435884 510.359967 
L 769.733982 416.900112 
L 770.361462 416.900112 
L 770.75696 416.900112 
L 770.972627 526.317798 
L 771.748287 526.317798 
L 772.411581 526.317798 
L 772.411581 416.900112 
L 773.399928 416.900112 
L 773.687345 417.882136 
L 774.602169 526.317798 
L 774.083127 416.900112 
L 774.684296 526.317798 
L 775.414023 526.317798 
L 775.432012 416.900112 
L 776.399803 416.900112 
L 776.761216 416.900112 
L 777.065268 526.317798 
L 777.757757 526.317798 
L 778.666154 526.317798 
L 778.750701 416.900112 
L 779.657721 416.900112 
L 779.714337 416.900112 
L 779.725114 526.317798 
L 780.709038 416.900112 
L 780.745091 416.900112 
L 780.745091 526.317798 
L 781.738519 526.317798 
L 782.498822 526.317798 
L 782.550947 513.884338 
L 783.184913 526.317798 
L 786.644946 526.317798 
L 786.662907 416.900112 
L 787.640028 416.900112 
L 788.198234 416.900112 
L 788.220029 526.317798 
L 789.187565 416.900112 
L 790.766448 416.900112 
L 790.777244 526.317798 
L 791.759271 416.900112 
L 793.367296 416.900112 
L 793.388726 526.317798 
L 794.363235 416.900112 
L 796.018678 416.900112 
L 796.04651 526.317798 
L 797.006087 454.514357 
L 797.024064 454.514357 
L 797.024064 416.900112 
L 797.107522 526.317798 
L 798.01128 416.900112 
L 798.768194 416.900112 
L 798.785846 526.317798 
L 799.763038 416.900112 
L 800.947003 416.900112 
L 800.947003 526.317798 
L 801.832574 526.317798 
L 802.430051 526.317798 
L 802.47868 416.900112 
L 803.427068 416.900112 
L 803.639261 416.900112 
L 803.660554 526.317798 
L 804.6278 416.900112 
L 805.636795 416.900112 
L 805.654658 526.317798 
L 806.630002 416.900112 
L 807.633853 416.900112 
L 807.654876 526.317798 
L 808.633838 416.900112 
L 809.63752 416.900112 
L 809.651886 526.317798 
L 810.626213 416.900112 
L 810.766562 416.900112 
L 811.591153 526.317798 
L 811.756471 526.317798 
L 812.494785 526.317798 
L 812.512762 416.900112 
L 813.491096 416.900112 
L 813.667011 416.900112 
L 813.677816 526.317798 
L 814.664101 526.317798 
L 815.55523 526.317798 
L 815.692571 416.900112 
L 816.549307 526.317798 
L 816.625241 526.317798 
L 817.250493 468.873513 
L 817.610024 468.873513 
L 817.735861 468.873513 
L 818.023486 526.317798 
L 818.672558 161.628652 
L 818.702521 161.628652 
L 818.826015 161.628652 
L 818.843159 526.317798 
L 819.203486 526.317798 
L 822.982625 526.317798 
L 823.036518 444.907484 
L 823.56825 526.317798 
L 824.353702 526.317798 
L 824.389649 468.010481 
L 825.300845 526.317798 
L 835.874257 526.317798 
L 836.598499 502.259721 
L 836.870441 523.43694 
L 837.032231 523.404114 
L 837.032231 526.317798 
L 837.6852 523.387702 
L 838.02678 526.317798 
L 838.608523 526.317798 
L 839.226143 500.79626 
L 839.599122 520.51505 
L 839.671018 520.51505 
L 839.724965 526.317798 
L 840.329104 520.465812 
L 840.659068 526.317798 
L 840.938055 526.317798 
L 841.502865 501.621816 
L 841.932812 523.416424 
L 842.05863 523.428733 
L 842.05863 526.317798 
L 842.669185 520.474018 
L 843.046713 526.317798 
L 843.629387 526.317798 
L 844.14758 499.860738 
L 844.618454 520.51505 
L 844.708349 520.51505 
L 844.726297 526.317798 
L 845.707553 526.317798 
L 849.919196 526.317798 
L 850.37159 489.626401 
L 850.904022 489.626401 
L 864.755601 489.626401 
L 864.755601 526.317798 
L 865.73873 489.626401 
L 872.849983 490.543686 
L 872.993796 526.317798 
L 873.396064 489.626401 
L 873.844752 489.626401 
L 876.350882 489.626401 
L 876.365214 526.317798 
L 877.342962 518.062234 
L 877.360939 518.062234 
L 877.414869 526.317798 
L 877.961551 404.025371 
L 878.200523 526.317798 
L 879.789935 526.317798 
L 879.807912 489.626401 
L 880.788479 489.626401 
L 882.442295 490.250797 
L 882.693467 526.317798 
L 883.054475 489.626401 
L 883.43116 489.626401 
L 888.770144 489.626401 
L 888.967575 526.317798 
L 889.76811 489.626401 
L 890.067486 489.626401 
L 890.085457 526.317798 
L 891.050726 526.317798 
L 891.095185 526.317798 
L 891.113139 489.626401 
L 892.092757 490.387655 
L 895.792598 490.450856 
L 895.803383 526.317798 
L 896.143078 489.626401 
L 896.788087 489.626401 
L 897.127323 490.35234 
L 897.138096 526.317798 
L 897.551029 489.626401 
L 898.109926 491.883013 
L 898.127423 491.883013 
L 898.145032 489.626401 
L 899.113922 489.626401 
L 900.724615 489.626401 
L 900.738974 526.317798 
L 901.287111 526.317798 
L 904.957728 526.317798 
L 904.975677 489.626401 
L 905.952215 526.317798 
L 906.78525 526.317798 
L 906.821223 489.626401 
L 907.7823 526.317798 
L 908.251898 526.317798 
L 908.269872 489.626401 
L 908.896455 526.317798 
L 910.027601 526.317798 
L 910.648043 489.626401 
L 911.024467 489.626401 
L 911.611113 489.626401 
L 911.618309 526.317798 
L 912.599347 489.626401 
L 913.094079 489.626401 
L 913.119231 526.317798 
L 913.529322 526.317798 
L 914.928935 526.317798 
L 914.946909 489.626401 
L 915.912092 526.317798 
L 916.743327 526.317798 
L 916.779275 489.626401 
L 917.736601 526.317798 
L 918.174428 526.317798 
L 918.192427 489.626401 
L 918.87282 526.317798 
L 920.000295 526.317798 
L 920.084249 489.626401 
L 920.997391 489.626401 
L 921.004565 489.626401 
L 921.033345 526.317798 
L 921.990849 489.626401 
L 922.43715 489.626401 
L 922.455872 526.317798 
L 923.426106 526.317798 
L 923.559304 526.317798 
L 923.577278 489.626401 
L 924.55876 526.317798 
L 925.017113 526.317798 
L 925.03509 489.626401 
L 926.017062 526.317798 
L 926.419723 526.317798 
L 926.43768 489.626401 
L 927.41796 526.317798 
L 927.83399 526.317798 
L 927.851966 489.626401 
L 928.832889 526.317798 
L 929.244891 526.317798 
L 929.262872 489.626401 
L 930.240603 526.317798 
L 930.774026 526.317798 
L 930.792003 489.626401 
L 931.773459 526.317798 
L 932.401515 526.317798 
L 932.419489 489.626401 
L 933.398788 523.565943 
L 933.416765 523.565943 
L 933.416765 526.317798 
L 934.236174 489.626401 
L 934.404109 489.626401 
L 935.321635 489.626401 
L 935.332443 526.317798 
L 936.3157 489.626401 
L 937.374552 489.626401 
L 937.381764 526.317798 
L 938.364456 489.626401 
L 938.835705 489.626401 
L 938.858127 526.317798 
L 939.834839 526.317798 
L 940.544266 526.317798 
L 940.562261 489.626401 
L 941.537425 526.317798 
L 941.946397 526.317798 
L 941.964373 489.626401 
L 942.945239 526.317798 
L 943.290295 526.317798 
L 943.308269 489.626401 
L 944.285219 526.317798 
L 944.654037 526.317798 
L 944.672014 489.626401 
L 945.65239 526.317798 
L 946.048843 526.317798 
L 946.056839 489.626401 
L 947.04424 526.317798 
L 947.577672 526.317798 
L 947.595648 489.626401 
L 948.571682 526.317798 
L 949.214616 526.317798 
L 949.232615 489.626401 
L 950.212991 523.565943 
L 950.230967 523.565943 
L 950.230967 526.317798 
L 951.020555 489.626401 
L 951.218728 489.626401 
L 952.155866 489.626401 
L 952.173812 526.317798 
L 953.144307 489.626401 
L 954.274877 489.626401 
L 954.274877 526.317798 
L 955.26178 489.626401 
L 956.749381 489.626401 
L 956.778129 526.317798 
L 957.739007 489.626401 
L 959.311655 489.626401 
L 959.331519 526.317798 
L 960.302312 489.626401 
L 962.469268 489.626401 
L 962.498006 526.317798 
L 963.456832 489.626401 
L 964.383705 489.906998 
L 964.383705 499.578942 
L 964.401656 489.626401 
L 965.376745 489.626401 
L 965.824485 489.626401 
L 965.843724 526.317798 
L 966.815008 489.626401 
L 968.180497 489.626401 
L 968.191284 526.317798 
L 969.178217 489.626401 
L 969.813682 489.626401 
L 969.828041 526.317798 
L 970.804585 489.626401 
L 971.957325 489.626401 
L 971.957325 526.317798 
L 972.947027 489.626401 
L 974.401634 489.626401 
L 974.415999 526.317798 
L 975.397807 489.626401 
L 975.433731 489.626401 
L 975.437859 526.317798 
L 976.425674 489.626401 
L 976.894375 489.626401 
L 976.901541 526.317798 
L 977.307348 526.317798 
L 978.532618 526.317798 
L 979.406945 489.626401 
L 979.526471 522.689872 
L 979.541885 522.689872 
L 979.541885 489.626401 
L 979.672972 525.421261 
L 980.541727 489.626401 
L 980.548908 489.626401 
L 980.559693 526.317798 
L 981.548644 526.317798 
L 981.987607 526.317798 
L 982.150764 489.626401 
L 982.980499 526.317798 
L 983.025422 526.317798 
L 983.043424 506.462982 
L 984.016026 519.096344 
L 984.033508 519.096344 
L 984.155124 489.626401 
L 984.558127 526.317798 
L 985.020456 526.317798 
L 987.0313 526.317798 
L 987.067222 489.626401 
L 988.025752 526.317798 
L 988.286596 526.317798 
L 988.31297 514.642687 
L 988.984445 526.317798 
L 990.689583 526.317798 
L 990.70756 489.626401 
L 991.679966 526.317798 
L 995.241775 526.317798 
L 995.259747 489.626401 
L 996.228489 490.148152 
L 997.485327 490.543686 
L 997.62914 526.317798 
L 998.32445 489.626401 
L 998.469913 489.626401 
L 998.559808 489.626401 
L 998.584965 526.317798 
L 999.558266 525.84458 
L 999.573183 525.84458 
L 999.908851 489.626401 
L 999.588312 526.317798 
L 1000.572844 489.626401 
L 1000.968141 490.157967 
L 1001.938767 526.317798 
L 1001.386857 489.626401 
L 1001.967544 526.317798 
L 1002.736054 526.317798 
L 1002.75403 489.626401 
L 1003.724081 489.626401 
L 1004.316731 489.626401 
L 1004.711977 526.317798 
L 1005.313052 526.317798 
L 1005.722362 526.317798 
L 1005.932962 489.626401 
L 1006.719403 504.037497 
L 1006.736741 504.037497 
L 1007.381835 526.317798 
L 1006.901177 489.626401 
L 1007.731143 526.317798 
L 1008.245307 526.317798 
L 1008.263267 489.626401 
L 1009.230063 520.883481 
L 1009.248054 520.883481 
L 1009.261458 526.317798 
L 1009.95235 526.317798 
L 1010.471194 526.317798 
L 1010.525109 489.626401 
L 1011.467777 526.317798 
L 1012.157657 526.317798 
L 1012.193614 524.171865 
L 1012.789572 526.317798 
L 1014.813404 526.317798 
L 1014.849348 489.626401 
L 1015.80202 489.626401 
L 1016.214265 489.626401 
L 1016.228614 526.317798 
L 1017.200324 515.310379 
L 1017.2183 515.310379 
L 1017.290207 526.317798 
L 1017.939279 404.025371 
L 1018.176006 498.422987 
L 1018.238653 498.422987 
L 1018.238653 526.317798 
L 1018.552058 526.317798 
L 1019.837532 526.317798 
L 1019.837532 489.626401 
L 1020.823191 489.626401 
L 1021.045664 489.626401 
L 1021.049269 526.317798 
L 1022.045657 489.626401 
L 1023.235434 489.626401 
L 1023.235434 526.317798 
L 1024.222062 489.626401 
L 1025.162268 489.626401 
L 1025.176652 526.317798 
L 1026.159114 489.626401 
L 1027.227458 490.418568 
L 1027.231059 526.317798 
L 1028.132728 489.626401 
L 1028.218313 489.626401 
L 1029.163676 489.626401 
L 1029.185245 526.317798 
L 1030.156441 489.626401 
L 1031.131059 490.543686 
L 1031.141715 526.317798 
L 1032.066846 489.626401 
L 1032.130632 489.626401 
L 1033.141271 489.626401 
L 1033.141271 526.317798 
L 1034.138513 489.626401 
L 1035.096346 489.626401 
L 1035.117789 526.317798 
L 1036.092322 489.626401 
L 1037.261084 489.626401 
L 1037.261084 526.317798 
L 1038.254016 489.626401 
L 1038.636982 489.626401 
L 1039.410277 526.317798 
L 1039.62956 526.317798 
L 1040.313903 526.317798 
L 1040.331879 489.626401 
L 1041.310023 489.626401 
L 1041.737857 489.626401 
L 1041.762972 526.317798 
L 1042.72682 489.626401 
L 1042.928731 489.626401 
L 1043.047935 526.317798 
L 1043.927388 497.816838 
L 1043.944839 497.816838 
L 1043.962284 489.626401 
L 1044.16644 526.317798 
L 1044.91181 526.317798 
L 1045.070044 526.317798 
L 1045.088021 489.626401 
L 1046.068766 526.317798 
L 1046.533033 526.317798 
L 1046.533033 512.558524 
L 1047.35687 526.317798 
L 1048.895469 526.317798 
L 1048.913444 489.626401 
L 1049.811716 526.317798 
L 1050.783948 526.317798 
L 1050.819902 489.626401 
L 1051.768859 489.626401 
L 1051.817448 489.626401 
L 1051.824608 526.317798 
L 1052.804102 489.626401 
L 1052.818495 489.626401 
L 1053.249183 526.317798 
L 1053.817323 526.317798 
L 1054.256709 526.317798 
L 1054.310628 491.021224 
L 1055.138018 526.317798 
L 1063.012515 526.317798 
L 1063.012515 504.434261 
L 1064.416487 504.434261 
L 1064.596959 501.941969 
L 1065.529652 501.941969 
L 1065.529652 416.900112 
L 1067.472624 417.26192 
L 1067.472624 526.317798 
L 1068.386656 491.98496 
L 1068.478215 491.98496 
L 1069.302934 418.869631 
L 1069.487017 418.869631 
L 1069.846549 526.317798 
L 1079.427802 526.317798 
L 1079.427802 506.257889 
L 1080.831774 506.257889 
L 1081.012247 501.941969 
L 1081.94494 501.941969 
L 1081.94494 416.900112 
L 1083.887911 416.936099 
L 1083.887911 526.317798 
L 1084.802634 491.948487 
L 1084.894151 491.948487 
L 1085.718439 418.845316 
L 1085.902295 418.845316 
L 1086.261827 526.317798 
L 1095.84308 526.317798 
L 1095.84308 506.257889 
L 1097.247053 506.257889 
L 1097.427525 501.941969 
L 1098.360218 501.941969 
L 1098.360218 416.900112 
L 1100.303189 417.047705 
L 1100.667437 502.987516 
L 1101.217876 491.948487 
L 1101.309434 491.948487 
L 1102.133646 418.845316 
L 1102.317571 418.845316 
L 1102.677103 526.317798 
L 1112.258356 526.317798 
L 1112.258356 506.257889 
L 1113.662328 506.257889 
L 1113.662328 502.002757 
L 1113.8428 526.256951 
L 1114.775493 526.256951 
L 1114.775493 416.900112 
L 1116.718465 417.26192 
L 1116.718465 526.317798 
L 1117.633187 491.948487 
L 1117.724705 491.948487 
L 1118.548993 418.845316 
L 1118.732849 418.845316 
L 1119.092381 526.317798 
L 1128.673634 526.317798 
L 1128.673634 515.376029 
L 1130.258079 515.376029 
L 1131.190772 416.900112 
L 1133.133743 416.936099 
L 1133.133743 526.317798 
L 1134.048466 491.948487 
L 1134.139983 491.948487 
L 1134.780524 436.947864 
L 1134.964271 508.21525 
L 1135.507659 507.619531 
L 1135.507659 526.317798 
L 1147.60605 526.258517 
L 1147.60605 443.401988 
L 1149.258387 443.401988 
L 1149.549021 526.317798 
L 1149.547714 443.022436 
L 1150.188926 526.293356 
L 1150.28059 526.293356 
L 1151.195766 510.042829 
L 1151.379478 510.042829 
L 1151.563403 508.086988 
L 1151.922935 526.317798 
L 1171.622678 526.317798 
L 1171.622678 526.317798 
" clip-path="url(#p16420685cc)" style="fill: none; stroke: #000000; stroke-width: 0.8; stroke-linecap: square"/>
   </g>
  </g>
  <g id="axes_2">
   <g id="matplotlib.axis_3">
    <g id="xtick_8">
     <g id="line2d_26">
      <defs>
       <path id="m6106ab63c8" d="M 0 0 
L 0 -3.5 
" style="stroke: #000000; stroke-width: 0.8"/>
      </defs>
      <g>
       <use xlink:href="#m6106ab63c8" x="164.253739" y="83.220486" style="stroke: #000000; stroke-width: 0.8"/>
      </g>
     </g>
     <g id="text_16">
      <!-- N140 -->
      <g transform="translate(168.142826 75.513379) rotate(-45) scale(0.08 -0.08)">
       <defs>
        <path id="SimHei-4e" d="M 2850 125 
L 2225 125 
L 850 3225 
L 825 3225 
L 825 125 
L 250 125 
L 250 4400 
L 875 4400 
L 2250 1300 
L 2275 1300 
L 2275 4400 
L 2850 4400 
L 2850 125 
z
" transform="scale(0.015625)"/>
       </defs>
       <use xlink:href="#SimHei-4e"/>
       <use xlink:href="#SimHei-31" transform="translate(50 0)"/>
       <use xlink:href="#SimHei-34" transform="translate(100 0)"/>
       <use xlink:href="#SimHei-30" transform="translate(150 0)"/>
      </g>
     </g>
    </g>
    <g id="xtick_9">
     <g id="line2d_27">
      <g>
       <use xlink:href="#m6106ab63c8" x="264.499425" y="83.220486" style="stroke: #000000; stroke-width: 0.8"/>
      </g>
     </g>
     <g id="text_17">
      <!-- N1050 -->
      <g transform="translate(268.388512 75.513379) rotate(-45) scale(0.08 -0.08)">
       <use xlink:href="#SimHei-4e"/>
       <use xlink:href="#SimHei-31" transform="translate(50 0)"/>
       <use xlink:href="#SimHei-30" transform="translate(100 0)"/>
       <use xlink:href="#SimHei-35" transform="translate(150 0)"/>
       <use xlink:href="#SimHei-30" transform="translate(200 0)"/>
      </g>
     </g>
    </g>
    <g id="xtick_10">
     <g id="line2d_28">
      <g>
       <use xlink:href="#m6106ab63c8" x="330.052394" y="83.220486" style="stroke: #000000; stroke-width: 0.8"/>
      </g>
     </g>
     <g id="text_18">
      <!-- N7090.17 -->
      <g transform="translate(333.941481 75.513379) rotate(-45) scale(0.08 -0.08)">
       <defs>
        <path id="SimHei-37" d="M 850 150 
Q 1300 2050 2425 3925 
L 275 3925 
L 275 4375 
L 2950 4375 
L 2950 3950 
Q 1775 2050 1400 150 
L 850 150 
z
" transform="scale(0.015625)"/>
        <path id="SimHei-39" d="M 800 75 
Q 1350 1000 1700 1750 
Q 1075 1650 662 1912 
Q 250 2175 162 2625 
Q 75 3075 175 3437 
Q 275 3800 487 4037 
Q 700 4275 1000 4375 
Q 1300 4475 1537 4475 
Q 1775 4475 2025 4375 
Q 2275 4275 2475 4075 
Q 2675 3875 2750 3662 
Q 2825 3450 2825 3112 
Q 2825 2775 2575 2250 
Q 2325 1725 1350 75 
L 800 75 
z
M 662 2875 
Q 700 2550 937 2337 
Q 1175 2125 1450 2150 
Q 1725 2175 1887 2300 
Q 2050 2425 2200 2725 
Q 2300 3100 2250 3362 
Q 2200 3625 1987 3800 
Q 1775 3975 1525 3975 
Q 1375 4000 1137 3900 
Q 900 3800 762 3500 
Q 625 3200 662 2875 
z
" transform="scale(0.015625)"/>
        <path id="SimHei-2e" d="M 1075 125 
L 500 125 
L 500 675 
L 1075 675 
L 1075 125 
z
" transform="scale(0.015625)"/>
       </defs>
       <use xlink:href="#SimHei-4e"/>
       <use xlink:href="#SimHei-37" transform="translate(50 0)"/>
       <use xlink:href="#SimHei-30" transform="translate(100 0)"/>
       <use xlink:href="#SimHei-39" transform="translate(150 0)"/>
       <use xlink:href="#SimHei-30" transform="translate(200 0)"/>
       <use xlink:href="#SimHei-2e" transform="translate(250 0)"/>
       <use xlink:href="#SimHei-31" transform="translate(300 0)"/>
       <use xlink:href="#SimHei-37" transform="translate(350 0)"/>
      </g>
     </g>
    </g>
    <g id="xtick_11">
     <g id="line2d_29">
      <g>
       <use xlink:href="#m6106ab63c8" x="406.713932" y="83.220486" style="stroke: #000000; stroke-width: 0.8"/>
      </g>
     </g>
     <g id="text_19">
      <!-- N2250 -->
      <g transform="translate(410.603019 75.513379) rotate(-45) scale(0.08 -0.08)">
       <use xlink:href="#SimHei-4e"/>
       <use xlink:href="#SimHei-32" transform="translate(50 0)"/>
       <use xlink:href="#SimHei-32" transform="translate(100 0)"/>
       <use xlink:href="#SimHei-35" transform="translate(150 0)"/>
       <use xlink:href="#SimHei-30" transform="translate(200 0)"/>
      </g>
     </g>
    </g>
    <g id="xtick_12">
     <g id="line2d_30">
      <g>
       <use xlink:href="#m6106ab63c8" x="485.49267" y="83.220486" style="stroke: #000000; stroke-width: 0.8"/>
      </g>
     </g>
     <g id="text_20">
      <!-- N2940 -->
      <g transform="translate(489.381758 75.513379) rotate(-45) scale(0.08 -0.08)">
       <use xlink:href="#SimHei-4e"/>
       <use xlink:href="#SimHei-32" transform="translate(50 0)"/>
       <use xlink:href="#SimHei-39" transform="translate(100 0)"/>
       <use xlink:href="#SimHei-34" transform="translate(150 0)"/>
       <use xlink:href="#SimHei-30" transform="translate(200 0)"/>
      </g>
     </g>
    </g>
    <g id="xtick_13">
     <g id="line2d_31">
      <g>
       <use xlink:href="#m6106ab63c8" x="549.993879" y="83.220486" style="stroke: #000000; stroke-width: 0.8"/>
      </g>
     </g>
     <g id="text_21">
      <!-- N8760.10 -->
      <g transform="translate(553.882966 75.513379) rotate(-45) scale(0.08 -0.08)">
       <defs>
        <path id="SimHei-38" d="M 175 1375 
Q 175 1675 325 1962 
Q 475 2250 825 2425 
Q 525 2600 425 2812 
Q 325 3025 312 3300 
Q 300 3575 387 3775 
Q 475 3975 650 4150 
Q 825 4325 1037 4387 
Q 1250 4450 1500 4450 
Q 1750 4450 1950 4400 
Q 2150 4350 2375 4187 
Q 2600 4025 2700 3725 
Q 2800 3425 2687 3025 
Q 2575 2625 2100 2400 
Q 2525 2275 2700 2012 
Q 2875 1750 2875 1375 
Q 2875 1000 2762 775 
Q 2650 550 2512 400 
Q 2375 250 2137 162 
Q 1900 75 1537 75 
Q 1175 75 912 162 
Q 650 250 475 425 
Q 300 600 237 837 
Q 175 1075 175 1375 
z
M 687 1400 
Q 675 1100 787 875 
Q 900 650 1200 587 
Q 1500 525 1825 600 
Q 2150 675 2275 950 
Q 2400 1225 2362 1500 
Q 2325 1775 2050 1962 
Q 1775 2150 1450 2125 
Q 1125 2100 912 1900 
Q 700 1700 687 1400 
z
M 775 3350 
Q 775 3100 950 2875 
Q 1125 2650 1500 2650 
Q 1875 2650 2062 2875 
Q 2250 3100 2237 3412 
Q 2225 3725 2012 3875 
Q 1800 4025 1437 4000 
Q 1075 3975 925 3787 
Q 775 3600 775 3350 
z
" transform="scale(0.015625)"/>
        <path id="SimHei-36" d="M 250 1612 
Q 275 1975 387 2225 
Q 500 2475 725 2850 
L 1750 4450 
L 2325 4450 
L 1275 2800 
Q 1950 2975 2350 2750 
Q 2750 2525 2887 2237 
Q 3025 1950 3037 1612 
Q 3050 1275 2937 950 
Q 2825 625 2537 362 
Q 2250 100 1737 75 
Q 1225 50 862 262 
Q 500 475 362 862 
Q 225 1250 250 1612 
z
M 1025 787 
Q 1250 550 1625 525 
Q 2000 500 2250 775 
Q 2500 1050 2500 1575 
Q 2500 2100 2187 2300 
Q 1875 2500 1487 2450 
Q 1100 2400 925 2075 
Q 750 1750 775 1387 
Q 800 1025 1025 787 
z
" transform="scale(0.015625)"/>
       </defs>
       <use xlink:href="#SimHei-4e"/>
       <use xlink:href="#SimHei-38" transform="translate(50 0)"/>
       <use xlink:href="#SimHei-37" transform="translate(100 0)"/>
       <use xlink:href="#SimHei-36" transform="translate(150 0)"/>
       <use xlink:href="#SimHei-30" transform="translate(200 0)"/>
       <use xlink:href="#SimHei-2e" transform="translate(250 0)"/>
       <use xlink:href="#SimHei-31" transform="translate(300 0)"/>
       <use xlink:href="#SimHei-30" transform="translate(350 0)"/>
      </g>
     </g>
    </g>
    <g id="xtick_14">
     <g id="line2d_32">
      <g>
       <use xlink:href="#m6106ab63c8" x="627.986204" y="83.220486" style="stroke: #000000; stroke-width: 0.8"/>
      </g>
     </g>
     <g id="text_22">
      <!-- N3940.2 -->
      <g transform="translate(631.875291 75.513379) rotate(-45) scale(0.08 -0.08)">
       <use xlink:href="#SimHei-4e"/>
       <use xlink:href="#SimHei-33" transform="translate(50 0)"/>
       <use xlink:href="#SimHei-39" transform="translate(100 0)"/>
       <use xlink:href="#SimHei-34" transform="translate(150 0)"/>
       <use xlink:href="#SimHei-30" transform="translate(200 0)"/>
       <use xlink:href="#SimHei-2e" transform="translate(250 0)"/>
       <use xlink:href="#SimHei-32" transform="translate(300 0)"/>
      </g>
     </g>
    </g>
    <g id="xtick_15">
     <g id="line2d_33">
      <g>
       <use xlink:href="#m6106ab63c8" x="703.313498" y="83.220486" style="stroke: #000000; stroke-width: 0.8"/>
      </g>
     </g>
     <g id="text_23">
      <!-- N2400.17 -->
      <g transform="translate(707.202585 75.513379) rotate(-45) scale(0.08 -0.08)">
       <use xlink:href="#SimHei-4e"/>
       <use xlink:href="#SimHei-32" transform="translate(50 0)"/>
       <use xlink:href="#SimHei-34" transform="translate(100 0)"/>
       <use xlink:href="#SimHei-30" transform="translate(150 0)"/>
       <use xlink:href="#SimHei-30" transform="translate(200 0)"/>
       <use xlink:href="#SimHei-2e" transform="translate(250 0)"/>
       <use xlink:href="#SimHei-31" transform="translate(300 0)"/>
       <use xlink:href="#SimHei-37" transform="translate(350 0)"/>
      </g>
     </g>
    </g>
    <g id="xtick_16">
     <g id="line2d_34">
      <g>
       <use xlink:href="#m6106ab63c8" x="766.387529" y="83.220486" style="stroke: #000000; stroke-width: 0.8"/>
      </g>
     </g>
     <g id="text_24">
      <!-- N6770 -->
      <g transform="translate(770.276616 75.513379) rotate(-45) scale(0.08 -0.08)">
       <use xlink:href="#SimHei-4e"/>
       <use xlink:href="#SimHei-36" transform="translate(50 0)"/>
       <use xlink:href="#SimHei-37" transform="translate(100 0)"/>
       <use xlink:href="#SimHei-37" transform="translate(150 0)"/>
       <use xlink:href="#SimHei-30" transform="translate(200 0)"/>
      </g>
     </g>
    </g>
    <g id="xtick_17">
     <g id="line2d_35">
      <g>
       <use xlink:href="#m6106ab63c8" x="845.873018" y="83.220486" style="stroke: #000000; stroke-width: 0.8"/>
      </g>
     </g>
     <g id="text_25">
      <!-- N3310 -->
      <g transform="translate(849.762105 75.513379) rotate(-45) scale(0.08 -0.08)">
       <use xlink:href="#SimHei-4e"/>
       <use xlink:href="#SimHei-33" transform="translate(50 0)"/>
       <use xlink:href="#SimHei-33" transform="translate(100 0)"/>
       <use xlink:href="#SimHei-31" transform="translate(150 0)"/>
       <use xlink:href="#SimHei-30" transform="translate(200 0)"/>
      </g>
     </g>
    </g>
    <g id="xtick_18">
     <g id="line2d_36">
      <g>
       <use xlink:href="#m6106ab63c8" x="926.762507" y="83.220486" style="stroke: #000000; stroke-width: 0.8"/>
      </g>
     </g>
     <g id="text_26">
      <!-- N2720 -->
      <g transform="translate(930.651594 75.513379) rotate(-45) scale(0.08 -0.08)">
       <use xlink:href="#SimHei-4e"/>
       <use xlink:href="#SimHei-32" transform="translate(50 0)"/>
       <use xlink:href="#SimHei-37" transform="translate(100 0)"/>
       <use xlink:href="#SimHei-32" transform="translate(150 0)"/>
       <use xlink:href="#SimHei-30" transform="translate(200 0)"/>
      </g>
     </g>
    </g>
    <g id="xtick_19">
     <g id="line2d_37">
      <g>
       <use xlink:href="#m6106ab63c8" x="986.971601" y="83.220486" style="stroke: #000000; stroke-width: 0.8"/>
      </g>
     </g>
     <g id="text_27">
      <!-- N6820 -->
      <g transform="translate(990.860689 75.513379) rotate(-45) scale(0.08 -0.08)">
       <use xlink:href="#SimHei-4e"/>
       <use xlink:href="#SimHei-36" transform="translate(50 0)"/>
       <use xlink:href="#SimHei-38" transform="translate(100 0)"/>
       <use xlink:href="#SimHei-32" transform="translate(150 0)"/>
       <use xlink:href="#SimHei-30" transform="translate(200 0)"/>
      </g>
     </g>
    </g>
    <g id="xtick_20">
     <g id="line2d_38">
      <g>
       <use xlink:href="#m6106ab63c8" x="1167.244881" y="83.220486" style="stroke: #000000; stroke-width: 0.8"/>
      </g>
     </g>
     <g id="text_28">
      <!-- N0 -->
      <g transform="translate(1171.133968 75.513379) rotate(-45) scale(0.08 -0.08)">
       <use xlink:href="#SimHei-4e"/>
       <use xlink:href="#SimHei-30" transform="translate(50 0)"/>
      </g>
     </g>
    </g>
    <g id="text_29">
     <!-- 指令行号 N -->
     <g transform="translate(698.3435 44.996875) scale(0.1 -0.1)">
      <defs>
       <path id="SimHei-6307" d="M 5625 2225 
Q 5600 1925 5600 1350 
L 5600 300 
Q 5600 -225 5625 -525 
L 5125 -525 
L 5125 -125 
L 3300 -125 
L 3300 -625 
L 2800 -625 
Q 2825 -300 2825 300 
L 2825 1350 
Q 2825 1925 2800 2225 
L 5625 2225 
z
M 500 25 
Q 1075 -25 1175 37 
Q 1275 100 1275 275 
L 1275 1675 
Q 1050 1600 925 1537 
Q 800 1475 475 1275 
Q 400 1525 225 1800 
Q 625 1900 825 1975 
Q 1025 2050 1275 2125 
L 1275 3300 
L 1100 3300 
Q 775 3300 450 3275 
L 450 3725 
Q 750 3700 1100 3700 
L 1275 3700 
L 1275 4450 
Q 1275 4800 1250 5125 
L 1775 5125 
Q 1750 4850 1750 4450 
L 1750 3700 
Q 2075 3700 2425 3725 
L 2425 3275 
Q 2050 3300 1750 3300 
L 1750 2325 
Q 1850 2350 2025 2425 
L 2375 2575 
Q 2350 2300 2375 2100 
Q 2225 2050 2062 1987 
Q 1900 1925 1750 1850 
L 1750 100 
Q 1725 -200 1575 -337 
Q 1425 -475 675 -525 
Q 625 -250 500 25 
z
M 3325 5025 
Q 3300 4675 3300 4125 
Q 4125 4275 4512 4412 
Q 4900 4550 5225 4725 
Q 5325 4475 5575 4250 
Q 5450 4225 5237 4175 
Q 5025 4125 4725 4050 
Q 4425 3975 4037 3887 
Q 3650 3800 3300 3725 
L 3300 3175 
Q 3275 2925 3700 2925 
L 4925 2925 
Q 5300 2925 5387 3087 
Q 5475 3250 5550 3600 
Q 5750 3400 6050 3300 
Q 5825 2725 5700 2637 
Q 5575 2550 5275 2525 
L 3350 2525 
Q 3050 2525 2937 2687 
Q 2825 2850 2825 2975 
L 2825 4125 
Q 2825 4775 2800 5025 
L 3325 5025 
z
M 5125 275 
L 5125 875 
L 3300 875 
L 3300 275 
L 5125 275 
z
M 5125 1250 
L 5125 1825 
L 3300 1825 
L 3300 1250 
L 5125 1250 
z
" transform="scale(0.015625)"/>
       <path id="SimHei-4ee4" d="M 5375 2075 
L 5375 1550 
Q 4925 1325 4450 937 
Q 3975 550 3575 125 
L 4250 -325 
Q 4050 -550 3875 -775 
Q 3100 -125 1850 425 
L 2150 875 
Q 2400 775 3125 350 
Q 3800 1025 4450 1625 
L 2025 1625 
Q 1500 1625 975 1600 
L 975 2100 
Q 1525 2075 2025 2075 
L 5375 2075 
z
M 3375 4850 
Q 4450 3550 6200 2900 
Q 5950 2625 5800 2350 
Q 4150 3150 3100 4475 
Q 2075 3125 625 2225 
Q 400 2525 200 2700 
Q 875 2975 1675 3675 
Q 2475 4375 2950 5300 
Q 3275 5175 3550 5050 
Q 3475 5000 3375 4850 
z
M 2925 3600 
Q 3175 3350 3750 2725 
L 3300 2325 
Q 3050 2700 2550 3225 
Q 2750 3375 2925 3600 
z
" transform="scale(0.015625)"/>
       <path id="SimHei-53f7" d="M 5025 4925 
Q 5000 4550 5000 4075 
Q 5000 3600 5025 3175 
L 1400 3175 
Q 1425 3525 1425 4000 
Q 1425 4500 1400 4925 
L 5025 4925 
z
M 5175 2625 
Q 5650 2625 6025 2650 
L 6025 2200 
Q 5650 2225 5175 2225 
L 2450 2225 
Q 2350 1875 2225 1450 
L 5175 1450 
Q 5100 1050 5062 775 
Q 5025 500 4950 112 
Q 4875 -275 4650 -412 
Q 4425 -550 3225 -625 
Q 3125 -350 2975 -50 
Q 3875 -75 4112 -50 
Q 4350 -25 4425 212 
Q 4500 450 4575 1025 
L 1600 1025 
Q 1825 1625 1950 2225 
L 1350 2225 
Q 825 2225 375 2200 
L 375 2650 
Q 825 2625 1350 2625 
L 5175 2625 
z
M 4525 3575 
L 4525 4525 
L 1900 4525 
L 1900 3575 
L 4525 3575 
z
" transform="scale(0.015625)"/>
      </defs>
      <use xlink:href="#SimHei-6307"/>
      <use xlink:href="#SimHei-4ee4" transform="translate(100 0)"/>
      <use xlink:href="#SimHei-884c" transform="translate(200 0)"/>
      <use xlink:href="#SimHei-53f7" transform="translate(300 0)"/>
      <use xlink:href="#SimHei-20" transform="translate(400 0)"/>
      <use xlink:href="#SimHei-4e" transform="translate(450 0)"/>
     </g>
    </g>
   </g>
   <g id="patch_7">
    <path d="M 58.48 564.610158 
L 58.48 83.220486 
" style="fill: none; stroke: #000000; stroke-width: 0.8; stroke-linejoin: miter; stroke-linecap: square"/>
   </g>
   <g id="patch_8">
    <path d="M 1388.207 564.610158 
L 1388.207 83.220486 
" style="fill: none; stroke: #000000; stroke-width: 0.8; stroke-linejoin: miter; stroke-linecap: square"/>
   </g>
   <g id="patch_9">
    <path d="M 58.48 564.610158 
L 1388.207 564.610158 
" style="fill: none; stroke: #000000; stroke-width: 0.8; stroke-linejoin: miter; stroke-linecap: square"/>
   </g>
   <g id="patch_10">
    <path d="M 58.48 83.220486 
L 1388.207 83.220486 
" style="fill: none; stroke: #000000; stroke-width: 0.8; stroke-linejoin: miter; stroke-linecap: square"/>
   </g>
  </g>
 </g>
 <defs>
  <clipPath id="p16420685cc">
   <rect x="58.48" y="83.220486" width="1329.727" height="481.389672"/>
  </clipPath>
 </defs>
</svg>
