<?xml version="1.0" encoding="utf-8" standalone="no"?>
<!DOCTYPE svg PUBLIC "-//W3C//DTD SVG 1.1//EN"
  "http://www.w3.org/Graphics/SVG/1.1/DTD/svg11.dtd">
<svg xmlns:xlink="http://www.w3.org/1999/xlink" width="1351.660938pt" height="471.853596pt" viewBox="0 0 1351.660938 471.853596" xmlns="http://www.w3.org/2000/svg" version="1.1">
 <metadata>
  <rdf:RDF xmlns:dc="http://purl.org/dc/elements/1.1/" xmlns:cc="http://creativecommons.org/ns#" xmlns:rdf="http://www.w3.org/1999/02/22-rdf-syntax-ns#">
   <cc:Work>
    <dc:type rdf:resource="http://purl.org/dc/dcmitype/StillImage"/>
    <dc:date>2025-12-27T09:59:00.354254</dc:date>
    <dc:format>image/svg+xml</dc:format>
    <dc:creator>
     <cc:Agent>
      <dc:title>Matplotlib v3.10.7, https://matplotlib.org/</dc:title>
     </cc:Agent>
    </dc:creator>
   </cc:Work>
  </rdf:RDF>
 </metadata>
 <defs>
  <style type="text/css">*{stroke-linejoin: round; stroke-linecap: butt}</style>
 </defs>
 <g id="figure_1">
  <g id="patch_1">
   <path d="M 0 471.853596 
L 1351.660938 471.853596 
L 1351.660938 -0 
L 0 -0 
z
" style="fill: #ffffff"/>
  </g>
  <g id="axes_1">
   <g id="patch_2">
    <path d="M 69.942188 430.020783 
L 1344.460938 430.020783 
L 1344.460938 83.079861 
L 69.942188 83.079861 
z
" style="fill: #ffffff"/>
   </g>
   <g id="matplotlib.axis_1">
    <g id="xtick_1">
     <g id="line2d_1">
      <path d="M 155.948611 430.020783 
L 155.948611 83.079861 
" clip-path="url(#pc66010778b)" style="fill: none; stroke-dasharray: 1.85,0.8; stroke-dashoffset: 0; stroke: #b0b0b0; stroke-opacity: 0.3; stroke-width: 0.5"/>
     </g>
     <g id="line2d_2">
      <defs>
       <path id="mc00ab49b76" d="M 0 0 
L 0 3.5 
" style="stroke: #333333; stroke-width: 0.8"/>
      </defs>
      <g>
       <use xlink:href="#mc00ab49b76" x="155.948611" y="430.020783" style="fill: #333333; stroke: #333333; stroke-width: 0.8"/>
      </g>
     </g>
     <g id="text_1">
      <!-- 0 -->
      <g style="fill: #333333" transform="translate(152.698611 445.958283) scale(0.13 -0.13)">
       <defs>
        <path id="SimHei-30" d="M 225 2537 
Q 250 3200 412 3587 
Q 575 3975 875 4225 
Q 1175 4475 1612 4475 
Q 2050 4475 2375 4112 
Q 2700 3750 2800 3200 
Q 2900 2650 2862 1937 
Q 2825 1225 2612 775 
Q 2400 325 1975 150 
Q 1550 -25 1125 187 
Q 700 400 525 750 
Q 350 1100 275 1487 
Q 200 1875 225 2537 
z
M 750 2687 
Q 675 2000 800 1462 
Q 925 925 1212 700 
Q 1500 475 1800 612 
Q 2100 750 2237 1162 
Q 2375 1575 2375 2062 
Q 2375 2550 2337 2950 
Q 2300 3350 2112 3675 
Q 1925 4000 1612 4012 
Q 1300 4025 1062 3700 
Q 825 3375 750 2687 
z
" transform="scale(0.015625)"/>
       </defs>
       <use xlink:href="#SimHei-30"/>
      </g>
     </g>
    </g>
    <g id="xtick_2">
     <g id="line2d_3">
      <path d="M 328.250969 430.020783 
L 328.250969 83.079861 
" clip-path="url(#pc66010778b)" style="fill: none; stroke-dasharray: 1.85,0.8; stroke-dashoffset: 0; stroke: #b0b0b0; stroke-opacity: 0.3; stroke-width: 0.5"/>
     </g>
     <g id="line2d_4">
      <g>
       <use xlink:href="#mc00ab49b76" x="328.250969" y="430.020783" style="fill: #333333; stroke: #333333; stroke-width: 0.8"/>
      </g>
     </g>
     <g id="text_2">
      <!-- 5000 -->
      <g style="fill: #333333" transform="translate(315.250969 445.958283) scale(0.13 -0.13)">
       <defs>
        <path id="SimHei-35" d="M 550 1325 
Q 725 650 1150 575 
Q 1575 500 1837 662 
Q 2100 825 2212 1087 
Q 2325 1350 2312 1675 
Q 2300 2000 2137 2225 
Q 1975 2450 1725 2525 
Q 1475 2600 1162 2525 
Q 850 2450 650 2175 
L 225 2225 
Q 275 2375 700 4375 
L 2675 4375 
L 2675 3925 
L 1075 3925 
Q 950 3250 825 2850 
Q 1200 3025 1525 3012 
Q 1850 3000 2150 2862 
Q 2450 2725 2587 2487 
Q 2725 2250 2787 2012 
Q 2850 1775 2837 1500 
Q 2825 1225 2725 937 
Q 2625 650 2425 462 
Q 2225 275 1937 162 
Q 1650 50 1275 75 
Q 900 100 562 350 
Q 225 600 100 1200 
L 550 1325 
z
" transform="scale(0.015625)"/>
       </defs>
       <use xlink:href="#SimHei-35"/>
       <use xlink:href="#SimHei-30" transform="translate(50 0)"/>
       <use xlink:href="#SimHei-30" transform="translate(100 0)"/>
       <use xlink:href="#SimHei-30" transform="translate(150 0)"/>
      </g>
     </g>
    </g>
    <g id="xtick_3">
     <g id="line2d_5">
      <path d="M 500.553327 430.020783 
L 500.553327 83.079861 
" clip-path="url(#pc66010778b)" style="fill: none; stroke-dasharray: 1.85,0.8; stroke-dashoffset: 0; stroke: #b0b0b0; stroke-opacity: 0.3; stroke-width: 0.5"/>
     </g>
     <g id="line2d_6">
      <g>
       <use xlink:href="#mc00ab49b76" x="500.553327" y="430.020783" style="fill: #333333; stroke: #333333; stroke-width: 0.8"/>
      </g>
     </g>
     <g id="text_3">
      <!-- 10000 -->
      <g style="fill: #333333" transform="translate(484.303327 445.958283) scale(0.13 -0.13)">
       <defs>
        <path id="SimHei-31" d="M 1400 3600 
Q 1075 3275 575 2975 
L 575 3450 
Q 1200 3875 1600 4450 
L 1900 4450 
L 1900 150 
L 1400 150 
L 1400 3600 
z
" transform="scale(0.015625)"/>
       </defs>
       <use xlink:href="#SimHei-31"/>
       <use xlink:href="#SimHei-30" transform="translate(50 0)"/>
       <use xlink:href="#SimHei-30" transform="translate(100 0)"/>
       <use xlink:href="#SimHei-30" transform="translate(150 0)"/>
       <use xlink:href="#SimHei-30" transform="translate(200 0)"/>
      </g>
     </g>
    </g>
    <g id="xtick_4">
     <g id="line2d_7">
      <path d="M 672.855685 430.020783 
L 672.855685 83.079861 
" clip-path="url(#pc66010778b)" style="fill: none; stroke-dasharray: 1.85,0.8; stroke-dashoffset: 0; stroke: #b0b0b0; stroke-opacity: 0.3; stroke-width: 0.5"/>
     </g>
     <g id="line2d_8">
      <g>
       <use xlink:href="#mc00ab49b76" x="672.855685" y="430.020783" style="fill: #333333; stroke: #333333; stroke-width: 0.8"/>
      </g>
     </g>
     <g id="text_4">
      <!-- 15000 -->
      <g style="fill: #333333" transform="translate(656.605685 445.958283) scale(0.13 -0.13)">
       <use xlink:href="#SimHei-31"/>
       <use xlink:href="#SimHei-35" transform="translate(50 0)"/>
       <use xlink:href="#SimHei-30" transform="translate(100 0)"/>
       <use xlink:href="#SimHei-30" transform="translate(150 0)"/>
       <use xlink:href="#SimHei-30" transform="translate(200 0)"/>
      </g>
     </g>
    </g>
    <g id="xtick_5">
     <g id="line2d_9">
      <path d="M 845.158043 430.020783 
L 845.158043 83.079861 
" clip-path="url(#pc66010778b)" style="fill: none; stroke-dasharray: 1.85,0.8; stroke-dashoffset: 0; stroke: #b0b0b0; stroke-opacity: 0.3; stroke-width: 0.5"/>
     </g>
     <g id="line2d_10">
      <g>
       <use xlink:href="#mc00ab49b76" x="845.158043" y="430.020783" style="fill: #333333; stroke: #333333; stroke-width: 0.8"/>
      </g>
     </g>
     <g id="text_5">
      <!-- 20000 -->
      <g style="fill: #333333" transform="translate(828.908043 445.958283) scale(0.13 -0.13)">
       <defs>
        <path id="SimHei-32" d="M 300 250 
Q 325 625 650 925 
Q 975 1225 1475 1862 
Q 1975 2500 2125 2850 
Q 2275 3200 2237 3450 
Q 2200 3700 2000 3862 
Q 1800 4025 1537 4000 
Q 1275 3975 1037 3800 
Q 800 3625 675 3275 
L 200 3350 
Q 400 3925 712 4187 
Q 1025 4450 1450 4475 
Q 1700 4500 1900 4462 
Q 2100 4425 2312 4287 
Q 2525 4150 2662 3875 
Q 2800 3600 2762 3212 
Q 2725 2825 2375 2287 
Q 2025 1750 1025 600 
L 2825 600 
L 2825 150 
L 300 150 
L 300 250 
z
" transform="scale(0.015625)"/>
       </defs>
       <use xlink:href="#SimHei-32"/>
       <use xlink:href="#SimHei-30" transform="translate(50 0)"/>
       <use xlink:href="#SimHei-30" transform="translate(100 0)"/>
       <use xlink:href="#SimHei-30" transform="translate(150 0)"/>
       <use xlink:href="#SimHei-30" transform="translate(200 0)"/>
      </g>
     </g>
    </g>
    <g id="xtick_6">
     <g id="line2d_11">
      <path d="M 1017.460401 430.020783 
L 1017.460401 83.079861 
" clip-path="url(#pc66010778b)" style="fill: none; stroke-dasharray: 1.85,0.8; stroke-dashoffset: 0; stroke: #b0b0b0; stroke-opacity: 0.3; stroke-width: 0.5"/>
     </g>
     <g id="line2d_12">
      <g>
       <use xlink:href="#mc00ab49b76" x="1017.460401" y="430.020783" style="fill: #333333; stroke: #333333; stroke-width: 0.8"/>
      </g>
     </g>
     <g id="text_6">
      <!-- 25000 -->
      <g style="fill: #333333" transform="translate(1001.210401 445.958283) scale(0.13 -0.13)">
       <use xlink:href="#SimHei-32"/>
       <use xlink:href="#SimHei-35" transform="translate(50 0)"/>
       <use xlink:href="#SimHei-30" transform="translate(100 0)"/>
       <use xlink:href="#SimHei-30" transform="translate(150 0)"/>
       <use xlink:href="#SimHei-30" transform="translate(200 0)"/>
      </g>
     </g>
    </g>
    <g id="xtick_7">
     <g id="line2d_13">
      <path d="M 1189.762758 430.020783 
L 1189.762758 83.079861 
" clip-path="url(#pc66010778b)" style="fill: none; stroke-dasharray: 1.85,0.8; stroke-dashoffset: 0; stroke: #b0b0b0; stroke-opacity: 0.3; stroke-width: 0.5"/>
     </g>
     <g id="line2d_14">
      <g>
       <use xlink:href="#mc00ab49b76" x="1189.762758" y="430.020783" style="fill: #333333; stroke: #333333; stroke-width: 0.8"/>
      </g>
     </g>
     <g id="text_7">
      <!-- 30000 -->
      <g style="fill: #333333" transform="translate(1173.512758 445.958283) scale(0.13 -0.13)">
       <defs>
        <path id="SimHei-33" d="M 250 1225 
L 700 1300 
Q 800 975 1025 762 
Q 1250 550 1587 562 
Q 1925 575 2125 837 
Q 2325 1100 2300 1437 
Q 2275 1775 2037 1962 
Q 1800 2150 1275 2225 
L 1275 2550 
Q 1800 2600 2037 2825 
Q 2275 3050 2250 3412 
Q 2225 3775 1925 3937 
Q 1625 4100 1287 3975 
Q 950 3850 750 3275 
L 300 3350 
Q 450 3800 712 4100 
Q 975 4400 1425 4450 
Q 1875 4500 2212 4337 
Q 2550 4175 2687 3837 
Q 2825 3500 2725 3100 
Q 2625 2700 2150 2400 
Q 2500 2250 2687 1950 
Q 2875 1650 2812 1162 
Q 2750 675 2375 375 
Q 2000 75 1525 87 
Q 1050 100 700 387 
Q 350 675 250 1225 
z
" transform="scale(0.015625)"/>
       </defs>
       <use xlink:href="#SimHei-33"/>
       <use xlink:href="#SimHei-30" transform="translate(50 0)"/>
       <use xlink:href="#SimHei-30" transform="translate(100 0)"/>
       <use xlink:href="#SimHei-30" transform="translate(150 0)"/>
       <use xlink:href="#SimHei-30" transform="translate(200 0)"/>
      </g>
     </g>
    </g>
    <g id="text_8">
     <!-- 行程 s (mm) -->
     <g style="fill: #333333" transform="translate(668.701563 462.903596) scale(0.14 -0.14)">
      <defs>
       <path id="SimHei-884c" d="M 5300 3100 
Q 5775 3100 6175 3125 
L 6175 2625 
Q 5775 2650 5325 2650 
L 4975 2650 
L 4975 -75 
Q 5000 -375 4787 -487 
Q 4575 -600 3950 -675 
Q 3900 -375 3675 -75 
Q 4100 -125 4275 -112 
Q 4450 -100 4475 150 
L 4475 2650 
L 3475 2650 
Q 3000 2650 2575 2625 
L 2575 3125 
Q 3025 3100 3475 3100 
L 5300 3100 
z
M 2300 3400 
Q 2075 3275 1962 3075 
Q 1850 2875 1650 2575 
L 1650 325 
Q 1650 0 1675 -675 
L 1150 -675 
Q 1175 75 1175 450 
L 1175 2050 
Q 950 1675 575 1300 
Q 400 1550 250 1725 
Q 825 2275 1150 2775 
Q 1475 3275 1725 3725 
Q 1975 3575 2300 3400 
z
M 4875 4800 
Q 5300 4800 5750 4825 
L 5750 4350 
Q 5300 4375 4825 4375 
L 3900 4375 
Q 3350 4375 2950 4350 
L 2950 4825 
Q 3350 4800 3900 4800 
L 4875 4800 
z
M 2075 4925 
Q 1875 4900 1550 4387 
Q 1225 3875 650 3250 
Q 500 3450 325 3625 
Q 725 4025 1050 4487 
Q 1375 4950 1525 5300 
Q 1775 5150 2075 4925 
z
" transform="scale(0.015625)"/>
       <path id="SimHei-7a0b" d="M 5825 4975 
Q 5800 4425 5800 3975 
Q 5800 3550 5825 3125 
L 3025 3125 
Q 3050 3600 3050 4025 
Q 3050 4450 3025 4975 
L 5825 4975 
z
M 400 4825 
Q 825 4875 1362 4987 
Q 1900 5100 2275 5275 
Q 2450 4950 2625 4725 
Q 2450 4750 2262 4712 
Q 2075 4675 1850 4650 
L 1850 3425 
Q 2200 3425 2600 3450 
L 2600 2975 
Q 2200 3000 1850 3000 
L 1850 800 
Q 1850 250 1875 -675 
L 1375 -675 
Q 1400 250 1400 775 
L 1400 1925 
Q 1050 1225 625 600 
Q 450 850 225 1050 
Q 575 1400 850 1850 
Q 1125 2300 1350 3000 
Q 725 3000 425 2975 
L 425 3450 
Q 850 3425 1050 3425 
L 1400 3425 
L 1400 4550 
Q 1075 4475 575 4400 
Q 500 4625 400 4825 
z
M 5100 2500 
Q 5500 2500 5950 2525 
L 5950 2075 
Q 5500 2100 5100 2100 
L 4625 2100 
L 4625 1300 
L 4900 1300 
Q 5275 1300 5775 1325 
L 5775 850 
Q 5275 875 4975 875 
L 4625 875 
L 4625 0 
L 5225 0 
Q 5675 0 6175 25 
L 6175 -450 
Q 5775 -425 5225 -425 
L 3550 -425 
Q 3000 -425 2600 -475 
L 2600 25 
Q 3000 0 3550 0 
L 4150 0 
L 4150 875 
L 3800 875 
Q 3400 875 3050 825 
L 3050 1325 
Q 3400 1300 3800 1300 
L 4150 1300 
L 4150 2100 
L 3750 2100 
Q 3300 2100 2900 2075 
L 2900 2525 
Q 3300 2500 3750 2500 
L 5100 2500 
z
M 5275 3575 
L 5275 4550 
L 3500 4550 
L 3500 3575 
L 5275 3575 
z
M 2300 2400 
Q 2550 2025 2825 1525 
Q 2675 1425 2425 1225 
Q 2175 1775 1925 2125 
Q 2075 2250 2300 2400 
z
" transform="scale(0.015625)"/>
       <path id="SimHei-20" transform="scale(0.015625)"/>
       <path id="SimHei-73" d="M 2750 900 
Q 2750 500 2437 287 
Q 2125 75 1650 75 
Q 1050 75 725 312 
Q 400 550 400 1000 
L 900 1000 
Q 900 700 1112 600 
Q 1325 500 1625 500 
Q 1925 500 2075 612 
Q 2225 725 2225 900 
Q 2225 1025 2100 1150 
Q 1975 1275 1475 1350 
Q 900 1425 687 1637 
Q 475 1850 475 2200 
Q 475 2500 762 2737 
Q 1050 2975 1600 2975 
Q 2100 2975 2387 2750 
Q 2675 2525 2675 2150 
L 2175 2150 
Q 2175 2375 2012 2462 
Q 1850 2550 1600 2550 
Q 1275 2550 1137 2437 
Q 1000 2325 1000 2175 
Q 1000 2000 1125 1900 
Q 1250 1800 1650 1750 
Q 2300 1650 2525 1437 
Q 2750 1225 2750 900 
z
" transform="scale(0.015625)"/>
       <path id="SimHei-28" d="M 2975 -200 
L 2700 -475 
Q 2075 125 1762 775 
Q 1450 1425 1450 2250 
Q 1450 3075 1762 3725 
Q 2075 4375 2700 5000 
L 2975 4725 
Q 2400 4175 2112 3587 
Q 1825 3000 1825 2250 
Q 1825 1500 2112 912 
Q 2400 325 2975 -200 
z
" transform="scale(0.015625)"/>
       <path id="SimHei-6d" d="M 3050 125 
L 2550 125 
L 2550 2150 
Q 2550 2300 2500 2400 
Q 2450 2500 2300 2500 
Q 2125 2500 1975 2312 
Q 1825 2125 1825 1825 
L 1825 125 
L 1325 125 
L 1325 2150 
Q 1325 2300 1275 2400 
Q 1225 2500 1075 2500 
Q 900 2500 750 2312 
Q 600 2125 600 1825 
L 600 125 
L 100 125 
L 100 2925 
L 600 2925 
L 600 2550 
Q 725 2750 900 2862 
Q 1075 2975 1275 2975 
Q 1475 2975 1612 2862 
Q 1750 2750 1800 2550 
Q 1925 2750 2087 2862 
Q 2250 2975 2450 2975 
Q 2750 2975 2900 2812 
Q 3050 2650 3050 2350 
L 3050 125 
z
" transform="scale(0.015625)"/>
       <path id="SimHei-29" d="M 1675 2250 
Q 1675 1425 1362 775 
Q 1050 125 425 -475 
L 150 -200 
Q 725 325 1012 912 
Q 1300 1500 1300 2250 
Q 1300 3000 1012 3587 
Q 725 4175 150 4725 
L 425 5000 
Q 1050 4375 1362 3725 
Q 1675 3075 1675 2250 
z
" transform="scale(0.015625)"/>
      </defs>
      <use xlink:href="#SimHei-884c"/>
      <use xlink:href="#SimHei-7a0b" transform="translate(100 0)"/>
      <use xlink:href="#SimHei-20" transform="translate(200 0)"/>
      <use xlink:href="#SimHei-73" transform="translate(250 0)"/>
      <use xlink:href="#SimHei-20" transform="translate(300 0)"/>
      <use xlink:href="#SimHei-28" transform="translate(350 0)"/>
      <use xlink:href="#SimHei-6d" transform="translate(400 0)"/>
      <use xlink:href="#SimHei-6d" transform="translate(450 0)"/>
      <use xlink:href="#SimHei-29" transform="translate(500 0)"/>
     </g>
    </g>
   </g>
   <g id="matplotlib.axis_2">
    <g id="ytick_1">
     <g id="line2d_15">
      <path d="M 69.942188 402.42321 
L 1344.460938 402.42321 
" clip-path="url(#pc66010778b)" style="fill: none; stroke-dasharray: 1.85,0.8; stroke-dashoffset: 0; stroke: #b0b0b0; stroke-opacity: 0.3; stroke-width: 0.5"/>
     </g>
     <g id="line2d_16">
      <defs>
       <path id="m3c316e8264" d="M 0 0 
L -3.5 0 
" style="stroke: #333333; stroke-width: 0.8"/>
      </defs>
      <g>
       <use xlink:href="#m3c316e8264" x="69.942188" y="402.42321" style="fill: #333333; stroke: #333333; stroke-width: 0.8"/>
      </g>
     </g>
     <g id="text_9">
      <!-- 0 -->
      <g style="fill: #333333" transform="translate(56.442188 406.89196) scale(0.13 -0.13)">
       <use xlink:href="#SimHei-30"/>
      </g>
     </g>
    </g>
    <g id="ytick_2">
     <g id="line2d_17">
      <path d="M 69.942188 347.660644 
L 1344.460938 347.660644 
" clip-path="url(#pc66010778b)" style="fill: none; stroke-dasharray: 1.85,0.8; stroke-dashoffset: 0; stroke: #b0b0b0; stroke-opacity: 0.3; stroke-width: 0.5"/>
     </g>
     <g id="line2d_18">
      <g>
       <use xlink:href="#m3c316e8264" x="69.942188" y="347.660644" style="fill: #333333; stroke: #333333; stroke-width: 0.8"/>
      </g>
     </g>
     <g id="text_10">
      <!-- 100000 -->
      <g style="fill: #333333" transform="translate(23.942188 352.129394) scale(0.13 -0.13)">
       <use xlink:href="#SimHei-31"/>
       <use xlink:href="#SimHei-30" transform="translate(50 0)"/>
       <use xlink:href="#SimHei-30" transform="translate(100 0)"/>
       <use xlink:href="#SimHei-30" transform="translate(150 0)"/>
       <use xlink:href="#SimHei-30" transform="translate(200 0)"/>
       <use xlink:href="#SimHei-30" transform="translate(250 0)"/>
      </g>
     </g>
    </g>
    <g id="ytick_3">
     <g id="line2d_19">
      <path d="M 69.942188 292.898077 
L 1344.460938 292.898077 
" clip-path="url(#pc66010778b)" style="fill: none; stroke-dasharray: 1.85,0.8; stroke-dashoffset: 0; stroke: #b0b0b0; stroke-opacity: 0.3; stroke-width: 0.5"/>
     </g>
     <g id="line2d_20">
      <g>
       <use xlink:href="#m3c316e8264" x="69.942188" y="292.898077" style="fill: #333333; stroke: #333333; stroke-width: 0.8"/>
      </g>
     </g>
     <g id="text_11">
      <!-- 200000 -->
      <g style="fill: #333333" transform="translate(23.942188 297.366827) scale(0.13 -0.13)">
       <use xlink:href="#SimHei-32"/>
       <use xlink:href="#SimHei-30" transform="translate(50 0)"/>
       <use xlink:href="#SimHei-30" transform="translate(100 0)"/>
       <use xlink:href="#SimHei-30" transform="translate(150 0)"/>
       <use xlink:href="#SimHei-30" transform="translate(200 0)"/>
       <use xlink:href="#SimHei-30" transform="translate(250 0)"/>
      </g>
     </g>
    </g>
    <g id="ytick_4">
     <g id="line2d_21">
      <path d="M 69.942188 238.135511 
L 1344.460938 238.135511 
" clip-path="url(#pc66010778b)" style="fill: none; stroke-dasharray: 1.85,0.8; stroke-dashoffset: 0; stroke: #b0b0b0; stroke-opacity: 0.3; stroke-width: 0.5"/>
     </g>
     <g id="line2d_22">
      <g>
       <use xlink:href="#m3c316e8264" x="69.942188" y="238.135511" style="fill: #333333; stroke: #333333; stroke-width: 0.8"/>
      </g>
     </g>
     <g id="text_12">
      <!-- 300000 -->
      <g style="fill: #333333" transform="translate(23.942188 242.604261) scale(0.13 -0.13)">
       <use xlink:href="#SimHei-33"/>
       <use xlink:href="#SimHei-30" transform="translate(50 0)"/>
       <use xlink:href="#SimHei-30" transform="translate(100 0)"/>
       <use xlink:href="#SimHei-30" transform="translate(150 0)"/>
       <use xlink:href="#SimHei-30" transform="translate(200 0)"/>
       <use xlink:href="#SimHei-30" transform="translate(250 0)"/>
      </g>
     </g>
    </g>
    <g id="ytick_5">
     <g id="line2d_23">
      <path d="M 69.942188 183.372945 
L 1344.460938 183.372945 
" clip-path="url(#pc66010778b)" style="fill: none; stroke-dasharray: 1.85,0.8; stroke-dashoffset: 0; stroke: #b0b0b0; stroke-opacity: 0.3; stroke-width: 0.5"/>
     </g>
     <g id="line2d_24">
      <g>
       <use xlink:href="#m3c316e8264" x="69.942188" y="183.372945" style="fill: #333333; stroke: #333333; stroke-width: 0.8"/>
      </g>
     </g>
     <g id="text_13">
      <!-- 400000 -->
      <g style="fill: #333333" transform="translate(23.942188 187.841695) scale(0.13 -0.13)">
       <defs>
        <path id="SimHei-34" d="M 2000 1100 
L 75 1100 
L 75 1525 
L 2100 4450 
L 2475 4450 
L 2475 1525 
L 3075 1525 
L 3075 1100 
L 2475 1100 
L 2475 150 
L 2000 150 
L 2000 1100 
z
M 2000 1525 
L 2000 3500 
L 600 1525 
L 2000 1525 
z
" transform="scale(0.015625)"/>
       </defs>
       <use xlink:href="#SimHei-34"/>
       <use xlink:href="#SimHei-30" transform="translate(50 0)"/>
       <use xlink:href="#SimHei-30" transform="translate(100 0)"/>
       <use xlink:href="#SimHei-30" transform="translate(150 0)"/>
       <use xlink:href="#SimHei-30" transform="translate(200 0)"/>
       <use xlink:href="#SimHei-30" transform="translate(250 0)"/>
      </g>
     </g>
    </g>
    <g id="ytick_6">
     <g id="line2d_25">
      <path d="M 69.942188 128.610379 
L 1344.460938 128.610379 
" clip-path="url(#pc66010778b)" style="fill: none; stroke-dasharray: 1.85,0.8; stroke-dashoffset: 0; stroke: #b0b0b0; stroke-opacity: 0.3; stroke-width: 0.5"/>
     </g>
     <g id="line2d_26">
      <g>
       <use xlink:href="#m3c316e8264" x="69.942188" y="128.610379" style="fill: #333333; stroke: #333333; stroke-width: 0.8"/>
      </g>
     </g>
     <g id="text_14">
      <!-- 500000 -->
      <g style="fill: #333333" transform="translate(23.942188 133.079129) scale(0.13 -0.13)">
       <use xlink:href="#SimHei-35"/>
       <use xlink:href="#SimHei-30" transform="translate(50 0)"/>
       <use xlink:href="#SimHei-30" transform="translate(100 0)"/>
       <use xlink:href="#SimHei-30" transform="translate(150 0)"/>
       <use xlink:href="#SimHei-30" transform="translate(200 0)"/>
       <use xlink:href="#SimHei-30" transform="translate(250 0)"/>
      </g>
     </g>
    </g>
    <g id="text_15">
     <!-- 功率 P (W) -->
     <g style="fill: #333333" transform="translate(18.192188 291.550322) rotate(-90) scale(0.14 -0.14)">
      <defs>
       <path id="SimHei-529f" d="M 5675 275 
Q 5575 -200 5225 -312 
Q 4875 -425 4450 -475 
Q 4400 -175 4200 100 
Q 4725 75 4937 137 
Q 5150 200 5175 425 
Q 5300 1775 5375 3275 
L 4250 3275 
Q 4225 2550 4125 1925 
Q 4025 1300 3787 850 
Q 3550 400 3250 50 
Q 2950 -300 2550 -650 
Q 2375 -400 2100 -250 
Q 2650 100 2925 425 
Q 3200 750 3400 1162 
Q 3600 1575 3675 2075 
Q 3750 2575 3775 3275 
L 3400 3275 
Q 3100 3275 2800 3250 
L 2800 3725 
Q 3125 3700 3450 3700 
L 3775 3700 
L 3775 4575 
Q 3775 4875 3750 5175 
Q 4075 5100 4325 5075 
Q 4275 4900 4262 4525 
Q 4250 4150 4250 3700 
L 5900 3700 
Q 5875 3350 5850 3037 
Q 5825 2725 5675 275 
z
M 2900 1000 
Q 2475 900 2200 837 
Q 1925 775 1337 600 
Q 750 425 500 350 
Q 400 700 300 900 
Q 450 900 1375 1100 
L 1375 3900 
L 1175 3900 
Q 875 3900 450 3875 
L 450 4350 
Q 850 4325 1175 4325 
L 2100 4325 
Q 2450 4325 2725 4350 
L 2725 3875 
Q 2425 3900 2125 3900 
L 1875 3900 
L 1875 1200 
L 2375 1325 
Q 2575 1375 2850 1450 
L 2900 1000 
z
" transform="scale(0.015625)"/>
       <path id="SimHei-7387" d="M 3325 5150 
Q 3425 4900 3550 4525 
L 4800 4525 
Q 5250 4525 5800 4550 
L 5800 4125 
Q 5250 4175 4775 4175 
L 2800 4175 
Q 2975 4050 3300 3900 
Q 3075 3750 2875 3537 
Q 2675 3325 2475 3125 
L 3275 3125 
Q 3575 3425 3775 3775 
Q 4000 3600 4275 3425 
Q 3950 3250 3600 2875 
Q 3250 2500 2625 2000 
L 3850 2100 
Q 3725 2250 3600 2425 
Q 3750 2475 4000 2650 
Q 4250 2350 4700 1700 
Q 4475 1625 4225 1450 
Q 4175 1600 4025 1775 
Q 3700 1750 3425 1750 
L 3425 1050 
L 5150 1050 
Q 5675 1050 6100 1075 
L 6100 650 
Q 5700 675 5125 675 
L 3425 675 
L 3425 175 
Q 3425 -300 3450 -625 
L 2900 -625 
Q 2925 -300 2925 175 
L 2925 675 
L 1325 675 
Q 825 675 325 650 
L 325 1075 
Q 825 1050 1350 1050 
L 2925 1050 
L 2925 1700 
Q 2700 1675 2475 1637 
Q 2250 1600 2025 1525 
Q 1950 1775 1850 2000 
Q 2075 2025 2325 2200 
Q 2575 2375 2975 2800 
Q 2300 2725 2025 2625 
Q 1975 2875 1850 3175 
Q 2075 3175 2325 3487 
Q 2575 3800 2750 4175 
L 1700 4175 
Q 1150 4175 650 4125 
L 650 4550 
Q 1150 4525 1550 4525 
L 2975 4525 
Q 2900 4825 2800 5025 
Q 3025 5075 3325 5150 
z
M 1625 2575 
Q 1725 2400 1825 2200 
Q 1575 2050 1325 1862 
Q 1075 1675 800 1425 
Q 625 1675 475 1875 
Q 800 2025 1100 2212 
Q 1400 2400 1625 2575 
z
M 4850 2650 
Q 5125 2475 5337 2337 
Q 5550 2200 5875 1950 
Q 5675 1800 5500 1600 
Q 5300 1775 5062 1975 
Q 4825 2175 4575 2325 
Q 4725 2475 4850 2650 
z
M 5725 3525 
Q 5550 3450 5300 3262 
Q 5050 3075 4800 2825 
Q 4625 3050 4475 3175 
Q 4700 3325 4875 3487 
Q 5050 3650 5300 3925 
Q 5525 3700 5725 3525 
z
M 1050 3850 
Q 1425 3600 1775 3275 
Q 1575 3100 1425 2925 
Q 1075 3300 675 3525 
Q 875 3700 1050 3850 
z
" transform="scale(0.015625)"/>
       <path id="SimHei-50" d="M 2950 3100 
Q 2950 2500 2600 2150 
Q 2250 1800 1625 1800 
L 900 1800 
L 900 125 
L 325 125 
L 325 4400 
L 1625 4400 
Q 2250 4400 2600 4050 
Q 2950 3700 2950 3100 
z
M 2375 3100 
Q 2375 3575 2150 3750 
Q 1925 3925 1475 3925 
L 900 3925 
L 900 2275 
L 1475 2275 
Q 1925 2275 2150 2450 
Q 2375 2625 2375 3100 
z
" transform="scale(0.015625)"/>
       <path id="SimHei-57" d="M 3075 4400 
L 2525 75 
L 2025 75 
L 1575 3275 
L 1525 3275 
L 1075 75 
L 575 75 
L 25 4400 
L 575 4400 
L 850 1675 
L 900 1675 
L 1275 4400 
L 1825 4400 
L 2200 1675 
L 2250 1675 
L 2525 4400 
L 3075 4400 
z
" transform="scale(0.015625)"/>
      </defs>
      <use xlink:href="#SimHei-529f"/>
      <use xlink:href="#SimHei-7387" transform="translate(100 0)"/>
      <use xlink:href="#SimHei-20" transform="translate(200 0)"/>
      <use xlink:href="#SimHei-50" transform="translate(250 0)"/>
      <use xlink:href="#SimHei-20" transform="translate(300 0)"/>
      <use xlink:href="#SimHei-28" transform="translate(350 0)"/>
      <use xlink:href="#SimHei-57" transform="translate(400 0)"/>
      <use xlink:href="#SimHei-29" transform="translate(450 0)"/>
     </g>
    </g>
   </g>
   <g id="patch_3">
    <path d="M 69.942188 430.020783 
L 69.942188 83.079861 
" style="fill: none; stroke: #000000; stroke-width: 0.8; stroke-linejoin: miter; stroke-linecap: square"/>
   </g>
   <g id="patch_4">
    <path d="M 1344.460938 430.020783 
L 1344.460938 83.079861 
" style="fill: none; stroke: #000000; stroke-width: 0.8; stroke-linejoin: miter; stroke-linecap: square"/>
   </g>
   <g id="patch_5">
    <path d="M 69.942187 430.020783 
L 1344.460938 430.020783 
" style="fill: none; stroke: #000000; stroke-width: 0.8; stroke-linejoin: miter; stroke-linecap: square"/>
   </g>
   <g id="patch_6">
    <path d="M 69.942187 83.079861 
L 1344.460938 83.079861 
" style="fill: none; stroke: #000000; stroke-width: 0.8; stroke-linejoin: miter; stroke-linecap: square"/>
   </g>
   <g id="text_16">
    <!-- 主轴功率预测 -->
    <g style="fill: #333333" transform="translate(653.201563 21.614062) scale(0.18 -0.18)">
     <defs>
      <path id="SimHei-4e3b" d="M 4750 3850 
Q 5150 3850 5750 3875 
L 5750 3400 
Q 5150 3425 4750 3425 
L 3425 3425 
L 3425 2175 
L 4425 2175 
Q 4825 2175 5375 2200 
L 5375 1725 
Q 4825 1750 4425 1750 
L 3425 1750 
L 3425 150 
L 5000 150 
Q 5450 150 6050 175 
L 6050 -300 
Q 5450 -275 5000 -275 
L 350 -275 
L 350 200 
Q 950 150 1425 150 
L 2900 150 
L 2900 1750 
L 1925 1750 
Q 1525 1750 975 1725 
L 975 2200 
Q 1575 2175 1925 2175 
L 2900 2175 
L 2900 3425 
L 1650 3425 
Q 1125 3425 625 3400 
L 625 3875 
Q 1175 3850 1675 3850 
L 4750 3850 
z
M 3175 3900 
Q 2875 4350 2400 4875 
Q 2650 5050 2800 5200 
Q 3325 4600 3625 4175 
Q 3475 4100 3175 3900 
z
" transform="scale(0.015625)"/>
      <path id="SimHei-8f74" d="M 4200 3900 
Q 4200 4775 4175 5175 
L 4700 5175 
Q 4675 4800 4675 3900 
L 5950 3900 
Q 5925 3025 5925 1675 
Q 5925 325 5950 -525 
L 5450 -525 
L 5450 100 
L 3425 100 
L 3425 -575 
L 2950 -575 
Q 2975 325 2975 1675 
Q 2975 3025 2950 3900 
L 4200 3900 
z
M 2725 950 
Q 2250 900 2075 875 
Q 2075 200 2100 -600 
L 1575 -600 
Q 1600 200 1600 800 
Q 700 650 450 575 
Q 400 800 275 1075 
Q 700 1100 1600 1250 
L 1600 2075 
L 1100 2075 
Q 850 2075 525 2000 
L 300 2475 
Q 525 2600 700 3025 
Q 875 3450 1025 3925 
Q 700 3925 325 3900 
L 325 4350 
Q 700 4325 1125 4325 
Q 1300 4825 1375 5250 
Q 1625 5150 1925 5100 
Q 1825 4925 1600 4325 
Q 2175 4325 2750 4350 
L 2750 3900 
Q 2200 3925 1475 3925 
Q 1150 3000 925 2475 
L 1600 2475 
Q 1600 3050 1575 3400 
L 2100 3400 
Q 2075 3100 2075 2475 
Q 2425 2475 2625 2500 
L 2625 2050 
Q 2450 2075 2075 2075 
L 2075 1300 
L 2775 1400 
Q 2725 1175 2725 950 
z
M 4200 525 
L 4200 1850 
L 3425 1850 
L 3425 525 
L 4200 525 
z
M 5450 525 
L 5450 1850 
L 4675 1850 
L 4675 525 
L 5450 525 
z
M 4200 2250 
L 4200 3475 
L 3425 3475 
L 3425 2250 
L 4200 2250 
z
M 5450 2250 
L 5450 3475 
L 4675 3475 
L 4675 2250 
L 5450 2250 
z
" transform="scale(0.015625)"/>
      <path id="SimHei-9884" d="M 5200 4800 
Q 5575 4800 5950 4825 
L 5950 4400 
Q 5575 4425 5200 4425 
L 4500 4425 
Q 4425 4050 4350 3600 
L 5725 3600 
Q 5700 3225 5700 2800 
L 5700 1725 
Q 5700 1300 5725 850 
L 5250 850 
L 5250 3225 
L 3550 3225 
L 3550 800 
L 3075 800 
Q 3100 1375 3100 1725 
L 3100 2775 
Q 3100 3175 3075 3600 
L 3900 3600 
Q 4000 4150 4000 4425 
L 3725 4425 
Q 3300 4425 2850 4400 
L 2850 4825 
Q 3325 4800 3725 4800 
L 5200 4800 
z
M 2600 1775 
Q 2350 1825 2150 1825 
Q 2250 2250 2300 2450 
L 1750 2450 
L 1750 125 
Q 1725 -300 1425 -400 
Q 1125 -500 750 -500 
Q 700 -225 575 25 
Q 1125 -25 1212 37 
Q 1300 100 1300 350 
L 1300 2450 
L 1025 2450 
Q 700 2450 350 2425 
L 350 2850 
Q 700 2825 1000 2825 
L 2850 2825 
Q 2725 2325 2600 1775 
z
M 4725 2875 
Q 4625 2575 4600 2100 
Q 4575 1625 4462 1037 
Q 4350 450 3962 62 
Q 3575 -325 2925 -675 
Q 2700 -500 2475 -350 
Q 3075 -125 3437 200 
Q 3800 525 3950 937 
Q 4100 1350 4137 1850 
Q 4175 2350 4175 2925 
L 4725 2875 
z
M 1625 2900 
Q 1275 3275 800 3650 
Q 925 3775 1075 3950 
Q 1250 3825 1425 3675 
Q 1750 4150 1950 4375 
L 1400 4375 
Q 900 4375 450 4350 
L 450 4775 
Q 900 4750 1375 4750 
L 2575 4750 
L 2575 4375 
Q 2200 4100 1725 3400 
L 1950 3200 
Q 1750 3025 1625 2900 
z
M 4775 725 
Q 5725 0 6075 -325 
Q 5850 -500 5725 -650 
Q 5400 -325 5137 -87 
Q 4875 150 4525 350 
Q 4650 525 4775 725 
z
" transform="scale(0.015625)"/>
      <path id="SimHei-6d4b" d="M 4025 4725 
Q 4000 4475 4000 4000 
L 4000 2225 
Q 4000 1775 4025 1350 
L 3550 1350 
L 3550 4325 
L 2350 4325 
L 2350 1325 
L 1900 1325 
Q 1925 1775 1925 2225 
L 1925 4000 
Q 1925 4200 1900 4725 
L 4025 4725 
z
M 5900 5075 
Q 5875 4800 5875 4375 
L 5875 0 
Q 5875 -325 5650 -425 
Q 5425 -525 4975 -600 
Q 4925 -325 4775 -50 
Q 5125 -50 5262 -25 
Q 5400 0 5400 250 
L 5400 4375 
Q 5400 4775 5375 5075 
L 5900 5075 
z
M 3275 3725 
Q 3225 3400 3200 2325 
Q 3175 1250 2837 550 
Q 2500 -150 2075 -600 
Q 1850 -400 1600 -325 
Q 2200 250 2475 962 
Q 2750 1675 2762 2475 
Q 2775 3275 2725 3800 
Q 3000 3750 3275 3725 
z
M 4950 4275 
Q 4925 4000 4925 3575 
L 4925 1825 
Q 4925 1300 4950 850 
L 4450 850 
Q 4475 1150 4475 1825 
L 4475 3575 
Q 4475 4000 4450 4275 
L 4950 4275 
z
M 1700 1675 
Q 1375 1075 1112 487 
Q 850 -100 725 -400 
Q 500 -200 200 -25 
Q 475 300 762 850 
Q 1050 1400 1250 2000 
Q 1475 1825 1700 1675 
z
M 3400 1050 
Q 3800 650 4300 -125 
Q 4100 -225 3875 -450 
Q 3475 275 3025 750 
Q 3225 875 3400 1050 
z
M 600 3525 
Q 1125 3125 1500 2775 
Q 1300 2575 1150 2375 
Q 825 2775 300 3150 
Q 450 3300 600 3525 
z
M 1350 4000 
Q 950 4375 475 4675 
Q 625 4850 775 5050 
Q 1300 4700 1675 4375 
Q 1500 4250 1350 4000 
z
" transform="scale(0.015625)"/>
     </defs>
     <use xlink:href="#SimHei-4e3b"/>
     <use xlink:href="#SimHei-8f74" transform="translate(100 0)"/>
     <use xlink:href="#SimHei-529f" transform="translate(200 0)"/>
     <use xlink:href="#SimHei-7387" transform="translate(300 0)"/>
     <use xlink:href="#SimHei-9884" transform="translate(400 0)"/>
     <use xlink:href="#SimHei-6d4b" transform="translate(500 0)"/>
    </g>
   </g>
   <g id="line2d_27">
    <path d="M 171.324361 402.42321 
L 188.976875 402.42321 
L 189.410486 323.722831 
L 189.968562 323.722831 
L 203.197296 323.722831 
L 203.197296 402.42321 
L 204.191297 323.722831 
L 210.938381 323.722831 
L 211.093453 402.42321 
L 211.926332 323.722831 
L 214.311158 323.722831 
L 214.324895 402.42321 
L 215.296509 396.520681 
L 215.330969 396.520681 
L 215.330969 402.42321 
L 215.854954 151.066264 
L 216.084005 402.42321 
L 217.607426 402.42321 
L 217.624657 323.722831 
L 218.598959 323.722831 
L 220.132455 323.722831 
L 220.390408 402.42321 
L 221.131904 323.722831 
L 226.214791 323.722831 
L 226.404025 402.42321 
L 227.205796 323.722831 
L 227.458269 323.722831 
L 227.475494 402.42321 
L 228.4433 352.814426 
L 228.460508 352.814426 
L 228.460508 323.722831 
L 229.100768 402.42321 
L 229.450029 323.722831 
L 233.136705 323.722831 
L 233.136705 332.386562 
L 234.131178 323.722831 
L 234.322263 323.722831 
L 234.332606 402.42321 
L 235.307379 323.722831 
L 237.587707 323.722831 
L 237.601464 402.42321 
L 238.104923 402.42321 
L 241.476538 402.42321 
L 241.511878 323.722831 
L 242.460882 402.42321 
L 242.806818 402.42321 
L 242.875728 323.722831 
L 243.798001 323.722831 
L 246.15845 323.722831 
L 246.397542 402.42321 
L 247.144623 323.722831 
L 247.160073 323.722831 
L 247.18906 402.42321 
L 247.593876 402.42321 
L 252.335073 402.42321 
L 252.352325 323.722831 
L 253.334875 402.42321 
L 254.018324 402.42321 
L 254.05278 323.722831 
L 254.963495 402.42321 
L 255.374755 402.42321 
L 255.437056 392.979164 
L 255.818028 402.42321 
L 256.932572 402.42321 
L 257.01871 323.722831 
L 257.927647 323.722831 
L 260.029724 323.722831 
L 261.023507 402.42321 
L 261.026967 402.42321 
L 261.693592 402.42321 
L 261.693592 323.722831 
L 262.677667 323.722831 
L 265.194145 323.722831 
L 265.214938 402.42321 
L 266.135672 402.42321 
L 266.28733 402.42321 
L 266.30457 323.722831 
L 267.270155 323.722831 
L 267.733379 323.722831 
L 267.897622 402.42321 
L 268.717869 323.722831 
L 268.803963 323.722831 
L 269.60531 402.42321 
L 269.793956 402.42321 
L 270.421021 402.42321 
L 270.438264 323.722831 
L 271.405021 402.42321 
L 271.422234 402.42321 
L 271.422234 395.947684 
L 272.362237 402.42321 
L 272.513897 402.42321 
L 272.582823 323.722831 
L 273.512608 402.42321 
L 275.514704 402.42321 
L 275.66978 323.722831 
L 276.503371 323.722831 
L 276.926958 323.722831 
L 276.930404 402.42321 
L 277.915856 323.722831 
L 278.733672 323.722831 
L 278.750903 402.42321 
L 279.467471 402.42321 
L 279.93275 402.42321 
L 279.949978 323.722831 
L 280.920729 323.722831 
L 281.082341 323.722831 
L 281.099554 402.42321 
L 282.068231 323.722831 
L 283.124413 323.722831 
L 283.141638 402.42321 
L 284.119984 323.722831 
L 285.3697 323.722831 
L 285.380044 402.42321 
L 286.356903 323.722831 
L 287.781441 323.722831 
L 287.788349 402.42321 
L 288.76992 323.722831 
L 289.652069 323.722831 
L 289.679367 402.42321 
L 290.649824 402.42321 
L 291.412332 402.42321 
L 291.446775 323.722831 
L 292.398363 323.722831 
L 292.666697 323.722831 
L 292.673574 402.42321 
L 293.66408 323.722831 
L 294.695352 323.722831 
L 294.716017 402.42321 
L 295.688517 323.722831 
L 297.303039 323.722831 
L 297.313388 402.42321 
L 298.287382 323.722831 
L 299.837983 323.722831 
L 299.851754 402.42321 
L 300.828381 323.722831 
L 303.225869 323.722831 
L 303.236184 402.42321 
L 304.222937 323.722831 
L 307.094461 323.722831 
L 307.104784 402.42321 
L 308.086234 323.722831 
L 308.504759 323.722831 
L 308.883286 402.42321 
L 309.503574 323.722831 
L 311.392243 323.722831 
L 311.402768 402.42321 
L 312.390895 323.722831 
L 313.960039 323.722831 
L 313.973827 402.42321 
L 314.698816 402.42321 
L 315.164098 402.42321 
L 315.198559 323.722831 
L 316.152833 323.722831 
L 316.778146 323.722831 
L 316.873982 402.42321 
L 317.777658 402.42321 
L 317.885712 402.42321 
L 318.001028 323.722831 
L 318.878912 323.722831 
L 319.405265 323.722831 
L 319.423827 402.42321 
L 320.395847 402.42321 
L 320.413077 402.42321 
L 320.430307 323.722831 
L 321.398956 323.722831 
L 321.670563 323.722831 
L 321.678803 402.42321 
L 322.664315 402.42321 
L 322.739369 402.42321 
L 322.756604 323.722831 
L 323.73573 323.722831 
L 323.872234 323.722831 
L 323.892891 402.42321 
L 324.856032 323.722831 
L 325.909291 323.722831 
L 325.91966 402.42321 
L 326.896687 323.722831 
L 327.778179 323.722831 
L 327.903382 402.42321 
L 328.776927 323.722831 
L 329.769964 323.722831 
L 329.79408 402.42321 
L 330.756134 323.722831 
L 331.587248 323.722831 
L 331.606371 402.42321 
L 332.582505 323.722831 
L 332.725657 323.722831 
L 332.741468 402.42321 
L 333.711324 402.42321 
L 334.404189 402.42321 
L 334.421419 323.722831 
L 335.388902 347.50274 
L 335.405544 347.50274 
L 335.438767 323.722831 
L 335.529203 402.42321 
L 336.391102 402.42321 
L 336.408332 402.42321 
L 336.408332 378.813096 
L 337.40424 402.42321 
L 337.453443 402.42321 
L 337.566691 323.722831 
L 338.441828 383.924135 
L 338.459089 383.924135 
L 338.753431 357.942936 
L 338.502327 402.42321 
L 339.371445 402.42321 
L 342.529864 402.42321 
L 342.615555 151.066264 
L 343.519047 402.42321 
L 343.559372 402.42321 
L 343.697111 361.105511 
L 344.558623 402.42321 
L 348.789273 402.42321 
L 348.806496 323.722831 
L 349.784922 402.42321 
L 350.224266 402.42321 
L 350.241496 323.722831 
L 351.217989 402.42321 
L 351.668035 402.42321 
L 351.668035 323.722831 
L 352.65242 402.42321 
L 353.243434 402.42321 
L 353.260665 323.722831 
L 354.240749 402.42321 
L 354.883854 402.42321 
L 354.901082 323.722831 
L 355.882896 402.42321 
L 355.903265 402.42321 
L 356.735558 323.722831 
L 356.897965 323.722831 
L 357.835795 323.722831 
L 357.835795 402.42321 
L 358.828708 323.722831 
L 359.879176 323.722831 
L 359.886052 402.42321 
L 360.871643 323.722831 
L 361.544696 323.722831 
L 361.551409 402.42321 
L 362.485932 402.42321 
L 363.053829 402.42321 
L 363.12274 323.722831 
L 364.045938 402.42321 
L 364.654209 402.42321 
L 364.67144 323.722831 
L 365.649568 402.42321 
L 366.107079 402.42321 
L 366.12428 323.722831 
L 367.096888 402.42321 
L 367.605617 402.42321 
L 367.622847 323.722831 
L 368.601094 402.42321 
L 369.119824 402.42321 
L 369.137076 323.722831 
L 370.110128 323.722831 
L 371.00504 323.722831 
L 371.149137 402.42321 
L 371.938267 402.42321 
L 372.828103 402.42321 
L 372.877291 323.722831 
L 373.814747 402.411403 
L 375.286224 402.42321 
L 375.303476 360.686038 
L 376.033953 402.42321 
L 377.260745 402.42321 
L 377.71888 327.522682 
L 378.258477 402.42321 
L 378.395926 402.42321 
L 378.395926 384.715625 
L 379.141542 402.42321 
L 381.577147 402.42321 
L 381.680513 323.722831 
L 382.572813 402.42321 
L 383.10787 402.42321 
L 383.125122 323.722831 
L 384.009517 402.42321 
L 388.988578 402.42321 
L 389.194774 389.700477 
L 389.977049 402.42321 
L 390.196802 402.417318 
L 391.070886 400.319916 
L 390.403583 402.42321 
L 391.19148 400.35526 
L 391.312098 400.325807 
L 391.515962 390.535091 
L 391.368435 402.42321 
L 392.301931 402.42321 
L 393.583591 402.42321 
L 393.653618 391.180613 
L 394.572482 402.42321 
L 394.761899 402.42321 
L 394.916972 398.222513 
L 395.757165 400.35526 
L 395.877783 400.325807 
L 395.976969 391.259745 
L 395.95973 402.42321 
L 396.863272 402.42321 
L 400.809095 402.42321 
L 401.242706 323.565114 
L 401.800781 323.565114 
L 415.029515 323.565114 
L 415.029515 402.42321 
L 416.023517 323.565114 
L 422.7706 323.565114 
L 422.925673 402.42321 
L 423.758551 323.565114 
L 426.143377 323.565114 
L 426.157114 402.42321 
L 427.128728 396.508853 
L 427.163189 396.508853 
L 427.163189 402.42321 
L 427.687174 139.589178 
L 427.916224 402.42321 
L 429.439646 402.42321 
L 429.456877 323.565114 
L 430.431178 323.565114 
L 431.964674 323.565114 
L 432.222628 402.42321 
L 432.964123 323.565114 
L 438.04701 323.565114 
L 438.236244 402.42321 
L 439.038015 323.565114 
L 439.290488 323.565114 
L 439.307714 402.42321 
L 440.275519 352.715009 
L 440.292727 352.715009 
L 440.292727 323.565114 
L 440.932987 402.42321 
L 441.282249 323.565114 
L 444.857984 323.565114 
L 444.872298 402.42321 
L 445.847789 323.565114 
L 446.103042 323.565114 
L 446.116818 402.42321 
L 447.091811 323.565114 
L 449.445299 323.565114 
L 449.459093 402.42321 
L 449.971012 402.42321 
L 453.428752 402.42321 
L 453.454963 323.565114 
L 454.422323 402.42321 
L 455.274346 402.42321 
L 455.308825 323.565114 
L 456.267896 402.42321 
L 456.826902 402.42321 
L 456.861357 323.565114 
L 457.641011 402.42321 
L 459.283973 402.42321 
L 459.318416 323.565114 
L 460.267838 323.565114 
L 462.55939 323.565114 
L 462.798938 402.42321 
L 463.546376 323.565114 
L 463.577359 323.565114 
L 463.601372 402.42321 
L 464.565638 383.680612 
L 464.581889 383.680612 
L 464.592233 396.866987 
L 464.877982 323.565114 
L 465.565588 323.565114 
L 467.805823 323.565114 
L 467.827993 402.42321 
L 468.803807 402.42321 
L 468.882205 402.42321 
L 468.899457 323.565114 
L 469.87849 323.565114 
L 471.601312 324.110812 
L 472.470377 402.42321 
L 471.963833 323.565114 
L 472.601064 402.42321 
L 473.25223 402.42321 
L 473.269455 323.565114 
L 474.248651 323.565114 
L 474.555311 323.565114 
L 474.565736 402.42321 
L 475.542415 323.565114 
L 476.563803 323.565114 
L 476.581026 402.42321 
L 477.097124 402.42321 
L 479.225939 402.42321 
L 479.314913 323.565114 
L 480.216154 323.565114 
L 480.238484 323.565114 
L 480.248814 402.42321 
L 481.226474 402.42321 
L 481.243716 402.42321 
L 481.243716 323.565114 
L 482.239675 402.42321 
L 482.942609 402.42321 
L 482.992754 393.438394 
L 483.50872 402.42321 
L 485.109606 402.42321 
L 485.369728 323.565114 
L 486.09681 323.565114 
L 486.603389 323.565114 
L 486.624061 402.42321 
L 487.587577 323.565114 
L 488.284606 323.565114 
L 488.301822 402.42321 
L 489.018988 402.42321 
L 489.485054 402.42321 
L 489.502273 323.565114 
L 490.471038 323.565114 
L 490.606675 323.565114 
L 490.62046 402.42321 
L 491.594679 323.565114 
L 492.607162 323.565114 
L 492.62091 402.42321 
L 493.602352 323.565114 
L 494.813468 323.565114 
L 494.823787 402.42321 
L 495.801036 323.565114 
L 497.189165 323.565114 
L 497.213275 402.42321 
L 498.18538 323.565114 
L 498.967215 323.565114 
L 498.996048 402.42321 
L 499.964704 402.42321 
L 500.742446 402.42321 
L 500.759663 323.565114 
L 501.734218 323.565114 
L 501.927271 323.565114 
L 501.930712 402.42321 
L 502.912316 323.565114 
L 503.932952 323.565114 
L 503.950163 402.42321 
L 504.920044 323.565114 
L 506.466628 323.565114 
L 506.48731 402.42321 
L 507.452475 323.565114 
L 508.961895 323.565114 
L 508.975674 402.42321 
L 509.95693 323.565114 
L 512.309798 323.565114 
L 512.320145 402.42321 
L 513.309246 323.565114 
L 516.119048 323.565114 
L 516.139744 402.42321 
L 517.104683 323.565114 
L 517.495185 323.565114 
L 517.928857 402.42321 
L 518.480225 323.565114 
L 520.3479 323.565114 
L 520.354791 402.42321 
L 521.343089 323.565114 
L 522.920069 323.565114 
L 523.165215 402.42321 
L 523.662205 402.42321 
L 524.12752 402.42321 
L 524.161981 323.565114 
L 525.115751 323.565114 
L 525.724454 323.565114 
L 525.833623 402.42321 
L 526.720787 402.42321 
L 526.854922 402.42321 
L 526.9647 323.565114 
L 527.853788 323.565114 
L 528.366567 323.565114 
L 528.384545 402.42321 
L 529.360722 402.42321 
L 529.377953 402.42321 
L 529.395183 323.565114 
L 530.363871 323.565114 
L 530.635465 323.565114 
L 530.644829 402.42321 
L 531.633749 402.42321 
L 531.705073 402.42321 
L 531.722309 323.565114 
L 532.699359 323.565114 
L 532.836034 323.565114 
L 532.849825 402.42321 
L 533.822911 323.565114 
L 534.86856 323.565114 
L 534.885798 402.42321 
L 535.864311 323.565114 
L 536.748334 323.565114 
L 536.769735 402.42321 
L 537.746664 323.565114 
L 538.750235 323.565114 
L 538.763991 402.42321 
L 539.744382 323.565114 
L 540.557452 323.565114 
L 540.573914 402.42321 
L 541.556149 323.565114 
L 541.699252 323.565114 
L 541.715041 402.42321 
L 542.685818 402.42321 
L 543.381886 402.42321 
L 543.399094 323.565114 
L 544.366687 347.294895 
L 544.38336 347.294895 
L 544.43312 323.565114 
L 544.521157 402.42321 
L 545.369908 402.42321 
L 545.387138 402.42321 
L 545.387138 378.765781 
L 546.377391 402.42321 
L 546.4463 402.42321 
L 546.581899 323.565114 
L 547.438395 402.42321 
L 547.481455 402.42321 
L 547.481455 367.591983 
L 548.354897 402.42321 
L 551.492686 402.42321 
L 551.578376 139.589178 
L 552.481813 402.42321 
L 552.522138 402.42321 
L 552.659877 361.02271 
L 553.521389 402.42321 
L 557.708845 402.42321 
L 557.726063 323.565114 
L 558.702142 402.42321 
L 559.100891 402.42321 
L 559.118122 323.565114 
L 560.100532 402.42321 
L 560.494979 402.42321 
L 560.512201 323.565114 
L 561.49408 402.42321 
L 561.981068 402.42321 
L 561.998298 323.565114 
L 562.975188 402.42321 
L 563.507344 402.42321 
L 563.524596 323.565114 
L 564.498144 402.42321 
L 565.197399 402.42321 
L 565.214629 323.565114 
L 566.188318 323.565114 
L 566.213911 323.565114 
L 566.231147 402.42321 
L 567.202181 323.565114 
L 568.107939 323.881138 
L 568.12402 402.42321 
L 568.943857 323.565114 
L 569.106567 323.565114 
L 570.167347 323.565114 
L 570.232152 402.42321 
L 571.153742 402.42321 
L 571.170944 402.42321 
L 571.486872 323.565114 
L 572.167776 323.565114 
L 572.218647 323.565114 
L 572.232155 402.42321 
L 573.214338 323.565114 
L 573.679858 323.565114 
L 573.700531 402.42321 
L 574.673777 402.42321 
L 574.7293 402.42321 
L 574.898795 323.565114 
L 575.706582 402.42321 
L 575.961886 402.42321 
L 575.979117 323.565114 
L 576.955493 402.42321 
L 577.375501 402.42321 
L 577.392747 323.565114 
L 578.37092 402.42321 
L 578.921472 402.42321 
L 578.921472 361.02271 
L 579.875755 402.42321 
L 584.236629 402.42321 
L 584.76893 323.565114 
L 585.224949 323.565114 
L 585.807027 324.475925 
L 585.817343 402.42321 
L 586.675194 323.565114 
L 586.805642 402.42321 
L 587.34915 402.42321 
L 587.34915 369.12045 
L 587.926918 402.42321 
L 589.505065 402.42321 
L 589.588271 323.565114 
L 590.498823 402.411379 
L 591.219237 402.42321 
L 591.236464 323.565114 
L 592.216858 402.42321 
L 592.791878 402.42321 
L 592.826333 323.565114 
L 593.628816 402.42321 
L 597.742482 402.42321 
L 598.43951 386.90305 
L 598.73221 400.332169 
L 598.818372 400.317383 
L 598.818372 402.42321 
L 599.619763 400.311469 
L 599.809316 402.42321 
L 600.303113 402.42321 
L 600.866475 386.135859 
L 601.292112 400.332169 
L 601.326568 400.332169 
L 601.326568 402.42321 
L 602.320548 402.42321 
L 602.47676 402.42321 
L 603.040961 385.822595 
L 603.472011 400.332169 
L 603.52367 400.317383 
L 603.52367 402.42321 
L 604.142149 398.211557 
L 604.52123 402.42321 
L 604.989534 402.42321 
L 605.540133 386.753318 
L 605.978642 398.241128 
L 606.013097 398.241128 
L 606.0303 402.42321 
L 607.00949 402.42321 
L 610.689461 402.42321 
L 611.123072 323.565114 
L 611.681147 323.565114 
L 624.909881 323.565114 
L 624.909881 402.42321 
L 625.903883 323.565114 
L 632.650966 323.565114 
L 632.806039 402.42321 
L 633.638917 323.565114 
L 636.023744 323.565114 
L 636.03748 402.42321 
L 637.009094 396.508853 
L 637.043555 396.508853 
L 637.043555 402.42321 
L 637.56754 139.589178 
L 637.79659 402.42321 
L 639.320012 402.42321 
L 639.337243 323.565114 
L 640.311544 323.565114 
L 641.84504 323.565114 
L 642.102994 402.42321 
L 642.844489 323.565114 
L 647.927376 323.565114 
L 648.11661 402.42321 
L 648.918381 323.565114 
L 649.170854 323.565114 
L 649.18808 402.42321 
L 650.155885 352.715009 
L 650.173093 352.715009 
L 650.173093 323.565114 
L 650.813353 402.42321 
L 651.162615 323.565114 
L 654.673737 323.565114 
L 654.687491 402.42321 
L 655.661823 323.565114 
L 655.948442 323.565114 
L 655.961953 402.42321 
L 656.935473 323.565114 
L 659.372527 323.565114 
L 659.386335 402.42321 
L 659.905541 402.42321 
L 663.40984 402.42321 
L 663.427092 323.565114 
L 664.407327 402.42321 
L 665.189001 402.42321 
L 665.206204 323.565114 
L 666.186961 402.42321 
L 666.62276 402.42321 
L 666.640012 323.565114 
L 667.271148 402.42321 
L 668.346886 402.42321 
L 668.919344 323.565114 
L 669.337914 323.565114 
L 669.872741 323.565114 
L 669.872741 402.42321 
L 670.856294 323.565114 
L 671.280178 323.565114 
L 671.293975 402.42321 
L 671.691634 402.42321 
L 673.013961 402.42321 
L 673.031165 323.565114 
L 673.998941 402.42321 
L 674.757067 402.42321 
L 674.791523 323.565114 
L 675.751036 402.42321 
L 676.157571 402.42321 
L 676.174823 323.565114 
L 676.795894 402.42321 
L 677.86861 402.42321 
L 677.948215 323.565114 
L 678.867257 402.42321 
L 678.870713 402.42321 
L 679.613826 323.565114 
L 679.867734 323.565114 
L 680.234801 323.565114 
L 680.245149 402.42321 
L 681.177096 402.42321 
L 681.304297 402.42321 
L 681.321514 323.565114 
L 682.303186 402.42321 
L 682.715459 402.42321 
L 682.732689 323.565114 
L 683.708761 402.42321 
L 684.082185 402.42321 
L 684.09942 323.565114 
L 685.080751 402.42321 
L 685.452449 402.42321 
L 685.469679 323.565114 
L 686.447739 402.42321 
L 686.823618 402.42321 
L 686.840849 323.565114 
L 687.818381 402.42321 
L 688.341053 402.42321 
L 688.358283 323.565114 
L 689.324175 402.42321 
L 689.936022 402.42321 
L 689.953274 323.565114 
L 690.935446 402.42321 
L 691.70363 402.42321 
L 691.72086 323.565114 
L 692.688248 323.565114 
L 692.791338 324.475925 
L 692.798234 402.42321 
L 693.604639 323.565114 
L 693.785745 323.565114 
L 694.782863 323.565114 
L 694.802453 402.42321 
L 695.773992 323.565114 
L 696.193067 323.565114 
L 696.216243 402.42321 
L 697.191085 402.42321 
L 697.869111 402.42321 
L 697.886328 323.565114 
L 698.868833 402.42321 
L 699.220227 402.42321 
L 699.237457 323.565114 
L 700.216225 402.42321 
L 700.515344 402.42321 
L 700.532572 323.565114 
L 701.512852 402.42321 
L 701.870994 402.42321 
L 701.888224 323.565114 
L 702.868956 402.42321 
L 703.237843 402.42321 
L 703.25508 323.565114 
L 704.235717 402.42321 
L 704.73922 402.42321 
L 704.756451 323.565114 
L 705.727663 402.42321 
L 706.361487 402.42321 
L 706.372014 323.565114 
L 707.356846 396.508853 
L 707.374076 396.508853 
L 707.374076 402.42321 
L 708.159503 323.565114 
L 708.365127 323.565114 
L 709.2996 323.565114 
L 709.323702 402.42321 
L 710.290127 323.565114 
L 711.390219 323.565114 
L 711.406379 402.42321 
L 712.377854 323.565114 
L 713.8516 323.565114 
L 713.868811 402.42321 
L 714.845309 323.565114 
L 716.455561 323.565114 
L 716.465907 402.42321 
L 717.451676 323.565114 
L 719.60363 323.565114 
L 719.624281 402.42321 
L 720.600217 323.565114 
L 721.430837 323.565114 
L 721.437733 402.42321 
L 722.41879 323.565114 
L 722.934845 323.565114 
L 722.95254 402.42321 
L 723.927546 323.565114 
L 725.211467 323.565114 
L 725.214913 402.42321 
L 725.583304 402.42321 
L 726.448874 402.42321 
L 726.483354 323.565114 
L 727.437295 323.565114 
L 727.699241 323.565114 
L 727.706141 402.42321 
L 728.694516 323.565114 
L 729.860826 323.565114 
L 729.881515 402.42321 
L 730.847764 323.565114 
L 732.186819 323.565114 
L 732.204046 402.42321 
L 733.182036 323.565114 
L 733.501848 323.565114 
L 734.007948 402.42321 
L 734.50104 323.565114 
L 734.563103 323.565114 
L 734.563103 402.42321 
L 735.548507 402.42321 
L 735.700165 402.42321 
L 735.717391 323.565114 
L 736.698935 323.565114 
L 736.81874 323.565114 
L 736.839359 402.42321 
L 737.811969 402.42321 
L 738.612511 402.42321 
L 738.741597 323.565114 
L 739.608429 402.42321 
L 740.548657 402.42321 
L 740.719831 323.565114 
L 741.527096 402.42321 
L 743.490212 402.42321 
L 743.516632 323.565114 
L 744.486009 402.42321 
L 744.729912 402.42321 
L 744.729912 389.811908 
L 745.321137 402.42321 
L 746.97704 402.42321 
L 746.993022 323.565114 
L 747.976383 330.261744 
L 747.99354 330.261744 
L 748.010722 323.565114 
L 748.99261 323.565114 
L 749.354345 323.565114 
L 749.593626 402.42321 
L 750.340817 323.565114 
L 750.356294 323.565114 
L 750.386521 402.42321 
L 751.353664 383.784271 
L 751.369946 383.784271 
L 751.38026 390.922289 
L 751.665982 323.565114 
L 752.353564 323.565114 
L 752.646487 323.565114 
L 752.853201 402.42321 
L 753.63109 402.42321 
L 754.232411 402.42321 
L 754.232411 323.565114 
L 755.231385 323.565114 
L 755.455207 324.272866 
L 756.33205 402.42321 
L 755.834557 323.565114 
L 756.441774 402.42321 
L 757.110196 402.42321 
L 757.127439 323.565114 
L 758.106639 323.565114 
L 758.401456 323.565114 
L 758.692884 402.42321 
L 759.400097 402.42321 
L 760.227304 402.42321 
L 760.30834 323.565114 
L 761.225061 323.565114 
L 761.231967 323.565114 
L 761.242297 402.42321 
L 762.219926 402.42321 
L 762.237169 402.42321 
L 762.237169 323.565114 
L 763.23302 402.42321 
L 763.900845 402.42321 
L 763.950806 393.462328 
L 764.55845 402.42321 
L 767.874829 402.42321 
L 767.892044 323.565114 
L 768.862589 323.565114 
L 769.363626 323.565114 
L 769.384516 402.42321 
L 770.360841 323.565114 
L 771.825212 323.565114 
L 771.835559 402.42321 
L 772.817935 323.565114 
L 774.318077 323.565114 
L 774.338617 402.42321 
L 775.309224 323.565114 
L 776.859377 323.565114 
L 776.886054 402.42321 
L 777.857492 323.565114 
L 777.891932 323.565114 
L 777.903014 402.42321 
L 778.888828 323.565114 
L 779.494737 323.565114 
L 779.511657 402.42321 
L 780.485324 323.565114 
L 781.583085 323.565114 
L 781.583085 402.42321 
L 782.43189 402.42321 
L 783.004559 402.42321 
L 783.05117 323.565114 
L 783.993705 323.565114 
L 784.163565 323.565114 
L 784.183974 402.42321 
L 785.159631 323.565114 
L 786.078165 323.565114 
L 786.095286 402.42321 
L 787.071227 323.565114 
L 787.992308 323.565114 
L 788.012458 402.42321 
L 788.988091 323.565114 
L 789.912786 323.565114 
L 789.926555 402.42321 
L 790.902879 323.565114 
L 790.994951 323.565114 
L 791.785307 402.42321 
L 791.978221 402.42321 
L 792.651421 402.42321 
L 792.668652 323.565114 
L 793.639056 323.565114 
L 793.774979 323.565114 
L 793.785335 402.42321 
L 794.774538 402.42321 
L 795.584802 402.42321 
L 795.71644 323.565114 
L 796.567311 402.42321 
L 796.610387 402.42321 
L 797.209679 361.02271 
L 797.605974 361.02271 
L 797.674895 361.02271 
L 797.950579 402.42321 
L 798.572702 139.589178 
L 798.601422 139.589178 
L 798.719788 139.589178 
L 798.73622 402.42321 
L 799.081587 402.42321 
L 802.703822 402.42321 
L 802.755478 343.750224 
L 803.700966 402.42321 
L 804.017974 402.42321 
L 804.052428 360.400717 
L 804.925793 402.42321 
L 815.060213 402.42321 
L 815.754386 385.084385 
L 816.049492 400.332169 
L 816.17011 400.323298 
L 816.17011 402.42321 
L 816.795968 400.311469 
L 817.157822 402.42321 
L 817.680956 402.42321 
L 818.272934 384.029658 
L 818.664883 398.241128 
L 818.699338 398.241128 
L 818.751045 402.42321 
L 819.330101 398.205642 
L 819.698055 402.42321 
L 819.91377 402.42321 
L 820.45513 384.624642 
L 820.901682 400.341041 
L 820.98782 400.341041 
L 820.98782 402.42321 
L 821.573026 398.211557 
L 821.986562 402.42321 
L 822.493362 402.42321 
L 822.99004 383.355421 
L 823.493072 398.241128 
L 823.527527 398.241128 
L 823.54473 402.42321 
L 824.498674 402.42321 
L 828.522027 402.42321 
L 828.955638 375.979462 
L 829.513714 375.979462 
L 842.742448 375.979462 
L 842.742448 402.42321 
L 843.73645 375.979462 
L 850.500763 376.640556 
L 850.638605 402.42321 
L 851.024172 375.979462 
L 851.488703 375.979462 
L 853.85631 375.979462 
L 853.870047 402.42321 
L 854.841661 400.439929 
L 854.876122 400.439929 
L 854.876122 402.42321 
L 855.400106 314.286198 
L 855.629157 402.42321 
L 857.152578 402.42321 
L 857.169809 375.979462 
L 858.144111 375.979462 
L 859.694816 376.429468 
L 859.93556 402.42321 
L 860.28158 375.979462 
L 860.694288 375.979462 
L 865.759943 375.979462 
L 865.949177 402.42321 
L 866.750948 375.979462 
L 867.003421 375.979462 
L 867.020646 402.42321 
L 867.988452 385.754393 
L 868.00566 385.754393 
L 868.00566 375.979462 
L 868.64592 402.42321 
L 868.995181 375.979462 
L 872.490836 376.573653 
L 872.501173 402.42321 
L 872.826764 375.979462 
L 873.479456 375.979462 
L 873.770144 376.502651 
L 873.78047 402.42321 
L 874.176259 375.979462 
L 874.762502 376.317016 
L 877.218083 375.979462 
L 877.231845 402.42321 
L 877.757225 402.42321 
L 881.275443 402.42321 
L 881.292646 375.979462 
L 882.263398 402.42321 
L 883.027089 402.42321 
L 883.061569 375.979462 
L 884.026095 402.42321 
L 884.432844 402.42321 
L 884.450072 375.979462 
L 885.05064 402.42321 
L 886.134822 402.42321 
L 886.729504 375.979462 
L 887.124683 375.979462 
L 887.65259 375.979462 
L 887.659487 402.42321 
L 888.65121 375.979462 
L 889.073985 375.979462 
L 889.098093 402.42321 
L 889.491158 402.42321 
L 890.832661 402.42321 
L 890.849889 375.979462 
L 891.817423 402.42321 
L 892.571722 402.42321 
L 892.606177 375.979462 
L 893.571716 402.42321 
L 893.943405 402.42321 
L 893.960657 375.979462 
L 894.612801 402.42321 
L 895.693465 402.42321 
L 895.773934 375.979462 
L 896.687871 402.42321 
L 897.410098 402.42321 
L 897.427328 375.979462 
L 898.396591 402.42321 
L 899.104709 402.42321 
L 899.121937 375.979462 
L 900.103256 402.42321 
L 900.501993 402.42321 
L 900.519223 375.979462 
L 901.496212 402.42321 
L 901.846369 402.42321 
L 901.86358 375.979462 
L 902.843768 402.42321 
L 903.201917 402.42321 
L 903.219147 375.979462 
L 904.195175 402.42321 
L 904.55424 402.42321 
L 904.571474 375.979462 
L 905.547379 402.42321 
L 906.019888 402.42321 
L 906.037118 375.979462 
L 907.006908 402.42321 
L 907.579806 402.42321 
L 907.597033 375.979462 
L 908.570134 402.42321 
L 909.321062 402.42321 
L 909.338293 375.979462 
L 910.318106 375.979462 
L 910.378687 375.979462 
L 910.389046 402.42321 
L 911.374541 375.979462 
L 912.34637 375.979462 
L 912.353282 402.42321 
L 913.337035 375.979462 
L 913.746858 375.979462 
L 913.768349 402.42321 
L 914.741059 402.42321 
L 915.384482 402.42321 
L 915.401729 375.979462 
L 916.383748 402.42321 
L 916.728398 402.42321 
L 916.745628 375.979462 
L 917.727188 402.42321 
L 918.0165 402.42321 
L 918.033728 375.979462 
L 919.010869 402.42321 
L 919.323622 402.42321 
L 919.340852 375.979462 
L 920.323483 402.42321 
L 920.660517 402.42321 
L 920.668181 375.979462 
L 921.653357 402.42321 
L 922.125871 402.42321 
L 922.143101 375.979462 
L 923.114992 402.42321 
L 923.694852 402.42321 
L 923.712104 375.979462 
L 924.686236 402.42321 
L 925.408581 402.42321 
L 925.425812 375.979462 
L 926.404855 375.979462 
L 926.513986 375.979462 
L 926.531187 402.42321 
L 927.505251 375.979462 
L 928.545019 375.979462 
L 928.545019 402.42321 
L 929.532797 375.979462 
L 930.916785 375.979462 
L 930.94434 402.42321 
L 931.912323 375.979462 
L 933.372677 375.979462 
L 933.391717 402.42321 
L 934.362117 375.979462 
L 936.399191 375.979462 
L 936.426735 402.42321 
L 937.390811 375.979462 
L 938.234144 376.18169 
L 938.234144 383.152328 
L 938.251349 375.979462 
L 939.219773 375.979462 
L 939.615105 375.979462 
L 939.633545 402.42321 
L 940.604764 375.979462 
L 941.873298 375.979462 
L 941.883638 402.42321 
L 942.862928 375.979462 
L 943.438676 375.979462 
L 943.452439 402.42321 
L 944.433299 375.979462 
L 945.493318 375.979462 
L 945.493318 402.42321 
L 946.480085 375.979462 
L 947.836143 375.979462 
L 947.849912 402.42321 
L 948.831887 392.742947 
L 948.8491 392.742947 
L 949.109344 375.979462 
L 948.849661 402.42321 
L 949.84352 375.979462 
L 950.225389 375.979462 
L 950.232258 402.42321 
L 950.621216 402.42321 
L 951.795615 402.42321 
L 952.633641 375.979462 
L 952.793303 401.353223 
L 952.90492 401.777069 
L 953.289702 375.979462 
L 953.738529 402.42321 
L 953.90166 402.42321 
L 954.060757 402.42321 
L 954.078 375.979462 
L 955.057044 402.42321 
L 955.107158 402.42321 
L 955.263541 375.979462 
L 956.101884 394.786983 
L 956.119139 394.786983 
L 956.131722 402.42321 
L 957.11824 386.074164 
L 957.134873 386.074164 
L 957.184683 375.979462 
L 957.570954 402.42321 
L 958.117553 402.42321 
L 959.941444 402.42321 
L 959.975875 375.979462 
L 960.936272 402.42321 
L 961.144622 402.42321 
L 961.169902 394.008875 
L 961.813498 402.42321 
L 963.447841 402.42321 
L 963.465072 375.979462 
L 964.442948 402.42321 
L 967.811033 402.42321 
L 967.828259 375.979462 
L 968.807882 375.979462 
L 969.961437 376.640556 
L 970.099279 402.42321 
L 970.76572 375.979462 
L 970.951186 375.979462 
L 970.991306 375.979462 
L 971.015419 402.42321 
L 971.98917 402.42321 
L 972.073617 402.42321 
L 972.284339 375.979462 
L 973.05858 375.979462 
L 973.299649 376.362566 
L 974.229976 402.42321 
L 973.70098 375.979462 
L 974.294306 402.42321 
L 974.994161 402.42321 
L 975.011391 375.979462 
L 975.992662 375.979462 
L 976.509211 375.979462 
L 976.888047 402.42321 
L 977.505321 402.42321 
L 977.856482 402.42321 
L 978.058339 375.979462 
L 978.845095 388.138892 
L 978.860872 388.138892 
L 978.986354 375.979462 
L 979.447057 402.42321 
L 979.854992 402.42321 
L 980.274678 402.42321 
L 980.291893 375.979462 
L 981.265871 401.574405 
L 981.283101 401.574405 
L 981.283101 400.063033 
L 981.300345 402.42321 
L 982.256461 402.42321 
L 982.40815 402.42321 
L 982.459827 375.979462 
L 983.406776 402.42321 
L 984.059057 402.42321 
L 984.059057 400.876621 
L 984.630272 402.42321 
L 986.570078 402.42321 
L 986.604529 375.979462 
L 987.569339 375.979462 
L 987.912777 375.979462 
L 987.926531 402.42321 
L 988.909587 398.456648 
L 988.926817 398.456648 
L 988.944048 402.42321 
L 989.566171 314.286198 
L 989.913184 402.42321 
L 991.385612 402.42321 
L 991.385612 375.979462 
L 992.381794 375.979462 
L 992.543583 375.979462 
L 992.547039 402.42321 
L 993.539306 375.979462 
L 994.642438 375.979462 
L 994.642438 402.42321 
L 995.632976 375.979462 
L 996.489272 375.979462 
L 996.50306 402.42321 
L 997.487195 375.979462 
L 998.468719 376.550382 
L 998.472171 402.42321 
L 999.336403 375.979462 
L 999.459111 375.979462 
L 1000.324548 375.979462 
L 1000.345221 402.42321 
L 1001.312902 375.979462 
L 1002.210248 376.640556 
L 1002.220462 402.42321 
L 1003.107183 375.979462 
L 1003.206412 375.979462 
L 1004.136999 375.979462 
L 1004.136999 402.42321 
L 1005.136793 375.979462 
L 1006.010903 375.979462 
L 1006.031456 402.42321 
L 1007.002051 375.979462 
L 1008.085764 375.979462 
L 1008.085764 402.42321 
L 1009.081192 375.979462 
L 1009.404537 375.979462 
L 1010.145726 402.42321 
L 1010.390365 402.42321 
L 1011.011834 402.42321 
L 1011.029065 375.979462 
L 1012.000138 375.979462 
L 1012.376668 375.979462 
L 1012.400741 402.42321 
L 1013.36531 375.979462 
L 1013.518099 375.979462 
L 1013.632354 402.42321 
L 1014.50874 375.979462 
L 1014.684012 375.979462 
L 1014.70442 402.42321 
L 1015.675401 396.611634 
L 1015.688713 396.611634 
L 1015.702441 402.42321 
L 1016.071464 375.979462 
L 1016.685301 402.42321 
L 1016.972756 402.42321 
L 1016.972756 392.506804 
L 1017.762388 402.42321 
L 1019.237107 402.42321 
L 1019.254336 375.979462 
L 1020.115313 402.42321 
L 1021.04718 402.42321 
L 1021.081641 375.979462 
L 1022.044633 402.42321 
L 1022.8682 402.42321 
L 1022.878579 375.979462 
L 1023.866691 402.42321 
L 1024.375757 402.42321 
L 1024.427437 376.984721 
L 1025.220475 402.42321 
L 1032.768035 402.42321 
L 1032.768035 386.651591 
L 1034.113716 386.651591 
L 1034.286695 384.855379 
L 1035.180664 384.855379 
L 1035.180664 323.565114 
L 1037.042966 323.825872 
L 1037.042966 402.42321 
L 1038.006807 374.174488 
L 1038.094497 374.174488 
L 1038.797285 324.98456 
L 1038.973725 388.929714 
L 1039.31833 388.929714 
L 1039.31833 402.42321 
L 1048.501784 402.42321 
L 1048.501784 387.965892 
L 1049.847466 387.965892 
L 1050.020445 384.855379 
L 1050.914414 384.855379 
L 1050.914414 323.565114 
L 1052.776716 323.59105 
L 1052.776716 402.42321 
L 1053.741179 374.156964 
L 1053.828847 374.156964 
L 1054.531243 324.967036 
L 1054.707466 388.947238 
L 1055.052071 388.947238 
L 1055.052071 402.42321 
L 1064.235525 402.42321 
L 1064.235525 387.965892 
L 1065.581206 387.965892 
L 1065.754186 384.855379 
L 1066.648155 384.855379 
L 1066.648155 323.565114 
L 1068.510457 323.671485 
L 1068.859582 385.608912 
L 1069.474924 374.148202 
L 1069.562654 374.148202 
L 1070.264916 324.967036 
L 1070.441204 388.947238 
L 1070.785809 388.947238 
L 1070.785809 402.42321 
L 1079.969263 402.42321 
L 1079.969263 387.965892 
L 1081.314944 387.965892 
L 1081.314944 384.899189 
L 1081.487924 402.379357 
L 1082.381893 402.379357 
L 1082.381893 323.565114 
L 1084.244195 323.825872 
L 1084.244195 402.42321 
L 1085.208658 374.156964 
L 1085.296326 374.156964 
L 1085.998722 324.967036 
L 1086.174945 388.947238 
L 1086.51955 388.947238 
L 1086.51955 402.42321 
L 1095.703004 402.42321 
L 1095.703004 394.5374 
L 1097.221664 394.5374 
L 1098.115633 323.565114 
L 1099.977935 323.59105 
L 1099.977935 402.42321 
L 1100.942398 374.156964 
L 1101.030066 374.156964 
L 1101.556345 338.01367 
L 1101.732463 389.376576 
L 1101.908686 388.947238 
L 1102.25329 388.947238 
L 1102.25329 402.42321 
L 1113.849374 402.380486 
L 1113.849374 342.665202 
L 1115.433108 342.665202 
L 1115.711676 402.42321 
L 1115.710423 342.391657 
L 1116.412872 400.748798 
L 1116.588386 400.261858 
L 1117.466135 389.702742 
L 1117.987028 389.284137 
L 1117.987028 402.42321 
L 1136.868868 402.42321 
L 1136.868868 402.42321 
" clip-path="url(#pc66010778b)" style="fill: none; stroke: #000000; stroke-width: 0.8; stroke-linecap: square"/>
   </g>
  </g>
  <g id="axes_2">
   <g id="matplotlib.axis_3">
    <g id="xtick_8">
     <g id="line2d_28">
      <defs>
       <path id="m2d353661a9" d="M 0 0 
L 0 -3.5 
" style="stroke: #000000; stroke-width: 0.8"/>
      </defs>
      <g>
       <use xlink:href="#m2d353661a9" x="171.324361" y="83.079861" style="stroke: #000000; stroke-width: 0.8"/>
      </g>
     </g>
     <g id="text_17">
      <!-- N140 -->
      <g transform="translate(175.213448 75.372754) rotate(-45) scale(0.08 -0.08)">
       <defs>
        <path id="SimHei-4e" d="M 2850 125 
L 2225 125 
L 850 3225 
L 825 3225 
L 825 125 
L 250 125 
L 250 4400 
L 875 4400 
L 2250 1300 
L 2275 1300 
L 2275 4400 
L 2850 4400 
L 2850 125 
z
" transform="scale(0.015625)"/>
       </defs>
       <use xlink:href="#SimHei-4e"/>
       <use xlink:href="#SimHei-31" transform="translate(50 0)"/>
       <use xlink:href="#SimHei-34" transform="translate(100 0)"/>
       <use xlink:href="#SimHei-30" transform="translate(150 0)"/>
      </g>
     </g>
    </g>
    <g id="xtick_9">
     <g id="line2d_29">
      <g>
       <use xlink:href="#m2d353661a9" x="267.407998" y="83.079861" style="stroke: #000000; stroke-width: 0.8"/>
      </g>
     </g>
     <g id="text_18">
      <!-- N1050 -->
      <g transform="translate(271.297086 75.372754) rotate(-45) scale(0.08 -0.08)">
       <use xlink:href="#SimHei-4e"/>
       <use xlink:href="#SimHei-31" transform="translate(50 0)"/>
       <use xlink:href="#SimHei-30" transform="translate(100 0)"/>
       <use xlink:href="#SimHei-35" transform="translate(150 0)"/>
       <use xlink:href="#SimHei-30" transform="translate(200 0)"/>
      </g>
     </g>
    </g>
    <g id="xtick_10">
     <g id="line2d_30">
      <g>
       <use xlink:href="#m2d353661a9" x="330.239307" y="83.079861" style="stroke: #000000; stroke-width: 0.8"/>
      </g>
     </g>
     <g id="text_19">
      <!-- N7090.17 -->
      <g transform="translate(334.128394 75.372754) rotate(-45) scale(0.08 -0.08)">
       <defs>
        <path id="SimHei-37" d="M 850 150 
Q 1300 2050 2425 3925 
L 275 3925 
L 275 4375 
L 2950 4375 
L 2950 3950 
Q 1775 2050 1400 150 
L 850 150 
z
" transform="scale(0.015625)"/>
        <path id="SimHei-39" d="M 800 75 
Q 1350 1000 1700 1750 
Q 1075 1650 662 1912 
Q 250 2175 162 2625 
Q 75 3075 175 3437 
Q 275 3800 487 4037 
Q 700 4275 1000 4375 
Q 1300 4475 1537 4475 
Q 1775 4475 2025 4375 
Q 2275 4275 2475 4075 
Q 2675 3875 2750 3662 
Q 2825 3450 2825 3112 
Q 2825 2775 2575 2250 
Q 2325 1725 1350 75 
L 800 75 
z
M 662 2875 
Q 700 2550 937 2337 
Q 1175 2125 1450 2150 
Q 1725 2175 1887 2300 
Q 2050 2425 2200 2725 
Q 2300 3100 2250 3362 
Q 2200 3625 1987 3800 
Q 1775 3975 1525 3975 
Q 1375 4000 1137 3900 
Q 900 3800 762 3500 
Q 625 3200 662 2875 
z
" transform="scale(0.015625)"/>
        <path id="SimHei-2e" d="M 1075 125 
L 500 125 
L 500 675 
L 1075 675 
L 1075 125 
z
" transform="scale(0.015625)"/>
       </defs>
       <use xlink:href="#SimHei-4e"/>
       <use xlink:href="#SimHei-37" transform="translate(50 0)"/>
       <use xlink:href="#SimHei-30" transform="translate(100 0)"/>
       <use xlink:href="#SimHei-39" transform="translate(150 0)"/>
       <use xlink:href="#SimHei-30" transform="translate(200 0)"/>
       <use xlink:href="#SimHei-2e" transform="translate(250 0)"/>
       <use xlink:href="#SimHei-31" transform="translate(300 0)"/>
       <use xlink:href="#SimHei-37" transform="translate(350 0)"/>
      </g>
     </g>
    </g>
    <g id="xtick_11">
     <g id="line2d_31">
      <g>
       <use xlink:href="#m2d353661a9" x="403.717974" y="83.079861" style="stroke: #000000; stroke-width: 0.8"/>
      </g>
     </g>
     <g id="text_20">
      <!-- N2250 -->
      <g transform="translate(407.607061 75.372754) rotate(-45) scale(0.08 -0.08)">
       <use xlink:href="#SimHei-4e"/>
       <use xlink:href="#SimHei-32" transform="translate(50 0)"/>
       <use xlink:href="#SimHei-32" transform="translate(100 0)"/>
       <use xlink:href="#SimHei-35" transform="translate(150 0)"/>
       <use xlink:href="#SimHei-30" transform="translate(200 0)"/>
      </g>
     </g>
    </g>
    <g id="xtick_12">
     <g id="line2d_32">
      <g>
       <use xlink:href="#m2d353661a9" x="479.225939" y="83.079861" style="stroke: #000000; stroke-width: 0.8"/>
      </g>
     </g>
     <g id="text_21">
      <!-- N2940 -->
      <g transform="translate(483.115026 75.372754) rotate(-45) scale(0.08 -0.08)">
       <use xlink:href="#SimHei-4e"/>
       <use xlink:href="#SimHei-32" transform="translate(50 0)"/>
       <use xlink:href="#SimHei-39" transform="translate(100 0)"/>
       <use xlink:href="#SimHei-34" transform="translate(150 0)"/>
       <use xlink:href="#SimHei-30" transform="translate(200 0)"/>
      </g>
     </g>
    </g>
    <g id="xtick_13">
     <g id="line2d_33">
      <g>
       <use xlink:href="#m2d353661a9" x="541.049155" y="83.079861" style="stroke: #000000; stroke-width: 0.8"/>
      </g>
     </g>
     <g id="text_22">
      <!-- N8760.10 -->
      <g transform="translate(544.938242 75.372754) rotate(-45) scale(0.08 -0.08)">
       <defs>
        <path id="SimHei-38" d="M 175 1375 
Q 175 1675 325 1962 
Q 475 2250 825 2425 
Q 525 2600 425 2812 
Q 325 3025 312 3300 
Q 300 3575 387 3775 
Q 475 3975 650 4150 
Q 825 4325 1037 4387 
Q 1250 4450 1500 4450 
Q 1750 4450 1950 4400 
Q 2150 4350 2375 4187 
Q 2600 4025 2700 3725 
Q 2800 3425 2687 3025 
Q 2575 2625 2100 2400 
Q 2525 2275 2700 2012 
Q 2875 1750 2875 1375 
Q 2875 1000 2762 775 
Q 2650 550 2512 400 
Q 2375 250 2137 162 
Q 1900 75 1537 75 
Q 1175 75 912 162 
Q 650 250 475 425 
Q 300 600 237 837 
Q 175 1075 175 1375 
z
M 687 1400 
Q 675 1100 787 875 
Q 900 650 1200 587 
Q 1500 525 1825 600 
Q 2150 675 2275 950 
Q 2400 1225 2362 1500 
Q 2325 1775 2050 1962 
Q 1775 2150 1450 2125 
Q 1125 2100 912 1900 
Q 700 1700 687 1400 
z
M 775 3350 
Q 775 3100 950 2875 
Q 1125 2650 1500 2650 
Q 1875 2650 2062 2875 
Q 2250 3100 2237 3412 
Q 2225 3725 2012 3875 
Q 1800 4025 1437 4000 
Q 1075 3975 925 3787 
Q 775 3600 775 3350 
z
" transform="scale(0.015625)"/>
        <path id="SimHei-36" d="M 250 1612 
Q 275 1975 387 2225 
Q 500 2475 725 2850 
L 1750 4450 
L 2325 4450 
L 1275 2800 
Q 1950 2975 2350 2750 
Q 2750 2525 2887 2237 
Q 3025 1950 3037 1612 
Q 3050 1275 2937 950 
Q 2825 625 2537 362 
Q 2250 100 1737 75 
Q 1225 50 862 262 
Q 500 475 362 862 
Q 225 1250 250 1612 
z
M 1025 787 
Q 1250 550 1625 525 
Q 2000 500 2250 775 
Q 2500 1050 2500 1575 
Q 2500 2100 2187 2300 
Q 1875 2500 1487 2450 
Q 1100 2400 925 2075 
Q 750 1750 775 1387 
Q 800 1025 1025 787 
z
" transform="scale(0.015625)"/>
       </defs>
       <use xlink:href="#SimHei-4e"/>
       <use xlink:href="#SimHei-38" transform="translate(50 0)"/>
       <use xlink:href="#SimHei-37" transform="translate(100 0)"/>
       <use xlink:href="#SimHei-36" transform="translate(150 0)"/>
       <use xlink:href="#SimHei-30" transform="translate(200 0)"/>
       <use xlink:href="#SimHei-2e" transform="translate(250 0)"/>
       <use xlink:href="#SimHei-31" transform="translate(300 0)"/>
       <use xlink:href="#SimHei-30" transform="translate(350 0)"/>
      </g>
     </g>
    </g>
    <g id="xtick_14">
     <g id="line2d_34">
      <g>
       <use xlink:href="#m2d353661a9" x="615.803357" y="83.079861" style="stroke: #000000; stroke-width: 0.8"/>
      </g>
     </g>
     <g id="text_23">
      <!-- N3940.2 -->
      <g transform="translate(619.692444 75.372754) rotate(-45) scale(0.08 -0.08)">
       <use xlink:href="#SimHei-4e"/>
       <use xlink:href="#SimHei-33" transform="translate(50 0)"/>
       <use xlink:href="#SimHei-39" transform="translate(100 0)"/>
       <use xlink:href="#SimHei-34" transform="translate(150 0)"/>
       <use xlink:href="#SimHei-30" transform="translate(200 0)"/>
       <use xlink:href="#SimHei-2e" transform="translate(250 0)"/>
       <use xlink:href="#SimHei-32" transform="translate(300 0)"/>
      </g>
     </g>
    </g>
    <g id="xtick_15">
     <g id="line2d_35">
      <g>
       <use xlink:href="#m2d353661a9" x="688.003176" y="83.079861" style="stroke: #000000; stroke-width: 0.8"/>
      </g>
     </g>
     <g id="text_24">
      <!-- N2400.17 -->
      <g transform="translate(691.892263 75.372754) rotate(-45) scale(0.08 -0.08)">
       <use xlink:href="#SimHei-4e"/>
       <use xlink:href="#SimHei-32" transform="translate(50 0)"/>
       <use xlink:href="#SimHei-34" transform="translate(100 0)"/>
       <use xlink:href="#SimHei-30" transform="translate(150 0)"/>
       <use xlink:href="#SimHei-30" transform="translate(200 0)"/>
       <use xlink:href="#SimHei-2e" transform="translate(250 0)"/>
       <use xlink:href="#SimHei-31" transform="translate(300 0)"/>
       <use xlink:href="#SimHei-37" transform="translate(350 0)"/>
      </g>
     </g>
    </g>
    <g id="xtick_16">
     <g id="line2d_36">
      <g>
       <use xlink:href="#m2d353661a9" x="748.458469" y="83.079861" style="stroke: #000000; stroke-width: 0.8"/>
      </g>
     </g>
     <g id="text_25">
      <!-- N6770 -->
      <g transform="translate(752.347556 75.372754) rotate(-45) scale(0.08 -0.08)">
       <use xlink:href="#SimHei-4e"/>
       <use xlink:href="#SimHei-36" transform="translate(50 0)"/>
       <use xlink:href="#SimHei-37" transform="translate(100 0)"/>
       <use xlink:href="#SimHei-37" transform="translate(150 0)"/>
       <use xlink:href="#SimHei-30" transform="translate(200 0)"/>
      </g>
     </g>
    </g>
    <g id="xtick_17">
     <g id="line2d_37">
      <g>
       <use xlink:href="#m2d353661a9" x="824.64384" y="83.079861" style="stroke: #000000; stroke-width: 0.8"/>
      </g>
     </g>
     <g id="text_26">
      <!-- N3310 -->
      <g transform="translate(828.532928 75.372754) rotate(-45) scale(0.08 -0.08)">
       <use xlink:href="#SimHei-4e"/>
       <use xlink:href="#SimHei-33" transform="translate(50 0)"/>
       <use xlink:href="#SimHei-33" transform="translate(100 0)"/>
       <use xlink:href="#SimHei-31" transform="translate(150 0)"/>
       <use xlink:href="#SimHei-30" transform="translate(200 0)"/>
      </g>
     </g>
    </g>
    <g id="xtick_18">
     <g id="line2d_38">
      <g>
       <use xlink:href="#m2d353661a9" x="902.17492" y="83.079861" style="stroke: #000000; stroke-width: 0.8"/>
      </g>
     </g>
     <g id="text_27">
      <!-- N2720 -->
      <g transform="translate(906.064007 75.372754) rotate(-45) scale(0.08 -0.08)">
       <use xlink:href="#SimHei-4e"/>
       <use xlink:href="#SimHei-32" transform="translate(50 0)"/>
       <use xlink:href="#SimHei-37" transform="translate(100 0)"/>
       <use xlink:href="#SimHei-32" transform="translate(150 0)"/>
       <use xlink:href="#SimHei-30" transform="translate(200 0)"/>
      </g>
     </g>
    </g>
    <g id="xtick_19">
     <g id="line2d_39">
      <g>
       <use xlink:href="#m2d353661a9" x="959.884224" y="83.079861" style="stroke: #000000; stroke-width: 0.8"/>
      </g>
     </g>
     <g id="text_28">
      <!-- N6820 -->
      <g transform="translate(963.773312 75.372754) rotate(-45) scale(0.08 -0.08)">
       <use xlink:href="#SimHei-4e"/>
       <use xlink:href="#SimHei-36" transform="translate(50 0)"/>
       <use xlink:href="#SimHei-38" transform="translate(100 0)"/>
       <use xlink:href="#SimHei-32" transform="translate(150 0)"/>
       <use xlink:href="#SimHei-30" transform="translate(200 0)"/>
      </g>
     </g>
    </g>
    <g id="xtick_20">
     <g id="line2d_40">
      <g>
       <use xlink:href="#m2d353661a9" x="1132.672831" y="83.079861" style="stroke: #000000; stroke-width: 0.8"/>
      </g>
     </g>
     <g id="text_29">
      <!-- N0 -->
      <g transform="translate(1136.561918 75.372754) rotate(-45) scale(0.08 -0.08)">
       <use xlink:href="#SimHei-4e"/>
       <use xlink:href="#SimHei-30" transform="translate(50 0)"/>
      </g>
     </g>
    </g>
    <g id="text_30">
     <!-- 指令行号 N -->
     <g transform="translate(682.201563 44.85625) scale(0.1 -0.1)">
      <defs>
       <path id="SimHei-6307" d="M 5625 2225 
Q 5600 1925 5600 1350 
L 5600 300 
Q 5600 -225 5625 -525 
L 5125 -525 
L 5125 -125 
L 3300 -125 
L 3300 -625 
L 2800 -625 
Q 2825 -300 2825 300 
L 2825 1350 
Q 2825 1925 2800 2225 
L 5625 2225 
z
M 500 25 
Q 1075 -25 1175 37 
Q 1275 100 1275 275 
L 1275 1675 
Q 1050 1600 925 1537 
Q 800 1475 475 1275 
Q 400 1525 225 1800 
Q 625 1900 825 1975 
Q 1025 2050 1275 2125 
L 1275 3300 
L 1100 3300 
Q 775 3300 450 3275 
L 450 3725 
Q 750 3700 1100 3700 
L 1275 3700 
L 1275 4450 
Q 1275 4800 1250 5125 
L 1775 5125 
Q 1750 4850 1750 4450 
L 1750 3700 
Q 2075 3700 2425 3725 
L 2425 3275 
Q 2050 3300 1750 3300 
L 1750 2325 
Q 1850 2350 2025 2425 
L 2375 2575 
Q 2350 2300 2375 2100 
Q 2225 2050 2062 1987 
Q 1900 1925 1750 1850 
L 1750 100 
Q 1725 -200 1575 -337 
Q 1425 -475 675 -525 
Q 625 -250 500 25 
z
M 3325 5025 
Q 3300 4675 3300 4125 
Q 4125 4275 4512 4412 
Q 4900 4550 5225 4725 
Q 5325 4475 5575 4250 
Q 5450 4225 5237 4175 
Q 5025 4125 4725 4050 
Q 4425 3975 4037 3887 
Q 3650 3800 3300 3725 
L 3300 3175 
Q 3275 2925 3700 2925 
L 4925 2925 
Q 5300 2925 5387 3087 
Q 5475 3250 5550 3600 
Q 5750 3400 6050 3300 
Q 5825 2725 5700 2637 
Q 5575 2550 5275 2525 
L 3350 2525 
Q 3050 2525 2937 2687 
Q 2825 2850 2825 2975 
L 2825 4125 
Q 2825 4775 2800 5025 
L 3325 5025 
z
M 5125 275 
L 5125 875 
L 3300 875 
L 3300 275 
L 5125 275 
z
M 5125 1250 
L 5125 1825 
L 3300 1825 
L 3300 1250 
L 5125 1250 
z
" transform="scale(0.015625)"/>
       <path id="SimHei-4ee4" d="M 5375 2075 
L 5375 1550 
Q 4925 1325 4450 937 
Q 3975 550 3575 125 
L 4250 -325 
Q 4050 -550 3875 -775 
Q 3100 -125 1850 425 
L 2150 875 
Q 2400 775 3125 350 
Q 3800 1025 4450 1625 
L 2025 1625 
Q 1500 1625 975 1600 
L 975 2100 
Q 1525 2075 2025 2075 
L 5375 2075 
z
M 3375 4850 
Q 4450 3550 6200 2900 
Q 5950 2625 5800 2350 
Q 4150 3150 3100 4475 
Q 2075 3125 625 2225 
Q 400 2525 200 2700 
Q 875 2975 1675 3675 
Q 2475 4375 2950 5300 
Q 3275 5175 3550 5050 
Q 3475 5000 3375 4850 
z
M 2925 3600 
Q 3175 3350 3750 2725 
L 3300 2325 
Q 3050 2700 2550 3225 
Q 2750 3375 2925 3600 
z
" transform="scale(0.015625)"/>
       <path id="SimHei-53f7" d="M 5025 4925 
Q 5000 4550 5000 4075 
Q 5000 3600 5025 3175 
L 1400 3175 
Q 1425 3525 1425 4000 
Q 1425 4500 1400 4925 
L 5025 4925 
z
M 5175 2625 
Q 5650 2625 6025 2650 
L 6025 2200 
Q 5650 2225 5175 2225 
L 2450 2225 
Q 2350 1875 2225 1450 
L 5175 1450 
Q 5100 1050 5062 775 
Q 5025 500 4950 112 
Q 4875 -275 4650 -412 
Q 4425 -550 3225 -625 
Q 3125 -350 2975 -50 
Q 3875 -75 4112 -50 
Q 4350 -25 4425 212 
Q 4500 450 4575 1025 
L 1600 1025 
Q 1825 1625 1950 2225 
L 1350 2225 
Q 825 2225 375 2200 
L 375 2650 
Q 825 2625 1350 2625 
L 5175 2625 
z
M 4525 3575 
L 4525 4525 
L 1900 4525 
L 1900 3575 
L 4525 3575 
z
" transform="scale(0.015625)"/>
      </defs>
      <use xlink:href="#SimHei-6307"/>
      <use xlink:href="#SimHei-4ee4" transform="translate(100 0)"/>
      <use xlink:href="#SimHei-884c" transform="translate(200 0)"/>
      <use xlink:href="#SimHei-53f7" transform="translate(300 0)"/>
      <use xlink:href="#SimHei-20" transform="translate(400 0)"/>
      <use xlink:href="#SimHei-4e" transform="translate(450 0)"/>
     </g>
    </g>
   </g>
   <g id="patch_7">
    <path d="M 69.942188 430.020783 
L 69.942188 83.079861 
" style="fill: none; stroke: #000000; stroke-width: 0.8; stroke-linejoin: miter; stroke-linecap: square"/>
   </g>
   <g id="patch_8">
    <path d="M 1344.460938 430.020783 
L 1344.460938 83.079861 
" style="fill: none; stroke: #000000; stroke-width: 0.8; stroke-linejoin: miter; stroke-linecap: square"/>
   </g>
   <g id="patch_9">
    <path d="M 69.942187 430.020783 
L 1344.460938 430.020783 
" style="fill: none; stroke: #000000; stroke-width: 0.8; stroke-linejoin: miter; stroke-linecap: square"/>
   </g>
   <g id="patch_10">
    <path d="M 69.942187 83.079861 
L 1344.460938 83.079861 
" style="fill: none; stroke: #000000; stroke-width: 0.8; stroke-linejoin: miter; stroke-linecap: square"/>
   </g>
  </g>
 </g>
 <defs>
  <clipPath id="pc66010778b">
   <rect x="69.942188" y="83.079861" width="1274.51875" height="346.940922"/>
  </clipPath>
 </defs>
</svg>
