<?xml version="1.0" encoding="utf-8" standalone="no"?>
<!DOCTYPE svg PUBLIC "-//W3C//DTD SVG 1.1//EN"
  "http://www.w3.org/Graphics/SVG/1.1/DTD/svg11.dtd">
<svg xmlns:xlink="http://www.w3.org/1999/xlink" width="1397.770937pt" height="606.493596pt" viewBox="0 0 1397.770937 606.493596" xmlns="http://www.w3.org/2000/svg" version="1.1">
 <metadata>
  <rdf:RDF xmlns:dc="http://purl.org/dc/elements/1.1/" xmlns:cc="http://creativecommons.org/ns#" xmlns:rdf="http://www.w3.org/1999/02/22-rdf-syntax-ns#">
   <cc:Work>
    <dc:type rdf:resource="http://purl.org/dc/dcmitype/StillImage"/>
    <dc:date>2025-12-24T14:43:20.373024</dc:date>
    <dc:format>image/svg+xml</dc:format>
    <dc:creator>
     <cc:Agent>
      <dc:title>Matplotlib v3.10.7, https://matplotlib.org/</dc:title>
     </cc:Agent>
    </dc:creator>
   </cc:Work>
  </rdf:RDF>
 </metadata>
 <defs>
  <style type="text/css">*{stroke-linejoin: round; stroke-linecap: butt}</style>
 </defs>
 <g id="figure_1">
  <g id="patch_1">
   <path d="M 0 606.493596 
L 1397.770937 606.493596 
L 1397.770937 0 
L 0 0 
z
" style="fill: #ffffff"/>
  </g>
  <g id="axes_1">
   <g id="patch_2">
    <path d="M 50.442188 564.660783 
L 1390.570937 564.660783 
L 1390.570937 83.079861 
L 50.442188 83.079861 
z
" style="fill: #ffffff"/>
   </g>
   <g id="matplotlib.axis_1">
    <g id="xtick_1">
     <g id="line2d_1">
      <path d="M 140.876072 564.660783 
L 140.876072 83.079861 
" clip-path="url(#pbc85ae1cd6)" style="fill: none; stroke-dasharray: 1.85,0.8; stroke-dashoffset: 0; stroke: #b0b0b0; stroke-opacity: 0.3; stroke-width: 0.5"/>
     </g>
     <g id="line2d_2">
      <defs>
       <path id="m6357c41922" d="M 0 0 
L 0 3.5 
" style="stroke: #333333; stroke-width: 0.8"/>
      </defs>
      <g>
       <use xlink:href="#m6357c41922" x="140.876072" y="564.660783" style="fill: #333333; stroke: #333333; stroke-width: 0.8"/>
      </g>
     </g>
     <g id="text_1">
      <!-- 0 -->
      <g style="fill: #333333" transform="translate(137.626072 580.598283) scale(0.13 -0.13)">
       <defs>
        <path id="SimHei-30" d="M 225 2537 
Q 250 3200 412 3587 
Q 575 3975 875 4225 
Q 1175 4475 1612 4475 
Q 2050 4475 2375 4112 
Q 2700 3750 2800 3200 
Q 2900 2650 2862 1937 
Q 2825 1225 2612 775 
Q 2400 325 1975 150 
Q 1550 -25 1125 187 
Q 700 400 525 750 
Q 350 1100 275 1487 
Q 200 1875 225 2537 
z
M 750 2687 
Q 675 2000 800 1462 
Q 925 925 1212 700 
Q 1500 475 1800 612 
Q 2100 750 2237 1162 
Q 2375 1575 2375 2062 
Q 2375 2550 2337 2950 
Q 2300 3350 2112 3675 
Q 1925 4000 1612 4012 
Q 1300 4025 1062 3700 
Q 825 3375 750 2687 
z
" transform="scale(0.015625)"/>
       </defs>
       <use xlink:href="#SimHei-30"/>
      </g>
     </g>
    </g>
    <g id="xtick_2">
     <g id="line2d_3">
      <path d="M 322.048254 564.660783 
L 322.048254 83.079861 
" clip-path="url(#pbc85ae1cd6)" style="fill: none; stroke-dasharray: 1.85,0.8; stroke-dashoffset: 0; stroke: #b0b0b0; stroke-opacity: 0.3; stroke-width: 0.5"/>
     </g>
     <g id="line2d_4">
      <g>
       <use xlink:href="#m6357c41922" x="322.048254" y="564.660783" style="fill: #333333; stroke: #333333; stroke-width: 0.8"/>
      </g>
     </g>
     <g id="text_2">
      <!-- 5000 -->
      <g style="fill: #333333" transform="translate(309.048254 580.598283) scale(0.13 -0.13)">
       <defs>
        <path id="SimHei-35" d="M 550 1325 
Q 725 650 1150 575 
Q 1575 500 1837 662 
Q 2100 825 2212 1087 
Q 2325 1350 2312 1675 
Q 2300 2000 2137 2225 
Q 1975 2450 1725 2525 
Q 1475 2600 1162 2525 
Q 850 2450 650 2175 
L 225 2225 
Q 275 2375 700 4375 
L 2675 4375 
L 2675 3925 
L 1075 3925 
Q 950 3250 825 2850 
Q 1200 3025 1525 3012 
Q 1850 3000 2150 2862 
Q 2450 2725 2587 2487 
Q 2725 2250 2787 2012 
Q 2850 1775 2837 1500 
Q 2825 1225 2725 937 
Q 2625 650 2425 462 
Q 2225 275 1937 162 
Q 1650 50 1275 75 
Q 900 100 562 350 
Q 225 600 100 1200 
L 550 1325 
z
" transform="scale(0.015625)"/>
       </defs>
       <use xlink:href="#SimHei-35"/>
       <use xlink:href="#SimHei-30" transform="translate(50 0)"/>
       <use xlink:href="#SimHei-30" transform="translate(100 0)"/>
       <use xlink:href="#SimHei-30" transform="translate(150 0)"/>
      </g>
     </g>
    </g>
    <g id="xtick_3">
     <g id="line2d_5">
      <path d="M 503.220437 564.660783 
L 503.220437 83.079861 
" clip-path="url(#pbc85ae1cd6)" style="fill: none; stroke-dasharray: 1.85,0.8; stroke-dashoffset: 0; stroke: #b0b0b0; stroke-opacity: 0.3; stroke-width: 0.5"/>
     </g>
     <g id="line2d_6">
      <g>
       <use xlink:href="#m6357c41922" x="503.220437" y="564.660783" style="fill: #333333; stroke: #333333; stroke-width: 0.8"/>
      </g>
     </g>
     <g id="text_3">
      <!-- 10000 -->
      <g style="fill: #333333" transform="translate(486.970437 580.598283) scale(0.13 -0.13)">
       <defs>
        <path id="SimHei-31" d="M 1400 3600 
Q 1075 3275 575 2975 
L 575 3450 
Q 1200 3875 1600 4450 
L 1900 4450 
L 1900 150 
L 1400 150 
L 1400 3600 
z
" transform="scale(0.015625)"/>
       </defs>
       <use xlink:href="#SimHei-31"/>
       <use xlink:href="#SimHei-30" transform="translate(50 0)"/>
       <use xlink:href="#SimHei-30" transform="translate(100 0)"/>
       <use xlink:href="#SimHei-30" transform="translate(150 0)"/>
       <use xlink:href="#SimHei-30" transform="translate(200 0)"/>
      </g>
     </g>
    </g>
    <g id="xtick_4">
     <g id="line2d_7">
      <path d="M 684.392619 564.660783 
L 684.392619 83.079861 
" clip-path="url(#pbc85ae1cd6)" style="fill: none; stroke-dasharray: 1.85,0.8; stroke-dashoffset: 0; stroke: #b0b0b0; stroke-opacity: 0.3; stroke-width: 0.5"/>
     </g>
     <g id="line2d_8">
      <g>
       <use xlink:href="#m6357c41922" x="684.392619" y="564.660783" style="fill: #333333; stroke: #333333; stroke-width: 0.8"/>
      </g>
     </g>
     <g id="text_4">
      <!-- 15000 -->
      <g style="fill: #333333" transform="translate(668.142619 580.598283) scale(0.13 -0.13)">
       <use xlink:href="#SimHei-31"/>
       <use xlink:href="#SimHei-35" transform="translate(50 0)"/>
       <use xlink:href="#SimHei-30" transform="translate(100 0)"/>
       <use xlink:href="#SimHei-30" transform="translate(150 0)"/>
       <use xlink:href="#SimHei-30" transform="translate(200 0)"/>
      </g>
     </g>
    </g>
    <g id="xtick_5">
     <g id="line2d_9">
      <path d="M 865.564801 564.660783 
L 865.564801 83.079861 
" clip-path="url(#pbc85ae1cd6)" style="fill: none; stroke-dasharray: 1.85,0.8; stroke-dashoffset: 0; stroke: #b0b0b0; stroke-opacity: 0.3; stroke-width: 0.5"/>
     </g>
     <g id="line2d_10">
      <g>
       <use xlink:href="#m6357c41922" x="865.564801" y="564.660783" style="fill: #333333; stroke: #333333; stroke-width: 0.8"/>
      </g>
     </g>
     <g id="text_5">
      <!-- 20000 -->
      <g style="fill: #333333" transform="translate(849.314801 580.598283) scale(0.13 -0.13)">
       <defs>
        <path id="SimHei-32" d="M 300 250 
Q 325 625 650 925 
Q 975 1225 1475 1862 
Q 1975 2500 2125 2850 
Q 2275 3200 2237 3450 
Q 2200 3700 2000 3862 
Q 1800 4025 1537 4000 
Q 1275 3975 1037 3800 
Q 800 3625 675 3275 
L 200 3350 
Q 400 3925 712 4187 
Q 1025 4450 1450 4475 
Q 1700 4500 1900 4462 
Q 2100 4425 2312 4287 
Q 2525 4150 2662 3875 
Q 2800 3600 2762 3212 
Q 2725 2825 2375 2287 
Q 2025 1750 1025 600 
L 2825 600 
L 2825 150 
L 300 150 
L 300 250 
z
" transform="scale(0.015625)"/>
       </defs>
       <use xlink:href="#SimHei-32"/>
       <use xlink:href="#SimHei-30" transform="translate(50 0)"/>
       <use xlink:href="#SimHei-30" transform="translate(100 0)"/>
       <use xlink:href="#SimHei-30" transform="translate(150 0)"/>
       <use xlink:href="#SimHei-30" transform="translate(200 0)"/>
      </g>
     </g>
    </g>
    <g id="xtick_6">
     <g id="line2d_11">
      <path d="M 1046.736984 564.660783 
L 1046.736984 83.079861 
" clip-path="url(#pbc85ae1cd6)" style="fill: none; stroke-dasharray: 1.85,0.8; stroke-dashoffset: 0; stroke: #b0b0b0; stroke-opacity: 0.3; stroke-width: 0.5"/>
     </g>
     <g id="line2d_12">
      <g>
       <use xlink:href="#m6357c41922" x="1046.736984" y="564.660783" style="fill: #333333; stroke: #333333; stroke-width: 0.8"/>
      </g>
     </g>
     <g id="text_6">
      <!-- 25000 -->
      <g style="fill: #333333" transform="translate(1030.486984 580.598283) scale(0.13 -0.13)">
       <use xlink:href="#SimHei-32"/>
       <use xlink:href="#SimHei-35" transform="translate(50 0)"/>
       <use xlink:href="#SimHei-30" transform="translate(100 0)"/>
       <use xlink:href="#SimHei-30" transform="translate(150 0)"/>
       <use xlink:href="#SimHei-30" transform="translate(200 0)"/>
      </g>
     </g>
    </g>
    <g id="xtick_7">
     <g id="line2d_13">
      <path d="M 1227.909166 564.660783 
L 1227.909166 83.079861 
" clip-path="url(#pbc85ae1cd6)" style="fill: none; stroke-dasharray: 1.85,0.8; stroke-dashoffset: 0; stroke: #b0b0b0; stroke-opacity: 0.3; stroke-width: 0.5"/>
     </g>
     <g id="line2d_14">
      <g>
       <use xlink:href="#m6357c41922" x="1227.909166" y="564.660783" style="fill: #333333; stroke: #333333; stroke-width: 0.8"/>
      </g>
     </g>
     <g id="text_7">
      <!-- 30000 -->
      <g style="fill: #333333" transform="translate(1211.659166 580.598283) scale(0.13 -0.13)">
       <defs>
        <path id="SimHei-33" d="M 250 1225 
L 700 1300 
Q 800 975 1025 762 
Q 1250 550 1587 562 
Q 1925 575 2125 837 
Q 2325 1100 2300 1437 
Q 2275 1775 2037 1962 
Q 1800 2150 1275 2225 
L 1275 2550 
Q 1800 2600 2037 2825 
Q 2275 3050 2250 3412 
Q 2225 3775 1925 3937 
Q 1625 4100 1287 3975 
Q 950 3850 750 3275 
L 300 3350 
Q 450 3800 712 4100 
Q 975 4400 1425 4450 
Q 1875 4500 2212 4337 
Q 2550 4175 2687 3837 
Q 2825 3500 2725 3100 
Q 2625 2700 2150 2400 
Q 2500 2250 2687 1950 
Q 2875 1650 2812 1162 
Q 2750 675 2375 375 
Q 2000 75 1525 87 
Q 1050 100 700 387 
Q 350 675 250 1225 
z
" transform="scale(0.015625)"/>
       </defs>
       <use xlink:href="#SimHei-33"/>
       <use xlink:href="#SimHei-30" transform="translate(50 0)"/>
       <use xlink:href="#SimHei-30" transform="translate(100 0)"/>
       <use xlink:href="#SimHei-30" transform="translate(150 0)"/>
       <use xlink:href="#SimHei-30" transform="translate(200 0)"/>
      </g>
     </g>
    </g>
    <g id="text_8">
     <!-- 行程 s (mm) -->
     <g style="fill: #333333" transform="translate(682.006562 597.543596) scale(0.14 -0.14)">
      <defs>
       <path id="SimHei-884c" d="M 5300 3100 
Q 5775 3100 6175 3125 
L 6175 2625 
Q 5775 2650 5325 2650 
L 4975 2650 
L 4975 -75 
Q 5000 -375 4787 -487 
Q 4575 -600 3950 -675 
Q 3900 -375 3675 -75 
Q 4100 -125 4275 -112 
Q 4450 -100 4475 150 
L 4475 2650 
L 3475 2650 
Q 3000 2650 2575 2625 
L 2575 3125 
Q 3025 3100 3475 3100 
L 5300 3100 
z
M 2300 3400 
Q 2075 3275 1962 3075 
Q 1850 2875 1650 2575 
L 1650 325 
Q 1650 0 1675 -675 
L 1150 -675 
Q 1175 75 1175 450 
L 1175 2050 
Q 950 1675 575 1300 
Q 400 1550 250 1725 
Q 825 2275 1150 2775 
Q 1475 3275 1725 3725 
Q 1975 3575 2300 3400 
z
M 4875 4800 
Q 5300 4800 5750 4825 
L 5750 4350 
Q 5300 4375 4825 4375 
L 3900 4375 
Q 3350 4375 2950 4350 
L 2950 4825 
Q 3350 4800 3900 4800 
L 4875 4800 
z
M 2075 4925 
Q 1875 4900 1550 4387 
Q 1225 3875 650 3250 
Q 500 3450 325 3625 
Q 725 4025 1050 4487 
Q 1375 4950 1525 5300 
Q 1775 5150 2075 4925 
z
" transform="scale(0.015625)"/>
       <path id="SimHei-7a0b" d="M 5825 4975 
Q 5800 4425 5800 3975 
Q 5800 3550 5825 3125 
L 3025 3125 
Q 3050 3600 3050 4025 
Q 3050 4450 3025 4975 
L 5825 4975 
z
M 400 4825 
Q 825 4875 1362 4987 
Q 1900 5100 2275 5275 
Q 2450 4950 2625 4725 
Q 2450 4750 2262 4712 
Q 2075 4675 1850 4650 
L 1850 3425 
Q 2200 3425 2600 3450 
L 2600 2975 
Q 2200 3000 1850 3000 
L 1850 800 
Q 1850 250 1875 -675 
L 1375 -675 
Q 1400 250 1400 775 
L 1400 1925 
Q 1050 1225 625 600 
Q 450 850 225 1050 
Q 575 1400 850 1850 
Q 1125 2300 1350 3000 
Q 725 3000 425 2975 
L 425 3450 
Q 850 3425 1050 3425 
L 1400 3425 
L 1400 4550 
Q 1075 4475 575 4400 
Q 500 4625 400 4825 
z
M 5100 2500 
Q 5500 2500 5950 2525 
L 5950 2075 
Q 5500 2100 5100 2100 
L 4625 2100 
L 4625 1300 
L 4900 1300 
Q 5275 1300 5775 1325 
L 5775 850 
Q 5275 875 4975 875 
L 4625 875 
L 4625 0 
L 5225 0 
Q 5675 0 6175 25 
L 6175 -450 
Q 5775 -425 5225 -425 
L 3550 -425 
Q 3000 -425 2600 -475 
L 2600 25 
Q 3000 0 3550 0 
L 4150 0 
L 4150 875 
L 3800 875 
Q 3400 875 3050 825 
L 3050 1325 
Q 3400 1300 3800 1300 
L 4150 1300 
L 4150 2100 
L 3750 2100 
Q 3300 2100 2900 2075 
L 2900 2525 
Q 3300 2500 3750 2500 
L 5100 2500 
z
M 5275 3575 
L 5275 4550 
L 3500 4550 
L 3500 3575 
L 5275 3575 
z
M 2300 2400 
Q 2550 2025 2825 1525 
Q 2675 1425 2425 1225 
Q 2175 1775 1925 2125 
Q 2075 2250 2300 2400 
z
" transform="scale(0.015625)"/>
       <path id="SimHei-20" transform="scale(0.015625)"/>
       <path id="SimHei-73" d="M 2750 900 
Q 2750 500 2437 287 
Q 2125 75 1650 75 
Q 1050 75 725 312 
Q 400 550 400 1000 
L 900 1000 
Q 900 700 1112 600 
Q 1325 500 1625 500 
Q 1925 500 2075 612 
Q 2225 725 2225 900 
Q 2225 1025 2100 1150 
Q 1975 1275 1475 1350 
Q 900 1425 687 1637 
Q 475 1850 475 2200 
Q 475 2500 762 2737 
Q 1050 2975 1600 2975 
Q 2100 2975 2387 2750 
Q 2675 2525 2675 2150 
L 2175 2150 
Q 2175 2375 2012 2462 
Q 1850 2550 1600 2550 
Q 1275 2550 1137 2437 
Q 1000 2325 1000 2175 
Q 1000 2000 1125 1900 
Q 1250 1800 1650 1750 
Q 2300 1650 2525 1437 
Q 2750 1225 2750 900 
z
" transform="scale(0.015625)"/>
       <path id="SimHei-28" d="M 2975 -200 
L 2700 -475 
Q 2075 125 1762 775 
Q 1450 1425 1450 2250 
Q 1450 3075 1762 3725 
Q 2075 4375 2700 5000 
L 2975 4725 
Q 2400 4175 2112 3587 
Q 1825 3000 1825 2250 
Q 1825 1500 2112 912 
Q 2400 325 2975 -200 
z
" transform="scale(0.015625)"/>
       <path id="SimHei-6d" d="M 3050 125 
L 2550 125 
L 2550 2150 
Q 2550 2300 2500 2400 
Q 2450 2500 2300 2500 
Q 2125 2500 1975 2312 
Q 1825 2125 1825 1825 
L 1825 125 
L 1325 125 
L 1325 2150 
Q 1325 2300 1275 2400 
Q 1225 2500 1075 2500 
Q 900 2500 750 2312 
Q 600 2125 600 1825 
L 600 125 
L 100 125 
L 100 2925 
L 600 2925 
L 600 2550 
Q 725 2750 900 2862 
Q 1075 2975 1275 2975 
Q 1475 2975 1612 2862 
Q 1750 2750 1800 2550 
Q 1925 2750 2087 2862 
Q 2250 2975 2450 2975 
Q 2750 2975 2900 2812 
Q 3050 2650 3050 2350 
L 3050 125 
z
" transform="scale(0.015625)"/>
       <path id="SimHei-29" d="M 1675 2250 
Q 1675 1425 1362 775 
Q 1050 125 425 -475 
L 150 -200 
Q 725 325 1012 912 
Q 1300 1500 1300 2250 
Q 1300 3000 1012 3587 
Q 725 4175 150 4725 
L 425 5000 
Q 1050 4375 1362 3725 
Q 1675 3075 1675 2250 
z
" transform="scale(0.015625)"/>
      </defs>
      <use xlink:href="#SimHei-884c"/>
      <use xlink:href="#SimHei-7a0b" transform="translate(100 0)"/>
      <use xlink:href="#SimHei-20" transform="translate(200 0)"/>
      <use xlink:href="#SimHei-73" transform="translate(250 0)"/>
      <use xlink:href="#SimHei-20" transform="translate(300 0)"/>
      <use xlink:href="#SimHei-28" transform="translate(350 0)"/>
      <use xlink:href="#SimHei-6d" transform="translate(400 0)"/>
      <use xlink:href="#SimHei-6d" transform="translate(450 0)"/>
      <use xlink:href="#SimHei-29" transform="translate(500 0)"/>
     </g>
    </g>
   </g>
   <g id="matplotlib.axis_2">
    <g id="ytick_1">
     <g id="line2d_15">
      <path d="M 50.442188 526.35321 
L 1390.570937 526.35321 
" clip-path="url(#pbc85ae1cd6)" style="fill: none; stroke-dasharray: 1.85,0.8; stroke-dashoffset: 0; stroke: #b0b0b0; stroke-opacity: 0.3; stroke-width: 0.5"/>
     </g>
     <g id="line2d_16">
      <defs>
       <path id="m88b4bf8f77" d="M 0 0 
L -3.5 0 
" style="stroke: #333333; stroke-width: 0.8"/>
      </defs>
      <g>
       <use xlink:href="#m88b4bf8f77" x="50.442188" y="526.35321" style="fill: #333333; stroke: #333333; stroke-width: 0.8"/>
      </g>
     </g>
     <g id="text_9">
      <!-- 0.0 -->
      <g style="fill: #333333" transform="translate(23.942188 530.82196) scale(0.13 -0.13)">
       <defs>
        <path id="SimHei-2e" d="M 1075 125 
L 500 125 
L 500 675 
L 1075 675 
L 1075 125 
z
" transform="scale(0.015625)"/>
       </defs>
       <use xlink:href="#SimHei-30"/>
       <use xlink:href="#SimHei-2e" transform="translate(50 0)"/>
       <use xlink:href="#SimHei-30" transform="translate(100 0)"/>
      </g>
     </g>
    </g>
    <g id="ytick_2">
     <g id="line2d_17">
      <path d="M 50.442188 453.764526 
L 1390.570937 453.764526 
" clip-path="url(#pbc85ae1cd6)" style="fill: none; stroke-dasharray: 1.85,0.8; stroke-dashoffset: 0; stroke: #b0b0b0; stroke-opacity: 0.3; stroke-width: 0.5"/>
     </g>
     <g id="line2d_18">
      <g>
       <use xlink:href="#m88b4bf8f77" x="50.442188" y="453.764526" style="fill: #333333; stroke: #333333; stroke-width: 0.8"/>
      </g>
     </g>
     <g id="text_10">
      <!-- 0.5 -->
      <g style="fill: #333333" transform="translate(23.942188 458.233276) scale(0.13 -0.13)">
       <use xlink:href="#SimHei-30"/>
       <use xlink:href="#SimHei-2e" transform="translate(50 0)"/>
       <use xlink:href="#SimHei-35" transform="translate(100 0)"/>
      </g>
     </g>
    </g>
    <g id="ytick_3">
     <g id="line2d_19">
      <path d="M 50.442188 381.175843 
L 1390.570937 381.175843 
" clip-path="url(#pbc85ae1cd6)" style="fill: none; stroke-dasharray: 1.85,0.8; stroke-dashoffset: 0; stroke: #b0b0b0; stroke-opacity: 0.3; stroke-width: 0.5"/>
     </g>
     <g id="line2d_20">
      <g>
       <use xlink:href="#m88b4bf8f77" x="50.442188" y="381.175843" style="fill: #333333; stroke: #333333; stroke-width: 0.8"/>
      </g>
     </g>
     <g id="text_11">
      <!-- 1.0 -->
      <g style="fill: #333333" transform="translate(23.942188 385.644593) scale(0.13 -0.13)">
       <use xlink:href="#SimHei-31"/>
       <use xlink:href="#SimHei-2e" transform="translate(50 0)"/>
       <use xlink:href="#SimHei-30" transform="translate(100 0)"/>
      </g>
     </g>
    </g>
    <g id="ytick_4">
     <g id="line2d_21">
      <path d="M 50.442188 308.58716 
L 1390.570937 308.58716 
" clip-path="url(#pbc85ae1cd6)" style="fill: none; stroke-dasharray: 1.85,0.8; stroke-dashoffset: 0; stroke: #b0b0b0; stroke-opacity: 0.3; stroke-width: 0.5"/>
     </g>
     <g id="line2d_22">
      <g>
       <use xlink:href="#m88b4bf8f77" x="50.442188" y="308.58716" style="fill: #333333; stroke: #333333; stroke-width: 0.8"/>
      </g>
     </g>
     <g id="text_12">
      <!-- 1.5 -->
      <g style="fill: #333333" transform="translate(23.942188 313.05591) scale(0.13 -0.13)">
       <use xlink:href="#SimHei-31"/>
       <use xlink:href="#SimHei-2e" transform="translate(50 0)"/>
       <use xlink:href="#SimHei-35" transform="translate(100 0)"/>
      </g>
     </g>
    </g>
    <g id="ytick_5">
     <g id="line2d_23">
      <path d="M 50.442188 235.998476 
L 1390.570937 235.998476 
" clip-path="url(#pbc85ae1cd6)" style="fill: none; stroke-dasharray: 1.85,0.8; stroke-dashoffset: 0; stroke: #b0b0b0; stroke-opacity: 0.3; stroke-width: 0.5"/>
     </g>
     <g id="line2d_24">
      <g>
       <use xlink:href="#m88b4bf8f77" x="50.442188" y="235.998476" style="fill: #333333; stroke: #333333; stroke-width: 0.8"/>
      </g>
     </g>
     <g id="text_13">
      <!-- 2.0 -->
      <g style="fill: #333333" transform="translate(23.942188 240.467226) scale(0.13 -0.13)">
       <use xlink:href="#SimHei-32"/>
       <use xlink:href="#SimHei-2e" transform="translate(50 0)"/>
       <use xlink:href="#SimHei-30" transform="translate(100 0)"/>
      </g>
     </g>
    </g>
    <g id="ytick_6">
     <g id="line2d_25">
      <path d="M 50.442188 163.409793 
L 1390.570937 163.409793 
" clip-path="url(#pbc85ae1cd6)" style="fill: none; stroke-dasharray: 1.85,0.8; stroke-dashoffset: 0; stroke: #b0b0b0; stroke-opacity: 0.3; stroke-width: 0.5"/>
     </g>
     <g id="line2d_26">
      <g>
       <use xlink:href="#m88b4bf8f77" x="50.442188" y="163.409793" style="fill: #333333; stroke: #333333; stroke-width: 0.8"/>
      </g>
     </g>
     <g id="text_14">
      <!-- 2.5 -->
      <g style="fill: #333333" transform="translate(23.942188 167.878543) scale(0.13 -0.13)">
       <use xlink:href="#SimHei-32"/>
       <use xlink:href="#SimHei-2e" transform="translate(50 0)"/>
       <use xlink:href="#SimHei-35" transform="translate(100 0)"/>
      </g>
     </g>
    </g>
    <g id="ytick_7">
     <g id="line2d_27">
      <path d="M 50.442188 90.82111 
L 1390.570937 90.82111 
" clip-path="url(#pbc85ae1cd6)" style="fill: none; stroke-dasharray: 1.85,0.8; stroke-dashoffset: 0; stroke: #b0b0b0; stroke-opacity: 0.3; stroke-width: 0.5"/>
     </g>
     <g id="line2d_28">
      <g>
       <use xlink:href="#m88b4bf8f77" x="50.442188" y="90.82111" style="fill: #333333; stroke: #333333; stroke-width: 0.8"/>
      </g>
     </g>
     <g id="text_15">
      <!-- 3.0 -->
      <g style="fill: #333333" transform="translate(23.942188 95.28986) scale(0.13 -0.13)">
       <use xlink:href="#SimHei-33"/>
       <use xlink:href="#SimHei-2e" transform="translate(50 0)"/>
       <use xlink:href="#SimHei-30" transform="translate(100 0)"/>
      </g>
     </g>
    </g>
    <g id="text_16">
     <!-- 功率 P (W) -->
     <g style="fill: #333333" transform="translate(18.192188 358.870322) rotate(-90) scale(0.14 -0.14)">
      <defs>
       <path id="SimHei-529f" d="M 5675 275 
Q 5575 -200 5225 -312 
Q 4875 -425 4450 -475 
Q 4400 -175 4200 100 
Q 4725 75 4937 137 
Q 5150 200 5175 425 
Q 5300 1775 5375 3275 
L 4250 3275 
Q 4225 2550 4125 1925 
Q 4025 1300 3787 850 
Q 3550 400 3250 50 
Q 2950 -300 2550 -650 
Q 2375 -400 2100 -250 
Q 2650 100 2925 425 
Q 3200 750 3400 1162 
Q 3600 1575 3675 2075 
Q 3750 2575 3775 3275 
L 3400 3275 
Q 3100 3275 2800 3250 
L 2800 3725 
Q 3125 3700 3450 3700 
L 3775 3700 
L 3775 4575 
Q 3775 4875 3750 5175 
Q 4075 5100 4325 5075 
Q 4275 4900 4262 4525 
Q 4250 4150 4250 3700 
L 5900 3700 
Q 5875 3350 5850 3037 
Q 5825 2725 5675 275 
z
M 2900 1000 
Q 2475 900 2200 837 
Q 1925 775 1337 600 
Q 750 425 500 350 
Q 400 700 300 900 
Q 450 900 1375 1100 
L 1375 3900 
L 1175 3900 
Q 875 3900 450 3875 
L 450 4350 
Q 850 4325 1175 4325 
L 2100 4325 
Q 2450 4325 2725 4350 
L 2725 3875 
Q 2425 3900 2125 3900 
L 1875 3900 
L 1875 1200 
L 2375 1325 
Q 2575 1375 2850 1450 
L 2900 1000 
z
" transform="scale(0.015625)"/>
       <path id="SimHei-7387" d="M 3325 5150 
Q 3425 4900 3550 4525 
L 4800 4525 
Q 5250 4525 5800 4550 
L 5800 4125 
Q 5250 4175 4775 4175 
L 2800 4175 
Q 2975 4050 3300 3900 
Q 3075 3750 2875 3537 
Q 2675 3325 2475 3125 
L 3275 3125 
Q 3575 3425 3775 3775 
Q 4000 3600 4275 3425 
Q 3950 3250 3600 2875 
Q 3250 2500 2625 2000 
L 3850 2100 
Q 3725 2250 3600 2425 
Q 3750 2475 4000 2650 
Q 4250 2350 4700 1700 
Q 4475 1625 4225 1450 
Q 4175 1600 4025 1775 
Q 3700 1750 3425 1750 
L 3425 1050 
L 5150 1050 
Q 5675 1050 6100 1075 
L 6100 650 
Q 5700 675 5125 675 
L 3425 675 
L 3425 175 
Q 3425 -300 3450 -625 
L 2900 -625 
Q 2925 -300 2925 175 
L 2925 675 
L 1325 675 
Q 825 675 325 650 
L 325 1075 
Q 825 1050 1350 1050 
L 2925 1050 
L 2925 1700 
Q 2700 1675 2475 1637 
Q 2250 1600 2025 1525 
Q 1950 1775 1850 2000 
Q 2075 2025 2325 2200 
Q 2575 2375 2975 2800 
Q 2300 2725 2025 2625 
Q 1975 2875 1850 3175 
Q 2075 3175 2325 3487 
Q 2575 3800 2750 4175 
L 1700 4175 
Q 1150 4175 650 4125 
L 650 4550 
Q 1150 4525 1550 4525 
L 2975 4525 
Q 2900 4825 2800 5025 
Q 3025 5075 3325 5150 
z
M 1625 2575 
Q 1725 2400 1825 2200 
Q 1575 2050 1325 1862 
Q 1075 1675 800 1425 
Q 625 1675 475 1875 
Q 800 2025 1100 2212 
Q 1400 2400 1625 2575 
z
M 4850 2650 
Q 5125 2475 5337 2337 
Q 5550 2200 5875 1950 
Q 5675 1800 5500 1600 
Q 5300 1775 5062 1975 
Q 4825 2175 4575 2325 
Q 4725 2475 4850 2650 
z
M 5725 3525 
Q 5550 3450 5300 3262 
Q 5050 3075 4800 2825 
Q 4625 3050 4475 3175 
Q 4700 3325 4875 3487 
Q 5050 3650 5300 3925 
Q 5525 3700 5725 3525 
z
M 1050 3850 
Q 1425 3600 1775 3275 
Q 1575 3100 1425 2925 
Q 1075 3300 675 3525 
Q 875 3700 1050 3850 
z
" transform="scale(0.015625)"/>
       <path id="SimHei-50" d="M 2950 3100 
Q 2950 2500 2600 2150 
Q 2250 1800 1625 1800 
L 900 1800 
L 900 125 
L 325 125 
L 325 4400 
L 1625 4400 
Q 2250 4400 2600 4050 
Q 2950 3700 2950 3100 
z
M 2375 3100 
Q 2375 3575 2150 3750 
Q 1925 3925 1475 3925 
L 900 3925 
L 900 2275 
L 1475 2275 
Q 1925 2275 2150 2450 
Q 2375 2625 2375 3100 
z
" transform="scale(0.015625)"/>
       <path id="SimHei-57" d="M 3075 4400 
L 2525 75 
L 2025 75 
L 1575 3275 
L 1525 3275 
L 1075 75 
L 575 75 
L 25 4400 
L 575 4400 
L 850 1675 
L 900 1675 
L 1275 4400 
L 1825 4400 
L 2200 1675 
L 2250 1675 
L 2525 4400 
L 3075 4400 
z
" transform="scale(0.015625)"/>
      </defs>
      <use xlink:href="#SimHei-529f"/>
      <use xlink:href="#SimHei-7387" transform="translate(100 0)"/>
      <use xlink:href="#SimHei-20" transform="translate(200 0)"/>
      <use xlink:href="#SimHei-50" transform="translate(250 0)"/>
      <use xlink:href="#SimHei-20" transform="translate(300 0)"/>
      <use xlink:href="#SimHei-28" transform="translate(350 0)"/>
      <use xlink:href="#SimHei-57" transform="translate(400 0)"/>
      <use xlink:href="#SimHei-29" transform="translate(450 0)"/>
     </g>
    </g>
    <g id="text_17">
     <!-- 1e6 -->
     <g style="fill: #333333" transform="translate(50.442188 80.079861) scale(0.1 -0.1)">
      <defs>
       <path id="SimHei-65" d="M 2850 1075 
Q 2800 625 2450 350 
Q 2100 75 1625 75 
Q 1025 75 637 462 
Q 250 850 250 1525 
Q 250 2200 637 2587 
Q 1025 2975 1625 2975 
Q 2150 2975 2487 2637 
Q 2825 2300 2825 1525 
L 800 1525 
Q 800 975 1037 750 
Q 1275 525 1625 525 
Q 1900 525 2075 662 
Q 2250 800 2300 1075 
L 2850 1075 
z
M 2250 1925 
Q 2200 2275 2025 2412 
Q 1850 2550 1575 2550 
Q 1325 2550 1125 2412 
Q 925 2275 825 1925 
L 2250 1925 
z
" transform="scale(0.015625)"/>
       <path id="SimHei-36" d="M 250 1612 
Q 275 1975 387 2225 
Q 500 2475 725 2850 
L 1750 4450 
L 2325 4450 
L 1275 2800 
Q 1950 2975 2350 2750 
Q 2750 2525 2887 2237 
Q 3025 1950 3037 1612 
Q 3050 1275 2937 950 
Q 2825 625 2537 362 
Q 2250 100 1737 75 
Q 1225 50 862 262 
Q 500 475 362 862 
Q 225 1250 250 1612 
z
M 1025 787 
Q 1250 550 1625 525 
Q 2000 500 2250 775 
Q 2500 1050 2500 1575 
Q 2500 2100 2187 2300 
Q 1875 2500 1487 2450 
Q 1100 2400 925 2075 
Q 750 1750 775 1387 
Q 800 1025 1025 787 
z
" transform="scale(0.015625)"/>
      </defs>
      <use xlink:href="#SimHei-31"/>
      <use xlink:href="#SimHei-65" transform="translate(50 0)"/>
      <use xlink:href="#SimHei-36" transform="translate(100 0)"/>
     </g>
    </g>
   </g>
   <g id="patch_3">
    <path d="M 50.442188 564.660783 
L 50.442188 83.079861 
" style="fill: none; stroke: #000000; stroke-width: 0.8; stroke-linejoin: miter; stroke-linecap: square"/>
   </g>
   <g id="patch_4">
    <path d="M 1390.570937 564.660783 
L 1390.570937 83.079861 
" style="fill: none; stroke: #000000; stroke-width: 0.8; stroke-linejoin: miter; stroke-linecap: square"/>
   </g>
   <g id="patch_5">
    <path d="M 50.442188 564.660783 
L 1390.570937 564.660783 
" style="fill: none; stroke: #000000; stroke-width: 0.8; stroke-linejoin: miter; stroke-linecap: square"/>
   </g>
   <g id="patch_6">
    <path d="M 50.442188 83.079861 
L 1390.570937 83.079861 
" style="fill: none; stroke: #000000; stroke-width: 0.8; stroke-linejoin: miter; stroke-linecap: square"/>
   </g>
   <g id="text_18">
    <!-- 主轴功率预测 -->
    <g style="fill: #333333" transform="translate(666.506562 21.614062) scale(0.18 -0.18)">
     <defs>
      <path id="SimHei-4e3b" d="M 4750 3850 
Q 5150 3850 5750 3875 
L 5750 3400 
Q 5150 3425 4750 3425 
L 3425 3425 
L 3425 2175 
L 4425 2175 
Q 4825 2175 5375 2200 
L 5375 1725 
Q 4825 1750 4425 1750 
L 3425 1750 
L 3425 150 
L 5000 150 
Q 5450 150 6050 175 
L 6050 -300 
Q 5450 -275 5000 -275 
L 350 -275 
L 350 200 
Q 950 150 1425 150 
L 2900 150 
L 2900 1750 
L 1925 1750 
Q 1525 1750 975 1725 
L 975 2200 
Q 1575 2175 1925 2175 
L 2900 2175 
L 2900 3425 
L 1650 3425 
Q 1125 3425 625 3400 
L 625 3875 
Q 1175 3850 1675 3850 
L 4750 3850 
z
M 3175 3900 
Q 2875 4350 2400 4875 
Q 2650 5050 2800 5200 
Q 3325 4600 3625 4175 
Q 3475 4100 3175 3900 
z
" transform="scale(0.015625)"/>
      <path id="SimHei-8f74" d="M 4200 3900 
Q 4200 4775 4175 5175 
L 4700 5175 
Q 4675 4800 4675 3900 
L 5950 3900 
Q 5925 3025 5925 1675 
Q 5925 325 5950 -525 
L 5450 -525 
L 5450 100 
L 3425 100 
L 3425 -575 
L 2950 -575 
Q 2975 325 2975 1675 
Q 2975 3025 2950 3900 
L 4200 3900 
z
M 2725 950 
Q 2250 900 2075 875 
Q 2075 200 2100 -600 
L 1575 -600 
Q 1600 200 1600 800 
Q 700 650 450 575 
Q 400 800 275 1075 
Q 700 1100 1600 1250 
L 1600 2075 
L 1100 2075 
Q 850 2075 525 2000 
L 300 2475 
Q 525 2600 700 3025 
Q 875 3450 1025 3925 
Q 700 3925 325 3900 
L 325 4350 
Q 700 4325 1125 4325 
Q 1300 4825 1375 5250 
Q 1625 5150 1925 5100 
Q 1825 4925 1600 4325 
Q 2175 4325 2750 4350 
L 2750 3900 
Q 2200 3925 1475 3925 
Q 1150 3000 925 2475 
L 1600 2475 
Q 1600 3050 1575 3400 
L 2100 3400 
Q 2075 3100 2075 2475 
Q 2425 2475 2625 2500 
L 2625 2050 
Q 2450 2075 2075 2075 
L 2075 1300 
L 2775 1400 
Q 2725 1175 2725 950 
z
M 4200 525 
L 4200 1850 
L 3425 1850 
L 3425 525 
L 4200 525 
z
M 5450 525 
L 5450 1850 
L 4675 1850 
L 4675 525 
L 5450 525 
z
M 4200 2250 
L 4200 3475 
L 3425 3475 
L 3425 2250 
L 4200 2250 
z
M 5450 2250 
L 5450 3475 
L 4675 3475 
L 4675 2250 
L 5450 2250 
z
" transform="scale(0.015625)"/>
      <path id="SimHei-9884" d="M 5200 4800 
Q 5575 4800 5950 4825 
L 5950 4400 
Q 5575 4425 5200 4425 
L 4500 4425 
Q 4425 4050 4350 3600 
L 5725 3600 
Q 5700 3225 5700 2800 
L 5700 1725 
Q 5700 1300 5725 850 
L 5250 850 
L 5250 3225 
L 3550 3225 
L 3550 800 
L 3075 800 
Q 3100 1375 3100 1725 
L 3100 2775 
Q 3100 3175 3075 3600 
L 3900 3600 
Q 4000 4150 4000 4425 
L 3725 4425 
Q 3300 4425 2850 4400 
L 2850 4825 
Q 3325 4800 3725 4800 
L 5200 4800 
z
M 2600 1775 
Q 2350 1825 2150 1825 
Q 2250 2250 2300 2450 
L 1750 2450 
L 1750 125 
Q 1725 -300 1425 -400 
Q 1125 -500 750 -500 
Q 700 -225 575 25 
Q 1125 -25 1212 37 
Q 1300 100 1300 350 
L 1300 2450 
L 1025 2450 
Q 700 2450 350 2425 
L 350 2850 
Q 700 2825 1000 2825 
L 2850 2825 
Q 2725 2325 2600 1775 
z
M 4725 2875 
Q 4625 2575 4600 2100 
Q 4575 1625 4462 1037 
Q 4350 450 3962 62 
Q 3575 -325 2925 -675 
Q 2700 -500 2475 -350 
Q 3075 -125 3437 200 
Q 3800 525 3950 937 
Q 4100 1350 4137 1850 
Q 4175 2350 4175 2925 
L 4725 2875 
z
M 1625 2900 
Q 1275 3275 800 3650 
Q 925 3775 1075 3950 
Q 1250 3825 1425 3675 
Q 1750 4150 1950 4375 
L 1400 4375 
Q 900 4375 450 4350 
L 450 4775 
Q 900 4750 1375 4750 
L 2575 4750 
L 2575 4375 
Q 2200 4100 1725 3400 
L 1950 3200 
Q 1750 3025 1625 2900 
z
M 4775 725 
Q 5725 0 6075 -325 
Q 5850 -500 5725 -650 
Q 5400 -325 5137 -87 
Q 4875 150 4525 350 
Q 4650 525 4775 725 
z
" transform="scale(0.015625)"/>
      <path id="SimHei-6d4b" d="M 4025 4725 
Q 4000 4475 4000 4000 
L 4000 2225 
Q 4000 1775 4025 1350 
L 3550 1350 
L 3550 4325 
L 2350 4325 
L 2350 1325 
L 1900 1325 
Q 1925 1775 1925 2225 
L 1925 4000 
Q 1925 4200 1900 4725 
L 4025 4725 
z
M 5900 5075 
Q 5875 4800 5875 4375 
L 5875 0 
Q 5875 -325 5650 -425 
Q 5425 -525 4975 -600 
Q 4925 -325 4775 -50 
Q 5125 -50 5262 -25 
Q 5400 0 5400 250 
L 5400 4375 
Q 5400 4775 5375 5075 
L 5900 5075 
z
M 3275 3725 
Q 3225 3400 3200 2325 
Q 3175 1250 2837 550 
Q 2500 -150 2075 -600 
Q 1850 -400 1600 -325 
Q 2200 250 2475 962 
Q 2750 1675 2762 2475 
Q 2775 3275 2725 3800 
Q 3000 3750 3275 3725 
z
M 4950 4275 
Q 4925 4000 4925 3575 
L 4925 1825 
Q 4925 1300 4950 850 
L 4450 850 
Q 4475 1150 4475 1825 
L 4475 3575 
Q 4475 4000 4450 4275 
L 4950 4275 
z
M 1700 1675 
Q 1375 1075 1112 487 
Q 850 -100 725 -400 
Q 500 -200 200 -25 
Q 475 300 762 850 
Q 1050 1400 1250 2000 
Q 1475 1825 1700 1675 
z
M 3400 1050 
Q 3800 650 4300 -125 
Q 4100 -225 3875 -450 
Q 3475 275 3025 750 
Q 3225 875 3400 1050 
z
M 600 3525 
Q 1125 3125 1500 2775 
Q 1300 2575 1150 2375 
Q 825 2775 300 3150 
Q 450 3300 600 3525 
z
M 1350 4000 
Q 950 4375 475 4675 
Q 625 4850 775 5050 
Q 1300 4700 1675 4375 
Q 1500 4250 1350 4000 
z
" transform="scale(0.015625)"/>
     </defs>
     <use xlink:href="#SimHei-4e3b"/>
     <use xlink:href="#SimHei-8f74" transform="translate(100 0)"/>
     <use xlink:href="#SimHei-529f" transform="translate(200 0)"/>
     <use xlink:href="#SimHei-7387" transform="translate(300 0)"/>
     <use xlink:href="#SimHei-9884" transform="translate(400 0)"/>
     <use xlink:href="#SimHei-6d4b" transform="translate(500 0)"/>
    </g>
   </g>
   <g id="line2d_29">
    <path d="M 157.043338 526.35321 
L 175.604573 526.35321 
L 176.060506 417.110976 
L 176.597103 417.110976 
L 190.557036 417.110976 
L 190.557036 526.35321 
L 191.547855 417.110976 
L 198.696619 417.110976 
L 198.859674 526.35321 
L 199.681079 417.110976 
L 202.243021 417.110976 
L 202.257465 526.35321 
L 203.242861 501.773707 
L 203.260978 501.773707 
L 203.31533 526.35321 
L 203.866289 177.450264 
L 204.10713 526.35321 
L 205.708975 526.35321 
L 205.727093 417.110976 
L 206.697223 417.110976 
L 208.363987 417.110976 
L 208.63522 526.35321 
L 209.360564 417.110976 
L 214.759431 417.110976 
L 214.958407 526.35321 
L 215.747116 417.110976 
L 216.066922 417.110976 
L 216.085034 526.35321 
L 217.057853 526.35321 
L 217.10266 526.35321 
L 217.120754 417.110976 
L 218.090458 430.757516 
L 218.108035 430.757516 
L 218.161215 417.110976 
L 219.101798 417.110976 
L 222.037674 417.110976 
L 222.037674 429.136908 
L 223.028989 417.110976 
L 223.284262 417.110976 
L 223.295137 526.35321 
L 224.28396 417.110976 
L 226.717806 417.110976 
L 226.732271 526.35321 
L 227.261647 526.35321 
L 230.806826 526.35321 
L 230.843986 417.110976 
L 231.805589 526.35321 
L 232.205587 526.35321 
L 232.278045 417.110976 
L 233.193443 417.110976 
L 235.729755 417.110976 
L 235.981155 526.35321 
L 236.716846 417.110976 
L 236.78294 417.110976 
L 236.813419 526.35321 
L 237.239075 526.35321 
L 242.22434 526.35321 
L 242.24248 417.110976 
L 243.21852 526.35321 
L 243.994243 526.35321 
L 244.030472 417.110976 
L 244.988069 526.35321 
L 245.4205 526.35321 
L 245.486008 513.244142 
L 245.886592 526.35321 
L 247.058511 526.35321 
L 247.149083 417.110976 
L 248.050455 417.110976 
L 250.315098 417.110976 
L 250.542691 525.330681 
L 251.312403 417.110976 
L 251.349202 417.817501 
L 251.36004 526.35321 
L 252.064619 417.110976 
L 252.345646 417.110976 
L 252.486545 417.407023 
L 252.64392 504.538273 
L 252.883965 417.110976 
L 253.479593 417.110976 
L 255.745375 417.110976 
L 255.767238 526.35321 
L 256.73537 526.35321 
L 256.894835 526.35321 
L 256.912963 417.110976 
L 257.892018 417.110976 
L 258.415324 417.110976 
L 258.588022 526.35321 
L 259.414273 417.110976 
L 259.54102 417.110976 
L 260.383619 526.35321 
L 260.527639 526.35321 
L 261.241321 526.35321 
L 261.259452 417.110976 
L 262.239728 522.846698 
L 262.257844 522.846698 
L 262.257844 516.60304 
L 262.275976 526.35321 
L 262.917886 526.35321 
L 263.441935 526.35321 
L 263.514409 417.110976 
L 264.439346 526.35321 
L 266.597218 526.35321 
L 266.760277 417.110976 
L 267.582627 417.110976 
L 268.082172 417.110976 
L 268.085796 526.35321 
L 269.076568 417.110976 
L 269.981893 417.110976 
L 270.000011 526.35321 
L 270.753466 526.35321 
L 271.242698 526.35321 
L 271.260813 417.110976 
L 272.23039 417.110976 
L 272.451468 417.110976 
L 272.469567 526.35321 
L 273.440554 417.110976 
L 274.598661 417.110976 
L 274.616774 526.35321 
L 275.597913 417.110976 
L 276.959532 417.110976 
L 276.970409 526.35321 
L 277.951935 417.110976 
L 279.495425 417.110976 
L 279.502689 526.35321 
L 280.489753 417.110976 
L 281.46235 417.110976 
L 281.491054 526.35321 
L 282.4544 526.35321 
L 283.313229 526.35321 
L 283.349445 417.110976 
L 284.298427 417.110976 
L 284.632166 417.110976 
L 284.639397 526.35321 
L 285.630751 417.110976 
L 286.765252 417.110976 
L 286.786982 526.35321 
L 287.75309 417.110976 
L 289.507179 417.110976 
L 289.51806 526.35321 
L 290.489858 417.110976 
L 292.172618 417.110976 
L 292.187097 526.35321 
L 293.166813 417.110976 
L 295.734906 417.110976 
L 295.745751 526.35321 
L 296.721067 417.110976 
L 299.802646 417.110976 
L 299.8135 526.35321 
L 300.79935 417.110976 
L 301.285543 417.110976 
L 301.683556 526.35321 
L 302.281425 417.110976 
L 304.32167 417.110976 
L 304.332737 526.35321 
L 305.313573 417.110976 
L 307.021652 417.110976 
L 307.036149 526.35321 
L 307.79846 526.35321 
L 308.287694 526.35321 
L 308.323929 417.110976 
L 309.273584 417.110976 
L 309.98483 417.110976 
L 310.0856 526.35321 
L 310.953715 526.35321 
L 311.149412 526.35321 
L 311.270664 417.110976 
L 312.139873 417.110976 
L 312.747189 417.110976 
L 312.766706 526.35321 
L 313.7408 526.35321 
L 313.806881 526.35321 
L 313.824998 417.110976 
L 314.78974 417.110976 
L 315.1291 417.110976 
L 315.137765 526.35321 
L 316.088438 526.35321 
L 316.252926 526.35321 
L 316.271049 417.110976 
L 317.247137 417.110976 
L 317.444109 417.110976 
L 317.46583 526.35321 
L 318.442317 469.001037 
L 318.460434 469.001037 
L 318.460434 417.110976 
L 319.446582 417.110976 
L 319.58603 417.110976 
L 319.596933 526.35321 
L 320.583314 417.110976 
L 321.551126 417.110976 
L 321.682774 526.35321 
L 322.546935 469.001037 
L 322.565053 469.001037 
L 322.565053 417.110976 
L 323.559759 417.110976 
L 323.645444 417.110976 
L 323.670801 526.35321 
L 324.636516 417.110976 
L 325.556279 417.110976 
L 325.576387 526.35321 
L 326.552343 417.110976 
L 326.753291 417.110976 
L 326.769916 526.35321 
L 327.735363 526.35321 
L 328.518232 526.35321 
L 328.536348 417.110976 
L 329.500942 476.889965 
L 329.518518 476.889965 
L 329.606068 417.110976 
L 329.701159 526.35321 
L 330.466072 526.35321 
L 330.625544 526.35321 
L 330.625544 493.58054 
L 331.620713 526.35321 
L 331.724455 526.35321 
L 331.843533 417.110976 
L 332.71846 526.35321 
L 332.76372 526.35321 
L 333.091364 464.611138 
L 333.741193 526.35321 
L 337.062202 526.35321 
L 337.152303 177.450264 
L 338.047963 526.35321 
L 338.144707 526.35321 
L 338.289536 469.001037 
L 339.141046 526.35321 
L 343.643835 526.35321 
L 343.661943 417.110976 
L 344.642294 526.35321 
L 345.152698 526.35321 
L 345.170815 417.110976 
L 346.148651 526.35321 
L 346.67079 526.35321 
L 346.67079 417.110976 
L 347.669615 526.35321 
L 348.327288 526.35321 
L 348.345405 417.110976 
L 349.321573 526.35321 
L 350.052153 526.35321 
L 350.070268 417.110976 
L 351.044314 417.110976 
L 351.082106 417.110976 
L 351.089342 526.35321 
L 352.070782 417.110976 
L 353.156055 417.110976 
L 353.156055 526.35321 
L 354.155495 417.110976 
L 355.304625 417.110976 
L 355.311856 526.35321 
L 356.293454 417.110976 
L 357.055884 417.110976 
L 357.062943 526.35321 
L 358.045573 526.35321 
L 358.642705 526.35321 
L 358.715163 417.110976 
L 359.631533 526.35321 
L 360.32547 526.35321 
L 360.343587 417.110976 
L 361.323134 526.35321 
L 361.853131 526.35321 
L 361.871217 417.110976 
L 362.848251 526.35321 
L 363.428811 526.35321 
L 363.446928 417.110976 
L 364.423017 526.35321 
L 365.020966 526.35321 
L 365.039106 417.110976 
L 366.008759 417.110976 
L 367.00323 417.110976 
L 367.154745 526.35321 
L 367.984498 526.35321 
L 368.920141 526.35321 
L 368.971861 417.110976 
L 369.903207 518.724278 
L 369.921347 518.724278 
L 369.921347 526.35321 
L 370.912723 526.35321 
L 371.504802 526.35321 
L 371.522942 468.418776 
L 372.291022 526.35321 
L 373.580968 526.35321 
L 374.062687 422.385465 
L 374.580606 526.35321 
L 374.774586 526.35321 
L 374.774586 501.773707 
L 375.558585 526.35321 
L 378.119571 526.35321 
L 378.228258 417.110976 
L 379.10763 526.35321 
L 379.729093 526.35321 
L 379.747233 417.110976 
L 380.677155 526.35321 
L 385.912529 526.35321 
L 386.12934 508.693069 
L 386.897549 526.35321 
L 387.182951 526.345032 
L 388.102031 523.433675 
L 387.400376 526.35321 
L 388.174489 523.441851 
L 388.35566 523.441851 
L 388.570019 509.851578 
L 388.414897 526.35321 
L 389.342128 526.35321 
L 390.744085 526.35321 
L 390.817718 510.747613 
L 391.72954 526.35321 
L 391.983051 526.35321 
L 392.146107 520.522316 
L 392.975208 523.441851 
L 393.156378 523.441851 
L 393.26067 510.857454 
L 393.242544 526.35321 
L 394.138281 526.35321 
L 398.341545 526.35321 
L 398.797478 416.892054 
L 399.334076 416.892054 
L 413.294008 416.892054 
L 413.294008 526.35321 
L 414.284827 416.892054 
L 421.433591 416.892054 
L 421.596646 526.35321 
L 422.418051 416.892054 
L 424.979993 416.892054 
L 424.994437 526.35321 
L 425.979833 501.72445 
L 425.997951 501.72445 
L 426.052302 526.35321 
L 426.603261 161.519178 
L 426.844102 526.35321 
L 428.445947 526.35321 
L 428.464065 416.892054 
L 429.434195 416.892054 
L 431.10096 416.892054 
L 431.372192 526.35321 
L 432.097536 416.892054 
L 437.496404 416.892054 
L 437.695379 526.35321 
L 438.484088 416.892054 
L 438.803894 416.892054 
L 438.822006 526.35321 
L 439.794826 526.35321 
L 439.839632 526.35321 
L 439.857727 416.892054 
L 440.82743 430.565942 
L 440.845008 430.565942 
L 440.898187 416.892054 
L 441.83877 416.892054 
L 444.657995 416.892054 
L 444.673046 526.35321 
L 445.644401 416.892054 
L 445.967146 416.892054 
L 445.981631 526.35321 
L 446.952887 416.892054 
L 449.481456 416.892054 
L 449.495961 526.35321 
L 450.034232 526.35321 
L 453.669971 526.35321 
L 453.697531 416.892054 
L 454.657219 526.35321 
L 455.610573 526.35321 
L 455.646827 416.892054 
L 456.606332 526.35321 
L 457.243051 526.35321 
L 457.27928 416.892054 
L 458.099069 526.35321 
L 459.826608 526.35321 
L 459.862824 416.892054 
L 460.824887 416.892054 
L 463.270638 416.892054 
L 463.522518 526.35321 
L 464.258241 416.892054 
L 464.341011 416.892054 
L 464.366259 526.35321 
L 465.325927 474.739812 
L 465.344021 474.739812 
L 465.408128 518.640741 
L 465.708587 416.892054 
L 466.341002 416.892054 
L 468.787148 416.892054 
L 468.81046 526.35321 
L 469.759466 526.35321 
L 469.91894 526.35321 
L 469.93708 416.892054 
L 470.91216 416.892054 
L 472.778022 417.649525 
L 473.691825 526.35321 
L 473.159205 416.892054 
L 473.760348 526.35321 
L 474.513927 526.35321 
L 474.532039 416.892054 
L 475.507386 416.892054 
L 475.884088 416.892054 
L 475.89505 526.35321 
L 476.867681 416.892054 
L 477.995974 416.892054 
L 478.014083 526.35321 
L 478.55675 526.35321 
L 480.795152 526.35321 
L 480.888706 416.892054 
L 481.783377 416.892054 
L 481.859821 416.892054 
L 481.870682 526.35321 
L 482.844249 416.892054 
L 482.89867 416.892054 
L 482.89867 526.35321 
L 483.895613 526.35321 
L 484.703149 526.35321 
L 484.755876 513.881589 
L 485.298403 526.35321 
L 486.9817 526.35321 
L 487.255213 416.892054 
L 487.96545 416.892054 
L 488.55238 416.892054 
L 488.574116 526.35321 
L 489.537236 416.892054 
L 490.320143 416.892054 
L 490.338245 526.35321 
L 491.09233 526.35321 
L 491.582388 526.35321 
L 491.600494 416.892054 
L 492.568877 416.892054 
L 492.761749 416.892054 
L 492.776243 526.35321 
L 493.752897 416.892054 
L 494.865217 416.892054 
L 494.879673 526.35321 
L 495.864017 416.892054 
L 497.1851 416.892054 
L 497.19595 526.35321 
L 498.1782 416.892054 
L 499.683093 416.892054 
L 499.708445 526.35321 
L 500.668654 416.892054 
L 501.552675 416.892054 
L 501.582992 526.35321 
L 502.552605 526.35321 
L 503.419291 526.35321 
L 503.437395 416.892054 
L 504.411414 416.892054 
L 504.665109 416.892054 
L 504.668727 526.35321 
L 505.651128 416.892054 
L 506.774039 416.892054 
L 506.792136 526.35321 
L 507.766594 416.892054 
L 509.438144 416.892054 
L 509.459891 526.35321 
L 510.422385 416.892054 
L 512.061863 416.892054 
L 512.076351 526.35321 
L 513.061052 416.892054 
L 515.58211 416.892054 
L 515.59299 526.35321 
L 516.570697 416.892054 
L 519.587453 416.892054 
L 519.609215 526.35321 
L 520.578091 416.892054 
L 521.034432 416.892054 
L 521.490429 526.35321 
L 522.033945 416.892054 
L 524.034 416.892054 
L 524.041245 526.35321 
L 525.023556 416.892054 
L 526.73858 416.892054 
L 526.996345 526.35321 
L 527.51892 526.35321 
L 528.008188 526.35321 
L 528.044423 416.892054 
L 528.993556 416.892054 
L 529.687329 416.892054 
L 529.802119 526.35321 
L 530.680299 526.35321 
L 530.875992 526.35321 
L 530.991421 416.892054 
L 531.872425 416.892054 
L 532.465453 416.892054 
L 532.484357 526.35321 
L 533.462859 526.35321 
L 533.528904 526.35321 
L 533.547021 416.892054 
L 534.511809 416.892054 
L 534.85115 416.892054 
L 534.860996 526.35321 
L 535.814871 526.35321 
L 535.97582 526.35321 
L 535.993943 416.892054 
L 536.967859 416.892054 
L 537.165001 416.892054 
L 537.179502 526.35321 
L 538.148329 526.35321 
L 538.166447 526.35321 
L 538.184564 416.892054 
L 539.152952 416.892054 
L 539.302157 416.892054 
L 539.320284 526.35321 
L 540.296287 416.892054 
L 541.278699 416.892054 
L 541.301202 526.35321 
L 542.274071 477.09569 
L 542.292188 477.09569 
L 542.292188 416.892054 
L 543.286849 416.892054 
L 543.383655 416.892054 
L 543.398119 526.35321 
L 544.38218 416.892054 
L 545.283904 416.892054 
L 545.301214 526.35321 
L 546.283658 416.892054 
L 546.484482 416.892054 
L 546.501083 526.35321 
L 547.46747 526.35321 
L 548.253735 526.35321 
L 548.271829 416.892054 
L 549.236554 484.261564 
L 549.254114 484.261564 
L 549.359085 416.892054 
L 549.451654 526.35321 
L 550.202742 526.35321 
L 550.362214 526.35321 
L 550.362214 493.514863 
L 551.349148 526.35321 
L 551.475899 526.35321 
L 551.618479 416.892054 
L 552.474786 526.35321 
L 552.564342 526.35321 
L 552.564342 478.004765 
L 553.482748 526.35321 
L 556.782065 526.35321 
L 556.872166 161.519178 
L 557.767767 526.35321 
L 557.864511 526.35321 
L 558.009341 468.886103 
L 558.860851 526.35321 
L 563.31822 526.35321 
L 563.336325 416.892054 
L 564.312868 526.35321 
L 564.781927 526.35321 
L 564.800045 416.892054 
L 565.779662 526.35321 
L 566.24778 526.35321 
L 566.265889 416.892054 
L 567.241245 526.35321 
L 567.81037 526.35321 
L 567.828488 416.892054 
L 568.793166 526.35321 
L 569.415217 526.35321 
L 569.433357 416.892054 
L 570.40267 526.35321 
L 571.192272 526.35321 
L 571.210389 416.892054 
L 572.18569 416.892054 
L 572.261113 416.892054 
L 572.279236 526.35321 
L 573.254085 416.892054 
L 574.252642 417.33072 
L 574.269551 526.35321 
L 575.131592 416.892054 
L 575.243292 416.892054 
L 576.418065 416.892054 
L 576.486206 526.35321 
L 577.409725 477.876695 
L 577.427841 477.876695 
L 577.455237 526.35321 
L 577.805517 416.892054 
L 578.419116 416.892054 
L 578.574962 416.892054 
L 578.589165 526.35321 
L 579.567427 416.892054 
L 580.111394 416.892054 
L 580.133131 526.35321 
L 581.105794 526.35321 
L 581.214859 526.35321 
L 581.39308 416.892054 
L 582.213472 526.35321 
L 582.510897 526.35321 
L 582.529014 416.892054 
L 583.507762 526.35321 
L 583.997282 526.35321 
L 584.015416 416.892054 
L 584.996304 526.35321 
L 585.622837 526.35321 
L 585.622837 468.886103 
L 586.442396 526.35321 
L 591.211609 526.35321 
L 591.771312 416.892054 
L 592.196448 416.892054 
L 592.85921 416.892054 
L 592.873696 526.35321 
L 593.858501 526.35321 
L 594.484357 526.35321 
L 594.484357 480.126396 
L 595.091867 526.35321 
L 596.751255 526.35321 
L 596.838744 416.892054 
L 597.741826 520.548156 
L 597.778055 520.490689 
L 597.778055 526.35321 
L 598.571783 416.892054 
L 598.76162 416.892054 
L 599.047228 416.892054 
L 599.054487 526.35321 
L 599.77255 526.35321 
L 600.207267 526.35321 
L 600.243496 416.892054 
L 601.087289 526.35321 
L 605.41272 526.35321 
L 606.145629 504.810023 
L 606.399053 523.430159 
L 606.543995 523.430159 
L 606.543995 526.35321 
L 607.38664 523.42195 
L 607.531581 526.35321 
L 608.105167 526.35321 
L 608.69753 503.745103 
L 609.090735 520.581008 
L 609.145079 520.548156 
L 609.181308 526.35321 
L 610.134963 526.35321 
L 610.39071 526.35321 
L 610.983955 503.310268 
L 611.382826 523.450683 
L 611.491513 523.430159 
L 611.491513 526.35321 
L 612.14183 520.507108 
L 612.486057 526.35321 
L 613.032837 526.35321 
L 613.61178 504.602184 
L 614.018493 520.498899 
L 614.109091 520.548156 
L 614.12718 526.35321 
L 615.08253 526.35321 
L 619.026186 526.35321 
L 619.482119 416.892054 
L 620.018716 416.892054 
L 633.978649 416.892054 
L 633.978649 526.35321 
L 634.969468 416.892054 
L 642.118232 416.892054 
L 642.281287 526.35321 
L 643.102692 416.892054 
L 645.664634 416.892054 
L 645.679078 526.35321 
L 646.664474 501.72445 
L 646.682592 501.72445 
L 646.736943 526.35321 
L 647.287902 161.519178 
L 647.528743 526.35321 
L 649.130588 526.35321 
L 649.148706 416.892054 
L 650.118836 416.892054 
L 651.7856 416.892054 
L 652.056833 526.35321 
L 652.782177 416.892054 
L 658.181044 416.892054 
L 658.38002 526.35321 
L 659.168729 416.892054 
L 659.488535 416.892054 
L 659.506647 526.35321 
L 660.479466 526.35321 
L 660.524273 526.35321 
L 660.542367 416.892054 
L 661.512071 430.565942 
L 661.529648 430.565942 
L 661.582828 416.892054 
L 662.523411 416.892054 
L 665.274696 416.892054 
L 665.289158 526.35321 
L 666.259329 416.892054 
L 666.615021 416.892054 
L 666.629227 526.35321 
L 667.599423 420.700481 
L 667.617194 420.700481 
L 667.617194 416.892054 
L 668.61185 416.892054 
L 670.215372 416.892054 
L 670.229891 526.35321 
L 670.775824 526.35321 
L 674.460519 526.35321 
L 674.478659 416.892054 
L 675.453618 526.35321 
L 676.331268 526.35321 
L 676.349356 416.892054 
L 677.327927 526.35321 
L 677.838834 526.35321 
L 677.856974 416.892054 
L 678.5206 526.35321 
L 679.651715 526.35321 
L 680.253642 416.892054 
L 680.639428 416.892054 
L 681.256118 416.892054 
L 681.256118 526.35321 
L 682.254208 416.892054 
L 682.736008 416.892054 
L 682.750515 526.35321 
L 683.168645 526.35321 
L 684.559043 526.35321 
L 684.577132 416.892054 
L 685.542325 526.35321 
L 686.391881 526.35321 
L 686.42811 416.892054 
L 687.391859 526.35321 
L 687.864481 526.35321 
L 687.882621 416.892054 
L 688.535663 526.35321 
L 689.663601 526.35321 
L 689.747304 416.892054 
L 690.662324 416.892054 
L 690.688322 416.892054 
L 690.713656 526.35321 
L 691.681869 416.892054 
L 692.151599 416.892054 
L 692.16248 526.35321 
L 693.142402 526.35321 
L 693.276151 526.35321 
L 693.294255 416.892054 
L 694.275633 526.35321 
L 694.759957 526.35321 
L 694.778074 416.892054 
L 695.754641 526.35321 
L 696.19704 526.35321 
L 696.215162 416.892054 
L 697.19012 526.35321 
L 697.637843 526.35321 
L 697.65596 416.892054 
L 698.634575 526.35321 
L 699.079597 526.35321 
L 699.097715 416.892054 
L 700.066689 526.35321 
L 700.675147 526.35321 
L 700.693264 416.892054 
L 701.672649 526.35321 
L 702.352223 526.35321 
L 702.370363 416.892054 
L 703.349431 467.728004 
L 703.3529 467.728004 
L 703.3529 526.35321 
L 704.228941 416.892054 
L 704.33979 416.892054 
L 705.350886 416.892054 
L 705.361775 526.35321 
L 706.34013 416.892054 
L 707.44857 416.892054 
L 707.469169 526.35321 
L 708.446544 416.892054 
L 708.931369 416.892054 
L 708.955738 526.35321 
L 709.927397 526.35321 
L 710.693693 526.35321 
L 710.711796 416.892054 
L 711.687967 526.35321 
L 712.114362 526.35321 
L 712.132479 416.892054 
L 713.110887 526.35321 
L 713.476149 526.35321 
L 713.494264 416.892054 
L 714.475194 526.35321 
L 714.901585 526.35321 
L 714.919703 416.892054 
L 715.901125 526.35321 
L 716.338798 526.35321 
L 716.356922 416.892054 
L 717.320988 526.35321 
L 717.917463 526.35321 
L 717.935581 416.892054 
L 718.902445 526.35321 
L 719.623242 526.35321 
L 719.63431 416.892054 
L 720.622866 416.892054 
L 720.630105 416.892054 
L 720.648131 526.35321 
L 721.624412 416.892054 
L 722.712603 416.892054 
L 722.737946 526.35321 
L 723.70783 416.892054 
L 724.910844 416.892054 
L 724.927836 526.35321 
L 725.905202 416.892054 
L 727.498932 416.892054 
L 727.517029 526.35321 
L 728.496285 416.892054 
L 730.23694 416.892054 
L 730.247819 526.35321 
L 731.229264 416.892054 
L 733.547067 416.892054 
L 733.568781 526.35321 
L 734.531905 416.892054 
L 735.468335 416.892054 
L 735.475586 526.35321 
L 736.453642 416.892054 
L 737.049767 416.892054 
L 737.068373 526.35321 
L 738.038092 416.892054 
L 739.443586 416.892054 
L 739.447209 526.35321 
L 739.834564 526.35321 
L 740.744692 526.35321 
L 740.780947 416.892054 
L 741.730636 416.892054 
L 742.059425 416.892054 
L 742.066681 526.35321 
L 743.05734 416.892054 
L 744.332285 416.892054 
L 744.354039 526.35321 
L 745.326668 416.892054 
L 746.778017 416.892054 
L 746.79613 526.35321 
L 747.768095 416.892054 
L 748.160741 416.892054 
L 748.692894 526.35321 
L 749.157 445.082407 
L 749.175141 445.082407 
L 749.21137 416.892054 
L 749.276628 526.35321 
L 749.776703 526.35321 
L 750.472223 526.35321 
L 750.490336 416.892054 
L 751.455359 416.892054 
L 751.64838 416.892054 
L 751.670061 526.35321 
L 752.642647 526.35321 
L 753.534491 526.35321 
L 753.670223 416.892054 
L 754.531583 463.914104 
L 754.537325 463.914104 
L 754.537325 526.35321 
L 755.534099 526.35321 
L 755.570307 526.35321 
L 755.750293 416.892054 
L 756.551577 526.35321 
L 758.663288 526.35321 
L 758.691069 416.892054 
L 759.659836 526.35321 
L 759.966806 526.35321 
L 759.966806 508.847744 
L 760.588467 526.35321 
L 762.329612 526.35321 
L 762.346417 416.892054 
L 763.32635 451.548003 
L 763.344337 451.548003 
L 763.416506 416.892054 
L 764.340235 416.892054 
L 764.829296 416.892054 
L 765.080895 526.35321 
L 765.81655 416.892054 
L 765.882825 416.892054 
L 765.914608 526.35321 
L 766.877315 474.739812 
L 766.895409 474.739812 
L 766.959502 510.389039 
L 767.259933 416.892054 
L 767.892321 416.892054 
L 768.290912 416.892054 
L 768.508267 526.35321 
L 769.289994 526.35321 
L 769.958477 526.35321 
L 769.958477 416.892054 
L 770.954556 416.892054 
L 771.244221 417.874468 
L 772.166201 526.35321 
L 771.643098 416.892054 
L 772.23085 526.35321 
L 772.984406 526.35321 
L 773.002536 416.892054 
L 773.977897 416.892054 
L 774.342137 416.892054 
L 774.648567 526.35321 
L 775.338862 526.35321 
L 776.261976 526.35321 
L 776.347184 416.892054 
L 777.261299 416.892054 
L 777.318358 416.892054 
L 777.32922 526.35321 
L 778.302754 416.892054 
L 778.357176 416.892054 
L 778.357176 526.35321 
L 779.351291 526.35321 
L 780.124625 526.35321 
L 780.177158 513.91481 
L 780.816083 526.35321 
L 784.303183 526.35321 
L 784.321284 416.892054 
L 785.288162 416.892054 
L 785.868621 416.892054 
L 785.890586 526.35321 
L 786.865691 416.892054 
L 788.456924 416.892054 
L 788.467805 526.35321 
L 789.44409 416.892054 
L 791.078118 416.892054 
L 791.099715 526.35321 
L 792.070481 416.892054 
L 793.75024 416.892054 
L 793.77829 526.35321 
L 794.745373 454.521242 
L 794.76349 454.521242 
L 794.76349 416.892054 
L 794.847601 526.35321 
L 795.758429 416.892054 
L 796.521264 416.892054 
L 796.539054 526.35321 
L 797.512288 416.892054 
L 798.717116 416.892054 
L 798.717116 526.35321 
L 799.609615 526.35321 
L 800.211765 526.35321 
L 800.260775 416.892054 
L 801.198871 416.892054 
L 801.430435 416.892054 
L 801.451894 526.35321 
L 802.426706 416.892054 
L 803.443595 416.892054 
L 803.461597 526.35321 
L 804.429326 416.892054 
L 805.456274 416.892054 
L 805.477462 526.35321 
L 806.452349 416.892054 
L 807.475615 416.892054 
L 807.490094 526.35321 
L 808.472042 416.892054 
L 808.613488 416.892054 
L 809.44453 526.35321 
L 809.611141 526.35321 
L 810.355231 526.35321 
L 810.373348 416.892054 
L 811.342077 416.892054 
L 811.536627 416.892054 
L 811.547516 526.35321 
L 812.5268 526.35321 
L 813.439616 526.35321 
L 813.578031 416.892054 
L 814.433627 526.35321 
L 814.517997 526.35321 
L 815.14814 468.886103 
L 815.510484 468.886103 
L 815.637305 468.886103 
L 815.92718 526.35321 
L 816.581329 161.519178 
L 816.611527 161.519178 
L 816.735986 161.519178 
L 816.753264 526.35321 
L 817.11641 526.35321 
L 820.925111 526.35321 
L 820.979427 444.910553 
L 821.515318 526.35321 
L 822.306914 526.35321 
L 822.343142 468.022728 
L 823.261465 526.35321 
L 833.917588 526.35321 
L 834.647496 502.285575 
L 834.90345 523.430159 
L 835.084621 523.438369 
L 835.084621 526.35321 
L 835.742697 523.42195 
L 836.068809 526.35321 
L 836.673242 526.35321 
L 837.295694 500.821532 
L 837.671591 520.548156 
L 837.744049 520.548156 
L 837.798418 526.35321 
L 838.407283 520.498899 
L 838.739828 526.35321 
L 839.020997 526.35321 
L 839.590226 501.647417 
L 840.005396 523.450683 
L 840.150338 523.462997 
L 840.150338 526.35321 
L 840.765669 520.507108 
L 841.14615 526.35321 
L 841.733383 526.35321 
L 842.255629 499.885639 
L 842.730186 520.548156 
L 842.820784 520.548156 
L 842.838873 526.35321 
L 843.820752 526.35321 
L 848.072393 526.35321 
L 848.528326 489.647236 
L 849.064923 489.647236 
L 863.024856 489.647236 
L 863.024856 526.35321 
L 864.015675 489.647236 
L 871.182556 490.564885 
L 871.327494 526.35321 
L 871.732908 489.647236 
L 872.167002 489.647236 
L 874.71084 489.647236 
L 874.725284 526.35321 
L 875.710681 518.094366 
L 875.728798 518.094366 
L 875.78315 526.35321 
L 876.334109 404.012198 
L 876.57495 526.35321 
L 878.176795 526.35321 
L 878.194913 489.647236 
L 879.165043 489.647236 
L 880.849903 490.27188 
L 881.10304 526.35321 
L 881.466872 489.647236 
L 881.846504 489.647236 
L 887.227251 489.647236 
L 887.426227 526.35321 
L 888.214936 489.647236 
L 888.534742 489.647236 
L 888.552854 526.35321 
L 889.525673 526.35321 
L 889.57048 526.35321 
L 889.588574 489.647236 
L 890.558277 494.232546 
L 890.575855 494.232546 
L 890.629034 489.647236 
L 891.569617 489.647236 
L 894.304639 490.472019 
L 894.315508 526.35321 
L 894.65786 489.647236 
L 895.289796 489.647236 
L 895.649804 490.373463 
L 895.660661 526.35321 
L 896.076825 489.647236 
L 896.640094 491.904745 
L 896.657728 491.904745 
L 896.675475 489.647236 
L 897.651944 489.647236 
L 899.275236 489.647236 
L 899.289707 526.35321 
L 899.842132 526.35321 
L 903.541463 526.35321 
L 903.559551 489.647236 
L 904.525604 526.35321 
L 905.38328 526.35321 
L 905.419535 489.647236 
L 906.380626 526.35321 
L 906.861401 526.35321 
L 906.879516 489.647236 
L 907.511 526.35321 
L 908.650994 526.35321 
L 909.276289 489.647236 
L 909.637563 489.647236 
L 910.246893 489.647236 
L 910.254145 526.35321 
L 911.242857 489.647236 
L 911.741459 489.647236 
L 911.766809 526.35321 
L 912.180108 526.35321 
L 913.590669 526.35321 
L 913.608784 489.647236 
L 914.581517 526.35321 
L 915.419254 526.35321 
L 915.455483 489.647236 
L 916.413193 526.35321 
L 916.861549 526.35321 
L 916.879689 489.647236 
L 917.565405 526.35321 
L 918.701699 526.35321 
L 918.786311 489.647236 
L 919.693419 489.647236 
L 919.713825 489.647236 
L 919.742831 526.35321 
L 920.707825 489.647236 
L 921.157617 489.647236 
L 921.176485 526.35321 
L 922.154309 526.35321 
L 922.288548 526.35321 
L 922.306663 489.647236 
L 923.281587 526.35321 
L 923.757762 526.35321 
L 923.775879 489.647236 
L 924.750452 526.35321 
L 925.171344 526.35321 
L 925.189441 489.647236 
L 926.170274 526.35321 
L 926.596673 526.35321 
L 926.61479 489.647236 
L 927.595882 526.35321 
L 928.018611 526.35321 
L 928.036732 489.647236 
L 929.013966 526.35321 
L 929.559708 526.35321 
L 929.577825 489.647236 
L 930.548844 526.35321 
L 931.199928 526.35321 
L 931.218042 489.647236 
L 932.186885 526.35321 
L 932.205002 526.35321 
L 933.048939 489.647236 
L 933.203044 489.647236 
L 934.14289 489.647236 
L 934.153783 526.35321 
L 935.130248 489.647236 
L 936.211866 489.647236 
L 936.219134 526.35321 
L 937.209514 489.647236 
L 937.684449 489.647236 
L 937.707046 526.35321 
L 938.683701 526.35321 
L 939.406375 526.35321 
L 939.42451 489.647236 
L 940.400186 526.35321 
L 940.819474 526.35321 
L 940.837591 489.647236 
L 941.819003 526.35321 
L 942.173885 526.35321 
L 942.192 489.647236 
L 943.169482 526.35321 
L 943.548295 526.35321 
L 943.566412 489.647236 
L 944.546905 526.35321 
L 944.954011 526.35321 
L 944.96207 489.647236 
L 945.949049 526.35321 
L 946.494799 526.35321 
L 946.512916 489.647236 
L 947.478445 526.35321 
L 948.144549 526.35321 
L 948.162689 489.647236 
L 949.132616 526.35321 
L 949.150733 526.35321 
L 949.964615 489.647236 
L 950.148739 489.647236 
L 951.108807 489.647236 
L 951.126893 526.35321 
L 952.10498 489.647236 
L 953.244393 489.647236 
L 953.244393 526.35321 
L 954.239017 489.647236 
L 955.738254 489.647236 
L 955.767227 526.35321 
L 956.735622 489.647236 
L 958.320571 489.647236 
L 958.340591 526.35321 
L 959.318977 489.647236 
L 961.502885 489.647236 
L 961.531847 526.35321 
L 962.498174 489.647236 
L 963.432298 489.927945 
L 963.432298 499.603731 
L 963.450388 489.647236 
L 964.41535 489.647236 
L 964.884348 489.647236 
L 964.903738 526.35321 
L 965.882619 489.647236 
L 967.25879 489.647236 
L 967.269661 526.35321 
L 968.246739 489.647236 
L 968.90475 489.647236 
L 968.919221 526.35321 
L 969.903404 489.647236 
L 971.065162 489.647236 
L 971.065162 526.35321 
L 972.062606 489.647236 
L 973.528592 489.647236 
L 973.543069 526.35321 
L 974.525306 489.647236 
L 974.568762 489.647236 
L 974.572922 526.35321 
L 975.568464 489.647236 
L 976.040831 489.647236 
L 976.048054 526.35321 
L 976.457035 526.35321 
L 977.69189 526.35321 
L 978.573056 489.647236 
L 978.678291 489.647236 
L 978.693517 489.647236 
L 978.841165 525.456317 
L 979.683097 489.647236 
L 979.723952 489.647236 
L 979.734821 526.35321 
L 980.713812 526.35321 
L 981.173905 526.35321 
L 981.338338 489.647236 
L 982.167768 526.35321 
L 982.219838 526.35321 
L 982.237981 506.490506 
L 983.218192 519.128887 
L 983.23581 519.128887 
L 983.358377 489.647236 
L 983.764533 526.35321 
L 984.230479 526.35321 
L 986.257052 526.35321 
L 986.293255 489.647236 
L 987.253048 526.35321 
L 987.522168 526.35321 
L 987.548748 514.673461 
L 988.225475 526.35321 
L 989.943952 526.35321 
L 989.96207 489.647236 
L 990.942083 526.35321 
L 994.531753 526.35321 
L 994.549867 489.647236 
L 995.526186 490.169195 
L 996.792856 490.564885 
L 996.937794 526.35321 
L 997.638543 489.647236 
L 997.785143 489.647236 
L 997.875742 489.647236 
L 997.901096 526.35321 
L 998.86726 526.35321 
L 998.897044 525.879804 
L 999.235338 489.647236 
L 998.912291 526.35321 
L 999.886407 489.647236 
L 1000.302914 490.179013 
L 1001.281133 526.35321 
L 1000.724905 489.647236 
L 1001.302864 526.35321 
L 1002.084656 526.35321 
L 1002.102773 489.647236 
L 1003.080412 489.647236 
L 1003.677698 489.647236 
L 1004.076036 526.35321 
L 1004.674578 526.35321 
L 1005.094324 526.35321 
L 1005.306572 489.647236 
L 1006.081492 502.838904 
L 1006.099165 502.838904 
L 1006.766779 526.35321 
L 1006.282361 489.647236 
L 1007.09599 526.35321 
L 1007.637006 526.35321 
L 1007.655106 489.647236 
L 1008.629465 520.916734 
L 1008.647597 520.916734 
L 1008.661105 526.35321 
L 1009.357401 526.35321 
L 1009.880304 526.35321 
L 1009.934641 489.647236 
L 1010.873282 526.35321 
L 1011.579959 526.35321 
L 1011.616198 524.206424 
L 1012.216818 526.35321 
L 1014.256481 526.35321 
L 1014.292706 489.647236 
L 1015.252831 489.647236 
L 1015.6683 489.647236 
L 1015.682762 526.35321 
L 1016.662073 515.341418 
L 1016.68019 515.341418 
L 1016.752659 526.35321 
L 1017.406808 404.012198 
L 1017.645387 498.447317 
L 1017.708524 498.447317 
L 1017.708524 526.35321 
L 1018.024381 526.35321 
L 1019.31991 526.35321 
L 1019.31991 489.647236 
L 1020.31328 489.647236 
L 1020.537492 489.647236 
L 1020.541126 526.35321 
L 1021.5272 513.005816 
L 1021.545309 513.005816 
L 1021.545309 489.647236 
L 1022.533678 489.647236 
L 1022.744392 489.647236 
L 1022.744392 526.35321 
L 1023.738739 489.647236 
L 1024.686299 489.647236 
L 1024.700796 526.35321 
L 1025.672808 498.784729 
L 1025.690943 498.784729 
L 1025.690943 489.647236 
L 1026.676185 489.647236 
L 1026.767643 490.439718 
L 1026.771273 526.35321 
L 1027.679995 489.647236 
L 1027.76625 489.647236 
L 1028.719007 489.647236 
L 1028.740745 526.35321 
L 1029.708052 489.647236 
L 1030.70178 490.564885 
L 1030.71252 526.35321 
L 1031.644888 489.647236 
L 1031.697091 489.647236 
L 1032.727717 489.647236 
L 1032.727717 526.35321 
L 1033.71799 489.647236 
L 1034.698086 489.647236 
L 1034.719697 526.35321 
L 1035.690487 489.647236 
L 1036.879758 489.647236 
L 1036.879758 526.35321 
L 1037.865703 489.647236 
L 1038.266418 489.647236 
L 1039.045763 526.35321 
L 1039.248644 526.35321 
L 1039.956457 526.35321 
L 1039.974574 489.647236 
L 1040.942699 489.647236 
L 1041.39155 489.647236 
L 1041.416862 526.35321 
L 1042.388249 489.647236 
L 1042.59174 489.647236 
L 1042.711876 526.35321 
L 1043.580607 500.012544 
L 1043.598208 500.012544 
L 1043.633377 489.647236 
L 1043.839131 526.35321 
L 1044.590331 526.35321 
L 1044.749803 526.35321 
L 1044.767921 489.647236 
L 1045.749229 526.35321 
L 1046.224236 526.35321 
L 1046.224236 512.58847 
L 1047.054517 526.35321 
L 1048.605152 526.35321 
L 1048.623268 489.647236 
L 1049.528566 526.35321 
L 1050.508404 526.35321 
L 1050.544639 489.647236 
L 1051.501019 489.647236 
L 1051.549988 489.647236 
L 1051.557205 526.35321 
L 1052.54436 489.647236 
L 1052.558866 489.647236 
L 1052.992923 526.35321 
L 1053.558393 526.35321 
L 1054.00833 526.35321 
L 1054.062671 491.042613 
L 1054.896534 526.35321 
L 1062.832628 526.35321 
L 1062.832628 504.460979 
L 1064.247583 504.460979 
L 1064.429467 501.967697 
L 1065.369456 501.967697 
L 1065.369456 416.892054 
L 1067.327626 417.254006 
L 1067.327626 526.35321 
L 1068.248809 492.006732 
L 1068.341084 492.006732 
L 1069.172254 418.862355 
L 1069.357777 418.862355 
L 1069.720122 526.35321 
L 1079.376324 526.35321 
L 1079.376324 506.285331 
L 1080.791278 506.285331 
L 1080.973162 501.967697 
L 1081.913151 501.967697 
L 1081.913151 416.892054 
L 1083.871322 416.928055 
L 1083.871322 526.35321 
L 1084.7932 491.970245 
L 1084.885433 491.970245 
L 1085.716169 418.83803 
L 1085.901463 418.83803 
L 1086.263808 526.35321 
L 1095.92001 526.35321 
L 1095.92001 506.285331 
L 1097.334965 506.285331 
L 1097.516849 501.967697 
L 1098.456838 501.967697 
L 1098.456838 416.892054 
L 1100.415008 417.039705 
L 1100.782105 503.013659 
L 1101.336849 491.970245 
L 1101.429124 491.970245 
L 1102.259783 418.83803 
L 1102.445147 418.83803 
L 1102.807491 526.35321 
L 1112.463693 526.35321 
L 1112.463693 506.285331 
L 1113.878648 506.285331 
L 1113.878648 502.028509 
L 1114.060532 526.292339 
L 1115.000521 526.292339 
L 1115.000521 416.892054 
L 1116.958691 417.254006 
L 1116.958691 526.35321 
L 1117.880569 491.970245 
L 1117.972803 491.970245 
L 1118.803539 418.83803 
L 1118.988833 418.83803 
L 1119.351177 526.35321 
L 1129.00738 526.35321 
L 1129.00738 515.407094 
L 1130.604218 515.407094 
L 1131.544207 416.892054 
L 1133.502377 416.928055 
L 1133.502377 526.35321 
L 1134.424255 491.970245 
L 1134.516489 491.970245 
L 1135.162041 436.94777 
L 1135.347225 508.24347 
L 1135.894864 507.647515 
L 1135.894864 526.35321 
L 1148.087893 526.293906 
L 1148.087893 443.404458 
L 1149.753156 443.404458 
L 1150.046064 526.35321 
L 1150.044746 443.024756 
L 1150.690974 526.328758 
L 1150.783356 526.328758 
L 1151.70569 510.071775 
L 1151.890839 510.071775 
L 1152.076203 508.115157 
L 1152.438547 526.35321 
L 1172.292391 526.35321 
L 1172.292391 526.35321 
" clip-path="url(#pbc85ae1cd6)" style="fill: none; stroke: #000000; stroke-width: 0.8; stroke-linecap: square"/>
   </g>
  </g>
  <g id="axes_2">
   <g id="matplotlib.axis_3">
    <g id="xtick_8">
     <g id="line2d_30">
      <defs>
       <path id="ma3b1768de7" d="M 0 0 
L 0 -3.5 
" style="stroke: #000000; stroke-width: 0.8"/>
      </defs>
      <g>
       <use xlink:href="#ma3b1768de7" x="157.043338" y="83.079861" style="stroke: #000000; stroke-width: 0.8"/>
      </g>
     </g>
     <g id="text_19">
      <!-- N140 -->
      <g transform="translate(160.932425 75.372754) rotate(-45) scale(0.08 -0.08)">
       <defs>
        <path id="SimHei-4e" d="M 2850 125 
L 2225 125 
L 850 3225 
L 825 3225 
L 825 125 
L 250 125 
L 250 4400 
L 875 4400 
L 2250 1300 
L 2275 1300 
L 2275 4400 
L 2850 4400 
L 2850 125 
z
" transform="scale(0.015625)"/>
        <path id="SimHei-34" d="M 2000 1100 
L 75 1100 
L 75 1525 
L 2100 4450 
L 2475 4450 
L 2475 1525 
L 3075 1525 
L 3075 1100 
L 2475 1100 
L 2475 150 
L 2000 150 
L 2000 1100 
z
M 2000 1525 
L 2000 3500 
L 600 1525 
L 2000 1525 
z
" transform="scale(0.015625)"/>
       </defs>
       <use xlink:href="#SimHei-4e"/>
       <use xlink:href="#SimHei-31" transform="translate(50 0)"/>
       <use xlink:href="#SimHei-34" transform="translate(100 0)"/>
       <use xlink:href="#SimHei-30" transform="translate(150 0)"/>
      </g>
     </g>
    </g>
    <g id="xtick_9">
     <g id="line2d_31">
      <g>
       <use xlink:href="#ma3b1768de7" x="258.073194" y="83.079861" style="stroke: #000000; stroke-width: 0.8"/>
      </g>
     </g>
     <g id="text_20">
      <!-- N1050 -->
      <g transform="translate(261.962281 75.372754) rotate(-45) scale(0.08 -0.08)">
       <use xlink:href="#SimHei-4e"/>
       <use xlink:href="#SimHei-31" transform="translate(50 0)"/>
       <use xlink:href="#SimHei-30" transform="translate(100 0)"/>
       <use xlink:href="#SimHei-35" transform="translate(150 0)"/>
       <use xlink:href="#SimHei-30" transform="translate(200 0)"/>
      </g>
     </g>
    </g>
    <g id="xtick_10">
     <g id="line2d_32">
      <g>
       <use xlink:href="#ma3b1768de7" x="324.138948" y="83.079861" style="stroke: #000000; stroke-width: 0.8"/>
      </g>
     </g>
     <g id="text_21">
      <!-- N7090.17 -->
      <g transform="translate(328.028036 75.372754) rotate(-45) scale(0.08 -0.08)">
       <defs>
        <path id="SimHei-37" d="M 850 150 
Q 1300 2050 2425 3925 
L 275 3925 
L 275 4375 
L 2950 4375 
L 2950 3950 
Q 1775 2050 1400 150 
L 850 150 
z
" transform="scale(0.015625)"/>
        <path id="SimHei-39" d="M 800 75 
Q 1350 1000 1700 1750 
Q 1075 1650 662 1912 
Q 250 2175 162 2625 
Q 75 3075 175 3437 
Q 275 3800 487 4037 
Q 700 4275 1000 4375 
Q 1300 4475 1537 4475 
Q 1775 4475 2025 4375 
Q 2275 4275 2475 4075 
Q 2675 3875 2750 3662 
Q 2825 3450 2825 3112 
Q 2825 2775 2575 2250 
Q 2325 1725 1350 75 
L 800 75 
z
M 662 2875 
Q 700 2550 937 2337 
Q 1175 2125 1450 2150 
Q 1725 2175 1887 2300 
Q 2050 2425 2200 2725 
Q 2300 3100 2250 3362 
Q 2200 3625 1987 3800 
Q 1775 3975 1525 3975 
Q 1375 4000 1137 3900 
Q 900 3800 762 3500 
Q 625 3200 662 2875 
z
" transform="scale(0.015625)"/>
       </defs>
       <use xlink:href="#SimHei-4e"/>
       <use xlink:href="#SimHei-37" transform="translate(50 0)"/>
       <use xlink:href="#SimHei-30" transform="translate(100 0)"/>
       <use xlink:href="#SimHei-39" transform="translate(150 0)"/>
       <use xlink:href="#SimHei-30" transform="translate(200 0)"/>
       <use xlink:href="#SimHei-2e" transform="translate(250 0)"/>
       <use xlink:href="#SimHei-31" transform="translate(300 0)"/>
       <use xlink:href="#SimHei-37" transform="translate(350 0)"/>
      </g>
     </g>
    </g>
    <g id="xtick_11">
     <g id="line2d_33">
      <g>
       <use xlink:href="#ma3b1768de7" x="401.400169" y="83.079861" style="stroke: #000000; stroke-width: 0.8"/>
      </g>
     </g>
     <g id="text_22">
      <!-- N2250 -->
      <g transform="translate(405.289256 75.372754) rotate(-45) scale(0.08 -0.08)">
       <use xlink:href="#SimHei-4e"/>
       <use xlink:href="#SimHei-32" transform="translate(50 0)"/>
       <use xlink:href="#SimHei-32" transform="translate(100 0)"/>
       <use xlink:href="#SimHei-35" transform="translate(150 0)"/>
       <use xlink:href="#SimHei-30" transform="translate(200 0)"/>
      </g>
     </g>
    </g>
    <g id="xtick_12">
     <g id="line2d_34">
      <g>
       <use xlink:href="#ma3b1768de7" x="480.795152" y="83.079861" style="stroke: #000000; stroke-width: 0.8"/>
      </g>
     </g>
     <g id="text_23">
      <!-- N2940 -->
      <g transform="translate(484.684239 75.372754) rotate(-45) scale(0.08 -0.08)">
       <use xlink:href="#SimHei-4e"/>
       <use xlink:href="#SimHei-32" transform="translate(50 0)"/>
       <use xlink:href="#SimHei-39" transform="translate(100 0)"/>
       <use xlink:href="#SimHei-34" transform="translate(150 0)"/>
       <use xlink:href="#SimHei-30" transform="translate(200 0)"/>
      </g>
     </g>
    </g>
    <g id="xtick_13">
     <g id="line2d_35">
      <g>
       <use xlink:href="#ma3b1768de7" x="545.800919" y="83.079861" style="stroke: #000000; stroke-width: 0.8"/>
      </g>
     </g>
     <g id="text_24">
      <!-- N8760.10 -->
      <g transform="translate(549.690006 75.372754) rotate(-45) scale(0.08 -0.08)">
       <defs>
        <path id="SimHei-38" d="M 175 1375 
Q 175 1675 325 1962 
Q 475 2250 825 2425 
Q 525 2600 425 2812 
Q 325 3025 312 3300 
Q 300 3575 387 3775 
Q 475 3975 650 4150 
Q 825 4325 1037 4387 
Q 1250 4450 1500 4450 
Q 1750 4450 1950 4400 
Q 2150 4350 2375 4187 
Q 2600 4025 2700 3725 
Q 2800 3425 2687 3025 
Q 2575 2625 2100 2400 
Q 2525 2275 2700 2012 
Q 2875 1750 2875 1375 
Q 2875 1000 2762 775 
Q 2650 550 2512 400 
Q 2375 250 2137 162 
Q 1900 75 1537 75 
Q 1175 75 912 162 
Q 650 250 475 425 
Q 300 600 237 837 
Q 175 1075 175 1375 
z
M 687 1400 
Q 675 1100 787 875 
Q 900 650 1200 587 
Q 1500 525 1825 600 
Q 2150 675 2275 950 
Q 2400 1225 2362 1500 
Q 2325 1775 2050 1962 
Q 1775 2150 1450 2125 
Q 1125 2100 912 1900 
Q 700 1700 687 1400 
z
M 775 3350 
Q 775 3100 950 2875 
Q 1125 2650 1500 2650 
Q 1875 2650 2062 2875 
Q 2250 3100 2237 3412 
Q 2225 3725 2012 3875 
Q 1800 4025 1437 4000 
Q 1075 3975 925 3787 
Q 775 3600 775 3350 
z
" transform="scale(0.015625)"/>
       </defs>
       <use xlink:href="#SimHei-4e"/>
       <use xlink:href="#SimHei-38" transform="translate(50 0)"/>
       <use xlink:href="#SimHei-37" transform="translate(100 0)"/>
       <use xlink:href="#SimHei-36" transform="translate(150 0)"/>
       <use xlink:href="#SimHei-30" transform="translate(200 0)"/>
       <use xlink:href="#SimHei-2e" transform="translate(250 0)"/>
       <use xlink:href="#SimHei-31" transform="translate(300 0)"/>
       <use xlink:href="#SimHei-30" transform="translate(350 0)"/>
      </g>
     </g>
    </g>
    <g id="xtick_14">
     <g id="line2d_36">
      <g>
       <use xlink:href="#ma3b1768de7" x="624.403337" y="83.079861" style="stroke: #000000; stroke-width: 0.8"/>
      </g>
     </g>
     <g id="text_25">
      <!-- N3940.2 -->
      <g transform="translate(628.292424 75.372754) rotate(-45) scale(0.08 -0.08)">
       <use xlink:href="#SimHei-4e"/>
       <use xlink:href="#SimHei-33" transform="translate(50 0)"/>
       <use xlink:href="#SimHei-39" transform="translate(100 0)"/>
       <use xlink:href="#SimHei-34" transform="translate(150 0)"/>
       <use xlink:href="#SimHei-30" transform="translate(200 0)"/>
       <use xlink:href="#SimHei-2e" transform="translate(250 0)"/>
       <use xlink:href="#SimHei-32" transform="translate(300 0)"/>
      </g>
     </g>
    </g>
    <g id="xtick_15">
     <g id="line2d_37">
      <g>
       <use xlink:href="#ma3b1768de7" x="700.319876" y="83.079861" style="stroke: #000000; stroke-width: 0.8"/>
      </g>
     </g>
     <g id="text_26">
      <!-- N2400.17 -->
      <g transform="translate(704.208963 75.372754) rotate(-45) scale(0.08 -0.08)">
       <use xlink:href="#SimHei-4e"/>
       <use xlink:href="#SimHei-32" transform="translate(50 0)"/>
       <use xlink:href="#SimHei-34" transform="translate(100 0)"/>
       <use xlink:href="#SimHei-30" transform="translate(150 0)"/>
       <use xlink:href="#SimHei-30" transform="translate(200 0)"/>
       <use xlink:href="#SimHei-2e" transform="translate(250 0)"/>
       <use xlink:href="#SimHei-31" transform="translate(300 0)"/>
       <use xlink:href="#SimHei-37" transform="translate(350 0)"/>
      </g>
     </g>
    </g>
    <g id="xtick_16">
     <g id="line2d_38">
      <g>
       <use xlink:href="#ma3b1768de7" x="763.887302" y="83.079861" style="stroke: #000000; stroke-width: 0.8"/>
      </g>
     </g>
     <g id="text_27">
      <!-- N6770 -->
      <g transform="translate(767.77639 75.372754) rotate(-45) scale(0.08 -0.08)">
       <use xlink:href="#SimHei-4e"/>
       <use xlink:href="#SimHei-36" transform="translate(50 0)"/>
       <use xlink:href="#SimHei-37" transform="translate(100 0)"/>
       <use xlink:href="#SimHei-37" transform="translate(150 0)"/>
       <use xlink:href="#SimHei-30" transform="translate(200 0)"/>
      </g>
     </g>
    </g>
    <g id="xtick_17">
     <g id="line2d_39">
      <g>
       <use xlink:href="#ma3b1768de7" x="843.994564" y="83.079861" style="stroke: #000000; stroke-width: 0.8"/>
      </g>
     </g>
     <g id="text_28">
      <!-- N3310 -->
      <g transform="translate(847.883651 75.372754) rotate(-45) scale(0.08 -0.08)">
       <use xlink:href="#SimHei-4e"/>
       <use xlink:href="#SimHei-33" transform="translate(50 0)"/>
       <use xlink:href="#SimHei-33" transform="translate(100 0)"/>
       <use xlink:href="#SimHei-31" transform="translate(150 0)"/>
       <use xlink:href="#SimHei-30" transform="translate(200 0)"/>
      </g>
     </g>
    </g>
    <g id="xtick_18">
     <g id="line2d_40">
      <g>
       <use xlink:href="#ma3b1768de7" x="925.516808" y="83.079861" style="stroke: #000000; stroke-width: 0.8"/>
      </g>
     </g>
     <g id="text_29">
      <!-- N2720 -->
      <g transform="translate(929.405896 75.372754) rotate(-45) scale(0.08 -0.08)">
       <use xlink:href="#SimHei-4e"/>
       <use xlink:href="#SimHei-32" transform="translate(50 0)"/>
       <use xlink:href="#SimHei-37" transform="translate(100 0)"/>
       <use xlink:href="#SimHei-32" transform="translate(150 0)"/>
       <use xlink:href="#SimHei-30" transform="translate(200 0)"/>
      </g>
     </g>
    </g>
    <g id="xtick_19">
     <g id="line2d_41">
      <g>
       <use xlink:href="#ma3b1768de7" x="986.196887" y="83.079861" style="stroke: #000000; stroke-width: 0.8"/>
      </g>
     </g>
     <g id="text_30">
      <!-- N6820 -->
      <g transform="translate(990.085974 75.372754) rotate(-45) scale(0.08 -0.08)">
       <use xlink:href="#SimHei-4e"/>
       <use xlink:href="#SimHei-36" transform="translate(50 0)"/>
       <use xlink:href="#SimHei-38" transform="translate(100 0)"/>
       <use xlink:href="#SimHei-32" transform="translate(150 0)"/>
       <use xlink:href="#SimHei-30" transform="translate(200 0)"/>
      </g>
     </g>
    </g>
    <g id="xtick_20">
     <g id="line2d_42">
      <g>
       <use xlink:href="#ma3b1768de7" x="1167.880349" y="83.079861" style="stroke: #000000; stroke-width: 0.8"/>
      </g>
     </g>
     <g id="text_31">
      <!-- N0 -->
      <g transform="translate(1171.769436 75.372754) rotate(-45) scale(0.08 -0.08)">
       <use xlink:href="#SimHei-4e"/>
       <use xlink:href="#SimHei-30" transform="translate(50 0)"/>
      </g>
     </g>
    </g>
    <g id="text_32">
     <!-- 指令行号 N -->
     <g transform="translate(695.506562 44.85625) scale(0.1 -0.1)">
      <defs>
       <path id="SimHei-6307" d="M 5625 2225 
Q 5600 1925 5600 1350 
L 5600 300 
Q 5600 -225 5625 -525 
L 5125 -525 
L 5125 -125 
L 3300 -125 
L 3300 -625 
L 2800 -625 
Q 2825 -300 2825 300 
L 2825 1350 
Q 2825 1925 2800 2225 
L 5625 2225 
z
M 500 25 
Q 1075 -25 1175 37 
Q 1275 100 1275 275 
L 1275 1675 
Q 1050 1600 925 1537 
Q 800 1475 475 1275 
Q 400 1525 225 1800 
Q 625 1900 825 1975 
Q 1025 2050 1275 2125 
L 1275 3300 
L 1100 3300 
Q 775 3300 450 3275 
L 450 3725 
Q 750 3700 1100 3700 
L 1275 3700 
L 1275 4450 
Q 1275 4800 1250 5125 
L 1775 5125 
Q 1750 4850 1750 4450 
L 1750 3700 
Q 2075 3700 2425 3725 
L 2425 3275 
Q 2050 3300 1750 3300 
L 1750 2325 
Q 1850 2350 2025 2425 
L 2375 2575 
Q 2350 2300 2375 2100 
Q 2225 2050 2062 1987 
Q 1900 1925 1750 1850 
L 1750 100 
Q 1725 -200 1575 -337 
Q 1425 -475 675 -525 
Q 625 -250 500 25 
z
M 3325 5025 
Q 3300 4675 3300 4125 
Q 4125 4275 4512 4412 
Q 4900 4550 5225 4725 
Q 5325 4475 5575 4250 
Q 5450 4225 5237 4175 
Q 5025 4125 4725 4050 
Q 4425 3975 4037 3887 
Q 3650 3800 3300 3725 
L 3300 3175 
Q 3275 2925 3700 2925 
L 4925 2925 
Q 5300 2925 5387 3087 
Q 5475 3250 5550 3600 
Q 5750 3400 6050 3300 
Q 5825 2725 5700 2637 
Q 5575 2550 5275 2525 
L 3350 2525 
Q 3050 2525 2937 2687 
Q 2825 2850 2825 2975 
L 2825 4125 
Q 2825 4775 2800 5025 
L 3325 5025 
z
M 5125 275 
L 5125 875 
L 3300 875 
L 3300 275 
L 5125 275 
z
M 5125 1250 
L 5125 1825 
L 3300 1825 
L 3300 1250 
L 5125 1250 
z
" transform="scale(0.015625)"/>
       <path id="SimHei-4ee4" d="M 5375 2075 
L 5375 1550 
Q 4925 1325 4450 937 
Q 3975 550 3575 125 
L 4250 -325 
Q 4050 -550 3875 -775 
Q 3100 -125 1850 425 
L 2150 875 
Q 2400 775 3125 350 
Q 3800 1025 4450 1625 
L 2025 1625 
Q 1500 1625 975 1600 
L 975 2100 
Q 1525 2075 2025 2075 
L 5375 2075 
z
M 3375 4850 
Q 4450 3550 6200 2900 
Q 5950 2625 5800 2350 
Q 4150 3150 3100 4475 
Q 2075 3125 625 2225 
Q 400 2525 200 2700 
Q 875 2975 1675 3675 
Q 2475 4375 2950 5300 
Q 3275 5175 3550 5050 
Q 3475 5000 3375 4850 
z
M 2925 3600 
Q 3175 3350 3750 2725 
L 3300 2325 
Q 3050 2700 2550 3225 
Q 2750 3375 2925 3600 
z
" transform="scale(0.015625)"/>
       <path id="SimHei-53f7" d="M 5025 4925 
Q 5000 4550 5000 4075 
Q 5000 3600 5025 3175 
L 1400 3175 
Q 1425 3525 1425 4000 
Q 1425 4500 1400 4925 
L 5025 4925 
z
M 5175 2625 
Q 5650 2625 6025 2650 
L 6025 2200 
Q 5650 2225 5175 2225 
L 2450 2225 
Q 2350 1875 2225 1450 
L 5175 1450 
Q 5100 1050 5062 775 
Q 5025 500 4950 112 
Q 4875 -275 4650 -412 
Q 4425 -550 3225 -625 
Q 3125 -350 2975 -50 
Q 3875 -75 4112 -50 
Q 4350 -25 4425 212 
Q 4500 450 4575 1025 
L 1600 1025 
Q 1825 1625 1950 2225 
L 1350 2225 
Q 825 2225 375 2200 
L 375 2650 
Q 825 2625 1350 2625 
L 5175 2625 
z
M 4525 3575 
L 4525 4525 
L 1900 4525 
L 1900 3575 
L 4525 3575 
z
" transform="scale(0.015625)"/>
      </defs>
      <use xlink:href="#SimHei-6307"/>
      <use xlink:href="#SimHei-4ee4" transform="translate(100 0)"/>
      <use xlink:href="#SimHei-884c" transform="translate(200 0)"/>
      <use xlink:href="#SimHei-53f7" transform="translate(300 0)"/>
      <use xlink:href="#SimHei-20" transform="translate(400 0)"/>
      <use xlink:href="#SimHei-4e" transform="translate(450 0)"/>
     </g>
    </g>
   </g>
   <g id="patch_7">
    <path d="M 50.442188 564.660783 
L 50.442188 83.079861 
" style="fill: none; stroke: #000000; stroke-width: 0.8; stroke-linejoin: miter; stroke-linecap: square"/>
   </g>
   <g id="patch_8">
    <path d="M 1390.570937 564.660783 
L 1390.570937 83.079861 
" style="fill: none; stroke: #000000; stroke-width: 0.8; stroke-linejoin: miter; stroke-linecap: square"/>
   </g>
   <g id="patch_9">
    <path d="M 50.442188 564.660783 
L 1390.570937 564.660783 
" style="fill: none; stroke: #000000; stroke-width: 0.8; stroke-linejoin: miter; stroke-linecap: square"/>
   </g>
   <g id="patch_10">
    <path d="M 50.442188 83.079861 
L 1390.570937 83.079861 
" style="fill: none; stroke: #000000; stroke-width: 0.8; stroke-linejoin: miter; stroke-linecap: square"/>
   </g>
  </g>
 </g>
 <defs>
  <clipPath id="pbc85ae1cd6">
   <rect x="50.442188" y="83.079861" width="1340.12875" height="481.580922"/>
  </clipPath>
 </defs>
</svg>
