<?xml version="1.0" encoding="utf-8" standalone="no"?>
<!DOCTYPE svg PUBLIC "-//W3C//DTD SVG 1.1//EN"
  "http://www.w3.org/Graphics/SVG/1.1/DTD/svg11.dtd">
<svg xmlns:xlink="http://www.w3.org/1999/xlink" width="846.36919pt" height="488.174277pt" viewBox="0 0 846.36919 488.174277" xmlns="http://www.w3.org/2000/svg" version="1.1">
 <metadata>
  <rdf:RDF xmlns:dc="http://purl.org/dc/elements/1.1/" xmlns:cc="http://creativecommons.org/ns#" xmlns:rdf="http://www.w3.org/1999/02/22-rdf-syntax-ns#">
   <cc:Work>
    <dc:type rdf:resource="http://purl.org/dc/dcmitype/StillImage"/>
    <dc:date>2025-12-10T13:35:02.844087</dc:date>
    <dc:format>image/svg+xml</dc:format>
    <dc:creator>
     <cc:Agent>
      <dc:title>Matplotlib v3.9.2, https://matplotlib.org/</dc:title>
     </cc:Agent>
    </dc:creator>
   </cc:Work>
  </rdf:RDF>
 </metadata>
 <defs>
  <style type="text/css">*{stroke-linejoin: round; stroke-linecap: butt}</style>
 </defs>
 <g id="figure_1">
  <g id="patch_1">
   <path d="M 0 488.174277 
L 846.36919 488.174277 
L 846.36919 0 
L 0 0 
z
" style="fill: #ffffff"/>
  </g>
  <g id="axes_1">
   <g id="patch_2">
    <path d="M 50.44 450.646152 
L 827.283528 450.646152 
L 827.283528 70.986111 
L 50.44 70.986111 
z
" style="fill: #ffffff"/>
   </g>
   <g id="matplotlib.axis_1">
    <g id="xtick_1">
     <g id="line2d_1">
      <path d="M 80.038473 450.646152 
L 80.038473 70.986111 
" clip-path="url(#p2ef9be5fe1)" style="fill: none; stroke-dasharray: 2.96,1.28; stroke-dashoffset: 0; stroke: #b0b0b0; stroke-opacity: 0.7; stroke-width: 0.8"/>
     </g>
     <g id="line2d_2">
      <defs>
       <path id="mbb9f0e31b0" d="M 0 0 
L 0 3.5 
" style="stroke: #000000; stroke-width: 0.8"/>
      </defs>
      <g>
       <use xlink:href="#mbb9f0e31b0" x="80.038473" y="450.646152" style="stroke: #000000; stroke-width: 0.8"/>
      </g>
     </g>
     <g id="text_1">
      <!-- 0 -->
      <g transform="translate(77.538473 464.521152) scale(0.1 -0.1)">
       <defs>
        <path id="SimHei-30" d="M 225 2537 
Q 250 3200 412 3587 
Q 575 3975 875 4225 
Q 1175 4475 1612 4475 
Q 2050 4475 2375 4112 
Q 2700 3750 2800 3200 
Q 2900 2650 2862 1937 
Q 2825 1225 2612 775 
Q 2400 325 1975 150 
Q 1550 -25 1125 187 
Q 700 400 525 750 
Q 350 1100 275 1487 
Q 200 1875 225 2537 
z
M 750 2687 
Q 675 2000 800 1462 
Q 925 925 1212 700 
Q 1500 475 1800 612 
Q 2100 750 2237 1162 
Q 2375 1575 2375 2062 
Q 2375 2550 2337 2950 
Q 2300 3350 2112 3675 
Q 1925 4000 1612 4012 
Q 1300 4025 1062 3700 
Q 825 3375 750 2687 
z
" transform="scale(0.015625)"/>
       </defs>
       <use xlink:href="#SimHei-30"/>
      </g>
     </g>
    </g>
    <g id="xtick_2">
     <g id="line2d_3">
      <path d="M 204.476926 450.646152 
L 204.476926 70.986111 
" clip-path="url(#p2ef9be5fe1)" style="fill: none; stroke-dasharray: 2.96,1.28; stroke-dashoffset: 0; stroke: #b0b0b0; stroke-opacity: 0.7; stroke-width: 0.8"/>
     </g>
     <g id="line2d_4">
      <g>
       <use xlink:href="#mbb9f0e31b0" x="204.476926" y="450.646152" style="stroke: #000000; stroke-width: 0.8"/>
      </g>
     </g>
     <g id="text_2">
      <!-- 10000 -->
      <g transform="translate(191.976926 464.521152) scale(0.1 -0.1)">
       <defs>
        <path id="SimHei-31" d="M 1400 3600 
Q 1075 3275 575 2975 
L 575 3450 
Q 1200 3875 1600 4450 
L 1900 4450 
L 1900 150 
L 1400 150 
L 1400 3600 
z
" transform="scale(0.015625)"/>
       </defs>
       <use xlink:href="#SimHei-31"/>
       <use xlink:href="#SimHei-30" x="50"/>
       <use xlink:href="#SimHei-30" x="100"/>
       <use xlink:href="#SimHei-30" x="150"/>
       <use xlink:href="#SimHei-30" x="200"/>
      </g>
     </g>
    </g>
    <g id="xtick_3">
     <g id="line2d_5">
      <path d="M 328.915379 450.646152 
L 328.915379 70.986111 
" clip-path="url(#p2ef9be5fe1)" style="fill: none; stroke-dasharray: 2.96,1.28; stroke-dashoffset: 0; stroke: #b0b0b0; stroke-opacity: 0.7; stroke-width: 0.8"/>
     </g>
     <g id="line2d_6">
      <g>
       <use xlink:href="#mbb9f0e31b0" x="328.915379" y="450.646152" style="stroke: #000000; stroke-width: 0.8"/>
      </g>
     </g>
     <g id="text_3">
      <!-- 20000 -->
      <g transform="translate(316.415379 464.521152) scale(0.1 -0.1)">
       <defs>
        <path id="SimHei-32" d="M 300 250 
Q 325 625 650 925 
Q 975 1225 1475 1862 
Q 1975 2500 2125 2850 
Q 2275 3200 2237 3450 
Q 2200 3700 2000 3862 
Q 1800 4025 1537 4000 
Q 1275 3975 1037 3800 
Q 800 3625 675 3275 
L 200 3350 
Q 400 3925 712 4187 
Q 1025 4450 1450 4475 
Q 1700 4500 1900 4462 
Q 2100 4425 2312 4287 
Q 2525 4150 2662 3875 
Q 2800 3600 2762 3212 
Q 2725 2825 2375 2287 
Q 2025 1750 1025 600 
L 2825 600 
L 2825 150 
L 300 150 
L 300 250 
z
" transform="scale(0.015625)"/>
       </defs>
       <use xlink:href="#SimHei-32"/>
       <use xlink:href="#SimHei-30" x="50"/>
       <use xlink:href="#SimHei-30" x="100"/>
       <use xlink:href="#SimHei-30" x="150"/>
       <use xlink:href="#SimHei-30" x="200"/>
      </g>
     </g>
    </g>
    <g id="xtick_4">
     <g id="line2d_7">
      <path d="M 453.353832 450.646152 
L 453.353832 70.986111 
" clip-path="url(#p2ef9be5fe1)" style="fill: none; stroke-dasharray: 2.96,1.28; stroke-dashoffset: 0; stroke: #b0b0b0; stroke-opacity: 0.7; stroke-width: 0.8"/>
     </g>
     <g id="line2d_8">
      <g>
       <use xlink:href="#mbb9f0e31b0" x="453.353832" y="450.646152" style="stroke: #000000; stroke-width: 0.8"/>
      </g>
     </g>
     <g id="text_4">
      <!-- 30000 -->
      <g transform="translate(440.853832 464.521152) scale(0.1 -0.1)">
       <defs>
        <path id="SimHei-33" d="M 250 1225 
L 700 1300 
Q 800 975 1025 762 
Q 1250 550 1587 562 
Q 1925 575 2125 837 
Q 2325 1100 2300 1437 
Q 2275 1775 2037 1962 
Q 1800 2150 1275 2225 
L 1275 2550 
Q 1800 2600 2037 2825 
Q 2275 3050 2250 3412 
Q 2225 3775 1925 3937 
Q 1625 4100 1287 3975 
Q 950 3850 750 3275 
L 300 3350 
Q 450 3800 712 4100 
Q 975 4400 1425 4450 
Q 1875 4500 2212 4337 
Q 2550 4175 2687 3837 
Q 2825 3500 2725 3100 
Q 2625 2700 2150 2400 
Q 2500 2250 2687 1950 
Q 2875 1650 2812 1162 
Q 2750 675 2375 375 
Q 2000 75 1525 87 
Q 1050 100 700 387 
Q 350 675 250 1225 
z
" transform="scale(0.015625)"/>
       </defs>
       <use xlink:href="#SimHei-33"/>
       <use xlink:href="#SimHei-30" x="50"/>
       <use xlink:href="#SimHei-30" x="100"/>
       <use xlink:href="#SimHei-30" x="150"/>
       <use xlink:href="#SimHei-30" x="200"/>
      </g>
     </g>
    </g>
    <g id="xtick_5">
     <g id="line2d_9">
      <path d="M 577.792285 450.646152 
L 577.792285 70.986111 
" clip-path="url(#p2ef9be5fe1)" style="fill: none; stroke-dasharray: 2.96,1.28; stroke-dashoffset: 0; stroke: #b0b0b0; stroke-opacity: 0.7; stroke-width: 0.8"/>
     </g>
     <g id="line2d_10">
      <g>
       <use xlink:href="#mbb9f0e31b0" x="577.792285" y="450.646152" style="stroke: #000000; stroke-width: 0.8"/>
      </g>
     </g>
     <g id="text_5">
      <!-- 40000 -->
      <g transform="translate(565.292285 464.521152) scale(0.1 -0.1)">
       <defs>
        <path id="SimHei-34" d="M 2000 1100 
L 75 1100 
L 75 1525 
L 2100 4450 
L 2475 4450 
L 2475 1525 
L 3075 1525 
L 3075 1100 
L 2475 1100 
L 2475 150 
L 2000 150 
L 2000 1100 
z
M 2000 1525 
L 2000 3500 
L 600 1525 
L 2000 1525 
z
" transform="scale(0.015625)"/>
       </defs>
       <use xlink:href="#SimHei-34"/>
       <use xlink:href="#SimHei-30" x="50"/>
       <use xlink:href="#SimHei-30" x="100"/>
       <use xlink:href="#SimHei-30" x="150"/>
       <use xlink:href="#SimHei-30" x="200"/>
      </g>
     </g>
    </g>
    <g id="xtick_6">
     <g id="line2d_11">
      <path d="M 702.230738 450.646152 
L 702.230738 70.986111 
" clip-path="url(#p2ef9be5fe1)" style="fill: none; stroke-dasharray: 2.96,1.28; stroke-dashoffset: 0; stroke: #b0b0b0; stroke-opacity: 0.7; stroke-width: 0.8"/>
     </g>
     <g id="line2d_12">
      <g>
       <use xlink:href="#mbb9f0e31b0" x="702.230738" y="450.646152" style="stroke: #000000; stroke-width: 0.8"/>
      </g>
     </g>
     <g id="text_6">
      <!-- 50000 -->
      <g transform="translate(689.730738 464.521152) scale(0.1 -0.1)">
       <defs>
        <path id="SimHei-35" d="M 550 1325 
Q 725 650 1150 575 
Q 1575 500 1837 662 
Q 2100 825 2212 1087 
Q 2325 1350 2312 1675 
Q 2300 2000 2137 2225 
Q 1975 2450 1725 2525 
Q 1475 2600 1162 2525 
Q 850 2450 650 2175 
L 225 2225 
Q 275 2375 700 4375 
L 2675 4375 
L 2675 3925 
L 1075 3925 
Q 950 3250 825 2850 
Q 1200 3025 1525 3012 
Q 1850 3000 2150 2862 
Q 2450 2725 2587 2487 
Q 2725 2250 2787 2012 
Q 2850 1775 2837 1500 
Q 2825 1225 2725 937 
Q 2625 650 2425 462 
Q 2225 275 1937 162 
Q 1650 50 1275 75 
Q 900 100 562 350 
Q 225 600 100 1200 
L 550 1325 
z
" transform="scale(0.015625)"/>
       </defs>
       <use xlink:href="#SimHei-35"/>
       <use xlink:href="#SimHei-30" x="50"/>
       <use xlink:href="#SimHei-30" x="100"/>
       <use xlink:href="#SimHei-30" x="150"/>
       <use xlink:href="#SimHei-30" x="200"/>
      </g>
     </g>
    </g>
    <g id="xtick_7">
     <g id="line2d_13">
      <path d="M 826.66919 450.646152 
L 826.66919 70.986111 
" clip-path="url(#p2ef9be5fe1)" style="fill: none; stroke-dasharray: 2.96,1.28; stroke-dashoffset: 0; stroke: #b0b0b0; stroke-opacity: 0.7; stroke-width: 0.8"/>
     </g>
     <g id="line2d_14">
      <g>
       <use xlink:href="#mbb9f0e31b0" x="826.66919" y="450.646152" style="stroke: #000000; stroke-width: 0.8"/>
      </g>
     </g>
     <g id="text_7">
      <!-- 60000 -->
      <g transform="translate(814.16919 464.521152) scale(0.1 -0.1)">
       <defs>
        <path id="SimHei-36" d="M 250 1612 
Q 275 1975 387 2225 
Q 500 2475 725 2850 
L 1750 4450 
L 2325 4450 
L 1275 2800 
Q 1950 2975 2350 2750 
Q 2750 2525 2887 2237 
Q 3025 1950 3037 1612 
Q 3050 1275 2937 950 
Q 2825 625 2537 362 
Q 2250 100 1737 75 
Q 1225 50 862 262 
Q 500 475 362 862 
Q 225 1250 250 1612 
z
M 1025 787 
Q 1250 550 1625 525 
Q 2000 500 2250 775 
Q 2500 1050 2500 1575 
Q 2500 2100 2187 2300 
Q 1875 2500 1487 2450 
Q 1100 2400 925 2075 
Q 750 1750 775 1387 
Q 800 1025 1025 787 
z
" transform="scale(0.015625)"/>
       </defs>
       <use xlink:href="#SimHei-36"/>
       <use xlink:href="#SimHei-30" x="50"/>
       <use xlink:href="#SimHei-30" x="100"/>
       <use xlink:href="#SimHei-30" x="150"/>
       <use xlink:href="#SimHei-30" x="200"/>
      </g>
     </g>
    </g>
    <g id="text_8">
     <!-- 行程 s (mm) -->
     <g transform="translate(405.861764 479.474277) scale(0.12 -0.12)">
      <defs>
       <path id="SimHei-884c" d="M 5300 3100 
Q 5775 3100 6175 3125 
L 6175 2625 
Q 5775 2650 5325 2650 
L 4975 2650 
L 4975 -75 
Q 5000 -375 4787 -487 
Q 4575 -600 3950 -675 
Q 3900 -375 3675 -75 
Q 4100 -125 4275 -112 
Q 4450 -100 4475 150 
L 4475 2650 
L 3475 2650 
Q 3000 2650 2575 2625 
L 2575 3125 
Q 3025 3100 3475 3100 
L 5300 3100 
z
M 2300 3400 
Q 2075 3275 1962 3075 
Q 1850 2875 1650 2575 
L 1650 325 
Q 1650 0 1675 -675 
L 1150 -675 
Q 1175 75 1175 450 
L 1175 2050 
Q 950 1675 575 1300 
Q 400 1550 250 1725 
Q 825 2275 1150 2775 
Q 1475 3275 1725 3725 
Q 1975 3575 2300 3400 
z
M 4875 4800 
Q 5300 4800 5750 4825 
L 5750 4350 
Q 5300 4375 4825 4375 
L 3900 4375 
Q 3350 4375 2950 4350 
L 2950 4825 
Q 3350 4800 3900 4800 
L 4875 4800 
z
M 2075 4925 
Q 1875 4900 1550 4387 
Q 1225 3875 650 3250 
Q 500 3450 325 3625 
Q 725 4025 1050 4487 
Q 1375 4950 1525 5300 
Q 1775 5150 2075 4925 
z
" transform="scale(0.015625)"/>
       <path id="SimHei-7a0b" d="M 5825 4975 
Q 5800 4425 5800 3975 
Q 5800 3550 5825 3125 
L 3025 3125 
Q 3050 3600 3050 4025 
Q 3050 4450 3025 4975 
L 5825 4975 
z
M 400 4825 
Q 825 4875 1362 4987 
Q 1900 5100 2275 5275 
Q 2450 4950 2625 4725 
Q 2450 4750 2262 4712 
Q 2075 4675 1850 4650 
L 1850 3425 
Q 2200 3425 2600 3450 
L 2600 2975 
Q 2200 3000 1850 3000 
L 1850 800 
Q 1850 250 1875 -675 
L 1375 -675 
Q 1400 250 1400 775 
L 1400 1925 
Q 1050 1225 625 600 
Q 450 850 225 1050 
Q 575 1400 850 1850 
Q 1125 2300 1350 3000 
Q 725 3000 425 2975 
L 425 3450 
Q 850 3425 1050 3425 
L 1400 3425 
L 1400 4550 
Q 1075 4475 575 4400 
Q 500 4625 400 4825 
z
M 5100 2500 
Q 5500 2500 5950 2525 
L 5950 2075 
Q 5500 2100 5100 2100 
L 4625 2100 
L 4625 1300 
L 4900 1300 
Q 5275 1300 5775 1325 
L 5775 850 
Q 5275 875 4975 875 
L 4625 875 
L 4625 0 
L 5225 0 
Q 5675 0 6175 25 
L 6175 -450 
Q 5775 -425 5225 -425 
L 3550 -425 
Q 3000 -425 2600 -475 
L 2600 25 
Q 3000 0 3550 0 
L 4150 0 
L 4150 875 
L 3800 875 
Q 3400 875 3050 825 
L 3050 1325 
Q 3400 1300 3800 1300 
L 4150 1300 
L 4150 2100 
L 3750 2100 
Q 3300 2100 2900 2075 
L 2900 2525 
Q 3300 2500 3750 2500 
L 5100 2500 
z
M 5275 3575 
L 5275 4550 
L 3500 4550 
L 3500 3575 
L 5275 3575 
z
M 2300 2400 
Q 2550 2025 2825 1525 
Q 2675 1425 2425 1225 
Q 2175 1775 1925 2125 
Q 2075 2250 2300 2400 
z
" transform="scale(0.015625)"/>
       <path id="SimHei-20" transform="scale(0.015625)"/>
       <path id="SimHei-73" d="M 2750 900 
Q 2750 500 2437 287 
Q 2125 75 1650 75 
Q 1050 75 725 312 
Q 400 550 400 1000 
L 900 1000 
Q 900 700 1112 600 
Q 1325 500 1625 500 
Q 1925 500 2075 612 
Q 2225 725 2225 900 
Q 2225 1025 2100 1150 
Q 1975 1275 1475 1350 
Q 900 1425 687 1637 
Q 475 1850 475 2200 
Q 475 2500 762 2737 
Q 1050 2975 1600 2975 
Q 2100 2975 2387 2750 
Q 2675 2525 2675 2150 
L 2175 2150 
Q 2175 2375 2012 2462 
Q 1850 2550 1600 2550 
Q 1275 2550 1137 2437 
Q 1000 2325 1000 2175 
Q 1000 2000 1125 1900 
Q 1250 1800 1650 1750 
Q 2300 1650 2525 1437 
Q 2750 1225 2750 900 
z
" transform="scale(0.015625)"/>
       <path id="SimHei-28" d="M 2975 -200 
L 2700 -475 
Q 2075 125 1762 775 
Q 1450 1425 1450 2250 
Q 1450 3075 1762 3725 
Q 2075 4375 2700 5000 
L 2975 4725 
Q 2400 4175 2112 3587 
Q 1825 3000 1825 2250 
Q 1825 1500 2112 912 
Q 2400 325 2975 -200 
z
" transform="scale(0.015625)"/>
       <path id="SimHei-6d" d="M 3050 125 
L 2550 125 
L 2550 2150 
Q 2550 2300 2500 2400 
Q 2450 2500 2300 2500 
Q 2125 2500 1975 2312 
Q 1825 2125 1825 1825 
L 1825 125 
L 1325 125 
L 1325 2150 
Q 1325 2300 1275 2400 
Q 1225 2500 1075 2500 
Q 900 2500 750 2312 
Q 600 2125 600 1825 
L 600 125 
L 100 125 
L 100 2925 
L 600 2925 
L 600 2550 
Q 725 2750 900 2862 
Q 1075 2975 1275 2975 
Q 1475 2975 1612 2862 
Q 1750 2750 1800 2550 
Q 1925 2750 2087 2862 
Q 2250 2975 2450 2975 
Q 2750 2975 2900 2812 
Q 3050 2650 3050 2350 
L 3050 125 
z
" transform="scale(0.015625)"/>
       <path id="SimHei-29" d="M 1675 2250 
Q 1675 1425 1362 775 
Q 1050 125 425 -475 
L 150 -200 
Q 725 325 1012 912 
Q 1300 1500 1300 2250 
Q 1300 3000 1012 3587 
Q 725 4175 150 4725 
L 425 5000 
Q 1050 4375 1362 3725 
Q 1675 3075 1675 2250 
z
" transform="scale(0.015625)"/>
      </defs>
      <use xlink:href="#SimHei-884c"/>
      <use xlink:href="#SimHei-7a0b" x="100"/>
      <use xlink:href="#SimHei-20" x="200"/>
      <use xlink:href="#SimHei-73" x="250"/>
      <use xlink:href="#SimHei-20" x="300"/>
      <use xlink:href="#SimHei-28" x="350"/>
      <use xlink:href="#SimHei-6d" x="400"/>
      <use xlink:href="#SimHei-6d" x="450"/>
      <use xlink:href="#SimHei-29" x="500"/>
     </g>
    </g>
   </g>
   <g id="matplotlib.axis_2">
    <g id="ytick_1">
     <g id="line2d_15">
      <path d="M 50.44 433.388878 
L 827.283528 433.388878 
" clip-path="url(#p2ef9be5fe1)" style="fill: none; stroke-dasharray: 2.96,1.28; stroke-dashoffset: 0; stroke: #b0b0b0; stroke-opacity: 0.7; stroke-width: 0.8"/>
     </g>
     <g id="line2d_16">
      <defs>
       <path id="m8d0ab8d977" d="M 0 0 
L -3.5 0 
" style="stroke: #000000; stroke-width: 0.8"/>
      </defs>
      <g>
       <use xlink:href="#m8d0ab8d977" x="50.44" y="433.388878" style="stroke: #000000; stroke-width: 0.8"/>
      </g>
     </g>
     <g id="text_9">
      <!-- 0 -->
      <g transform="translate(38.44 436.826378) scale(0.1 -0.1)">
       <use xlink:href="#SimHei-30"/>
      </g>
     </g>
    </g>
    <g id="ytick_2">
     <g id="line2d_17">
      <path d="M 50.44 353.306673 
L 827.283528 353.306673 
" clip-path="url(#p2ef9be5fe1)" style="fill: none; stroke-dasharray: 2.96,1.28; stroke-dashoffset: 0; stroke: #b0b0b0; stroke-opacity: 0.7; stroke-width: 0.8"/>
     </g>
     <g id="line2d_18">
      <g>
       <use xlink:href="#m8d0ab8d977" x="50.44" y="353.306673" style="stroke: #000000; stroke-width: 0.8"/>
      </g>
     </g>
     <g id="text_10">
      <!-- 2000 -->
      <g transform="translate(23.44 356.744173) scale(0.1 -0.1)">
       <use xlink:href="#SimHei-32"/>
       <use xlink:href="#SimHei-30" x="50"/>
       <use xlink:href="#SimHei-30" x="100"/>
       <use xlink:href="#SimHei-30" x="150"/>
      </g>
     </g>
    </g>
    <g id="ytick_3">
     <g id="line2d_19">
      <path d="M 50.44 273.224469 
L 827.283528 273.224469 
" clip-path="url(#p2ef9be5fe1)" style="fill: none; stroke-dasharray: 2.96,1.28; stroke-dashoffset: 0; stroke: #b0b0b0; stroke-opacity: 0.7; stroke-width: 0.8"/>
     </g>
     <g id="line2d_20">
      <g>
       <use xlink:href="#m8d0ab8d977" x="50.44" y="273.224469" style="stroke: #000000; stroke-width: 0.8"/>
      </g>
     </g>
     <g id="text_11">
      <!-- 4000 -->
      <g transform="translate(23.44 276.661969) scale(0.1 -0.1)">
       <use xlink:href="#SimHei-34"/>
       <use xlink:href="#SimHei-30" x="50"/>
       <use xlink:href="#SimHei-30" x="100"/>
       <use xlink:href="#SimHei-30" x="150"/>
      </g>
     </g>
    </g>
    <g id="ytick_4">
     <g id="line2d_21">
      <path d="M 50.44 193.142264 
L 827.283528 193.142264 
" clip-path="url(#p2ef9be5fe1)" style="fill: none; stroke-dasharray: 2.96,1.28; stroke-dashoffset: 0; stroke: #b0b0b0; stroke-opacity: 0.7; stroke-width: 0.8"/>
     </g>
     <g id="line2d_22">
      <g>
       <use xlink:href="#m8d0ab8d977" x="50.44" y="193.142264" style="stroke: #000000; stroke-width: 0.8"/>
      </g>
     </g>
     <g id="text_12">
      <!-- 6000 -->
      <g transform="translate(23.44 196.579764) scale(0.1 -0.1)">
       <use xlink:href="#SimHei-36"/>
       <use xlink:href="#SimHei-30" x="50"/>
       <use xlink:href="#SimHei-30" x="100"/>
       <use xlink:href="#SimHei-30" x="150"/>
      </g>
     </g>
    </g>
    <g id="ytick_5">
     <g id="line2d_23">
      <path d="M 50.44 113.06006 
L 827.283528 113.06006 
" clip-path="url(#p2ef9be5fe1)" style="fill: none; stroke-dasharray: 2.96,1.28; stroke-dashoffset: 0; stroke: #b0b0b0; stroke-opacity: 0.7; stroke-width: 0.8"/>
     </g>
     <g id="line2d_24">
      <g>
       <use xlink:href="#m8d0ab8d977" x="50.44" y="113.06006" style="stroke: #000000; stroke-width: 0.8"/>
      </g>
     </g>
     <g id="text_13">
      <!-- 8000 -->
      <g transform="translate(23.44 116.49756) scale(0.1 -0.1)">
       <defs>
        <path id="SimHei-38" d="M 175 1375 
Q 175 1675 325 1962 
Q 475 2250 825 2425 
Q 525 2600 425 2812 
Q 325 3025 312 3300 
Q 300 3575 387 3775 
Q 475 3975 650 4150 
Q 825 4325 1037 4387 
Q 1250 4450 1500 4450 
Q 1750 4450 1950 4400 
Q 2150 4350 2375 4187 
Q 2600 4025 2700 3725 
Q 2800 3425 2687 3025 
Q 2575 2625 2100 2400 
Q 2525 2275 2700 2012 
Q 2875 1750 2875 1375 
Q 2875 1000 2762 775 
Q 2650 550 2512 400 
Q 2375 250 2137 162 
Q 1900 75 1537 75 
Q 1175 75 912 162 
Q 650 250 475 425 
Q 300 600 237 837 
Q 175 1075 175 1375 
z
M 687 1400 
Q 675 1100 787 875 
Q 900 650 1200 587 
Q 1500 525 1825 600 
Q 2150 675 2275 950 
Q 2400 1225 2362 1500 
Q 2325 1775 2050 1962 
Q 1775 2150 1450 2125 
Q 1125 2100 912 1900 
Q 700 1700 687 1400 
z
M 775 3350 
Q 775 3100 950 2875 
Q 1125 2650 1500 2650 
Q 1875 2650 2062 2875 
Q 2250 3100 2237 3412 
Q 2225 3725 2012 3875 
Q 1800 4025 1437 4000 
Q 1075 3975 925 3787 
Q 775 3600 775 3350 
z
" transform="scale(0.015625)"/>
       </defs>
       <use xlink:href="#SimHei-38"/>
       <use xlink:href="#SimHei-30" x="50"/>
       <use xlink:href="#SimHei-30" x="100"/>
       <use xlink:href="#SimHei-30" x="150"/>
      </g>
     </g>
    </g>
    <g id="text_14">
     <!-- 材料去除率 MRR (mm$^3$/s) -->
     <g transform="translate(17.94 326.756132) rotate(-90) scale(0.12 -0.12)">
      <defs>
       <path id="SimHei-6750" d="M 4675 3750 
L 4675 4300 
Q 4675 4750 4650 5175 
L 5200 5175 
Q 5150 4750 5150 4275 
L 5150 3750 
Q 5650 3750 6100 3775 
L 6100 3300 
Q 5650 3325 5150 3325 
L 5150 125 
Q 5150 -250 4962 -375 
Q 4775 -500 4225 -625 
Q 4150 -325 4000 -50 
Q 4425 -50 4550 0 
Q 4675 50 4675 325 
L 4675 2675 
Q 4325 2000 3887 1412 
Q 3450 825 2800 225 
Q 2675 400 2400 625 
Q 2950 975 3512 1675 
Q 4075 2375 4500 3325 
L 3650 3325 
Q 3350 3325 2950 3300 
L 2950 3775 
Q 3350 3750 3650 3750 
L 4675 3750 
z
M 2200 2700 
Q 2650 2125 2850 1825 
Q 2625 1675 2450 1550 
Q 2100 2150 1925 2325 
L 1925 425 
Q 1925 -100 1950 -625 
L 1425 -625 
Q 1450 -75 1450 425 
L 1450 2175 
Q 1275 1800 1037 1400 
Q 800 1000 550 650 
Q 475 825 225 1100 
Q 525 1425 875 2062 
Q 1225 2700 1400 3325 
Q 875 3325 425 3300 
L 425 3775 
Q 925 3750 1450 3750 
L 1450 4350 
Q 1450 4725 1425 5175 
L 1950 5175 
Q 1925 4775 1925 4350 
L 1925 3750 
Q 2300 3750 2725 3775 
L 2725 3300 
Q 2300 3325 1925 3325 
L 1925 2475 
Q 2125 2600 2200 2700 
z
" transform="scale(0.015625)"/>
       <path id="SimHei-6599" d="M 1450 4400 
Q 1450 4800 1425 5100 
L 1925 5100 
Q 1900 4850 1900 4375 
L 1900 3075 
Q 2300 3075 2800 3100 
L 2800 2650 
Q 2300 2675 1900 2675 
L 1900 375 
Q 1900 -25 1925 -650 
L 1425 -650 
Q 1450 -25 1450 375 
L 1450 1875 
Q 1225 1300 600 475 
Q 425 650 225 800 
Q 600 1225 887 1712 
Q 1175 2200 1350 2675 
Q 875 2675 350 2650 
L 350 3100 
Q 875 3075 1450 3075 
L 1450 4400 
z
M 4800 4325 
Q 4800 4750 4775 5050 
L 5300 5050 
Q 5275 4750 5275 4325 
L 5275 1650 
Q 5525 1700 6125 1850 
L 6150 1400 
Q 5625 1300 5275 1225 
L 5275 325 
Q 5275 -50 5300 -650 
L 4775 -650 
Q 4800 125 4800 1125 
Q 3175 850 2750 725 
L 2600 1225 
Q 3700 1350 4800 1550 
L 4800 4325 
z
M 3350 3175 
Q 4025 2600 4450 2150 
L 4075 1775 
Q 3675 2300 3050 2800 
Q 3300 3025 3350 3175 
z
M 3550 4575 
Q 4150 4000 4575 3500 
Q 4375 3375 4175 3200 
Q 3825 3650 3250 4250 
Q 3475 4450 3550 4575 
z
M 750 4600 
Q 900 4400 1300 3625 
Q 1100 3525 875 3375 
Q 800 3600 350 4400 
Q 550 4475 750 4600 
z
M 3000 4350 
Q 2825 4075 2350 3300 
Q 2225 3425 1975 3550 
Q 2300 3925 2575 4600 
Q 2800 4450 3000 4350 
z
M 2325 2400 
Q 2650 2025 2975 1600 
Q 2800 1450 2600 1275 
Q 2300 1775 1975 2125 
Q 2175 2250 2325 2400 
z
" transform="scale(0.015625)"/>
       <path id="SimHei-53bb" d="M 3325 1625 
Q 3050 1450 2725 1037 
Q 2400 625 1775 25 
Q 2500 100 3125 162 
Q 3750 225 4500 325 
Q 3950 975 3725 1150 
Q 3950 1250 4200 1450 
Q 4500 1125 4900 662 
Q 5300 200 5750 -275 
Q 5450 -425 5200 -600 
Q 5000 -300 4750 -25 
Q 3025 -200 2262 -337 
Q 1500 -475 1175 -600 
Q 1075 -325 900 0 
Q 1200 75 1812 700 
Q 2425 1325 2675 1975 
L 1450 1975 
Q 750 1975 250 1950 
L 250 2400 
Q 775 2375 1450 2375 
L 2975 2375 
L 2975 3550 
L 2075 3550 
Q 1450 3550 975 3525 
L 975 3975 
Q 1450 3950 2050 3950 
L 2975 3950 
L 2975 4450 
Q 2975 4825 2950 5175 
L 3550 5175 
Q 3500 4850 3500 4500 
L 3500 3950 
L 4250 3950 
Q 4875 3950 5425 3975 
L 5425 3525 
Q 4875 3550 4275 3550 
L 3500 3550 
L 3500 2375 
L 5025 2375 
Q 5625 2375 6175 2400 
L 6175 1950 
Q 5625 1975 5025 1975 
L 2850 1975 
Q 3125 1775 3325 1625 
z
" transform="scale(0.015625)"/>
       <path id="SimHei-9664" d="M 4325 2850 
L 4325 2100 
L 4900 2100 
Q 5250 2100 5725 2125 
L 5725 1675 
Q 5275 1700 4925 1700 
L 4325 1700 
L 4325 75 
Q 4325 -375 4125 -475 
Q 3925 -575 3450 -675 
Q 3425 -400 3250 -75 
Q 3650 -75 3775 -50 
Q 3900 -25 3900 250 
L 3900 1700 
L 3425 1700 
Q 2975 1700 2550 1675 
L 2550 2125 
Q 2950 2100 3450 2100 
L 3900 2100 
L 3900 2850 
L 3625 2850 
Q 3375 2850 3100 2825 
L 3100 3200 
Q 2800 2825 2625 2675 
Q 2450 2850 2200 3000 
Q 2850 3500 3262 4125 
Q 3675 4750 3875 5300 
Q 4100 5175 4425 5050 
Q 4375 4975 4275 4850 
Q 4625 4275 5025 3925 
Q 5425 3575 6200 3250 
Q 5975 3075 5825 2750 
Q 5525 2900 5125 3225 
L 5125 2825 
Q 4800 2850 4525 2850 
L 4325 2850 
z
M 2500 4850 
Q 2350 4475 1800 2950 
Q 2175 2425 2275 2150 
Q 2375 1875 2375 1550 
Q 2375 1225 2150 1000 
Q 1925 775 1450 675 
Q 1375 950 1225 1225 
Q 1725 1275 1850 1437 
Q 1975 1600 1862 1975 
Q 1750 2350 1300 2950 
Q 1650 3625 1875 4450 
L 1025 4450 
L 1025 -625 
L 550 -625 
Q 575 -25 575 925 
L 575 3800 
Q 575 4375 550 4850 
L 2500 4850 
z
M 5050 3275 
Q 4375 3875 4025 4500 
Q 3600 3775 3150 3275 
L 5050 3275 
z
M 5050 1250 
Q 5275 975 5512 687 
Q 5750 400 6075 100 
Q 5800 0 5600 -225 
Q 5425 50 5137 412 
Q 4850 775 4650 950 
L 5050 1250 
z
M 3525 975 
Q 3350 800 3100 462 
Q 2850 125 2550 -225 
Q 2350 -50 2150 75 
Q 2425 325 2650 612 
Q 2875 900 3075 1275 
Q 3275 1100 3525 975 
z
" transform="scale(0.015625)"/>
       <path id="SimHei-7387" d="M 3325 5150 
Q 3425 4900 3550 4525 
L 4800 4525 
Q 5250 4525 5800 4550 
L 5800 4125 
Q 5250 4175 4775 4175 
L 2800 4175 
Q 2975 4050 3300 3900 
Q 3075 3750 2875 3537 
Q 2675 3325 2475 3125 
L 3275 3125 
Q 3575 3425 3775 3775 
Q 4000 3600 4275 3425 
Q 3950 3250 3600 2875 
Q 3250 2500 2625 2000 
L 3850 2100 
Q 3725 2250 3600 2425 
Q 3750 2475 4000 2650 
Q 4250 2350 4700 1700 
Q 4475 1625 4225 1450 
Q 4175 1600 4025 1775 
Q 3700 1750 3425 1750 
L 3425 1050 
L 5150 1050 
Q 5675 1050 6100 1075 
L 6100 650 
Q 5700 675 5125 675 
L 3425 675 
L 3425 175 
Q 3425 -300 3450 -625 
L 2900 -625 
Q 2925 -300 2925 175 
L 2925 675 
L 1325 675 
Q 825 675 325 650 
L 325 1075 
Q 825 1050 1350 1050 
L 2925 1050 
L 2925 1700 
Q 2700 1675 2475 1637 
Q 2250 1600 2025 1525 
Q 1950 1775 1850 2000 
Q 2075 2025 2325 2200 
Q 2575 2375 2975 2800 
Q 2300 2725 2025 2625 
Q 1975 2875 1850 3175 
Q 2075 3175 2325 3487 
Q 2575 3800 2750 4175 
L 1700 4175 
Q 1150 4175 650 4125 
L 650 4550 
Q 1150 4525 1550 4525 
L 2975 4525 
Q 2900 4825 2800 5025 
Q 3025 5075 3325 5150 
z
M 1625 2575 
Q 1725 2400 1825 2200 
Q 1575 2050 1325 1862 
Q 1075 1675 800 1425 
Q 625 1675 475 1875 
Q 800 2025 1100 2212 
Q 1400 2400 1625 2575 
z
M 4850 2650 
Q 5125 2475 5337 2337 
Q 5550 2200 5875 1950 
Q 5675 1800 5500 1600 
Q 5300 1775 5062 1975 
Q 4825 2175 4575 2325 
Q 4725 2475 4850 2650 
z
M 5725 3525 
Q 5550 3450 5300 3262 
Q 5050 3075 4800 2825 
Q 4625 3050 4475 3175 
Q 4700 3325 4875 3487 
Q 5050 3650 5300 3925 
Q 5525 3700 5725 3525 
z
M 1050 3850 
Q 1425 3600 1775 3275 
Q 1575 3100 1425 2925 
Q 1075 3300 675 3525 
Q 875 3700 1050 3850 
z
" transform="scale(0.015625)"/>
       <path id="SimHei-4d" d="M 2925 125 
L 2425 125 
L 2425 3175 
L 2375 3175 
L 1775 125 
L 1375 125 
L 775 3175 
L 725 3175 
L 725 125 
L 225 125 
L 225 4400 
L 1000 4400 
L 1550 1575 
L 1600 1575 
L 2150 4400 
L 2925 4400 
L 2925 125 
z
" transform="scale(0.015625)"/>
       <path id="SimHei-52" d="M 3000 125 
L 2400 125 
L 1500 1975 
L 850 1975 
L 850 125 
L 275 125 
L 275 4400 
L 1525 4400 
Q 2125 4400 2500 4112 
Q 2875 3825 2875 3175 
Q 2875 2675 2625 2400 
Q 2375 2125 2050 2050 
L 3000 125 
z
M 2300 3175 
Q 2300 3525 2087 3725 
Q 1875 3925 1400 3925 
L 850 3925 
L 850 2450 
L 1550 2450 
Q 1850 2450 2075 2612 
Q 2300 2775 2300 3175 
z
" transform="scale(0.015625)"/>
       <path id="DejaVuSans-33" d="M 2597 2516 
Q 3050 2419 3304 2112 
Q 3559 1806 3559 1356 
Q 3559 666 3084 287 
Q 2609 -91 1734 -91 
Q 1441 -91 1130 -33 
Q 819 25 488 141 
L 488 750 
Q 750 597 1062 519 
Q 1375 441 1716 441 
Q 2309 441 2620 675 
Q 2931 909 2931 1356 
Q 2931 1769 2642 2001 
Q 2353 2234 1838 2234 
L 1294 2234 
L 1294 2753 
L 1863 2753 
Q 2328 2753 2575 2939 
Q 2822 3125 2822 3475 
Q 2822 3834 2567 4026 
Q 2313 4219 1838 4219 
Q 1578 4219 1281 4162 
Q 984 4106 628 3988 
L 628 4550 
Q 988 4650 1302 4700 
Q 1616 4750 1894 4750 
Q 2613 4750 3031 4423 
Q 3450 4097 3450 3541 
Q 3450 3153 3228 2886 
Q 3006 2619 2597 2516 
z
" transform="scale(0.015625)"/>
       <path id="SimHei-2f" d="M 3000 4550 
L 350 -175 
L 100 -25 
L 2750 4700 
L 3000 4550 
z
" transform="scale(0.015625)"/>
      </defs>
      <use xlink:href="#SimHei-6750" transform="translate(0 0.765625)"/>
      <use xlink:href="#SimHei-6599" transform="translate(100 0.765625)"/>
      <use xlink:href="#SimHei-53bb" transform="translate(200 0.765625)"/>
      <use xlink:href="#SimHei-9664" transform="translate(300 0.765625)"/>
      <use xlink:href="#SimHei-7387" transform="translate(400 0.765625)"/>
      <use xlink:href="#SimHei-20" transform="translate(500 0.765625)"/>
      <use xlink:href="#SimHei-4d" transform="translate(550 0.765625)"/>
      <use xlink:href="#SimHei-52" transform="translate(600 0.765625)"/>
      <use xlink:href="#SimHei-52" transform="translate(650 0.765625)"/>
      <use xlink:href="#SimHei-20" transform="translate(700 0.765625)"/>
      <use xlink:href="#SimHei-28" transform="translate(750 0.765625)"/>
      <use xlink:href="#SimHei-6d" transform="translate(800 0.765625)"/>
      <use xlink:href="#SimHei-6d" transform="translate(850 0.765625)"/>
      <use xlink:href="#DejaVuSans-33" transform="translate(900.957031 39.046875) scale(0.7)"/>
      <use xlink:href="#SimHei-2f" transform="translate(948.227539 0.765625)"/>
      <use xlink:href="#SimHei-73" transform="translate(998.227539 0.765625)"/>
      <use xlink:href="#SimHei-29" transform="translate(1048.227539 0.765625)"/>
     </g>
    </g>
   </g>
   <g id="line2d_25">
    <path d="M 85.751069 433.388878 
L 91.337163 433.388878 
L 91.339119 412.715355 
L 91.348244 416.133954 
L 92.343751 416.133954 
L 92.343751 433.388878 
L 92.352218 406.451524 
L 92.355479 433.388878 
L 93.351634 433.388878 
L 93.356851 413.301475 
L 93.362715 422.635798 
L 94.358222 422.635798 
L 94.358222 433.388878 
L 94.35887 407.381456 
L 94.929923 433.388878 
L 111.079646 433.388878 
L 111.081601 412.715293 
L 111.090726 416.133971 
L 112.086233 416.133971 
L 112.086233 433.388878 
L 112.0947 406.451443 
L 112.097961 433.388878 
L 113.094117 433.388878 
L 113.099333 413.301495 
L 113.105197 422.635809 
L 114.100704 422.635809 
L 114.100704 433.388878 
L 114.101352 407.381378 
L 114.672405 433.388878 
L 130.847015 433.388878 
L 130.848971 412.715293 
L 130.858096 416.133971 
L 131.853603 416.133971 
L 131.853603 433.388878 
L 131.86207 406.451443 
L 131.865331 433.388878 
L 132.861486 433.388878 
L 132.866703 413.301495 
L 132.872567 422.635809 
L 133.868074 422.635809 
L 133.868074 433.388878 
L 133.868722 407.381378 
L 134.439775 433.388878 
L 150.346 433.388878 
L 150.426362 295.110321 
L 151.288416 411.700988 
L 151.41572 412.237833 
L 151.64037 433.388878 
L 151.543012 316.169579 
L 152.392128 433.388878 
L 152.568547 433.388878 
L 153.061539 297.517793 
L 153.310359 433.388878 
L 153.979005 433.388878 
L 154.059394 295.343347 
L 154.92149 412.067139 
L 155.048812 412.235707 
L 155.273493 433.388878 
L 155.176125 314.675472 
L 156.025293 433.388878 
L 156.201715 433.388878 
L 156.694786 296.896448 
L 156.878649 433.388878 
L 157.641879 433.388878 
L 157.641879 295.017666 
L 158.584514 411.701422 
L 158.711862 412.145134 
L 158.936589 433.388878 
L 158.839209 311.761347 
L 159.701918 433.388878 
L 160.005385 433.388878 
L 160.498563 297.492807 
L 160.682436 433.388878 
L 161.445604 433.388878 
L 161.526011 295.014196 
L 162.388185 412.058509 
L 162.515507 412.512805 
L 162.740202 433.388878 
L 162.642845 313.248861 
L 163.505502 433.388878 
L 163.808971 433.388878 
L 164.302084 298.117622 
L 164.799837 433.388878 
L 165.880557 433.388878 
L 165.880557 267.738154 
L 166.826846 411.932713 
L 166.891946 411.932713 
L 166.891946 404.274352 
L 166.98163 433.388878 
L 167.773938 433.388878 
L 167.956248 433.388878 
L 168.352565 400.621868 
L 168.590232 433.388878 
L 169.606267 433.388878 
L 170.357575 260.830229 
L 170.572628 433.388878 
L 171.270837 433.388878 
L 171.270837 267.744877 
L 172.217003 411.842747 
L 172.282085 411.842747 
L 172.282085 404.851537 
L 172.371755 433.388878 
L 173.163963 433.388878 
L 173.346249 433.388878 
L 173.742463 401.637064 
L 173.980105 433.388878 
L 174.996716 433.388878 
L 175.750316 261.875853 
L 175.965496 433.388878 
L 176.670995 433.388878 
L 176.670995 272.353775 
L 177.617118 411.629371 
L 177.682201 411.629371 
L 177.682201 404.739536 
L 177.77188 433.388878 
L 178.564014 433.388878 
L 178.746254 433.388878 
L 179.142451 401.195348 
L 179.380102 433.388878 
L 180.393529 433.388878 
L 180.393529 261.867394 
L 181.360738 433.388878 
L 182.06674 433.388878 
L 182.06674 267.755939 
L 183.013005 411.842877 
L 183.078107 411.842877 
L 183.078107 403.953876 
L 183.16779 433.388878 
L 183.960025 433.388878 
L 184.142289 433.388878 
L 184.538579 401.03175 
L 184.776266 433.388878 
L 185.789505 433.388878 
L 186.445408 292.942643 
L 186.762972 433.388878 
L 189.736481 433.388878 
L 189.736481 234.602804 
L 190.69893 410.875681 
L 190.78438 410.875681 
L 190.78438 433.388878 
L 191.765241 412.176974 
L 191.87871 412.213628 
L 192.160557 433.388878 
L 192.048911 401.41228 
L 192.284996 433.388878 
L 193.262414 433.388878 
L 193.964384 226.778392 
L 194.174044 433.388878 
L 194.892369 433.388878 
L 194.892369 234.629351 
L 195.854747 411.649369 
L 195.940185 411.649369 
L 195.940185 433.388878 
L 196.864284 411.253632 
L 196.921001 412.296957 
L 197.147926 412.366925 
L 197.204652 402.193342 
L 197.316272 433.388878 
L 197.44071 433.388878 
L 198.41845 433.388878 
L 199.116034 364.633754 
L 199.325623 433.388878 
L 200.041635 433.388878 
L 200.041635 234.606708 
L 201.003928 411.435166 
L 201.089369 411.435166 
L 201.089369 433.388878 
L 202.01335 411.382031 
L 202.070066 412.356384 
L 202.183509 412.533843 
L 202.465283 433.388878 
L 202.353666 402.045771 
L 202.589721 433.388878 
L 203.563037 433.388878 
L 204.259359 226.314856 
L 204.469121 433.388878 
L 205.185654 433.388878 
L 205.185654 234.629351 
L 206.147998 411.849644 
L 206.23344 411.849644 
L 206.23344 433.388878 
L 207.157448 411.494553 
L 207.214182 412.574575 
L 207.441073 412.194108 
L 207.497809 401.282277 
L 207.609443 433.388878 
L 207.733882 433.388878 
L 208.709168 433.388878 
L 209.411144 226.783858 
L 209.660027 433.388878 
L 211.108627 433.388878 
L 211.108627 398.870208 
L 212.053268 433.388878 
L 212.215945 433.388878 
L 212.512136 402.857023 
L 212.752425 433.388878 
L 213.676949 433.388878 
L 214.249591 364.72719 
L 214.474535 433.388878 
L 215.189553 433.388878 
L 215.189553 399.039732 
L 216.13367 433.388878 
L 216.296258 433.388878 
L 216.592166 403.359599 
L 216.832397 433.388878 
L 217.756367 433.388878 
L 218.328377 365.073692 
L 218.553284 433.388878 
L 219.268858 433.388878 
L 219.268858 398.877278 
L 220.21277 433.388878 
L 220.375279 433.388878 
L 220.67112 402.563394 
L 220.911382 433.388878 
L 221.835033 433.388878 
L 222.406871 364.737427 
L 222.631797 433.388878 
L 223.347131 433.388878 
L 223.347131 399.030359 
L 224.291575 433.388878 
L 224.454184 433.388878 
L 224.750289 402.127321 
L 224.99062 433.388878 
L 225.914825 433.388878 
L 226.487294 364.744628 
L 226.860609 433.388878 
L 228.013555 433.388878 
L 228.013555 364.235199 
L 228.996121 433.388878 
L 229.060272 433.388878 
L 229.316889 403.641469 
L 229.563953 433.388878 
L 230.446714 433.388878 
L 230.943905 364.673661 
L 231.177769 433.388878 
L 231.987466 433.388878 
L 232.068836 364.37774 
L 232.97002 433.388878 
L 233.034177 433.388878 
L 233.290787 403.767915 
L 233.537847 433.388878 
L 234.4206 433.388878 
L 234.917782 365.13954 
L 235.15164 433.388878 
L 235.961342 433.388878 
L 236.042713 364.402029 
L 236.943899 433.388878 
L 237.008057 433.388878 
L 237.264665 403.353917 
L 237.511728 433.388878 
L 238.533491 433.388878 
L 239.030671 365.47754 
L 239.264537 433.388878 
L 240.074232 433.388878 
L 240.074232 364.405066 
L 241.0568 433.388878 
L 241.120951 433.388878 
L 241.377568 402.907385 
L 241.624635 433.388878 
L 242.646048 433.388878 
L 243.143252 364.771435 
L 243.62856 433.388878 
L 244.701334 433.388878 
L 244.701334 329.608907 
L 245.65684 433.388878 
L 245.729737 433.388878 
L 245.946833 404.260384 
L 246.201918 433.388878 
L 247.188239 433.388878 
L 247.624614 400.126864 
L 247.927163 433.388878 
L 249.013459 433.388878 
L 249.782305 331.059507 
L 249.938098 433.388878 
L 250.756118 433.388878 
L 250.825071 329.692713 
L 251.712002 433.388878 
L 251.770008 433.388878 
L 252.002056 403.864604 
L 252.257279 433.388878 
L 253.235592 433.388878 
L 253.679215 400.401273 
L 253.982323 433.388878 
L 255.057375 433.388878 
L 255.812507 331.137847 
L 255.966713 433.388878 
L 256.785014 433.388878 
L 256.785014 329.681697 
L 257.742569 433.388878 
L 257.800772 433.388878 
L 258.033628 403.685714 
L 258.288937 433.388878 
L 259.269765 433.388878 
L 259.714729 399.543519 
L 260.018241 433.388878 
L 261.099069 433.388878 
L 261.860674 331.104923 
L 262.014719 433.388878 
L 262.825592 433.388878 
L 262.825592 329.529266 
L 263.783114 433.388878 
L 263.841293 433.388878 
L 264.074005 403.304206 
L 264.329183 433.388878 
L 265.310764 433.388878 
L 265.7555 399.719806 
L 266.058446 433.388878 
L 267.14294 433.388878 
L 267.813221 408.786444 
L 268.115873 412.543473 
L 268.712356 412.8551 
L 268.712356 413.83622 
L 268.998791 412.127219 
L 269.694405 412.223518 
L 269.776234 412.4231 
L 270.185409 414.989985 
L 270.144493 412.09551 
L 270.758263 412.474546 
L 270.840103 412.488817 
L 270.94324 433.388878 
L 271.620329 412.383843 
L 271.832856 412.817274 
L 272.222496 413.073507 
L 272.222496 415.029241 
L 273.214311 412.492504 
L 273.426847 413.444388 
L 273.524487 433.388878 
L 273.596827 412.591536 
L 274.425761 412.6445 
L 274.605317 412.965106 
L 275.263687 412.51159 
L 275.592869 426.397971 
L 275.622789 426.397971 
L 275.714933 433.388878 
L 276.35303 412.875531 
L 276.62175 413.768224 
L 277.037057 414.472183 
L 277.452355 433.388878 
L 277.06148 412.734813 
L 278.028129 414.342483 
L 278.179599 413.381924 
L 278.84226 433.388878 
L 279.167077 415.432656 
L 279.180513 415.432656 
L 279.852361 433.388878 
L 279.2477 414.396706 
L 280.090789 433.388878 
L 281.08765 433.388878 
L 281.08765 300.600744 
L 282.03446 411.914711 
L 282.227464 411.685589 
L 282.227464 403.791252 
L 282.31771 433.388878 
L 283.20096 433.388878 
L 283.424682 433.388878 
L 283.821687 400.293392 
L 284.123342 433.388878 
L 285.180578 433.388878 
L 285.936785 398.975399 
L 286.078719 433.388878 
L 286.976227 433.388878 
L 286.976227 300.512774 
L 287.92414 411.404544 
L 288.117146 411.753389 
L 288.117146 404.415937 
L 288.207459 433.388878 
L 289.092079 433.388878 
L 289.31664 433.388878 
L 289.714264 401.280021 
L 290.016107 433.388878 
L 291.074498 433.388878 
L 291.83334 398.880488 
L 291.975852 433.388878 
L 292.863824 433.388878 
L 292.863824 296.514029 
L 293.843888 411.647156 
L 293.928004 411.647156 
L 294.112353 433.388878 
L 294.022345 404.440489 
L 294.860225 433.388878 
L 295.21455 433.388878 
L 295.619102 401.722042 
L 295.920172 433.388878 
L 296.967529 433.388878 
L 297.673158 398.901179 
L 297.861992 433.388878 
L 298.767837 433.388878 
L 298.767837 300.87281 
L 299.712779 411.625251 
L 299.778642 411.625251 
L 300.000382 433.388878 
L 299.910365 404.120881 
L 300.747722 433.388878 
L 301.105956 433.388878 
L 301.506094 400.55778 
L 301.807206 433.388878 
L 302.887299 433.388878 
L 302.887299 399.993477 
L 303.876027 412.545599 
L 304.840519 412.905201 
L 305.598833 413.875564 
L 305.262575 412.081586 
L 305.814447 412.745484 
L 306.330557 412.676903 
L 306.736552 433.388878 
L 306.373534 412.222477 
L 307.308995 412.606545 
L 307.385035 413.107819 
L 307.42305 414.47279 
L 307.537105 412.312182 
L 308.349458 412.577048 
L 308.385976 412.577048 
L 309.320109 433.388878 
L 308.946801 412.436547 
L 309.382325 433.388878 
L 309.414762 433.388878 
L 310.255321 412.586114 
L 310.410304 413.05056 
L 310.50331 413.946443 
L 310.50331 415.162368 
L 310.6893 412.600602 
L 311.480006 413.260726 
L 311.511701 413.260726 
L 311.575085 433.388878 
L 312.036518 412.62459 
L 312.50754 413.213097 
L 312.558511 413.228063 
L 313.501498 433.388878 
L 312.711404 412.793763 
L 313.543225 413.709644 
L 313.855511 413.191408 
L 314.851461 427.913681 
L 314.871858 427.913681 
L 314.91266 433.388878 
L 315.140862 414.094926 
L 315.862523 414.399785 
L 315.877263 414.399785 
L 315.965749 433.388878 
L 316.785141 433.388878 
L 317.16833 433.388878 
L 317.16833 398.772737 
L 318.141619 415.981386 
L 318.216138 415.981386 
L 318.378248 433.388878 
L 318.290664 410.768364 
L 319.09793 433.388878 
L 319.463675 433.388878 
L 319.823264 401.146895 
L 320.127817 433.388878 
L 321.193556 433.388878 
L 321.9313 364.495292 
L 322.059902 433.388878 
L 322.991065 433.388878 
L 322.991065 400.238953 
L 323.991052 417.419101 
L 324.049609 417.419101 
L 324.108161 411.049019 
L 324.195735 433.388878 
L 324.915141 433.388878 
L 325.274113 433.388878 
L 325.641022 401.899847 
L 325.947797 433.388878 
L 327.026253 433.388878 
L 327.756238 364.447056 
L 327.884126 433.388878 
L 328.815167 433.388878 
L 328.815167 401.130696 
L 329.756706 416.11937 
L 329.932894 416.093127 
L 329.932894 411.206784 
L 330.020209 433.388878 
L 330.925652 433.388878 
L 331.150288 433.388878 
L 331.463517 402.413398 
L 331.768413 433.388878 
L 332.829894 433.388878 
L 333.572783 364.354661 
L 333.70092 433.388878 
L 334.605171 433.388878 
L 334.605171 398.788614 
L 335.591835 416.029101 
L 335.754022 416.139411 
L 335.754022 410.696617 
L 335.841837 433.388878 
L 336.747678 433.388878 
L 336.924937 433.388878 
L 337.28592 401.018886 
L 337.59086 433.388878 
L 338.656177 433.388878 
L 338.656177 364.666981 
L 339.650886 412.070351 
L 340.397299 412.445439 
L 340.397299 433.388878 
L 341.117684 412.109261 
L 341.392616 413.691859 
L 341.436938 413.691859 
L 341.750269 411.890116 
L 341.796122 414.476868 
L 342.401753 412.454896 
L 342.44952 412.454896 
L 342.559501 433.388878 
L 342.725782 412.201222 
L 343.414621 412.741103 
L 343.921289 412.138454 
L 343.921289 415.057524 
L 344.91452 413.122307 
L 345.164246 412.703147 
L 345.268078 433.388878 
L 345.480778 412.243212 
L 346.158127 412.752338 
L 346.428568 413.09563 
L 347.275317 413.970822 
L 346.769388 412.655952 
L 347.417219 413.078322 
L 347.488164 413.06366 
L 347.585872 433.388878 
L 347.76186 412.752728 
L 348.486041 413.255607 
L 348.545269 413.979497 
L 349.450656 433.388878 
L 348.800578 412.652742 
L 349.536093 415.17074 
L 349.582515 414.201765 
L 350.342364 412.860088 
L 349.970796 433.388878 
L 350.578431 413.436276 
L 350.645563 413.93061 
L 350.986888 433.388878 
L 350.712704 413.260162 
L 351.643455 414.092974 
L 351.755434 415.04386 
L 352.132192 433.388878 
L 351.816112 414.164547 
L 352.368632 433.388878 
L 353.548047 433.388878 
L 353.686523 398.94074 
L 354.464745 433.388878 
L 354.831006 433.388878 
L 355.159728 401.794916 
L 355.471185 433.388878 
L 356.533359 433.388878 
L 357.209188 329.63116 
L 357.495244 433.388878 
L 358.194831 433.388878 
L 358.194831 398.863918 
L 359.114436 433.388878 
L 359.511513 433.388878 
L 359.810996 402.298664 
L 360.120725 433.388878 
L 361.168497 433.388878 
L 361.850271 330.07856 
L 362.136904 433.388878 
L 362.830908 433.388878 
L 362.830908 398.877712 
L 363.758009 433.388878 
L 364.138742 433.388878 
L 364.454179 401.89629 
L 364.765281 433.388878 
L 365.816833 433.388878 
L 366.498065 330.660647 
L 366.78415 433.388878 
L 367.48467 433.388878 
L 367.48467 398.813773 
L 368.403696 433.388878 
L 368.769247 433.388878 
L 369.099268 401.691807 
L 369.409923 433.388878 
L 370.4796 433.388878 
L 371.145481 329.977316 
L 371.440651 412.319036 
L 371.823916 412.422406 
L 371.823916 413.554611 
L 372.794283 411.151911 
L 372.841559 411.151911 
L 372.841559 413.730335 
L 373.82437 412.7909 
L 374.306612 412.077378 
L 374.368836 433.388878 
L 375.280248 412.689917 
L 375.796792 412.82569 
L 375.796792 413.769375 
L 375.962053 412.232063 
L 376.771428 413.061622 
L 377.076952 412.356124 
L 377.139166 433.388878 
L 378.059032 413.294301 
L 378.36122 413.297337 
L 378.36122 415.050453 
L 378.889944 412.49515 
L 379.357908 412.996034 
L 379.407194 412.996034 
L 379.518705 433.388878 
L 380.168606 412.59891 
L 380.395052 412.811201 
L 380.534861 413.641497 
L 381.507444 433.388878 
L 380.857944 412.675385 
L 381.531933 414.46958 
L 381.605382 413.812666 
L 382.528564 413.01742 
L 382.317698 415.224832 
L 382.599243 413.924754 
L 382.717042 414.118957 
L 383.043167 433.388878 
L 382.787727 413.169633 
L 383.709764 416.550416 
L 383.744669 416.525604 
L 383.938059 413.622584 
L 384.065257 433.388878 
L 384.499225 433.388878 
L 385.428777 433.388878 
L 385.428777 364.354834 
L 386.264639 433.388878 
L 386.693012 433.388878 
L 386.933422 403.051356 
L 387.250251 433.388878 
L 388.254899 433.388878 
L 388.844201 364.669237 
L 389.145985 433.388878 
L 389.966824 433.388878 
L 389.966824 364.214897 
L 390.804795 433.388878 
L 391.234246 433.388878 
L 391.475022 403.263864 
L 391.791685 433.388878 
L 392.799151 433.388878 
L 393.384777 364.883524 
L 393.685676 433.388878 
L 394.515054 433.388878 
L 394.515054 364.254892 
L 395.348699 433.388878 
L 395.724332 433.388878 
L 396.017843 402.14233 
L 396.334594 433.388878 
L 397.340763 433.388878 
L 397.926709 365.097203 
L 398.227951 433.388878 
L 399.055437 433.388878 
L 399.055437 364.211687 
L 399.889744 433.388878 
L 400.264879 433.388878 
L 400.558927 402.366333 
L 400.875646 433.388878 
L 401.880864 433.388878 
L 402.466515 365.14648 
L 402.832351 412.251844 
L 403.341705 412.018081 
L 403.341705 433.388878 
L 404.203841 399.676559 
L 404.341461 412.502308 
L 404.948325 412.233191 
L 404.994149 400.012086 
L 405.754055 433.388878 
L 405.93184 412.483178 
L 406.467181 412.38419 
L 406.467181 433.388878 
L 407.465439 413.026876 
L 407.966199 412.407137 
L 408.588582 433.388878 
L 408.147797 412.177538 
L 408.937878 412.979724 
L 409.213588 412.385881 
L 409.213588 433.388878 
L 410.200903 412.892752 
L 410.935155 413.838259 
L 410.970089 433.388878 
L 411.646944 412.61149 
L 411.914547 413.262591 
L 412.324339 412.735724 
L 413.08523 433.388878 
L 412.656314 412.582123 
L 413.299801 413.630262 
L 413.509447 413.383269 
L 413.509447 433.388878 
L 413.591184 412.68033 
L 414.500077 412.969921 
L 414.526987 412.969921 
L 414.685087 433.388878 
L 415.520817 414.781163 
L 415.675349 414.12156 
L 415.799854 413.541901 
L 415.939881 433.388878 
L 416.605674 433.388878 
L 416.975666 433.388878 
L 417.014278 364.292197 
L 417.958377 433.388878 
L 417.992241 433.388878 
L 418.989439 364.643557 
L 419.065758 364.563568 
L 419.285863 433.388878 
L 419.14173 364.35735 
L 420.045524 398.982993 
L 420.280083 398.79178 
L 420.280083 433.388878 
L 421.04249 364.505095 
L 421.196229 399.195151 
L 421.303962 399.195151 
L 421.303962 433.388878 
L 422.120914 398.866217 
L 422.295705 433.388878 
L 423.016514 433.388878 
L 423.170516 364.182451 
L 423.99836 433.388878 
L 424.039205 433.388878 
L 424.693987 398.88526 
L 425.035333 408.765739 
L 425.060625 408.765739 
L 425.845695 414.303747 
L 425.733815 399.199576 
L 426.046187 400.666268 
L 426.071405 400.666268 
L 426.273171 414.057664 
L 426.775531 399.133121 
L 427.065776 400.044056 
L 427.116338 400.719319 
L 427.925922 414.217165 
L 427.81473 399.033742 
L 428.09868 400.194115 
L 428.17929 400.89591 
L 428.42373 433.388878 
L 428.94777 399.250067 
L 429.162967 413.7512 
L 429.221651 413.688866 
L 429.572349 415.623128 
L 429.820691 399.558788 
L 430.221162 414.133532 
L 430.513881 413.738446 
L 430.786119 400.037289 
L 431.500492 415.508393 
L 431.519599 415.508393 
L 431.839133 399.32047 
L 432.339635 433.388878 
L 432.511931 414.594031 
L 432.650341 414.848703 
L 432.912642 399.191681 
L 433.162062 416.568114 
L 433.64125 400.563723 
L 433.703466 400.563723 
L 433.703466 433.388878 
L 434.533784 399.220571 
L 434.698025 415.147967 
L 434.920189 415.89437 
L 435.327253 433.388878 
L 435.251223 399.894749 
L 435.902227 433.388878 
L 435.996468 433.388878 
L 436.156644 398.833857 
L 436.988973 399.687663 
L 437.04619 400.118709 
L 437.465127 433.388878 
L 437.947596 399.034306 
L 438.040739 413.78126 
L 438.092166 414.071285 
L 438.806921 408.444179 
L 439.086497 431.430549 
L 439.114626 431.430549 
L 439.176843 433.388878 
L 439.830218 412.760102 
L 440.11333 417.279772 
L 440.138435 417.751549 
L 440.155172 433.388878 
L 441.12065 433.388878 
L 441.152909 433.388878 
L 441.251429 329.986815 
L 442.147838 433.388878 
L 442.18494 433.388878 
L 442.296245 294.868967 
L 443.101148 433.388878 
L 443.227134 433.388878 
L 443.327138 330.034835 
L 444.223942 433.388878 
L 444.26116 433.388878 
L 444.29838 295.29407 
L 445.176658 433.388878 
L 445.30322 433.388878 
L 445.406801 330.368367 
L 446.300727 433.388878 
L 446.33781 433.388878 
L 446.33781 294.879378 
L 447.253386 433.388878 
L 447.38002 433.388878 
L 447.38002 330.106538 
L 448.375585 433.388878 
L 448.412675 433.388878 
L 448.412675 295.393492 
L 449.387867 399.688704 
L 449.443636 399.164223 
L 449.602487 414.476391 
L 450.391258 364.493207 
L 450.419381 368.271681 
L 450.447498 368.271681 
L 450.558688 414.154831 
L 450.83375 364.492082 
L 451.446947 364.690319 
L 451.474839 364.690319 
L 452.307245 414.518337 
L 452.4703 364.744628 
L 452.524641 364.585257 
L 452.815535 433.388878 
L 453.50487 413.178042 
L 453.653862 413.343658 
L 454.031323 415.334925 
L 454.296647 399.452035 
L 454.651145 415.168658 
L 454.694376 414.458421 
L 455.293665 399.424707 
L 454.998167 415.336183 
L 455.689438 413.750202 
L 455.843125 413.518297 
L 456.291432 399.230678 
L 456.822066 430.710097 
L 456.844358 430.710097 
L 456.866662 433.388878 
L 457.438675 398.906645 
L 457.829921 414.271073 
L 457.967971 414.857118 
L 458.28854 433.388878 
L 458.226318 399.156241 
L 458.964806 433.388878 
L 459.087509 433.388878 
L 459.201172 399.217838 
L 460.081264 401.615763 
L 460.091326 401.615763 
L 460.96283 399.224828 
L 460.675667 433.388878 
L 461.080906 414.636151 
L 461.501559 415.435677 
L 461.812982 433.388878 
L 461.873598 399.223483 
L 462.493186 433.388878 
L 462.612511 433.388878 
L 462.725747 398.900659 
L 463.605765 415.282771 
L 463.632128 415.340853 
L 463.788218 411.752261 
L 464.198512 433.388878 
L 464.628051 433.388878 
L 464.700182 433.388878 
L 464.779437 415.141403 
L 465.676766 433.388878 
L 466.310407 433.388878 
L 466.310407 88.243386 
L 467.302218 433.388878 
L 467.453537 433.388878 
L 467.751966 331.510289 
L 468.087495 433.388878 
L 470.16129 433.388878 
L 470.545193 364.942257 
L 470.880921 433.388878 
L 472.094091 433.388878 
L 472.168291 89.056287 
L 473.087611 433.388878 
L 473.239228 433.388878 
L 473.539023 364.79217 
L 473.874623 433.388878 
L 475.450964 433.388878 
L 475.450964 88.419066 
L 476.446195 433.388878 
L 476.598382 433.388878 
L 476.899155 365.690005 
L 477.234916 433.388878 
L 478.811412 433.388878 
L 478.886171 89.122221 
L 479.806614 433.388878 
L 479.958829 433.388878 
L 480.259591 365.623463 
L 480.942756 433.388878 
L 481.024083 433.388878 
L 481.413675 364.981731 
L 481.749589 433.388878 
L 482.654754 433.388878 
L 483.044869 364.8863 
L 483.380775 433.388878 
L 484.943344 433.388878 
L 485.335569 365.512676 
L 485.925878 413.682055 
L 486.052613 414.180153 
L 486.052613 433.388878 
L 486.120963 399.397422 
L 487.036408 413.818869 
L 487.0897 413.237996 
L 487.0897 433.388878 
L 487.170699 399.064193 
L 488.065359 413.220688 
L 488.115862 413.450461 
L 488.191621 399.349143 
L 488.194145 433.388878 
L 489.113867 414.330684 
L 489.138605 414.330684 
L 489.188073 399.67838 
L 489.216027 433.388878 
L 490.132982 401.322618 
L 490.1512 401.322618 
L 490.1512 399.29518 
L 490.999395 433.388878 
L 491.102501 399.917045 
L 491.151541 399.917045 
L 491.79605 416.133711 
L 491.222612 399.50283 
L 492.103577 411.339304 
L 492.174764 411.339304 
L 493.127276 399.107224 
L 492.474732 415.335272 
L 493.164084 413.914691 
L 493.256102 414.262191 
L 493.350324 433.388878 
L 494.137132 399.069919 
L 494.252548 415.275975 
L 494.342304 415.035097 
L 494.694597 433.388878 
L 495.080583 398.948982 
L 495.33253 416.780059 
L 495.365722 415.966724 
L 496.023307 398.923432 
L 495.531656 417.433199 
L 496.357666 416.474201 
L 496.422882 416.261954 
L 496.965636 399.169428 
L 497.144963 433.388878 
L 497.270934 433.388878 
L 498.671405 433.388878 
L 498.671405 398.878059 
L 499.496917 433.388878 
L 499.923315 433.388878 
L 500.155119 404.333823 
L 500.702325 433.388878 
L 502.12905 433.388878 
L 502.393982 364.453996 
L 502.968478 433.388878 
L 503.351145 433.388878 
L 503.425483 398.866824 
L 504.177251 433.388878 
L 504.601496 433.388878 
L 504.836091 375.155661 
L 505.232874 433.388878 
L 506.268642 433.388878 
L 506.312487 90.303834 
L 507.088335 433.388878 
L 507.516764 433.388878 
L 507.747757 403.926461 
L 508.294854 433.388878 
L 509.728652 433.388878 
L 510.027154 364.754605 
L 510.569486 433.388878 
L 510.950586 433.388878 
L 511.026061 398.884479 
L 511.778185 433.388878 
L 512.203739 433.388878 
L 512.437333 404.473109 
L 512.98483 433.388878 
L 514.419505 433.388878 
L 514.684219 364.630544 
L 515.110246 433.388878 
L 516.740815 433.388878 
L 516.77501 364.559231 
L 517.728773 413.737513 
L 517.831992 413.609614 
L 517.888013 399.031443 
L 517.924276 433.388878 
L 518.828176 433.388878 
L 518.86036 433.388878 
L 518.956929 399.121626 
L 519.859404 413.294164 
L 519.914815 412.939296 
L 519.970234 399.364064 
L 520.005839 433.388878 
L 520.911205 413.838172 
L 520.969527 413.322713 
L 521.03832 399.182875 
L 521.046565 433.388878 
L 521.967522 402.657008 
L 521.988937 402.657008 
L 522.81344 433.388878 
L 522.954969 399.23289 
L 523.04874 399.23289 
L 523.664777 416.220875 
L 524.035646 413.671948 
L 524.143585 414.060701 
L 524.88607 400.050953 
L 525.140063 431.112399 
L 525.162951 431.112399 
L 525.186145 433.388878 
L 525.961708 399.551977 
L 526.155794 416.263862 
L 526.17961 415.60621 
L 526.655939 400.359066 
L 526.523154 433.388878 
L 527.172616 415.098516 
L 527.327019 415.10563 
L 527.363524 417.520279 
L 527.567698 400.036118 
L 528.319464 416.119284 
L 528.331581 416.119284 
L 528.477313 400.122179 
L 528.877827 433.388878 
L 529.204179 433.388878 
L 530.63154 433.388878 
L 530.853443 330.247473 
L 531.606243 433.388878 
L 531.750375 433.388878 
L 531.750375 398.892504 
L 532.690529 433.388878 
L 532.838425 433.388878 
L 532.873322 330.046026 
L 533.816361 433.388878 
L 533.961086 433.388878 
L 534.024987 398.904129 
L 534.900498 433.388878 
L 535.053822 433.388878 
L 535.226615 329.8058 
L 536.025784 433.388878 
L 536.17084 433.388878 
L 536.17084 398.875283 
L 537.111955 433.388878 
L 537.263457 433.388878 
L 537.483566 329.836121 
L 538.236844 433.388878 
L 538.380739 433.388878 
L 538.678358 398.832382 
L 539.357952 400.625555 
L 539.382108 400.625555 
L 539.599566 414.984562 
L 540.110582 398.906905 
L 540.380152 404.472849 
L 540.404371 404.472849 
L 541.155908 398.897232 
L 541.043474 433.388878 
L 541.401942 407.491297 
L 541.426619 407.491297 
L 542.201669 399.03821 
L 541.698083 414.347515 
L 542.42301 410.542713 
L 542.447448 410.542713 
L 543.261681 399.194978 
L 542.813937 433.388878 
L 543.435382 413.263546 
L 543.479653 414.105293 
L 544.312081 433.388878 
L 544.24198 399.292144 
L 544.477947 413.801474 
L 544.608684 414.773008 
L 545.090207 433.388878 
L 545.221032 399.099546 
L 545.591386 416.478539 
L 545.610408 416.478539 
L 546.201941 399.108873 
L 546.271794 433.388878 
L 546.606783 413.863245 
L 546.719773 414.035151 
L 546.795097 433.388878 
L 547.344403 400.744455 
L 547.70675 415.03063 
L 547.811583 414.537467 
L 548.075719 427.7159 
L 548.247909 399.431083 
L 548.807648 415.294454 
L 548.833917 414.504022 
L 549.150857 399.278263 
L 548.846023 433.388878 
L 549.833115 412.544384 
L 549.852091 412.544384 
L 549.890054 399.676862 
L 550.460771 433.388878 
L 550.797542 433.388878 
L 551.46021 433.388878 
L 551.630582 295.974235 
L 552.431762 433.388878 
L 552.599872 433.388878 
L 552.599872 364.346245 
L 553.593244 433.388878 
L 553.727402 433.388878 
L 553.761075 295.426286 
L 554.698785 433.388878 
L 554.867336 433.388878 
L 554.990209 364.294799 
L 555.860987 433.388878 
L 555.99574 433.388878 
L 556.164188 295.865617 
L 556.967833 433.388878 
L 557.140006 433.388878 
L 557.175407 364.527394 
L 558.129771 433.388878 
L 558.28824 433.388878 
L 558.432961 296.615533 
L 559.269747 433.388878 
L 559.401038 433.388878 
L 559.555216 364.368975 
L 560.394703 400.059325 
L 560.420149 400.059325 
L 560.598306 414.975323 
L 560.799884 364.504661 
L 561.410795 366.880033 
L 561.435603 366.880033 
L 562.065126 433.388878 
L 561.833652 364.952234 
L 562.41325 400.75593 
L 562.438926 400.75593 
L 562.438926 364.964293 
L 563.287403 413.900029 
L 563.428295 406.722598 
L 563.456466 406.722598 
L 563.482969 366.08188 
L 563.801026 433.388878 
L 564.453079 414.985213 
L 564.475905 414.985213 
L 565.271197 399.303162 
L 565.162407 433.388878 
L 565.464491 413.450417 
L 565.658017 414.418568 
L 566.129663 433.388878 
L 566.265972 398.890725 
L 566.650035 414.00791 
L 566.952771 413.629395 
L 567.315496 433.388878 
L 567.260512 399.039034 
L 567.949495 415.022952 
L 567.994833 415.032408 
L 568.248633 421.550279 
L 568.38291 400.751288 
L 568.987434 414.326433 
L 569.033539 414.584011 
L 569.033539 433.388878 
L 569.138907 401.296592 
L 570.027684 407.646937 
L 570.048434 407.646937 
L 570.188553 401.523198 
L 570.94995 433.388878 
L 571.039617 410.782722 
L 571.073148 410.782722 
L 571.106679 400.771199 
L 571.150952 433.388878 
L 571.872354 433.388878 
L 572.573152 433.388878 
L 572.686464 261.699739 
L 573.568467 433.388878 
L 573.736643 433.388878 
L 573.736643 329.859154 
L 574.73366 433.388878 
L 574.897632 433.388878 
L 574.897632 260.750848 
L 575.891342 433.388878 
L 576.059554 433.388878 
L 576.136755 329.840806 
L 577.051773 433.388878 
L 577.222334 433.388878 
L 577.335124 260.98704 
L 578.21475 433.388878 
L 578.37434 433.388878 
L 578.37434 329.883489 
L 579.117382 433.388878 
L 579.582715 433.388878 
L 579.658038 261.566569 
L 580.575841 433.388878 
L 580.704457 433.388878 
L 581.013782 329.876072 
L 581.684616 366.036073 
L 581.710864 366.036073 
L 581.894596 414.342917 
L 582.081822 364.542574 
L 582.69992 367.882322 
L 582.726174 367.882322 
L 583.198824 364.307119 
L 582.936242 414.065038 
L 583.720066 364.655877 
L 583.7465 364.655877 
L 583.984405 414.897156 
L 584.734142 399.611969 
L 584.76089 399.611969 
L 584.76089 364.770307 
L 585.088775 433.388878 
L 585.744268 413.155838 
L 585.796202 413.397496 
L 585.940867 416.176716 
L 586.568113 399.184914 
L 586.773661 413.38136 
L 586.902152 413.401791 
L 587.60803 433.388878 
L 587.585874 399.630188 
L 587.887693 413.340845 
L 588.136894 414.209357 
L 588.617647 398.97991 
L 589.119093 426.963749 
L 589.140149 426.963749 
L 589.182256 433.388878 
L 589.717178 402.267388 
L 590.129714 414.649035 
L 590.144787 414.649035 
L 590.538617 417.701665 
L 590.646986 402.130097 
L 591.132326 415.142241 
L 591.147276 415.142241 
L 591.453286 400.488419 
L 591.598687 433.388878 
L 592.145625 414.943483 
L 592.209419 414.503589 
L 592.47709 403.130564 
L 592.344447 433.388878 
L 593.01183 433.388878 
L 593.950483 433.388878 
L 594.032691 295.756478 
L 594.833905 433.388878 
L 595.265335 433.388878 
L 595.607213 296.772908 
L 596.157504 433.388878 
L 598.800839 433.388878 
L 599.249582 364.764755 
L 599.796286 433.388878 
L 600.235679 433.388878 
L 600.319636 295.718652 
L 601.121374 433.388878 
L 601.551665 433.388878 
L 601.891749 331.008494 
L 602.441126 433.388878 
L 602.887787 433.388878 
L 602.887787 398.996828 
L 603.658029 433.388878 
L 604.088082 433.388878 
L 604.531059 365.091043 
L 605.079083 433.388878 
L 605.518061 433.388878 
L 605.518061 295.921834 
L 606.400043 433.388878 
L 606.829167 433.388878 
L 607.170439 330.604429 
L 607.71949 433.388878 
L 610.348909 433.388878 
L 610.794561 331.028925 
L 611.342942 433.388878 
L 611.772829 433.388878 
L 611.866497 295.968339 
L 612.665041 433.388878 
L 613.093223 433.388878 
L 613.433595 365.07187 
L 613.983328 433.388878 
L 616.634073 433.388878 
L 616.634073 399.266031 
L 617.625273 413.524594 
L 617.802262 413.274 
L 617.862823 399.009928 
L 617.879551 433.388878 
L 618.782604 413.921675 
L 618.81354 413.921675 
L 618.875412 399.198968 
L 618.903538 433.388878 
L 619.79268 414.340965 
L 619.826399 414.340965 
L 619.927544 399.176759 
L 620.640482 415.147012 
L 620.802633 412.91752 
L 620.868867 412.883382 
L 620.935087 399.077077 
L 620.951333 433.388878 
L 621.845098 410.520547 
L 621.884809 410.520547 
L 621.884809 433.388878 
L 621.982896 403.407922 
L 622.884036 406.821283 
L 622.896269 406.821283 
L 622.9085 402.943996 
L 622.927048 420.929194 
L 623.893502 413.622497 
L 624.051479 414.51196 
L 624.679895 433.388878 
L 624.777596 403.362896 
L 625.025949 433.388878 
L 628.815664 433.388878 
L 629.162116 369.386319 
L 629.75627 433.388878 
L 630.199111 433.388878 
L 630.295792 398.975355 
L 631.072228 433.388878 
L 631.507391 433.388878 
L 631.774738 372.224185 
L 632.372882 433.388878 
L 634.01761 433.388878 
L 634.364362 366.915516 
L 634.958247 433.388878 
L 635.400957 433.388878 
L 635.400957 398.962212 
L 636.274193 433.388878 
L 636.711171 433.388878 
L 636.976521 372.830348 
L 637.574368 433.388878 
L 640.240384 433.388878 
L 640.58696 368.801152 
L 641.181083 433.388878 
L 641.624054 433.388878 
L 641.624054 398.967678 
L 642.498654 433.388878 
L 642.934264 433.388878 
L 643.201972 373.950711 
L 643.799988 433.388878 
L 644.250209 433.388878 
L 644.250209 399.039468 
L 645.143697 433.388878 
L 646.473001 433.388878 
L 646.819772 368.536373 
L 647.41391 433.388878 
L 647.856632 433.388878 
L 647.856632 399.206169 
L 648.729677 433.388878 
L 649.166755 433.388878 
L 649.432001 282.690502 
L 650.149759 411.802362 
L 650.172472 411.802362 
L 650.900983 399.048881 
L 650.924961 433.388878 
L 651.157401 412.780876 
L 651.183321 412.780876 
L 651.957848 398.957267 
L 651.677081 414.348773 
L 652.160759 413.490058 
L 652.214318 412.547811 
L 652.99098 398.991145 
L 653.043886 433.388878 
L 653.195292 413.126515 
L 653.248723 413.102137 
L 653.298856 401.083953 
L 653.626285 433.388878 
L 654.245472 414.056267 
L 654.401805 414.877016 
L 654.975513 433.388878 
L 655.042143 405.338393 
L 655.401204 414.483418 
L 655.502815 415.407236 
L 656.296546 416.274732 
L 655.928853 401.871131 
L 656.500824 414.347992 
L 656.585934 415.119627 
L 656.89987 433.388878 
L 656.855253 402.99873 
L 657.521911 433.388878 
L 658.552015 433.388878 
L 658.585891 398.864352 
L 659.312628 433.388878 
L 659.803359 433.388878 
L 659.864567 399.012313 
L 660.509177 433.388878 
L 661.003216 433.388878 
L 661.203879 398.965899 
L 661.762062 433.388878 
L 662.254556 433.388878 
L 662.285752 398.946206 
L 662.959963 433.388878 
L 663.46266 433.388878 
L 663.535826 399.054347 
L 664.214375 433.388878 
L 664.70583 433.388878 
L 664.736498 398.856544 
L 665.413704 433.388878 
L 665.904342 433.388878 
L 666.144352 398.957874 
L 666.667272 433.388878 
L 667.1657 433.388878 
L 667.510505 364.939568 
L 668.142645 404.628792 
L 668.165779 404.628792 
L 668.888079 433.388878 
L 668.864536 399.170035 
L 669.14784 407.307592 
L 669.171161 407.307592 
L 669.891582 399.427006 
L 669.921815 433.388878 
L 670.167344 408.867894 
L 670.190987 408.867894 
L 670.956082 398.885173 
L 670.451084 414.985213 
L 671.177386 411.280266 
L 671.201274 411.280266 
L 671.987056 401.961878 
L 671.571745 433.388878 
L 672.1704 413.092941 
L 672.238819 413.572092 
L 672.959746 433.388878 
L 672.967251 401.906094 
L 673.231866 414.43683 
L 673.659011 414.189393 
L 673.921071 433.388878 
L 673.92852 401.496433 
L 674.650994 414.278371 
L 674.797173 413.681708 
L 674.872673 401.332812 
L 674.891699 433.388878 
L 675.686599 433.388878 
L 676.642384 433.388878 
L 676.835336 364.368628 
L 677.416571 433.388878 
L 677.907305 433.388878 
L 677.941037 364.378605 
L 678.656829 433.388878 
L 679.15256 433.388878 
L 679.345367 364.330196 
L 679.925295 433.388878 
L 680.416422 433.388878 
L 680.585954 364.513597 
L 681.166287 433.388878 
L 681.661966 433.388878 
L 681.661966 364.354314 
L 682.434356 433.388878 
L 682.925606 433.388878 
L 683.061214 364.3865 
L 683.675126 433.388878 
L 684.171076 433.388878 
L 684.171076 364.635749 
L 684.944121 433.388878 
L 685.435026 433.388878 
L 685.769527 330.692009 
L 686.417118 401.957497 
L 686.443093 401.957497 
L 687.112175 433.388878 
L 686.832485 399.454377 
L 687.432709 399.603259 
L 687.458656 399.603259 
L 688.153425 433.388878 
L 687.873817 399.454464 
L 688.455242 401.568961 
L 688.48046 401.568961 
L 688.48046 399.454421 
L 689.195517 433.388878 
L 689.4638 407.140587 
L 689.489734 407.140587 
L 690.294855 399.00906 
L 689.83152 433.388878 
L 690.48697 415.052796 
L 690.507173 415.052796 
L 691.292285 401.708725 
L 691.190613 433.388878 
L 691.506219 413.837305 
L 691.627203 414.526839 
L 692.169013 433.388878 
L 692.260055 401.238031 
L 692.61079 416.36602 
L 692.630426 416.36602 
L 693.235584 402.143414 
L 693.148659 433.388878 
L 693.625253 413.680364 
L 693.746181 414.609257 
L 693.809348 433.388878 
L 694.549736 433.388878 
L 695.049367 433.388878 
L 695.172809 330.182016 
L 695.83644 433.388878 
L 696.351062 433.388878 
L 696.351062 329.605784 
L 697.119618 433.388878 
L 697.618833 433.388878 
L 697.741126 330.279226 
L 698.404764 433.388878 
L 698.920707 433.388878 
L 698.920707 330.027287 
L 699.688923 433.388878 
L 700.187828 433.388878 
L 700.228005 329.712364 
L 700.974065 433.388878 
L 701.491048 433.388878 
L 701.491048 329.793957 
L 702.256743 433.388878 
L 702.755928 433.388878 
L 702.837153 330.854416 
L 703.540601 433.388878 
L 704.03262 433.388878 
L 704.159247 329.883359 
L 705.022783 398.934971 
L 705.050227 398.934971 
L 705.730379 433.388878 
L 705.392885 364.792083 
L 706.044269 370.685746 
L 706.071705 370.685746 
L 706.779004 433.388878 
L 707.046 364.543097 
L 707.0727 364.543097 
L 707.908861 414.394623 
L 708.071073 399.695992 
L 708.0981 399.695992 
L 708.0981 364.75686 
L 708.477755 433.388878 
L 709.087396 413.865674 
L 709.261144 414.280019 
L 709.915436 433.388878 
L 709.91641 406.564009 
L 710.25843 415.086717 
L 710.301817 414.699483 
L 710.916521 408.199311 
L 710.912561 433.388878 
L 711.299258 413.506245 
L 711.408187 413.413546 
L 711.998733 433.388878 
L 711.91229 399.011706 
L 712.38959 422.30206 
L 712.411172 422.30206 
L 712.517885 433.388878 
L 713.276346 433.388878 
L 713.765349 433.388878 
L 713.850823 125.069107 
L 714.724022 433.388878 
L 715.228921 433.388878 
L 715.593499 296.269551 
L 716.192682 433.388878 
L 719.130738 433.388878 
L 719.597948 330.366025 
L 720.064601 433.388878 
L 720.692927 433.388878 
L 720.749779 124.674412 
L 721.651039 433.388878 
L 722.157093 433.388878 
L 722.522271 329.634674 
L 723.119373 433.388878 
L 724.902528 433.388878 
L 725.371622 330.704372 
L 725.838472 433.388878 
L 726.46645 433.388878 
L 726.49487 94.614726 
L 727.42747 433.388878 
L 727.933714 433.388878 
L 728.301378 329.820505 
L 728.905618 433.388878 
L 731.82277 433.388878 
L 732.295994 330.069971 
L 732.763088 433.388878 
L 733.39192 433.388878 
L 733.47584 123.0359 
L 734.35821 433.388878 
L 734.863158 433.388878 
L 735.230915 364.847173 
L 735.835401 433.388878 
L 738.770988 433.388878 
L 738.770988 399.156848 
L 739.749558 414.804197 
L 739.773731 414.804197 
L 740.669235 412.431819 
L 739.935299 433.388878 
L 740.765396 413.571481 
L 740.950678 414.235947 
L 740.950678 433.388878 
L 741.428708 412.250324 
L 741.943709 414.400387 
L 741.967105 414.400387 
L 741.990513 403.911192 
L 742.049359 433.388878 
L 742.961798 414.107457 
L 742.9833 414.107457 
L 743.004803 404.230063 
L 743.02909 433.388878 
L 743.846256 433.388878 
L 744.93911 433.388878 
L 745.22596 364.778462 
L 745.838795 433.388878 
L 746.334732 433.388878 
L 746.334732 398.953189 
L 747.179156 433.388878 
L 747.696916 433.388878 
L 747.936497 364.355962 
L 748.596584 433.388878 
L 749.092517 433.388878 
L 749.118297 399.040769 
L 749.937429 433.388878 
L 750.454913 433.388878 
L 750.743919 364.424065 
L 751.349714 433.388878 
L 751.846071 433.388878 
L 751.990753 399.063803 
L 752.698541 433.388878 
L 753.231345 433.388878 
L 753.503497 364.428837 
L 754.108537 433.388878 
L 754.623154 433.388878 
L 754.843099 331.266809 
L 755.599895 400.971192 
L 755.684318 400.2429 
L 756.211731 415.117689 
L 756.350504 399.406054 
L 756.65839 400.214921 
L 756.714698 400.711468 
L 757.241958 415.242791 
L 757.380767 399.440236 
L 757.703167 401.886357 
L 757.733792 401.886357 
L 757.784664 433.388878 
L 758.099396 399.946889 
L 758.719815 400.007792 
L 758.776863 400.499914 
L 759.005378 433.388878 
L 759.743027 433.388878 
L 760.282668 433.388878 
L 760.426072 364.62959 
L 761.096483 433.388878 
L 761.637764 433.388878 
L 761.725848 364.561226 
L 762.455106 433.388878 
L 762.994909 433.388878 
L 763.139125 330.593758 
L 763.823437 433.388878 
L 764.353616 433.388878 
L 764.398404 364.76276 
L 765.174248 433.388878 
L 765.708394 433.388878 
L 765.737181 364.560619 
L 766.534282 433.388878 
L 767.066866 433.388878 
L 767.155569 364.468137 
L 767.886756 433.388878 
L 768.422101 433.388878 
L 768.450561 364.507264 
L 769.242902 433.388878 
L 769.778526 433.388878 
L 769.888073 364.33809 
L 770.764654 368.288339 
L 770.808785 368.288339 
L 771.123441 433.388878 
L 771.161231 364.812124 
L 771.80838 369.777414 
L 771.86154 369.777414 
L 772.015449 415.17755 
L 772.838196 364.231641 
L 772.927436 364.15599 
L 773.082684 415.189436 
L 773.883417 365.432427 
L 773.979052 365.436505 
L 774.165921 433.388878 
L 774.682061 433.388878 
L 776.943013 433.388878 
L 777.021884 329.725377 
L 777.764429 433.388878 
L 779.519381 433.388878 
L 779.519381 331.974346 
L 780.203669 433.388878 
L 781.771764 433.388878 
L 781.771764 329.428152 
L 782.485767 433.388878 
L 784.600192 433.388878 
L 784.776559 225.399496 
L 785.285989 433.388878 
L 786.453784 433.388878 
L 786.453784 398.842055 
L 786.993816 433.388878 
L 788.496414 433.388878 
L 788.538905 329.52354 
L 789.233733 433.388878 
L 791.059965 433.388878 
L 791.06207 330.050841 
L 791.972459 433.388878 
" clip-path="url(#p2ef9be5fe1)" style="fill: none; stroke: #000000; stroke-width: 0.5; stroke-linecap: square"/>
   </g>
   <g id="patch_3">
    <path d="M 50.44 450.646152 
L 50.44 70.986111 
" style="fill: none; stroke: #000000; stroke-width: 0.8; stroke-linejoin: miter; stroke-linecap: square"/>
   </g>
   <g id="patch_4">
    <path d="M 827.283528 450.646152 
L 827.283528 70.986111 
" style="fill: none; stroke: #000000; stroke-width: 0.8; stroke-linejoin: miter; stroke-linecap: square"/>
   </g>
   <g id="patch_5">
    <path d="M 50.44 450.646152 
L 827.283528 450.646152 
" style="fill: none; stroke: #000000; stroke-width: 0.8; stroke-linejoin: miter; stroke-linecap: square"/>
   </g>
   <g id="patch_6">
    <path d="M 50.44 70.986111 
L 827.283528 70.986111 
" style="fill: none; stroke: #000000; stroke-width: 0.8; stroke-linejoin: miter; stroke-linecap: square"/>
   </g>
   <g id="text_15">
    <!-- 材料去除率 -->
    <g transform="translate(403.861764 18.520312) scale(0.14 -0.14)">
     <use xlink:href="#SimHei-6750"/>
     <use xlink:href="#SimHei-6599" x="100"/>
     <use xlink:href="#SimHei-53bb" x="200"/>
     <use xlink:href="#SimHei-9664" x="300"/>
     <use xlink:href="#SimHei-7387" x="400"/>
    </g>
   </g>
  </g>
  <g id="axes_2">
   <g id="matplotlib.axis_3">
    <g id="xtick_8">
     <g id="line2d_26">
      <defs>
       <path id="m5eb49b89ac" d="M 0 0 
L 0 -3.5 
" style="stroke: #000000; stroke-width: 0.8"/>
      </defs>
      <g>
       <use xlink:href="#m5eb49b89ac" x="85.751069" y="70.986111" style="stroke: #000000; stroke-width: 0.8"/>
      </g>
     </g>
     <g id="text_16">
      <!-- N0020 -->
      <g transform="translate(89.640157 63.279004) rotate(-45) scale(0.08 -0.08)">
       <defs>
        <path id="SimHei-4e" d="M 2850 125 
L 2225 125 
L 850 3225 
L 825 3225 
L 825 125 
L 250 125 
L 250 4400 
L 875 4400 
L 2250 1300 
L 2275 1300 
L 2275 4400 
L 2850 4400 
L 2850 125 
z
" transform="scale(0.015625)"/>
       </defs>
       <use xlink:href="#SimHei-4e"/>
       <use xlink:href="#SimHei-30" x="50"/>
       <use xlink:href="#SimHei-30" x="100"/>
       <use xlink:href="#SimHei-32" x="150"/>
       <use xlink:href="#SimHei-30" x="200"/>
      </g>
     </g>
    </g>
    <g id="xtick_9">
     <g id="line2d_27">
      <g>
       <use xlink:href="#m5eb49b89ac" x="222.09495" y="70.986111" style="stroke: #000000; stroke-width: 0.8"/>
      </g>
     </g>
     <g id="text_17">
      <!-- N7030.6 -->
      <g transform="translate(225.984037 63.279004) rotate(-45) scale(0.08 -0.08)">
       <defs>
        <path id="SimHei-37" d="M 850 150 
Q 1300 2050 2425 3925 
L 275 3925 
L 275 4375 
L 2950 4375 
L 2950 3950 
Q 1775 2050 1400 150 
L 850 150 
z
" transform="scale(0.015625)"/>
        <path id="SimHei-2e" d="M 1075 125 
L 500 125 
L 500 675 
L 1075 675 
L 1075 125 
z
" transform="scale(0.015625)"/>
       </defs>
       <use xlink:href="#SimHei-4e"/>
       <use xlink:href="#SimHei-37" x="50"/>
       <use xlink:href="#SimHei-30" x="100"/>
       <use xlink:href="#SimHei-33" x="150"/>
       <use xlink:href="#SimHei-30" x="200"/>
       <use xlink:href="#SimHei-2e" x="250"/>
       <use xlink:href="#SimHei-36" x="300"/>
      </g>
     </g>
    </g>
    <g id="xtick_10">
     <g id="line2d_28">
      <g>
       <use xlink:href="#m5eb49b89ac" x="305.986791" y="70.986111" style="stroke: #000000; stroke-width: 0.8"/>
      </g>
     </g>
     <g id="text_18">
      <!-- N1740.1 -->
      <g transform="translate(309.875878 63.279004) rotate(-45) scale(0.08 -0.08)">
       <use xlink:href="#SimHei-4e"/>
       <use xlink:href="#SimHei-31" x="50"/>
       <use xlink:href="#SimHei-37" x="100"/>
       <use xlink:href="#SimHei-34" x="150"/>
       <use xlink:href="#SimHei-30" x="200"/>
       <use xlink:href="#SimHei-2e" x="250"/>
       <use xlink:href="#SimHei-31" x="300"/>
      </g>
     </g>
    </g>
    <g id="xtick_11">
     <g id="line2d_29">
      <g>
       <use xlink:href="#m5eb49b89ac" x="371.610996" y="70.986111" style="stroke: #000000; stroke-width: 0.8"/>
      </g>
     </g>
     <g id="text_19">
      <!-- N5210.4 -->
      <g transform="translate(375.500083 63.279004) rotate(-45) scale(0.08 -0.08)">
       <use xlink:href="#SimHei-4e"/>
       <use xlink:href="#SimHei-35" x="50"/>
       <use xlink:href="#SimHei-32" x="100"/>
       <use xlink:href="#SimHei-31" x="150"/>
       <use xlink:href="#SimHei-30" x="200"/>
       <use xlink:href="#SimHei-2e" x="250"/>
       <use xlink:href="#SimHei-34" x="300"/>
      </g>
     </g>
    </g>
    <g id="xtick_12">
     <g id="line2d_30">
      <g>
       <use xlink:href="#m5eb49b89ac" x="427.065776" y="70.986111" style="stroke: #000000; stroke-width: 0.8"/>
      </g>
     </g>
     <g id="text_20">
      <!-- N8410.11 -->
      <g transform="translate(430.954863 63.279004) rotate(-45) scale(0.08 -0.08)">
       <use xlink:href="#SimHei-4e"/>
       <use xlink:href="#SimHei-38" x="50"/>
       <use xlink:href="#SimHei-34" x="100"/>
       <use xlink:href="#SimHei-31" x="150"/>
       <use xlink:href="#SimHei-30" x="200"/>
       <use xlink:href="#SimHei-2e" x="250"/>
       <use xlink:href="#SimHei-31" x="300"/>
       <use xlink:href="#SimHei-31" x="350"/>
      </g>
     </g>
    </g>
    <g id="xtick_13">
     <g id="line2d_31">
      <g>
       <use xlink:href="#m5eb49b89ac" x="455.667334" y="70.986111" style="stroke: #000000; stroke-width: 0.8"/>
      </g>
     </g>
     <g id="text_21">
      <!-- N0190.11 -->
      <g transform="translate(459.556421 63.279004) rotate(-45) scale(0.08 -0.08)">
       <defs>
        <path id="SimHei-39" d="M 800 75 
Q 1350 1000 1700 1750 
Q 1075 1650 662 1912 
Q 250 2175 162 2625 
Q 75 3075 175 3437 
Q 275 3800 487 4037 
Q 700 4275 1000 4375 
Q 1300 4475 1537 4475 
Q 1775 4475 2025 4375 
Q 2275 4275 2475 4075 
Q 2675 3875 2750 3662 
Q 2825 3450 2825 3112 
Q 2825 2775 2575 2250 
Q 2325 1725 1350 75 
L 800 75 
z
M 662 2875 
Q 700 2550 937 2337 
Q 1175 2125 1450 2150 
Q 1725 2175 1887 2300 
Q 2050 2425 2200 2725 
Q 2300 3100 2250 3362 
Q 2200 3625 1987 3800 
Q 1775 3975 1525 3975 
Q 1375 4000 1137 3900 
Q 900 3800 762 3500 
Q 625 3200 662 2875 
z
" transform="scale(0.015625)"/>
       </defs>
       <use xlink:href="#SimHei-4e"/>
       <use xlink:href="#SimHei-30" x="50"/>
       <use xlink:href="#SimHei-31" x="100"/>
       <use xlink:href="#SimHei-39" x="150"/>
       <use xlink:href="#SimHei-30" x="200"/>
       <use xlink:href="#SimHei-2e" x="250"/>
       <use xlink:href="#SimHei-31" x="300"/>
       <use xlink:href="#SimHei-31" x="350"/>
      </g>
     </g>
    </g>
    <g id="xtick_14">
     <g id="line2d_32">
      <g>
       <use xlink:href="#m5eb49b89ac" x="492.818213" y="70.986111" style="stroke: #000000; stroke-width: 0.8"/>
      </g>
     </g>
     <g id="text_22">
      <!-- N2680.29 -->
      <g transform="translate(496.7073 63.279004) rotate(-45) scale(0.08 -0.08)">
       <use xlink:href="#SimHei-4e"/>
       <use xlink:href="#SimHei-32" x="50"/>
       <use xlink:href="#SimHei-36" x="100"/>
       <use xlink:href="#SimHei-38" x="150"/>
       <use xlink:href="#SimHei-30" x="200"/>
       <use xlink:href="#SimHei-2e" x="250"/>
       <use xlink:href="#SimHei-32" x="300"/>
       <use xlink:href="#SimHei-39" x="350"/>
      </g>
     </g>
    </g>
    <g id="xtick_15">
     <g id="line2d_33">
      <g>
       <use xlink:href="#m5eb49b89ac" x="539.382108" y="70.986111" style="stroke: #000000; stroke-width: 0.8"/>
      </g>
     </g>
     <g id="text_23">
      <!-- N5890.9 -->
      <g transform="translate(543.271196 63.279004) rotate(-45) scale(0.08 -0.08)">
       <use xlink:href="#SimHei-4e"/>
       <use xlink:href="#SimHei-35" x="50"/>
       <use xlink:href="#SimHei-38" x="100"/>
       <use xlink:href="#SimHei-39" x="150"/>
       <use xlink:href="#SimHei-30" x="200"/>
       <use xlink:href="#SimHei-2e" x="250"/>
       <use xlink:href="#SimHei-39" x="300"/>
      </g>
     </g>
    </g>
    <g id="xtick_16">
     <g id="line2d_34">
      <g>
       <use xlink:href="#m5eb49b89ac" x="570.690187" y="70.986111" style="stroke: #000000; stroke-width: 0.8"/>
      </g>
     </g>
     <g id="text_24">
      <!-- N7950.6 -->
      <g transform="translate(574.579275 63.279004) rotate(-45) scale(0.08 -0.08)">
       <use xlink:href="#SimHei-4e"/>
       <use xlink:href="#SimHei-37" x="50"/>
       <use xlink:href="#SimHei-39" x="100"/>
       <use xlink:href="#SimHei-35" x="150"/>
       <use xlink:href="#SimHei-30" x="200"/>
       <use xlink:href="#SimHei-2e" x="250"/>
       <use xlink:href="#SimHei-36" x="300"/>
      </g>
     </g>
    </g>
    <g id="xtick_17">
     <g id="line2d_35">
      <g>
       <use xlink:href="#m5eb49b89ac" x="621.503102" y="70.986111" style="stroke: #000000; stroke-width: 0.8"/>
      </g>
     </g>
     <g id="text_25">
      <!-- N1720.13 -->
      <g transform="translate(625.392189 63.279004) rotate(-45) scale(0.08 -0.08)">
       <use xlink:href="#SimHei-4e"/>
       <use xlink:href="#SimHei-31" x="50"/>
       <use xlink:href="#SimHei-37" x="100"/>
       <use xlink:href="#SimHei-32" x="150"/>
       <use xlink:href="#SimHei-30" x="200"/>
       <use xlink:href="#SimHei-2e" x="250"/>
       <use xlink:href="#SimHei-31" x="300"/>
       <use xlink:href="#SimHei-33" x="350"/>
      </g>
     </g>
    </g>
    <g id="xtick_18">
     <g id="line2d_36">
      <g>
       <use xlink:href="#m5eb49b89ac" x="672.112939" y="70.986111" style="stroke: #000000; stroke-width: 0.8"/>
      </g>
     </g>
     <g id="text_26">
      <!-- N5550 -->
      <g transform="translate(676.002027 63.279004) rotate(-45) scale(0.08 -0.08)">
       <use xlink:href="#SimHei-4e"/>
       <use xlink:href="#SimHei-35" x="50"/>
       <use xlink:href="#SimHei-35" x="100"/>
       <use xlink:href="#SimHei-35" x="150"/>
       <use xlink:href="#SimHei-30" x="200"/>
      </g>
     </g>
    </g>
    <g id="xtick_19">
     <g id="line2d_37">
      <g>
       <use xlink:href="#m5eb49b89ac" x="712.087497" y="70.986111" style="stroke: #000000; stroke-width: 0.8"/>
      </g>
     </g>
     <g id="text_27">
      <!-- N8160.3 -->
      <g transform="translate(715.976585 63.279004) rotate(-45) scale(0.08 -0.08)">
       <use xlink:href="#SimHei-4e"/>
       <use xlink:href="#SimHei-38" x="50"/>
       <use xlink:href="#SimHei-31" x="100"/>
       <use xlink:href="#SimHei-36" x="150"/>
       <use xlink:href="#SimHei-30" x="200"/>
       <use xlink:href="#SimHei-2e" x="250"/>
       <use xlink:href="#SimHei-33" x="300"/>
      </g>
     </g>
    </g>
    <g id="xtick_20">
     <g id="line2d_38">
      <g>
       <use xlink:href="#m5eb49b89ac" x="791.886116" y="70.986111" style="stroke: #000000; stroke-width: 0.8"/>
      </g>
     </g>
     <g id="text_28">
      <!-- N3660 -->
      <g transform="translate(795.775203 63.279004) rotate(-45) scale(0.08 -0.08)">
       <use xlink:href="#SimHei-4e"/>
       <use xlink:href="#SimHei-33" x="50"/>
       <use xlink:href="#SimHei-36" x="100"/>
       <use xlink:href="#SimHei-36" x="150"/>
       <use xlink:href="#SimHei-30" x="200"/>
      </g>
     </g>
    </g>
    <g id="text_29">
     <!-- 指令行号 N -->
     <g transform="translate(413.861764 32.7625) scale(0.1 -0.1)">
      <defs>
       <path id="SimHei-6307" d="M 5625 2225 
Q 5600 1925 5600 1350 
L 5600 300 
Q 5600 -225 5625 -525 
L 5125 -525 
L 5125 -125 
L 3300 -125 
L 3300 -625 
L 2800 -625 
Q 2825 -300 2825 300 
L 2825 1350 
Q 2825 1925 2800 2225 
L 5625 2225 
z
M 500 25 
Q 1075 -25 1175 37 
Q 1275 100 1275 275 
L 1275 1675 
Q 1050 1600 925 1537 
Q 800 1475 475 1275 
Q 400 1525 225 1800 
Q 625 1900 825 1975 
Q 1025 2050 1275 2125 
L 1275 3300 
L 1100 3300 
Q 775 3300 450 3275 
L 450 3725 
Q 750 3700 1100 3700 
L 1275 3700 
L 1275 4450 
Q 1275 4800 1250 5125 
L 1775 5125 
Q 1750 4850 1750 4450 
L 1750 3700 
Q 2075 3700 2425 3725 
L 2425 3275 
Q 2050 3300 1750 3300 
L 1750 2325 
Q 1850 2350 2025 2425 
L 2375 2575 
Q 2350 2300 2375 2100 
Q 2225 2050 2062 1987 
Q 1900 1925 1750 1850 
L 1750 100 
Q 1725 -200 1575 -337 
Q 1425 -475 675 -525 
Q 625 -250 500 25 
z
M 3325 5025 
Q 3300 4675 3300 4125 
Q 4125 4275 4512 4412 
Q 4900 4550 5225 4725 
Q 5325 4475 5575 4250 
Q 5450 4225 5237 4175 
Q 5025 4125 4725 4050 
Q 4425 3975 4037 3887 
Q 3650 3800 3300 3725 
L 3300 3175 
Q 3275 2925 3700 2925 
L 4925 2925 
Q 5300 2925 5387 3087 
Q 5475 3250 5550 3600 
Q 5750 3400 6050 3300 
Q 5825 2725 5700 2637 
Q 5575 2550 5275 2525 
L 3350 2525 
Q 3050 2525 2937 2687 
Q 2825 2850 2825 2975 
L 2825 4125 
Q 2825 4775 2800 5025 
L 3325 5025 
z
M 5125 275 
L 5125 875 
L 3300 875 
L 3300 275 
L 5125 275 
z
M 5125 1250 
L 5125 1825 
L 3300 1825 
L 3300 1250 
L 5125 1250 
z
" transform="scale(0.015625)"/>
       <path id="SimHei-4ee4" d="M 5375 2075 
L 5375 1550 
Q 4925 1325 4450 937 
Q 3975 550 3575 125 
L 4250 -325 
Q 4050 -550 3875 -775 
Q 3100 -125 1850 425 
L 2150 875 
Q 2400 775 3125 350 
Q 3800 1025 4450 1625 
L 2025 1625 
Q 1500 1625 975 1600 
L 975 2100 
Q 1525 2075 2025 2075 
L 5375 2075 
z
M 3375 4850 
Q 4450 3550 6200 2900 
Q 5950 2625 5800 2350 
Q 4150 3150 3100 4475 
Q 2075 3125 625 2225 
Q 400 2525 200 2700 
Q 875 2975 1675 3675 
Q 2475 4375 2950 5300 
Q 3275 5175 3550 5050 
Q 3475 5000 3375 4850 
z
M 2925 3600 
Q 3175 3350 3750 2725 
L 3300 2325 
Q 3050 2700 2550 3225 
Q 2750 3375 2925 3600 
z
" transform="scale(0.015625)"/>
       <path id="SimHei-53f7" d="M 5025 4925 
Q 5000 4550 5000 4075 
Q 5000 3600 5025 3175 
L 1400 3175 
Q 1425 3525 1425 4000 
Q 1425 4500 1400 4925 
L 5025 4925 
z
M 5175 2625 
Q 5650 2625 6025 2650 
L 6025 2200 
Q 5650 2225 5175 2225 
L 2450 2225 
Q 2350 1875 2225 1450 
L 5175 1450 
Q 5100 1050 5062 775 
Q 5025 500 4950 112 
Q 4875 -275 4650 -412 
Q 4425 -550 3225 -625 
Q 3125 -350 2975 -50 
Q 3875 -75 4112 -50 
Q 4350 -25 4425 212 
Q 4500 450 4575 1025 
L 1600 1025 
Q 1825 1625 1950 2225 
L 1350 2225 
Q 825 2225 375 2200 
L 375 2650 
Q 825 2625 1350 2625 
L 5175 2625 
z
M 4525 3575 
L 4525 4525 
L 1900 4525 
L 1900 3575 
L 4525 3575 
z
" transform="scale(0.015625)"/>
      </defs>
      <use xlink:href="#SimHei-6307"/>
      <use xlink:href="#SimHei-4ee4" x="100"/>
      <use xlink:href="#SimHei-884c" x="200"/>
      <use xlink:href="#SimHei-53f7" x="300"/>
      <use xlink:href="#SimHei-20" x="400"/>
      <use xlink:href="#SimHei-4e" x="450"/>
     </g>
    </g>
   </g>
   <g id="patch_7">
    <path d="M 50.44 450.646152 
L 50.44 70.986111 
" style="fill: none; stroke: #000000; stroke-width: 0.8; stroke-linejoin: miter; stroke-linecap: square"/>
   </g>
   <g id="patch_8">
    <path d="M 827.283528 450.646152 
L 827.283528 70.986111 
" style="fill: none; stroke: #000000; stroke-width: 0.8; stroke-linejoin: miter; stroke-linecap: square"/>
   </g>
   <g id="patch_9">
    <path d="M 50.44 450.646152 
L 827.283528 450.646152 
" style="fill: none; stroke: #000000; stroke-width: 0.8; stroke-linejoin: miter; stroke-linecap: square"/>
   </g>
   <g id="patch_10">
    <path d="M 50.44 70.986111 
L 827.283528 70.986111 
" style="fill: none; stroke: #000000; stroke-width: 0.8; stroke-linejoin: miter; stroke-linecap: square"/>
   </g>
  </g>
 </g>
 <defs>
  <clipPath id="p2ef9be5fe1">
   <rect x="50.44" y="70.986111" width="776.843528" height="379.660041"/>
  </clipPath>
 </defs>
</svg>
