<?xml version="1.0" encoding="utf-8" standalone="no"?>
<!DOCTYPE svg PUBLIC "-//W3C//DTD SVG 1.1//EN"
  "http://www.w3.org/Graphics/SVG/1.1/DTD/svg11.dtd">
<svg xmlns:xlink="http://www.w3.org/1999/xlink" width="848.3825pt" height="487.956391pt" viewBox="0 0 848.3825 487.956391" xmlns="http://www.w3.org/2000/svg" version="1.1">
 <metadata>
  <rdf:RDF xmlns:dc="http://purl.org/dc/elements/1.1/" xmlns:cc="http://creativecommons.org/ns#" xmlns:rdf="http://www.w3.org/1999/02/22-rdf-syntax-ns#">
   <cc:Work>
    <dc:type rdf:resource="http://purl.org/dc/dcmitype/StillImage"/>
    <dc:date>2025-12-10T15:20:50.958802</dc:date>
    <dc:format>image/svg+xml</dc:format>
    <dc:creator>
     <cc:Agent>
      <dc:title>Matplotlib v3.9.2, https://matplotlib.org/</dc:title>
     </cc:Agent>
    </dc:creator>
   </cc:Work>
  </rdf:RDF>
 </metadata>
 <defs>
  <style type="text/css">*{stroke-linejoin: round; stroke-linecap: butt}</style>
 </defs>
 <g id="figure_1">
  <g id="patch_1">
   <path d="M 0 487.956391 
L 848.3825 487.956391 
L 848.3825 0 
L 0 0 
z
" style="fill: #ffffff"/>
  </g>
  <g id="axes_1">
   <g id="patch_2">
    <path d="M 34.45 450.428266 
L 841.1825 450.428266 
L 841.1825 54.070236 
L 34.45 54.070236 
z
" style="fill: #ffffff"/>
   </g>
   <g id="matplotlib.axis_1">
    <g id="xtick_1">
     <g id="line2d_1">
      <path d="M 87.63364 450.428266 
L 87.63364 54.070236 
" clip-path="url(#p360d385340)" style="fill: none; stroke-dasharray: 2.96,1.28; stroke-dashoffset: 0; stroke: #b0b0b0; stroke-opacity: 0.7; stroke-width: 0.8"/>
     </g>
     <g id="line2d_2">
      <defs>
       <path id="m95a86b2b79" d="M 0 0 
L 0 3.5 
" style="stroke: #000000; stroke-width: 0.8"/>
      </defs>
      <g>
       <use xlink:href="#m95a86b2b79" x="87.63364" y="450.428266" style="stroke: #000000; stroke-width: 0.8"/>
      </g>
     </g>
     <g id="text_1">
      <!-- 500 -->
      <g transform="translate(80.13364 464.303266) scale(0.1 -0.1)">
       <defs>
        <path id="SimHei-35" d="M 550 1325 
Q 725 650 1150 575 
Q 1575 500 1837 662 
Q 2100 825 2212 1087 
Q 2325 1350 2312 1675 
Q 2300 2000 2137 2225 
Q 1975 2450 1725 2525 
Q 1475 2600 1162 2525 
Q 850 2450 650 2175 
L 225 2225 
Q 275 2375 700 4375 
L 2675 4375 
L 2675 3925 
L 1075 3925 
Q 950 3250 825 2850 
Q 1200 3025 1525 3012 
Q 1850 3000 2150 2862 
Q 2450 2725 2587 2487 
Q 2725 2250 2787 2012 
Q 2850 1775 2837 1500 
Q 2825 1225 2725 937 
Q 2625 650 2425 462 
Q 2225 275 1937 162 
Q 1650 50 1275 75 
Q 900 100 562 350 
Q 225 600 100 1200 
L 550 1325 
z
" transform="scale(0.015625)"/>
        <path id="SimHei-30" d="M 225 2537 
Q 250 3200 412 3587 
Q 575 3975 875 4225 
Q 1175 4475 1612 4475 
Q 2050 4475 2375 4112 
Q 2700 3750 2800 3200 
Q 2900 2650 2862 1937 
Q 2825 1225 2612 775 
Q 2400 325 1975 150 
Q 1550 -25 1125 187 
Q 700 400 525 750 
Q 350 1100 275 1487 
Q 200 1875 225 2537 
z
M 750 2687 
Q 675 2000 800 1462 
Q 925 925 1212 700 
Q 1500 475 1800 612 
Q 2100 750 2237 1162 
Q 2375 1575 2375 2062 
Q 2375 2550 2337 2950 
Q 2300 3350 2112 3675 
Q 1925 4000 1612 4012 
Q 1300 4025 1062 3700 
Q 825 3375 750 2687 
z
" transform="scale(0.015625)"/>
       </defs>
       <use xlink:href="#SimHei-35"/>
       <use xlink:href="#SimHei-30" x="50"/>
       <use xlink:href="#SimHei-30" x="100"/>
      </g>
     </g>
    </g>
    <g id="xtick_2">
     <g id="line2d_3">
      <path d="M 188.50086 450.428266 
L 188.50086 54.070236 
" clip-path="url(#p360d385340)" style="fill: none; stroke-dasharray: 2.96,1.28; stroke-dashoffset: 0; stroke: #b0b0b0; stroke-opacity: 0.7; stroke-width: 0.8"/>
     </g>
     <g id="line2d_4">
      <g>
       <use xlink:href="#m95a86b2b79" x="188.50086" y="450.428266" style="stroke: #000000; stroke-width: 0.8"/>
      </g>
     </g>
     <g id="text_2">
      <!-- 750 -->
      <g transform="translate(181.00086 464.303266) scale(0.1 -0.1)">
       <defs>
        <path id="SimHei-37" d="M 850 150 
Q 1300 2050 2425 3925 
L 275 3925 
L 275 4375 
L 2950 4375 
L 2950 3950 
Q 1775 2050 1400 150 
L 850 150 
z
" transform="scale(0.015625)"/>
       </defs>
       <use xlink:href="#SimHei-37"/>
       <use xlink:href="#SimHei-35" x="50"/>
       <use xlink:href="#SimHei-30" x="100"/>
      </g>
     </g>
    </g>
    <g id="xtick_3">
     <g id="line2d_5">
      <path d="M 289.36808 450.428266 
L 289.36808 54.070236 
" clip-path="url(#p360d385340)" style="fill: none; stroke-dasharray: 2.96,1.28; stroke-dashoffset: 0; stroke: #b0b0b0; stroke-opacity: 0.7; stroke-width: 0.8"/>
     </g>
     <g id="line2d_6">
      <g>
       <use xlink:href="#m95a86b2b79" x="289.36808" y="450.428266" style="stroke: #000000; stroke-width: 0.8"/>
      </g>
     </g>
     <g id="text_3">
      <!-- 1000 -->
      <g transform="translate(279.36808 464.303266) scale(0.1 -0.1)">
       <defs>
        <path id="SimHei-31" d="M 1400 3600 
Q 1075 3275 575 2975 
L 575 3450 
Q 1200 3875 1600 4450 
L 1900 4450 
L 1900 150 
L 1400 150 
L 1400 3600 
z
" transform="scale(0.015625)"/>
       </defs>
       <use xlink:href="#SimHei-31"/>
       <use xlink:href="#SimHei-30" x="50"/>
       <use xlink:href="#SimHei-30" x="100"/>
       <use xlink:href="#SimHei-30" x="150"/>
      </g>
     </g>
    </g>
    <g id="xtick_4">
     <g id="line2d_7">
      <path d="M 390.2353 450.428266 
L 390.2353 54.070236 
" clip-path="url(#p360d385340)" style="fill: none; stroke-dasharray: 2.96,1.28; stroke-dashoffset: 0; stroke: #b0b0b0; stroke-opacity: 0.7; stroke-width: 0.8"/>
     </g>
     <g id="line2d_8">
      <g>
       <use xlink:href="#m95a86b2b79" x="390.2353" y="450.428266" style="stroke: #000000; stroke-width: 0.8"/>
      </g>
     </g>
     <g id="text_4">
      <!-- 1250 -->
      <g transform="translate(380.2353 464.303266) scale(0.1 -0.1)">
       <defs>
        <path id="SimHei-32" d="M 300 250 
Q 325 625 650 925 
Q 975 1225 1475 1862 
Q 1975 2500 2125 2850 
Q 2275 3200 2237 3450 
Q 2200 3700 2000 3862 
Q 1800 4025 1537 4000 
Q 1275 3975 1037 3800 
Q 800 3625 675 3275 
L 200 3350 
Q 400 3925 712 4187 
Q 1025 4450 1450 4475 
Q 1700 4500 1900 4462 
Q 2100 4425 2312 4287 
Q 2525 4150 2662 3875 
Q 2800 3600 2762 3212 
Q 2725 2825 2375 2287 
Q 2025 1750 1025 600 
L 2825 600 
L 2825 150 
L 300 150 
L 300 250 
z
" transform="scale(0.015625)"/>
       </defs>
       <use xlink:href="#SimHei-31"/>
       <use xlink:href="#SimHei-32" x="50"/>
       <use xlink:href="#SimHei-35" x="100"/>
       <use xlink:href="#SimHei-30" x="150"/>
      </g>
     </g>
    </g>
    <g id="xtick_5">
     <g id="line2d_9">
      <path d="M 491.102519 450.428266 
L 491.102519 54.070236 
" clip-path="url(#p360d385340)" style="fill: none; stroke-dasharray: 2.96,1.28; stroke-dashoffset: 0; stroke: #b0b0b0; stroke-opacity: 0.7; stroke-width: 0.8"/>
     </g>
     <g id="line2d_10">
      <g>
       <use xlink:href="#m95a86b2b79" x="491.102519" y="450.428266" style="stroke: #000000; stroke-width: 0.8"/>
      </g>
     </g>
     <g id="text_5">
      <!-- 1500 -->
      <g transform="translate(481.102519 464.303266) scale(0.1 -0.1)">
       <use xlink:href="#SimHei-31"/>
       <use xlink:href="#SimHei-35" x="50"/>
       <use xlink:href="#SimHei-30" x="100"/>
       <use xlink:href="#SimHei-30" x="150"/>
      </g>
     </g>
    </g>
    <g id="xtick_6">
     <g id="line2d_11">
      <path d="M 591.969739 450.428266 
L 591.969739 54.070236 
" clip-path="url(#p360d385340)" style="fill: none; stroke-dasharray: 2.96,1.28; stroke-dashoffset: 0; stroke: #b0b0b0; stroke-opacity: 0.7; stroke-width: 0.8"/>
     </g>
     <g id="line2d_12">
      <g>
       <use xlink:href="#m95a86b2b79" x="591.969739" y="450.428266" style="stroke: #000000; stroke-width: 0.8"/>
      </g>
     </g>
     <g id="text_6">
      <!-- 1750 -->
      <g transform="translate(581.969739 464.303266) scale(0.1 -0.1)">
       <use xlink:href="#SimHei-31"/>
       <use xlink:href="#SimHei-37" x="50"/>
       <use xlink:href="#SimHei-35" x="100"/>
       <use xlink:href="#SimHei-30" x="150"/>
      </g>
     </g>
    </g>
    <g id="xtick_7">
     <g id="line2d_13">
      <path d="M 692.836959 450.428266 
L 692.836959 54.070236 
" clip-path="url(#p360d385340)" style="fill: none; stroke-dasharray: 2.96,1.28; stroke-dashoffset: 0; stroke: #b0b0b0; stroke-opacity: 0.7; stroke-width: 0.8"/>
     </g>
     <g id="line2d_14">
      <g>
       <use xlink:href="#m95a86b2b79" x="692.836959" y="450.428266" style="stroke: #000000; stroke-width: 0.8"/>
      </g>
     </g>
     <g id="text_7">
      <!-- 2000 -->
      <g transform="translate(682.836959 464.303266) scale(0.1 -0.1)">
       <use xlink:href="#SimHei-32"/>
       <use xlink:href="#SimHei-30" x="50"/>
       <use xlink:href="#SimHei-30" x="100"/>
       <use xlink:href="#SimHei-30" x="150"/>
      </g>
     </g>
    </g>
    <g id="xtick_8">
     <g id="line2d_15">
      <path d="M 793.704179 450.428266 
L 793.704179 54.070236 
" clip-path="url(#p360d385340)" style="fill: none; stroke-dasharray: 2.96,1.28; stroke-dashoffset: 0; stroke: #b0b0b0; stroke-opacity: 0.7; stroke-width: 0.8"/>
     </g>
     <g id="line2d_16">
      <g>
       <use xlink:href="#m95a86b2b79" x="793.704179" y="450.428266" style="stroke: #000000; stroke-width: 0.8"/>
      </g>
     </g>
     <g id="text_8">
      <!-- 2250 -->
      <g transform="translate(783.704179 464.303266) scale(0.1 -0.1)">
       <use xlink:href="#SimHei-32"/>
       <use xlink:href="#SimHei-32" x="50"/>
       <use xlink:href="#SimHei-35" x="100"/>
       <use xlink:href="#SimHei-30" x="150"/>
      </g>
     </g>
    </g>
    <g id="text_9">
     <!-- 行程 s (mm) -->
     <g transform="translate(404.81625 479.256391) scale(0.12 -0.12)">
      <defs>
       <path id="SimHei-884c" d="M 5300 3100 
Q 5775 3100 6175 3125 
L 6175 2625 
Q 5775 2650 5325 2650 
L 4975 2650 
L 4975 -75 
Q 5000 -375 4787 -487 
Q 4575 -600 3950 -675 
Q 3900 -375 3675 -75 
Q 4100 -125 4275 -112 
Q 4450 -100 4475 150 
L 4475 2650 
L 3475 2650 
Q 3000 2650 2575 2625 
L 2575 3125 
Q 3025 3100 3475 3100 
L 5300 3100 
z
M 2300 3400 
Q 2075 3275 1962 3075 
Q 1850 2875 1650 2575 
L 1650 325 
Q 1650 0 1675 -675 
L 1150 -675 
Q 1175 75 1175 450 
L 1175 2050 
Q 950 1675 575 1300 
Q 400 1550 250 1725 
Q 825 2275 1150 2775 
Q 1475 3275 1725 3725 
Q 1975 3575 2300 3400 
z
M 4875 4800 
Q 5300 4800 5750 4825 
L 5750 4350 
Q 5300 4375 4825 4375 
L 3900 4375 
Q 3350 4375 2950 4350 
L 2950 4825 
Q 3350 4800 3900 4800 
L 4875 4800 
z
M 2075 4925 
Q 1875 4900 1550 4387 
Q 1225 3875 650 3250 
Q 500 3450 325 3625 
Q 725 4025 1050 4487 
Q 1375 4950 1525 5300 
Q 1775 5150 2075 4925 
z
" transform="scale(0.015625)"/>
       <path id="SimHei-7a0b" d="M 5825 4975 
Q 5800 4425 5800 3975 
Q 5800 3550 5825 3125 
L 3025 3125 
Q 3050 3600 3050 4025 
Q 3050 4450 3025 4975 
L 5825 4975 
z
M 400 4825 
Q 825 4875 1362 4987 
Q 1900 5100 2275 5275 
Q 2450 4950 2625 4725 
Q 2450 4750 2262 4712 
Q 2075 4675 1850 4650 
L 1850 3425 
Q 2200 3425 2600 3450 
L 2600 2975 
Q 2200 3000 1850 3000 
L 1850 800 
Q 1850 250 1875 -675 
L 1375 -675 
Q 1400 250 1400 775 
L 1400 1925 
Q 1050 1225 625 600 
Q 450 850 225 1050 
Q 575 1400 850 1850 
Q 1125 2300 1350 3000 
Q 725 3000 425 2975 
L 425 3450 
Q 850 3425 1050 3425 
L 1400 3425 
L 1400 4550 
Q 1075 4475 575 4400 
Q 500 4625 400 4825 
z
M 5100 2500 
Q 5500 2500 5950 2525 
L 5950 2075 
Q 5500 2100 5100 2100 
L 4625 2100 
L 4625 1300 
L 4900 1300 
Q 5275 1300 5775 1325 
L 5775 850 
Q 5275 875 4975 875 
L 4625 875 
L 4625 0 
L 5225 0 
Q 5675 0 6175 25 
L 6175 -450 
Q 5775 -425 5225 -425 
L 3550 -425 
Q 3000 -425 2600 -475 
L 2600 25 
Q 3000 0 3550 0 
L 4150 0 
L 4150 875 
L 3800 875 
Q 3400 875 3050 825 
L 3050 1325 
Q 3400 1300 3800 1300 
L 4150 1300 
L 4150 2100 
L 3750 2100 
Q 3300 2100 2900 2075 
L 2900 2525 
Q 3300 2500 3750 2500 
L 5100 2500 
z
M 5275 3575 
L 5275 4550 
L 3500 4550 
L 3500 3575 
L 5275 3575 
z
M 2300 2400 
Q 2550 2025 2825 1525 
Q 2675 1425 2425 1225 
Q 2175 1775 1925 2125 
Q 2075 2250 2300 2400 
z
" transform="scale(0.015625)"/>
       <path id="SimHei-20" transform="scale(0.015625)"/>
       <path id="SimHei-73" d="M 2750 900 
Q 2750 500 2437 287 
Q 2125 75 1650 75 
Q 1050 75 725 312 
Q 400 550 400 1000 
L 900 1000 
Q 900 700 1112 600 
Q 1325 500 1625 500 
Q 1925 500 2075 612 
Q 2225 725 2225 900 
Q 2225 1025 2100 1150 
Q 1975 1275 1475 1350 
Q 900 1425 687 1637 
Q 475 1850 475 2200 
Q 475 2500 762 2737 
Q 1050 2975 1600 2975 
Q 2100 2975 2387 2750 
Q 2675 2525 2675 2150 
L 2175 2150 
Q 2175 2375 2012 2462 
Q 1850 2550 1600 2550 
Q 1275 2550 1137 2437 
Q 1000 2325 1000 2175 
Q 1000 2000 1125 1900 
Q 1250 1800 1650 1750 
Q 2300 1650 2525 1437 
Q 2750 1225 2750 900 
z
" transform="scale(0.015625)"/>
       <path id="SimHei-28" d="M 2975 -200 
L 2700 -475 
Q 2075 125 1762 775 
Q 1450 1425 1450 2250 
Q 1450 3075 1762 3725 
Q 2075 4375 2700 5000 
L 2975 4725 
Q 2400 4175 2112 3587 
Q 1825 3000 1825 2250 
Q 1825 1500 2112 912 
Q 2400 325 2975 -200 
z
" transform="scale(0.015625)"/>
       <path id="SimHei-6d" d="M 3050 125 
L 2550 125 
L 2550 2150 
Q 2550 2300 2500 2400 
Q 2450 2500 2300 2500 
Q 2125 2500 1975 2312 
Q 1825 2125 1825 1825 
L 1825 125 
L 1325 125 
L 1325 2150 
Q 1325 2300 1275 2400 
Q 1225 2500 1075 2500 
Q 900 2500 750 2312 
Q 600 2125 600 1825 
L 600 125 
L 100 125 
L 100 2925 
L 600 2925 
L 600 2550 
Q 725 2750 900 2862 
Q 1075 2975 1275 2975 
Q 1475 2975 1612 2862 
Q 1750 2750 1800 2550 
Q 1925 2750 2087 2862 
Q 2250 2975 2450 2975 
Q 2750 2975 2900 2812 
Q 3050 2650 3050 2350 
L 3050 125 
z
" transform="scale(0.015625)"/>
       <path id="SimHei-29" d="M 1675 2250 
Q 1675 1425 1362 775 
Q 1050 125 425 -475 
L 150 -200 
Q 725 325 1012 912 
Q 1300 1500 1300 2250 
Q 1300 3000 1012 3587 
Q 725 4175 150 4725 
L 425 5000 
Q 1050 4375 1362 3725 
Q 1675 3075 1675 2250 
z
" transform="scale(0.015625)"/>
      </defs>
      <use xlink:href="#SimHei-884c"/>
      <use xlink:href="#SimHei-7a0b" x="100"/>
      <use xlink:href="#SimHei-20" x="200"/>
      <use xlink:href="#SimHei-73" x="250"/>
      <use xlink:href="#SimHei-20" x="300"/>
      <use xlink:href="#SimHei-28" x="350"/>
      <use xlink:href="#SimHei-6d" x="400"/>
      <use xlink:href="#SimHei-6d" x="450"/>
      <use xlink:href="#SimHei-29" x="500"/>
     </g>
    </g>
   </g>
   <g id="matplotlib.axis_2">
    <g id="ytick_1">
     <g id="line2d_17">
      <path d="M 34.45 432.411992 
L 841.1825 432.411992 
" clip-path="url(#p360d385340)" style="fill: none; stroke-dasharray: 2.96,1.28; stroke-dashoffset: 0; stroke: #b0b0b0; stroke-opacity: 0.7; stroke-width: 0.8"/>
     </g>
     <g id="line2d_18">
      <defs>
       <path id="m18dea80574" d="M 0 0 
L -3.5 0 
" style="stroke: #000000; stroke-width: 0.8"/>
      </defs>
      <g>
       <use xlink:href="#m18dea80574" x="34.45" y="432.411992" style="stroke: #000000; stroke-width: 0.8"/>
      </g>
     </g>
     <g id="text_10">
      <!-- 0 -->
      <g transform="translate(22.45 435.849492) scale(0.1 -0.1)">
       <use xlink:href="#SimHei-30"/>
      </g>
     </g>
    </g>
    <g id="ytick_2">
     <g id="line2d_19">
      <path d="M 34.45 387.13223 
L 841.1825 387.13223 
" clip-path="url(#p360d385340)" style="fill: none; stroke-dasharray: 2.96,1.28; stroke-dashoffset: 0; stroke: #b0b0b0; stroke-opacity: 0.7; stroke-width: 0.8"/>
     </g>
     <g id="line2d_20">
      <g>
       <use xlink:href="#m18dea80574" x="34.45" y="387.13223" style="stroke: #000000; stroke-width: 0.8"/>
      </g>
     </g>
     <g id="text_11">
      <!-- 1 -->
      <g transform="translate(22.45 390.56973) scale(0.1 -0.1)">
       <use xlink:href="#SimHei-31"/>
      </g>
     </g>
    </g>
    <g id="ytick_3">
     <g id="line2d_21">
      <path d="M 34.45 341.852467 
L 841.1825 341.852467 
" clip-path="url(#p360d385340)" style="fill: none; stroke-dasharray: 2.96,1.28; stroke-dashoffset: 0; stroke: #b0b0b0; stroke-opacity: 0.7; stroke-width: 0.8"/>
     </g>
     <g id="line2d_22">
      <g>
       <use xlink:href="#m18dea80574" x="34.45" y="341.852467" style="stroke: #000000; stroke-width: 0.8"/>
      </g>
     </g>
     <g id="text_12">
      <!-- 2 -->
      <g transform="translate(22.45 345.289967) scale(0.1 -0.1)">
       <use xlink:href="#SimHei-32"/>
      </g>
     </g>
    </g>
    <g id="ytick_4">
     <g id="line2d_23">
      <path d="M 34.45 296.572705 
L 841.1825 296.572705 
" clip-path="url(#p360d385340)" style="fill: none; stroke-dasharray: 2.96,1.28; stroke-dashoffset: 0; stroke: #b0b0b0; stroke-opacity: 0.7; stroke-width: 0.8"/>
     </g>
     <g id="line2d_24">
      <g>
       <use xlink:href="#m18dea80574" x="34.45" y="296.572705" style="stroke: #000000; stroke-width: 0.8"/>
      </g>
     </g>
     <g id="text_13">
      <!-- 3 -->
      <g transform="translate(22.45 300.010205) scale(0.1 -0.1)">
       <defs>
        <path id="SimHei-33" d="M 250 1225 
L 700 1300 
Q 800 975 1025 762 
Q 1250 550 1587 562 
Q 1925 575 2125 837 
Q 2325 1100 2300 1437 
Q 2275 1775 2037 1962 
Q 1800 2150 1275 2225 
L 1275 2550 
Q 1800 2600 2037 2825 
Q 2275 3050 2250 3412 
Q 2225 3775 1925 3937 
Q 1625 4100 1287 3975 
Q 950 3850 750 3275 
L 300 3350 
Q 450 3800 712 4100 
Q 975 4400 1425 4450 
Q 1875 4500 2212 4337 
Q 2550 4175 2687 3837 
Q 2825 3500 2725 3100 
Q 2625 2700 2150 2400 
Q 2500 2250 2687 1950 
Q 2875 1650 2812 1162 
Q 2750 675 2375 375 
Q 2000 75 1525 87 
Q 1050 100 700 387 
Q 350 675 250 1225 
z
" transform="scale(0.015625)"/>
       </defs>
       <use xlink:href="#SimHei-33"/>
      </g>
     </g>
    </g>
    <g id="ytick_5">
     <g id="line2d_25">
      <path d="M 34.45 251.292942 
L 841.1825 251.292942 
" clip-path="url(#p360d385340)" style="fill: none; stroke-dasharray: 2.96,1.28; stroke-dashoffset: 0; stroke: #b0b0b0; stroke-opacity: 0.7; stroke-width: 0.8"/>
     </g>
     <g id="line2d_26">
      <g>
       <use xlink:href="#m18dea80574" x="34.45" y="251.292942" style="stroke: #000000; stroke-width: 0.8"/>
      </g>
     </g>
     <g id="text_14">
      <!-- 4 -->
      <g transform="translate(22.45 254.730442) scale(0.1 -0.1)">
       <defs>
        <path id="SimHei-34" d="M 2000 1100 
L 75 1100 
L 75 1525 
L 2100 4450 
L 2475 4450 
L 2475 1525 
L 3075 1525 
L 3075 1100 
L 2475 1100 
L 2475 150 
L 2000 150 
L 2000 1100 
z
M 2000 1525 
L 2000 3500 
L 600 1525 
L 2000 1525 
z
" transform="scale(0.015625)"/>
       </defs>
       <use xlink:href="#SimHei-34"/>
      </g>
     </g>
    </g>
    <g id="ytick_6">
     <g id="line2d_27">
      <path d="M 34.45 206.01318 
L 841.1825 206.01318 
" clip-path="url(#p360d385340)" style="fill: none; stroke-dasharray: 2.96,1.28; stroke-dashoffset: 0; stroke: #b0b0b0; stroke-opacity: 0.7; stroke-width: 0.8"/>
     </g>
     <g id="line2d_28">
      <g>
       <use xlink:href="#m18dea80574" x="34.45" y="206.01318" style="stroke: #000000; stroke-width: 0.8"/>
      </g>
     </g>
     <g id="text_15">
      <!-- 5 -->
      <g transform="translate(22.45 209.45068) scale(0.1 -0.1)">
       <use xlink:href="#SimHei-35"/>
      </g>
     </g>
    </g>
    <g id="ytick_7">
     <g id="line2d_29">
      <path d="M 34.45 160.733418 
L 841.1825 160.733418 
" clip-path="url(#p360d385340)" style="fill: none; stroke-dasharray: 2.96,1.28; stroke-dashoffset: 0; stroke: #b0b0b0; stroke-opacity: 0.7; stroke-width: 0.8"/>
     </g>
     <g id="line2d_30">
      <g>
       <use xlink:href="#m18dea80574" x="34.45" y="160.733418" style="stroke: #000000; stroke-width: 0.8"/>
      </g>
     </g>
     <g id="text_16">
      <!-- 6 -->
      <g transform="translate(22.45 164.170918) scale(0.1 -0.1)">
       <defs>
        <path id="SimHei-36" d="M 250 1612 
Q 275 1975 387 2225 
Q 500 2475 725 2850 
L 1750 4450 
L 2325 4450 
L 1275 2800 
Q 1950 2975 2350 2750 
Q 2750 2525 2887 2237 
Q 3025 1950 3037 1612 
Q 3050 1275 2937 950 
Q 2825 625 2537 362 
Q 2250 100 1737 75 
Q 1225 50 862 262 
Q 500 475 362 862 
Q 225 1250 250 1612 
z
M 1025 787 
Q 1250 550 1625 525 
Q 2000 500 2250 775 
Q 2500 1050 2500 1575 
Q 2500 2100 2187 2300 
Q 1875 2500 1487 2450 
Q 1100 2400 925 2075 
Q 750 1750 775 1387 
Q 800 1025 1025 787 
z
" transform="scale(0.015625)"/>
       </defs>
       <use xlink:href="#SimHei-36"/>
      </g>
     </g>
    </g>
    <g id="ytick_8">
     <g id="line2d_31">
      <path d="M 34.45 115.453655 
L 841.1825 115.453655 
" clip-path="url(#p360d385340)" style="fill: none; stroke-dasharray: 2.96,1.28; stroke-dashoffset: 0; stroke: #b0b0b0; stroke-opacity: 0.7; stroke-width: 0.8"/>
     </g>
     <g id="line2d_32">
      <g>
       <use xlink:href="#m18dea80574" x="34.45" y="115.453655" style="stroke: #000000; stroke-width: 0.8"/>
      </g>
     </g>
     <g id="text_17">
      <!-- 7 -->
      <g transform="translate(22.45 118.891155) scale(0.1 -0.1)">
       <use xlink:href="#SimHei-37"/>
      </g>
     </g>
    </g>
    <g id="ytick_9">
     <g id="line2d_33">
      <path d="M 34.45 70.173893 
L 841.1825 70.173893 
" clip-path="url(#p360d385340)" style="fill: none; stroke-dasharray: 2.96,1.28; stroke-dashoffset: 0; stroke: #b0b0b0; stroke-opacity: 0.7; stroke-width: 0.8"/>
     </g>
     <g id="line2d_34">
      <g>
       <use xlink:href="#m18dea80574" x="34.45" y="70.173893" style="stroke: #000000; stroke-width: 0.8"/>
      </g>
     </g>
     <g id="text_18">
      <!-- 8 -->
      <g transform="translate(22.45 73.611393) scale(0.1 -0.1)">
       <defs>
        <path id="SimHei-38" d="M 175 1375 
Q 175 1675 325 1962 
Q 475 2250 825 2425 
Q 525 2600 425 2812 
Q 325 3025 312 3300 
Q 300 3575 387 3775 
Q 475 3975 650 4150 
Q 825 4325 1037 4387 
Q 1250 4450 1500 4450 
Q 1750 4450 1950 4400 
Q 2150 4350 2375 4187 
Q 2600 4025 2700 3725 
Q 2800 3425 2687 3025 
Q 2575 2625 2100 2400 
Q 2525 2275 2700 2012 
Q 2875 1750 2875 1375 
Q 2875 1000 2762 775 
Q 2650 550 2512 400 
Q 2375 250 2137 162 
Q 1900 75 1537 75 
Q 1175 75 912 162 
Q 650 250 475 425 
Q 300 600 237 837 
Q 175 1075 175 1375 
z
M 687 1400 
Q 675 1100 787 875 
Q 900 650 1200 587 
Q 1500 525 1825 600 
Q 2150 675 2275 950 
Q 2400 1225 2362 1500 
Q 2325 1775 2050 1962 
Q 1775 2150 1450 2125 
Q 1125 2100 912 1900 
Q 700 1700 687 1400 
z
M 775 3350 
Q 775 3100 950 2875 
Q 1125 2650 1500 2650 
Q 1875 2650 2062 2875 
Q 2250 3100 2237 3412 
Q 2225 3725 2012 3875 
Q 1800 4025 1437 4000 
Q 1075 3975 925 3787 
Q 775 3600 775 3350 
z
" transform="scale(0.015625)"/>
       </defs>
       <use xlink:href="#SimHei-38"/>
      </g>
     </g>
    </g>
    <g id="text_19">
     <!-- 切宽 ae (mm) -->
     <g transform="translate(16.95 288.249251) rotate(-90) scale(0.12 -0.12)">
      <defs>
       <path id="SimHei-5207" d="M 4200 125 
Q 4875 125 5037 187 
Q 5200 250 5225 525 
L 5400 4175 
L 4250 4175 
Q 4275 2875 4075 1987 
Q 3875 1100 3500 575 
Q 3125 50 2425 -575 
Q 2275 -375 1900 -250 
Q 2550 200 2937 675 
Q 3325 1150 3550 1925 
Q 3775 2700 3750 4175 
Q 3200 4175 2700 4150 
L 2700 4600 
Q 3175 4575 3625 4575 
L 5900 4575 
Q 5875 4200 5850 3700 
L 5700 325 
Q 5625 -250 5312 -337 
Q 5000 -425 4450 -525 
Q 4400 -200 4200 125 
z
M 1175 4275 
Q 1175 4625 1150 5000 
L 1650 5000 
Q 1625 4625 1625 4300 
L 1625 3275 
Q 2150 3350 2700 3425 
Q 2725 3150 2750 2975 
Q 2325 2925 1625 2850 
L 1625 1050 
Q 2325 1475 2650 1750 
Q 2725 1550 2875 1300 
Q 2325 975 1225 200 
Q 1075 500 925 650 
Q 1175 850 1175 1125 
L 1175 2775 
Q 675 2725 325 2675 
Q 300 2975 275 3150 
Q 650 3175 1175 3225 
L 1175 4275 
z
" transform="scale(0.015625)"/>
       <path id="SimHei-5bbd" d="M 2225 3525 
Q 2225 3700 2200 3925 
L 2700 3925 
Q 2675 3700 2675 3525 
L 3650 3525 
Q 3650 3675 3625 3950 
L 4125 3950 
Q 4100 3675 4100 3525 
Q 4625 3525 5100 3550 
L 5100 3075 
Q 4575 3125 4100 3125 
L 4100 2475 
L 5025 2475 
Q 5000 2175 5000 1875 
L 5000 1475 
Q 5000 1225 5025 825 
L 4525 825 
L 4525 2100 
L 1800 2100 
L 1800 750 
L 1300 750 
Q 1325 1200 1325 1450 
L 1325 1850 
Q 1325 2175 1300 2475 
L 2225 2475 
L 2225 3125 
L 1875 3125 
Q 1700 3125 1225 3050 
L 1225 3550 
Q 1700 3525 1875 3525 
L 2225 3525 
z
M 5375 3500 
L 5375 4175 
L 950 4175 
L 950 3400 
L 425 3400 
Q 450 3725 450 3950 
Q 450 4200 425 4575 
L 3025 4575 
Q 2975 4700 2725 5125 
Q 3050 5200 3300 5300 
Q 3500 4900 3625 4575 
L 5900 4575 
Q 5875 4250 5875 3975 
Q 5875 3700 5900 3500 
L 5375 3500 
z
M 3325 1825 
Q 3100 900 2850 462 
Q 2600 25 2112 -237 
Q 1625 -500 650 -700 
Q 550 -350 400 -100 
Q 1025 -75 1450 37 
Q 1875 150 2150 387 
Q 2425 625 2550 987 
Q 2675 1350 2725 1950 
Q 3100 1850 3325 1825 
z
M 3975 1250 
Q 3950 925 3950 675 
L 3950 150 
Q 3950 -75 4200 -100 
L 4950 -100 
Q 5250 -100 5400 0 
Q 5550 100 5650 550 
Q 5875 400 6125 300 
Q 5925 -500 5175 -525 
L 4025 -525 
Q 3500 -500 3450 -25 
L 3450 725 
Q 3450 925 3425 1250 
L 3975 1250 
z
M 3650 2475 
L 3650 3125 
L 2675 3125 
L 2675 2475 
L 3650 2475 
z
" transform="scale(0.015625)"/>
       <path id="SimHei-61" d="M 2875 125 
L 2275 125 
Q 2225 175 2200 262 
Q 2175 350 2175 475 
Q 2000 275 1750 175 
Q 1500 75 1225 75 
Q 825 75 550 275 
Q 275 475 275 850 
Q 275 1225 525 1450 
Q 775 1675 1300 1750 
Q 1650 1800 1912 1875 
Q 2175 1950 2175 2075 
Q 2175 2225 2062 2375 
Q 1950 2525 1575 2525 
Q 1275 2525 1137 2412 
Q 1000 2300 950 2100 
L 400 2100 
Q 450 2500 762 2737 
Q 1075 2975 1575 2975 
Q 2125 2975 2400 2725 
Q 2675 2475 2675 2025 
L 2675 650 
Q 2675 500 2725 375 
Q 2775 250 2875 125 
z
M 2175 1050 
L 2175 1550 
Q 2025 1500 1887 1462 
Q 1750 1425 1425 1375 
Q 1050 1325 937 1200 
Q 825 1075 825 900 
Q 825 750 937 637 
Q 1050 525 1275 525 
Q 1500 525 1762 650 
Q 2025 775 2175 1050 
z
" transform="scale(0.015625)"/>
       <path id="SimHei-65" d="M 2850 1075 
Q 2800 625 2450 350 
Q 2100 75 1625 75 
Q 1025 75 637 462 
Q 250 850 250 1525 
Q 250 2200 637 2587 
Q 1025 2975 1625 2975 
Q 2150 2975 2487 2637 
Q 2825 2300 2825 1525 
L 800 1525 
Q 800 975 1037 750 
Q 1275 525 1625 525 
Q 1900 525 2075 662 
Q 2250 800 2300 1075 
L 2850 1075 
z
M 2250 1925 
Q 2200 2275 2025 2412 
Q 1850 2550 1575 2550 
Q 1325 2550 1125 2412 
Q 925 2275 825 1925 
L 2250 1925 
z
" transform="scale(0.015625)"/>
      </defs>
      <use xlink:href="#SimHei-5207"/>
      <use xlink:href="#SimHei-5bbd" x="100"/>
      <use xlink:href="#SimHei-20" x="200"/>
      <use xlink:href="#SimHei-61" x="250"/>
      <use xlink:href="#SimHei-65" x="300"/>
      <use xlink:href="#SimHei-20" x="350"/>
      <use xlink:href="#SimHei-28" x="400"/>
      <use xlink:href="#SimHei-6d" x="450"/>
      <use xlink:href="#SimHei-6d" x="500"/>
      <use xlink:href="#SimHei-29" x="550"/>
     </g>
    </g>
   </g>
   <g id="line2d_35">
    <path d="M 71.119659 432.411992 
L 246.236853 432.411992 
L 246.236853 75.672214 
L 247.206708 91.212682 
L 249.425787 91.212682 
L 250.154179 432.411992 
L 250.407734 393.456137 
L 250.439639 393.456137 
L 250.439639 432.411992 
L 250.502879 432.411992 
L 254.941037 432.411992 
L 254.941037 92.813774 
L 255.928296 378.317618 
L 255.958054 378.317618 
L 256.018064 432.411992 
L 258.237143 432.411992 
L 258.237143 391.660206 
L 259.149196 432.411992 
L 275.401469 432.411992 
L 275.401469 75.672214 
L 276.371325 91.212682 
L 278.590403 91.212682 
L 279.318795 432.411992 
L 279.572351 393.456137 
L 279.604255 393.456137 
L 279.604255 432.411992 
L 279.667496 432.411992 
L 284.105653 432.411992 
L 284.105653 92.813774 
L 285.092913 378.317618 
L 285.122671 378.317618 
L 285.18268 432.411992 
L 287.401759 432.411992 
L 287.401759 391.660206 
L 288.313813 432.411992 
L 304.969554 432.411992 
L 304.969554 75.672214 
L 305.93941 91.212682 
L 308.158489 91.212682 
L 308.88688 432.411992 
L 309.140436 393.456137 
L 309.172341 393.456137 
L 309.172341 432.411992 
L 309.235581 432.411992 
L 313.673739 432.411992 
L 313.673739 92.813774 
L 314.660998 378.317618 
L 314.690756 378.317618 
L 314.750766 432.411992 
L 316.969844 432.411992 
L 316.969844 391.660206 
L 317.881898 432.411992 
L 334.941109 432.411992 
L 334.941109 75.672214 
L 335.910964 91.212682 
L 338.130043 91.212682 
L 338.858435 432.411992 
L 339.11199 393.456137 
L 339.143895 393.456137 
L 339.143895 432.411992 
L 339.207135 432.411992 
L 343.645293 432.411992 
L 343.645293 92.813774 
L 344.632552 378.317618 
L 344.662311 378.317618 
L 344.72232 432.411992 
L 346.941399 432.411992 
L 346.941399 391.660206 
L 347.853453 432.411992 
L 365.316132 432.411992 
L 365.316132 75.672214 
L 366.285987 91.212682 
L 368.505066 91.212682 
L 369.233458 432.411992 
L 369.487014 393.456137 
L 369.518918 393.456137 
L 369.518918 432.411992 
L 369.582158 432.411992 
L 374.020316 432.411992 
L 374.020316 92.813774 
L 375.007575 378.317618 
L 375.037334 378.317618 
L 375.097343 432.411992 
L 377.316422 432.411992 
L 377.316422 391.660206 
L 378.228476 432.411992 
L 396.094624 432.411992 
L 396.094624 75.672214 
L 397.064479 91.212682 
L 399.283558 91.212682 
L 400.01195 432.411992 
L 400.265506 393.456137 
L 400.29741 393.456137 
L 400.29741 432.411992 
L 400.36065 432.411992 
L 404.798808 432.411992 
L 404.798808 92.813774 
L 405.786067 378.317618 
L 405.815826 378.317618 
L 405.875835 432.411992 
L 408.094914 432.411992 
L 408.094914 391.660206 
L 409.006968 432.411992 
L 432.854722 432.411992 
L 433.636337 74.195188 
L 433.78661 74.66474 
L 433.861673 74.66474 
L 434.147142 92.813774 
L 434.281253 72.08651 
L 434.854761 72.236839 
L 434.932744 72.236839 
L 435.560514 85.566748 
L 435.870715 74.195188 
L 435.945729 74.195188 
L 436.381625 92.813774 
L 436.515738 72.08651 
L 436.93335 77.230291 
L 437.011356 77.230291 
L 437.089245 72.236839 
L 437.794893 85.566748 
L 437.961907 76.615845 
L 438.105094 77.036494 
L 438.750116 72.08651 
L 438.616005 92.813774 
L 439.089562 73.463468 
L 439.167728 73.463468 
L 440.029376 85.566748 
L 439.323623 72.236839 
L 440.112843 76.595469 
L 440.339577 77.036494 
L 440.984599 72.08651 
L 440.850383 92.813774 
L 441.32394 73.463468 
L 441.402106 73.463468 
L 442.263755 85.566748 
L 441.558001 72.236839 
L 442.347326 76.595469 
L 442.573956 77.036494 
L 443.218977 72.08651 
L 443.084866 92.813774 
L 443.558423 73.463468 
L 443.636589 73.463468 
L 444.498237 85.566748 
L 443.792485 72.236839 
L 444.581705 76.595469 
L 444.808334 77.036494 
L 445.184292 72.597718 
L 445.67813 371.66738 
L 445.797833 278.877374 
L 445.827714 278.877374 
L 446.126961 204.887072 
L 446.588003 432.411992 
L 446.809661 376.238824 
L 446.841566 376.238824 
L 446.841566 351.673648 
L 446.904806 432.411992 
L 447.523935 432.411992 
L 448.238614 432.411992 
L 448.841201 72.597718 
L 449.215366 335.554052 
L 449.245356 335.554052 
L 449.245356 127.218243 
L 450.244912 432.411992 
L 450.276735 432.411992 
L 450.308117 336.359126 
L 451.180844 432.411992 
L 451.895523 432.411992 
L 452.49811 72.597718 
L 452.872275 335.554052 
L 452.902265 335.554052 
L 452.902265 127.218243 
L 453.901821 432.411992 
L 453.933644 432.411992 
L 453.965026 336.359126 
L 454.837753 432.411992 
L 455.552432 432.411992 
L 456.155019 72.597718 
L 456.529184 335.554052 
L 456.559174 335.554052 
L 456.559174 127.218243 
L 457.55873 432.411992 
L 457.590553 432.411992 
L 457.621935 336.359126 
L 458.494662 432.411992 
L 459.209341 432.411992 
L 459.811928 72.597718 
L 460.186094 335.554052 
L 460.216084 335.554052 
L 460.216084 127.218243 
L 461.215639 432.411992 
L 461.247462 432.411992 
L 461.278844 336.359126 
L 462.151571 432.411992 
L 462.86625 432.411992 
L 463.468837 72.597718 
L 463.843003 335.554052 
L 463.872993 335.554052 
L 463.872993 127.218243 
L 464.872548 432.411992 
L 464.904371 432.411992 
L 464.935753 336.359126 
L 465.80848 432.411992 
L 522.522409 432.411992 
L 523.190128 73.31495 
L 523.490534 77.154674 
L 523.536156 77.154674 
L 523.909989 92.813774 
L 524.112874 73.31495 
L 524.504295 79.649136 
L 524.593744 79.247957 
L 525.035622 73.31495 
L 524.832737 92.813774 
L 525.567663 75.998229 
L 525.618779 75.998229 
L 525.958371 73.31495 
L 525.755485 92.813774 
L 526.592682 74.873932 
L 526.639765 75.850617 
L 526.881117 73.31495 
L 526.678231 92.813774 
L 527.600978 92.813774 
L 527.651654 92.813774 
L 527.803864 73.31495 
L 528.624981 74.46415 
L 528.726609 74.66157 
L 528.726609 73.31495 
L 529.446364 92.813774 
L 529.687403 76.271266 
L 529.776303 76.71546 
L 530.369112 92.813774 
L 530.571998 73.31495 
L 530.743385 76.112334 
L 530.827024 76.824584 
L 531.29186 92.813774 
L 531.494746 73.31495 
L 531.795151 77.154674 
L 531.840774 77.154674 
L 532.214609 92.813774 
L 532.417495 73.31495 
L 532.808919 79.649136 
L 532.898264 79.247957 
L 533.340243 73.31495 
L 533.137357 92.813774 
L 533.872284 75.998229 
L 533.9234 75.998229 
L 534.262989 73.31495 
L 534.059998 92.813774 
L 534.897195 74.873932 
L 534.944383 75.850617 
L 534.944383 73.394189 
L 534.988289 432.411992 
L 535.931435 432.411992 
L 536.016287 432.411992 
L 536.066909 73.31495 
L 537.014022 432.411992 
L 537.050993 432.411992 
L 537.870829 73.31495 
L 538.042216 76.112334 
L 538.125751 76.824584 
L 538.596129 432.411992 
L 538.552223 73.394189 
L 539.119368 360.282689 
L 539.132492 360.282689 
L 539.132492 432.411992 
L 539.674749 73.31495 
L 540.104294 79.247957 
L 540.155515 79.247957 
L 540.356143 73.394189 
L 540.400049 432.411992 
L 541.145089 432.411992 
L 541.428047 432.411992 
L 541.478669 73.31495 
L 542.425782 432.411992 
L 542.462753 432.411992 
L 543.282589 73.31495 
L 543.453976 76.112334 
L 543.537511 76.824584 
L 544.007889 432.411992 
L 543.963983 73.394189 
L 544.531128 360.282689 
L 544.544252 360.282689 
L 544.544252 432.411992 
L 544.951035 432.411992 
L 566.374858 432.411992 
L 566.538481 75.379707 
L 567.232436 92.813774 
L 567.696474 92.813774 
L 567.79282 75.379707 
L 568.685257 92.813774 
L 568.950813 92.813774 
L 569.047262 75.379707 
L 569.939701 92.813774 
L 570.205256 92.813774 
L 570.301704 75.379707 
L 571.194144 92.813774 
L 571.459698 92.813774 
L 571.556146 75.379707 
L 572.448481 92.813774 
L 572.71414 92.813774 
L 572.810485 75.379707 
L 573.702922 92.813774 
L 573.968479 92.813774 
L 574.064927 75.379707 
L 574.957367 92.813774 
L 575.222921 92.813774 
L 575.31937 75.379707 
L 576.211809 92.813774 
L 576.477363 92.813774 
L 576.573811 75.379707 
L 577.466146 92.813774 
L 577.731806 92.813774 
L 577.828151 75.379707 
L 578.72059 92.813774 
L 578.924752 92.813774 
L 578.924752 432.411992 
L 579.818061 126.99275 
L 579.941243 126.99275 
L 580.064498 129.683726 
L 580.803647 93.827135 
L 580.926901 109.406996 
L 581.050083 109.406996 
L 581.050083 104.32389 
L 581.542849 132.101213 
L 583.646331 132.101213 
L 583.646331 432.411992 
L 584.111812 75.379707 
L 584.641966 352.520832 
L 584.654395 352.520832 
L 584.654395 432.411992 
L 585.399926 97.910917 
L 585.646246 129.417934 
L 585.892845 129.683726 
L 586.508649 93.827135 
L 586.878223 126.99275 
L 587.00137 126.99275 
L 587.124682 117.335482 
L 587.247852 132.101213 
L 589.351333 132.101213 
L 589.351333 432.411992 
L 589.816814 75.379707 
L 590.346968 352.520832 
L 590.359397 352.520832 
L 590.359397 432.411992 
L 591.104928 97.910917 
L 591.351248 129.417934 
L 591.597848 129.683726 
L 592.213651 93.827135 
L 592.583225 126.99275 
L 592.706372 126.99275 
L 592.829684 117.335482 
L 592.952854 132.101213 
L 595.056336 132.101213 
L 595.056336 432.411992 
L 595.521817 75.379707 
L 596.051971 352.520832 
L 596.0644 352.520832 
L 596.0644 432.411992 
L 596.809931 97.910917 
L 597.05625 129.417934 
L 597.30285 129.683726 
L 597.918654 93.827135 
L 598.288228 126.99275 
L 598.411375 126.99275 
L 598.534687 117.335482 
L 598.657856 132.101213 
L 600.761338 132.101213 
L 600.761338 432.411992 
L 601.226819 75.379707 
L 601.756971 352.520832 
L 601.7694 352.520832 
L 601.7694 432.411992 
L 602.514931 97.910917 
L 602.761251 129.417934 
L 603.007851 129.683726 
L 603.623654 93.827135 
L 603.993228 126.99275 
L 604.116375 126.99275 
L 604.239687 117.335482 
L 604.362857 132.101213 
L 606.466339 132.101213 
L 606.466339 432.411992 
L 606.93182 75.379707 
L 607.461973 352.520832 
L 607.474403 352.520832 
L 607.474403 432.411992 
L 608.219934 97.910917 
L 608.466253 129.417934 
L 608.712853 129.683726 
L 609.328657 93.827135 
L 609.698231 126.99275 
L 609.821378 126.99275 
L 609.94469 117.335482 
L 610.067859 132.101213 
L 617.935502 132.101213 
L 617.935502 432.411992 
L 624.342858 432.411992 
L 624.342858 160.733418 
L 625.162446 177.395465 
L 625.380006 177.395465 
L 625.380006 160.733418 
L 625.741693 276.25477 
L 626.369265 235.801377 
L 626.417259 235.801377 
L 626.634819 160.733418 
L 626.996505 276.25477 
L 627.262173 201.485204 
L 627.527945 201.485204 
L 627.576169 276.25477 
L 627.889631 160.733418 
L 628.516985 201.485204 
L 628.782757 201.485204 
L 628.830878 276.25477 
L 629.144444 160.733418 
L 629.771798 201.485204 
L 630.037466 201.485204 
L 630.08569 276.25477 
L 630.399152 160.733418 
L 631.02661 201.485204 
L 631.292278 201.485204 
L 631.340502 276.25477 
L 631.653963 160.733418 
L 632.281318 201.485204 
L 632.54709 201.485204 
L 632.595314 276.25477 
L 632.908776 160.733418 
L 633.536129 201.485204 
L 633.801798 201.485204 
L 633.850022 276.25477 
L 634.163588 160.733418 
L 634.790943 201.485204 
L 635.05661 201.485204 
L 635.104834 276.25477 
L 635.418296 160.733418 
L 636.045754 201.485204 
L 636.311422 201.485204 
L 636.87727 432.411992 
L 636.673109 160.733418 
L 637.278217 378.076277 
L 637.401386 378.076277 
L 637.770983 432.411992 
L 638.386994 432.411992 
L 638.633223 432.411992 
L 638.633223 216.294856 
L 639.495771 264.346645 
L 641.599552 264.346645 
L 641.599552 432.411992 
L 642.379388 160.733418 
L 642.595761 382.143305 
L 642.60819 382.143305 
L 642.65732 300.704936 
L 642.620441 432.411992 
L 643.600444 417.72944 
L 643.723698 417.72944 
L 643.723698 432.411992 
L 644.339502 216.294856 
L 644.709284 272.639181 
L 644.832421 272.639181 
L 644.832421 245.564147 
L 645.20205 264.346645 
L 647.305831 264.346645 
L 647.305831 432.411992 
L 648.085667 160.733418 
L 648.30204 382.143305 
L 648.314469 382.143305 
L 648.363599 300.704936 
L 648.32672 432.411992 
L 649.306723 417.72944 
L 649.429977 417.72944 
L 649.429977 432.411992 
L 650.045781 216.294856 
L 650.415563 272.639181 
L 650.5387 272.639181 
L 650.5387 245.564147 
L 650.908329 264.346645 
L 653.01211 264.346645 
L 653.01211 432.411992 
L 653.791946 160.733418 
L 654.008319 382.143305 
L 654.020748 382.143305 
L 654.069878 300.704936 
L 654.032999 432.411992 
L 655.013002 417.72944 
L 655.136256 417.72944 
L 655.136256 432.411992 
L 655.75206 216.294856 
L 656.121842 272.639181 
L 656.244979 272.639181 
L 656.244979 245.564147 
L 656.614608 264.346645 
L 658.718389 264.346645 
L 658.718389 432.411992 
L 659.498225 160.733418 
L 659.714598 382.143305 
L 659.727027 382.143305 
L 659.776157 300.704936 
L 659.739278 432.411992 
L 660.719281 417.72944 
L 660.842535 417.72944 
L 660.842535 432.411992 
L 661.458339 216.294856 
L 661.828121 272.639181 
L 661.951258 272.639181 
L 661.951258 245.564147 
L 662.320887 264.346645 
L 664.424668 264.346645 
L 664.424668 432.411992 
L 665.204504 160.733418 
L 665.420877 382.143305 
L 665.433306 382.143305 
L 665.482436 300.704936 
L 665.445557 432.411992 
L 666.42556 417.72944 
L 666.548814 417.72944 
L 666.548814 432.411992 
L 667.164618 216.294856 
L 667.5344 272.639181 
L 667.657537 272.639181 
L 667.657537 245.564147 
L 668.027166 264.346645 
L 675.894809 264.346645 
L 675.894809 432.411992 
L 685.501622 432.411992 
L 685.665042 74.388533 
L 686.359573 92.813774 
L 686.823725 92.813774 
L 686.919753 74.388533 
L 687.812766 92.813774 
L 688.078437 92.813774 
L 688.174569 74.388533 
L 689.067584 92.813774 
L 689.333252 92.813774 
L 689.429384 74.388533 
L 690.322399 92.813774 
L 690.588067 92.813774 
L 690.684199 74.388533 
L 691.577109 92.813774 
L 691.842883 92.813774 
L 691.938912 74.388533 
L 692.831925 92.813774 
L 693.097595 92.813774 
L 693.193727 74.388533 
L 694.086743 92.813774 
L 694.352411 92.813774 
L 694.448542 74.388533 
L 695.341558 92.813774 
L 695.607226 92.813774 
L 695.703357 74.388533 
L 696.596268 92.813774 
L 696.862042 92.813774 
L 696.95807 74.388533 
L 697.851086 92.813774 
L 698.055248 92.813774 
L 698.055248 432.411992 
L 698.94896 117.467699 
L 699.072142 117.467699 
L 699.688053 97.822168 
L 699.195397 153.295311 
L 700.0578 110.385491 
L 700.180982 110.385491 
L 700.427267 120.074455 
L 700.304119 97.661425 
L 700.673748 106.115157 
L 702.77723 106.115157 
L 702.77723 432.411992 
L 703.242784 74.388533 
L 703.773052 432.411992 
L 703.785481 432.411992 
L 704.777735 107.393857 
L 704.900989 107.393857 
L 704.900989 153.295311 
L 705.393646 97.822168 
L 705.886575 115.93679 
L 706.009712 115.93679 
L 706.009712 97.661425 
L 706.132859 120.074455 
L 706.379341 106.115157 
L 708.482823 106.115157 
L 708.482823 432.411992 
L 708.948377 74.388533 
L 709.478644 432.411992 
L 709.491073 432.411992 
L 710.483328 107.393857 
L 710.606582 107.393857 
L 710.606582 153.295311 
L 711.099238 97.822168 
L 711.592167 115.93679 
L 711.715305 115.93679 
L 711.715305 97.661425 
L 711.838452 120.074455 
L 712.084934 106.115157 
L 714.188415 106.115157 
L 714.188415 432.411992 
L 714.653969 74.388533 
L 715.184237 432.411992 
L 715.196666 432.411992 
L 716.18892 107.393857 
L 716.312175 107.393857 
L 716.312175 153.295311 
L 716.804831 97.822168 
L 717.29776 115.93679 
L 717.420897 115.93679 
L 717.420897 97.661425 
L 717.544045 120.074455 
L 717.790526 106.115157 
L 719.894008 106.115157 
L 719.894008 432.411992 
L 720.359562 74.388533 
L 720.88983 432.411992 
L 720.902259 432.411992 
L 721.894513 107.393857 
L 722.017767 107.393857 
L 722.017767 153.295311 
L 722.510424 97.822168 
L 723.003353 115.93679 
L 723.12649 115.93679 
L 723.12649 97.661425 
L 723.249637 120.074455 
L 723.496119 106.115157 
L 725.599601 106.115157 
L 725.599601 432.411992 
L 726.065155 74.388533 
L 726.595422 432.411992 
L 726.607851 432.411992 
L 727.600106 107.393857 
L 727.72336 107.393857 
L 727.72336 153.295311 
L 728.216016 97.822168 
L 728.708945 115.93679 
L 728.832083 115.93679 
L 728.832083 97.661425 
L 728.95523 120.074455 
L 729.201712 106.115157 
L 737.069355 106.115157 
L 737.069355 432.411992 
L 743.456756 432.411992 
L 743.456756 160.733418 
L 744.315114 160.733418 
L 744.778373 160.733418 
L 744.874718 290.493444 
L 745.767545 160.733418 
L 746.032712 160.733418 
L 746.12916 290.493444 
L 747.021989 160.733418 
L 747.287154 160.733418 
L 747.383602 290.493444 
L 748.276432 160.733418 
L 748.541596 160.733418 
L 748.638045 290.493444 
L 749.530769 160.733418 
L 749.796038 160.733418 
L 749.892384 290.493444 
L 750.78521 160.733418 
L 751.050377 160.733418 
L 751.146825 290.493444 
L 752.039655 160.733418 
L 752.304819 160.733418 
L 752.401268 290.493444 
L 753.294097 160.733418 
L 753.559261 160.733418 
L 753.65571 290.493444 
L 754.548434 160.733418 
L 754.813704 160.733418 
L 754.91005 290.493444 
L 755.802878 160.733418 
L 756.006637 160.733418 
L 756.031277 432.411992 
L 756.900349 414.697508 
L 757.023531 414.697508 
L 757.023531 432.411992 
L 757.885934 216.819648 
L 758.009189 304.65967 
L 758.132371 304.65967 
L 758.378656 311.625056 
L 758.625137 279.075246 
L 760.728918 279.075246 
L 760.728918 432.411992 
L 761.31058 160.733418 
L 761.724539 363.292888 
L 761.736968 363.292888 
L 761.736968 432.411992 
L 761.773781 252.86415 
L 762.729222 432.411992 
L 762.852477 432.411992 
L 763.591625 216.819648 
L 763.838062 300.803193 
L 764.084347 300.131694 
L 764.084347 311.625056 
L 764.330828 279.075246 
L 766.434609 279.075246 
L 766.434609 432.411992 
L 767.016271 160.733418 
L 767.43023 363.292888 
L 767.442659 363.292888 
L 767.442659 432.411992 
L 767.479472 252.86415 
L 768.434913 432.411992 
L 768.558168 432.411992 
L 769.297317 216.819648 
L 769.543753 300.803193 
L 769.790038 300.131694 
L 769.790038 311.625056 
L 770.036519 279.075246 
L 772.1403 279.075246 
L 772.1403 432.411992 
L 772.721962 160.733418 
L 773.135921 363.292888 
L 773.14835 363.292888 
L 773.14835 432.411992 
L 773.185163 252.86415 
L 774.140604 432.411992 
L 774.263859 432.411992 
L 775.003008 216.819648 
L 775.249444 300.803193 
L 775.495729 300.131694 
L 775.495729 311.625056 
L 775.74221 279.075246 
L 777.845991 279.075246 
L 777.845991 432.411992 
L 778.427653 160.733418 
L 778.841612 363.292888 
L 778.854041 363.292888 
L 778.854041 432.411992 
L 778.890854 252.86415 
L 779.846295 432.411992 
L 779.96955 432.411992 
L 780.708699 216.819648 
L 780.955135 300.803193 
L 781.20142 300.131694 
L 781.20142 311.625056 
L 781.447901 279.075246 
L 783.551682 279.075246 
L 783.551682 432.411992 
L 784.133344 160.733418 
L 784.547303 363.292888 
L 784.559732 363.292888 
L 784.559732 432.411992 
L 784.596545 252.86415 
L 785.551986 432.411992 
L 785.675241 432.411992 
L 786.41439 216.819648 
L 786.660826 300.803193 
L 786.907111 300.131694 
L 786.907111 311.625056 
L 787.153592 279.075246 
L 795.021236 279.075246 
L 795.021236 432.411992 
L 804.512841 432.411992 
L 804.512841 432.411992 
" clip-path="url(#p360d385340)" style="fill: none; stroke: #000000; stroke-width: 0.5; stroke-linecap: square"/>
   </g>
   <g id="patch_3">
    <path d="M 34.45 450.428266 
L 34.45 54.070236 
" style="fill: none; stroke: #000000; stroke-width: 0.8; stroke-linejoin: miter; stroke-linecap: square"/>
   </g>
   <g id="patch_4">
    <path d="M 841.1825 450.428266 
L 841.1825 54.070236 
" style="fill: none; stroke: #000000; stroke-width: 0.8; stroke-linejoin: miter; stroke-linecap: square"/>
   </g>
   <g id="patch_5">
    <path d="M 34.45 450.428266 
L 841.1825 450.428266 
" style="fill: none; stroke: #000000; stroke-width: 0.8; stroke-linejoin: miter; stroke-linecap: square"/>
   </g>
   <g id="patch_6">
    <path d="M 34.45 54.070236 
L 841.1825 54.070236 
" style="fill: none; stroke: #000000; stroke-width: 0.8; stroke-linejoin: miter; stroke-linecap: square"/>
   </g>
   <g id="text_20">
    <!-- 切宽变化 -->
    <g transform="translate(409.81625 18.575) scale(0.14 -0.14)">
     <defs>
      <path id="SimHei-53d8" d="M 5200 1975 
Q 4950 1600 4537 1137 
Q 4125 675 3675 375 
Q 3925 225 4600 87 
Q 5275 -50 6000 -75 
Q 5700 -400 5650 -625 
Q 4850 -525 4212 -312 
Q 3575 -100 3225 125 
Q 2800 -125 2150 -325 
Q 1500 -525 700 -675 
Q 600 -425 400 -175 
Q 950 -150 1687 12 
Q 2425 175 2825 375 
Q 2275 775 1675 1575 
Q 1350 1575 1000 1550 
L 1000 2000 
Q 1450 1975 2075 1975 
L 5200 1975 
z
M 3225 5275 
Q 3400 4900 3550 4475 
L 4675 4475 
Q 5400 4475 5975 4500 
L 5975 4025 
Q 5375 4050 4725 4050 
L 4125 4050 
L 4125 2950 
Q 4125 2550 4150 2150 
L 3600 2150 
Q 3625 2550 3625 2950 
L 3625 4050 
L 2750 4050 
L 2750 2950 
Q 2750 2675 2775 2150 
L 2225 2150 
Q 2250 2675 2250 2950 
L 2250 4050 
L 1700 4050 
Q 975 4050 425 4025 
L 425 4500 
Q 950 4475 1700 4475 
L 2975 4475 
Q 2925 4675 2700 5125 
Q 2950 5150 3225 5275 
z
M 2200 1575 
Q 2650 975 3250 600 
Q 3850 1000 4275 1575 
L 2200 1575 
z
M 4850 3750 
Q 5375 3275 5950 2675 
Q 5750 2525 5500 2300 
Q 5075 2800 4450 3400 
Q 4675 3575 4850 3750 
z
M 1825 3500 
Q 1700 3375 1425 3025 
Q 1150 2675 825 2300 
Q 575 2475 375 2600 
Q 975 3150 1300 3825 
Q 1525 3650 1825 3500 
z
" transform="scale(0.015625)"/>
      <path id="SimHei-5316" d="M 3925 5025 
Q 3900 4900 3900 4400 
L 3900 2625 
Q 4375 3025 4775 3450 
Q 5175 3875 5400 4300 
Q 5600 4100 5900 3925 
Q 5700 3700 5225 3212 
Q 4750 2725 4487 2512 
Q 4225 2300 3900 2025 
L 3900 450 
Q 3900 50 4225 50 
L 5200 50 
Q 5400 75 5462 262 
Q 5525 450 5575 850 
Q 5800 650 6150 600 
Q 6000 -100 5825 -250 
Q 5650 -400 5350 -400 
L 3950 -400 
Q 3425 -400 3400 200 
L 3400 1675 
Q 3225 1525 2962 1350 
Q 2700 1175 2375 975 
Q 2225 1225 2025 1400 
Q 2350 1550 2737 1787 
Q 3125 2025 3400 2250 
L 3400 4500 
Q 3400 4800 3375 5025 
L 3925 5025 
z
M 2400 4850 
Q 2175 4550 2075 4337 
Q 1975 4125 1825 3775 
L 1825 675 
Q 1825 -75 1850 -550 
L 1325 -550 
Q 1350 -125 1350 650 
L 1350 3050 
Q 1125 2725 962 2525 
Q 800 2325 675 2175 
Q 500 2375 275 2525 
Q 625 2850 875 3212 
Q 1125 3575 1312 3912 
Q 1500 4250 1625 4575 
Q 1750 4900 1825 5100 
Q 1975 4975 2400 4850 
z
" transform="scale(0.015625)"/>
     </defs>
     <use xlink:href="#SimHei-5207"/>
     <use xlink:href="#SimHei-5bbd" x="100"/>
     <use xlink:href="#SimHei-53d8" x="200"/>
     <use xlink:href="#SimHei-5316" x="300"/>
    </g>
   </g>
  </g>
  <g id="axes_2">
   <g id="matplotlib.axis_3">
    <g id="xtick_9">
     <g id="line2d_36">
      <defs>
       <path id="mf4e8670258" d="M 0 0 
L 0 -3.5 
" style="stroke: #000000; stroke-width: 0.8"/>
      </defs>
      <g>
       <use xlink:href="#mf4e8670258" x="71.119659" y="54.070236" style="stroke: #000000; stroke-width: 0.8"/>
      </g>
     </g>
     <g id="text_21">
      <!-- N0 -->
      <g transform="translate(75.008746 46.363129) rotate(-45) scale(0.08 -0.08)">
       <defs>
        <path id="SimHei-4e" d="M 2850 125 
L 2225 125 
L 850 3225 
L 825 3225 
L 825 125 
L 250 125 
L 250 4400 
L 875 4400 
L 2250 1300 
L 2275 1300 
L 2275 4400 
L 2850 4400 
L 2850 125 
z
" transform="scale(0.015625)"/>
       </defs>
       <use xlink:href="#SimHei-4e"/>
       <use xlink:href="#SimHei-30" x="50"/>
      </g>
     </g>
    </g>
    <g id="xtick_10">
     <g id="line2d_37">
      <g>
       <use xlink:href="#mf4e8670258" x="339.11199" y="54.070236" style="stroke: #000000; stroke-width: 0.8"/>
      </g>
     </g>
     <g id="text_22">
      <!-- N0 -->
      <g transform="translate(343.001078 46.363129) rotate(-45) scale(0.08 -0.08)">
       <use xlink:href="#SimHei-4e"/>
       <use xlink:href="#SimHei-30" x="50"/>
      </g>
     </g>
    </g>
    <g id="xtick_11">
     <g id="line2d_38">
      <g>
       <use xlink:href="#mf4e8670258" x="437.544948" y="54.070236" style="stroke: #000000; stroke-width: 0.8"/>
      </g>
     </g>
     <g id="text_23">
      <!-- N0 -->
      <g transform="translate(441.434035 46.363129) rotate(-45) scale(0.08 -0.08)">
       <use xlink:href="#SimHei-4e"/>
       <use xlink:href="#SimHei-30" x="50"/>
      </g>
     </g>
    </g>
    <g id="xtick_12">
     <g id="line2d_39">
      <g>
       <use xlink:href="#mf4e8670258" x="454.250136" y="54.070236" style="stroke: #000000; stroke-width: 0.8"/>
      </g>
     </g>
     <g id="text_24">
      <!-- N0 -->
      <g transform="translate(458.139224 46.363129) rotate(-45) scale(0.08 -0.08)">
       <use xlink:href="#SimHei-4e"/>
       <use xlink:href="#SimHei-30" x="50"/>
      </g>
     </g>
    </g>
    <g id="xtick_13">
     <g id="line2d_40">
      <g>
       <use xlink:href="#mf4e8670258" x="523.228281" y="54.070236" style="stroke: #000000; stroke-width: 0.8"/>
      </g>
     </g>
     <g id="text_25">
      <!-- N0 -->
      <g transform="translate(527.117369 46.363129) rotate(-45) scale(0.08 -0.08)">
       <use xlink:href="#SimHei-4e"/>
       <use xlink:href="#SimHei-30" x="50"/>
      </g>
     </g>
    </g>
    <g id="xtick_14">
     <g id="line2d_41">
      <g>
       <use xlink:href="#mf4e8670258" x="535.694276" y="54.070236" style="stroke: #000000; stroke-width: 0.8"/>
      </g>
     </g>
     <g id="text_26">
      <!-- N0 -->
      <g transform="translate(539.583363 46.363129) rotate(-45) scale(0.08 -0.08)">
       <use xlink:href="#SimHei-4e"/>
       <use xlink:href="#SimHei-30" x="50"/>
      </g>
     </g>
    </g>
    <g id="xtick_15">
     <g id="line2d_42">
      <g>
       <use xlink:href="#mf4e8670258" x="542.179244" y="54.070236" style="stroke: #000000; stroke-width: 0.8"/>
      </g>
     </g>
     <g id="text_27">
      <!-- N0 -->
      <g transform="translate(546.068331 46.363129) rotate(-45) scale(0.08 -0.08)">
       <use xlink:href="#SimHei-4e"/>
       <use xlink:href="#SimHei-30" x="50"/>
      </g>
     </g>
    </g>
    <g id="xtick_16">
     <g id="line2d_43">
      <g>
       <use xlink:href="#mf4e8670258" x="576.525587" y="54.070236" style="stroke: #000000; stroke-width: 0.8"/>
      </g>
     </g>
     <g id="text_28">
      <!-- N0 -->
      <g transform="translate(580.414674 46.363129) rotate(-45) scale(0.08 -0.08)">
       <use xlink:href="#SimHei-4e"/>
       <use xlink:href="#SimHei-30" x="50"/>
      </g>
     </g>
    </g>
    <g id="xtick_17">
     <g id="line2d_44">
      <g>
       <use xlink:href="#mf4e8670258" x="624.486984" y="54.070236" style="stroke: #000000; stroke-width: 0.8"/>
      </g>
     </g>
     <g id="text_29">
      <!-- N0 -->
      <g transform="translate(628.376072 46.363129) rotate(-45) scale(0.08 -0.08)">
       <use xlink:href="#SimHei-4e"/>
       <use xlink:href="#SimHei-30" x="50"/>
      </g>
     </g>
    </g>
    <g id="xtick_18">
     <g id="line2d_45">
      <g>
       <use xlink:href="#mf4e8670258" x="660.842535" y="54.070236" style="stroke: #000000; stroke-width: 0.8"/>
      </g>
     </g>
     <g id="text_30">
      <!-- N0 -->
      <g transform="translate(664.731623 46.363129) rotate(-45) scale(0.08 -0.08)">
       <use xlink:href="#SimHei-4e"/>
       <use xlink:href="#SimHei-30" x="50"/>
      </g>
     </g>
    </g>
    <g id="xtick_19">
     <g id="line2d_46">
      <g>
       <use xlink:href="#mf4e8670258" x="706.379341" y="54.070236" style="stroke: #000000; stroke-width: 0.8"/>
      </g>
     </g>
     <g id="text_31">
      <!-- N0 -->
      <g transform="translate(710.268428 46.363129) rotate(-45) scale(0.08 -0.08)">
       <use xlink:href="#SimHei-4e"/>
       <use xlink:href="#SimHei-30" x="50"/>
      </g>
     </g>
    </g>
    <g id="xtick_20">
     <g id="line2d_47">
      <g>
       <use xlink:href="#mf4e8670258" x="752.039655" y="54.070236" style="stroke: #000000; stroke-width: 0.8"/>
      </g>
     </g>
     <g id="text_32">
      <!-- N0 -->
      <g transform="translate(755.928742 46.363129) rotate(-45) scale(0.08 -0.08)">
       <use xlink:href="#SimHei-4e"/>
       <use xlink:href="#SimHei-30" x="50"/>
      </g>
     </g>
    </g>
    <g id="xtick_21">
     <g id="line2d_48">
      <g>
       <use xlink:href="#mf4e8670258" x="787.153592" y="54.070236" style="stroke: #000000; stroke-width: 0.8"/>
      </g>
     </g>
     <g id="text_33">
      <!-- N0 -->
      <g transform="translate(791.04268 46.363129) rotate(-45) scale(0.08 -0.08)">
       <use xlink:href="#SimHei-4e"/>
       <use xlink:href="#SimHei-30" x="50"/>
      </g>
     </g>
    </g>
    <g id="text_34">
     <!-- 指令行号 N -->
     <g transform="translate(412.81625 32.817187) scale(0.1 -0.1)">
      <defs>
       <path id="SimHei-6307" d="M 5625 2225 
Q 5600 1925 5600 1350 
L 5600 300 
Q 5600 -225 5625 -525 
L 5125 -525 
L 5125 -125 
L 3300 -125 
L 3300 -625 
L 2800 -625 
Q 2825 -300 2825 300 
L 2825 1350 
Q 2825 1925 2800 2225 
L 5625 2225 
z
M 500 25 
Q 1075 -25 1175 37 
Q 1275 100 1275 275 
L 1275 1675 
Q 1050 1600 925 1537 
Q 800 1475 475 1275 
Q 400 1525 225 1800 
Q 625 1900 825 1975 
Q 1025 2050 1275 2125 
L 1275 3300 
L 1100 3300 
Q 775 3300 450 3275 
L 450 3725 
Q 750 3700 1100 3700 
L 1275 3700 
L 1275 4450 
Q 1275 4800 1250 5125 
L 1775 5125 
Q 1750 4850 1750 4450 
L 1750 3700 
Q 2075 3700 2425 3725 
L 2425 3275 
Q 2050 3300 1750 3300 
L 1750 2325 
Q 1850 2350 2025 2425 
L 2375 2575 
Q 2350 2300 2375 2100 
Q 2225 2050 2062 1987 
Q 1900 1925 1750 1850 
L 1750 100 
Q 1725 -200 1575 -337 
Q 1425 -475 675 -525 
Q 625 -250 500 25 
z
M 3325 5025 
Q 3300 4675 3300 4125 
Q 4125 4275 4512 4412 
Q 4900 4550 5225 4725 
Q 5325 4475 5575 4250 
Q 5450 4225 5237 4175 
Q 5025 4125 4725 4050 
Q 4425 3975 4037 3887 
Q 3650 3800 3300 3725 
L 3300 3175 
Q 3275 2925 3700 2925 
L 4925 2925 
Q 5300 2925 5387 3087 
Q 5475 3250 5550 3600 
Q 5750 3400 6050 3300 
Q 5825 2725 5700 2637 
Q 5575 2550 5275 2525 
L 3350 2525 
Q 3050 2525 2937 2687 
Q 2825 2850 2825 2975 
L 2825 4125 
Q 2825 4775 2800 5025 
L 3325 5025 
z
M 5125 275 
L 5125 875 
L 3300 875 
L 3300 275 
L 5125 275 
z
M 5125 1250 
L 5125 1825 
L 3300 1825 
L 3300 1250 
L 5125 1250 
z
" transform="scale(0.015625)"/>
       <path id="SimHei-4ee4" d="M 5375 2075 
L 5375 1550 
Q 4925 1325 4450 937 
Q 3975 550 3575 125 
L 4250 -325 
Q 4050 -550 3875 -775 
Q 3100 -125 1850 425 
L 2150 875 
Q 2400 775 3125 350 
Q 3800 1025 4450 1625 
L 2025 1625 
Q 1500 1625 975 1600 
L 975 2100 
Q 1525 2075 2025 2075 
L 5375 2075 
z
M 3375 4850 
Q 4450 3550 6200 2900 
Q 5950 2625 5800 2350 
Q 4150 3150 3100 4475 
Q 2075 3125 625 2225 
Q 400 2525 200 2700 
Q 875 2975 1675 3675 
Q 2475 4375 2950 5300 
Q 3275 5175 3550 5050 
Q 3475 5000 3375 4850 
z
M 2925 3600 
Q 3175 3350 3750 2725 
L 3300 2325 
Q 3050 2700 2550 3225 
Q 2750 3375 2925 3600 
z
" transform="scale(0.015625)"/>
       <path id="SimHei-53f7" d="M 5025 4925 
Q 5000 4550 5000 4075 
Q 5000 3600 5025 3175 
L 1400 3175 
Q 1425 3525 1425 4000 
Q 1425 4500 1400 4925 
L 5025 4925 
z
M 5175 2625 
Q 5650 2625 6025 2650 
L 6025 2200 
Q 5650 2225 5175 2225 
L 2450 2225 
Q 2350 1875 2225 1450 
L 5175 1450 
Q 5100 1050 5062 775 
Q 5025 500 4950 112 
Q 4875 -275 4650 -412 
Q 4425 -550 3225 -625 
Q 3125 -350 2975 -50 
Q 3875 -75 4112 -50 
Q 4350 -25 4425 212 
Q 4500 450 4575 1025 
L 1600 1025 
Q 1825 1625 1950 2225 
L 1350 2225 
Q 825 2225 375 2200 
L 375 2650 
Q 825 2625 1350 2625 
L 5175 2625 
z
M 4525 3575 
L 4525 4525 
L 1900 4525 
L 1900 3575 
L 4525 3575 
z
" transform="scale(0.015625)"/>
      </defs>
      <use xlink:href="#SimHei-6307"/>
      <use xlink:href="#SimHei-4ee4" x="100"/>
      <use xlink:href="#SimHei-884c" x="200"/>
      <use xlink:href="#SimHei-53f7" x="300"/>
      <use xlink:href="#SimHei-20" x="400"/>
      <use xlink:href="#SimHei-4e" x="450"/>
     </g>
    </g>
   </g>
   <g id="patch_7">
    <path d="M 34.45 450.428266 
L 34.45 54.070236 
" style="fill: none; stroke: #000000; stroke-width: 0.8; stroke-linejoin: miter; stroke-linecap: square"/>
   </g>
   <g id="patch_8">
    <path d="M 841.1825 450.428266 
L 841.1825 54.070236 
" style="fill: none; stroke: #000000; stroke-width: 0.8; stroke-linejoin: miter; stroke-linecap: square"/>
   </g>
   <g id="patch_9">
    <path d="M 34.45 450.428266 
L 841.1825 450.428266 
" style="fill: none; stroke: #000000; stroke-width: 0.8; stroke-linejoin: miter; stroke-linecap: square"/>
   </g>
   <g id="patch_10">
    <path d="M 34.45 54.070236 
L 841.1825 54.070236 
" style="fill: none; stroke: #000000; stroke-width: 0.8; stroke-linejoin: miter; stroke-linecap: square"/>
   </g>
  </g>
 </g>
 <defs>
  <clipPath id="p360d385340">
   <rect x="34.45" y="54.070236" width="806.7325" height="396.35803"/>
  </clipPath>
 </defs>
</svg>
