<?xml version="1.0" encoding="utf-8" standalone="no"?>
<!DOCTYPE svg PUBLIC "-//W3C//DTD SVG 1.1//EN"
  "http://www.w3.org/Graphics/SVG/1.1/DTD/svg11.dtd">
<svg xmlns:xlink="http://www.w3.org/1999/xlink" width="848.45375pt" height="488.394516pt" viewBox="0 0 848.45375 488.394516" xmlns="http://www.w3.org/2000/svg" version="1.1">
 <metadata>
  <rdf:RDF xmlns:dc="http://purl.org/dc/elements/1.1/" xmlns:cc="http://creativecommons.org/ns#" xmlns:rdf="http://www.w3.org/1999/02/22-rdf-syntax-ns#">
   <cc:Work>
    <dc:type rdf:resource="http://purl.org/dc/dcmitype/StillImage"/>
    <dc:date>2025-12-10T15:20:49.311879</dc:date>
    <dc:format>image/svg+xml</dc:format>
    <dc:creator>
     <cc:Agent>
      <dc:title>Matplotlib v3.9.2, https://matplotlib.org/</dc:title>
     </cc:Agent>
    </dc:creator>
   </cc:Work>
  </rdf:RDF>
 </metadata>
 <defs>
  <style type="text/css">*{stroke-linejoin: round; stroke-linecap: butt}</style>
 </defs>
 <g id="figure_1">
  <g id="patch_1">
   <path d="M 0 488.394516 
L 848.45375 488.394516 
L 848.45375 0 
L 0 0 
z
" style="fill: #ffffff"/>
  </g>
  <g id="axes_1">
   <g id="patch_2">
    <path d="M 34.35625 450.866391 
L 841.25375 450.866391 
L 841.25375 53.960861 
L 34.35625 53.960861 
z
" style="fill: #ffffff"/>
   </g>
   <g id="matplotlib.axis_1">
    <g id="xtick_1">
     <g id="line2d_1">
      <path d="M 87.550768 450.866391 
L 87.550768 53.960861 
" clip-path="url(#p19cafe7c9e)" style="fill: none; stroke-dasharray: 2.96,1.28; stroke-dashoffset: 0; stroke: #b0b0b0; stroke-opacity: 0.7; stroke-width: 0.8"/>
     </g>
     <g id="line2d_2">
      <defs>
       <path id="m0538309cb4" d="M 0 0 
L 0 3.5 
" style="stroke: #000000; stroke-width: 0.8"/>
      </defs>
      <g>
       <use xlink:href="#m0538309cb4" x="87.550768" y="450.866391" style="stroke: #000000; stroke-width: 0.8"/>
      </g>
     </g>
     <g id="text_1">
      <!-- 500 -->
      <g transform="translate(80.050768 464.741391) scale(0.1 -0.1)">
       <defs>
        <path id="SimHei-35" d="M 550 1325 
Q 725 650 1150 575 
Q 1575 500 1837 662 
Q 2100 825 2212 1087 
Q 2325 1350 2312 1675 
Q 2300 2000 2137 2225 
Q 1975 2450 1725 2525 
Q 1475 2600 1162 2525 
Q 850 2450 650 2175 
L 225 2225 
Q 275 2375 700 4375 
L 2675 4375 
L 2675 3925 
L 1075 3925 
Q 950 3250 825 2850 
Q 1200 3025 1525 3012 
Q 1850 3000 2150 2862 
Q 2450 2725 2587 2487 
Q 2725 2250 2787 2012 
Q 2850 1775 2837 1500 
Q 2825 1225 2725 937 
Q 2625 650 2425 462 
Q 2225 275 1937 162 
Q 1650 50 1275 75 
Q 900 100 562 350 
Q 225 600 100 1200 
L 550 1325 
z
" transform="scale(0.015625)"/>
        <path id="SimHei-30" d="M 225 2537 
Q 250 3200 412 3587 
Q 575 3975 875 4225 
Q 1175 4475 1612 4475 
Q 2050 4475 2375 4112 
Q 2700 3750 2800 3200 
Q 2900 2650 2862 1937 
Q 2825 1225 2612 775 
Q 2400 325 1975 150 
Q 1550 -25 1125 187 
Q 700 400 525 750 
Q 350 1100 275 1487 
Q 200 1875 225 2537 
z
M 750 2687 
Q 675 2000 800 1462 
Q 925 925 1212 700 
Q 1500 475 1800 612 
Q 2100 750 2237 1162 
Q 2375 1575 2375 2062 
Q 2375 2550 2337 2950 
Q 2300 3350 2112 3675 
Q 1925 4000 1612 4012 
Q 1300 4025 1062 3700 
Q 825 3375 750 2687 
z
" transform="scale(0.015625)"/>
       </defs>
       <use xlink:href="#SimHei-35"/>
       <use xlink:href="#SimHei-30" x="50"/>
       <use xlink:href="#SimHei-30" x="100"/>
      </g>
     </g>
    </g>
    <g id="xtick_2">
     <g id="line2d_3">
      <path d="M 188.438618 450.866391 
L 188.438618 53.960861 
" clip-path="url(#p19cafe7c9e)" style="fill: none; stroke-dasharray: 2.96,1.28; stroke-dashoffset: 0; stroke: #b0b0b0; stroke-opacity: 0.7; stroke-width: 0.8"/>
     </g>
     <g id="line2d_4">
      <g>
       <use xlink:href="#m0538309cb4" x="188.438618" y="450.866391" style="stroke: #000000; stroke-width: 0.8"/>
      </g>
     </g>
     <g id="text_2">
      <!-- 750 -->
      <g transform="translate(180.938618 464.741391) scale(0.1 -0.1)">
       <defs>
        <path id="SimHei-37" d="M 850 150 
Q 1300 2050 2425 3925 
L 275 3925 
L 275 4375 
L 2950 4375 
L 2950 3950 
Q 1775 2050 1400 150 
L 850 150 
z
" transform="scale(0.015625)"/>
       </defs>
       <use xlink:href="#SimHei-37"/>
       <use xlink:href="#SimHei-35" x="50"/>
       <use xlink:href="#SimHei-30" x="100"/>
      </g>
     </g>
    </g>
    <g id="xtick_3">
     <g id="line2d_5">
      <path d="M 289.326468 450.866391 
L 289.326468 53.960861 
" clip-path="url(#p19cafe7c9e)" style="fill: none; stroke-dasharray: 2.96,1.28; stroke-dashoffset: 0; stroke: #b0b0b0; stroke-opacity: 0.7; stroke-width: 0.8"/>
     </g>
     <g id="line2d_6">
      <g>
       <use xlink:href="#m0538309cb4" x="289.326468" y="450.866391" style="stroke: #000000; stroke-width: 0.8"/>
      </g>
     </g>
     <g id="text_3">
      <!-- 1000 -->
      <g transform="translate(279.326468 464.741391) scale(0.1 -0.1)">
       <defs>
        <path id="SimHei-31" d="M 1400 3600 
Q 1075 3275 575 2975 
L 575 3450 
Q 1200 3875 1600 4450 
L 1900 4450 
L 1900 150 
L 1400 150 
L 1400 3600 
z
" transform="scale(0.015625)"/>
       </defs>
       <use xlink:href="#SimHei-31"/>
       <use xlink:href="#SimHei-30" x="50"/>
       <use xlink:href="#SimHei-30" x="100"/>
       <use xlink:href="#SimHei-30" x="150"/>
      </g>
     </g>
    </g>
    <g id="xtick_4">
     <g id="line2d_7">
      <path d="M 390.214318 450.866391 
L 390.214318 53.960861 
" clip-path="url(#p19cafe7c9e)" style="fill: none; stroke-dasharray: 2.96,1.28; stroke-dashoffset: 0; stroke: #b0b0b0; stroke-opacity: 0.7; stroke-width: 0.8"/>
     </g>
     <g id="line2d_8">
      <g>
       <use xlink:href="#m0538309cb4" x="390.214318" y="450.866391" style="stroke: #000000; stroke-width: 0.8"/>
      </g>
     </g>
     <g id="text_4">
      <!-- 1250 -->
      <g transform="translate(380.214318 464.741391) scale(0.1 -0.1)">
       <defs>
        <path id="SimHei-32" d="M 300 250 
Q 325 625 650 925 
Q 975 1225 1475 1862 
Q 1975 2500 2125 2850 
Q 2275 3200 2237 3450 
Q 2200 3700 2000 3862 
Q 1800 4025 1537 4000 
Q 1275 3975 1037 3800 
Q 800 3625 675 3275 
L 200 3350 
Q 400 3925 712 4187 
Q 1025 4450 1450 4475 
Q 1700 4500 1900 4462 
Q 2100 4425 2312 4287 
Q 2525 4150 2662 3875 
Q 2800 3600 2762 3212 
Q 2725 2825 2375 2287 
Q 2025 1750 1025 600 
L 2825 600 
L 2825 150 
L 300 150 
L 300 250 
z
" transform="scale(0.015625)"/>
       </defs>
       <use xlink:href="#SimHei-31"/>
       <use xlink:href="#SimHei-32" x="50"/>
       <use xlink:href="#SimHei-35" x="100"/>
       <use xlink:href="#SimHei-30" x="150"/>
      </g>
     </g>
    </g>
    <g id="xtick_5">
     <g id="line2d_9">
      <path d="M 491.102168 450.866391 
L 491.102168 53.960861 
" clip-path="url(#p19cafe7c9e)" style="fill: none; stroke-dasharray: 2.96,1.28; stroke-dashoffset: 0; stroke: #b0b0b0; stroke-opacity: 0.7; stroke-width: 0.8"/>
     </g>
     <g id="line2d_10">
      <g>
       <use xlink:href="#m0538309cb4" x="491.102168" y="450.866391" style="stroke: #000000; stroke-width: 0.8"/>
      </g>
     </g>
     <g id="text_5">
      <!-- 1500 -->
      <g transform="translate(481.102168 464.741391) scale(0.1 -0.1)">
       <use xlink:href="#SimHei-31"/>
       <use xlink:href="#SimHei-35" x="50"/>
       <use xlink:href="#SimHei-30" x="100"/>
       <use xlink:href="#SimHei-30" x="150"/>
      </g>
     </g>
    </g>
    <g id="xtick_6">
     <g id="line2d_11">
      <path d="M 591.990018 450.866391 
L 591.990018 53.960861 
" clip-path="url(#p19cafe7c9e)" style="fill: none; stroke-dasharray: 2.96,1.28; stroke-dashoffset: 0; stroke: #b0b0b0; stroke-opacity: 0.7; stroke-width: 0.8"/>
     </g>
     <g id="line2d_12">
      <g>
       <use xlink:href="#m0538309cb4" x="591.990018" y="450.866391" style="stroke: #000000; stroke-width: 0.8"/>
      </g>
     </g>
     <g id="text_6">
      <!-- 1750 -->
      <g transform="translate(581.990018 464.741391) scale(0.1 -0.1)">
       <use xlink:href="#SimHei-31"/>
       <use xlink:href="#SimHei-37" x="50"/>
       <use xlink:href="#SimHei-35" x="100"/>
       <use xlink:href="#SimHei-30" x="150"/>
      </g>
     </g>
    </g>
    <g id="xtick_7">
     <g id="line2d_13">
      <path d="M 692.877868 450.866391 
L 692.877868 53.960861 
" clip-path="url(#p19cafe7c9e)" style="fill: none; stroke-dasharray: 2.96,1.28; stroke-dashoffset: 0; stroke: #b0b0b0; stroke-opacity: 0.7; stroke-width: 0.8"/>
     </g>
     <g id="line2d_14">
      <g>
       <use xlink:href="#m0538309cb4" x="692.877868" y="450.866391" style="stroke: #000000; stroke-width: 0.8"/>
      </g>
     </g>
     <g id="text_7">
      <!-- 2000 -->
      <g transform="translate(682.877868 464.741391) scale(0.1 -0.1)">
       <use xlink:href="#SimHei-32"/>
       <use xlink:href="#SimHei-30" x="50"/>
       <use xlink:href="#SimHei-30" x="100"/>
       <use xlink:href="#SimHei-30" x="150"/>
      </g>
     </g>
    </g>
    <g id="xtick_8">
     <g id="line2d_15">
      <path d="M 793.765718 450.866391 
L 793.765718 53.960861 
" clip-path="url(#p19cafe7c9e)" style="fill: none; stroke-dasharray: 2.96,1.28; stroke-dashoffset: 0; stroke: #b0b0b0; stroke-opacity: 0.7; stroke-width: 0.8"/>
     </g>
     <g id="line2d_16">
      <g>
       <use xlink:href="#m0538309cb4" x="793.765718" y="450.866391" style="stroke: #000000; stroke-width: 0.8"/>
      </g>
     </g>
     <g id="text_8">
      <!-- 2250 -->
      <g transform="translate(783.765718 464.741391) scale(0.1 -0.1)">
       <use xlink:href="#SimHei-32"/>
       <use xlink:href="#SimHei-32" x="50"/>
       <use xlink:href="#SimHei-35" x="100"/>
       <use xlink:href="#SimHei-30" x="150"/>
      </g>
     </g>
    </g>
    <g id="text_9">
     <!-- 行程 s (mm) -->
     <g transform="translate(404.805 479.694516) scale(0.12 -0.12)">
      <defs>
       <path id="SimHei-884c" d="M 5300 3100 
Q 5775 3100 6175 3125 
L 6175 2625 
Q 5775 2650 5325 2650 
L 4975 2650 
L 4975 -75 
Q 5000 -375 4787 -487 
Q 4575 -600 3950 -675 
Q 3900 -375 3675 -75 
Q 4100 -125 4275 -112 
Q 4450 -100 4475 150 
L 4475 2650 
L 3475 2650 
Q 3000 2650 2575 2625 
L 2575 3125 
Q 3025 3100 3475 3100 
L 5300 3100 
z
M 2300 3400 
Q 2075 3275 1962 3075 
Q 1850 2875 1650 2575 
L 1650 325 
Q 1650 0 1675 -675 
L 1150 -675 
Q 1175 75 1175 450 
L 1175 2050 
Q 950 1675 575 1300 
Q 400 1550 250 1725 
Q 825 2275 1150 2775 
Q 1475 3275 1725 3725 
Q 1975 3575 2300 3400 
z
M 4875 4800 
Q 5300 4800 5750 4825 
L 5750 4350 
Q 5300 4375 4825 4375 
L 3900 4375 
Q 3350 4375 2950 4350 
L 2950 4825 
Q 3350 4800 3900 4800 
L 4875 4800 
z
M 2075 4925 
Q 1875 4900 1550 4387 
Q 1225 3875 650 3250 
Q 500 3450 325 3625 
Q 725 4025 1050 4487 
Q 1375 4950 1525 5300 
Q 1775 5150 2075 4925 
z
" transform="scale(0.015625)"/>
       <path id="SimHei-7a0b" d="M 5825 4975 
Q 5800 4425 5800 3975 
Q 5800 3550 5825 3125 
L 3025 3125 
Q 3050 3600 3050 4025 
Q 3050 4450 3025 4975 
L 5825 4975 
z
M 400 4825 
Q 825 4875 1362 4987 
Q 1900 5100 2275 5275 
Q 2450 4950 2625 4725 
Q 2450 4750 2262 4712 
Q 2075 4675 1850 4650 
L 1850 3425 
Q 2200 3425 2600 3450 
L 2600 2975 
Q 2200 3000 1850 3000 
L 1850 800 
Q 1850 250 1875 -675 
L 1375 -675 
Q 1400 250 1400 775 
L 1400 1925 
Q 1050 1225 625 600 
Q 450 850 225 1050 
Q 575 1400 850 1850 
Q 1125 2300 1350 3000 
Q 725 3000 425 2975 
L 425 3450 
Q 850 3425 1050 3425 
L 1400 3425 
L 1400 4550 
Q 1075 4475 575 4400 
Q 500 4625 400 4825 
z
M 5100 2500 
Q 5500 2500 5950 2525 
L 5950 2075 
Q 5500 2100 5100 2100 
L 4625 2100 
L 4625 1300 
L 4900 1300 
Q 5275 1300 5775 1325 
L 5775 850 
Q 5275 875 4975 875 
L 4625 875 
L 4625 0 
L 5225 0 
Q 5675 0 6175 25 
L 6175 -450 
Q 5775 -425 5225 -425 
L 3550 -425 
Q 3000 -425 2600 -475 
L 2600 25 
Q 3000 0 3550 0 
L 4150 0 
L 4150 875 
L 3800 875 
Q 3400 875 3050 825 
L 3050 1325 
Q 3400 1300 3800 1300 
L 4150 1300 
L 4150 2100 
L 3750 2100 
Q 3300 2100 2900 2075 
L 2900 2525 
Q 3300 2500 3750 2500 
L 5100 2500 
z
M 5275 3575 
L 5275 4550 
L 3500 4550 
L 3500 3575 
L 5275 3575 
z
M 2300 2400 
Q 2550 2025 2825 1525 
Q 2675 1425 2425 1225 
Q 2175 1775 1925 2125 
Q 2075 2250 2300 2400 
z
" transform="scale(0.015625)"/>
       <path id="SimHei-20" transform="scale(0.015625)"/>
       <path id="SimHei-73" d="M 2750 900 
Q 2750 500 2437 287 
Q 2125 75 1650 75 
Q 1050 75 725 312 
Q 400 550 400 1000 
L 900 1000 
Q 900 700 1112 600 
Q 1325 500 1625 500 
Q 1925 500 2075 612 
Q 2225 725 2225 900 
Q 2225 1025 2100 1150 
Q 1975 1275 1475 1350 
Q 900 1425 687 1637 
Q 475 1850 475 2200 
Q 475 2500 762 2737 
Q 1050 2975 1600 2975 
Q 2100 2975 2387 2750 
Q 2675 2525 2675 2150 
L 2175 2150 
Q 2175 2375 2012 2462 
Q 1850 2550 1600 2550 
Q 1275 2550 1137 2437 
Q 1000 2325 1000 2175 
Q 1000 2000 1125 1900 
Q 1250 1800 1650 1750 
Q 2300 1650 2525 1437 
Q 2750 1225 2750 900 
z
" transform="scale(0.015625)"/>
       <path id="SimHei-28" d="M 2975 -200 
L 2700 -475 
Q 2075 125 1762 775 
Q 1450 1425 1450 2250 
Q 1450 3075 1762 3725 
Q 2075 4375 2700 5000 
L 2975 4725 
Q 2400 4175 2112 3587 
Q 1825 3000 1825 2250 
Q 1825 1500 2112 912 
Q 2400 325 2975 -200 
z
" transform="scale(0.015625)"/>
       <path id="SimHei-6d" d="M 3050 125 
L 2550 125 
L 2550 2150 
Q 2550 2300 2500 2400 
Q 2450 2500 2300 2500 
Q 2125 2500 1975 2312 
Q 1825 2125 1825 1825 
L 1825 125 
L 1325 125 
L 1325 2150 
Q 1325 2300 1275 2400 
Q 1225 2500 1075 2500 
Q 900 2500 750 2312 
Q 600 2125 600 1825 
L 600 125 
L 100 125 
L 100 2925 
L 600 2925 
L 600 2550 
Q 725 2750 900 2862 
Q 1075 2975 1275 2975 
Q 1475 2975 1612 2862 
Q 1750 2750 1800 2550 
Q 1925 2750 2087 2862 
Q 2250 2975 2450 2975 
Q 2750 2975 2900 2812 
Q 3050 2650 3050 2350 
L 3050 125 
z
" transform="scale(0.015625)"/>
       <path id="SimHei-29" d="M 1675 2250 
Q 1675 1425 1362 775 
Q 1050 125 425 -475 
L 150 -200 
Q 725 325 1012 912 
Q 1300 1500 1300 2250 
Q 1300 3000 1012 3587 
Q 725 4175 150 4725 
L 425 5000 
Q 1050 4375 1362 3725 
Q 1675 3075 1675 2250 
z
" transform="scale(0.015625)"/>
      </defs>
      <use xlink:href="#SimHei-884c"/>
      <use xlink:href="#SimHei-7a0b" x="100"/>
      <use xlink:href="#SimHei-20" x="200"/>
      <use xlink:href="#SimHei-73" x="250"/>
      <use xlink:href="#SimHei-20" x="300"/>
      <use xlink:href="#SimHei-28" x="350"/>
      <use xlink:href="#SimHei-6d" x="400"/>
      <use xlink:href="#SimHei-6d" x="450"/>
      <use xlink:href="#SimHei-29" x="500"/>
     </g>
    </g>
   </g>
   <g id="matplotlib.axis_2">
    <g id="ytick_1">
     <g id="line2d_17">
      <path d="M 34.35625 432.825231 
L 841.25375 432.825231 
" clip-path="url(#p19cafe7c9e)" style="fill: none; stroke-dasharray: 2.96,1.28; stroke-dashoffset: 0; stroke: #b0b0b0; stroke-opacity: 0.7; stroke-width: 0.8"/>
     </g>
     <g id="line2d_18">
      <defs>
       <path id="m51eeb4219e" d="M 0 0 
L -3.5 0 
" style="stroke: #000000; stroke-width: 0.8"/>
      </defs>
      <g>
       <use xlink:href="#m51eeb4219e" x="34.35625" y="432.825231" style="stroke: #000000; stroke-width: 0.8"/>
      </g>
     </g>
     <g id="text_10">
      <!-- 0 -->
      <g transform="translate(22.35625 436.262731) scale(0.1 -0.1)">
       <use xlink:href="#SimHei-30"/>
      </g>
     </g>
    </g>
    <g id="ytick_2">
     <g id="line2d_19">
      <path d="M 34.35625 387.72233 
L 841.25375 387.72233 
" clip-path="url(#p19cafe7c9e)" style="fill: none; stroke-dasharray: 2.96,1.28; stroke-dashoffset: 0; stroke: #b0b0b0; stroke-opacity: 0.7; stroke-width: 0.8"/>
     </g>
     <g id="line2d_20">
      <g>
       <use xlink:href="#m51eeb4219e" x="34.35625" y="387.72233" style="stroke: #000000; stroke-width: 0.8"/>
      </g>
     </g>
     <g id="text_11">
      <!-- 1 -->
      <g transform="translate(22.35625 391.15983) scale(0.1 -0.1)">
       <use xlink:href="#SimHei-31"/>
      </g>
     </g>
    </g>
    <g id="ytick_3">
     <g id="line2d_21">
      <path d="M 34.35625 342.619428 
L 841.25375 342.619428 
" clip-path="url(#p19cafe7c9e)" style="fill: none; stroke-dasharray: 2.96,1.28; stroke-dashoffset: 0; stroke: #b0b0b0; stroke-opacity: 0.7; stroke-width: 0.8"/>
     </g>
     <g id="line2d_22">
      <g>
       <use xlink:href="#m51eeb4219e" x="34.35625" y="342.619428" style="stroke: #000000; stroke-width: 0.8"/>
      </g>
     </g>
     <g id="text_12">
      <!-- 2 -->
      <g transform="translate(22.35625 346.056928) scale(0.1 -0.1)">
       <use xlink:href="#SimHei-32"/>
      </g>
     </g>
    </g>
    <g id="ytick_4">
     <g id="line2d_23">
      <path d="M 34.35625 297.516527 
L 841.25375 297.516527 
" clip-path="url(#p19cafe7c9e)" style="fill: none; stroke-dasharray: 2.96,1.28; stroke-dashoffset: 0; stroke: #b0b0b0; stroke-opacity: 0.7; stroke-width: 0.8"/>
     </g>
     <g id="line2d_24">
      <g>
       <use xlink:href="#m51eeb4219e" x="34.35625" y="297.516527" style="stroke: #000000; stroke-width: 0.8"/>
      </g>
     </g>
     <g id="text_13">
      <!-- 3 -->
      <g transform="translate(22.35625 300.954027) scale(0.1 -0.1)">
       <defs>
        <path id="SimHei-33" d="M 250 1225 
L 700 1300 
Q 800 975 1025 762 
Q 1250 550 1587 562 
Q 1925 575 2125 837 
Q 2325 1100 2300 1437 
Q 2275 1775 2037 1962 
Q 1800 2150 1275 2225 
L 1275 2550 
Q 1800 2600 2037 2825 
Q 2275 3050 2250 3412 
Q 2225 3775 1925 3937 
Q 1625 4100 1287 3975 
Q 950 3850 750 3275 
L 300 3350 
Q 450 3800 712 4100 
Q 975 4400 1425 4450 
Q 1875 4500 2212 4337 
Q 2550 4175 2687 3837 
Q 2825 3500 2725 3100 
Q 2625 2700 2150 2400 
Q 2500 2250 2687 1950 
Q 2875 1650 2812 1162 
Q 2750 675 2375 375 
Q 2000 75 1525 87 
Q 1050 100 700 387 
Q 350 675 250 1225 
z
" transform="scale(0.015625)"/>
       </defs>
       <use xlink:href="#SimHei-33"/>
      </g>
     </g>
    </g>
    <g id="ytick_5">
     <g id="line2d_25">
      <path d="M 34.35625 252.413626 
L 841.25375 252.413626 
" clip-path="url(#p19cafe7c9e)" style="fill: none; stroke-dasharray: 2.96,1.28; stroke-dashoffset: 0; stroke: #b0b0b0; stroke-opacity: 0.7; stroke-width: 0.8"/>
     </g>
     <g id="line2d_26">
      <g>
       <use xlink:href="#m51eeb4219e" x="34.35625" y="252.413626" style="stroke: #000000; stroke-width: 0.8"/>
      </g>
     </g>
     <g id="text_14">
      <!-- 4 -->
      <g transform="translate(22.35625 255.851126) scale(0.1 -0.1)">
       <defs>
        <path id="SimHei-34" d="M 2000 1100 
L 75 1100 
L 75 1525 
L 2100 4450 
L 2475 4450 
L 2475 1525 
L 3075 1525 
L 3075 1100 
L 2475 1100 
L 2475 150 
L 2000 150 
L 2000 1100 
z
M 2000 1525 
L 2000 3500 
L 600 1525 
L 2000 1525 
z
" transform="scale(0.015625)"/>
       </defs>
       <use xlink:href="#SimHei-34"/>
      </g>
     </g>
    </g>
    <g id="ytick_6">
     <g id="line2d_27">
      <path d="M 34.35625 207.310725 
L 841.25375 207.310725 
" clip-path="url(#p19cafe7c9e)" style="fill: none; stroke-dasharray: 2.96,1.28; stroke-dashoffset: 0; stroke: #b0b0b0; stroke-opacity: 0.7; stroke-width: 0.8"/>
     </g>
     <g id="line2d_28">
      <g>
       <use xlink:href="#m51eeb4219e" x="34.35625" y="207.310725" style="stroke: #000000; stroke-width: 0.8"/>
      </g>
     </g>
     <g id="text_15">
      <!-- 5 -->
      <g transform="translate(22.35625 210.748225) scale(0.1 -0.1)">
       <use xlink:href="#SimHei-35"/>
      </g>
     </g>
    </g>
    <g id="ytick_7">
     <g id="line2d_29">
      <path d="M 34.35625 162.207824 
L 841.25375 162.207824 
" clip-path="url(#p19cafe7c9e)" style="fill: none; stroke-dasharray: 2.96,1.28; stroke-dashoffset: 0; stroke: #b0b0b0; stroke-opacity: 0.7; stroke-width: 0.8"/>
     </g>
     <g id="line2d_30">
      <g>
       <use xlink:href="#m51eeb4219e" x="34.35625" y="162.207824" style="stroke: #000000; stroke-width: 0.8"/>
      </g>
     </g>
     <g id="text_16">
      <!-- 6 -->
      <g transform="translate(22.35625 165.645324) scale(0.1 -0.1)">
       <defs>
        <path id="SimHei-36" d="M 250 1612 
Q 275 1975 387 2225 
Q 500 2475 725 2850 
L 1750 4450 
L 2325 4450 
L 1275 2800 
Q 1950 2975 2350 2750 
Q 2750 2525 2887 2237 
Q 3025 1950 3037 1612 
Q 3050 1275 2937 950 
Q 2825 625 2537 362 
Q 2250 100 1737 75 
Q 1225 50 862 262 
Q 500 475 362 862 
Q 225 1250 250 1612 
z
M 1025 787 
Q 1250 550 1625 525 
Q 2000 500 2250 775 
Q 2500 1050 2500 1575 
Q 2500 2100 2187 2300 
Q 1875 2500 1487 2450 
Q 1100 2400 925 2075 
Q 750 1750 775 1387 
Q 800 1025 1025 787 
z
" transform="scale(0.015625)"/>
       </defs>
       <use xlink:href="#SimHei-36"/>
      </g>
     </g>
    </g>
    <g id="ytick_8">
     <g id="line2d_31">
      <path d="M 34.35625 117.104922 
L 841.25375 117.104922 
" clip-path="url(#p19cafe7c9e)" style="fill: none; stroke-dasharray: 2.96,1.28; stroke-dashoffset: 0; stroke: #b0b0b0; stroke-opacity: 0.7; stroke-width: 0.8"/>
     </g>
     <g id="line2d_32">
      <g>
       <use xlink:href="#m51eeb4219e" x="34.35625" y="117.104922" style="stroke: #000000; stroke-width: 0.8"/>
      </g>
     </g>
     <g id="text_17">
      <!-- 7 -->
      <g transform="translate(22.35625 120.542422) scale(0.1 -0.1)">
       <use xlink:href="#SimHei-37"/>
      </g>
     </g>
    </g>
    <g id="ytick_9">
     <g id="line2d_33">
      <path d="M 34.35625 72.002021 
L 841.25375 72.002021 
" clip-path="url(#p19cafe7c9e)" style="fill: none; stroke-dasharray: 2.96,1.28; stroke-dashoffset: 0; stroke: #b0b0b0; stroke-opacity: 0.7; stroke-width: 0.8"/>
     </g>
     <g id="line2d_34">
      <g>
       <use xlink:href="#m51eeb4219e" x="34.35625" y="72.002021" style="stroke: #000000; stroke-width: 0.8"/>
      </g>
     </g>
     <g id="text_18">
      <!-- 8 -->
      <g transform="translate(22.35625 75.439521) scale(0.1 -0.1)">
       <defs>
        <path id="SimHei-38" d="M 175 1375 
Q 175 1675 325 1962 
Q 475 2250 825 2425 
Q 525 2600 425 2812 
Q 325 3025 312 3300 
Q 300 3575 387 3775 
Q 475 3975 650 4150 
Q 825 4325 1037 4387 
Q 1250 4450 1500 4450 
Q 1750 4450 1950 4400 
Q 2150 4350 2375 4187 
Q 2600 4025 2700 3725 
Q 2800 3425 2687 3025 
Q 2575 2625 2100 2400 
Q 2525 2275 2700 2012 
Q 2875 1750 2875 1375 
Q 2875 1000 2762 775 
Q 2650 550 2512 400 
Q 2375 250 2137 162 
Q 1900 75 1537 75 
Q 1175 75 912 162 
Q 650 250 475 425 
Q 300 600 237 837 
Q 175 1075 175 1375 
z
M 687 1400 
Q 675 1100 787 875 
Q 900 650 1200 587 
Q 1500 525 1825 600 
Q 2150 675 2275 950 
Q 2400 1225 2362 1500 
Q 2325 1775 2050 1962 
Q 1775 2150 1450 2125 
Q 1125 2100 912 1900 
Q 700 1700 687 1400 
z
M 775 3350 
Q 775 3100 950 2875 
Q 1125 2650 1500 2650 
Q 1875 2650 2062 2875 
Q 2250 3100 2237 3412 
Q 2225 3725 2012 3875 
Q 1800 4025 1437 4000 
Q 1075 3975 925 3787 
Q 775 3600 775 3350 
z
" transform="scale(0.015625)"/>
       </defs>
       <use xlink:href="#SimHei-38"/>
      </g>
     </g>
    </g>
    <g id="text_19">
     <!-- 切深 ap (mm) -->
     <g transform="translate(16.85625 288.413626) rotate(-90) scale(0.12 -0.12)">
      <defs>
       <path id="SimHei-5207" d="M 4200 125 
Q 4875 125 5037 187 
Q 5200 250 5225 525 
L 5400 4175 
L 4250 4175 
Q 4275 2875 4075 1987 
Q 3875 1100 3500 575 
Q 3125 50 2425 -575 
Q 2275 -375 1900 -250 
Q 2550 200 2937 675 
Q 3325 1150 3550 1925 
Q 3775 2700 3750 4175 
Q 3200 4175 2700 4150 
L 2700 4600 
Q 3175 4575 3625 4575 
L 5900 4575 
Q 5875 4200 5850 3700 
L 5700 325 
Q 5625 -250 5312 -337 
Q 5000 -425 4450 -525 
Q 4400 -200 4200 125 
z
M 1175 4275 
Q 1175 4625 1150 5000 
L 1650 5000 
Q 1625 4625 1625 4300 
L 1625 3275 
Q 2150 3350 2700 3425 
Q 2725 3150 2750 2975 
Q 2325 2925 1625 2850 
L 1625 1050 
Q 2325 1475 2650 1750 
Q 2725 1550 2875 1300 
Q 2325 975 1225 200 
Q 1075 500 925 650 
Q 1175 850 1175 1125 
L 1175 2775 
Q 675 2725 325 2675 
Q 300 2975 275 3150 
Q 650 3175 1175 3225 
L 1175 4275 
z
" transform="scale(0.015625)"/>
       <path id="SimHei-6df1" d="M 3675 -625 
Q 3700 -175 3700 25 
L 3700 1675 
Q 3350 975 2925 475 
Q 2500 -25 2150 -325 
Q 2000 -150 1700 0 
Q 2150 275 2600 800 
Q 3050 1325 3225 1825 
Q 2600 1825 2125 1800 
L 2125 2250 
Q 2525 2225 3700 2225 
Q 3700 2675 3675 3050 
L 4200 3050 
Q 4175 2675 4175 2225 
Q 5400 2225 6000 2250 
L 6000 1800 
Q 5600 1825 4575 1825 
Q 4750 1325 5175 862 
Q 5600 400 6125 200 
Q 5825 75 5725 -200 
Q 5200 100 4800 562 
Q 4400 1025 4175 1750 
L 4175 25 
Q 4175 -125 4225 -625 
L 3675 -625 
z
M 5875 4850 
Q 5850 4600 5850 4300 
Q 5850 4025 5875 3725 
L 5375 3725 
L 5375 4450 
L 2550 4450 
L 2550 3650 
L 2075 3650 
Q 2100 4025 2100 4275 
Q 2100 4525 2075 4850 
L 5875 4850 
z
M 1850 1525 
Q 1625 1150 1362 487 
Q 1100 -175 975 -525 
Q 725 -350 375 -250 
Q 625 50 950 712 
Q 1275 1375 1450 1850 
Q 1625 1650 1850 1525 
z
M 4625 4075 
Q 5100 3650 5700 2975 
Q 5450 2825 5300 2625 
Q 4775 3350 4250 3775 
Q 4450 3925 4625 4075 
z
M 3700 3750 
Q 3500 3650 3200 3312 
Q 2900 2975 2500 2600 
Q 2325 2775 2050 2900 
Q 2425 3125 2775 3487 
Q 3125 3850 3250 4050 
Q 3425 3900 3700 3750 
z
M 550 3650 
Q 1125 3300 1600 2900 
Q 1450 2750 1300 2500 
Q 850 2975 275 3275 
Q 400 3450 550 3650 
z
M 1000 5150 
Q 1450 4850 1950 4400 
Q 1775 4250 1625 4025 
Q 1175 4525 675 4850 
Q 850 4950 1000 5150 
z
" transform="scale(0.015625)"/>
       <path id="SimHei-61" d="M 2875 125 
L 2275 125 
Q 2225 175 2200 262 
Q 2175 350 2175 475 
Q 2000 275 1750 175 
Q 1500 75 1225 75 
Q 825 75 550 275 
Q 275 475 275 850 
Q 275 1225 525 1450 
Q 775 1675 1300 1750 
Q 1650 1800 1912 1875 
Q 2175 1950 2175 2075 
Q 2175 2225 2062 2375 
Q 1950 2525 1575 2525 
Q 1275 2525 1137 2412 
Q 1000 2300 950 2100 
L 400 2100 
Q 450 2500 762 2737 
Q 1075 2975 1575 2975 
Q 2125 2975 2400 2725 
Q 2675 2475 2675 2025 
L 2675 650 
Q 2675 500 2725 375 
Q 2775 250 2875 125 
z
M 2175 1050 
L 2175 1550 
Q 2025 1500 1887 1462 
Q 1750 1425 1425 1375 
Q 1050 1325 937 1200 
Q 825 1075 825 900 
Q 825 750 937 637 
Q 1050 525 1275 525 
Q 1500 525 1762 650 
Q 2025 775 2175 1050 
z
" transform="scale(0.015625)"/>
       <path id="SimHei-70" d="M 2825 1525 
Q 2825 800 2475 425 
Q 2125 50 1625 50 
Q 1350 50 1150 162 
Q 950 275 800 500 
L 800 -800 
L 300 -800 
L 300 2925 
L 800 2925 
L 800 2550 
Q 950 2775 1150 2875 
Q 1350 2975 1625 2975 
Q 2125 2975 2475 2612 
Q 2825 2250 2825 1525 
z
M 2275 1525 
Q 2275 2000 2087 2262 
Q 1900 2525 1525 2525 
Q 1225 2525 1012 2262 
Q 800 2000 800 1525 
Q 800 1050 1012 775 
Q 1225 500 1525 500 
Q 1900 500 2087 775 
Q 2275 1050 2275 1525 
z
" transform="scale(0.015625)"/>
      </defs>
      <use xlink:href="#SimHei-5207"/>
      <use xlink:href="#SimHei-6df1" x="100"/>
      <use xlink:href="#SimHei-20" x="200"/>
      <use xlink:href="#SimHei-61" x="250"/>
      <use xlink:href="#SimHei-70" x="300"/>
      <use xlink:href="#SimHei-20" x="350"/>
      <use xlink:href="#SimHei-28" x="400"/>
      <use xlink:href="#SimHei-6d" x="450"/>
      <use xlink:href="#SimHei-6d" x="500"/>
      <use xlink:href="#SimHei-29" x="550"/>
     </g>
    </g>
   </g>
   <g id="line2d_35">
    <path d="M 71.033409 432.825231 
L 246.186419 432.825231 
L 246.186419 72.002021 
L 247.156473 72.002021 
L 250.326633 72.002021 
L 250.326633 432.825231 
L 250.453318 72.002021 
L 255.790055 72.002021 
L 255.790055 432.825231 
L 255.969631 72.002021 
L 258.269874 72.002021 
L 258.269874 432.825231 
L 259.239906 432.825231 
L 275.357001 432.825231 
L 275.357001 410.27378 
L 276.327055 410.27378 
L 279.497214 410.27378 
L 279.497214 432.825231 
L 279.6239 410.27378 
L 284.960637 410.27378 
L 284.960637 432.825231 
L 285.140212 410.27378 
L 287.440455 410.273961 
L 287.440455 432.825231 
L 288.410488 432.825231 
L 304.931134 432.825231 
L 304.931134 410.27378 
L 305.901187 410.27378 
L 309.071347 410.27378 
L 309.071347 432.825231 
L 309.198033 410.27378 
L 314.534769 410.27378 
L 314.534769 432.825231 
L 314.714345 410.27378 
L 317.014588 410.27378 
L 317.014588 432.825231 
L 317.984621 432.825231 
L 334.908818 432.825231 
L 334.908818 410.27378 
L 335.878872 410.27378 
L 339.049032 410.27378 
L 339.049032 432.825231 
L 339.175717 410.27378 
L 344.512454 410.27378 
L 344.512454 432.825231 
L 344.69203 410.27378 
L 346.992273 410.2736 
L 346.992273 432.825231 
L 347.962305 432.825231 
L 365.290054 432.825231 
L 365.290054 410.27378 
L 366.260107 410.27378 
L 369.430267 410.27378 
L 369.430267 432.825231 
L 369.556953 410.27378 
L 374.893689 410.27378 
L 374.893689 432.825231 
L 375.073265 410.27378 
L 377.373508 410.273961 
L 377.373508 432.825231 
L 378.343541 432.825231 
L 396.074841 432.825231 
L 396.074841 410.27378 
L 397.044895 410.27378 
L 400.215054 410.27378 
L 400.215054 432.825231 
L 400.34174 410.27378 
L 405.678477 410.27378 
L 405.678477 432.825231 
L 405.858052 410.27378 
L 408.158295 410.27378 
L 408.158295 432.825231 
L 409.128328 432.825231 
L 432.842458 432.825231 
L 433.774536 404.816374 
L 433.849614 404.816374 
L 434.842905 373.920842 
L 434.920905 373.920842 
L 435.632391 381.816105 
L 435.215243 366.75805 
L 435.859067 376.771345 
L 435.934097 376.771345 
L 436.159759 369.585551 
L 436.370082 385.861384 
L 436.921919 370.831293 
L 437.155846 369.882779 
L 437.867227 381.860756 
L 437.450079 366.795034 
L 438.093903 376.816448 
L 438.169038 376.816448 
L 438.394595 369.601337 
L 438.604918 385.906487 
L 439.156754 370.876396 
L 439.390681 369.928333 
L 440.102063 381.860756 
L 439.685019 366.74948 
L 440.328843 376.771345 
L 440.403873 376.771345 
L 440.629535 369.556234 
L 440.839753 385.906036 
L 441.391589 370.876396 
L 441.625621 369.927882 
L 442.337003 381.828282 
L 441.919855 366.795034 
L 442.563679 376.814644 
L 442.638709 376.814644 
L 442.86437 369.601337 
L 443.074694 385.861384 
L 443.626529 370.831293 
L 443.860456 369.917508 
L 444.571838 381.861207 
L 444.154794 366.74948 
L 444.798514 376.816448 
L 444.873649 376.816448 
L 445.099206 369.601337 
L 445.84799 402.711151 
L 445.878124 402.711151 
L 446.76873 431.470132 
L 446.863897 72.002021 
L 446.895415 72.002021 
L 446.926933 432.825231 
L 447.51467 432.825231 
L 448.229495 432.825231 
L 448.937136 410.27378 
L 449.206448 410.27378 
L 449.655335 410.27378 
L 450.58459 432.825231 
L 450.648236 432.825231 
L 450.679757 432.825231 
L 450.711553 423.096264 
L 451.172327 432.825231 
L 451.887152 432.825231 
L 452.594793 410.27378 
L 452.864105 410.27378 
L 453.312992 410.27378 
L 454.242247 432.825231 
L 454.179211 410.2736 
L 454.305893 432.825231 
L 454.337414 432.825231 
L 454.36921 423.096264 
L 454.829984 432.825231 
L 455.544809 432.825231 
L 456.25245 410.27378 
L 456.521762 410.27378 
L 456.970649 410.27378 
L 457.899904 432.825231 
L 457.96355 432.825231 
L 457.995071 432.825231 
L 458.026867 423.096264 
L 458.487641 432.825231 
L 459.202466 432.825231 
L 459.910107 410.27378 
L 460.179419 410.27378 
L 460.628306 410.27378 
L 461.557561 432.825231 
L 461.621207 432.825231 
L 461.652728 432.825231 
L 461.684524 423.096084 
L 462.145298 432.825231 
L 462.860123 432.825231 
L 463.567764 410.27378 
L 463.837076 410.27378 
L 464.285963 410.27378 
L 465.215218 432.825231 
L 465.278864 432.825231 
L 465.310385 432.825231 
L 465.342181 423.096264 
L 465.802955 432.825231 
L 522.573873 431.923285 
L 523.367762 407.657857 
L 523.542438 409.659208 
L 523.626077 409.844851 
L 523.877978 418.63473 
L 524.290697 406.124358 
L 524.600243 408.123454 
L 524.651527 408.123454 
L 525.213633 406.124358 
L 524.800811 418.679969 
L 525.625487 407.670441 
L 525.676651 407.670441 
L 526.136571 406.124178 
L 526.646682 418.679969 
L 526.685155 418.679969 
L 527.059505 406.124539 
L 527.658778 408.402371 
L 527.811019 409.044095 
L 528.492552 418.655748 
L 527.982441 406.124178 
L 528.772009 407.64843 
L 528.816601 407.64843 
L 529.415486 418.63455 
L 528.90527 406.169416 
L 529.783862 410.598972 
L 529.828205 410.598972 
L 529.828205 406.124178 
L 530.338319 418.679833 
L 530.789625 410.515847 
L 530.880186 411.160548 
L 531.261256 418.679833 
L 531.674078 406.124178 
L 531.848754 409.659028 
L 531.932392 409.89009 
L 532.184193 418.679833 
L 532.597016 406.124178 
L 532.906461 408.123454 
L 532.957746 408.123454 
L 533.519952 406.124539 
L 533.107129 418.655748 
L 533.931807 407.668366 
L 533.982971 407.668366 
L 534.442887 406.124178 
L 534.972184 420.79331 
L 534.9847 420.79331 
L 535.021599 410.431911 
L 535.181525 432.825231 
L 535.940252 432.825231 
L 536.075754 432.013482 
L 536.247176 410.27378 
L 536.985814 432.825231 
L 537.072313 422.347511 
L 537.084633 422.347511 
L 537.084633 432.825231 
L 538.051465 410.27378 
L 538.089845 410.27378 
L 538.790103 432.825231 
L 539.089775 426.076393 
L 539.115917 427.067124 
L 539.115917 432.825231 
L 539.855754 410.27378 
L 540.113965 418.121685 
L 540.165197 418.121685 
L 540.434466 410.4228 
L 540.594392 432.825231 
L 541.154973 430.943479 
L 541.168099 430.943479 
L 541.168099 432.825231 
L 541.660043 410.27378 
L 542.161194 411.085723 
L 542.170155 411.085723 
L 542.39868 432.825231 
L 542.238755 410.4228 
L 543.157408 432.825231 
L 543.29291 432.013482 
L 543.464332 410.27378 
L 544.202969 432.825231 
L 544.289469 422.347511 
L 544.301789 422.347511 
L 544.301789 432.825231 
L 544.326415 420.701977 
L 544.961697 432.825231 
L 566.389902 432.825231 
L 567.247655 408.157687 
L 567.446075 408.157687 
L 568.073477 396.76289 
L 568.271508 421.408784 
L 568.435164 412.171349 
L 568.483168 412.171349 
L 568.700773 396.554199 
L 568.899193 421.443514 
L 569.328071 396.807993 
L 569.526206 396.807993 
L 570.153894 421.443694 
L 569.955474 396.553838 
L 570.38474 408.183667 
L 570.58277 408.183667 
L 571.210173 396.553523 
L 570.7808 421.453166 
L 571.57225 411.916383 
L 571.62015 411.916383 
L 572.035501 421.453166 
L 572.464767 396.598941 
L 572.663292 396.598941 
L 573.290199 421.408604 
L 573.521045 408.157687 
L 573.719465 408.157687 
L 573.719465 396.554019 
L 573.917885 421.443694 
L 574.708452 412.171349 
L 574.756456 412.171349 
L 574.974166 396.553703 
L 575.172586 421.443694 
L 575.601462 396.764785 
L 575.799492 396.764785 
L 575.799492 421.453166 
L 576.228864 396.554019 
L 576.658132 408.152365 
L 576.856162 408.152365 
L 577.483458 396.598761 
L 577.054193 421.453481 
L 577.845538 411.917059 
L 577.893542 411.917059 
L 578.308892 421.408784 
L 578.738159 396.553703 
L 578.929846 396.553703 
L 579.102289 432.825231 
L 579.466182 72.002021 
L 579.835854 72.002021 
L 583.664907 72.002021 
L 583.664907 432.825231 
L 584.660746 426.291128 
L 584.709998 425.307524 
L 585.172352 410.27378 
L 584.808458 432.825231 
L 585.665231 410.27378 
L 589.371077 410.27378 
L 589.371077 432.825231 
L 590.366915 426.291128 
L 590.416167 425.307524 
L 590.878521 410.27378 
L 590.514627 432.825231 
L 591.3714 410.27378 
L 595.077246 410.27378 
L 595.077246 432.825231 
L 596.073084 426.291128 
L 596.122337 425.30766 
L 596.58469 410.27378 
L 596.220796 432.825231 
L 597.07757 410.27378 
L 600.783415 410.27378 
L 600.783415 432.825231 
L 601.779252 426.290948 
L 601.828504 425.307524 
L 602.290858 410.27378 
L 601.926964 432.825231 
L 602.783737 410.27378 
L 606.489582 410.27378 
L 606.489582 432.825231 
L 607.485421 426.290948 
L 607.534673 425.30766 
L 607.997027 410.27378 
L 607.633133 432.825231 
L 608.489906 410.27378 
L 617.961092 410.27378 
L 617.961092 432.825231 
L 624.369758 432.825231 
L 625.189514 409.758976 
L 625.407118 409.758976 
L 626.034706 397.68096 
L 626.25231 420.51701 
L 626.396579 412.498075 
L 626.444583 412.498075 
L 626.662188 396.8176 
L 626.879896 420.261863 
L 627.28967 397.726243 
L 627.507379 397.726243 
L 627.507379 420.515115 
L 627.917257 396.8176 
L 628.327134 409.216343 
L 628.544738 409.216343 
L 629.172326 396.81539 
L 628.762447 420.514755 
L 629.534086 412.192548 
L 629.5821 412.192548 
L 630.017413 420.516829 
L 630.42729 396.860628 
L 630.644999 396.860628 
L 631.272481 420.51701 
L 631.464754 409.759156 
L 631.682359 409.759156 
L 631.682359 396.817781 
L 632.52755 420.514935 
L 632.671715 412.498436 
L 632.719719 412.498436 
L 632.937428 396.817781 
L 633.155032 420.261863 
L 633.56491 397.689394 
L 633.782619 397.689394 
L 633.782619 420.515115 
L 634.192497 396.815571 
L 634.602271 409.257792 
L 634.81998 409.257792 
L 635.447461 396.860448 
L 635.037584 420.51701 
L 635.809222 412.202335 
L 635.857339 412.202335 
L 636.292652 420.516829 
L 636.702531 396.8176 
L 636.894217 396.8176 
L 636.955927 432.825231 
L 637.430957 72.002021 
L 637.800629 72.002021 
L 638.047116 72.002021 
L 638.047116 432.825231 
L 639.032903 72.002021 
L 641.629981 72.002021 
L 641.629981 432.825231 
L 642.626394 426.330007 
L 642.663373 425.673444 
L 642.663373 432.825231 
L 643.138403 410.27378 
L 643.631283 410.27378 
L 643.754562 410.27378 
L 643.754562 432.825231 
L 644.740349 410.27378 
L 647.337427 410.27378 
L 647.337427 432.825231 
L 648.33384 426.330007 
L 648.370819 425.673309 
L 648.370819 432.825231 
L 648.845849 410.27378 
L 649.338729 410.27378 
L 649.462008 410.27378 
L 649.462008 432.825231 
L 650.447795 410.27378 
L 653.044873 410.27378 
L 653.044873 432.825231 
L 654.041286 426.330007 
L 654.078265 425.673309 
L 654.078265 432.825231 
L 654.553296 410.27378 
L 655.046175 410.27378 
L 655.169454 410.27378 
L 655.169454 432.825231 
L 656.155242 410.27378 
L 658.752319 410.27378 
L 658.752319 432.825231 
L 659.748732 426.330007 
L 659.785711 425.673444 
L 659.785711 432.825231 
L 660.260742 410.27378 
L 660.753621 410.27378 
L 660.876901 410.27378 
L 660.876901 432.825231 
L 661.862688 410.27378 
L 664.459766 410.27378 
L 664.459766 432.825231 
L 665.456178 426.330007 
L 665.493157 425.673444 
L 665.493157 432.825231 
L 665.968188 410.27378 
L 666.461067 410.27378 
L 666.584347 410.27378 
L 666.584347 432.825231 
L 667.570134 410.27378 
L 675.932253 410.27378 
L 675.932253 432.825231 
L 685.541031 432.825231 
L 686.399158 408.091296 
L 686.597578 408.091296 
L 687.225166 396.708181 
L 687.423586 421.404635 
L 687.586926 412.200802 
L 687.635043 412.200802 
L 687.852648 396.551628 
L 688.051068 421.446084 
L 688.480133 396.753599 
L 688.678657 396.753599 
L 689.306143 421.445949 
L 689.107722 396.551268 
L 689.536785 408.213074 
L 689.735205 408.213074 
L 690.362794 396.551268 
L 689.933625 421.449197 
L 690.724668 411.946647 
L 690.772568 411.946647 
L 691.188699 421.449197 
L 691.617761 396.59637 
L 691.816181 396.59637 
L 691.816181 421.446084 
L 692.674413 408.052237 
L 692.872833 408.052237 
L 692.872833 396.551268 
L 693.071253 421.446084 
L 693.862079 412.200802 
L 693.910197 412.200802 
L 694.127907 396.551448 
L 694.326328 421.446084 
L 694.75539 396.709894 
L 694.95381 396.709894 
L 694.95381 421.449377 
L 695.382979 396.551448 
L 695.812044 408.184027 
L 696.010464 408.184027 
L 696.637946 396.596506 
L 696.208884 421.449377 
L 696.999822 411.948225 
L 697.047826 411.948225 
L 697.463956 421.404635 
L 697.893021 396.551087 
L 698.084707 396.551087 
L 698.25715 432.825231 
L 698.621447 72.002021 
L 698.991119 72.002021 
L 702.820172 72.002021 
L 702.820172 432.825231 
L 703.816197 426.354633 
L 703.86545 425.391641 
L 704.328207 410.27378 
L 703.963909 432.825231 
L 704.821086 410.27378 
L 708.526932 410.27378 
L 708.526932 432.825231 
L 709.522957 426.354633 
L 709.572209 425.391822 
L 710.034966 410.27378 
L 709.670669 432.825231 
L 710.527846 410.27378 
L 714.233691 410.27378 
L 714.233691 432.825231 
L 715.229717 426.354453 
L 715.278969 425.391822 
L 715.741726 410.27378 
L 715.377429 432.825231 
L 716.234606 410.27378 
L 719.940451 410.27378 
L 719.940451 432.825231 
L 720.936476 426.354633 
L 720.985729 425.391641 
L 721.448486 410.27378 
L 721.084188 432.825231 
L 721.941365 410.27378 
L 725.647211 410.27378 
L 725.647211 432.825231 
L 726.643236 426.354633 
L 726.692488 425.391822 
L 727.155245 410.27378 
L 726.790948 432.825231 
L 727.648125 410.27378 
L 737.119311 410.27378 
L 737.119311 432.825231 
L 743.508018 432.825231 
L 744.347367 409.933118 
L 744.366551 432.283775 
L 744.564582 432.283775 
L 745.191984 396.965583 
L 744.993459 432.283951 
L 745.554061 411.920171 
L 745.602065 411.920171 
L 745.621249 432.284122 
L 746.446578 397.010821 
L 746.645102 397.010821 
L 747.502856 432.284122 
L 747.701276 432.284122 
L 747.701276 396.969191 
L 748.690367 412.69098 
L 748.738267 412.69098 
L 748.955978 396.965583 
L 749.385243 432.284122 
L 749.583273 398.432329 
L 749.781409 398.432329 
L 750.012151 432.284122 
L 750.210676 396.965583 
L 750.639941 432.283775 
L 750.837971 432.283775 
L 751.465269 397.010821 
L 751.266849 432.284122 
L 751.827348 411.920171 
L 751.875352 411.920171 
L 752.521548 432.283775 
L 752.719968 396.969191 
L 752.918388 396.969191 
L 753.149236 432.284122 
L 753.776249 432.23887 
L 753.974669 432.23887 
L 753.974669 396.965763 
L 754.403934 432.283951 
L 754.963654 412.717275 
L 755.011658 412.717275 
L 755.229368 396.965763 
L 755.030843 432.284122 
L 755.856666 398.38691 
L 756.047949 398.38691 
L 756.158878 432.825231 
L 756.584689 72.002021 
L 756.954361 72.002021 
L 757.324218 72.002021 
L 757.324218 432.825231 
L 758.309797 72.002021 
L 760.783713 72.002021 
L 760.783713 432.825231 
L 761.779537 426.392474 
L 761.82879 425.416944 
L 762.291547 410.27378 
L 761.865736 432.825231 
L 762.784426 410.27378 
L 763.031076 410.27378 
L 763.031076 432.825231 
L 764.016655 410.27378 
L 766.490571 410.27378 
L 766.490571 432.825231 
L 767.486395 426.392655 
L 767.535648 425.416944 
L 767.998405 410.27378 
L 767.572594 432.825231 
L 768.491284 410.27378 
L 768.737934 410.27378 
L 768.737934 432.825231 
L 769.723513 410.27378 
L 772.197429 410.27378 
L 772.197429 432.825231 
L 773.193254 426.392474 
L 773.242506 425.416944 
L 773.705263 410.27378 
L 773.279452 432.825231 
L 774.198142 410.27378 
L 774.444792 410.27378 
L 774.444792 432.825231 
L 775.430372 410.27378 
L 777.904287 410.27378 
L 777.904287 432.825231 
L 778.900112 426.392474 
L 778.949364 425.416944 
L 779.412121 410.27378 
L 778.98631 432.825231 
L 779.905 410.27378 
L 780.151651 410.27378 
L 780.151651 432.825231 
L 781.13723 410.27378 
L 783.611145 410.27378 
L 783.611145 432.825231 
L 784.60697 426.392474 
L 784.656222 425.416944 
L 785.118979 410.27378 
L 784.693168 432.825231 
L 785.611858 410.27378 
L 785.858509 410.27378 
L 785.858509 432.825231 
L 786.844088 410.27378 
L 795.083044 410.27378 
L 795.083044 432.825231 
L 804.576591 432.825231 
L 804.576591 432.825231 
" clip-path="url(#p19cafe7c9e)" style="fill: none; stroke: #000000; stroke-width: 0.5; stroke-linecap: square"/>
   </g>
   <g id="patch_3">
    <path d="M 34.35625 450.866391 
L 34.35625 53.960861 
" style="fill: none; stroke: #000000; stroke-width: 0.8; stroke-linejoin: miter; stroke-linecap: square"/>
   </g>
   <g id="patch_4">
    <path d="M 841.25375 450.866391 
L 841.25375 53.960861 
" style="fill: none; stroke: #000000; stroke-width: 0.8; stroke-linejoin: miter; stroke-linecap: square"/>
   </g>
   <g id="patch_5">
    <path d="M 34.35625 450.866391 
L 841.25375 450.866391 
" style="fill: none; stroke: #000000; stroke-width: 0.8; stroke-linejoin: miter; stroke-linecap: square"/>
   </g>
   <g id="patch_6">
    <path d="M 34.35625 53.960861 
L 841.25375 53.960861 
" style="fill: none; stroke: #000000; stroke-width: 0.8; stroke-linejoin: miter; stroke-linecap: square"/>
   </g>
   <g id="text_20">
    <!-- 切深变化 -->
    <g transform="translate(409.805 18.465625) scale(0.14 -0.14)">
     <defs>
      <path id="SimHei-53d8" d="M 5200 1975 
Q 4950 1600 4537 1137 
Q 4125 675 3675 375 
Q 3925 225 4600 87 
Q 5275 -50 6000 -75 
Q 5700 -400 5650 -625 
Q 4850 -525 4212 -312 
Q 3575 -100 3225 125 
Q 2800 -125 2150 -325 
Q 1500 -525 700 -675 
Q 600 -425 400 -175 
Q 950 -150 1687 12 
Q 2425 175 2825 375 
Q 2275 775 1675 1575 
Q 1350 1575 1000 1550 
L 1000 2000 
Q 1450 1975 2075 1975 
L 5200 1975 
z
M 3225 5275 
Q 3400 4900 3550 4475 
L 4675 4475 
Q 5400 4475 5975 4500 
L 5975 4025 
Q 5375 4050 4725 4050 
L 4125 4050 
L 4125 2950 
Q 4125 2550 4150 2150 
L 3600 2150 
Q 3625 2550 3625 2950 
L 3625 4050 
L 2750 4050 
L 2750 2950 
Q 2750 2675 2775 2150 
L 2225 2150 
Q 2250 2675 2250 2950 
L 2250 4050 
L 1700 4050 
Q 975 4050 425 4025 
L 425 4500 
Q 950 4475 1700 4475 
L 2975 4475 
Q 2925 4675 2700 5125 
Q 2950 5150 3225 5275 
z
M 2200 1575 
Q 2650 975 3250 600 
Q 3850 1000 4275 1575 
L 2200 1575 
z
M 4850 3750 
Q 5375 3275 5950 2675 
Q 5750 2525 5500 2300 
Q 5075 2800 4450 3400 
Q 4675 3575 4850 3750 
z
M 1825 3500 
Q 1700 3375 1425 3025 
Q 1150 2675 825 2300 
Q 575 2475 375 2600 
Q 975 3150 1300 3825 
Q 1525 3650 1825 3500 
z
" transform="scale(0.015625)"/>
      <path id="SimHei-5316" d="M 3925 5025 
Q 3900 4900 3900 4400 
L 3900 2625 
Q 4375 3025 4775 3450 
Q 5175 3875 5400 4300 
Q 5600 4100 5900 3925 
Q 5700 3700 5225 3212 
Q 4750 2725 4487 2512 
Q 4225 2300 3900 2025 
L 3900 450 
Q 3900 50 4225 50 
L 5200 50 
Q 5400 75 5462 262 
Q 5525 450 5575 850 
Q 5800 650 6150 600 
Q 6000 -100 5825 -250 
Q 5650 -400 5350 -400 
L 3950 -400 
Q 3425 -400 3400 200 
L 3400 1675 
Q 3225 1525 2962 1350 
Q 2700 1175 2375 975 
Q 2225 1225 2025 1400 
Q 2350 1550 2737 1787 
Q 3125 2025 3400 2250 
L 3400 4500 
Q 3400 4800 3375 5025 
L 3925 5025 
z
M 2400 4850 
Q 2175 4550 2075 4337 
Q 1975 4125 1825 3775 
L 1825 675 
Q 1825 -75 1850 -550 
L 1325 -550 
Q 1350 -125 1350 650 
L 1350 3050 
Q 1125 2725 962 2525 
Q 800 2325 675 2175 
Q 500 2375 275 2525 
Q 625 2850 875 3212 
Q 1125 3575 1312 3912 
Q 1500 4250 1625 4575 
Q 1750 4900 1825 5100 
Q 1975 4975 2400 4850 
z
" transform="scale(0.015625)"/>
     </defs>
     <use xlink:href="#SimHei-5207"/>
     <use xlink:href="#SimHei-6df1" x="100"/>
     <use xlink:href="#SimHei-53d8" x="200"/>
     <use xlink:href="#SimHei-5316" x="300"/>
    </g>
   </g>
  </g>
  <g id="axes_2">
   <g id="matplotlib.axis_3">
    <g id="xtick_9">
     <g id="line2d_36">
      <defs>
       <path id="m9c268732db" d="M 0 0 
L 0 -3.5 
" style="stroke: #000000; stroke-width: 0.8"/>
      </defs>
      <g>
       <use xlink:href="#m9c268732db" x="71.033409" y="53.960861" style="stroke: #000000; stroke-width: 0.8"/>
      </g>
     </g>
     <g id="text_21">
      <!-- N0 -->
      <g transform="translate(74.922496 46.253754) rotate(-45) scale(0.08 -0.08)">
       <defs>
        <path id="SimHei-4e" d="M 2850 125 
L 2225 125 
L 850 3225 
L 825 3225 
L 825 125 
L 250 125 
L 250 4400 
L 875 4400 
L 2250 1300 
L 2275 1300 
L 2275 4400 
L 2850 4400 
L 2850 125 
z
" transform="scale(0.015625)"/>
       </defs>
       <use xlink:href="#SimHei-4e"/>
       <use xlink:href="#SimHei-30" x="50"/>
      </g>
     </g>
    </g>
    <g id="xtick_10">
     <g id="line2d_37">
      <g>
       <use xlink:href="#m9c268732db" x="339.080553" y="53.960861" style="stroke: #000000; stroke-width: 0.8"/>
      </g>
     </g>
     <g id="text_22">
      <!-- N0 -->
      <g transform="translate(342.96964 46.253754) rotate(-45) scale(0.08 -0.08)">
       <use xlink:href="#SimHei-4e"/>
       <use xlink:href="#SimHei-30" x="50"/>
      </g>
     </g>
    </g>
    <g id="xtick_11">
     <g id="line2d_38">
      <g>
       <use xlink:href="#m9c268732db" x="437.533642" y="53.960861" style="stroke: #000000; stroke-width: 0.8"/>
      </g>
     </g>
     <g id="text_23">
      <!-- N0 -->
      <g transform="translate(441.42273 46.253754) rotate(-45) scale(0.08 -0.08)">
       <use xlink:href="#SimHei-4e"/>
       <use xlink:href="#SimHei-30" x="50"/>
      </g>
     </g>
    </g>
    <g id="xtick_12">
     <g id="line2d_39">
      <g>
       <use xlink:href="#m9c268732db" x="454.242247" y="53.960861" style="stroke: #000000; stroke-width: 0.8"/>
      </g>
     </g>
     <g id="text_24">
      <!-- N0 -->
      <g transform="translate(458.131335 46.253754) rotate(-45) scale(0.08 -0.08)">
       <use xlink:href="#SimHei-4e"/>
       <use xlink:href="#SimHei-30" x="50"/>
      </g>
     </g>
    </g>
    <g id="xtick_13">
     <g id="line2d_40">
      <g>
       <use xlink:href="#m9c268732db" x="523.234501" y="53.960861" style="stroke: #000000; stroke-width: 0.8"/>
      </g>
     </g>
     <g id="text_25">
      <!-- N0 -->
      <g transform="translate(527.123588 46.253754) rotate(-45) scale(0.08 -0.08)">
       <use xlink:href="#SimHei-4e"/>
       <use xlink:href="#SimHei-30" x="50"/>
      </g>
     </g>
    </g>
    <g id="xtick_14">
     <g id="line2d_41">
      <g>
       <use xlink:href="#m9c268732db" x="535.703044" y="53.960861" style="stroke: #000000; stroke-width: 0.8"/>
      </g>
     </g>
     <g id="text_26">
      <!-- N0 -->
      <g transform="translate(539.592132 46.253754) rotate(-45) scale(0.08 -0.08)">
       <use xlink:href="#SimHei-4e"/>
       <use xlink:href="#SimHei-30" x="50"/>
      </g>
     </g>
    </g>
    <g id="xtick_15">
     <g id="line2d_42">
      <g>
       <use xlink:href="#m9c268732db" x="542.189339" y="53.960861" style="stroke: #000000; stroke-width: 0.8"/>
      </g>
     </g>
     <g id="text_27">
      <!-- N0 -->
      <g transform="translate(546.078427 46.253754) rotate(-45) scale(0.08 -0.08)">
       <use xlink:href="#SimHei-4e"/>
       <use xlink:href="#SimHei-30" x="50"/>
      </g>
     </g>
    </g>
    <g id="xtick_16">
     <g id="line2d_43">
      <g>
       <use xlink:href="#m9c268732db" x="576.542707" y="53.960861" style="stroke: #000000; stroke-width: 0.8"/>
      </g>
     </g>
     <g id="text_28">
      <!-- N0 -->
      <g transform="translate(580.431794 46.253754) rotate(-45) scale(0.08 -0.08)">
       <use xlink:href="#SimHei-4e"/>
       <use xlink:href="#SimHei-30" x="50"/>
      </g>
     </g>
    </g>
    <g id="xtick_17">
     <g id="line2d_44">
      <g>
       <use xlink:href="#m9c268732db" x="624.513914" y="53.960861" style="stroke: #000000; stroke-width: 0.8"/>
      </g>
     </g>
     <g id="text_29">
      <!-- N0 -->
      <g transform="translate(628.403001 46.253754) rotate(-45) scale(0.08 -0.08)">
       <use xlink:href="#SimHei-4e"/>
       <use xlink:href="#SimHei-30" x="50"/>
      </g>
     </g>
    </g>
    <g id="xtick_18">
     <g id="line2d_45">
      <g>
       <use xlink:href="#m9c268732db" x="660.876901" y="53.960861" style="stroke: #000000; stroke-width: 0.8"/>
      </g>
     </g>
     <g id="text_30">
      <!-- N0 -->
      <g transform="translate(664.765988 46.253754) rotate(-45) scale(0.08 -0.08)">
       <use xlink:href="#SimHei-4e"/>
       <use xlink:href="#SimHei-30" x="50"/>
      </g>
     </g>
    </g>
    <g id="xtick_19">
     <g id="line2d_46">
      <g>
       <use xlink:href="#m9c268732db" x="706.42302" y="53.960861" style="stroke: #000000; stroke-width: 0.8"/>
      </g>
     </g>
     <g id="text_31">
      <!-- N0 -->
      <g transform="translate(710.312107 46.253754) rotate(-45) scale(0.08 -0.08)">
       <use xlink:href="#SimHei-4e"/>
       <use xlink:href="#SimHei-30" x="50"/>
      </g>
     </g>
    </g>
    <g id="xtick_20">
     <g id="line2d_47">
      <g>
       <use xlink:href="#m9c268732db" x="752.092672" y="53.960861" style="stroke: #000000; stroke-width: 0.8"/>
      </g>
     </g>
     <g id="text_32">
      <!-- N0 -->
      <g transform="translate(755.98176 46.253754) rotate(-45) scale(0.08 -0.08)">
       <use xlink:href="#SimHei-4e"/>
       <use xlink:href="#SimHei-30" x="50"/>
      </g>
     </g>
    </g>
    <g id="xtick_21">
     <g id="line2d_48">
      <g>
       <use xlink:href="#m9c268732db" x="787.213792" y="53.960861" style="stroke: #000000; stroke-width: 0.8"/>
      </g>
     </g>
     <g id="text_33">
      <!-- N0 -->
      <g transform="translate(791.102879 46.253754) rotate(-45) scale(0.08 -0.08)">
       <use xlink:href="#SimHei-4e"/>
       <use xlink:href="#SimHei-30" x="50"/>
      </g>
     </g>
    </g>
    <g id="text_34">
     <!-- 指令行号 N -->
     <g transform="translate(412.805 32.707812) scale(0.1 -0.1)">
      <defs>
       <path id="SimHei-6307" d="M 5625 2225 
Q 5600 1925 5600 1350 
L 5600 300 
Q 5600 -225 5625 -525 
L 5125 -525 
L 5125 -125 
L 3300 -125 
L 3300 -625 
L 2800 -625 
Q 2825 -300 2825 300 
L 2825 1350 
Q 2825 1925 2800 2225 
L 5625 2225 
z
M 500 25 
Q 1075 -25 1175 37 
Q 1275 100 1275 275 
L 1275 1675 
Q 1050 1600 925 1537 
Q 800 1475 475 1275 
Q 400 1525 225 1800 
Q 625 1900 825 1975 
Q 1025 2050 1275 2125 
L 1275 3300 
L 1100 3300 
Q 775 3300 450 3275 
L 450 3725 
Q 750 3700 1100 3700 
L 1275 3700 
L 1275 4450 
Q 1275 4800 1250 5125 
L 1775 5125 
Q 1750 4850 1750 4450 
L 1750 3700 
Q 2075 3700 2425 3725 
L 2425 3275 
Q 2050 3300 1750 3300 
L 1750 2325 
Q 1850 2350 2025 2425 
L 2375 2575 
Q 2350 2300 2375 2100 
Q 2225 2050 2062 1987 
Q 1900 1925 1750 1850 
L 1750 100 
Q 1725 -200 1575 -337 
Q 1425 -475 675 -525 
Q 625 -250 500 25 
z
M 3325 5025 
Q 3300 4675 3300 4125 
Q 4125 4275 4512 4412 
Q 4900 4550 5225 4725 
Q 5325 4475 5575 4250 
Q 5450 4225 5237 4175 
Q 5025 4125 4725 4050 
Q 4425 3975 4037 3887 
Q 3650 3800 3300 3725 
L 3300 3175 
Q 3275 2925 3700 2925 
L 4925 2925 
Q 5300 2925 5387 3087 
Q 5475 3250 5550 3600 
Q 5750 3400 6050 3300 
Q 5825 2725 5700 2637 
Q 5575 2550 5275 2525 
L 3350 2525 
Q 3050 2525 2937 2687 
Q 2825 2850 2825 2975 
L 2825 4125 
Q 2825 4775 2800 5025 
L 3325 5025 
z
M 5125 275 
L 5125 875 
L 3300 875 
L 3300 275 
L 5125 275 
z
M 5125 1250 
L 5125 1825 
L 3300 1825 
L 3300 1250 
L 5125 1250 
z
" transform="scale(0.015625)"/>
       <path id="SimHei-4ee4" d="M 5375 2075 
L 5375 1550 
Q 4925 1325 4450 937 
Q 3975 550 3575 125 
L 4250 -325 
Q 4050 -550 3875 -775 
Q 3100 -125 1850 425 
L 2150 875 
Q 2400 775 3125 350 
Q 3800 1025 4450 1625 
L 2025 1625 
Q 1500 1625 975 1600 
L 975 2100 
Q 1525 2075 2025 2075 
L 5375 2075 
z
M 3375 4850 
Q 4450 3550 6200 2900 
Q 5950 2625 5800 2350 
Q 4150 3150 3100 4475 
Q 2075 3125 625 2225 
Q 400 2525 200 2700 
Q 875 2975 1675 3675 
Q 2475 4375 2950 5300 
Q 3275 5175 3550 5050 
Q 3475 5000 3375 4850 
z
M 2925 3600 
Q 3175 3350 3750 2725 
L 3300 2325 
Q 3050 2700 2550 3225 
Q 2750 3375 2925 3600 
z
" transform="scale(0.015625)"/>
       <path id="SimHei-53f7" d="M 5025 4925 
Q 5000 4550 5000 4075 
Q 5000 3600 5025 3175 
L 1400 3175 
Q 1425 3525 1425 4000 
Q 1425 4500 1400 4925 
L 5025 4925 
z
M 5175 2625 
Q 5650 2625 6025 2650 
L 6025 2200 
Q 5650 2225 5175 2225 
L 2450 2225 
Q 2350 1875 2225 1450 
L 5175 1450 
Q 5100 1050 5062 775 
Q 5025 500 4950 112 
Q 4875 -275 4650 -412 
Q 4425 -550 3225 -625 
Q 3125 -350 2975 -50 
Q 3875 -75 4112 -50 
Q 4350 -25 4425 212 
Q 4500 450 4575 1025 
L 1600 1025 
Q 1825 1625 1950 2225 
L 1350 2225 
Q 825 2225 375 2200 
L 375 2650 
Q 825 2625 1350 2625 
L 5175 2625 
z
M 4525 3575 
L 4525 4525 
L 1900 4525 
L 1900 3575 
L 4525 3575 
z
" transform="scale(0.015625)"/>
      </defs>
      <use xlink:href="#SimHei-6307"/>
      <use xlink:href="#SimHei-4ee4" x="100"/>
      <use xlink:href="#SimHei-884c" x="200"/>
      <use xlink:href="#SimHei-53f7" x="300"/>
      <use xlink:href="#SimHei-20" x="400"/>
      <use xlink:href="#SimHei-4e" x="450"/>
     </g>
    </g>
   </g>
   <g id="patch_7">
    <path d="M 34.35625 450.866391 
L 34.35625 53.960861 
" style="fill: none; stroke: #000000; stroke-width: 0.8; stroke-linejoin: miter; stroke-linecap: square"/>
   </g>
   <g id="patch_8">
    <path d="M 841.25375 450.866391 
L 841.25375 53.960861 
" style="fill: none; stroke: #000000; stroke-width: 0.8; stroke-linejoin: miter; stroke-linecap: square"/>
   </g>
   <g id="patch_9">
    <path d="M 34.35625 450.866391 
L 841.25375 450.866391 
" style="fill: none; stroke: #000000; stroke-width: 0.8; stroke-linejoin: miter; stroke-linecap: square"/>
   </g>
   <g id="patch_10">
    <path d="M 34.35625 53.960861 
L 841.25375 53.960861 
" style="fill: none; stroke: #000000; stroke-width: 0.8; stroke-linejoin: miter; stroke-linecap: square"/>
   </g>
  </g>
 </g>
 <defs>
  <clipPath id="p19cafe7c9e">
   <rect x="34.35625" y="53.960861" width="806.8975" height="396.90553"/>
  </clipPath>
 </defs>
</svg>
