<?xml version="1.0" encoding="utf-8" standalone="no"?>
<!DOCTYPE svg PUBLIC "-//W3C//DTD SVG 1.1//EN"
  "http://www.w3.org/Graphics/SVG/1.1/DTD/svg11.dtd">
<svg xmlns:xlink="http://www.w3.org/1999/xlink" width="846.404pt" height="487.914516pt" viewBox="0 0 846.404 487.914516" xmlns="http://www.w3.org/2000/svg" version="1.1">
 <metadata>
  <rdf:RDF xmlns:dc="http://purl.org/dc/elements/1.1/" xmlns:cc="http://creativecommons.org/ns#" xmlns:rdf="http://www.w3.org/1999/02/22-rdf-syntax-ns#">
   <cc:Work>
    <dc:type rdf:resource="http://purl.org/dc/dcmitype/StillImage"/>
    <dc:date>2025-12-10T15:20:55.502582</dc:date>
    <dc:format>image/svg+xml</dc:format>
    <dc:creator>
     <cc:Agent>
      <dc:title>Matplotlib v3.9.2, https://matplotlib.org/</dc:title>
     </cc:Agent>
    </dc:creator>
   </cc:Work>
  </rdf:RDF>
 </metadata>
 <defs>
  <style type="text/css">*{stroke-linejoin: round; stroke-linecap: butt}</style>
 </defs>
 <g id="figure_1">
  <g id="patch_1">
   <path d="M 0 487.914516 
L 846.404 487.914516 
L 846.404 0 
L 0 0 
z
" style="fill: #ffffff"/>
  </g>
  <g id="axes_1">
   <g id="patch_2">
    <path d="M 50.44 450.386391 
L 839.204 450.386391 
L 839.204 53.960861 
L 50.44 53.960861 
z
" style="fill: #ffffff"/>
   </g>
   <g id="patch_3">
    <path d="M 86.292909 450.386391 
L 367.459557 450.386391 
L 367.459557 53.960861 
L 86.292909 53.960861 
z
" clip-path="url(#p44ff14ae78)" style="fill: #008000; opacity: 0.3; stroke: #008000; stroke-width: 0.3; stroke-linejoin: miter"/>
   </g>
   <g id="patch_4">
    <path d="M 370.823657 450.386391 
L 374.362296 450.386391 
L 374.362296 53.960861 
L 370.823657 53.960861 
z
" clip-path="url(#p44ff14ae78)" style="fill: #008000; opacity: 0.3; stroke: #008000; stroke-width: 0.3; stroke-linejoin: miter"/>
   </g>
   <g id="patch_5">
    <path d="M 375.179685 450.386391 
L 390.225087 450.386391 
L 390.225087 53.960861 
L 375.179685 53.960861 
z
" clip-path="url(#p44ff14ae78)" style="fill: #008000; opacity: 0.3; stroke: #008000; stroke-width: 0.3; stroke-linejoin: miter"/>
   </g>
   <g id="patch_6">
    <path d="M 393.589188 450.386391 
L 397.127826 450.386391 
L 397.127826 53.960861 
L 393.589188 53.960861 
z
" clip-path="url(#p44ff14ae78)" style="fill: #008000; opacity: 0.3; stroke: #008000; stroke-width: 0.3; stroke-linejoin: miter"/>
   </g>
   <g id="patch_7">
    <path d="M 397.945215 450.386391 
L 413.30556 450.386391 
L 413.30556 53.960861 
L 397.945215 53.960861 
z
" clip-path="url(#p44ff14ae78)" style="fill: #008000; opacity: 0.3; stroke: #008000; stroke-width: 0.3; stroke-linejoin: miter"/>
   </g>
   <g id="patch_8">
    <path d="M 416.669661 450.386391 
L 420.2083 450.386391 
L 420.2083 53.960861 
L 416.669661 53.960861 
z
" clip-path="url(#p44ff14ae78)" style="fill: #008000; opacity: 0.3; stroke: #008000; stroke-width: 0.3; stroke-linejoin: miter"/>
   </g>
   <g id="patch_9">
    <path d="M 421.025688 450.386391 
L 436.700976 450.386391 
L 436.700976 53.960861 
L 421.025688 53.960861 
z
" clip-path="url(#p44ff14ae78)" style="fill: #008000; opacity: 0.3; stroke: #008000; stroke-width: 0.3; stroke-linejoin: miter"/>
   </g>
   <g id="patch_10">
    <path d="M 440.065077 450.386391 
L 443.603715 450.386391 
L 443.603715 53.960861 
L 440.065077 53.960861 
z
" clip-path="url(#p44ff14ae78)" style="fill: #008000; opacity: 0.3; stroke: #008000; stroke-width: 0.3; stroke-linejoin: miter"/>
   </g>
   <g id="patch_11">
    <path d="M 444.421104 450.386391 
L 460.411335 450.386391 
L 460.411335 53.960861 
L 444.421104 53.960861 
z
" clip-path="url(#p44ff14ae78)" style="fill: #008000; opacity: 0.3; stroke: #008000; stroke-width: 0.3; stroke-linejoin: miter"/>
   </g>
   <g id="patch_12">
    <path d="M 463.775436 450.386391 
L 467.314074 450.386391 
L 467.314074 53.960861 
L 463.775436 53.960861 
z
" clip-path="url(#p44ff14ae78)" style="fill: #008000; opacity: 0.3; stroke: #008000; stroke-width: 0.3; stroke-linejoin: miter"/>
   </g>
   <g id="patch_13">
    <path d="M 468.131463 450.386391 
L 484.436636 450.386391 
L 484.436636 53.960861 
L 468.131463 53.960861 
z
" clip-path="url(#p44ff14ae78)" style="fill: #008000; opacity: 0.3; stroke: #008000; stroke-width: 0.3; stroke-linejoin: miter"/>
   </g>
   <g id="patch_14">
    <path d="M 487.800737 450.386391 
L 491.339376 450.386391 
L 491.339376 53.960861 
L 487.800737 53.960861 
z
" clip-path="url(#p44ff14ae78)" style="fill: #008000; opacity: 0.3; stroke: #008000; stroke-width: 0.3; stroke-linejoin: miter"/>
   </g>
   <g id="patch_15">
    <path d="M 492.156764 450.386391 
L 522.945663 450.386391 
L 522.945663 53.960861 
L 492.156764 53.960861 
z
" clip-path="url(#p44ff14ae78)" style="fill: #008000; opacity: 0.3; stroke: #008000; stroke-width: 0.3; stroke-linejoin: miter"/>
   </g>
   <g id="patch_16">
    <path d="M 538.528834 450.386391 
L 592.944337 450.386391 
L 592.944337 53.960861 
L 538.528834 53.960861 
z
" clip-path="url(#p44ff14ae78)" style="fill: #008000; opacity: 0.3; stroke: #008000; stroke-width: 0.3; stroke-linejoin: miter"/>
   </g>
   <g id="patch_17">
    <path d="M 600.555306 450.386391 
L 627.259884 450.386391 
L 627.259884 53.960861 
L 600.555306 53.960861 
z
" clip-path="url(#p44ff14ae78)" style="fill: #008000; opacity: 0.3; stroke: #008000; stroke-width: 0.3; stroke-linejoin: miter"/>
   </g>
   <g id="patch_18">
    <path d="M 651.569799 450.386391 
L 672.496886 450.386391 
L 672.496886 53.960861 
L 651.569799 53.960861 
z
" clip-path="url(#p44ff14ae78)" style="fill: #008000; opacity: 0.3; stroke: #008000; stroke-width: 0.3; stroke-linejoin: miter"/>
   </g>
   <g id="patch_19">
    <path d="M 696.8121 450.386391 
L 720.261173 450.386391 
L 720.261173 53.960861 
L 696.8121 53.960861 
z
" clip-path="url(#p44ff14ae78)" style="fill: #008000; opacity: 0.3; stroke: #008000; stroke-width: 0.3; stroke-linejoin: miter"/>
   </g>
   <g id="patch_20">
    <path d="M 744.564176 450.386391 
L 765.477993 450.386391 
L 765.477993 53.960861 
L 744.564176 53.960861 
z
" clip-path="url(#p44ff14ae78)" style="fill: #008000; opacity: 0.3; stroke: #008000; stroke-width: 0.3; stroke-linejoin: miter"/>
   </g>
   <g id="patch_21">
    <path d="M 789.800681 450.386391 
L 803.351091 450.386391 
L 803.351091 53.960861 
L 789.800681 53.960861 
z
" clip-path="url(#p44ff14ae78)" style="fill: #008000; opacity: 0.3; stroke: #008000; stroke-width: 0.3; stroke-linejoin: miter"/>
   </g>
   <g id="matplotlib.axis_1">
    <g id="xtick_1">
     <g id="line2d_1">
      <path d="M 86.292909 450.386391 
L 86.292909 53.960861 
" clip-path="url(#p44ff14ae78)" style="fill: none; stroke-dasharray: 2.96,1.28; stroke-dashoffset: 0; stroke: #b0b0b0; stroke-opacity: 0.7; stroke-width: 0.8"/>
     </g>
     <g id="line2d_2">
      <defs>
       <path id="m95c657eaf3" d="M 0 0 
L 0 3.5 
" style="stroke: #000000; stroke-width: 0.8"/>
      </defs>
      <g>
       <use xlink:href="#m95c657eaf3" x="86.292909" y="450.386391" style="stroke: #000000; stroke-width: 0.8"/>
      </g>
     </g>
     <g id="text_1">
      <!-- 0 -->
      <g transform="translate(83.792909 464.261391) scale(0.1 -0.1)">
       <defs>
        <path id="SimHei-30" d="M 225 2537 
Q 250 3200 412 3587 
Q 575 3975 875 4225 
Q 1175 4475 1612 4475 
Q 2050 4475 2375 4112 
Q 2700 3750 2800 3200 
Q 2900 2650 2862 1937 
Q 2825 1225 2612 775 
Q 2400 325 1975 150 
Q 1550 -25 1125 187 
Q 700 400 525 750 
Q 350 1100 275 1487 
Q 200 1875 225 2537 
z
M 750 2687 
Q 675 2000 800 1462 
Q 925 925 1212 700 
Q 1500 475 1800 612 
Q 2100 750 2237 1162 
Q 2375 1575 2375 2062 
Q 2375 2550 2337 2950 
Q 2300 3350 2112 3675 
Q 1925 4000 1612 4012 
Q 1300 4025 1062 3700 
Q 825 3375 750 2687 
z
" transform="scale(0.015625)"/>
       </defs>
       <use xlink:href="#SimHei-30"/>
      </g>
     </g>
    </g>
    <g id="xtick_2">
     <g id="line2d_3">
      <path d="M 243.764259 450.386391 
L 243.764259 53.960861 
" clip-path="url(#p44ff14ae78)" style="fill: none; stroke-dasharray: 2.96,1.28; stroke-dashoffset: 0; stroke: #b0b0b0; stroke-opacity: 0.7; stroke-width: 0.8"/>
     </g>
     <g id="line2d_4">
      <g>
       <use xlink:href="#m95c657eaf3" x="243.764259" y="450.386391" style="stroke: #000000; stroke-width: 0.8"/>
      </g>
     </g>
     <g id="text_2">
      <!-- 500 -->
      <g transform="translate(236.264259 464.261391) scale(0.1 -0.1)">
       <defs>
        <path id="SimHei-35" d="M 550 1325 
Q 725 650 1150 575 
Q 1575 500 1837 662 
Q 2100 825 2212 1087 
Q 2325 1350 2312 1675 
Q 2300 2000 2137 2225 
Q 1975 2450 1725 2525 
Q 1475 2600 1162 2525 
Q 850 2450 650 2175 
L 225 2225 
Q 275 2375 700 4375 
L 2675 4375 
L 2675 3925 
L 1075 3925 
Q 950 3250 825 2850 
Q 1200 3025 1525 3012 
Q 1850 3000 2150 2862 
Q 2450 2725 2587 2487 
Q 2725 2250 2787 2012 
Q 2850 1775 2837 1500 
Q 2825 1225 2725 937 
Q 2625 650 2425 462 
Q 2225 275 1937 162 
Q 1650 50 1275 75 
Q 900 100 562 350 
Q 225 600 100 1200 
L 550 1325 
z
" transform="scale(0.015625)"/>
       </defs>
       <use xlink:href="#SimHei-35"/>
       <use xlink:href="#SimHei-30" x="50"/>
       <use xlink:href="#SimHei-30" x="100"/>
      </g>
     </g>
    </g>
    <g id="xtick_3">
     <g id="line2d_5">
      <path d="M 401.23561 450.386391 
L 401.23561 53.960861 
" clip-path="url(#p44ff14ae78)" style="fill: none; stroke-dasharray: 2.96,1.28; stroke-dashoffset: 0; stroke: #b0b0b0; stroke-opacity: 0.7; stroke-width: 0.8"/>
     </g>
     <g id="line2d_6">
      <g>
       <use xlink:href="#m95c657eaf3" x="401.23561" y="450.386391" style="stroke: #000000; stroke-width: 0.8"/>
      </g>
     </g>
     <g id="text_3">
      <!-- 1000 -->
      <g transform="translate(391.23561 464.261391) scale(0.1 -0.1)">
       <defs>
        <path id="SimHei-31" d="M 1400 3600 
Q 1075 3275 575 2975 
L 575 3450 
Q 1200 3875 1600 4450 
L 1900 4450 
L 1900 150 
L 1400 150 
L 1400 3600 
z
" transform="scale(0.015625)"/>
       </defs>
       <use xlink:href="#SimHei-31"/>
       <use xlink:href="#SimHei-30" x="50"/>
       <use xlink:href="#SimHei-30" x="100"/>
       <use xlink:href="#SimHei-30" x="150"/>
      </g>
     </g>
    </g>
    <g id="xtick_4">
     <g id="line2d_7">
      <path d="M 558.70696 450.386391 
L 558.70696 53.960861 
" clip-path="url(#p44ff14ae78)" style="fill: none; stroke-dasharray: 2.96,1.28; stroke-dashoffset: 0; stroke: #b0b0b0; stroke-opacity: 0.7; stroke-width: 0.8"/>
     </g>
     <g id="line2d_8">
      <g>
       <use xlink:href="#m95c657eaf3" x="558.70696" y="450.386391" style="stroke: #000000; stroke-width: 0.8"/>
      </g>
     </g>
     <g id="text_4">
      <!-- 1500 -->
      <g transform="translate(548.70696 464.261391) scale(0.1 -0.1)">
       <use xlink:href="#SimHei-31"/>
       <use xlink:href="#SimHei-35" x="50"/>
       <use xlink:href="#SimHei-30" x="100"/>
       <use xlink:href="#SimHei-30" x="150"/>
      </g>
     </g>
    </g>
    <g id="xtick_5">
     <g id="line2d_9">
      <path d="M 716.178311 450.386391 
L 716.178311 53.960861 
" clip-path="url(#p44ff14ae78)" style="fill: none; stroke-dasharray: 2.96,1.28; stroke-dashoffset: 0; stroke: #b0b0b0; stroke-opacity: 0.7; stroke-width: 0.8"/>
     </g>
     <g id="line2d_10">
      <g>
       <use xlink:href="#m95c657eaf3" x="716.178311" y="450.386391" style="stroke: #000000; stroke-width: 0.8"/>
      </g>
     </g>
     <g id="text_5">
      <!-- 2000 -->
      <g transform="translate(706.178311 464.261391) scale(0.1 -0.1)">
       <defs>
        <path id="SimHei-32" d="M 300 250 
Q 325 625 650 925 
Q 975 1225 1475 1862 
Q 1975 2500 2125 2850 
Q 2275 3200 2237 3450 
Q 2200 3700 2000 3862 
Q 1800 4025 1537 4000 
Q 1275 3975 1037 3800 
Q 800 3625 675 3275 
L 200 3350 
Q 400 3925 712 4187 
Q 1025 4450 1450 4475 
Q 1700 4500 1900 4462 
Q 2100 4425 2312 4287 
Q 2525 4150 2662 3875 
Q 2800 3600 2762 3212 
Q 2725 2825 2375 2287 
Q 2025 1750 1025 600 
L 2825 600 
L 2825 150 
L 300 150 
L 300 250 
z
" transform="scale(0.015625)"/>
       </defs>
       <use xlink:href="#SimHei-32"/>
       <use xlink:href="#SimHei-30" x="50"/>
       <use xlink:href="#SimHei-30" x="100"/>
       <use xlink:href="#SimHei-30" x="150"/>
      </g>
     </g>
    </g>
    <g id="text_6">
     <!-- 行程 s (mm) -->
     <g transform="translate(411.822 479.214516) scale(0.12 -0.12)">
      <defs>
       <path id="SimHei-884c" d="M 5300 3100 
Q 5775 3100 6175 3125 
L 6175 2625 
Q 5775 2650 5325 2650 
L 4975 2650 
L 4975 -75 
Q 5000 -375 4787 -487 
Q 4575 -600 3950 -675 
Q 3900 -375 3675 -75 
Q 4100 -125 4275 -112 
Q 4450 -100 4475 150 
L 4475 2650 
L 3475 2650 
Q 3000 2650 2575 2625 
L 2575 3125 
Q 3025 3100 3475 3100 
L 5300 3100 
z
M 2300 3400 
Q 2075 3275 1962 3075 
Q 1850 2875 1650 2575 
L 1650 325 
Q 1650 0 1675 -675 
L 1150 -675 
Q 1175 75 1175 450 
L 1175 2050 
Q 950 1675 575 1300 
Q 400 1550 250 1725 
Q 825 2275 1150 2775 
Q 1475 3275 1725 3725 
Q 1975 3575 2300 3400 
z
M 4875 4800 
Q 5300 4800 5750 4825 
L 5750 4350 
Q 5300 4375 4825 4375 
L 3900 4375 
Q 3350 4375 2950 4350 
L 2950 4825 
Q 3350 4800 3900 4800 
L 4875 4800 
z
M 2075 4925 
Q 1875 4900 1550 4387 
Q 1225 3875 650 3250 
Q 500 3450 325 3625 
Q 725 4025 1050 4487 
Q 1375 4950 1525 5300 
Q 1775 5150 2075 4925 
z
" transform="scale(0.015625)"/>
       <path id="SimHei-7a0b" d="M 5825 4975 
Q 5800 4425 5800 3975 
Q 5800 3550 5825 3125 
L 3025 3125 
Q 3050 3600 3050 4025 
Q 3050 4450 3025 4975 
L 5825 4975 
z
M 400 4825 
Q 825 4875 1362 4987 
Q 1900 5100 2275 5275 
Q 2450 4950 2625 4725 
Q 2450 4750 2262 4712 
Q 2075 4675 1850 4650 
L 1850 3425 
Q 2200 3425 2600 3450 
L 2600 2975 
Q 2200 3000 1850 3000 
L 1850 800 
Q 1850 250 1875 -675 
L 1375 -675 
Q 1400 250 1400 775 
L 1400 1925 
Q 1050 1225 625 600 
Q 450 850 225 1050 
Q 575 1400 850 1850 
Q 1125 2300 1350 3000 
Q 725 3000 425 2975 
L 425 3450 
Q 850 3425 1050 3425 
L 1400 3425 
L 1400 4550 
Q 1075 4475 575 4400 
Q 500 4625 400 4825 
z
M 5100 2500 
Q 5500 2500 5950 2525 
L 5950 2075 
Q 5500 2100 5100 2100 
L 4625 2100 
L 4625 1300 
L 4900 1300 
Q 5275 1300 5775 1325 
L 5775 850 
Q 5275 875 4975 875 
L 4625 875 
L 4625 0 
L 5225 0 
Q 5675 0 6175 25 
L 6175 -450 
Q 5775 -425 5225 -425 
L 3550 -425 
Q 3000 -425 2600 -475 
L 2600 25 
Q 3000 0 3550 0 
L 4150 0 
L 4150 875 
L 3800 875 
Q 3400 875 3050 825 
L 3050 1325 
Q 3400 1300 3800 1300 
L 4150 1300 
L 4150 2100 
L 3750 2100 
Q 3300 2100 2900 2075 
L 2900 2525 
Q 3300 2500 3750 2500 
L 5100 2500 
z
M 5275 3575 
L 5275 4550 
L 3500 4550 
L 3500 3575 
L 5275 3575 
z
M 2300 2400 
Q 2550 2025 2825 1525 
Q 2675 1425 2425 1225 
Q 2175 1775 1925 2125 
Q 2075 2250 2300 2400 
z
" transform="scale(0.015625)"/>
       <path id="SimHei-20" transform="scale(0.015625)"/>
       <path id="SimHei-73" d="M 2750 900 
Q 2750 500 2437 287 
Q 2125 75 1650 75 
Q 1050 75 725 312 
Q 400 550 400 1000 
L 900 1000 
Q 900 700 1112 600 
Q 1325 500 1625 500 
Q 1925 500 2075 612 
Q 2225 725 2225 900 
Q 2225 1025 2100 1150 
Q 1975 1275 1475 1350 
Q 900 1425 687 1637 
Q 475 1850 475 2200 
Q 475 2500 762 2737 
Q 1050 2975 1600 2975 
Q 2100 2975 2387 2750 
Q 2675 2525 2675 2150 
L 2175 2150 
Q 2175 2375 2012 2462 
Q 1850 2550 1600 2550 
Q 1275 2550 1137 2437 
Q 1000 2325 1000 2175 
Q 1000 2000 1125 1900 
Q 1250 1800 1650 1750 
Q 2300 1650 2525 1437 
Q 2750 1225 2750 900 
z
" transform="scale(0.015625)"/>
       <path id="SimHei-28" d="M 2975 -200 
L 2700 -475 
Q 2075 125 1762 775 
Q 1450 1425 1450 2250 
Q 1450 3075 1762 3725 
Q 2075 4375 2700 5000 
L 2975 4725 
Q 2400 4175 2112 3587 
Q 1825 3000 1825 2250 
Q 1825 1500 2112 912 
Q 2400 325 2975 -200 
z
" transform="scale(0.015625)"/>
       <path id="SimHei-6d" d="M 3050 125 
L 2550 125 
L 2550 2150 
Q 2550 2300 2500 2400 
Q 2450 2500 2300 2500 
Q 2125 2500 1975 2312 
Q 1825 2125 1825 1825 
L 1825 125 
L 1325 125 
L 1325 2150 
Q 1325 2300 1275 2400 
Q 1225 2500 1075 2500 
Q 900 2500 750 2312 
Q 600 2125 600 1825 
L 600 125 
L 100 125 
L 100 2925 
L 600 2925 
L 600 2550 
Q 725 2750 900 2862 
Q 1075 2975 1275 2975 
Q 1475 2975 1612 2862 
Q 1750 2750 1800 2550 
Q 1925 2750 2087 2862 
Q 2250 2975 2450 2975 
Q 2750 2975 2900 2812 
Q 3050 2650 3050 2350 
L 3050 125 
z
" transform="scale(0.015625)"/>
       <path id="SimHei-29" d="M 1675 2250 
Q 1675 1425 1362 775 
Q 1050 125 425 -475 
L 150 -200 
Q 725 325 1012 912 
Q 1300 1500 1300 2250 
Q 1300 3000 1012 3587 
Q 725 4175 150 4725 
L 425 5000 
Q 1050 4375 1362 3725 
Q 1675 3075 1675 2250 
z
" transform="scale(0.015625)"/>
      </defs>
      <use xlink:href="#SimHei-884c"/>
      <use xlink:href="#SimHei-7a0b" x="100"/>
      <use xlink:href="#SimHei-20" x="200"/>
      <use xlink:href="#SimHei-73" x="250"/>
      <use xlink:href="#SimHei-20" x="300"/>
      <use xlink:href="#SimHei-28" x="350"/>
      <use xlink:href="#SimHei-6d" x="400"/>
      <use xlink:href="#SimHei-6d" x="450"/>
      <use xlink:href="#SimHei-29" x="500"/>
     </g>
    </g>
   </g>
   <g id="matplotlib.axis_2">
    <g id="ytick_1">
     <g id="line2d_11">
      <path d="M 50.44 432.367049 
L 839.204 432.367049 
" clip-path="url(#p44ff14ae78)" style="fill: none; stroke-dasharray: 2.96,1.28; stroke-dashoffset: 0; stroke: #b0b0b0; stroke-opacity: 0.7; stroke-width: 0.8"/>
     </g>
     <g id="line2d_12">
      <defs>
       <path id="mca3b91ada3" d="M 0 0 
L -3.5 0 
" style="stroke: #000000; stroke-width: 0.8"/>
      </defs>
      <g>
       <use xlink:href="#mca3b91ada3" x="50.44" y="432.367049" style="stroke: #000000; stroke-width: 0.8"/>
      </g>
     </g>
     <g id="text_7">
      <!-- 0 -->
      <g transform="translate(38.44 435.804549) scale(0.1 -0.1)">
       <use xlink:href="#SimHei-30"/>
      </g>
     </g>
    </g>
    <g id="ytick_2">
     <g id="line2d_13">
      <path d="M 50.44 379.587042 
L 839.204 379.587042 
" clip-path="url(#p44ff14ae78)" style="fill: none; stroke-dasharray: 2.96,1.28; stroke-dashoffset: 0; stroke: #b0b0b0; stroke-opacity: 0.7; stroke-width: 0.8"/>
     </g>
     <g id="line2d_14">
      <g>
       <use xlink:href="#mca3b91ada3" x="50.44" y="379.587042" style="stroke: #000000; stroke-width: 0.8"/>
      </g>
     </g>
     <g id="text_8">
      <!-- 1000 -->
      <g transform="translate(23.44 383.024542) scale(0.1 -0.1)">
       <use xlink:href="#SimHei-31"/>
       <use xlink:href="#SimHei-30" x="50"/>
       <use xlink:href="#SimHei-30" x="100"/>
       <use xlink:href="#SimHei-30" x="150"/>
      </g>
     </g>
    </g>
    <g id="ytick_3">
     <g id="line2d_15">
      <path d="M 50.44 326.807036 
L 839.204 326.807036 
" clip-path="url(#p44ff14ae78)" style="fill: none; stroke-dasharray: 2.96,1.28; stroke-dashoffset: 0; stroke: #b0b0b0; stroke-opacity: 0.7; stroke-width: 0.8"/>
     </g>
     <g id="line2d_16">
      <g>
       <use xlink:href="#mca3b91ada3" x="50.44" y="326.807036" style="stroke: #000000; stroke-width: 0.8"/>
      </g>
     </g>
     <g id="text_9">
      <!-- 2000 -->
      <g transform="translate(23.44 330.244536) scale(0.1 -0.1)">
       <use xlink:href="#SimHei-32"/>
       <use xlink:href="#SimHei-30" x="50"/>
       <use xlink:href="#SimHei-30" x="100"/>
       <use xlink:href="#SimHei-30" x="150"/>
      </g>
     </g>
    </g>
    <g id="ytick_4">
     <g id="line2d_17">
      <path d="M 50.44 274.027029 
L 839.204 274.027029 
" clip-path="url(#p44ff14ae78)" style="fill: none; stroke-dasharray: 2.96,1.28; stroke-dashoffset: 0; stroke: #b0b0b0; stroke-opacity: 0.7; stroke-width: 0.8"/>
     </g>
     <g id="line2d_18">
      <g>
       <use xlink:href="#mca3b91ada3" x="50.44" y="274.027029" style="stroke: #000000; stroke-width: 0.8"/>
      </g>
     </g>
     <g id="text_10">
      <!-- 3000 -->
      <g transform="translate(23.44 277.464529) scale(0.1 -0.1)">
       <defs>
        <path id="SimHei-33" d="M 250 1225 
L 700 1300 
Q 800 975 1025 762 
Q 1250 550 1587 562 
Q 1925 575 2125 837 
Q 2325 1100 2300 1437 
Q 2275 1775 2037 1962 
Q 1800 2150 1275 2225 
L 1275 2550 
Q 1800 2600 2037 2825 
Q 2275 3050 2250 3412 
Q 2225 3775 1925 3937 
Q 1625 4100 1287 3975 
Q 950 3850 750 3275 
L 300 3350 
Q 450 3800 712 4100 
Q 975 4400 1425 4450 
Q 1875 4500 2212 4337 
Q 2550 4175 2687 3837 
Q 2825 3500 2725 3100 
Q 2625 2700 2150 2400 
Q 2500 2250 2687 1950 
Q 2875 1650 2812 1162 
Q 2750 675 2375 375 
Q 2000 75 1525 87 
Q 1050 100 700 387 
Q 350 675 250 1225 
z
" transform="scale(0.015625)"/>
       </defs>
       <use xlink:href="#SimHei-33"/>
       <use xlink:href="#SimHei-30" x="50"/>
       <use xlink:href="#SimHei-30" x="100"/>
       <use xlink:href="#SimHei-30" x="150"/>
      </g>
     </g>
    </g>
    <g id="ytick_5">
     <g id="line2d_19">
      <path d="M 50.44 221.247023 
L 839.204 221.247023 
" clip-path="url(#p44ff14ae78)" style="fill: none; stroke-dasharray: 2.96,1.28; stroke-dashoffset: 0; stroke: #b0b0b0; stroke-opacity: 0.7; stroke-width: 0.8"/>
     </g>
     <g id="line2d_20">
      <g>
       <use xlink:href="#mca3b91ada3" x="50.44" y="221.247023" style="stroke: #000000; stroke-width: 0.8"/>
      </g>
     </g>
     <g id="text_11">
      <!-- 4000 -->
      <g transform="translate(23.44 224.684523) scale(0.1 -0.1)">
       <defs>
        <path id="SimHei-34" d="M 2000 1100 
L 75 1100 
L 75 1525 
L 2100 4450 
L 2475 4450 
L 2475 1525 
L 3075 1525 
L 3075 1100 
L 2475 1100 
L 2475 150 
L 2000 150 
L 2000 1100 
z
M 2000 1525 
L 2000 3500 
L 600 1525 
L 2000 1525 
z
" transform="scale(0.015625)"/>
       </defs>
       <use xlink:href="#SimHei-34"/>
       <use xlink:href="#SimHei-30" x="50"/>
       <use xlink:href="#SimHei-30" x="100"/>
       <use xlink:href="#SimHei-30" x="150"/>
      </g>
     </g>
    </g>
    <g id="ytick_6">
     <g id="line2d_21">
      <path d="M 50.44 168.467016 
L 839.204 168.467016 
" clip-path="url(#p44ff14ae78)" style="fill: none; stroke-dasharray: 2.96,1.28; stroke-dashoffset: 0; stroke: #b0b0b0; stroke-opacity: 0.7; stroke-width: 0.8"/>
     </g>
     <g id="line2d_22">
      <g>
       <use xlink:href="#mca3b91ada3" x="50.44" y="168.467016" style="stroke: #000000; stroke-width: 0.8"/>
      </g>
     </g>
     <g id="text_12">
      <!-- 5000 -->
      <g transform="translate(23.44 171.904516) scale(0.1 -0.1)">
       <use xlink:href="#SimHei-35"/>
       <use xlink:href="#SimHei-30" x="50"/>
       <use xlink:href="#SimHei-30" x="100"/>
       <use xlink:href="#SimHei-30" x="150"/>
      </g>
     </g>
    </g>
    <g id="ytick_7">
     <g id="line2d_23">
      <path d="M 50.44 115.68701 
L 839.204 115.68701 
" clip-path="url(#p44ff14ae78)" style="fill: none; stroke-dasharray: 2.96,1.28; stroke-dashoffset: 0; stroke: #b0b0b0; stroke-opacity: 0.7; stroke-width: 0.8"/>
     </g>
     <g id="line2d_24">
      <g>
       <use xlink:href="#mca3b91ada3" x="50.44" y="115.68701" style="stroke: #000000; stroke-width: 0.8"/>
      </g>
     </g>
     <g id="text_13">
      <!-- 6000 -->
      <g transform="translate(23.44 119.12451) scale(0.1 -0.1)">
       <defs>
        <path id="SimHei-36" d="M 250 1612 
Q 275 1975 387 2225 
Q 500 2475 725 2850 
L 1750 4450 
L 2325 4450 
L 1275 2800 
Q 1950 2975 2350 2750 
Q 2750 2525 2887 2237 
Q 3025 1950 3037 1612 
Q 3050 1275 2937 950 
Q 2825 625 2537 362 
Q 2250 100 1737 75 
Q 1225 50 862 262 
Q 500 475 362 862 
Q 225 1250 250 1612 
z
M 1025 787 
Q 1250 550 1625 525 
Q 2000 500 2250 775 
Q 2500 1050 2500 1575 
Q 2500 2100 2187 2300 
Q 1875 2500 1487 2450 
Q 1100 2400 925 2075 
Q 750 1750 775 1387 
Q 800 1025 1025 787 
z
" transform="scale(0.015625)"/>
       </defs>
       <use xlink:href="#SimHei-36"/>
       <use xlink:href="#SimHei-30" x="50"/>
       <use xlink:href="#SimHei-30" x="100"/>
       <use xlink:href="#SimHei-30" x="150"/>
      </g>
     </g>
    </g>
    <g id="ytick_8">
     <g id="line2d_25">
      <path d="M 50.44 62.907003 
L 839.204 62.907003 
" clip-path="url(#p44ff14ae78)" style="fill: none; stroke-dasharray: 2.96,1.28; stroke-dashoffset: 0; stroke: #b0b0b0; stroke-opacity: 0.7; stroke-width: 0.8"/>
     </g>
     <g id="line2d_26">
      <g>
       <use xlink:href="#mca3b91ada3" x="50.44" y="62.907003" style="stroke: #000000; stroke-width: 0.8"/>
      </g>
     </g>
     <g id="text_14">
      <!-- 7000 -->
      <g transform="translate(23.44 66.344503) scale(0.1 -0.1)">
       <defs>
        <path id="SimHei-37" d="M 850 150 
Q 1300 2050 2425 3925 
L 275 3925 
L 275 4375 
L 2950 4375 
L 2950 3950 
Q 1775 2050 1400 150 
L 850 150 
z
" transform="scale(0.015625)"/>
       </defs>
       <use xlink:href="#SimHei-37"/>
       <use xlink:href="#SimHei-30" x="50"/>
       <use xlink:href="#SimHei-30" x="100"/>
       <use xlink:href="#SimHei-30" x="150"/>
      </g>
     </g>
    </g>
    <g id="text_15">
     <!-- 材料去除率 MRR (mm$^3$/s) -->
     <g transform="translate(17.94 318.113626) rotate(-90) scale(0.12 -0.12)">
      <defs>
       <path id="SimHei-6750" d="M 4675 3750 
L 4675 4300 
Q 4675 4750 4650 5175 
L 5200 5175 
Q 5150 4750 5150 4275 
L 5150 3750 
Q 5650 3750 6100 3775 
L 6100 3300 
Q 5650 3325 5150 3325 
L 5150 125 
Q 5150 -250 4962 -375 
Q 4775 -500 4225 -625 
Q 4150 -325 4000 -50 
Q 4425 -50 4550 0 
Q 4675 50 4675 325 
L 4675 2675 
Q 4325 2000 3887 1412 
Q 3450 825 2800 225 
Q 2675 400 2400 625 
Q 2950 975 3512 1675 
Q 4075 2375 4500 3325 
L 3650 3325 
Q 3350 3325 2950 3300 
L 2950 3775 
Q 3350 3750 3650 3750 
L 4675 3750 
z
M 2200 2700 
Q 2650 2125 2850 1825 
Q 2625 1675 2450 1550 
Q 2100 2150 1925 2325 
L 1925 425 
Q 1925 -100 1950 -625 
L 1425 -625 
Q 1450 -75 1450 425 
L 1450 2175 
Q 1275 1800 1037 1400 
Q 800 1000 550 650 
Q 475 825 225 1100 
Q 525 1425 875 2062 
Q 1225 2700 1400 3325 
Q 875 3325 425 3300 
L 425 3775 
Q 925 3750 1450 3750 
L 1450 4350 
Q 1450 4725 1425 5175 
L 1950 5175 
Q 1925 4775 1925 4350 
L 1925 3750 
Q 2300 3750 2725 3775 
L 2725 3300 
Q 2300 3325 1925 3325 
L 1925 2475 
Q 2125 2600 2200 2700 
z
" transform="scale(0.015625)"/>
       <path id="SimHei-6599" d="M 1450 4400 
Q 1450 4800 1425 5100 
L 1925 5100 
Q 1900 4850 1900 4375 
L 1900 3075 
Q 2300 3075 2800 3100 
L 2800 2650 
Q 2300 2675 1900 2675 
L 1900 375 
Q 1900 -25 1925 -650 
L 1425 -650 
Q 1450 -25 1450 375 
L 1450 1875 
Q 1225 1300 600 475 
Q 425 650 225 800 
Q 600 1225 887 1712 
Q 1175 2200 1350 2675 
Q 875 2675 350 2650 
L 350 3100 
Q 875 3075 1450 3075 
L 1450 4400 
z
M 4800 4325 
Q 4800 4750 4775 5050 
L 5300 5050 
Q 5275 4750 5275 4325 
L 5275 1650 
Q 5525 1700 6125 1850 
L 6150 1400 
Q 5625 1300 5275 1225 
L 5275 325 
Q 5275 -50 5300 -650 
L 4775 -650 
Q 4800 125 4800 1125 
Q 3175 850 2750 725 
L 2600 1225 
Q 3700 1350 4800 1550 
L 4800 4325 
z
M 3350 3175 
Q 4025 2600 4450 2150 
L 4075 1775 
Q 3675 2300 3050 2800 
Q 3300 3025 3350 3175 
z
M 3550 4575 
Q 4150 4000 4575 3500 
Q 4375 3375 4175 3200 
Q 3825 3650 3250 4250 
Q 3475 4450 3550 4575 
z
M 750 4600 
Q 900 4400 1300 3625 
Q 1100 3525 875 3375 
Q 800 3600 350 4400 
Q 550 4475 750 4600 
z
M 3000 4350 
Q 2825 4075 2350 3300 
Q 2225 3425 1975 3550 
Q 2300 3925 2575 4600 
Q 2800 4450 3000 4350 
z
M 2325 2400 
Q 2650 2025 2975 1600 
Q 2800 1450 2600 1275 
Q 2300 1775 1975 2125 
Q 2175 2250 2325 2400 
z
" transform="scale(0.015625)"/>
       <path id="SimHei-53bb" d="M 3325 1625 
Q 3050 1450 2725 1037 
Q 2400 625 1775 25 
Q 2500 100 3125 162 
Q 3750 225 4500 325 
Q 3950 975 3725 1150 
Q 3950 1250 4200 1450 
Q 4500 1125 4900 662 
Q 5300 200 5750 -275 
Q 5450 -425 5200 -600 
Q 5000 -300 4750 -25 
Q 3025 -200 2262 -337 
Q 1500 -475 1175 -600 
Q 1075 -325 900 0 
Q 1200 75 1812 700 
Q 2425 1325 2675 1975 
L 1450 1975 
Q 750 1975 250 1950 
L 250 2400 
Q 775 2375 1450 2375 
L 2975 2375 
L 2975 3550 
L 2075 3550 
Q 1450 3550 975 3525 
L 975 3975 
Q 1450 3950 2050 3950 
L 2975 3950 
L 2975 4450 
Q 2975 4825 2950 5175 
L 3550 5175 
Q 3500 4850 3500 4500 
L 3500 3950 
L 4250 3950 
Q 4875 3950 5425 3975 
L 5425 3525 
Q 4875 3550 4275 3550 
L 3500 3550 
L 3500 2375 
L 5025 2375 
Q 5625 2375 6175 2400 
L 6175 1950 
Q 5625 1975 5025 1975 
L 2850 1975 
Q 3125 1775 3325 1625 
z
" transform="scale(0.015625)"/>
       <path id="SimHei-9664" d="M 4325 2850 
L 4325 2100 
L 4900 2100 
Q 5250 2100 5725 2125 
L 5725 1675 
Q 5275 1700 4925 1700 
L 4325 1700 
L 4325 75 
Q 4325 -375 4125 -475 
Q 3925 -575 3450 -675 
Q 3425 -400 3250 -75 
Q 3650 -75 3775 -50 
Q 3900 -25 3900 250 
L 3900 1700 
L 3425 1700 
Q 2975 1700 2550 1675 
L 2550 2125 
Q 2950 2100 3450 2100 
L 3900 2100 
L 3900 2850 
L 3625 2850 
Q 3375 2850 3100 2825 
L 3100 3200 
Q 2800 2825 2625 2675 
Q 2450 2850 2200 3000 
Q 2850 3500 3262 4125 
Q 3675 4750 3875 5300 
Q 4100 5175 4425 5050 
Q 4375 4975 4275 4850 
Q 4625 4275 5025 3925 
Q 5425 3575 6200 3250 
Q 5975 3075 5825 2750 
Q 5525 2900 5125 3225 
L 5125 2825 
Q 4800 2850 4525 2850 
L 4325 2850 
z
M 2500 4850 
Q 2350 4475 1800 2950 
Q 2175 2425 2275 2150 
Q 2375 1875 2375 1550 
Q 2375 1225 2150 1000 
Q 1925 775 1450 675 
Q 1375 950 1225 1225 
Q 1725 1275 1850 1437 
Q 1975 1600 1862 1975 
Q 1750 2350 1300 2950 
Q 1650 3625 1875 4450 
L 1025 4450 
L 1025 -625 
L 550 -625 
Q 575 -25 575 925 
L 575 3800 
Q 575 4375 550 4850 
L 2500 4850 
z
M 5050 3275 
Q 4375 3875 4025 4500 
Q 3600 3775 3150 3275 
L 5050 3275 
z
M 5050 1250 
Q 5275 975 5512 687 
Q 5750 400 6075 100 
Q 5800 0 5600 -225 
Q 5425 50 5137 412 
Q 4850 775 4650 950 
L 5050 1250 
z
M 3525 975 
Q 3350 800 3100 462 
Q 2850 125 2550 -225 
Q 2350 -50 2150 75 
Q 2425 325 2650 612 
Q 2875 900 3075 1275 
Q 3275 1100 3525 975 
z
" transform="scale(0.015625)"/>
       <path id="SimHei-7387" d="M 3325 5150 
Q 3425 4900 3550 4525 
L 4800 4525 
Q 5250 4525 5800 4550 
L 5800 4125 
Q 5250 4175 4775 4175 
L 2800 4175 
Q 2975 4050 3300 3900 
Q 3075 3750 2875 3537 
Q 2675 3325 2475 3125 
L 3275 3125 
Q 3575 3425 3775 3775 
Q 4000 3600 4275 3425 
Q 3950 3250 3600 2875 
Q 3250 2500 2625 2000 
L 3850 2100 
Q 3725 2250 3600 2425 
Q 3750 2475 4000 2650 
Q 4250 2350 4700 1700 
Q 4475 1625 4225 1450 
Q 4175 1600 4025 1775 
Q 3700 1750 3425 1750 
L 3425 1050 
L 5150 1050 
Q 5675 1050 6100 1075 
L 6100 650 
Q 5700 675 5125 675 
L 3425 675 
L 3425 175 
Q 3425 -300 3450 -625 
L 2900 -625 
Q 2925 -300 2925 175 
L 2925 675 
L 1325 675 
Q 825 675 325 650 
L 325 1075 
Q 825 1050 1350 1050 
L 2925 1050 
L 2925 1700 
Q 2700 1675 2475 1637 
Q 2250 1600 2025 1525 
Q 1950 1775 1850 2000 
Q 2075 2025 2325 2200 
Q 2575 2375 2975 2800 
Q 2300 2725 2025 2625 
Q 1975 2875 1850 3175 
Q 2075 3175 2325 3487 
Q 2575 3800 2750 4175 
L 1700 4175 
Q 1150 4175 650 4125 
L 650 4550 
Q 1150 4525 1550 4525 
L 2975 4525 
Q 2900 4825 2800 5025 
Q 3025 5075 3325 5150 
z
M 1625 2575 
Q 1725 2400 1825 2200 
Q 1575 2050 1325 1862 
Q 1075 1675 800 1425 
Q 625 1675 475 1875 
Q 800 2025 1100 2212 
Q 1400 2400 1625 2575 
z
M 4850 2650 
Q 5125 2475 5337 2337 
Q 5550 2200 5875 1950 
Q 5675 1800 5500 1600 
Q 5300 1775 5062 1975 
Q 4825 2175 4575 2325 
Q 4725 2475 4850 2650 
z
M 5725 3525 
Q 5550 3450 5300 3262 
Q 5050 3075 4800 2825 
Q 4625 3050 4475 3175 
Q 4700 3325 4875 3487 
Q 5050 3650 5300 3925 
Q 5525 3700 5725 3525 
z
M 1050 3850 
Q 1425 3600 1775 3275 
Q 1575 3100 1425 2925 
Q 1075 3300 675 3525 
Q 875 3700 1050 3850 
z
" transform="scale(0.015625)"/>
       <path id="SimHei-4d" d="M 2925 125 
L 2425 125 
L 2425 3175 
L 2375 3175 
L 1775 125 
L 1375 125 
L 775 3175 
L 725 3175 
L 725 125 
L 225 125 
L 225 4400 
L 1000 4400 
L 1550 1575 
L 1600 1575 
L 2150 4400 
L 2925 4400 
L 2925 125 
z
" transform="scale(0.015625)"/>
       <path id="SimHei-52" d="M 3000 125 
L 2400 125 
L 1500 1975 
L 850 1975 
L 850 125 
L 275 125 
L 275 4400 
L 1525 4400 
Q 2125 4400 2500 4112 
Q 2875 3825 2875 3175 
Q 2875 2675 2625 2400 
Q 2375 2125 2050 2050 
L 3000 125 
z
M 2300 3175 
Q 2300 3525 2087 3725 
Q 1875 3925 1400 3925 
L 850 3925 
L 850 2450 
L 1550 2450 
Q 1850 2450 2075 2612 
Q 2300 2775 2300 3175 
z
" transform="scale(0.015625)"/>
       <path id="DejaVuSans-33" d="M 2597 2516 
Q 3050 2419 3304 2112 
Q 3559 1806 3559 1356 
Q 3559 666 3084 287 
Q 2609 -91 1734 -91 
Q 1441 -91 1130 -33 
Q 819 25 488 141 
L 488 750 
Q 750 597 1062 519 
Q 1375 441 1716 441 
Q 2309 441 2620 675 
Q 2931 909 2931 1356 
Q 2931 1769 2642 2001 
Q 2353 2234 1838 2234 
L 1294 2234 
L 1294 2753 
L 1863 2753 
Q 2328 2753 2575 2939 
Q 2822 3125 2822 3475 
Q 2822 3834 2567 4026 
Q 2313 4219 1838 4219 
Q 1578 4219 1281 4162 
Q 984 4106 628 3988 
L 628 4550 
Q 988 4650 1302 4700 
Q 1616 4750 1894 4750 
Q 2613 4750 3031 4423 
Q 3450 4097 3450 3541 
Q 3450 3153 3228 2886 
Q 3006 2619 2597 2516 
z
" transform="scale(0.015625)"/>
       <path id="SimHei-2f" d="M 3000 4550 
L 350 -175 
L 100 -25 
L 2750 4700 
L 3000 4550 
z
" transform="scale(0.015625)"/>
      </defs>
      <use xlink:href="#SimHei-6750" transform="translate(0 0.765625)"/>
      <use xlink:href="#SimHei-6599" transform="translate(100 0.765625)"/>
      <use xlink:href="#SimHei-53bb" transform="translate(200 0.765625)"/>
      <use xlink:href="#SimHei-9664" transform="translate(300 0.765625)"/>
      <use xlink:href="#SimHei-7387" transform="translate(400 0.765625)"/>
      <use xlink:href="#SimHei-20" transform="translate(500 0.765625)"/>
      <use xlink:href="#SimHei-4d" transform="translate(550 0.765625)"/>
      <use xlink:href="#SimHei-52" transform="translate(600 0.765625)"/>
      <use xlink:href="#SimHei-52" transform="translate(650 0.765625)"/>
      <use xlink:href="#SimHei-20" transform="translate(700 0.765625)"/>
      <use xlink:href="#SimHei-28" transform="translate(750 0.765625)"/>
      <use xlink:href="#SimHei-6d" transform="translate(800 0.765625)"/>
      <use xlink:href="#SimHei-6d" transform="translate(850 0.765625)"/>
      <use xlink:href="#DejaVuSans-33" transform="translate(900.957031 39.046875) scale(0.7)"/>
      <use xlink:href="#SimHei-2f" transform="translate(948.227539 0.765625)"/>
      <use xlink:href="#SimHei-73" transform="translate(998.227539 0.765625)"/>
      <use xlink:href="#SimHei-29" transform="translate(1048.227539 0.765625)"/>
     </g>
    </g>
   </g>
   <g id="line2d_27">
    <path d="M 230.873655 432.367049 
L 367.56792 432.367049 
L 367.56792 71.980203 
L 368.324977 87.679546 
L 370.057162 87.679546 
L 370.057162 432.367049 
L 370.897926 432.367049 
L 374.385621 432.367049 
L 374.409138 144.946169 
L 375.203009 432.367049 
L 390.33345 432.367049 
L 390.33345 409.842871 
L 391.090507 410.82408 
L 392.822692 410.82408 
L 392.822692 432.367049 
L 393.663457 432.367049 
L 397.151151 432.367049 
L 397.174669 414.403244 
L 397.96854 432.367049 
L 413.413924 432.367049 
L 413.413924 409.842871 
L 414.170981 410.82408 
L 415.903165 410.82408 
L 415.903165 432.367049 
L 416.74393 432.367049 
L 420.231624 432.367049 
L 420.255142 414.403244 
L 421.049013 432.367049 
L 436.80934 432.367049 
L 436.80934 409.842871 
L 437.566396 410.82408 
L 439.298581 410.82408 
L 439.298581 432.367049 
L 440.139346 432.367049 
L 443.62704 432.367049 
L 443.650558 414.403244 
L 444.444429 432.367049 
L 460.519698 432.367049 
L 460.519698 409.842871 
L 461.276755 410.82408 
L 463.00894 410.82408 
L 463.00894 432.367049 
L 463.849704 432.367049 
L 467.337399 432.367049 
L 467.360917 414.403244 
L 468.154788 432.367049 
L 484.545 432.367049 
L 484.545 409.842871 
L 485.302056 410.82408 
L 487.034241 410.82408 
L 487.034241 432.367049 
L 487.875006 432.367049 
L 491.3627 432.367049 
L 491.386218 414.403244 
L 492.180089 432.367049 
L 522.968988 432.367049 
L 523.039145 387.483663 
L 523.959492 432.367049 
L 523.984333 432.367049 
L 524.182187 406.540279 
L 524.690069 432.367049 
L 525.823525 432.367049 
L 526.033789 413.097434 
L 526.814029 432.367049 
L 526.838869 432.367049 
L 526.863366 428.292616 
L 527.544606 432.367049 
L 528.678062 432.367049 
L 528.888326 413.097434 
L 529.668566 432.367049 
L 529.693406 432.367049 
L 529.717903 428.292665 
L 530.399142 432.367049 
L 531.532599 432.367049 
L 531.742862 413.097434 
L 532.523103 432.367049 
L 532.547943 432.367049 
L 532.57244 428.292665 
L 533.253679 432.367049 
L 534.387136 432.367049 
L 534.597399 413.097434 
L 535.37764 432.367049 
L 535.40248 432.367049 
L 535.426977 428.292665 
L 536.108216 432.367049 
L 537.241673 432.367049 
L 537.451936 413.097434 
L 538.232177 432.367049 
L 538.257017 432.367049 
L 538.281514 428.292616 
L 538.962753 432.367049 
L 592.954105 432.367049 
L 592.973339 422.604699 
L 593.939376 432.367049 
L 594.362222 432.367049 
L 594.381456 422.604699 
L 595.347493 432.367049 
L 595.770339 432.367049 
L 595.789573 422.604699 
L 596.75561 432.367049 
L 597.178456 432.367049 
L 597.19769 422.604699 
L 598.163727 432.367049 
L 598.586573 432.367049 
L 598.605807 422.604699 
L 599.571845 432.367049 
L 599.994691 432.367049 
L 600.013925 422.604699 
L 600.74043 432.367049 
L 627.269416 432.367049 
L 627.86107 94.446259 
L 628.245836 119.767115 
L 628.341964 119.767115 
L 628.726525 90.320728 
L 629.303537 128.986094 
L 630.945488 128.986094 
L 630.945488 432.367049 
L 631.876512 432.367049 
L 632.12194 432.367049 
L 632.314323 411.247 
L 633.083496 412.286702 
L 633.179778 412.286702 
L 633.179778 410.989154 
L 633.75679 413.405739 
L 635.398741 413.405739 
L 635.398741 432.367049 
L 636.329765 432.367049 
L 636.575192 432.367049 
L 636.767575 411.247 
L 637.536748 412.286702 
L 637.63303 412.286702 
L 637.63303 410.989154 
L 638.210043 413.405739 
L 639.851994 413.405739 
L 639.851994 432.367049 
L 640.783017 432.367049 
L 641.028445 432.367049 
L 641.220828 411.247 
L 641.990001 412.286702 
L 642.086283 412.286702 
L 642.086283 410.989154 
L 642.663295 413.405739 
L 644.305246 413.405739 
L 644.305246 432.367049 
L 645.236269 432.367049 
L 645.481696 432.367049 
L 645.674079 411.247 
L 646.443252 412.286702 
L 646.539534 412.286702 
L 646.539534 410.989154 
L 647.116546 413.405739 
L 648.758498 413.405739 
L 648.758498 432.367049 
L 649.689521 432.367049 
L 649.934949 432.367049 
L 650.127332 411.247 
L 650.896505 412.286702 
L 650.992787 412.286702 
L 650.992787 410.989154 
L 651.569799 413.405739 
L 657.711182 413.405739 
L 657.711182 432.367049 
L 672.51612 431.452905 
L 672.906004 381.031877 
L 672.525683 432.367049 
L 673.483154 423.92812 
L 673.579281 423.92812 
L 673.579281 432.367049 
L 673.86756 214.040476 
L 674.540854 262.583515 
L 676.183039 262.583515 
L 676.183039 432.367049 
L 677.114511 431.882894 
L 677.360253 432.367049 
L 678.321809 418.721638 
L 678.610457 419.581372 
L 678.610457 422.27916 
L 678.995104 421.755578 
L 680.637288 421.755578 
L 680.637288 432.367049 
L 681.56876 431.882901 
L 681.814503 432.367049 
L 682.776059 418.721638 
L 683.064706 419.581372 
L 683.064706 422.27916 
L 683.449353 421.755578 
L 685.091537 421.755578 
L 685.091537 432.367049 
L 686.023009 431.882894 
L 686.268752 432.367049 
L 687.230308 418.721638 
L 687.518955 419.581372 
L 687.518955 422.27916 
L 687.903602 421.755578 
L 689.545787 421.755578 
L 689.545787 432.367049 
L 690.477259 431.882901 
L 690.723001 432.367049 
L 691.684557 418.721638 
L 691.973204 419.581372 
L 691.973204 422.27916 
L 692.357851 421.755578 
L 694.000036 421.755578 
L 694.000036 432.367049 
L 694.931508 431.882894 
L 695.17725 432.367049 
L 696.138806 418.721638 
L 696.427453 419.581372 
L 696.427453 422.27916 
L 696.8121 421.755578 
L 702.953483 421.755578 
L 702.953483 432.367049 
L 720.270875 432.367049 
L 721.237909 96.604856 
L 721.334036 96.604856 
L 722.103209 116.836382 
L 722.007082 94.194217 
L 722.295609 102.734374 
L 723.93756 102.734374 
L 723.93756 432.367049 
L 724.86873 432.367049 
L 725.114473 432.367049 
L 725.979901 411.241396 
L 726.076029 411.241396 
L 726.17231 411.241396 
L 726.556922 412.646382 
L 726.460795 411.231247 
L 726.749323 411.765007 
L 728.391274 411.765007 
L 728.391274 432.367049 
L 729.322444 432.367049 
L 729.568186 432.367049 
L 730.433615 411.241396 
L 730.529742 411.241396 
L 730.626024 411.241396 
L 731.010636 412.646382 
L 730.914509 411.231247 
L 731.203036 411.765007 
L 732.844987 411.765007 
L 732.844987 432.367049 
L 733.776157 432.367049 
L 734.021899 432.367049 
L 734.887328 411.241396 
L 734.983455 411.241396 
L 735.079737 411.241396 
L 735.464349 412.646382 
L 735.368222 411.231247 
L 735.65675 411.765007 
L 737.298701 411.765007 
L 737.298701 432.367049 
L 738.22987 432.367049 
L 738.475613 432.367049 
L 739.341042 411.241396 
L 739.437169 411.241396 
L 739.533451 411.241396 
L 739.918063 412.646382 
L 739.821935 411.231247 
L 740.110463 411.765007 
L 741.752414 411.765007 
L 741.752414 432.367049 
L 742.683584 432.367049 
L 742.929326 432.367049 
L 743.794755 411.241396 
L 743.890882 411.241396 
L 743.987164 411.241396 
L 744.371776 412.646382 
L 744.275649 411.231247 
L 744.564176 411.765007 
L 750.705559 411.765007 
L 750.705559 432.367049 
L 765.497294 432.135652 
L 765.89688 394.157874 
L 765.506996 432.367049 
L 766.474029 432.367049 
L 766.762309 432.367049 
L 766.954718 214.570634 
L 767.53173 277.462691 
L 769.173915 277.462691 
L 769.173915 432.367049 
L 770.104928 432.367049 
L 770.35067 432.367049 
L 771.312226 420.969633 
L 771.408508 420.969633 
L 771.408508 418.754773 
L 771.79312 424.740688 
L 771.98552 422.685526 
L 773.627705 422.685526 
L 773.627705 432.367049 
L 774.558718 432.367049 
L 774.80446 432.367049 
L 775.766016 420.969633 
L 775.862298 420.969633 
L 775.862298 418.754773 
L 776.24691 424.740688 
L 776.439311 422.685526 
L 778.081495 422.685526 
L 778.081495 432.367049 
L 779.012508 432.367049 
L 779.258251 432.367049 
L 780.219807 420.969633 
L 780.316088 420.969633 
L 780.316088 418.754773 
L 780.7007 424.740688 
L 780.893101 422.685526 
L 782.535285 422.685526 
L 782.535285 432.367049 
L 783.466298 432.367049 
L 783.712041 432.367049 
L 784.673597 420.969633 
L 784.769879 420.969633 
L 784.769879 418.754773 
L 785.154491 424.740688 
L 785.346891 422.685526 
L 786.989076 422.685526 
L 786.989076 432.367049 
L 787.920089 432.367049 
L 788.165831 432.367049 
L 789.127387 420.969633 
L 789.223669 420.969633 
L 789.223669 418.754773 
L 789.608281 424.740688 
L 789.800681 422.685526 
L 795.942064 422.685526 
L 795.942064 432.367049 
L 803.351091 432.367049 
L 803.351091 432.367049 
" clip-path="url(#p44ff14ae78)" style="fill: none; stroke: #000000; stroke-width: 0.5; stroke-linecap: square"/>
   </g>
   <g id="patch_22">
    <path d="M 50.44 450.386391 
L 50.44 53.960861 
" style="fill: none; stroke: #000000; stroke-width: 0.8; stroke-linejoin: miter; stroke-linecap: square"/>
   </g>
   <g id="patch_23">
    <path d="M 839.204 450.386391 
L 839.204 53.960861 
" style="fill: none; stroke: #000000; stroke-width: 0.8; stroke-linejoin: miter; stroke-linecap: square"/>
   </g>
   <g id="patch_24">
    <path d="M 50.44 450.386391 
L 839.204 450.386391 
" style="fill: none; stroke: #000000; stroke-width: 0.8; stroke-linejoin: miter; stroke-linecap: square"/>
   </g>
   <g id="patch_25">
    <path d="M 50.44 53.960861 
L 839.204 53.960861 
" style="fill: none; stroke: #000000; stroke-width: 0.8; stroke-linejoin: miter; stroke-linecap: square"/>
   </g>
   <g id="text_16">
    <!-- MRR稳态区间划分 (共19个区间) -->
    <g transform="translate(346.822 18.465625) scale(0.14 -0.14)">
     <defs>
      <path id="SimHei-7a33" d="M 4050 5125 
Q 3875 4975 3675 4625 
L 5325 4625 
Q 5200 4450 5062 4212 
Q 4925 3975 4800 3650 
L 5625 3650 
Q 5600 3350 5600 2600 
Q 5600 1875 5625 1425 
L 3425 1425 
Q 3075 1425 2750 1400 
L 2750 1850 
Q 3075 1825 3450 1825 
L 5100 1825 
L 5100 2375 
L 3550 2375 
Q 3175 2375 2875 2350 
L 2875 2775 
Q 3175 2750 3525 2750 
L 5100 2750 
L 5100 3275 
L 3775 3275 
Q 3350 3275 3050 3250 
L 3050 3650 
Q 2875 3425 2725 3200 
Q 2525 3400 2350 3475 
Q 2675 3875 2987 4412 
Q 3300 4950 3400 5300 
Q 3725 5200 4050 5125 
z
M 2500 4575 
Q 2275 4575 2012 4512 
Q 1750 4450 1625 4450 
L 1625 3350 
Q 1975 3350 2375 3375 
L 2375 2950 
Q 1925 2975 1625 2975 
L 1625 2225 
Q 1775 2325 1950 2500 
Q 2225 2100 2525 1600 
Q 2300 1500 2150 1350 
Q 1950 1725 1625 2175 
L 1625 400 
Q 1625 25 1650 -625 
L 1150 -625 
Q 1200 25 1200 400 
L 1200 2075 
Q 875 1250 475 650 
Q 375 925 175 1125 
Q 325 1250 650 1887 
Q 975 2525 1050 2975 
Q 750 2975 275 2950 
L 275 3375 
Q 750 3350 1200 3350 
L 1200 4325 
Q 950 4275 550 4200 
Q 475 4425 275 4625 
Q 750 4675 1237 4775 
Q 1725 4875 2125 5075 
Q 2275 4775 2500 4575 
z
M 3675 1025 
Q 3650 700 3650 300 
Q 3650 -75 3775 -100 
Q 3900 -125 4250 -125 
Q 4600 -125 4687 -100 
Q 4775 -75 4825 425 
Q 5025 275 5350 200 
Q 5150 -450 4950 -500 
Q 4750 -550 4175 -550 
Q 3625 -550 3425 -487 
Q 3225 -425 3225 -100 
L 3225 525 
Q 3225 775 3200 1025 
L 3675 1025 
z
M 3050 3675 
Q 3325 3650 3775 3650 
L 4275 3650 
Q 4450 4000 4575 4275 
L 3425 4275 
Q 3275 4050 3050 3675 
z
M 2925 900 
Q 2800 725 2700 287 
Q 2600 -150 2550 -300 
Q 2325 -200 2075 -175 
Q 2225 200 2275 412 
Q 2325 625 2425 1000 
L 2925 900 
z
M 5575 1100 
Q 5950 475 6175 50 
Q 5950 -25 5750 -175 
Q 5625 175 5200 925 
Q 5425 975 5575 1100 
z
M 4225 1300 
Q 4525 825 4625 525 
Q 4550 500 4250 350 
Q 4150 700 3850 1125 
Q 4050 1200 4225 1300 
z
" transform="scale(0.015625)"/>
      <path id="SimHei-6001" d="M 2575 4325 
Q 2700 4800 2725 5250 
Q 3075 5125 3350 5100 
Q 3225 4875 3100 4325 
L 5025 4325 
Q 5375 4325 5825 4375 
L 5825 3850 
Q 5350 3875 5000 3875 
L 3975 3875 
Q 4225 3300 4575 2987 
Q 4925 2675 5250 2525 
Q 5575 2375 6100 2275 
Q 5800 2075 5675 1775 
Q 4900 2100 4525 2412 
Q 4150 2725 3900 3075 
Q 3650 3425 3500 3875 
L 2975 3875 
Q 2675 3200 2187 2687 
Q 1700 2175 725 1625 
Q 650 1850 300 2075 
Q 900 2275 1512 2750 
Q 2125 3225 2425 3875 
L 1300 3875 
Q 900 3875 450 3850 
L 450 4375 
Q 875 4325 1300 4325 
L 2575 4325 
z
M 2525 1350 
Q 2500 875 2500 575 
Q 2500 300 2512 150 
Q 2525 0 2800 0 
L 3825 0 
Q 4025 -25 4175 62 
Q 4325 150 4400 625 
Q 4650 450 4975 375 
Q 4775 -150 4625 -312 
Q 4475 -475 4000 -450 
L 2500 -450 
Q 2050 -400 2012 -162 
Q 1975 75 1975 425 
Q 1975 800 1950 1350 
L 2525 1350 
z
M 1425 1175 
Q 1175 450 825 -325 
Q 625 -175 325 -125 
Q 775 625 875 1375 
Q 1175 1250 1425 1175 
z
M 5175 1525 
Q 5600 950 6050 350 
Q 5800 175 5600 0 
Q 5225 700 4750 1250 
Q 5000 1350 5175 1525 
z
M 2700 3050 
Q 3175 2675 3500 2325 
Q 3275 2175 3100 1975 
Q 2825 2350 2350 2700 
L 2700 3050 
z
M 3375 1750 
Q 3625 1350 3825 925 
Q 3625 800 3375 675 
Q 3200 1175 2950 1525 
Q 3175 1600 3375 1750 
z
" transform="scale(0.015625)"/>
      <path id="SimHei-533a" d="M 5850 4525 
Q 5475 4550 4850 4550 
L 1150 4550 
L 1150 -75 
L 5225 -75 
Q 5725 -75 6025 -50 
L 6025 -500 
Q 5700 -475 5175 -475 
L 625 -475 
Q 650 125 650 400 
L 650 4200 
Q 650 4625 625 4975 
L 5850 4975 
L 5850 4525 
z
M 2275 3875 
Q 3150 3275 3800 2700 
Q 4375 3375 4650 4050 
Q 4925 3875 5300 3700 
Q 5025 3525 4825 3225 
Q 4625 2925 4225 2375 
Q 5075 1675 5600 1000 
Q 5300 800 5175 575 
Q 4775 1175 3850 1950 
Q 3475 1525 3087 1175 
Q 2700 825 2125 400 
Q 1900 625 1625 775 
Q 2125 1000 2525 1312 
Q 2925 1625 3475 2300 
Q 2850 2875 1925 3450 
Q 2175 3650 2275 3875 
z
" transform="scale(0.015625)"/>
      <path id="SimHei-95f4" d="M 4450 3550 
Q 4425 3075 4425 2725 
L 4425 1400 
Q 4425 1075 4450 625 
L 1925 625 
Q 1950 1075 1950 1425 
L 1950 2725 
Q 1950 3075 1925 3550 
L 4450 3550 
z
M 5800 4875 
Q 5775 4400 5775 3925 
L 5775 250 
Q 5800 -325 5462 -450 
Q 5125 -575 4725 -625 
Q 4700 -325 4525 -25 
Q 5000 -50 5137 25 
Q 5275 100 5275 350 
L 5275 4450 
L 3775 4450 
Q 3175 4450 2650 4425 
L 2650 4900 
Q 3175 4875 3775 4875 
L 5800 4875 
z
M 550 -525 
Q 600 -25 600 525 
L 600 3150 
Q 600 3675 550 4025 
L 1125 4025 
Q 1100 3650 1100 3300 
L 1100 500 
Q 1100 0 1125 -525 
L 550 -525 
z
M 3950 1025 
L 3950 1950 
L 2425 1950 
L 2425 1025 
L 3950 1025 
z
M 3950 2350 
L 3950 3150 
L 2425 3150 
L 2425 2350 
L 3950 2350 
z
M 1525 5300 
Q 1750 5000 2225 4350 
Q 1950 4225 1700 4075 
Q 1450 4575 1075 5025 
Q 1350 5225 1525 5300 
z
" transform="scale(0.015625)"/>
      <path id="SimHei-5212" d="M 1625 5050 
Q 1600 4700 1625 4287 
Q 1650 3875 1700 3425 
Q 2425 3500 3550 3700 
L 3600 3225 
Q 2175 3050 1750 2975 
Q 1800 2650 1900 2200 
Q 2000 1750 2075 1600 
Q 2275 1800 2512 2112 
Q 2750 2425 2975 2850 
Q 3125 2675 3425 2500 
Q 3250 2300 2937 1912 
Q 2625 1525 2250 1125 
Q 2550 575 2887 275 
Q 3225 -25 3275 125 
Q 3325 275 3325 675 
Q 3575 500 3875 450 
Q 3750 -375 3525 -450 
Q 3300 -525 3100 -462 
Q 2900 -400 2675 -212 
Q 2450 -25 2250 237 
Q 2050 500 1875 800 
Q 1550 525 1250 300 
Q 950 75 525 -200 
Q 400 75 225 250 
Q 625 450 962 662 
Q 1300 875 1675 1225 
Q 1575 1575 1475 1912 
Q 1375 2250 1275 2875 
Q 850 2825 350 2725 
L 275 3250 
Q 700 3275 1225 3350 
Q 1175 3875 1137 4237 
Q 1100 4600 1050 5100 
Q 1275 5050 1625 5050 
z
M 5800 5000 
Q 5750 4650 5750 4250 
L 5750 150 
Q 5750 -325 5475 -425 
Q 5200 -525 4650 -575 
Q 4625 -275 4475 75 
Q 5050 25 5162 75 
Q 5275 125 5275 375 
L 5275 4250 
Q 5275 4625 5250 5000 
L 5800 5000 
z
M 4525 4175 
Q 4500 3775 4500 3475 
L 4500 1650 
Q 4500 1275 4525 775 
L 4000 775 
Q 4025 1150 4025 1650 
L 4025 3525 
Q 4025 3750 3975 4175 
L 4525 4175 
z
M 2650 5000 
Q 2925 4675 3275 4175 
Q 3075 4050 2850 3875 
Q 2550 4425 2275 4700 
Q 2475 4825 2650 5000 
z
" transform="scale(0.015625)"/>
      <path id="SimHei-5206" d="M 1000 -650 
Q 825 -375 575 -225 
Q 975 -75 1300 137 
Q 1625 350 1875 662 
Q 2125 975 2250 1350 
Q 2375 1725 2425 2275 
Q 1850 2275 1500 2250 
L 1500 2775 
Q 1900 2750 2525 2750 
L 5025 2750 
Q 4975 2375 4950 2100 
L 4750 250 
Q 4700 -200 4350 -350 
Q 4000 -500 3575 -525 
Q 3550 -275 3325 50 
Q 3850 25 4037 87 
Q 4225 150 4275 525 
L 4450 2275 
L 2950 2275 
Q 2875 1625 2737 1187 
Q 2600 750 2350 425 
Q 2100 100 1750 -175 
Q 1400 -450 1000 -650 
z
M 3950 5175 
Q 4125 4650 4662 3975 
Q 5200 3300 6175 2800 
Q 5975 2625 5775 2275 
Q 5325 2600 4987 2887 
Q 4650 3175 4425 3425 
Q 4200 3675 3925 4137 
Q 3650 4600 3475 5000 
Q 3750 5075 3950 5175 
z
M 2700 4825 
Q 2475 4425 2325 4125 
Q 2175 3825 2025 3587 
Q 1875 3350 1575 2950 
Q 1275 2550 850 2125 
Q 625 2350 400 2475 
Q 900 2925 1187 3300 
Q 1475 3675 1737 4112 
Q 2000 4550 2200 5075 
Q 2400 4925 2700 4825 
z
" transform="scale(0.015625)"/>
      <path id="SimHei-5171" d="M 2025 3700 
Q 2025 4700 2000 5000 
L 2600 5000 
Q 2550 4700 2550 3700 
L 3925 3700 
Q 3925 4725 3900 5025 
L 4500 5025 
Q 4450 4725 4450 3700 
L 4950 3700 
Q 5400 3700 5725 3725 
L 5725 3275 
Q 5400 3300 4950 3300 
L 4450 3300 
L 4450 1850 
L 5300 1850 
Q 5750 1850 6050 1875 
L 6050 1425 
Q 5775 1450 5325 1450 
L 1075 1450 
Q 600 1450 325 1425 
L 325 1875 
Q 600 1850 1075 1850 
L 2025 1850 
L 2025 3300 
L 1600 3300 
Q 1000 3300 700 3275 
L 700 3725 
Q 1025 3700 1625 3700 
L 2025 3700 
z
M 3925 1850 
L 3925 3300 
L 2550 3300 
L 2550 1850 
L 3925 1850 
z
M 2875 725 
Q 2525 550 1962 137 
Q 1400 -275 850 -525 
Q 675 -275 450 -100 
Q 975 125 1437 412 
Q 1900 700 2325 1125 
Q 2600 900 2875 725 
z
M 4050 1125 
Q 4350 950 4925 600 
Q 5500 250 5925 -100 
Q 5700 -275 5525 -500 
Q 5100 -175 4587 162 
Q 4075 500 3675 700 
Q 3875 900 4050 1125 
z
" transform="scale(0.015625)"/>
      <path id="SimHei-39" d="M 800 75 
Q 1350 1000 1700 1750 
Q 1075 1650 662 1912 
Q 250 2175 162 2625 
Q 75 3075 175 3437 
Q 275 3800 487 4037 
Q 700 4275 1000 4375 
Q 1300 4475 1537 4475 
Q 1775 4475 2025 4375 
Q 2275 4275 2475 4075 
Q 2675 3875 2750 3662 
Q 2825 3450 2825 3112 
Q 2825 2775 2575 2250 
Q 2325 1725 1350 75 
L 800 75 
z
M 662 2875 
Q 700 2550 937 2337 
Q 1175 2125 1450 2150 
Q 1725 2175 1887 2300 
Q 2050 2425 2200 2725 
Q 2300 3100 2250 3362 
Q 2200 3625 1987 3800 
Q 1775 3975 1525 3975 
Q 1375 4000 1137 3900 
Q 900 3800 762 3500 
Q 625 3200 662 2875 
z
" transform="scale(0.015625)"/>
      <path id="SimHei-4e2a" d="M 3425 4825 
Q 4475 3275 6150 2775 
Q 5900 2475 5775 2200 
Q 4150 2900 3150 4425 
Q 2225 2950 675 2125 
Q 550 2350 250 2600 
Q 1450 3100 2112 3875 
Q 2775 4650 3000 5275 
Q 3300 5150 3600 5050 
Q 3500 4925 3425 4825 
z
M 2925 2350 
Q 2925 2750 2875 3375 
L 3450 3375 
Q 3425 2950 3425 2325 
L 3425 550 
Q 3425 -25 3450 -625 
L 2900 -625 
Q 2925 0 2925 525 
L 2925 2350 
z
" transform="scale(0.015625)"/>
     </defs>
     <use xlink:href="#SimHei-4d"/>
     <use xlink:href="#SimHei-52" x="50"/>
     <use xlink:href="#SimHei-52" x="100"/>
     <use xlink:href="#SimHei-7a33" x="150"/>
     <use xlink:href="#SimHei-6001" x="250"/>
     <use xlink:href="#SimHei-533a" x="350"/>
     <use xlink:href="#SimHei-95f4" x="450"/>
     <use xlink:href="#SimHei-5212" x="550"/>
     <use xlink:href="#SimHei-5206" x="650"/>
     <use xlink:href="#SimHei-20" x="750"/>
     <use xlink:href="#SimHei-28" x="800"/>
     <use xlink:href="#SimHei-5171" x="850"/>
     <use xlink:href="#SimHei-31" x="950"/>
     <use xlink:href="#SimHei-39" x="1000"/>
     <use xlink:href="#SimHei-4e2a" x="1050"/>
     <use xlink:href="#SimHei-533a" x="1150"/>
     <use xlink:href="#SimHei-95f4" x="1250"/>
     <use xlink:href="#SimHei-29" x="1350"/>
    </g>
   </g>
   <g id="legend_1">
    <g id="patch_26">
     <path d="M 785.204 75.210861 
L 832.204 75.210861 
Q 834.204 75.210861 834.204 73.210861 
L 834.204 60.960861 
Q 834.204 58.960861 832.204 58.960861 
L 785.204 58.960861 
Q 783.204 58.960861 783.204 60.960861 
L 783.204 73.210861 
Q 783.204 75.210861 785.204 75.210861 
z
" style="fill: #ffffff; opacity: 0.8; stroke: #cccccc; stroke-linejoin: miter"/>
    </g>
    <g id="line2d_28">
     <path d="M 787.204 66.460861 
L 797.204 66.460861 
L 797.204 66.460861 
L 807.204 66.460861 
L 807.204 66.460861 
" style="fill: none; stroke: #000000; stroke-width: 0.5; stroke-linecap: square"/>
    </g>
    <g id="text_17">
     <!-- MRR -->
     <g transform="translate(815.204 69.960861) scale(0.1 -0.1)">
      <use xlink:href="#SimHei-4d"/>
      <use xlink:href="#SimHei-52" x="50"/>
      <use xlink:href="#SimHei-52" x="100"/>
     </g>
    </g>
   </g>
  </g>
  <g id="axes_2">
   <g id="matplotlib.axis_3">
    <g id="xtick_6">
     <g id="line2d_29">
      <defs>
       <path id="m0746b12b3e" d="M 0 0 
L 0 -3.5 
" style="stroke: #000000; stroke-width: 0.8"/>
      </defs>
      <g>
       <use xlink:href="#m0746b12b3e" x="230.873655" y="53.960861" style="stroke: #000000; stroke-width: 0.8"/>
      </g>
     </g>
     <g id="text_18">
      <!-- N0 -->
      <g transform="translate(234.762742 46.253754) rotate(-45) scale(0.08 -0.08)">
       <defs>
        <path id="SimHei-4e" d="M 2850 125 
L 2225 125 
L 850 3225 
L 825 3225 
L 825 125 
L 250 125 
L 250 4400 
L 875 4400 
L 2250 1300 
L 2275 1300 
L 2275 4400 
L 2850 4400 
L 2850 125 
z
" transform="scale(0.015625)"/>
       </defs>
       <use xlink:href="#SimHei-4e"/>
       <use xlink:href="#SimHei-30" x="50"/>
      </g>
     </g>
    </g>
    <g id="xtick_7">
     <g id="line2d_30">
      <g>
       <use xlink:href="#m0746b12b3e" x="440.065077" y="53.960861" style="stroke: #000000; stroke-width: 0.8"/>
      </g>
     </g>
     <g id="text_19">
      <!-- N0 -->
      <g transform="translate(443.954164 46.253754) rotate(-45) scale(0.08 -0.08)">
       <use xlink:href="#SimHei-4e"/>
       <use xlink:href="#SimHei-30" x="50"/>
      </g>
     </g>
    </g>
    <g id="xtick_8">
     <g id="line2d_31">
      <g>
       <use xlink:href="#m0746b12b3e" x="516.900598" y="53.960861" style="stroke: #000000; stroke-width: 0.8"/>
      </g>
     </g>
     <g id="text_20">
      <!-- N0 -->
      <g transform="translate(520.789685 46.253754) rotate(-45) scale(0.08 -0.08)">
       <use xlink:href="#SimHei-4e"/>
       <use xlink:href="#SimHei-30" x="50"/>
      </g>
     </g>
    </g>
    <g id="xtick_9">
     <g id="line2d_32">
      <g>
       <use xlink:href="#m0746b12b3e" x="529.940456" y="53.960861" style="stroke: #000000; stroke-width: 0.8"/>
      </g>
     </g>
     <g id="text_21">
      <!-- N0 -->
      <g transform="translate(533.829544 46.253754) rotate(-45) scale(0.08 -0.08)">
       <use xlink:href="#SimHei-4e"/>
       <use xlink:href="#SimHei-30" x="50"/>
      </g>
     </g>
    </g>
    <g id="xtick_10">
     <g id="line2d_33">
      <g>
       <use xlink:href="#m0746b12b3e" x="583.783924" y="53.960861" style="stroke: #000000; stroke-width: 0.8"/>
      </g>
     </g>
     <g id="text_22">
      <!-- N0 -->
      <g transform="translate(587.673011 46.253754) rotate(-45) scale(0.08 -0.08)">
       <use xlink:href="#SimHei-4e"/>
       <use xlink:href="#SimHei-30" x="50"/>
      </g>
     </g>
    </g>
    <g id="xtick_11">
     <g id="line2d_34">
      <g>
       <use xlink:href="#m0746b12b3e" x="593.514721" y="53.960861" style="stroke: #000000; stroke-width: 0.8"/>
      </g>
     </g>
     <g id="text_23">
      <!-- N0 -->
      <g transform="translate(597.403808 46.253754) rotate(-45) scale(0.08 -0.08)">
       <use xlink:href="#SimHei-4e"/>
       <use xlink:href="#SimHei-30" x="50"/>
      </g>
     </g>
    </g>
    <g id="xtick_12">
     <g id="line2d_35">
      <g>
       <use xlink:href="#m0746b12b3e" x="598.576805" y="53.960861" style="stroke: #000000; stroke-width: 0.8"/>
      </g>
     </g>
     <g id="text_24">
      <!-- N0 -->
      <g transform="translate(602.465892 46.253754) rotate(-45) scale(0.08 -0.08)">
       <use xlink:href="#SimHei-4e"/>
       <use xlink:href="#SimHei-30" x="50"/>
      </g>
     </g>
    </g>
    <g id="xtick_13">
     <g id="line2d_36">
      <g>
       <use xlink:href="#m0746b12b3e" x="625.387126" y="53.960861" style="stroke: #000000; stroke-width: 0.8"/>
      </g>
     </g>
     <g id="text_25">
      <!-- N0 -->
      <g transform="translate(629.276213 46.253754) rotate(-45) scale(0.08 -0.08)">
       <use xlink:href="#SimHei-4e"/>
       <use xlink:href="#SimHei-30" x="50"/>
      </g>
     </g>
    </g>
    <g id="xtick_14">
     <g id="line2d_37">
      <g>
       <use xlink:href="#m0746b12b3e" x="662.825186" y="53.960861" style="stroke: #000000; stroke-width: 0.8"/>
      </g>
     </g>
     <g id="text_26">
      <!-- N0 -->
      <g transform="translate(666.714273 46.253754) rotate(-45) scale(0.08 -0.08)">
       <use xlink:href="#SimHei-4e"/>
       <use xlink:href="#SimHei-30" x="50"/>
      </g>
     </g>
    </g>
    <g id="xtick_15">
     <g id="line2d_38">
      <g>
       <use xlink:href="#m0746b12b3e" x="691.203869" y="53.960861" style="stroke: #000000; stroke-width: 0.8"/>
      </g>
     </g>
     <g id="text_27">
      <!-- N0 -->
      <g transform="translate(695.092956 46.253754) rotate(-45) scale(0.08 -0.08)">
       <use xlink:href="#SimHei-4e"/>
       <use xlink:href="#SimHei-30" x="50"/>
      </g>
     </g>
    </g>
    <g id="xtick_16">
     <g id="line2d_39">
      <g>
       <use xlink:href="#m0746b12b3e" x="726.749323" y="53.960861" style="stroke: #000000; stroke-width: 0.8"/>
      </g>
     </g>
     <g id="text_28">
      <!-- N0 -->
      <g transform="translate(730.63841 46.253754) rotate(-45) scale(0.08 -0.08)">
       <use xlink:href="#SimHei-4e"/>
       <use xlink:href="#SimHei-30" x="50"/>
      </g>
     </g>
    </g>
    <g id="xtick_17">
     <g id="line2d_40">
      <g>
       <use xlink:href="#m0746b12b3e" x="762.391186" y="53.960861" style="stroke: #000000; stroke-width: 0.8"/>
      </g>
     </g>
     <g id="text_29">
      <!-- N0 -->
      <g transform="translate(766.280273 46.253754) rotate(-45) scale(0.08 -0.08)">
       <use xlink:href="#SimHei-4e"/>
       <use xlink:href="#SimHei-30" x="50"/>
      </g>
     </g>
    </g>
    <g id="xtick_18">
     <g id="line2d_41">
      <g>
       <use xlink:href="#m0746b12b3e" x="789.800681" y="53.960861" style="stroke: #000000; stroke-width: 0.8"/>
      </g>
     </g>
     <g id="text_30">
      <!-- N0 -->
      <g transform="translate(793.689769 46.253754) rotate(-45) scale(0.08 -0.08)">
       <use xlink:href="#SimHei-4e"/>
       <use xlink:href="#SimHei-30" x="50"/>
      </g>
     </g>
    </g>
    <g id="text_31">
     <!-- 指令行号 N -->
     <g transform="translate(419.822 32.707812) scale(0.1 -0.1)">
      <defs>
       <path id="SimHei-6307" d="M 5625 2225 
Q 5600 1925 5600 1350 
L 5600 300 
Q 5600 -225 5625 -525 
L 5125 -525 
L 5125 -125 
L 3300 -125 
L 3300 -625 
L 2800 -625 
Q 2825 -300 2825 300 
L 2825 1350 
Q 2825 1925 2800 2225 
L 5625 2225 
z
M 500 25 
Q 1075 -25 1175 37 
Q 1275 100 1275 275 
L 1275 1675 
Q 1050 1600 925 1537 
Q 800 1475 475 1275 
Q 400 1525 225 1800 
Q 625 1900 825 1975 
Q 1025 2050 1275 2125 
L 1275 3300 
L 1100 3300 
Q 775 3300 450 3275 
L 450 3725 
Q 750 3700 1100 3700 
L 1275 3700 
L 1275 4450 
Q 1275 4800 1250 5125 
L 1775 5125 
Q 1750 4850 1750 4450 
L 1750 3700 
Q 2075 3700 2425 3725 
L 2425 3275 
Q 2050 3300 1750 3300 
L 1750 2325 
Q 1850 2350 2025 2425 
L 2375 2575 
Q 2350 2300 2375 2100 
Q 2225 2050 2062 1987 
Q 1900 1925 1750 1850 
L 1750 100 
Q 1725 -200 1575 -337 
Q 1425 -475 675 -525 
Q 625 -250 500 25 
z
M 3325 5025 
Q 3300 4675 3300 4125 
Q 4125 4275 4512 4412 
Q 4900 4550 5225 4725 
Q 5325 4475 5575 4250 
Q 5450 4225 5237 4175 
Q 5025 4125 4725 4050 
Q 4425 3975 4037 3887 
Q 3650 3800 3300 3725 
L 3300 3175 
Q 3275 2925 3700 2925 
L 4925 2925 
Q 5300 2925 5387 3087 
Q 5475 3250 5550 3600 
Q 5750 3400 6050 3300 
Q 5825 2725 5700 2637 
Q 5575 2550 5275 2525 
L 3350 2525 
Q 3050 2525 2937 2687 
Q 2825 2850 2825 2975 
L 2825 4125 
Q 2825 4775 2800 5025 
L 3325 5025 
z
M 5125 275 
L 5125 875 
L 3300 875 
L 3300 275 
L 5125 275 
z
M 5125 1250 
L 5125 1825 
L 3300 1825 
L 3300 1250 
L 5125 1250 
z
" transform="scale(0.015625)"/>
       <path id="SimHei-4ee4" d="M 5375 2075 
L 5375 1550 
Q 4925 1325 4450 937 
Q 3975 550 3575 125 
L 4250 -325 
Q 4050 -550 3875 -775 
Q 3100 -125 1850 425 
L 2150 875 
Q 2400 775 3125 350 
Q 3800 1025 4450 1625 
L 2025 1625 
Q 1500 1625 975 1600 
L 975 2100 
Q 1525 2075 2025 2075 
L 5375 2075 
z
M 3375 4850 
Q 4450 3550 6200 2900 
Q 5950 2625 5800 2350 
Q 4150 3150 3100 4475 
Q 2075 3125 625 2225 
Q 400 2525 200 2700 
Q 875 2975 1675 3675 
Q 2475 4375 2950 5300 
Q 3275 5175 3550 5050 
Q 3475 5000 3375 4850 
z
M 2925 3600 
Q 3175 3350 3750 2725 
L 3300 2325 
Q 3050 2700 2550 3225 
Q 2750 3375 2925 3600 
z
" transform="scale(0.015625)"/>
       <path id="SimHei-53f7" d="M 5025 4925 
Q 5000 4550 5000 4075 
Q 5000 3600 5025 3175 
L 1400 3175 
Q 1425 3525 1425 4000 
Q 1425 4500 1400 4925 
L 5025 4925 
z
M 5175 2625 
Q 5650 2625 6025 2650 
L 6025 2200 
Q 5650 2225 5175 2225 
L 2450 2225 
Q 2350 1875 2225 1450 
L 5175 1450 
Q 5100 1050 5062 775 
Q 5025 500 4950 112 
Q 4875 -275 4650 -412 
Q 4425 -550 3225 -625 
Q 3125 -350 2975 -50 
Q 3875 -75 4112 -50 
Q 4350 -25 4425 212 
Q 4500 450 4575 1025 
L 1600 1025 
Q 1825 1625 1950 2225 
L 1350 2225 
Q 825 2225 375 2200 
L 375 2650 
Q 825 2625 1350 2625 
L 5175 2625 
z
M 4525 3575 
L 4525 4525 
L 1900 4525 
L 1900 3575 
L 4525 3575 
z
" transform="scale(0.015625)"/>
      </defs>
      <use xlink:href="#SimHei-6307"/>
      <use xlink:href="#SimHei-4ee4" x="100"/>
      <use xlink:href="#SimHei-884c" x="200"/>
      <use xlink:href="#SimHei-53f7" x="300"/>
      <use xlink:href="#SimHei-20" x="400"/>
      <use xlink:href="#SimHei-4e" x="450"/>
     </g>
    </g>
   </g>
   <g id="patch_27">
    <path d="M 50.44 450.386391 
L 50.44 53.960861 
" style="fill: none; stroke: #000000; stroke-width: 0.8; stroke-linejoin: miter; stroke-linecap: square"/>
   </g>
   <g id="patch_28">
    <path d="M 839.204 450.386391 
L 839.204 53.960861 
" style="fill: none; stroke: #000000; stroke-width: 0.8; stroke-linejoin: miter; stroke-linecap: square"/>
   </g>
   <g id="patch_29">
    <path d="M 50.44 450.386391 
L 839.204 450.386391 
" style="fill: none; stroke: #000000; stroke-width: 0.8; stroke-linejoin: miter; stroke-linecap: square"/>
   </g>
   <g id="patch_30">
    <path d="M 50.44 53.960861 
L 839.204 53.960861 
" style="fill: none; stroke: #000000; stroke-width: 0.8; stroke-linejoin: miter; stroke-linecap: square"/>
   </g>
  </g>
 </g>
 <defs>
  <clipPath id="p44ff14ae78">
   <rect x="50.44" y="53.960861" width="788.764" height="396.42553"/>
  </clipPath>
 </defs>
</svg>
