<?xml version="1.0" encoding="utf-8" standalone="no"?>
<!DOCTYPE svg PUBLIC "-//W3C//DTD SVG 1.1//EN"
  "http://www.w3.org/Graphics/SVG/1.1/DTD/svg11.dtd">
<svg xmlns:xlink="http://www.w3.org/1999/xlink" width="846.404pt" height="488.216704pt" viewBox="0 0 846.404 488.216704" xmlns="http://www.w3.org/2000/svg" version="1.1">
 <metadata>
  <rdf:RDF xmlns:dc="http://purl.org/dc/elements/1.1/" xmlns:cc="http://creativecommons.org/ns#" xmlns:rdf="http://www.w3.org/1999/02/22-rdf-syntax-ns#">
   <cc:Work>
    <dc:type rdf:resource="http://purl.org/dc/dcmitype/StillImage"/>
    <dc:date>2025-12-10T15:20:52.427346</dc:date>
    <dc:format>image/svg+xml</dc:format>
    <dc:creator>
     <cc:Agent>
      <dc:title>Matplotlib v3.9.2, https://matplotlib.org/</dc:title>
     </cc:Agent>
    </dc:creator>
   </cc:Work>
  </rdf:RDF>
 </metadata>
 <defs>
  <style type="text/css">*{stroke-linejoin: round; stroke-linecap: butt}</style>
 </defs>
 <g id="figure_1">
  <g id="patch_1">
   <path d="M 0 488.216704 
L 846.404 488.216704 
L 846.404 0 
L 0 0 
z
" style="fill: #ffffff"/>
  </g>
  <g id="axes_1">
   <g id="patch_2">
    <path d="M 50.44 450.688579 
L 839.204 450.688579 
L 839.204 54.015548 
L 50.44 54.015548 
z
" style="fill: #ffffff"/>
   </g>
   <g id="matplotlib.axis_1">
    <g id="xtick_1">
     <g id="line2d_1">
      <path d="M 102.439071 450.688579 
L 102.439071 54.015548 
" clip-path="url(#pf4224f0fb5)" style="fill: none; stroke-dasharray: 2.96,1.28; stroke-dashoffset: 0; stroke: #b0b0b0; stroke-opacity: 0.7; stroke-width: 0.8"/>
     </g>
     <g id="line2d_2">
      <defs>
       <path id="md7615f914b" d="M 0 0 
L 0 3.5 
" style="stroke: #000000; stroke-width: 0.8"/>
      </defs>
      <g>
       <use xlink:href="#md7615f914b" x="102.439071" y="450.688579" style="stroke: #000000; stroke-width: 0.8"/>
      </g>
     </g>
     <g id="text_1">
      <!-- 500 -->
      <g transform="translate(94.939071 464.563579) scale(0.1 -0.1)">
       <defs>
        <path id="SimHei-35" d="M 550 1325 
Q 725 650 1150 575 
Q 1575 500 1837 662 
Q 2100 825 2212 1087 
Q 2325 1350 2312 1675 
Q 2300 2000 2137 2225 
Q 1975 2450 1725 2525 
Q 1475 2600 1162 2525 
Q 850 2450 650 2175 
L 225 2225 
Q 275 2375 700 4375 
L 2675 4375 
L 2675 3925 
L 1075 3925 
Q 950 3250 825 2850 
Q 1200 3025 1525 3012 
Q 1850 3000 2150 2862 
Q 2450 2725 2587 2487 
Q 2725 2250 2787 2012 
Q 2850 1775 2837 1500 
Q 2825 1225 2725 937 
Q 2625 650 2425 462 
Q 2225 275 1937 162 
Q 1650 50 1275 75 
Q 900 100 562 350 
Q 225 600 100 1200 
L 550 1325 
z
" transform="scale(0.015625)"/>
        <path id="SimHei-30" d="M 225 2537 
Q 250 3200 412 3587 
Q 575 3975 875 4225 
Q 1175 4475 1612 4475 
Q 2050 4475 2375 4112 
Q 2700 3750 2800 3200 
Q 2900 2650 2862 1937 
Q 2825 1225 2612 775 
Q 2400 325 1975 150 
Q 1550 -25 1125 187 
Q 700 400 525 750 
Q 350 1100 275 1487 
Q 200 1875 225 2537 
z
M 750 2687 
Q 675 2000 800 1462 
Q 925 925 1212 700 
Q 1500 475 1800 612 
Q 2100 750 2237 1162 
Q 2375 1575 2375 2062 
Q 2375 2550 2337 2950 
Q 2300 3350 2112 3675 
Q 1925 4000 1612 4012 
Q 1300 4025 1062 3700 
Q 825 3375 750 2687 
z
" transform="scale(0.015625)"/>
       </defs>
       <use xlink:href="#SimHei-35"/>
       <use xlink:href="#SimHei-30" x="50"/>
       <use xlink:href="#SimHei-30" x="100"/>
      </g>
     </g>
    </g>
    <g id="xtick_2">
     <g id="line2d_3">
      <path d="M 201.059657 450.688579 
L 201.059657 54.015548 
" clip-path="url(#pf4224f0fb5)" style="fill: none; stroke-dasharray: 2.96,1.28; stroke-dashoffset: 0; stroke: #b0b0b0; stroke-opacity: 0.7; stroke-width: 0.8"/>
     </g>
     <g id="line2d_4">
      <g>
       <use xlink:href="#md7615f914b" x="201.059657" y="450.688579" style="stroke: #000000; stroke-width: 0.8"/>
      </g>
     </g>
     <g id="text_2">
      <!-- 750 -->
      <g transform="translate(193.559657 464.563579) scale(0.1 -0.1)">
       <defs>
        <path id="SimHei-37" d="M 850 150 
Q 1300 2050 2425 3925 
L 275 3925 
L 275 4375 
L 2950 4375 
L 2950 3950 
Q 1775 2050 1400 150 
L 850 150 
z
" transform="scale(0.015625)"/>
       </defs>
       <use xlink:href="#SimHei-37"/>
       <use xlink:href="#SimHei-35" x="50"/>
       <use xlink:href="#SimHei-30" x="100"/>
      </g>
     </g>
    </g>
    <g id="xtick_3">
     <g id="line2d_5">
      <path d="M 299.680243 450.688579 
L 299.680243 54.015548 
" clip-path="url(#pf4224f0fb5)" style="fill: none; stroke-dasharray: 2.96,1.28; stroke-dashoffset: 0; stroke: #b0b0b0; stroke-opacity: 0.7; stroke-width: 0.8"/>
     </g>
     <g id="line2d_6">
      <g>
       <use xlink:href="#md7615f914b" x="299.680243" y="450.688579" style="stroke: #000000; stroke-width: 0.8"/>
      </g>
     </g>
     <g id="text_3">
      <!-- 1000 -->
      <g transform="translate(289.680243 464.563579) scale(0.1 -0.1)">
       <defs>
        <path id="SimHei-31" d="M 1400 3600 
Q 1075 3275 575 2975 
L 575 3450 
Q 1200 3875 1600 4450 
L 1900 4450 
L 1900 150 
L 1400 150 
L 1400 3600 
z
" transform="scale(0.015625)"/>
       </defs>
       <use xlink:href="#SimHei-31"/>
       <use xlink:href="#SimHei-30" x="50"/>
       <use xlink:href="#SimHei-30" x="100"/>
       <use xlink:href="#SimHei-30" x="150"/>
      </g>
     </g>
    </g>
    <g id="xtick_4">
     <g id="line2d_7">
      <path d="M 398.300829 450.688579 
L 398.300829 54.015548 
" clip-path="url(#pf4224f0fb5)" style="fill: none; stroke-dasharray: 2.96,1.28; stroke-dashoffset: 0; stroke: #b0b0b0; stroke-opacity: 0.7; stroke-width: 0.8"/>
     </g>
     <g id="line2d_8">
      <g>
       <use xlink:href="#md7615f914b" x="398.300829" y="450.688579" style="stroke: #000000; stroke-width: 0.8"/>
      </g>
     </g>
     <g id="text_4">
      <!-- 1250 -->
      <g transform="translate(388.300829 464.563579) scale(0.1 -0.1)">
       <defs>
        <path id="SimHei-32" d="M 300 250 
Q 325 625 650 925 
Q 975 1225 1475 1862 
Q 1975 2500 2125 2850 
Q 2275 3200 2237 3450 
Q 2200 3700 2000 3862 
Q 1800 4025 1537 4000 
Q 1275 3975 1037 3800 
Q 800 3625 675 3275 
L 200 3350 
Q 400 3925 712 4187 
Q 1025 4450 1450 4475 
Q 1700 4500 1900 4462 
Q 2100 4425 2312 4287 
Q 2525 4150 2662 3875 
Q 2800 3600 2762 3212 
Q 2725 2825 2375 2287 
Q 2025 1750 1025 600 
L 2825 600 
L 2825 150 
L 300 150 
L 300 250 
z
" transform="scale(0.015625)"/>
       </defs>
       <use xlink:href="#SimHei-31"/>
       <use xlink:href="#SimHei-32" x="50"/>
       <use xlink:href="#SimHei-35" x="100"/>
       <use xlink:href="#SimHei-30" x="150"/>
      </g>
     </g>
    </g>
    <g id="xtick_5">
     <g id="line2d_9">
      <path d="M 496.921415 450.688579 
L 496.921415 54.015548 
" clip-path="url(#pf4224f0fb5)" style="fill: none; stroke-dasharray: 2.96,1.28; stroke-dashoffset: 0; stroke: #b0b0b0; stroke-opacity: 0.7; stroke-width: 0.8"/>
     </g>
     <g id="line2d_10">
      <g>
       <use xlink:href="#md7615f914b" x="496.921415" y="450.688579" style="stroke: #000000; stroke-width: 0.8"/>
      </g>
     </g>
     <g id="text_5">
      <!-- 1500 -->
      <g transform="translate(486.921415 464.563579) scale(0.1 -0.1)">
       <use xlink:href="#SimHei-31"/>
       <use xlink:href="#SimHei-35" x="50"/>
       <use xlink:href="#SimHei-30" x="100"/>
       <use xlink:href="#SimHei-30" x="150"/>
      </g>
     </g>
    </g>
    <g id="xtick_6">
     <g id="line2d_11">
      <path d="M 595.542 450.688579 
L 595.542 54.015548 
" clip-path="url(#pf4224f0fb5)" style="fill: none; stroke-dasharray: 2.96,1.28; stroke-dashoffset: 0; stroke: #b0b0b0; stroke-opacity: 0.7; stroke-width: 0.8"/>
     </g>
     <g id="line2d_12">
      <g>
       <use xlink:href="#md7615f914b" x="595.542" y="450.688579" style="stroke: #000000; stroke-width: 0.8"/>
      </g>
     </g>
     <g id="text_6">
      <!-- 1750 -->
      <g transform="translate(585.542 464.563579) scale(0.1 -0.1)">
       <use xlink:href="#SimHei-31"/>
       <use xlink:href="#SimHei-37" x="50"/>
       <use xlink:href="#SimHei-35" x="100"/>
       <use xlink:href="#SimHei-30" x="150"/>
      </g>
     </g>
    </g>
    <g id="xtick_7">
     <g id="line2d_13">
      <path d="M 694.162586 450.688579 
L 694.162586 54.015548 
" clip-path="url(#pf4224f0fb5)" style="fill: none; stroke-dasharray: 2.96,1.28; stroke-dashoffset: 0; stroke: #b0b0b0; stroke-opacity: 0.7; stroke-width: 0.8"/>
     </g>
     <g id="line2d_14">
      <g>
       <use xlink:href="#md7615f914b" x="694.162586" y="450.688579" style="stroke: #000000; stroke-width: 0.8"/>
      </g>
     </g>
     <g id="text_7">
      <!-- 2000 -->
      <g transform="translate(684.162586 464.563579) scale(0.1 -0.1)">
       <use xlink:href="#SimHei-32"/>
       <use xlink:href="#SimHei-30" x="50"/>
       <use xlink:href="#SimHei-30" x="100"/>
       <use xlink:href="#SimHei-30" x="150"/>
      </g>
     </g>
    </g>
    <g id="xtick_8">
     <g id="line2d_15">
      <path d="M 792.783172 450.688579 
L 792.783172 54.015548 
" clip-path="url(#pf4224f0fb5)" style="fill: none; stroke-dasharray: 2.96,1.28; stroke-dashoffset: 0; stroke: #b0b0b0; stroke-opacity: 0.7; stroke-width: 0.8"/>
     </g>
     <g id="line2d_16">
      <g>
       <use xlink:href="#md7615f914b" x="792.783172" y="450.688579" style="stroke: #000000; stroke-width: 0.8"/>
      </g>
     </g>
     <g id="text_8">
      <!-- 2250 -->
      <g transform="translate(782.783172 464.563579) scale(0.1 -0.1)">
       <use xlink:href="#SimHei-32"/>
       <use xlink:href="#SimHei-32" x="50"/>
       <use xlink:href="#SimHei-35" x="100"/>
       <use xlink:href="#SimHei-30" x="150"/>
      </g>
     </g>
    </g>
    <g id="text_9">
     <!-- 行程 s (mm) -->
     <g transform="translate(411.822 479.516704) scale(0.12 -0.12)">
      <defs>
       <path id="SimHei-884c" d="M 5300 3100 
Q 5775 3100 6175 3125 
L 6175 2625 
Q 5775 2650 5325 2650 
L 4975 2650 
L 4975 -75 
Q 5000 -375 4787 -487 
Q 4575 -600 3950 -675 
Q 3900 -375 3675 -75 
Q 4100 -125 4275 -112 
Q 4450 -100 4475 150 
L 4475 2650 
L 3475 2650 
Q 3000 2650 2575 2625 
L 2575 3125 
Q 3025 3100 3475 3100 
L 5300 3100 
z
M 2300 3400 
Q 2075 3275 1962 3075 
Q 1850 2875 1650 2575 
L 1650 325 
Q 1650 0 1675 -675 
L 1150 -675 
Q 1175 75 1175 450 
L 1175 2050 
Q 950 1675 575 1300 
Q 400 1550 250 1725 
Q 825 2275 1150 2775 
Q 1475 3275 1725 3725 
Q 1975 3575 2300 3400 
z
M 4875 4800 
Q 5300 4800 5750 4825 
L 5750 4350 
Q 5300 4375 4825 4375 
L 3900 4375 
Q 3350 4375 2950 4350 
L 2950 4825 
Q 3350 4800 3900 4800 
L 4875 4800 
z
M 2075 4925 
Q 1875 4900 1550 4387 
Q 1225 3875 650 3250 
Q 500 3450 325 3625 
Q 725 4025 1050 4487 
Q 1375 4950 1525 5300 
Q 1775 5150 2075 4925 
z
" transform="scale(0.015625)"/>
       <path id="SimHei-7a0b" d="M 5825 4975 
Q 5800 4425 5800 3975 
Q 5800 3550 5825 3125 
L 3025 3125 
Q 3050 3600 3050 4025 
Q 3050 4450 3025 4975 
L 5825 4975 
z
M 400 4825 
Q 825 4875 1362 4987 
Q 1900 5100 2275 5275 
Q 2450 4950 2625 4725 
Q 2450 4750 2262 4712 
Q 2075 4675 1850 4650 
L 1850 3425 
Q 2200 3425 2600 3450 
L 2600 2975 
Q 2200 3000 1850 3000 
L 1850 800 
Q 1850 250 1875 -675 
L 1375 -675 
Q 1400 250 1400 775 
L 1400 1925 
Q 1050 1225 625 600 
Q 450 850 225 1050 
Q 575 1400 850 1850 
Q 1125 2300 1350 3000 
Q 725 3000 425 2975 
L 425 3450 
Q 850 3425 1050 3425 
L 1400 3425 
L 1400 4550 
Q 1075 4475 575 4400 
Q 500 4625 400 4825 
z
M 5100 2500 
Q 5500 2500 5950 2525 
L 5950 2075 
Q 5500 2100 5100 2100 
L 4625 2100 
L 4625 1300 
L 4900 1300 
Q 5275 1300 5775 1325 
L 5775 850 
Q 5275 875 4975 875 
L 4625 875 
L 4625 0 
L 5225 0 
Q 5675 0 6175 25 
L 6175 -450 
Q 5775 -425 5225 -425 
L 3550 -425 
Q 3000 -425 2600 -475 
L 2600 25 
Q 3000 0 3550 0 
L 4150 0 
L 4150 875 
L 3800 875 
Q 3400 875 3050 825 
L 3050 1325 
Q 3400 1300 3800 1300 
L 4150 1300 
L 4150 2100 
L 3750 2100 
Q 3300 2100 2900 2075 
L 2900 2525 
Q 3300 2500 3750 2500 
L 5100 2500 
z
M 5275 3575 
L 5275 4550 
L 3500 4550 
L 3500 3575 
L 5275 3575 
z
M 2300 2400 
Q 2550 2025 2825 1525 
Q 2675 1425 2425 1225 
Q 2175 1775 1925 2125 
Q 2075 2250 2300 2400 
z
" transform="scale(0.015625)"/>
       <path id="SimHei-20" transform="scale(0.015625)"/>
       <path id="SimHei-73" d="M 2750 900 
Q 2750 500 2437 287 
Q 2125 75 1650 75 
Q 1050 75 725 312 
Q 400 550 400 1000 
L 900 1000 
Q 900 700 1112 600 
Q 1325 500 1625 500 
Q 1925 500 2075 612 
Q 2225 725 2225 900 
Q 2225 1025 2100 1150 
Q 1975 1275 1475 1350 
Q 900 1425 687 1637 
Q 475 1850 475 2200 
Q 475 2500 762 2737 
Q 1050 2975 1600 2975 
Q 2100 2975 2387 2750 
Q 2675 2525 2675 2150 
L 2175 2150 
Q 2175 2375 2012 2462 
Q 1850 2550 1600 2550 
Q 1275 2550 1137 2437 
Q 1000 2325 1000 2175 
Q 1000 2000 1125 1900 
Q 1250 1800 1650 1750 
Q 2300 1650 2525 1437 
Q 2750 1225 2750 900 
z
" transform="scale(0.015625)"/>
       <path id="SimHei-28" d="M 2975 -200 
L 2700 -475 
Q 2075 125 1762 775 
Q 1450 1425 1450 2250 
Q 1450 3075 1762 3725 
Q 2075 4375 2700 5000 
L 2975 4725 
Q 2400 4175 2112 3587 
Q 1825 3000 1825 2250 
Q 1825 1500 2112 912 
Q 2400 325 2975 -200 
z
" transform="scale(0.015625)"/>
       <path id="SimHei-6d" d="M 3050 125 
L 2550 125 
L 2550 2150 
Q 2550 2300 2500 2400 
Q 2450 2500 2300 2500 
Q 2125 2500 1975 2312 
Q 1825 2125 1825 1825 
L 1825 125 
L 1325 125 
L 1325 2150 
Q 1325 2300 1275 2400 
Q 1225 2500 1075 2500 
Q 900 2500 750 2312 
Q 600 2125 600 1825 
L 600 125 
L 100 125 
L 100 2925 
L 600 2925 
L 600 2550 
Q 725 2750 900 2862 
Q 1075 2975 1275 2975 
Q 1475 2975 1612 2862 
Q 1750 2750 1800 2550 
Q 1925 2750 2087 2862 
Q 2250 2975 2450 2975 
Q 2750 2975 2900 2812 
Q 3050 2650 3050 2350 
L 3050 125 
z
" transform="scale(0.015625)"/>
       <path id="SimHei-29" d="M 1675 2250 
Q 1675 1425 1362 775 
Q 1050 125 425 -475 
L 150 -200 
Q 725 325 1012 912 
Q 1300 1500 1300 2250 
Q 1300 3000 1012 3587 
Q 725 4175 150 4725 
L 425 5000 
Q 1050 4375 1362 3725 
Q 1675 3075 1675 2250 
z
" transform="scale(0.015625)"/>
      </defs>
      <use xlink:href="#SimHei-884c"/>
      <use xlink:href="#SimHei-7a0b" x="100"/>
      <use xlink:href="#SimHei-20" x="200"/>
      <use xlink:href="#SimHei-73" x="250"/>
      <use xlink:href="#SimHei-20" x="300"/>
      <use xlink:href="#SimHei-28" x="350"/>
      <use xlink:href="#SimHei-6d" x="400"/>
      <use xlink:href="#SimHei-6d" x="450"/>
      <use xlink:href="#SimHei-29" x="500"/>
     </g>
    </g>
   </g>
   <g id="matplotlib.axis_2">
    <g id="ytick_1">
     <g id="line2d_17">
      <path d="M 50.44 432.657986 
L 839.204 432.657986 
" clip-path="url(#pf4224f0fb5)" style="fill: none; stroke-dasharray: 2.96,1.28; stroke-dashoffset: 0; stroke: #b0b0b0; stroke-opacity: 0.7; stroke-width: 0.8"/>
     </g>
     <g id="line2d_18">
      <defs>
       <path id="meaad5a7e1d" d="M 0 0 
L -3.5 0 
" style="stroke: #000000; stroke-width: 0.8"/>
      </defs>
      <g>
       <use xlink:href="#meaad5a7e1d" x="50.44" y="432.657986" style="stroke: #000000; stroke-width: 0.8"/>
      </g>
     </g>
     <g id="text_10">
      <!-- 0 -->
      <g transform="translate(38.44 436.095486) scale(0.1 -0.1)">
       <use xlink:href="#SimHei-30"/>
      </g>
     </g>
    </g>
    <g id="ytick_2">
     <g id="line2d_19">
      <path d="M 50.44 379.845028 
L 839.204 379.845028 
" clip-path="url(#pf4224f0fb5)" style="fill: none; stroke-dasharray: 2.96,1.28; stroke-dashoffset: 0; stroke: #b0b0b0; stroke-opacity: 0.7; stroke-width: 0.8"/>
     </g>
     <g id="line2d_20">
      <g>
       <use xlink:href="#meaad5a7e1d" x="50.44" y="379.845028" style="stroke: #000000; stroke-width: 0.8"/>
      </g>
     </g>
     <g id="text_11">
      <!-- 1000 -->
      <g transform="translate(23.44 383.282528) scale(0.1 -0.1)">
       <use xlink:href="#SimHei-31"/>
       <use xlink:href="#SimHei-30" x="50"/>
       <use xlink:href="#SimHei-30" x="100"/>
       <use xlink:href="#SimHei-30" x="150"/>
      </g>
     </g>
    </g>
    <g id="ytick_3">
     <g id="line2d_21">
      <path d="M 50.44 327.032069 
L 839.204 327.032069 
" clip-path="url(#pf4224f0fb5)" style="fill: none; stroke-dasharray: 2.96,1.28; stroke-dashoffset: 0; stroke: #b0b0b0; stroke-opacity: 0.7; stroke-width: 0.8"/>
     </g>
     <g id="line2d_22">
      <g>
       <use xlink:href="#meaad5a7e1d" x="50.44" y="327.032069" style="stroke: #000000; stroke-width: 0.8"/>
      </g>
     </g>
     <g id="text_12">
      <!-- 2000 -->
      <g transform="translate(23.44 330.469569) scale(0.1 -0.1)">
       <use xlink:href="#SimHei-32"/>
       <use xlink:href="#SimHei-30" x="50"/>
       <use xlink:href="#SimHei-30" x="100"/>
       <use xlink:href="#SimHei-30" x="150"/>
      </g>
     </g>
    </g>
    <g id="ytick_4">
     <g id="line2d_23">
      <path d="M 50.44 274.219111 
L 839.204 274.219111 
" clip-path="url(#pf4224f0fb5)" style="fill: none; stroke-dasharray: 2.96,1.28; stroke-dashoffset: 0; stroke: #b0b0b0; stroke-opacity: 0.7; stroke-width: 0.8"/>
     </g>
     <g id="line2d_24">
      <g>
       <use xlink:href="#meaad5a7e1d" x="50.44" y="274.219111" style="stroke: #000000; stroke-width: 0.8"/>
      </g>
     </g>
     <g id="text_13">
      <!-- 3000 -->
      <g transform="translate(23.44 277.656611) scale(0.1 -0.1)">
       <defs>
        <path id="SimHei-33" d="M 250 1225 
L 700 1300 
Q 800 975 1025 762 
Q 1250 550 1587 562 
Q 1925 575 2125 837 
Q 2325 1100 2300 1437 
Q 2275 1775 2037 1962 
Q 1800 2150 1275 2225 
L 1275 2550 
Q 1800 2600 2037 2825 
Q 2275 3050 2250 3412 
Q 2225 3775 1925 3937 
Q 1625 4100 1287 3975 
Q 950 3850 750 3275 
L 300 3350 
Q 450 3800 712 4100 
Q 975 4400 1425 4450 
Q 1875 4500 2212 4337 
Q 2550 4175 2687 3837 
Q 2825 3500 2725 3100 
Q 2625 2700 2150 2400 
Q 2500 2250 2687 1950 
Q 2875 1650 2812 1162 
Q 2750 675 2375 375 
Q 2000 75 1525 87 
Q 1050 100 700 387 
Q 350 675 250 1225 
z
" transform="scale(0.015625)"/>
       </defs>
       <use xlink:href="#SimHei-33"/>
       <use xlink:href="#SimHei-30" x="50"/>
       <use xlink:href="#SimHei-30" x="100"/>
       <use xlink:href="#SimHei-30" x="150"/>
      </g>
     </g>
    </g>
    <g id="ytick_5">
     <g id="line2d_25">
      <path d="M 50.44 221.406152 
L 839.204 221.406152 
" clip-path="url(#pf4224f0fb5)" style="fill: none; stroke-dasharray: 2.96,1.28; stroke-dashoffset: 0; stroke: #b0b0b0; stroke-opacity: 0.7; stroke-width: 0.8"/>
     </g>
     <g id="line2d_26">
      <g>
       <use xlink:href="#meaad5a7e1d" x="50.44" y="221.406152" style="stroke: #000000; stroke-width: 0.8"/>
      </g>
     </g>
     <g id="text_14">
      <!-- 4000 -->
      <g transform="translate(23.44 224.843652) scale(0.1 -0.1)">
       <defs>
        <path id="SimHei-34" d="M 2000 1100 
L 75 1100 
L 75 1525 
L 2100 4450 
L 2475 4450 
L 2475 1525 
L 3075 1525 
L 3075 1100 
L 2475 1100 
L 2475 150 
L 2000 150 
L 2000 1100 
z
M 2000 1525 
L 2000 3500 
L 600 1525 
L 2000 1525 
z
" transform="scale(0.015625)"/>
       </defs>
       <use xlink:href="#SimHei-34"/>
       <use xlink:href="#SimHei-30" x="50"/>
       <use xlink:href="#SimHei-30" x="100"/>
       <use xlink:href="#SimHei-30" x="150"/>
      </g>
     </g>
    </g>
    <g id="ytick_6">
     <g id="line2d_27">
      <path d="M 50.44 168.593193 
L 839.204 168.593193 
" clip-path="url(#pf4224f0fb5)" style="fill: none; stroke-dasharray: 2.96,1.28; stroke-dashoffset: 0; stroke: #b0b0b0; stroke-opacity: 0.7; stroke-width: 0.8"/>
     </g>
     <g id="line2d_28">
      <g>
       <use xlink:href="#meaad5a7e1d" x="50.44" y="168.593193" style="stroke: #000000; stroke-width: 0.8"/>
      </g>
     </g>
     <g id="text_15">
      <!-- 5000 -->
      <g transform="translate(23.44 172.030693) scale(0.1 -0.1)">
       <use xlink:href="#SimHei-35"/>
       <use xlink:href="#SimHei-30" x="50"/>
       <use xlink:href="#SimHei-30" x="100"/>
       <use xlink:href="#SimHei-30" x="150"/>
      </g>
     </g>
    </g>
    <g id="ytick_7">
     <g id="line2d_29">
      <path d="M 50.44 115.780235 
L 839.204 115.780235 
" clip-path="url(#pf4224f0fb5)" style="fill: none; stroke-dasharray: 2.96,1.28; stroke-dashoffset: 0; stroke: #b0b0b0; stroke-opacity: 0.7; stroke-width: 0.8"/>
     </g>
     <g id="line2d_30">
      <g>
       <use xlink:href="#meaad5a7e1d" x="50.44" y="115.780235" style="stroke: #000000; stroke-width: 0.8"/>
      </g>
     </g>
     <g id="text_16">
      <!-- 6000 -->
      <g transform="translate(23.44 119.217735) scale(0.1 -0.1)">
       <defs>
        <path id="SimHei-36" d="M 250 1612 
Q 275 1975 387 2225 
Q 500 2475 725 2850 
L 1750 4450 
L 2325 4450 
L 1275 2800 
Q 1950 2975 2350 2750 
Q 2750 2525 2887 2237 
Q 3025 1950 3037 1612 
Q 3050 1275 2937 950 
Q 2825 625 2537 362 
Q 2250 100 1737 75 
Q 1225 50 862 262 
Q 500 475 362 862 
Q 225 1250 250 1612 
z
M 1025 787 
Q 1250 550 1625 525 
Q 2000 500 2250 775 
Q 2500 1050 2500 1575 
Q 2500 2100 2187 2300 
Q 1875 2500 1487 2450 
Q 1100 2400 925 2075 
Q 750 1750 775 1387 
Q 800 1025 1025 787 
z
" transform="scale(0.015625)"/>
       </defs>
       <use xlink:href="#SimHei-36"/>
       <use xlink:href="#SimHei-30" x="50"/>
       <use xlink:href="#SimHei-30" x="100"/>
       <use xlink:href="#SimHei-30" x="150"/>
      </g>
     </g>
    </g>
    <g id="ytick_8">
     <g id="line2d_31">
      <path d="M 50.44 62.967276 
L 839.204 62.967276 
" clip-path="url(#pf4224f0fb5)" style="fill: none; stroke-dasharray: 2.96,1.28; stroke-dashoffset: 0; stroke: #b0b0b0; stroke-opacity: 0.7; stroke-width: 0.8"/>
     </g>
     <g id="line2d_32">
      <g>
       <use xlink:href="#meaad5a7e1d" x="50.44" y="62.967276" style="stroke: #000000; stroke-width: 0.8"/>
      </g>
     </g>
     <g id="text_17">
      <!-- 7000 -->
      <g transform="translate(23.44 66.404776) scale(0.1 -0.1)">
       <use xlink:href="#SimHei-37"/>
       <use xlink:href="#SimHei-30" x="50"/>
       <use xlink:href="#SimHei-30" x="100"/>
       <use xlink:href="#SimHei-30" x="150"/>
      </g>
     </g>
    </g>
    <g id="text_18">
     <!-- 材料去除率 MRR (mm$^3$/s) -->
     <g transform="translate(17.94 318.292063) rotate(-90) scale(0.12 -0.12)">
      <defs>
       <path id="SimHei-6750" d="M 4675 3750 
L 4675 4300 
Q 4675 4750 4650 5175 
L 5200 5175 
Q 5150 4750 5150 4275 
L 5150 3750 
Q 5650 3750 6100 3775 
L 6100 3300 
Q 5650 3325 5150 3325 
L 5150 125 
Q 5150 -250 4962 -375 
Q 4775 -500 4225 -625 
Q 4150 -325 4000 -50 
Q 4425 -50 4550 0 
Q 4675 50 4675 325 
L 4675 2675 
Q 4325 2000 3887 1412 
Q 3450 825 2800 225 
Q 2675 400 2400 625 
Q 2950 975 3512 1675 
Q 4075 2375 4500 3325 
L 3650 3325 
Q 3350 3325 2950 3300 
L 2950 3775 
Q 3350 3750 3650 3750 
L 4675 3750 
z
M 2200 2700 
Q 2650 2125 2850 1825 
Q 2625 1675 2450 1550 
Q 2100 2150 1925 2325 
L 1925 425 
Q 1925 -100 1950 -625 
L 1425 -625 
Q 1450 -75 1450 425 
L 1450 2175 
Q 1275 1800 1037 1400 
Q 800 1000 550 650 
Q 475 825 225 1100 
Q 525 1425 875 2062 
Q 1225 2700 1400 3325 
Q 875 3325 425 3300 
L 425 3775 
Q 925 3750 1450 3750 
L 1450 4350 
Q 1450 4725 1425 5175 
L 1950 5175 
Q 1925 4775 1925 4350 
L 1925 3750 
Q 2300 3750 2725 3775 
L 2725 3300 
Q 2300 3325 1925 3325 
L 1925 2475 
Q 2125 2600 2200 2700 
z
" transform="scale(0.015625)"/>
       <path id="SimHei-6599" d="M 1450 4400 
Q 1450 4800 1425 5100 
L 1925 5100 
Q 1900 4850 1900 4375 
L 1900 3075 
Q 2300 3075 2800 3100 
L 2800 2650 
Q 2300 2675 1900 2675 
L 1900 375 
Q 1900 -25 1925 -650 
L 1425 -650 
Q 1450 -25 1450 375 
L 1450 1875 
Q 1225 1300 600 475 
Q 425 650 225 800 
Q 600 1225 887 1712 
Q 1175 2200 1350 2675 
Q 875 2675 350 2650 
L 350 3100 
Q 875 3075 1450 3075 
L 1450 4400 
z
M 4800 4325 
Q 4800 4750 4775 5050 
L 5300 5050 
Q 5275 4750 5275 4325 
L 5275 1650 
Q 5525 1700 6125 1850 
L 6150 1400 
Q 5625 1300 5275 1225 
L 5275 325 
Q 5275 -50 5300 -650 
L 4775 -650 
Q 4800 125 4800 1125 
Q 3175 850 2750 725 
L 2600 1225 
Q 3700 1350 4800 1550 
L 4800 4325 
z
M 3350 3175 
Q 4025 2600 4450 2150 
L 4075 1775 
Q 3675 2300 3050 2800 
Q 3300 3025 3350 3175 
z
M 3550 4575 
Q 4150 4000 4575 3500 
Q 4375 3375 4175 3200 
Q 3825 3650 3250 4250 
Q 3475 4450 3550 4575 
z
M 750 4600 
Q 900 4400 1300 3625 
Q 1100 3525 875 3375 
Q 800 3600 350 4400 
Q 550 4475 750 4600 
z
M 3000 4350 
Q 2825 4075 2350 3300 
Q 2225 3425 1975 3550 
Q 2300 3925 2575 4600 
Q 2800 4450 3000 4350 
z
M 2325 2400 
Q 2650 2025 2975 1600 
Q 2800 1450 2600 1275 
Q 2300 1775 1975 2125 
Q 2175 2250 2325 2400 
z
" transform="scale(0.015625)"/>
       <path id="SimHei-53bb" d="M 3325 1625 
Q 3050 1450 2725 1037 
Q 2400 625 1775 25 
Q 2500 100 3125 162 
Q 3750 225 4500 325 
Q 3950 975 3725 1150 
Q 3950 1250 4200 1450 
Q 4500 1125 4900 662 
Q 5300 200 5750 -275 
Q 5450 -425 5200 -600 
Q 5000 -300 4750 -25 
Q 3025 -200 2262 -337 
Q 1500 -475 1175 -600 
Q 1075 -325 900 0 
Q 1200 75 1812 700 
Q 2425 1325 2675 1975 
L 1450 1975 
Q 750 1975 250 1950 
L 250 2400 
Q 775 2375 1450 2375 
L 2975 2375 
L 2975 3550 
L 2075 3550 
Q 1450 3550 975 3525 
L 975 3975 
Q 1450 3950 2050 3950 
L 2975 3950 
L 2975 4450 
Q 2975 4825 2950 5175 
L 3550 5175 
Q 3500 4850 3500 4500 
L 3500 3950 
L 4250 3950 
Q 4875 3950 5425 3975 
L 5425 3525 
Q 4875 3550 4275 3550 
L 3500 3550 
L 3500 2375 
L 5025 2375 
Q 5625 2375 6175 2400 
L 6175 1950 
Q 5625 1975 5025 1975 
L 2850 1975 
Q 3125 1775 3325 1625 
z
" transform="scale(0.015625)"/>
       <path id="SimHei-9664" d="M 4325 2850 
L 4325 2100 
L 4900 2100 
Q 5250 2100 5725 2125 
L 5725 1675 
Q 5275 1700 4925 1700 
L 4325 1700 
L 4325 75 
Q 4325 -375 4125 -475 
Q 3925 -575 3450 -675 
Q 3425 -400 3250 -75 
Q 3650 -75 3775 -50 
Q 3900 -25 3900 250 
L 3900 1700 
L 3425 1700 
Q 2975 1700 2550 1675 
L 2550 2125 
Q 2950 2100 3450 2100 
L 3900 2100 
L 3900 2850 
L 3625 2850 
Q 3375 2850 3100 2825 
L 3100 3200 
Q 2800 2825 2625 2675 
Q 2450 2850 2200 3000 
Q 2850 3500 3262 4125 
Q 3675 4750 3875 5300 
Q 4100 5175 4425 5050 
Q 4375 4975 4275 4850 
Q 4625 4275 5025 3925 
Q 5425 3575 6200 3250 
Q 5975 3075 5825 2750 
Q 5525 2900 5125 3225 
L 5125 2825 
Q 4800 2850 4525 2850 
L 4325 2850 
z
M 2500 4850 
Q 2350 4475 1800 2950 
Q 2175 2425 2275 2150 
Q 2375 1875 2375 1550 
Q 2375 1225 2150 1000 
Q 1925 775 1450 675 
Q 1375 950 1225 1225 
Q 1725 1275 1850 1437 
Q 1975 1600 1862 1975 
Q 1750 2350 1300 2950 
Q 1650 3625 1875 4450 
L 1025 4450 
L 1025 -625 
L 550 -625 
Q 575 -25 575 925 
L 575 3800 
Q 575 4375 550 4850 
L 2500 4850 
z
M 5050 3275 
Q 4375 3875 4025 4500 
Q 3600 3775 3150 3275 
L 5050 3275 
z
M 5050 1250 
Q 5275 975 5512 687 
Q 5750 400 6075 100 
Q 5800 0 5600 -225 
Q 5425 50 5137 412 
Q 4850 775 4650 950 
L 5050 1250 
z
M 3525 975 
Q 3350 800 3100 462 
Q 2850 125 2550 -225 
Q 2350 -50 2150 75 
Q 2425 325 2650 612 
Q 2875 900 3075 1275 
Q 3275 1100 3525 975 
z
" transform="scale(0.015625)"/>
       <path id="SimHei-7387" d="M 3325 5150 
Q 3425 4900 3550 4525 
L 4800 4525 
Q 5250 4525 5800 4550 
L 5800 4125 
Q 5250 4175 4775 4175 
L 2800 4175 
Q 2975 4050 3300 3900 
Q 3075 3750 2875 3537 
Q 2675 3325 2475 3125 
L 3275 3125 
Q 3575 3425 3775 3775 
Q 4000 3600 4275 3425 
Q 3950 3250 3600 2875 
Q 3250 2500 2625 2000 
L 3850 2100 
Q 3725 2250 3600 2425 
Q 3750 2475 4000 2650 
Q 4250 2350 4700 1700 
Q 4475 1625 4225 1450 
Q 4175 1600 4025 1775 
Q 3700 1750 3425 1750 
L 3425 1050 
L 5150 1050 
Q 5675 1050 6100 1075 
L 6100 650 
Q 5700 675 5125 675 
L 3425 675 
L 3425 175 
Q 3425 -300 3450 -625 
L 2900 -625 
Q 2925 -300 2925 175 
L 2925 675 
L 1325 675 
Q 825 675 325 650 
L 325 1075 
Q 825 1050 1350 1050 
L 2925 1050 
L 2925 1700 
Q 2700 1675 2475 1637 
Q 2250 1600 2025 1525 
Q 1950 1775 1850 2000 
Q 2075 2025 2325 2200 
Q 2575 2375 2975 2800 
Q 2300 2725 2025 2625 
Q 1975 2875 1850 3175 
Q 2075 3175 2325 3487 
Q 2575 3800 2750 4175 
L 1700 4175 
Q 1150 4175 650 4125 
L 650 4550 
Q 1150 4525 1550 4525 
L 2975 4525 
Q 2900 4825 2800 5025 
Q 3025 5075 3325 5150 
z
M 1625 2575 
Q 1725 2400 1825 2200 
Q 1575 2050 1325 1862 
Q 1075 1675 800 1425 
Q 625 1675 475 1875 
Q 800 2025 1100 2212 
Q 1400 2400 1625 2575 
z
M 4850 2650 
Q 5125 2475 5337 2337 
Q 5550 2200 5875 1950 
Q 5675 1800 5500 1600 
Q 5300 1775 5062 1975 
Q 4825 2175 4575 2325 
Q 4725 2475 4850 2650 
z
M 5725 3525 
Q 5550 3450 5300 3262 
Q 5050 3075 4800 2825 
Q 4625 3050 4475 3175 
Q 4700 3325 4875 3487 
Q 5050 3650 5300 3925 
Q 5525 3700 5725 3525 
z
M 1050 3850 
Q 1425 3600 1775 3275 
Q 1575 3100 1425 2925 
Q 1075 3300 675 3525 
Q 875 3700 1050 3850 
z
" transform="scale(0.015625)"/>
       <path id="SimHei-4d" d="M 2925 125 
L 2425 125 
L 2425 3175 
L 2375 3175 
L 1775 125 
L 1375 125 
L 775 3175 
L 725 3175 
L 725 125 
L 225 125 
L 225 4400 
L 1000 4400 
L 1550 1575 
L 1600 1575 
L 2150 4400 
L 2925 4400 
L 2925 125 
z
" transform="scale(0.015625)"/>
       <path id="SimHei-52" d="M 3000 125 
L 2400 125 
L 1500 1975 
L 850 1975 
L 850 125 
L 275 125 
L 275 4400 
L 1525 4400 
Q 2125 4400 2500 4112 
Q 2875 3825 2875 3175 
Q 2875 2675 2625 2400 
Q 2375 2125 2050 2050 
L 3000 125 
z
M 2300 3175 
Q 2300 3525 2087 3725 
Q 1875 3925 1400 3925 
L 850 3925 
L 850 2450 
L 1550 2450 
Q 1850 2450 2075 2612 
Q 2300 2775 2300 3175 
z
" transform="scale(0.015625)"/>
       <path id="DejaVuSans-33" d="M 2597 2516 
Q 3050 2419 3304 2112 
Q 3559 1806 3559 1356 
Q 3559 666 3084 287 
Q 2609 -91 1734 -91 
Q 1441 -91 1130 -33 
Q 819 25 488 141 
L 488 750 
Q 750 597 1062 519 
Q 1375 441 1716 441 
Q 2309 441 2620 675 
Q 2931 909 2931 1356 
Q 2931 1769 2642 2001 
Q 2353 2234 1838 2234 
L 1294 2234 
L 1294 2753 
L 1863 2753 
Q 2328 2753 2575 2939 
Q 2822 3125 2822 3475 
Q 2822 3834 2567 4026 
Q 2313 4219 1838 4219 
Q 1578 4219 1281 4162 
Q 984 4106 628 3988 
L 628 4550 
Q 988 4650 1302 4700 
Q 1616 4750 1894 4750 
Q 2613 4750 3031 4423 
Q 3450 4097 3450 3541 
Q 3450 3153 3228 2886 
Q 3006 2619 2597 2516 
z
" transform="scale(0.015625)"/>
       <path id="SimHei-2f" d="M 3000 4550 
L 350 -175 
L 100 -25 
L 2750 4700 
L 3000 4550 
z
" transform="scale(0.015625)"/>
      </defs>
      <use xlink:href="#SimHei-6750" transform="translate(0 0.765625)"/>
      <use xlink:href="#SimHei-6599" transform="translate(100 0.765625)"/>
      <use xlink:href="#SimHei-53bb" transform="translate(200 0.765625)"/>
      <use xlink:href="#SimHei-9664" transform="translate(300 0.765625)"/>
      <use xlink:href="#SimHei-7387" transform="translate(400 0.765625)"/>
      <use xlink:href="#SimHei-20" transform="translate(500 0.765625)"/>
      <use xlink:href="#SimHei-4d" transform="translate(550 0.765625)"/>
      <use xlink:href="#SimHei-52" transform="translate(600 0.765625)"/>
      <use xlink:href="#SimHei-52" transform="translate(650 0.765625)"/>
      <use xlink:href="#SimHei-20" transform="translate(700 0.765625)"/>
      <use xlink:href="#SimHei-28" transform="translate(750 0.765625)"/>
      <use xlink:href="#SimHei-6d" transform="translate(800 0.765625)"/>
      <use xlink:href="#SimHei-6d" transform="translate(850 0.765625)"/>
      <use xlink:href="#DejaVuSans-33" transform="translate(900.957031 39.046875) scale(0.7)"/>
      <use xlink:href="#SimHei-2f" transform="translate(948.227539 0.765625)"/>
      <use xlink:href="#SimHei-73" transform="translate(998.227539 0.765625)"/>
      <use xlink:href="#SimHei-29" transform="translate(1048.227539 0.765625)"/>
     </g>
    </g>
   </g>
   <g id="line2d_33">
    <path d="M 86.292909 432.657986 
L 257.509685 432.657986 
L 257.509685 72.046141 
L 258.457939 87.755285 
L 260.627592 87.755285 
L 260.627592 432.657986 
L 261.618862 432.657986 
L 266.049215 432.657986 
L 266.078672 145.057662 
L 267.043822 378.96284 
L 267.073038 378.96284 
L 267.073038 432.657986 
L 286.024713 432.657986 
L 286.024713 410.119746 
L 286.972967 411.101568 
L 289.14262 411.101568 
L 289.14262 432.657986 
L 290.13389 432.657986 
L 294.564243 432.657986 
L 294.5937 414.682966 
L 295.55885 429.30204 
L 295.588066 429.30204 
L 295.588066 432.657986 
L 314.934223 432.657986 
L 314.934223 410.119746 
L 315.882477 411.101568 
L 318.05213 411.101568 
L 318.05213 432.657986 
L 319.0434 432.657986 
L 323.473753 432.657986 
L 323.50321 414.682966 
L 324.46836 429.30204 
L 324.497576 429.30204 
L 324.497576 432.657986 
L 344.238216 432.657986 
L 344.238216 410.119746 
L 345.186469 411.101568 
L 347.356122 411.101568 
L 347.356122 432.657986 
L 348.347392 432.657986 
L 352.777745 432.657986 
L 352.807202 414.682966 
L 353.772352 429.30204 
L 353.801568 429.30204 
L 353.801568 432.657986 
L 373.93669 432.657986 
L 373.93669 410.119746 
L 374.884944 411.101568 
L 377.054597 411.101568 
L 377.054597 432.657986 
L 378.045867 432.657986 
L 382.47622 432.657986 
L 382.505677 414.682966 
L 383.470827 429.30204 
L 383.500043 429.30204 
L 383.500043 432.657986 
L 404.029647 432.657986 
L 404.029647 410.119746 
L 404.977901 411.101568 
L 407.147554 411.101568 
L 407.147554 432.657986 
L 408.138824 432.657986 
L 412.569177 432.657986 
L 412.598634 414.682966 
L 413.563784 429.30204 
L 413.593 429.30204 
L 413.593 432.657986 
L 452.15772 432.657986 
L 452.245594 387.746578 
L 453.152327 424.66706 
L 453.212352 423.994698 
L 453.398378 432.657986 
L 453.677315 406.815092 
L 454.203898 432.657986 
L 455.733178 432.657986 
L 455.996544 413.37634 
L 456.727785 426.520751 
L 456.757 426.520751 
L 456.757 423.988461 
L 456.973836 432.657986 
L 457.748334 432.657986 
L 459.308636 432.657986 
L 459.572002 413.37634 
L 460.303243 426.520751 
L 460.332459 426.520751 
L 460.332459 423.988461 
L 460.549294 432.657986 
L 461.323792 432.657986 
L 462.884094 432.657986 
L 463.14746 413.37634 
L 463.878701 426.520751 
L 463.907917 426.520751 
L 463.907917 423.988409 
L 464.124752 432.657986 
L 464.89925 432.657986 
L 466.459552 432.657986 
L 466.722918 413.37634 
L 467.454159 426.520751 
L 467.483375 426.520751 
L 467.483375 423.988461 
L 467.70021 432.657986 
L 468.474709 432.657986 
L 470.03501 432.657986 
L 470.298376 413.37634 
L 471.029617 426.520751 
L 471.058833 426.520751 
L 471.058833 423.988461 
L 471.275668 432.657986 
L 472.050167 432.657986 
L 539.81777 432.657986 
L 539.841861 422.889542 
L 540.807078 432.657986 
L 541.581511 432.657986 
L 541.605602 422.889542 
L 542.570819 432.657986 
L 543.345251 432.657986 
L 543.369343 422.889542 
L 544.33456 432.657986 
L 545.108992 432.657986 
L 545.133084 422.889542 
L 546.0983 432.657986 
L 546.872733 432.657986 
L 546.896825 422.889542 
L 547.862041 432.657986 
L 548.636474 432.657986 
L 548.660566 422.889542 
L 549.570552 432.657986 
L 582.799506 432.657986 
L 583.540584 94.526223 
L 583.781417 126.375218 
L 584.022525 126.643896 
L 584.624612 90.398116 
L 584.985955 123.923711 
L 585.106359 123.923711 
L 585.226924 114.161623 
L 585.34735 129.087622 
L 587.403981 129.087622 
L 587.403981 432.657986 
L 588.40157 432.657986 
L 588.449704 432.657986 
L 589.118518 411.524751 
L 589.359351 413.515313 
L 590.202546 412.565103 
L 590.202546 411.266744 
L 590.925284 413.684839 
L 592.981915 413.684839 
L 592.981915 432.657986 
L 593.979504 432.657986 
L 594.027637 432.657986 
L 594.696452 411.524751 
L 594.937285 413.515313 
L 595.78048 412.565103 
L 595.78048 411.266744 
L 596.503218 413.684839 
L 598.559849 413.684839 
L 598.559849 432.657986 
L 599.557438 432.657986 
L 599.605571 432.657986 
L 600.274386 411.524751 
L 600.515219 413.515313 
L 601.358414 412.565103 
L 601.358414 411.266744 
L 602.081152 413.684839 
L 604.137782 413.684839 
L 604.137782 432.657986 
L 605.13537 432.657986 
L 605.183503 432.657986 
L 605.852318 411.524751 
L 606.093151 413.515313 
L 606.936346 412.565103 
L 606.936346 411.266744 
L 607.659084 413.684839 
L 609.715714 413.684839 
L 609.715714 432.657986 
L 610.713304 432.657986 
L 610.761437 432.657986 
L 611.430251 411.524751 
L 611.671085 413.515313 
L 612.51428 412.565103 
L 612.51428 411.266744 
L 613.237018 413.684839 
L 620.929424 413.684839 
L 620.929424 432.657986 
L 639.47339 431.743272 
L 639.96174 381.290765 
L 639.485368 432.657986 
L 640.443543 417.81607 
L 640.564052 417.81607 
L 640.564052 432.657986 
L 641.16614 214.195106 
L 641.527685 271.150995 
L 641.64808 271.150995 
L 641.768485 243.782087 
L 642.009476 262.768451 
L 644.066399 262.768451 
L 644.066399 432.657986 
L 645.06455 432.657986 
L 645.100608 432.657986 
L 645.540922 429.447535 
L 646.022725 431.730367 
L 646.745322 432.657986 
L 646.745322 419.004056 
L 647.588658 422.03989 
L 649.645581 422.03989 
L 649.645581 432.657986 
L 650.643732 432.657986 
L 650.67979 432.657986 
L 651.120104 429.447535 
L 651.601907 431.730367 
L 652.324504 432.657986 
L 652.324504 419.004056 
L 653.16784 422.03989 
L 655.224763 422.03989 
L 655.224763 432.657986 
L 656.222914 432.657986 
L 656.258972 432.657986 
L 656.699286 429.447535 
L 657.181089 431.730367 
L 657.903686 432.657986 
L 657.903686 419.004056 
L 658.747022 422.03989 
L 660.803945 422.03989 
L 660.803945 432.657986 
L 661.802096 432.657986 
L 661.838154 432.657986 
L 662.278468 429.447535 
L 662.760271 431.730367 
L 663.482868 432.657986 
L 663.482868 419.004056 
L 664.326204 422.03989 
L 666.383127 422.03989 
L 666.383127 432.657986 
L 667.381278 432.657986 
L 667.417336 432.657986 
L 667.85765 429.447535 
L 668.339453 431.730367 
L 669.06205 432.657986 
L 669.06205 419.004056 
L 669.905386 422.03989 
L 677.597792 422.03989 
L 677.597792 432.657986 
L 699.288739 432.657986 
L 700.258892 104.112092 
L 700.379401 104.112092 
L 700.379401 150.511762 
L 700.861084 94.436511 
L 701.343035 112.74775 
L 701.463429 112.74775 
L 701.463429 94.274023 
L 701.583834 116.930325 
L 701.824825 102.819512 
L 703.881456 102.819512 
L 703.881456 432.657986 
L 704.879228 430.777879 
L 704.915286 431.424557 
L 704.939359 432.657986 
L 705.837403 412.123868 
L 705.957912 412.123868 
L 705.957912 415.023847 
L 706.439595 411.519144 
L 706.921546 412.663597 
L 707.04194 412.663597 
L 707.04194 411.508989 
L 707.162345 412.925008 
L 707.403336 412.043082 
L 709.459967 412.043082 
L 709.608671 432.657986 
L 710.457739 430.777879 
L 710.493797 431.424557 
L 710.51787 432.657986 
L 711.415914 412.123868 
L 711.536423 412.123868 
L 711.536423 415.023847 
L 712.018106 411.519144 
L 712.500057 412.663597 
L 712.620451 412.663597 
L 712.620451 411.508989 
L 712.740856 412.925008 
L 712.981847 412.043082 
L 715.038478 412.043082 
L 715.187182 432.657986 
L 716.03625 430.777879 
L 716.072308 431.424557 
L 716.096381 432.657986 
L 716.994425 412.123868 
L 717.114934 412.123868 
L 717.114934 415.023847 
L 717.596617 411.519144 
L 718.078568 412.663597 
L 718.198962 412.663597 
L 718.198962 411.508989 
L 718.319367 412.925008 
L 718.560358 412.043082 
L 720.616989 412.043082 
L 720.765693 432.657986 
L 721.614761 430.777879 
L 721.650819 431.424557 
L 721.674892 432.657986 
L 722.572936 412.123868 
L 722.693445 412.123868 
L 722.693445 415.023847 
L 723.175128 411.519144 
L 723.657078 412.663597 
L 723.777473 412.663597 
L 723.777473 411.508989 
L 723.897878 412.925008 
L 724.138869 412.043082 
L 726.1955 412.043082 
L 726.344204 432.657986 
L 727.193272 430.777879 
L 727.22933 431.424529 
L 727.253403 432.657986 
L 728.151447 412.123868 
L 728.271956 412.123868 
L 728.271956 415.023847 
L 728.753639 411.519144 
L 729.235589 412.663597 
L 729.355984 412.663597 
L 729.355984 411.508989 
L 729.476389 412.925008 
L 729.71738 412.043082 
L 737.409786 412.043082 
L 737.409786 432.657986 
L 755.937213 432.426445 
L 756.437716 394.424957 
L 755.949366 432.657986 
L 756.919519 432.657986 
L 757.040028 432.657986 
L 757.762714 214.725594 
L 758.003662 299.6207 
L 758.244461 298.941913 
L 758.244461 310.560024 
L 758.485452 277.656917 
L 760.542375 277.656917 
L 760.542375 432.657986 
L 761.539951 432.657986 
L 761.551968 432.657986 
L 761.563966 428.674339 
L 762.498126 432.657986 
L 763.220723 431.659278 
L 763.341321 419.037212 
L 764.064059 422.97042 
L 766.120982 422.97042 
L 766.120982 432.657986 
L 767.118558 432.657986 
L 767.130575 432.657986 
L 767.142573 428.674339 
L 768.076734 432.657986 
L 768.79933 431.659278 
L 768.919928 419.037212 
L 769.642667 422.97042 
L 771.699589 422.97042 
L 771.699589 432.657986 
L 772.697165 432.657986 
L 772.709183 432.657986 
L 772.72118 428.674339 
L 773.655341 432.657986 
L 774.377937 431.659278 
L 774.498535 419.037212 
L 775.221274 422.97042 
L 777.278197 422.97042 
L 777.278197 432.657986 
L 778.275773 432.657986 
L 778.28779 432.657986 
L 778.299787 428.674339 
L 779.233948 432.657986 
L 779.956545 431.659278 
L 780.077143 419.037212 
L 780.799881 422.97042 
L 782.856804 422.97042 
L 782.856804 432.657986 
L 783.85438 432.657986 
L 783.866397 432.657986 
L 783.878395 428.67443 
L 784.812555 432.657986 
L 785.535152 431.659278 
L 785.65575 419.037212 
L 786.378488 422.97042 
L 794.070894 422.97042 
L 794.070894 432.657986 
L 803.351091 432.657986 
L 803.351091 432.657986 
" clip-path="url(#pf4224f0fb5)" style="fill: none; stroke: #000000; stroke-width: 0.5; stroke-linecap: square"/>
   </g>
   <g id="patch_3">
    <path d="M 50.44 450.688579 
L 50.44 54.015548 
" style="fill: none; stroke: #000000; stroke-width: 0.8; stroke-linejoin: miter; stroke-linecap: square"/>
   </g>
   <g id="patch_4">
    <path d="M 839.204 450.688579 
L 839.204 54.015548 
" style="fill: none; stroke: #000000; stroke-width: 0.8; stroke-linejoin: miter; stroke-linecap: square"/>
   </g>
   <g id="patch_5">
    <path d="M 50.44 450.688579 
L 839.204 450.688579 
" style="fill: none; stroke: #000000; stroke-width: 0.8; stroke-linejoin: miter; stroke-linecap: square"/>
   </g>
   <g id="patch_6">
    <path d="M 50.44 54.015548 
L 839.204 54.015548 
" style="fill: none; stroke: #000000; stroke-width: 0.8; stroke-linejoin: miter; stroke-linecap: square"/>
   </g>
   <g id="text_19">
    <!-- 材料去除率 -->
    <g transform="translate(409.822 18.520312) scale(0.14 -0.14)">
     <use xlink:href="#SimHei-6750"/>
     <use xlink:href="#SimHei-6599" x="100"/>
     <use xlink:href="#SimHei-53bb" x="200"/>
     <use xlink:href="#SimHei-9664" x="300"/>
     <use xlink:href="#SimHei-7387" x="400"/>
    </g>
   </g>
  </g>
  <g id="axes_2">
   <g id="matplotlib.axis_3">
    <g id="xtick_9">
     <g id="line2d_34">
      <defs>
       <path id="m7ec84b8c0b" d="M 0 0 
L 0 -3.5 
" style="stroke: #000000; stroke-width: 0.8"/>
      </defs>
      <g>
       <use xlink:href="#m7ec84b8c0b" x="86.292909" y="54.015548" style="stroke: #000000; stroke-width: 0.8"/>
      </g>
     </g>
     <g id="text_20">
      <!-- N0 -->
      <g transform="translate(90.181996 46.308442) rotate(-45) scale(0.08 -0.08)">
       <defs>
        <path id="SimHei-4e" d="M 2850 125 
L 2225 125 
L 850 3225 
L 825 3225 
L 825 125 
L 250 125 
L 250 4400 
L 875 4400 
L 2250 1300 
L 2275 1300 
L 2275 4400 
L 2850 4400 
L 2850 125 
z
" transform="scale(0.015625)"/>
       </defs>
       <use xlink:href="#SimHei-4e"/>
       <use xlink:href="#SimHei-30" x="50"/>
      </g>
     </g>
    </g>
    <g id="xtick_10">
     <g id="line2d_35">
      <g>
       <use xlink:href="#m7ec84b8c0b" x="348.316198" y="54.015548" style="stroke: #000000; stroke-width: 0.8"/>
      </g>
     </g>
     <g id="text_21">
      <!-- N0 -->
      <g transform="translate(352.205286 46.308442) rotate(-45) scale(0.08 -0.08)">
       <use xlink:href="#SimHei-4e"/>
       <use xlink:href="#SimHei-30" x="50"/>
      </g>
     </g>
    </g>
    <g id="xtick_11">
     <g id="line2d_36">
      <g>
       <use xlink:href="#m7ec84b8c0b" x="444.556741" y="54.015548" style="stroke: #000000; stroke-width: 0.8"/>
      </g>
     </g>
     <g id="text_22">
      <!-- N0 -->
      <g transform="translate(448.445828 46.308442) rotate(-45) scale(0.08 -0.08)">
       <use xlink:href="#SimHei-4e"/>
       <use xlink:href="#SimHei-30" x="50"/>
      </g>
     </g>
    </g>
    <g id="xtick_12">
     <g id="line2d_37">
      <g>
       <use xlink:href="#m7ec84b8c0b" x="460.889851" y="54.015548" style="stroke: #000000; stroke-width: 0.8"/>
      </g>
     </g>
     <g id="text_23">
      <!-- N0 -->
      <g transform="translate(464.778939 46.308442) rotate(-45) scale(0.08 -0.08)">
       <use xlink:href="#SimHei-4e"/>
       <use xlink:href="#SimHei-30" x="50"/>
      </g>
     </g>
    </g>
    <g id="xtick_13">
     <g id="line2d_38">
      <g>
       <use xlink:href="#m7ec84b8c0b" x="528.331634" y="54.015548" style="stroke: #000000; stroke-width: 0.8"/>
      </g>
     </g>
     <g id="text_24">
      <!-- N0 -->
      <g transform="translate(532.220721 46.308442) rotate(-45) scale(0.08 -0.08)">
       <use xlink:href="#SimHei-4e"/>
       <use xlink:href="#SimHei-30" x="50"/>
      </g>
     </g>
    </g>
    <g id="xtick_14">
     <g id="line2d_39">
      <g>
       <use xlink:href="#m7ec84b8c0b" x="540.51997" y="54.015548" style="stroke: #000000; stroke-width: 0.8"/>
      </g>
     </g>
     <g id="text_25">
      <!-- N0 -->
      <g transform="translate(544.409058 46.308442) rotate(-45) scale(0.08 -0.08)">
       <use xlink:href="#SimHei-4e"/>
       <use xlink:href="#SimHei-30" x="50"/>
      </g>
     </g>
    </g>
    <g id="xtick_15">
     <g id="line2d_40">
      <g>
       <use xlink:href="#m7ec84b8c0b" x="546.860498" y="54.015548" style="stroke: #000000; stroke-width: 0.8"/>
      </g>
     </g>
     <g id="text_26">
      <!-- N0 -->
      <g transform="translate(550.749585 46.308442) rotate(-45) scale(0.08 -0.08)">
       <use xlink:href="#SimHei-4e"/>
       <use xlink:href="#SimHei-30" x="50"/>
      </g>
     </g>
    </g>
    <g id="xtick_16">
     <g id="line2d_41">
      <g>
       <use xlink:href="#m7ec84b8c0b" x="580.441839" y="54.015548" style="stroke: #000000; stroke-width: 0.8"/>
      </g>
     </g>
     <g id="text_27">
      <!-- N0 -->
      <g transform="translate(584.330926 46.308442) rotate(-45) scale(0.08 -0.08)">
       <use xlink:href="#SimHei-4e"/>
       <use xlink:href="#SimHei-30" x="50"/>
      </g>
     </g>
    </g>
    <g id="xtick_17">
     <g id="line2d_42">
      <g>
       <use xlink:href="#m7ec84b8c0b" x="627.334983" y="54.015548" style="stroke: #000000; stroke-width: 0.8"/>
      </g>
     </g>
     <g id="text_28">
      <!-- N0 -->
      <g transform="translate(631.22407 46.308442) rotate(-45) scale(0.08 -0.08)">
       <use xlink:href="#SimHei-4e"/>
       <use xlink:href="#SimHei-30" x="50"/>
      </g>
     </g>
    </g>
    <g id="xtick_18">
     <g id="line2d_43">
      <g>
       <use xlink:href="#m7ec84b8c0b" x="662.88078" y="54.015548" style="stroke: #000000; stroke-width: 0.8"/>
      </g>
     </g>
     <g id="text_29">
      <!-- N0 -->
      <g transform="translate(666.769867 46.308442) rotate(-45) scale(0.08 -0.08)">
       <use xlink:href="#SimHei-4e"/>
       <use xlink:href="#SimHei-30" x="50"/>
      </g>
     </g>
    </g>
    <g id="xtick_19">
     <g id="line2d_44">
      <g>
       <use xlink:href="#m7ec84b8c0b" x="707.403336" y="54.015548" style="stroke: #000000; stroke-width: 0.8"/>
      </g>
     </g>
     <g id="text_30">
      <!-- N0 -->
      <g transform="translate(711.292424 46.308442) rotate(-45) scale(0.08 -0.08)">
       <use xlink:href="#SimHei-4e"/>
       <use xlink:href="#SimHei-30" x="50"/>
      </g>
     </g>
    </g>
    <g id="xtick_20">
     <g id="line2d_45">
      <g>
       <use xlink:href="#m7ec84b8c0b" x="752.04665" y="54.015548" style="stroke: #000000; stroke-width: 0.8"/>
      </g>
     </g>
     <g id="text_31">
      <!-- N0 -->
      <g transform="translate(755.935737 46.308442) rotate(-45) scale(0.08 -0.08)">
       <use xlink:href="#SimHei-4e"/>
       <use xlink:href="#SimHei-30" x="50"/>
      </g>
     </g>
    </g>
    <g id="xtick_21">
     <g id="line2d_46">
      <g>
       <use xlink:href="#m7ec84b8c0b" x="786.378488" y="54.015548" style="stroke: #000000; stroke-width: 0.8"/>
      </g>
     </g>
     <g id="text_32">
      <!-- N0 -->
      <g transform="translate(790.267575 46.308442) rotate(-45) scale(0.08 -0.08)">
       <use xlink:href="#SimHei-4e"/>
       <use xlink:href="#SimHei-30" x="50"/>
      </g>
     </g>
    </g>
    <g id="text_33">
     <!-- 指令行号 N -->
     <g transform="translate(419.822 32.7625) scale(0.1 -0.1)">
      <defs>
       <path id="SimHei-6307" d="M 5625 2225 
Q 5600 1925 5600 1350 
L 5600 300 
Q 5600 -225 5625 -525 
L 5125 -525 
L 5125 -125 
L 3300 -125 
L 3300 -625 
L 2800 -625 
Q 2825 -300 2825 300 
L 2825 1350 
Q 2825 1925 2800 2225 
L 5625 2225 
z
M 500 25 
Q 1075 -25 1175 37 
Q 1275 100 1275 275 
L 1275 1675 
Q 1050 1600 925 1537 
Q 800 1475 475 1275 
Q 400 1525 225 1800 
Q 625 1900 825 1975 
Q 1025 2050 1275 2125 
L 1275 3300 
L 1100 3300 
Q 775 3300 450 3275 
L 450 3725 
Q 750 3700 1100 3700 
L 1275 3700 
L 1275 4450 
Q 1275 4800 1250 5125 
L 1775 5125 
Q 1750 4850 1750 4450 
L 1750 3700 
Q 2075 3700 2425 3725 
L 2425 3275 
Q 2050 3300 1750 3300 
L 1750 2325 
Q 1850 2350 2025 2425 
L 2375 2575 
Q 2350 2300 2375 2100 
Q 2225 2050 2062 1987 
Q 1900 1925 1750 1850 
L 1750 100 
Q 1725 -200 1575 -337 
Q 1425 -475 675 -525 
Q 625 -250 500 25 
z
M 3325 5025 
Q 3300 4675 3300 4125 
Q 4125 4275 4512 4412 
Q 4900 4550 5225 4725 
Q 5325 4475 5575 4250 
Q 5450 4225 5237 4175 
Q 5025 4125 4725 4050 
Q 4425 3975 4037 3887 
Q 3650 3800 3300 3725 
L 3300 3175 
Q 3275 2925 3700 2925 
L 4925 2925 
Q 5300 2925 5387 3087 
Q 5475 3250 5550 3600 
Q 5750 3400 6050 3300 
Q 5825 2725 5700 2637 
Q 5575 2550 5275 2525 
L 3350 2525 
Q 3050 2525 2937 2687 
Q 2825 2850 2825 2975 
L 2825 4125 
Q 2825 4775 2800 5025 
L 3325 5025 
z
M 5125 275 
L 5125 875 
L 3300 875 
L 3300 275 
L 5125 275 
z
M 5125 1250 
L 5125 1825 
L 3300 1825 
L 3300 1250 
L 5125 1250 
z
" transform="scale(0.015625)"/>
       <path id="SimHei-4ee4" d="M 5375 2075 
L 5375 1550 
Q 4925 1325 4450 937 
Q 3975 550 3575 125 
L 4250 -325 
Q 4050 -550 3875 -775 
Q 3100 -125 1850 425 
L 2150 875 
Q 2400 775 3125 350 
Q 3800 1025 4450 1625 
L 2025 1625 
Q 1500 1625 975 1600 
L 975 2100 
Q 1525 2075 2025 2075 
L 5375 2075 
z
M 3375 4850 
Q 4450 3550 6200 2900 
Q 5950 2625 5800 2350 
Q 4150 3150 3100 4475 
Q 2075 3125 625 2225 
Q 400 2525 200 2700 
Q 875 2975 1675 3675 
Q 2475 4375 2950 5300 
Q 3275 5175 3550 5050 
Q 3475 5000 3375 4850 
z
M 2925 3600 
Q 3175 3350 3750 2725 
L 3300 2325 
Q 3050 2700 2550 3225 
Q 2750 3375 2925 3600 
z
" transform="scale(0.015625)"/>
       <path id="SimHei-53f7" d="M 5025 4925 
Q 5000 4550 5000 4075 
Q 5000 3600 5025 3175 
L 1400 3175 
Q 1425 3525 1425 4000 
Q 1425 4500 1400 4925 
L 5025 4925 
z
M 5175 2625 
Q 5650 2625 6025 2650 
L 6025 2200 
Q 5650 2225 5175 2225 
L 2450 2225 
Q 2350 1875 2225 1450 
L 5175 1450 
Q 5100 1050 5062 775 
Q 5025 500 4950 112 
Q 4875 -275 4650 -412 
Q 4425 -550 3225 -625 
Q 3125 -350 2975 -50 
Q 3875 -75 4112 -50 
Q 4350 -25 4425 212 
Q 4500 450 4575 1025 
L 1600 1025 
Q 1825 1625 1950 2225 
L 1350 2225 
Q 825 2225 375 2200 
L 375 2650 
Q 825 2625 1350 2625 
L 5175 2625 
z
M 4525 3575 
L 4525 4525 
L 1900 4525 
L 1900 3575 
L 4525 3575 
z
" transform="scale(0.015625)"/>
      </defs>
      <use xlink:href="#SimHei-6307"/>
      <use xlink:href="#SimHei-4ee4" x="100"/>
      <use xlink:href="#SimHei-884c" x="200"/>
      <use xlink:href="#SimHei-53f7" x="300"/>
      <use xlink:href="#SimHei-20" x="400"/>
      <use xlink:href="#SimHei-4e" x="450"/>
     </g>
    </g>
   </g>
   <g id="patch_7">
    <path d="M 50.44 450.688579 
L 50.44 54.015548 
" style="fill: none; stroke: #000000; stroke-width: 0.8; stroke-linejoin: miter; stroke-linecap: square"/>
   </g>
   <g id="patch_8">
    <path d="M 839.204 450.688579 
L 839.204 54.015548 
" style="fill: none; stroke: #000000; stroke-width: 0.8; stroke-linejoin: miter; stroke-linecap: square"/>
   </g>
   <g id="patch_9">
    <path d="M 50.44 450.688579 
L 839.204 450.688579 
" style="fill: none; stroke: #000000; stroke-width: 0.8; stroke-linejoin: miter; stroke-linecap: square"/>
   </g>
   <g id="patch_10">
    <path d="M 50.44 54.015548 
L 839.204 54.015548 
" style="fill: none; stroke: #000000; stroke-width: 0.8; stroke-linejoin: miter; stroke-linecap: square"/>
   </g>
  </g>
 </g>
 <defs>
  <clipPath id="pf4224f0fb5">
   <rect x="50.44" y="54.015548" width="788.764" height="396.67303"/>
  </clipPath>
 </defs>
</svg>
