<?xml version="1.0" encoding="utf-8" standalone="no"?>
<!DOCTYPE svg PUBLIC "-//W3C//DTD SVG 1.1//EN"
  "http://www.w3.org/Graphics/SVG/1.1/DTD/svg11.dtd">
<svg xmlns:xlink="http://www.w3.org/1999/xlink" width="848.324375pt" height="487.784829pt" viewBox="0 0 848.324375 487.784829" xmlns="http://www.w3.org/2000/svg" version="1.1">
 <metadata>
  <rdf:RDF xmlns:dc="http://purl.org/dc/elements/1.1/" xmlns:cc="http://creativecommons.org/ns#" xmlns:rdf="http://www.w3.org/1999/02/22-rdf-syntax-ns#">
   <cc:Work>
    <dc:type rdf:resource="http://purl.org/dc/dcmitype/StillImage"/>
    <dc:date>2025-12-10T15:20:53.831156</dc:date>
    <dc:format>image/svg+xml</dc:format>
    <dc:creator>
     <cc:Agent>
      <dc:title>Matplotlib v3.9.2, https://matplotlib.org/</dc:title>
     </cc:Agent>
    </dc:creator>
   </cc:Work>
  </rdf:RDF>
 </metadata>
 <defs>
  <style type="text/css">*{stroke-linejoin: round; stroke-linecap: butt}</style>
 </defs>
 <g id="figure_1">
  <g id="patch_1">
   <path d="M 0 487.784829 
L 848.324375 487.784829 
L 848.324375 0 
L 0 0 
z
" style="fill: #ffffff"/>
  </g>
  <g id="axes_1">
   <g id="patch_2">
    <path d="M 34.121875 450.256704 
L 841.124375 450.256704 
L 841.124375 53.906173 
L 34.121875 53.906173 
z
" style="fill: #ffffff"/>
   </g>
   <g id="matplotlib.axis_1">
    <g id="xtick_1">
     <g id="line2d_1">
      <path d="M 87.323315 450.256704 
L 87.323315 53.906173 
" clip-path="url(#p83758404a4)" style="fill: none; stroke-dasharray: 2.96,1.28; stroke-dashoffset: 0; stroke: #b0b0b0; stroke-opacity: 0.7; stroke-width: 0.8"/>
     </g>
     <g id="line2d_2">
      <defs>
       <path id="mb06677e654" d="M 0 0 
L 0 3.5 
" style="stroke: #000000; stroke-width: 0.8"/>
      </defs>
      <g>
       <use xlink:href="#mb06677e654" x="87.323315" y="450.256704" style="stroke: #000000; stroke-width: 0.8"/>
      </g>
     </g>
     <g id="text_1">
      <!-- 500 -->
      <g transform="translate(79.823315 464.131704) scale(0.1 -0.1)">
       <defs>
        <path id="SimHei-35" d="M 550 1325 
Q 725 650 1150 575 
Q 1575 500 1837 662 
Q 2100 825 2212 1087 
Q 2325 1350 2312 1675 
Q 2300 2000 2137 2225 
Q 1975 2450 1725 2525 
Q 1475 2600 1162 2525 
Q 850 2450 650 2175 
L 225 2225 
Q 275 2375 700 4375 
L 2675 4375 
L 2675 3925 
L 1075 3925 
Q 950 3250 825 2850 
Q 1200 3025 1525 3012 
Q 1850 3000 2150 2862 
Q 2450 2725 2587 2487 
Q 2725 2250 2787 2012 
Q 2850 1775 2837 1500 
Q 2825 1225 2725 937 
Q 2625 650 2425 462 
Q 2225 275 1937 162 
Q 1650 50 1275 75 
Q 900 100 562 350 
Q 225 600 100 1200 
L 550 1325 
z
" transform="scale(0.015625)"/>
        <path id="SimHei-30" d="M 225 2537 
Q 250 3200 412 3587 
Q 575 3975 875 4225 
Q 1175 4475 1612 4475 
Q 2050 4475 2375 4112 
Q 2700 3750 2800 3200 
Q 2900 2650 2862 1937 
Q 2825 1225 2612 775 
Q 2400 325 1975 150 
Q 1550 -25 1125 187 
Q 700 400 525 750 
Q 350 1100 275 1487 
Q 200 1875 225 2537 
z
M 750 2687 
Q 675 2000 800 1462 
Q 925 925 1212 700 
Q 1500 475 1800 612 
Q 2100 750 2237 1162 
Q 2375 1575 2375 2062 
Q 2375 2550 2337 2950 
Q 2300 3350 2112 3675 
Q 1925 4000 1612 4012 
Q 1300 4025 1062 3700 
Q 825 3375 750 2687 
z
" transform="scale(0.015625)"/>
       </defs>
       <use xlink:href="#SimHei-35"/>
       <use xlink:href="#SimHei-30" x="50"/>
       <use xlink:href="#SimHei-30" x="100"/>
      </g>
     </g>
    </g>
    <g id="xtick_2">
     <g id="line2d_3">
      <path d="M 188.224293 450.256704 
L 188.224293 53.906173 
" clip-path="url(#p83758404a4)" style="fill: none; stroke-dasharray: 2.96,1.28; stroke-dashoffset: 0; stroke: #b0b0b0; stroke-opacity: 0.7; stroke-width: 0.8"/>
     </g>
     <g id="line2d_4">
      <g>
       <use xlink:href="#mb06677e654" x="188.224293" y="450.256704" style="stroke: #000000; stroke-width: 0.8"/>
      </g>
     </g>
     <g id="text_2">
      <!-- 750 -->
      <g transform="translate(180.724293 464.131704) scale(0.1 -0.1)">
       <defs>
        <path id="SimHei-37" d="M 850 150 
Q 1300 2050 2425 3925 
L 275 3925 
L 275 4375 
L 2950 4375 
L 2950 3950 
Q 1775 2050 1400 150 
L 850 150 
z
" transform="scale(0.015625)"/>
       </defs>
       <use xlink:href="#SimHei-37"/>
       <use xlink:href="#SimHei-35" x="50"/>
       <use xlink:href="#SimHei-30" x="100"/>
      </g>
     </g>
    </g>
    <g id="xtick_3">
     <g id="line2d_5">
      <path d="M 289.125272 450.256704 
L 289.125272 53.906173 
" clip-path="url(#p83758404a4)" style="fill: none; stroke-dasharray: 2.96,1.28; stroke-dashoffset: 0; stroke: #b0b0b0; stroke-opacity: 0.7; stroke-width: 0.8"/>
     </g>
     <g id="line2d_6">
      <g>
       <use xlink:href="#mb06677e654" x="289.125272" y="450.256704" style="stroke: #000000; stroke-width: 0.8"/>
      </g>
     </g>
     <g id="text_3">
      <!-- 1000 -->
      <g transform="translate(279.125272 464.131704) scale(0.1 -0.1)">
       <defs>
        <path id="SimHei-31" d="M 1400 3600 
Q 1075 3275 575 2975 
L 575 3450 
Q 1200 3875 1600 4450 
L 1900 4450 
L 1900 150 
L 1400 150 
L 1400 3600 
z
" transform="scale(0.015625)"/>
       </defs>
       <use xlink:href="#SimHei-31"/>
       <use xlink:href="#SimHei-30" x="50"/>
       <use xlink:href="#SimHei-30" x="100"/>
       <use xlink:href="#SimHei-30" x="150"/>
      </g>
     </g>
    </g>
    <g id="xtick_4">
     <g id="line2d_7">
      <path d="M 390.02625 450.256704 
L 390.02625 53.906173 
" clip-path="url(#p83758404a4)" style="fill: none; stroke-dasharray: 2.96,1.28; stroke-dashoffset: 0; stroke: #b0b0b0; stroke-opacity: 0.7; stroke-width: 0.8"/>
     </g>
     <g id="line2d_8">
      <g>
       <use xlink:href="#mb06677e654" x="390.02625" y="450.256704" style="stroke: #000000; stroke-width: 0.8"/>
      </g>
     </g>
     <g id="text_4">
      <!-- 1250 -->
      <g transform="translate(380.02625 464.131704) scale(0.1 -0.1)">
       <defs>
        <path id="SimHei-32" d="M 300 250 
Q 325 625 650 925 
Q 975 1225 1475 1862 
Q 1975 2500 2125 2850 
Q 2275 3200 2237 3450 
Q 2200 3700 2000 3862 
Q 1800 4025 1537 4000 
Q 1275 3975 1037 3800 
Q 800 3625 675 3275 
L 200 3350 
Q 400 3925 712 4187 
Q 1025 4450 1450 4475 
Q 1700 4500 1900 4462 
Q 2100 4425 2312 4287 
Q 2525 4150 2662 3875 
Q 2800 3600 2762 3212 
Q 2725 2825 2375 2287 
Q 2025 1750 1025 600 
L 2825 600 
L 2825 150 
L 300 150 
L 300 250 
z
" transform="scale(0.015625)"/>
       </defs>
       <use xlink:href="#SimHei-31"/>
       <use xlink:href="#SimHei-32" x="50"/>
       <use xlink:href="#SimHei-35" x="100"/>
       <use xlink:href="#SimHei-30" x="150"/>
      </g>
     </g>
    </g>
    <g id="xtick_5">
     <g id="line2d_9">
      <path d="M 490.927228 450.256704 
L 490.927228 53.906173 
" clip-path="url(#p83758404a4)" style="fill: none; stroke-dasharray: 2.96,1.28; stroke-dashoffset: 0; stroke: #b0b0b0; stroke-opacity: 0.7; stroke-width: 0.8"/>
     </g>
     <g id="line2d_10">
      <g>
       <use xlink:href="#mb06677e654" x="490.927228" y="450.256704" style="stroke: #000000; stroke-width: 0.8"/>
      </g>
     </g>
     <g id="text_5">
      <!-- 1500 -->
      <g transform="translate(480.927228 464.131704) scale(0.1 -0.1)">
       <use xlink:href="#SimHei-31"/>
       <use xlink:href="#SimHei-35" x="50"/>
       <use xlink:href="#SimHei-30" x="100"/>
       <use xlink:href="#SimHei-30" x="150"/>
      </g>
     </g>
    </g>
    <g id="xtick_6">
     <g id="line2d_11">
      <path d="M 591.828207 450.256704 
L 591.828207 53.906173 
" clip-path="url(#p83758404a4)" style="fill: none; stroke-dasharray: 2.96,1.28; stroke-dashoffset: 0; stroke: #b0b0b0; stroke-opacity: 0.7; stroke-width: 0.8"/>
     </g>
     <g id="line2d_12">
      <g>
       <use xlink:href="#mb06677e654" x="591.828207" y="450.256704" style="stroke: #000000; stroke-width: 0.8"/>
      </g>
     </g>
     <g id="text_6">
      <!-- 1750 -->
      <g transform="translate(581.828207 464.131704) scale(0.1 -0.1)">
       <use xlink:href="#SimHei-31"/>
       <use xlink:href="#SimHei-37" x="50"/>
       <use xlink:href="#SimHei-35" x="100"/>
       <use xlink:href="#SimHei-30" x="150"/>
      </g>
     </g>
    </g>
    <g id="xtick_7">
     <g id="line2d_13">
      <path d="M 692.729185 450.256704 
L 692.729185 53.906173 
" clip-path="url(#p83758404a4)" style="fill: none; stroke-dasharray: 2.96,1.28; stroke-dashoffset: 0; stroke: #b0b0b0; stroke-opacity: 0.7; stroke-width: 0.8"/>
     </g>
     <g id="line2d_14">
      <g>
       <use xlink:href="#mb06677e654" x="692.729185" y="450.256704" style="stroke: #000000; stroke-width: 0.8"/>
      </g>
     </g>
     <g id="text_7">
      <!-- 2000 -->
      <g transform="translate(682.729185 464.131704) scale(0.1 -0.1)">
       <use xlink:href="#SimHei-32"/>
       <use xlink:href="#SimHei-30" x="50"/>
       <use xlink:href="#SimHei-30" x="100"/>
       <use xlink:href="#SimHei-30" x="150"/>
      </g>
     </g>
    </g>
    <g id="xtick_8">
     <g id="line2d_15">
      <path d="M 793.630163 450.256704 
L 793.630163 53.906173 
" clip-path="url(#p83758404a4)" style="fill: none; stroke-dasharray: 2.96,1.28; stroke-dashoffset: 0; stroke: #b0b0b0; stroke-opacity: 0.7; stroke-width: 0.8"/>
     </g>
     <g id="line2d_16">
      <g>
       <use xlink:href="#mb06677e654" x="793.630163" y="450.256704" style="stroke: #000000; stroke-width: 0.8"/>
      </g>
     </g>
     <g id="text_8">
      <!-- 2250 -->
      <g transform="translate(783.630163 464.131704) scale(0.1 -0.1)">
       <use xlink:href="#SimHei-32"/>
       <use xlink:href="#SimHei-32" x="50"/>
       <use xlink:href="#SimHei-35" x="100"/>
       <use xlink:href="#SimHei-30" x="150"/>
      </g>
     </g>
    </g>
    <g id="text_9">
     <!-- 行程 s (mm) -->
     <g transform="translate(404.623125 479.084829) scale(0.12 -0.12)">
      <defs>
       <path id="SimHei-884c" d="M 5300 3100 
Q 5775 3100 6175 3125 
L 6175 2625 
Q 5775 2650 5325 2650 
L 4975 2650 
L 4975 -75 
Q 5000 -375 4787 -487 
Q 4575 -600 3950 -675 
Q 3900 -375 3675 -75 
Q 4100 -125 4275 -112 
Q 4450 -100 4475 150 
L 4475 2650 
L 3475 2650 
Q 3000 2650 2575 2625 
L 2575 3125 
Q 3025 3100 3475 3100 
L 5300 3100 
z
M 2300 3400 
Q 2075 3275 1962 3075 
Q 1850 2875 1650 2575 
L 1650 325 
Q 1650 0 1675 -675 
L 1150 -675 
Q 1175 75 1175 450 
L 1175 2050 
Q 950 1675 575 1300 
Q 400 1550 250 1725 
Q 825 2275 1150 2775 
Q 1475 3275 1725 3725 
Q 1975 3575 2300 3400 
z
M 4875 4800 
Q 5300 4800 5750 4825 
L 5750 4350 
Q 5300 4375 4825 4375 
L 3900 4375 
Q 3350 4375 2950 4350 
L 2950 4825 
Q 3350 4800 3900 4800 
L 4875 4800 
z
M 2075 4925 
Q 1875 4900 1550 4387 
Q 1225 3875 650 3250 
Q 500 3450 325 3625 
Q 725 4025 1050 4487 
Q 1375 4950 1525 5300 
Q 1775 5150 2075 4925 
z
" transform="scale(0.015625)"/>
       <path id="SimHei-7a0b" d="M 5825 4975 
Q 5800 4425 5800 3975 
Q 5800 3550 5825 3125 
L 3025 3125 
Q 3050 3600 3050 4025 
Q 3050 4450 3025 4975 
L 5825 4975 
z
M 400 4825 
Q 825 4875 1362 4987 
Q 1900 5100 2275 5275 
Q 2450 4950 2625 4725 
Q 2450 4750 2262 4712 
Q 2075 4675 1850 4650 
L 1850 3425 
Q 2200 3425 2600 3450 
L 2600 2975 
Q 2200 3000 1850 3000 
L 1850 800 
Q 1850 250 1875 -675 
L 1375 -675 
Q 1400 250 1400 775 
L 1400 1925 
Q 1050 1225 625 600 
Q 450 850 225 1050 
Q 575 1400 850 1850 
Q 1125 2300 1350 3000 
Q 725 3000 425 2975 
L 425 3450 
Q 850 3425 1050 3425 
L 1400 3425 
L 1400 4550 
Q 1075 4475 575 4400 
Q 500 4625 400 4825 
z
M 5100 2500 
Q 5500 2500 5950 2525 
L 5950 2075 
Q 5500 2100 5100 2100 
L 4625 2100 
L 4625 1300 
L 4900 1300 
Q 5275 1300 5775 1325 
L 5775 850 
Q 5275 875 4975 875 
L 4625 875 
L 4625 0 
L 5225 0 
Q 5675 0 6175 25 
L 6175 -450 
Q 5775 -425 5225 -425 
L 3550 -425 
Q 3000 -425 2600 -475 
L 2600 25 
Q 3000 0 3550 0 
L 4150 0 
L 4150 875 
L 3800 875 
Q 3400 875 3050 825 
L 3050 1325 
Q 3400 1300 3800 1300 
L 4150 1300 
L 4150 2100 
L 3750 2100 
Q 3300 2100 2900 2075 
L 2900 2525 
Q 3300 2500 3750 2500 
L 5100 2500 
z
M 5275 3575 
L 5275 4550 
L 3500 4550 
L 3500 3575 
L 5275 3575 
z
M 2300 2400 
Q 2550 2025 2825 1525 
Q 2675 1425 2425 1225 
Q 2175 1775 1925 2125 
Q 2075 2250 2300 2400 
z
" transform="scale(0.015625)"/>
       <path id="SimHei-20" transform="scale(0.015625)"/>
       <path id="SimHei-73" d="M 2750 900 
Q 2750 500 2437 287 
Q 2125 75 1650 75 
Q 1050 75 725 312 
Q 400 550 400 1000 
L 900 1000 
Q 900 700 1112 600 
Q 1325 500 1625 500 
Q 1925 500 2075 612 
Q 2225 725 2225 900 
Q 2225 1025 2100 1150 
Q 1975 1275 1475 1350 
Q 900 1425 687 1637 
Q 475 1850 475 2200 
Q 475 2500 762 2737 
Q 1050 2975 1600 2975 
Q 2100 2975 2387 2750 
Q 2675 2525 2675 2150 
L 2175 2150 
Q 2175 2375 2012 2462 
Q 1850 2550 1600 2550 
Q 1275 2550 1137 2437 
Q 1000 2325 1000 2175 
Q 1000 2000 1125 1900 
Q 1250 1800 1650 1750 
Q 2300 1650 2525 1437 
Q 2750 1225 2750 900 
z
" transform="scale(0.015625)"/>
       <path id="SimHei-28" d="M 2975 -200 
L 2700 -475 
Q 2075 125 1762 775 
Q 1450 1425 1450 2250 
Q 1450 3075 1762 3725 
Q 2075 4375 2700 5000 
L 2975 4725 
Q 2400 4175 2112 3587 
Q 1825 3000 1825 2250 
Q 1825 1500 2112 912 
Q 2400 325 2975 -200 
z
" transform="scale(0.015625)"/>
       <path id="SimHei-6d" d="M 3050 125 
L 2550 125 
L 2550 2150 
Q 2550 2300 2500 2400 
Q 2450 2500 2300 2500 
Q 2125 2500 1975 2312 
Q 1825 2125 1825 1825 
L 1825 125 
L 1325 125 
L 1325 2150 
Q 1325 2300 1275 2400 
Q 1225 2500 1075 2500 
Q 900 2500 750 2312 
Q 600 2125 600 1825 
L 600 125 
L 100 125 
L 100 2925 
L 600 2925 
L 600 2550 
Q 725 2750 900 2862 
Q 1075 2975 1275 2975 
Q 1475 2975 1612 2862 
Q 1750 2750 1800 2550 
Q 1925 2750 2087 2862 
Q 2250 2975 2450 2975 
Q 2750 2975 2900 2812 
Q 3050 2650 3050 2350 
L 3050 125 
z
" transform="scale(0.015625)"/>
       <path id="SimHei-29" d="M 1675 2250 
Q 1675 1425 1362 775 
Q 1050 125 425 -475 
L 150 -200 
Q 725 325 1012 912 
Q 1300 1500 1300 2250 
Q 1300 3000 1012 3587 
Q 725 4175 150 4725 
L 425 5000 
Q 1050 4375 1362 3725 
Q 1675 3075 1675 2250 
z
" transform="scale(0.015625)"/>
      </defs>
      <use xlink:href="#SimHei-884c"/>
      <use xlink:href="#SimHei-7a0b" x="100"/>
      <use xlink:href="#SimHei-20" x="200"/>
      <use xlink:href="#SimHei-73" x="250"/>
      <use xlink:href="#SimHei-20" x="300"/>
      <use xlink:href="#SimHei-28" x="350"/>
      <use xlink:href="#SimHei-6d" x="400"/>
      <use xlink:href="#SimHei-6d" x="450"/>
      <use xlink:href="#SimHei-29" x="500"/>
     </g>
    </g>
   </g>
   <g id="matplotlib.axis_2">
    <g id="ytick_1">
     <g id="line2d_17">
      <path d="M 34.121875 432.24077 
L 841.124375 432.24077 
" clip-path="url(#p83758404a4)" style="fill: none; stroke-dasharray: 2.96,1.28; stroke-dashoffset: 0; stroke: #b0b0b0; stroke-opacity: 0.7; stroke-width: 0.8"/>
     </g>
     <g id="line2d_18">
      <defs>
       <path id="m430a639363" d="M 0 0 
L -3.5 0 
" style="stroke: #000000; stroke-width: 0.8"/>
      </defs>
      <g>
       <use xlink:href="#m430a639363" x="34.121875" y="432.24077" style="stroke: #000000; stroke-width: 0.8"/>
      </g>
     </g>
     <g id="text_10">
      <!-- 0 -->
      <g transform="translate(22.121875 435.67827) scale(0.1 -0.1)">
       <use xlink:href="#SimHei-30"/>
      </g>
     </g>
    </g>
    <g id="ytick_2">
     <g id="line2d_19">
      <path d="M 34.121875 348.254674 
L 841.124375 348.254674 
" clip-path="url(#p83758404a4)" style="fill: none; stroke-dasharray: 2.96,1.28; stroke-dashoffset: 0; stroke: #b0b0b0; stroke-opacity: 0.7; stroke-width: 0.8"/>
     </g>
     <g id="line2d_20">
      <g>
       <use xlink:href="#m430a639363" x="34.121875" y="348.254674" style="stroke: #000000; stroke-width: 0.8"/>
      </g>
     </g>
     <g id="text_11">
      <!-- 1 -->
      <g transform="translate(22.121875 351.692174) scale(0.1 -0.1)">
       <use xlink:href="#SimHei-31"/>
      </g>
     </g>
    </g>
    <g id="ytick_3">
     <g id="line2d_21">
      <path d="M 34.121875 264.268577 
L 841.124375 264.268577 
" clip-path="url(#p83758404a4)" style="fill: none; stroke-dasharray: 2.96,1.28; stroke-dashoffset: 0; stroke: #b0b0b0; stroke-opacity: 0.7; stroke-width: 0.8"/>
     </g>
     <g id="line2d_22">
      <g>
       <use xlink:href="#m430a639363" x="34.121875" y="264.268577" style="stroke: #000000; stroke-width: 0.8"/>
      </g>
     </g>
     <g id="text_12">
      <!-- 2 -->
      <g transform="translate(22.121875 267.706077) scale(0.1 -0.1)">
       <use xlink:href="#SimHei-32"/>
      </g>
     </g>
    </g>
    <g id="ytick_4">
     <g id="line2d_23">
      <path d="M 34.121875 180.28248 
L 841.124375 180.28248 
" clip-path="url(#p83758404a4)" style="fill: none; stroke-dasharray: 2.96,1.28; stroke-dashoffset: 0; stroke: #b0b0b0; stroke-opacity: 0.7; stroke-width: 0.8"/>
     </g>
     <g id="line2d_24">
      <g>
       <use xlink:href="#m430a639363" x="34.121875" y="180.28248" style="stroke: #000000; stroke-width: 0.8"/>
      </g>
     </g>
     <g id="text_13">
      <!-- 3 -->
      <g transform="translate(22.121875 183.71998) scale(0.1 -0.1)">
       <defs>
        <path id="SimHei-33" d="M 250 1225 
L 700 1300 
Q 800 975 1025 762 
Q 1250 550 1587 562 
Q 1925 575 2125 837 
Q 2325 1100 2300 1437 
Q 2275 1775 2037 1962 
Q 1800 2150 1275 2225 
L 1275 2550 
Q 1800 2600 2037 2825 
Q 2275 3050 2250 3412 
Q 2225 3775 1925 3937 
Q 1625 4100 1287 3975 
Q 950 3850 750 3275 
L 300 3350 
Q 450 3800 712 4100 
Q 975 4400 1425 4450 
Q 1875 4500 2212 4337 
Q 2550 4175 2687 3837 
Q 2825 3500 2725 3100 
Q 2625 2700 2150 2400 
Q 2500 2250 2687 1950 
Q 2875 1650 2812 1162 
Q 2750 675 2375 375 
Q 2000 75 1525 87 
Q 1050 100 700 387 
Q 350 675 250 1225 
z
" transform="scale(0.015625)"/>
       </defs>
       <use xlink:href="#SimHei-33"/>
      </g>
     </g>
    </g>
    <g id="ytick_5">
     <g id="line2d_25">
      <path d="M 34.121875 96.296383 
L 841.124375 96.296383 
" clip-path="url(#p83758404a4)" style="fill: none; stroke-dasharray: 2.96,1.28; stroke-dashoffset: 0; stroke: #b0b0b0; stroke-opacity: 0.7; stroke-width: 0.8"/>
     </g>
     <g id="line2d_26">
      <g>
       <use xlink:href="#m430a639363" x="34.121875" y="96.296383" style="stroke: #000000; stroke-width: 0.8"/>
      </g>
     </g>
     <g id="text_14">
      <!-- 4 -->
      <g transform="translate(22.121875 99.733883) scale(0.1 -0.1)">
       <defs>
        <path id="SimHei-34" d="M 2000 1100 
L 75 1100 
L 75 1525 
L 2100 4450 
L 2475 4450 
L 2475 1525 
L 3075 1525 
L 3075 1100 
L 2475 1100 
L 2475 150 
L 2000 150 
L 2000 1100 
z
M 2000 1525 
L 2000 3500 
L 600 1525 
L 2000 1525 
z
" transform="scale(0.015625)"/>
       </defs>
       <use xlink:href="#SimHei-34"/>
      </g>
     </g>
    </g>
    <g id="text_15">
     <!-- 功率 P (W) -->
     <g transform="translate(16.621875 282.081438) rotate(-90) scale(0.12 -0.12)">
      <defs>
       <path id="SimHei-529f" d="M 5675 275 
Q 5575 -200 5225 -312 
Q 4875 -425 4450 -475 
Q 4400 -175 4200 100 
Q 4725 75 4937 137 
Q 5150 200 5175 425 
Q 5300 1775 5375 3275 
L 4250 3275 
Q 4225 2550 4125 1925 
Q 4025 1300 3787 850 
Q 3550 400 3250 50 
Q 2950 -300 2550 -650 
Q 2375 -400 2100 -250 
Q 2650 100 2925 425 
Q 3200 750 3400 1162 
Q 3600 1575 3675 2075 
Q 3750 2575 3775 3275 
L 3400 3275 
Q 3100 3275 2800 3250 
L 2800 3725 
Q 3125 3700 3450 3700 
L 3775 3700 
L 3775 4575 
Q 3775 4875 3750 5175 
Q 4075 5100 4325 5075 
Q 4275 4900 4262 4525 
Q 4250 4150 4250 3700 
L 5900 3700 
Q 5875 3350 5850 3037 
Q 5825 2725 5675 275 
z
M 2900 1000 
Q 2475 900 2200 837 
Q 1925 775 1337 600 
Q 750 425 500 350 
Q 400 700 300 900 
Q 450 900 1375 1100 
L 1375 3900 
L 1175 3900 
Q 875 3900 450 3875 
L 450 4350 
Q 850 4325 1175 4325 
L 2100 4325 
Q 2450 4325 2725 4350 
L 2725 3875 
Q 2425 3900 2125 3900 
L 1875 3900 
L 1875 1200 
L 2375 1325 
Q 2575 1375 2850 1450 
L 2900 1000 
z
" transform="scale(0.015625)"/>
       <path id="SimHei-7387" d="M 3325 5150 
Q 3425 4900 3550 4525 
L 4800 4525 
Q 5250 4525 5800 4550 
L 5800 4125 
Q 5250 4175 4775 4175 
L 2800 4175 
Q 2975 4050 3300 3900 
Q 3075 3750 2875 3537 
Q 2675 3325 2475 3125 
L 3275 3125 
Q 3575 3425 3775 3775 
Q 4000 3600 4275 3425 
Q 3950 3250 3600 2875 
Q 3250 2500 2625 2000 
L 3850 2100 
Q 3725 2250 3600 2425 
Q 3750 2475 4000 2650 
Q 4250 2350 4700 1700 
Q 4475 1625 4225 1450 
Q 4175 1600 4025 1775 
Q 3700 1750 3425 1750 
L 3425 1050 
L 5150 1050 
Q 5675 1050 6100 1075 
L 6100 650 
Q 5700 675 5125 675 
L 3425 675 
L 3425 175 
Q 3425 -300 3450 -625 
L 2900 -625 
Q 2925 -300 2925 175 
L 2925 675 
L 1325 675 
Q 825 675 325 650 
L 325 1075 
Q 825 1050 1350 1050 
L 2925 1050 
L 2925 1700 
Q 2700 1675 2475 1637 
Q 2250 1600 2025 1525 
Q 1950 1775 1850 2000 
Q 2075 2025 2325 2200 
Q 2575 2375 2975 2800 
Q 2300 2725 2025 2625 
Q 1975 2875 1850 3175 
Q 2075 3175 2325 3487 
Q 2575 3800 2750 4175 
L 1700 4175 
Q 1150 4175 650 4125 
L 650 4550 
Q 1150 4525 1550 4525 
L 2975 4525 
Q 2900 4825 2800 5025 
Q 3025 5075 3325 5150 
z
M 1625 2575 
Q 1725 2400 1825 2200 
Q 1575 2050 1325 1862 
Q 1075 1675 800 1425 
Q 625 1675 475 1875 
Q 800 2025 1100 2212 
Q 1400 2400 1625 2575 
z
M 4850 2650 
Q 5125 2475 5337 2337 
Q 5550 2200 5875 1950 
Q 5675 1800 5500 1600 
Q 5300 1775 5062 1975 
Q 4825 2175 4575 2325 
Q 4725 2475 4850 2650 
z
M 5725 3525 
Q 5550 3450 5300 3262 
Q 5050 3075 4800 2825 
Q 4625 3050 4475 3175 
Q 4700 3325 4875 3487 
Q 5050 3650 5300 3925 
Q 5525 3700 5725 3525 
z
M 1050 3850 
Q 1425 3600 1775 3275 
Q 1575 3100 1425 2925 
Q 1075 3300 675 3525 
Q 875 3700 1050 3850 
z
" transform="scale(0.015625)"/>
       <path id="SimHei-50" d="M 2950 3100 
Q 2950 2500 2600 2150 
Q 2250 1800 1625 1800 
L 900 1800 
L 900 125 
L 325 125 
L 325 4400 
L 1625 4400 
Q 2250 4400 2600 4050 
Q 2950 3700 2950 3100 
z
M 2375 3100 
Q 2375 3575 2150 3750 
Q 1925 3925 1475 3925 
L 900 3925 
L 900 2275 
L 1475 2275 
Q 1925 2275 2150 2450 
Q 2375 2625 2375 3100 
z
" transform="scale(0.015625)"/>
       <path id="SimHei-57" d="M 3075 4400 
L 2525 75 
L 2025 75 
L 1575 3275 
L 1525 3275 
L 1075 75 
L 575 75 
L 25 4400 
L 575 4400 
L 850 1675 
L 900 1675 
L 1275 4400 
L 1825 4400 
L 2200 1675 
L 2250 1675 
L 2525 4400 
L 3075 4400 
z
" transform="scale(0.015625)"/>
      </defs>
      <use xlink:href="#SimHei-529f"/>
      <use xlink:href="#SimHei-7387" x="100"/>
      <use xlink:href="#SimHei-20" x="200"/>
      <use xlink:href="#SimHei-50" x="250"/>
      <use xlink:href="#SimHei-20" x="300"/>
      <use xlink:href="#SimHei-28" x="350"/>
      <use xlink:href="#SimHei-57" x="400"/>
      <use xlink:href="#SimHei-29" x="450"/>
     </g>
    </g>
    <g id="text_16">
     <!-- 1e6 -->
     <g transform="translate(34.121875 50.906173) scale(0.1 -0.1)">
      <defs>
       <path id="SimHei-65" d="M 2850 1075 
Q 2800 625 2450 350 
Q 2100 75 1625 75 
Q 1025 75 637 462 
Q 250 850 250 1525 
Q 250 2200 637 2587 
Q 1025 2975 1625 2975 
Q 2150 2975 2487 2637 
Q 2825 2300 2825 1525 
L 800 1525 
Q 800 975 1037 750 
Q 1275 525 1625 525 
Q 1900 525 2075 662 
Q 2250 800 2300 1075 
L 2850 1075 
z
M 2250 1925 
Q 2200 2275 2025 2412 
Q 1850 2550 1575 2550 
Q 1325 2550 1125 2412 
Q 925 2275 825 1925 
L 2250 1925 
z
" transform="scale(0.015625)"/>
       <path id="SimHei-36" d="M 250 1612 
Q 275 1975 387 2225 
Q 500 2475 725 2850 
L 1750 4450 
L 2325 4450 
L 1275 2800 
Q 1950 2975 2350 2750 
Q 2750 2525 2887 2237 
Q 3025 1950 3037 1612 
Q 3050 1275 2937 950 
Q 2825 625 2537 362 
Q 2250 100 1737 75 
Q 1225 50 862 262 
Q 500 475 362 862 
Q 225 1250 250 1612 
z
M 1025 787 
Q 1250 550 1625 525 
Q 2000 500 2250 775 
Q 2500 1050 2500 1575 
Q 2500 2100 2187 2300 
Q 1875 2500 1487 2450 
Q 1100 2400 925 2075 
Q 750 1750 775 1387 
Q 800 1025 1025 787 
z
" transform="scale(0.015625)"/>
      </defs>
      <use xlink:href="#SimHei-31"/>
      <use xlink:href="#SimHei-65" x="50"/>
      <use xlink:href="#SimHei-36" x="100"/>
     </g>
    </g>
   </g>
   <g id="line2d_27">
    <path d="M 70.803807 432.24077 
L 245.979609 432.24077 
L 245.979609 71.922107 
L 246.949789 87.618479 
L 249.169611 87.618479 
L 249.169611 432.24077 
L 250.151887 392.894102 
L 250.183802 392.894102 
L 250.183802 432.24077 
L 250.247063 432.24077 
L 254.716598 432.24077 
L 254.746736 144.874268 
L 255.704065 426.288122 
L 255.734203 426.288122 
L 255.734203 378.589279 
L 255.764094 432.24077 
L 275.153987 432.24077 
L 275.153987 409.720854 
L 276.124167 410.701877 
L 278.343988 410.701877 
L 278.343988 432.24077 
L 279.326264 429.781604 
L 279.35818 429.781604 
L 279.35818 432.24077 
L 279.421441 432.24077 
L 283.890975 432.24077 
L 283.921113 414.280364 
L 284.878442 431.86873 
L 284.90858 431.86873 
L 284.90858 428.887552 
L 284.938471 432.24077 
L 304.731968 432.24077 
L 304.731968 409.720854 
L 305.702148 410.701877 
L 307.92197 410.701877 
L 307.92197 432.24077 
L 308.904246 429.781604 
L 308.936161 429.781604 
L 308.936161 432.24077 
L 308.999422 432.24077 
L 313.468956 432.24077 
L 313.499095 414.280364 
L 314.456423 431.86873 
L 314.486561 431.86873 
L 314.486561 428.887552 
L 314.516453 432.24077 
L 334.713553 432.24077 
L 334.713553 409.720854 
L 335.683733 410.701877 
L 337.903555 410.701877 
L 337.903555 432.24077 
L 338.885831 429.781604 
L 338.917746 429.781604 
L 338.917746 432.24077 
L 338.981007 432.24077 
L 343.450542 432.24077 
L 343.48068 414.280364 
L 344.438009 431.86873 
L 344.468147 431.86873 
L 344.468147 428.887552 
L 344.498038 432.24077 
L 365.098742 432.24077 
L 365.098742 409.720854 
L 366.068922 410.701877 
L 368.288744 410.701877 
L 368.288744 432.24077 
L 369.27102 429.781604 
L 369.302935 429.781604 
L 369.302935 432.24077 
L 369.366197 432.24077 
L 373.835731 432.24077 
L 373.865869 414.280364 
L 374.823198 431.86873 
L 374.853336 431.86873 
L 374.853336 428.887552 
L 374.883227 432.24077 
L 395.887535 432.24077 
L 395.887535 409.720854 
L 396.857716 410.701877 
L 399.077537 410.701877 
L 399.077537 432.24077 
L 400.059813 429.781604 
L 400.091728 429.781604 
L 400.091728 432.24077 
L 400.15499 432.24077 
L 404.624524 432.24077 
L 404.654662 414.280364 
L 405.611991 431.86873 
L 405.642129 431.86873 
L 405.642129 428.887552 
L 405.67202 432.24077 
L 445.128468 432.24077 
L 445.218374 387.365876 
L 446.115935 419.370945 
L 446.146073 419.370945 
L 446.397813 432.24077 
L 446.6832 406.418886 
L 447.12678 432.24077 
L 448.786601 432.24077 
L 449.056056 412.974801 
L 449.774068 422.4747 
L 449.804206 422.4747 
L 450.055946 432.24077 
L 450.784913 432.24077 
L 452.444734 432.24077 
L 452.714189 412.974801 
L 453.432201 422.4747 
L 453.462339 422.4747 
L 453.714079 432.24077 
L 454.443046 432.24077 
L 456.102867 432.24077 
L 456.372322 412.974801 
L 457.090334 422.4747 
L 457.120472 422.4747 
L 457.372212 432.24077 
L 458.101179 432.24077 
L 459.761 432.24077 
L 460.030455 412.974801 
L 460.748467 422.4747 
L 460.778605 422.4747 
L 461.030345 432.24077 
L 461.759312 432.24077 
L 463.419133 432.24077 
L 463.688588 412.974801 
L 464.4066 422.4747 
L 464.436738 422.4747 
L 464.688478 432.24077 
L 465.417445 432.24077 
L 534.815471 432.24077 
L 534.84012 422.480268 
L 535.771147 432.24077 
L 536.619995 432.24077 
L 536.644643 422.480268 
L 537.575671 432.24077 
L 538.424518 432.24077 
L 538.449167 422.480268 
L 539.380195 432.24077 
L 540.229042 432.24077 
L 540.253691 422.480268 
L 541.184718 432.24077 
L 542.033566 432.24077 
L 542.058214 422.480268 
L 542.989242 432.24077 
L 543.83809 432.24077 
L 543.862738 422.480268 
L 544.793766 432.24077 
L 578.791069 432.24077 
L 579.549283 94.383912 
L 579.672462 123.7575 
L 579.795685 123.7575 
L 579.918981 126.475473 
L 580.658377 90.259161 
L 580.781673 105.995322 
L 580.904896 105.995322 
L 580.904896 100.861221 
L 581.397827 128.917212 
L 583.502013 128.917212 
L 583.502013 432.24077 
L 584.497981 430.779517 
L 584.510414 430.779517 
L 584.510414 432.24077 
L 585.256195 411.124717 
L 585.502597 413.113661 
L 586.365289 412.164222 
L 586.365289 410.86692 
L 587.104739 413.283048 
L 589.208925 413.283048 
L 589.208925 432.24077 
L 590.204893 430.779517 
L 590.217326 430.779517 
L 590.217326 432.24077 
L 590.963107 411.124717 
L 591.209509 413.113661 
L 592.072201 412.164222 
L 592.072201 410.86692 
L 592.811651 413.283048 
L 594.915836 413.283048 
L 594.915836 432.24077 
L 595.911804 430.779517 
L 595.924238 430.779517 
L 595.924238 432.24077 
L 596.670018 411.124717 
L 596.91642 413.113661 
L 597.779112 412.164222 
L 597.779112 410.86692 
L 598.518562 413.283048 
L 600.622748 413.283048 
L 600.622748 432.24077 
L 601.618714 430.779477 
L 601.631148 430.779477 
L 601.631148 432.24077 
L 602.376928 411.124717 
L 602.62333 413.113661 
L 603.486022 412.164222 
L 603.486022 410.86692 
L 604.225472 413.283048 
L 606.329658 413.283048 
L 606.329658 432.24077 
L 607.325626 430.779477 
L 607.338059 430.779477 
L 607.338059 432.24077 
L 608.08384 411.124717 
L 608.330242 413.113661 
L 609.192934 412.164222 
L 609.192934 410.86692 
L 609.932384 413.283048 
L 617.80266 413.283048 
L 617.80266 432.24077 
L 636.775416 431.326799 
L 637.275059 380.915311 
L 636.787672 432.24077 
L 637.768003 417.41092 
L 637.891298 417.41092 
L 637.891298 432.24077 
L 638.507308 213.955503 
L 638.877214 270.865086 
L 639.000392 270.865086 
L 639.000392 243.51843 
L 639.370145 262.489358 
L 641.474629 262.489358 
L 641.474629 432.24077 
L 642.471172 431.326799 
L 642.532752 432.24077 
L 642.983248 429.032929 
L 643.476191 431.313905 
L 644.215497 432.24077 
L 644.215497 418.597941 
L 645.078333 421.631307 
L 647.182818 421.631307 
L 647.182818 432.24077 
L 648.179361 431.326799 
L 648.240941 432.24077 
L 648.691437 429.032929 
L 649.18438 431.313905 
L 649.923686 432.24077 
L 649.923686 418.597941 
L 650.786522 421.631307 
L 652.891007 421.631307 
L 652.891007 432.24077 
L 653.88755 431.326799 
L 653.94913 432.24077 
L 654.399626 429.032929 
L 654.892569 431.313905 
L 655.631874 432.24077 
L 655.631874 418.597941 
L 656.494711 421.631307 
L 658.599196 421.631307 
L 658.599196 432.24077 
L 659.595738 431.326799 
L 659.657319 432.24077 
L 660.107814 429.032929 
L 660.600758 431.313905 
L 661.340063 432.24077 
L 661.340063 418.597941 
L 662.2029 421.631307 
L 664.307385 421.631307 
L 664.307385 432.24077 
L 665.303927 431.326799 
L 665.365507 432.24077 
L 665.816003 429.032929 
L 666.308947 431.313905 
L 667.048252 432.24077 
L 667.048252 418.597941 
L 667.911089 421.631307 
L 675.781365 421.631307 
L 675.781365 432.24077 
L 697.973869 432.24077 
L 698.966455 103.961988 
L 699.089751 103.961988 
L 699.089751 150.323934 
L 699.582572 94.294274 
L 700.075666 112.590625 
L 700.198845 112.590625 
L 700.198845 94.131918 
L 700.322033 116.769799 
L 700.568597 102.670459 
L 702.672783 102.670459 
L 702.672783 432.24077 
L 703.668938 432.24077 
L 703.681371 432.24077 
L 704.673958 411.723347 
L 704.797253 411.723347 
L 704.797253 414.620968 
L 705.290074 411.119114 
L 705.783168 412.262636 
L 705.906347 412.262636 
L 705.906347 411.108967 
L 706.029536 412.523835 
L 706.276099 411.642626 
L 708.380285 411.642626 
L 708.380285 432.24077 
L 709.37644 432.24077 
L 709.388874 432.24077 
L 710.38146 411.723347 
L 710.504755 411.723347 
L 710.504755 414.620968 
L 710.997576 411.119114 
L 711.490671 412.262636 
L 711.613849 412.262636 
L 711.613849 411.108967 
L 711.737038 412.523835 
L 711.983602 411.642626 
L 714.087787 411.642626 
L 714.087787 432.24077 
L 715.083942 432.24077 
L 715.096376 432.24077 
L 716.088962 411.723347 
L 716.212258 411.723347 
L 716.212258 414.620968 
L 716.705079 411.119114 
L 717.198173 412.262636 
L 717.321352 412.262636 
L 717.321352 411.108967 
L 717.44454 412.523835 
L 717.691104 411.642626 
L 719.79529 411.642626 
L 719.79529 432.24077 
L 720.791445 432.24077 
L 720.803878 432.24077 
L 721.796464 411.723347 
L 721.91976 411.723347 
L 721.91976 414.620968 
L 722.412581 411.119114 
L 722.905675 412.262636 
L 723.028854 412.262636 
L 723.028854 411.108967 
L 723.152042 412.523835 
L 723.398606 411.642626 
L 725.502792 411.642626 
L 725.502792 432.24077 
L 726.498947 432.24077 
L 726.51138 432.24077 
L 727.503966 411.723347 
L 727.627262 411.723347 
L 727.627262 414.620968 
L 728.120083 411.119114 
L 728.613177 412.262636 
L 728.736356 412.262636 
L 728.736356 411.108967 
L 728.859544 412.523835 
L 729.106108 411.642626 
L 736.976385 411.642626 
L 736.976385 432.24077 
L 755.93222 432.009417 
L 756.444296 394.038825 
L 755.944653 432.24077 
L 756.814016 414.348571 
L 756.93724 414.348571 
L 756.93724 432.24077 
L 757.799931 214.48556 
L 757.923227 303.206811 
L 758.046451 303.206811 
L 758.292818 310.242075 
L 758.539382 277.365719 
L 760.643866 277.365719 
L 760.643866 432.24077 
L 761.639821 430.996153 
L 761.652254 430.996153 
L 761.652254 432.24077 
L 761.689079 428.260362 
L 762.64484 432.24077 
L 763.384145 431.242874 
L 763.507532 418.63107 
L 764.246982 422.56108 
L 766.351467 422.56108 
L 766.351467 432.24077 
L 767.347421 430.996188 
L 767.359855 430.996188 
L 767.359855 432.24077 
L 767.39668 428.260362 
L 768.352441 432.24077 
L 769.091746 431.242874 
L 769.215133 418.63107 
L 769.954583 422.56108 
L 772.059068 422.56108 
L 772.059068 432.24077 
L 773.055022 430.996153 
L 773.067455 430.996153 
L 773.067455 432.24077 
L 773.104281 428.260362 
L 774.060042 432.24077 
L 774.799347 431.242874 
L 774.922733 418.63107 
L 775.662183 422.56108 
L 777.766668 422.56108 
L 777.766668 432.24077 
L 778.762623 430.996153 
L 778.775056 430.996153 
L 778.775056 432.24077 
L 778.811881 428.260362 
L 779.767642 432.24077 
L 780.506947 431.242874 
L 780.630334 418.63107 
L 781.369784 422.56108 
L 783.474269 422.56108 
L 783.474269 432.24077 
L 784.470223 430.996153 
L 784.482657 430.996153 
L 784.482657 432.24077 
L 784.519482 428.260452 
L 785.475243 432.24077 
L 786.214548 431.242874 
L 786.337935 418.63107 
L 787.077385 422.56108 
L 794.947661 422.56108 
L 794.947661 432.24077 
L 804.442443 432.24077 
L 804.442443 432.24077 
" clip-path="url(#p83758404a4)" style="fill: none; stroke: #000000; stroke-width: 0.5; stroke-linecap: square"/>
   </g>
   <g id="patch_3">
    <path d="M 34.121875 450.256704 
L 34.121875 53.906173 
" style="fill: none; stroke: #000000; stroke-width: 0.8; stroke-linejoin: miter; stroke-linecap: square"/>
   </g>
   <g id="patch_4">
    <path d="M 841.124375 450.256704 
L 841.124375 53.906173 
" style="fill: none; stroke: #000000; stroke-width: 0.8; stroke-linejoin: miter; stroke-linecap: square"/>
   </g>
   <g id="patch_5">
    <path d="M 34.121875 450.256704 
L 841.124375 450.256704 
" style="fill: none; stroke: #000000; stroke-width: 0.8; stroke-linejoin: miter; stroke-linecap: square"/>
   </g>
   <g id="patch_6">
    <path d="M 34.121875 53.906173 
L 841.124375 53.906173 
" style="fill: none; stroke: #000000; stroke-width: 0.8; stroke-linejoin: miter; stroke-linecap: square"/>
   </g>
   <g id="text_17">
    <!-- 主轴功率预测 -->
    <g transform="translate(395.623125 18.410937) scale(0.14 -0.14)">
     <defs>
      <path id="SimHei-4e3b" d="M 4750 3850 
Q 5150 3850 5750 3875 
L 5750 3400 
Q 5150 3425 4750 3425 
L 3425 3425 
L 3425 2175 
L 4425 2175 
Q 4825 2175 5375 2200 
L 5375 1725 
Q 4825 1750 4425 1750 
L 3425 1750 
L 3425 150 
L 5000 150 
Q 5450 150 6050 175 
L 6050 -300 
Q 5450 -275 5000 -275 
L 350 -275 
L 350 200 
Q 950 150 1425 150 
L 2900 150 
L 2900 1750 
L 1925 1750 
Q 1525 1750 975 1725 
L 975 2200 
Q 1575 2175 1925 2175 
L 2900 2175 
L 2900 3425 
L 1650 3425 
Q 1125 3425 625 3400 
L 625 3875 
Q 1175 3850 1675 3850 
L 4750 3850 
z
M 3175 3900 
Q 2875 4350 2400 4875 
Q 2650 5050 2800 5200 
Q 3325 4600 3625 4175 
Q 3475 4100 3175 3900 
z
" transform="scale(0.015625)"/>
      <path id="SimHei-8f74" d="M 4200 3900 
Q 4200 4775 4175 5175 
L 4700 5175 
Q 4675 4800 4675 3900 
L 5950 3900 
Q 5925 3025 5925 1675 
Q 5925 325 5950 -525 
L 5450 -525 
L 5450 100 
L 3425 100 
L 3425 -575 
L 2950 -575 
Q 2975 325 2975 1675 
Q 2975 3025 2950 3900 
L 4200 3900 
z
M 2725 950 
Q 2250 900 2075 875 
Q 2075 200 2100 -600 
L 1575 -600 
Q 1600 200 1600 800 
Q 700 650 450 575 
Q 400 800 275 1075 
Q 700 1100 1600 1250 
L 1600 2075 
L 1100 2075 
Q 850 2075 525 2000 
L 300 2475 
Q 525 2600 700 3025 
Q 875 3450 1025 3925 
Q 700 3925 325 3900 
L 325 4350 
Q 700 4325 1125 4325 
Q 1300 4825 1375 5250 
Q 1625 5150 1925 5100 
Q 1825 4925 1600 4325 
Q 2175 4325 2750 4350 
L 2750 3900 
Q 2200 3925 1475 3925 
Q 1150 3000 925 2475 
L 1600 2475 
Q 1600 3050 1575 3400 
L 2100 3400 
Q 2075 3100 2075 2475 
Q 2425 2475 2625 2500 
L 2625 2050 
Q 2450 2075 2075 2075 
L 2075 1300 
L 2775 1400 
Q 2725 1175 2725 950 
z
M 4200 525 
L 4200 1850 
L 3425 1850 
L 3425 525 
L 4200 525 
z
M 5450 525 
L 5450 1850 
L 4675 1850 
L 4675 525 
L 5450 525 
z
M 4200 2250 
L 4200 3475 
L 3425 3475 
L 3425 2250 
L 4200 2250 
z
M 5450 2250 
L 5450 3475 
L 4675 3475 
L 4675 2250 
L 5450 2250 
z
" transform="scale(0.015625)"/>
      <path id="SimHei-9884" d="M 5200 4800 
Q 5575 4800 5950 4825 
L 5950 4400 
Q 5575 4425 5200 4425 
L 4500 4425 
Q 4425 4050 4350 3600 
L 5725 3600 
Q 5700 3225 5700 2800 
L 5700 1725 
Q 5700 1300 5725 850 
L 5250 850 
L 5250 3225 
L 3550 3225 
L 3550 800 
L 3075 800 
Q 3100 1375 3100 1725 
L 3100 2775 
Q 3100 3175 3075 3600 
L 3900 3600 
Q 4000 4150 4000 4425 
L 3725 4425 
Q 3300 4425 2850 4400 
L 2850 4825 
Q 3325 4800 3725 4800 
L 5200 4800 
z
M 2600 1775 
Q 2350 1825 2150 1825 
Q 2250 2250 2300 2450 
L 1750 2450 
L 1750 125 
Q 1725 -300 1425 -400 
Q 1125 -500 750 -500 
Q 700 -225 575 25 
Q 1125 -25 1212 37 
Q 1300 100 1300 350 
L 1300 2450 
L 1025 2450 
Q 700 2450 350 2425 
L 350 2850 
Q 700 2825 1000 2825 
L 2850 2825 
Q 2725 2325 2600 1775 
z
M 4725 2875 
Q 4625 2575 4600 2100 
Q 4575 1625 4462 1037 
Q 4350 450 3962 62 
Q 3575 -325 2925 -675 
Q 2700 -500 2475 -350 
Q 3075 -125 3437 200 
Q 3800 525 3950 937 
Q 4100 1350 4137 1850 
Q 4175 2350 4175 2925 
L 4725 2875 
z
M 1625 2900 
Q 1275 3275 800 3650 
Q 925 3775 1075 3950 
Q 1250 3825 1425 3675 
Q 1750 4150 1950 4375 
L 1400 4375 
Q 900 4375 450 4350 
L 450 4775 
Q 900 4750 1375 4750 
L 2575 4750 
L 2575 4375 
Q 2200 4100 1725 3400 
L 1950 3200 
Q 1750 3025 1625 2900 
z
M 4775 725 
Q 5725 0 6075 -325 
Q 5850 -500 5725 -650 
Q 5400 -325 5137 -87 
Q 4875 150 4525 350 
Q 4650 525 4775 725 
z
" transform="scale(0.015625)"/>
      <path id="SimHei-6d4b" d="M 4025 4725 
Q 4000 4475 4000 4000 
L 4000 2225 
Q 4000 1775 4025 1350 
L 3550 1350 
L 3550 4325 
L 2350 4325 
L 2350 1325 
L 1900 1325 
Q 1925 1775 1925 2225 
L 1925 4000 
Q 1925 4200 1900 4725 
L 4025 4725 
z
M 5900 5075 
Q 5875 4800 5875 4375 
L 5875 0 
Q 5875 -325 5650 -425 
Q 5425 -525 4975 -600 
Q 4925 -325 4775 -50 
Q 5125 -50 5262 -25 
Q 5400 0 5400 250 
L 5400 4375 
Q 5400 4775 5375 5075 
L 5900 5075 
z
M 3275 3725 
Q 3225 3400 3200 2325 
Q 3175 1250 2837 550 
Q 2500 -150 2075 -600 
Q 1850 -400 1600 -325 
Q 2200 250 2475 962 
Q 2750 1675 2762 2475 
Q 2775 3275 2725 3800 
Q 3000 3750 3275 3725 
z
M 4950 4275 
Q 4925 4000 4925 3575 
L 4925 1825 
Q 4925 1300 4950 850 
L 4450 850 
Q 4475 1150 4475 1825 
L 4475 3575 
Q 4475 4000 4450 4275 
L 4950 4275 
z
M 1700 1675 
Q 1375 1075 1112 487 
Q 850 -100 725 -400 
Q 500 -200 200 -25 
Q 475 300 762 850 
Q 1050 1400 1250 2000 
Q 1475 1825 1700 1675 
z
M 3400 1050 
Q 3800 650 4300 -125 
Q 4100 -225 3875 -450 
Q 3475 275 3025 750 
Q 3225 875 3400 1050 
z
M 600 3525 
Q 1125 3125 1500 2775 
Q 1300 2575 1150 2375 
Q 825 2775 300 3150 
Q 450 3300 600 3525 
z
M 1350 4000 
Q 950 4375 475 4675 
Q 625 4850 775 5050 
Q 1300 4700 1675 4375 
Q 1500 4250 1350 4000 
z
" transform="scale(0.015625)"/>
     </defs>
     <use xlink:href="#SimHei-4e3b"/>
     <use xlink:href="#SimHei-8f74" x="100"/>
     <use xlink:href="#SimHei-529f" x="200"/>
     <use xlink:href="#SimHei-7387" x="300"/>
     <use xlink:href="#SimHei-9884" x="400"/>
     <use xlink:href="#SimHei-6d4b" x="500"/>
    </g>
   </g>
  </g>
  <g id="axes_2">
   <g id="matplotlib.axis_3">
    <g id="xtick_9">
     <g id="line2d_28">
      <defs>
       <path id="ma86d5f3a0e" d="M 0 0 
L 0 -3.5 
" style="stroke: #000000; stroke-width: 0.8"/>
      </defs>
      <g>
       <use xlink:href="#ma86d5f3a0e" x="70.803807" y="53.906173" style="stroke: #000000; stroke-width: 0.8"/>
      </g>
     </g>
     <g id="text_18">
      <!-- N0 -->
      <g transform="translate(74.692894 46.199067) rotate(-45) scale(0.08 -0.08)">
       <defs>
        <path id="SimHei-4e" d="M 2850 125 
L 2225 125 
L 850 3225 
L 825 3225 
L 825 125 
L 250 125 
L 250 4400 
L 875 4400 
L 2250 1300 
L 2275 1300 
L 2275 4400 
L 2850 4400 
L 2850 125 
z
" transform="scale(0.015625)"/>
       </defs>
       <use xlink:href="#SimHei-4e"/>
       <use xlink:href="#SimHei-30" x="50"/>
      </g>
     </g>
    </g>
    <g id="xtick_10">
     <g id="line2d_29">
      <g>
       <use xlink:href="#ma86d5f3a0e" x="338.885831" y="53.906173" style="stroke: #000000; stroke-width: 0.8"/>
      </g>
     </g>
     <g id="text_19">
      <!-- N0 -->
      <g transform="translate(342.774918 46.199067) rotate(-45) scale(0.08 -0.08)">
       <use xlink:href="#SimHei-4e"/>
       <use xlink:href="#SimHei-30" x="50"/>
      </g>
     </g>
    </g>
    <g id="xtick_11">
     <g id="line2d_30">
      <g>
       <use xlink:href="#ma86d5f3a0e" x="437.351732" y="53.906173" style="stroke: #000000; stroke-width: 0.8"/>
      </g>
     </g>
     <g id="text_20">
      <!-- N0 -->
      <g transform="translate(441.240819 46.199067) rotate(-45) scale(0.08 -0.08)">
       <use xlink:href="#SimHei-4e"/>
       <use xlink:href="#SimHei-30" x="50"/>
      </g>
     </g>
    </g>
    <g id="xtick_12">
     <g id="line2d_31">
      <g>
       <use xlink:href="#ma86d5f3a0e" x="454.062511" y="53.906173" style="stroke: #000000; stroke-width: 0.8"/>
      </g>
     </g>
     <g id="text_21">
      <!-- N0 -->
      <g transform="translate(457.951599 46.199067) rotate(-45) scale(0.08 -0.08)">
       <use xlink:href="#SimHei-4e"/>
       <use xlink:href="#SimHei-30" x="50"/>
      </g>
     </g>
    </g>
    <g id="xtick_13">
     <g id="line2d_32">
      <g>
       <use xlink:href="#ma86d5f3a0e" x="523.063742" y="53.906173" style="stroke: #000000; stroke-width: 0.8"/>
      </g>
     </g>
     <g id="text_22">
      <!-- N0 -->
      <g transform="translate(526.95283 46.199067) rotate(-45) scale(0.08 -0.08)">
       <use xlink:href="#SimHei-4e"/>
       <use xlink:href="#SimHei-30" x="50"/>
      </g>
     </g>
    </g>
    <g id="xtick_14">
     <g id="line2d_33">
      <g>
       <use xlink:href="#ma86d5f3a0e" x="535.533909" y="53.906173" style="stroke: #000000; stroke-width: 0.8"/>
      </g>
     </g>
     <g id="text_23">
      <!-- N0 -->
      <g transform="translate(539.422996 46.199067) rotate(-45) scale(0.08 -0.08)">
       <use xlink:href="#SimHei-4e"/>
       <use xlink:href="#SimHei-30" x="50"/>
      </g>
     </g>
    </g>
    <g id="xtick_15">
     <g id="line2d_34">
      <g>
       <use xlink:href="#ma86d5f3a0e" x="542.021048" y="53.906173" style="stroke: #000000; stroke-width: 0.8"/>
      </g>
     </g>
     <g id="text_24">
      <!-- N0 -->
      <g transform="translate(545.910135 46.199067) rotate(-45) scale(0.08 -0.08)">
       <use xlink:href="#SimHei-4e"/>
       <use xlink:href="#SimHei-30" x="50"/>
      </g>
     </g>
    </g>
    <g id="xtick_16">
     <g id="line2d_35">
      <g>
       <use xlink:href="#ma86d5f3a0e" x="576.378886" y="53.906173" style="stroke: #000000; stroke-width: 0.8"/>
      </g>
     </g>
     <g id="text_25">
      <!-- N0 -->
      <g transform="translate(580.267973 46.199067) rotate(-45) scale(0.08 -0.08)">
       <use xlink:href="#SimHei-4e"/>
       <use xlink:href="#SimHei-30" x="50"/>
      </g>
     </g>
    </g>
    <g id="xtick_17">
     <g id="line2d_36">
      <g>
       <use xlink:href="#ma86d5f3a0e" x="624.356335" y="53.906173" style="stroke: #000000; stroke-width: 0.8"/>
      </g>
     </g>
     <g id="text_26">
      <!-- N0 -->
      <g transform="translate(628.245422 46.199067) rotate(-45) scale(0.08 -0.08)">
       <use xlink:href="#SimHei-4e"/>
       <use xlink:href="#SimHei-30" x="50"/>
      </g>
     </g>
    </g>
    <g id="xtick_18">
     <g id="line2d_37">
      <g>
       <use xlink:href="#ma86d5f3a0e" x="660.724053" y="53.906173" style="stroke: #000000; stroke-width: 0.8"/>
      </g>
     </g>
     <g id="text_27">
      <!-- N0 -->
      <g transform="translate(664.613141 46.199067) rotate(-45) scale(0.08 -0.08)">
       <use xlink:href="#SimHei-4e"/>
       <use xlink:href="#SimHei-30" x="50"/>
      </g>
     </g>
    </g>
    <g id="xtick_19">
     <g id="line2d_38">
      <g>
       <use xlink:href="#ma86d5f3a0e" x="706.276099" y="53.906173" style="stroke: #000000; stroke-width: 0.8"/>
      </g>
     </g>
     <g id="text_28">
      <!-- N0 -->
      <g transform="translate(710.165187 46.199067) rotate(-45) scale(0.08 -0.08)">
       <use xlink:href="#SimHei-4e"/>
       <use xlink:href="#SimHei-30" x="50"/>
      </g>
     </g>
    </g>
    <g id="xtick_20">
     <g id="line2d_39">
      <g>
       <use xlink:href="#ma86d5f3a0e" x="751.951695" y="53.906173" style="stroke: #000000; stroke-width: 0.8"/>
      </g>
     </g>
     <g id="text_29">
      <!-- N0 -->
      <g transform="translate(755.840782 46.199067) rotate(-45) scale(0.08 -0.08)">
       <use xlink:href="#SimHei-4e"/>
       <use xlink:href="#SimHei-30" x="50"/>
      </g>
     </g>
    </g>
    <g id="xtick_21">
     <g id="line2d_40">
      <g>
       <use xlink:href="#ma86d5f3a0e" x="787.077385" y="53.906173" style="stroke: #000000; stroke-width: 0.8"/>
      </g>
     </g>
     <g id="text_30">
      <!-- N0 -->
      <g transform="translate(790.966472 46.199067) rotate(-45) scale(0.08 -0.08)">
       <use xlink:href="#SimHei-4e"/>
       <use xlink:href="#SimHei-30" x="50"/>
      </g>
     </g>
    </g>
    <g id="text_31">
     <!-- 指令行号 N -->
     <g transform="translate(412.623125 32.653125) scale(0.1 -0.1)">
      <defs>
       <path id="SimHei-6307" d="M 5625 2225 
Q 5600 1925 5600 1350 
L 5600 300 
Q 5600 -225 5625 -525 
L 5125 -525 
L 5125 -125 
L 3300 -125 
L 3300 -625 
L 2800 -625 
Q 2825 -300 2825 300 
L 2825 1350 
Q 2825 1925 2800 2225 
L 5625 2225 
z
M 500 25 
Q 1075 -25 1175 37 
Q 1275 100 1275 275 
L 1275 1675 
Q 1050 1600 925 1537 
Q 800 1475 475 1275 
Q 400 1525 225 1800 
Q 625 1900 825 1975 
Q 1025 2050 1275 2125 
L 1275 3300 
L 1100 3300 
Q 775 3300 450 3275 
L 450 3725 
Q 750 3700 1100 3700 
L 1275 3700 
L 1275 4450 
Q 1275 4800 1250 5125 
L 1775 5125 
Q 1750 4850 1750 4450 
L 1750 3700 
Q 2075 3700 2425 3725 
L 2425 3275 
Q 2050 3300 1750 3300 
L 1750 2325 
Q 1850 2350 2025 2425 
L 2375 2575 
Q 2350 2300 2375 2100 
Q 2225 2050 2062 1987 
Q 1900 1925 1750 1850 
L 1750 100 
Q 1725 -200 1575 -337 
Q 1425 -475 675 -525 
Q 625 -250 500 25 
z
M 3325 5025 
Q 3300 4675 3300 4125 
Q 4125 4275 4512 4412 
Q 4900 4550 5225 4725 
Q 5325 4475 5575 4250 
Q 5450 4225 5237 4175 
Q 5025 4125 4725 4050 
Q 4425 3975 4037 3887 
Q 3650 3800 3300 3725 
L 3300 3175 
Q 3275 2925 3700 2925 
L 4925 2925 
Q 5300 2925 5387 3087 
Q 5475 3250 5550 3600 
Q 5750 3400 6050 3300 
Q 5825 2725 5700 2637 
Q 5575 2550 5275 2525 
L 3350 2525 
Q 3050 2525 2937 2687 
Q 2825 2850 2825 2975 
L 2825 4125 
Q 2825 4775 2800 5025 
L 3325 5025 
z
M 5125 275 
L 5125 875 
L 3300 875 
L 3300 275 
L 5125 275 
z
M 5125 1250 
L 5125 1825 
L 3300 1825 
L 3300 1250 
L 5125 1250 
z
" transform="scale(0.015625)"/>
       <path id="SimHei-4ee4" d="M 5375 2075 
L 5375 1550 
Q 4925 1325 4450 937 
Q 3975 550 3575 125 
L 4250 -325 
Q 4050 -550 3875 -775 
Q 3100 -125 1850 425 
L 2150 875 
Q 2400 775 3125 350 
Q 3800 1025 4450 1625 
L 2025 1625 
Q 1500 1625 975 1600 
L 975 2100 
Q 1525 2075 2025 2075 
L 5375 2075 
z
M 3375 4850 
Q 4450 3550 6200 2900 
Q 5950 2625 5800 2350 
Q 4150 3150 3100 4475 
Q 2075 3125 625 2225 
Q 400 2525 200 2700 
Q 875 2975 1675 3675 
Q 2475 4375 2950 5300 
Q 3275 5175 3550 5050 
Q 3475 5000 3375 4850 
z
M 2925 3600 
Q 3175 3350 3750 2725 
L 3300 2325 
Q 3050 2700 2550 3225 
Q 2750 3375 2925 3600 
z
" transform="scale(0.015625)"/>
       <path id="SimHei-53f7" d="M 5025 4925 
Q 5000 4550 5000 4075 
Q 5000 3600 5025 3175 
L 1400 3175 
Q 1425 3525 1425 4000 
Q 1425 4500 1400 4925 
L 5025 4925 
z
M 5175 2625 
Q 5650 2625 6025 2650 
L 6025 2200 
Q 5650 2225 5175 2225 
L 2450 2225 
Q 2350 1875 2225 1450 
L 5175 1450 
Q 5100 1050 5062 775 
Q 5025 500 4950 112 
Q 4875 -275 4650 -412 
Q 4425 -550 3225 -625 
Q 3125 -350 2975 -50 
Q 3875 -75 4112 -50 
Q 4350 -25 4425 212 
Q 4500 450 4575 1025 
L 1600 1025 
Q 1825 1625 1950 2225 
L 1350 2225 
Q 825 2225 375 2200 
L 375 2650 
Q 825 2625 1350 2625 
L 5175 2625 
z
M 4525 3575 
L 4525 4525 
L 1900 4525 
L 1900 3575 
L 4525 3575 
z
" transform="scale(0.015625)"/>
      </defs>
      <use xlink:href="#SimHei-6307"/>
      <use xlink:href="#SimHei-4ee4" x="100"/>
      <use xlink:href="#SimHei-884c" x="200"/>
      <use xlink:href="#SimHei-53f7" x="300"/>
      <use xlink:href="#SimHei-20" x="400"/>
      <use xlink:href="#SimHei-4e" x="450"/>
     </g>
    </g>
   </g>
   <g id="patch_7">
    <path d="M 34.121875 450.256704 
L 34.121875 53.906173 
" style="fill: none; stroke: #000000; stroke-width: 0.8; stroke-linejoin: miter; stroke-linecap: square"/>
   </g>
   <g id="patch_8">
    <path d="M 841.124375 450.256704 
L 841.124375 53.906173 
" style="fill: none; stroke: #000000; stroke-width: 0.8; stroke-linejoin: miter; stroke-linecap: square"/>
   </g>
   <g id="patch_9">
    <path d="M 34.121875 450.256704 
L 841.124375 450.256704 
" style="fill: none; stroke: #000000; stroke-width: 0.8; stroke-linejoin: miter; stroke-linecap: square"/>
   </g>
   <g id="patch_10">
    <path d="M 34.121875 53.906173 
L 841.124375 53.906173 
" style="fill: none; stroke: #000000; stroke-width: 0.8; stroke-linejoin: miter; stroke-linecap: square"/>
   </g>
  </g>
 </g>
 <defs>
  <clipPath id="p83758404a4">
   <rect x="34.121875" y="53.906173" width="807.0025" height="396.35053"/>
  </clipPath>
 </defs>
</svg>
