<?xml version="1.0" encoding="utf-8" standalone="no"?>
<!DOCTYPE svg PUBLIC "-//W3C//DTD SVG 1.1//EN"
  "http://www.w3.org/Graphics/SVG/1.1/DTD/svg11.dtd">
<svg xmlns:xlink="http://www.w3.org/1999/xlink" width="848.45375pt" height="488.35209pt" viewBox="0 0 848.45375 488.35209" xmlns="http://www.w3.org/2000/svg" version="1.1">
 <metadata>
  <rdf:RDF xmlns:dc="http://purl.org/dc/elements/1.1/" xmlns:cc="http://creativecommons.org/ns#" xmlns:rdf="http://www.w3.org/1999/02/22-rdf-syntax-ns#">
   <cc:Work>
    <dc:type rdf:resource="http://purl.org/dc/dcmitype/StillImage"/>
    <dc:date>2025-12-10T13:35:59.328733</dc:date>
    <dc:format>image/svg+xml</dc:format>
    <dc:creator>
     <cc:Agent>
      <dc:title>Matplotlib v3.9.2, https://matplotlib.org/</dc:title>
     </cc:Agent>
    </dc:creator>
   </cc:Work>
  </rdf:RDF>
 </metadata>
 <defs>
  <style type="text/css">*{stroke-linejoin: round; stroke-linecap: butt}</style>
 </defs>
 <g id="figure_1">
  <g id="patch_1">
   <path d="M 0 488.35209 
L 848.45375 488.35209 
L 848.45375 0 
L 0 0 
z
" style="fill: #ffffff"/>
  </g>
  <g id="axes_1">
   <g id="patch_2">
    <path d="M 34.35625 450.823965 
L 841.25375 450.823965 
L 841.25375 70.931424 
L 34.35625 70.931424 
z
" style="fill: #ffffff"/>
   </g>
   <g id="matplotlib.axis_1">
    <g id="xtick_1">
     <g id="line2d_1">
      <path d="M 59.352149 450.823965 
L 59.352149 70.931424 
" clip-path="url(#p12b5a27efb)" style="fill: none; stroke-dasharray: 2.96,1.28; stroke-dashoffset: 0; stroke: #b0b0b0; stroke-opacity: 0.7; stroke-width: 0.8"/>
     </g>
     <g id="line2d_2">
      <defs>
       <path id="m9a5a7a2195" d="M 0 0 
L 0 3.5 
" style="stroke: #000000; stroke-width: 0.8"/>
      </defs>
      <g>
       <use xlink:href="#m9a5a7a2195" x="59.352149" y="450.823965" style="stroke: #000000; stroke-width: 0.8"/>
      </g>
     </g>
     <g id="text_1">
      <!-- 0 -->
      <g transform="translate(56.852149 464.698965) scale(0.1 -0.1)">
       <defs>
        <path id="SimHei-30" d="M 225 2537 
Q 250 3200 412 3587 
Q 575 3975 875 4225 
Q 1175 4475 1612 4475 
Q 2050 4475 2375 4112 
Q 2700 3750 2800 3200 
Q 2900 2650 2862 1937 
Q 2825 1225 2612 775 
Q 2400 325 1975 150 
Q 1550 -25 1125 187 
Q 700 400 525 750 
Q 350 1100 275 1487 
Q 200 1875 225 2537 
z
M 750 2687 
Q 675 2000 800 1462 
Q 925 925 1212 700 
Q 1500 475 1800 612 
Q 2100 750 2237 1162 
Q 2375 1575 2375 2062 
Q 2375 2550 2337 2950 
Q 2300 3350 2112 3675 
Q 1925 4000 1612 4012 
Q 1300 4025 1062 3700 
Q 825 3375 750 2687 
z
" transform="scale(0.015625)"/>
       </defs>
       <use xlink:href="#SimHei-30"/>
      </g>
     </g>
    </g>
    <g id="xtick_2">
     <g id="line2d_3">
      <path d="M 190.253645 450.823965 
L 190.253645 70.931424 
" clip-path="url(#p12b5a27efb)" style="fill: none; stroke-dasharray: 2.96,1.28; stroke-dashoffset: 0; stroke: #b0b0b0; stroke-opacity: 0.7; stroke-width: 0.8"/>
     </g>
     <g id="line2d_4">
      <g>
       <use xlink:href="#m9a5a7a2195" x="190.253645" y="450.823965" style="stroke: #000000; stroke-width: 0.8"/>
      </g>
     </g>
     <g id="text_2">
      <!-- 5000 -->
      <g transform="translate(180.253645 464.698965) scale(0.1 -0.1)">
       <defs>
        <path id="SimHei-35" d="M 550 1325 
Q 725 650 1150 575 
Q 1575 500 1837 662 
Q 2100 825 2212 1087 
Q 2325 1350 2312 1675 
Q 2300 2000 2137 2225 
Q 1975 2450 1725 2525 
Q 1475 2600 1162 2525 
Q 850 2450 650 2175 
L 225 2225 
Q 275 2375 700 4375 
L 2675 4375 
L 2675 3925 
L 1075 3925 
Q 950 3250 825 2850 
Q 1200 3025 1525 3012 
Q 1850 3000 2150 2862 
Q 2450 2725 2587 2487 
Q 2725 2250 2787 2012 
Q 2850 1775 2837 1500 
Q 2825 1225 2725 937 
Q 2625 650 2425 462 
Q 2225 275 1937 162 
Q 1650 50 1275 75 
Q 900 100 562 350 
Q 225 600 100 1200 
L 550 1325 
z
" transform="scale(0.015625)"/>
       </defs>
       <use xlink:href="#SimHei-35"/>
       <use xlink:href="#SimHei-30" x="50"/>
       <use xlink:href="#SimHei-30" x="100"/>
       <use xlink:href="#SimHei-30" x="150"/>
      </g>
     </g>
    </g>
    <g id="xtick_3">
     <g id="line2d_5">
      <path d="M 321.15514 450.823965 
L 321.15514 70.931424 
" clip-path="url(#p12b5a27efb)" style="fill: none; stroke-dasharray: 2.96,1.28; stroke-dashoffset: 0; stroke: #b0b0b0; stroke-opacity: 0.7; stroke-width: 0.8"/>
     </g>
     <g id="line2d_6">
      <g>
       <use xlink:href="#m9a5a7a2195" x="321.15514" y="450.823965" style="stroke: #000000; stroke-width: 0.8"/>
      </g>
     </g>
     <g id="text_3">
      <!-- 10000 -->
      <g transform="translate(308.65514 464.698965) scale(0.1 -0.1)">
       <defs>
        <path id="SimHei-31" d="M 1400 3600 
Q 1075 3275 575 2975 
L 575 3450 
Q 1200 3875 1600 4450 
L 1900 4450 
L 1900 150 
L 1400 150 
L 1400 3600 
z
" transform="scale(0.015625)"/>
       </defs>
       <use xlink:href="#SimHei-31"/>
       <use xlink:href="#SimHei-30" x="50"/>
       <use xlink:href="#SimHei-30" x="100"/>
       <use xlink:href="#SimHei-30" x="150"/>
       <use xlink:href="#SimHei-30" x="200"/>
      </g>
     </g>
    </g>
    <g id="xtick_4">
     <g id="line2d_7">
      <path d="M 452.056635 450.823965 
L 452.056635 70.931424 
" clip-path="url(#p12b5a27efb)" style="fill: none; stroke-dasharray: 2.96,1.28; stroke-dashoffset: 0; stroke: #b0b0b0; stroke-opacity: 0.7; stroke-width: 0.8"/>
     </g>
     <g id="line2d_8">
      <g>
       <use xlink:href="#m9a5a7a2195" x="452.056635" y="450.823965" style="stroke: #000000; stroke-width: 0.8"/>
      </g>
     </g>
     <g id="text_4">
      <!-- 15000 -->
      <g transform="translate(439.556635 464.698965) scale(0.1 -0.1)">
       <use xlink:href="#SimHei-31"/>
       <use xlink:href="#SimHei-35" x="50"/>
       <use xlink:href="#SimHei-30" x="100"/>
       <use xlink:href="#SimHei-30" x="150"/>
       <use xlink:href="#SimHei-30" x="200"/>
      </g>
     </g>
    </g>
    <g id="xtick_5">
     <g id="line2d_9">
      <path d="M 582.95813 450.823965 
L 582.95813 70.931424 
" clip-path="url(#p12b5a27efb)" style="fill: none; stroke-dasharray: 2.96,1.28; stroke-dashoffset: 0; stroke: #b0b0b0; stroke-opacity: 0.7; stroke-width: 0.8"/>
     </g>
     <g id="line2d_10">
      <g>
       <use xlink:href="#m9a5a7a2195" x="582.95813" y="450.823965" style="stroke: #000000; stroke-width: 0.8"/>
      </g>
     </g>
     <g id="text_5">
      <!-- 20000 -->
      <g transform="translate(570.45813 464.698965) scale(0.1 -0.1)">
       <defs>
        <path id="SimHei-32" d="M 300 250 
Q 325 625 650 925 
Q 975 1225 1475 1862 
Q 1975 2500 2125 2850 
Q 2275 3200 2237 3450 
Q 2200 3700 2000 3862 
Q 1800 4025 1537 4000 
Q 1275 3975 1037 3800 
Q 800 3625 675 3275 
L 200 3350 
Q 400 3925 712 4187 
Q 1025 4450 1450 4475 
Q 1700 4500 1900 4462 
Q 2100 4425 2312 4287 
Q 2525 4150 2662 3875 
Q 2800 3600 2762 3212 
Q 2725 2825 2375 2287 
Q 2025 1750 1025 600 
L 2825 600 
L 2825 150 
L 300 150 
L 300 250 
z
" transform="scale(0.015625)"/>
       </defs>
       <use xlink:href="#SimHei-32"/>
       <use xlink:href="#SimHei-30" x="50"/>
       <use xlink:href="#SimHei-30" x="100"/>
       <use xlink:href="#SimHei-30" x="150"/>
       <use xlink:href="#SimHei-30" x="200"/>
      </g>
     </g>
    </g>
    <g id="xtick_6">
     <g id="line2d_11">
      <path d="M 713.859626 450.823965 
L 713.859626 70.931424 
" clip-path="url(#p12b5a27efb)" style="fill: none; stroke-dasharray: 2.96,1.28; stroke-dashoffset: 0; stroke: #b0b0b0; stroke-opacity: 0.7; stroke-width: 0.8"/>
     </g>
     <g id="line2d_12">
      <g>
       <use xlink:href="#m9a5a7a2195" x="713.859626" y="450.823965" style="stroke: #000000; stroke-width: 0.8"/>
      </g>
     </g>
     <g id="text_6">
      <!-- 25000 -->
      <g transform="translate(701.359626 464.698965) scale(0.1 -0.1)">
       <use xlink:href="#SimHei-32"/>
       <use xlink:href="#SimHei-35" x="50"/>
       <use xlink:href="#SimHei-30" x="100"/>
       <use xlink:href="#SimHei-30" x="150"/>
       <use xlink:href="#SimHei-30" x="200"/>
      </g>
     </g>
    </g>
    <g id="text_7">
     <!-- 行程 s (mm) -->
     <g transform="translate(404.805 479.65209) scale(0.12 -0.12)">
      <defs>
       <path id="SimHei-884c" d="M 5300 3100 
Q 5775 3100 6175 3125 
L 6175 2625 
Q 5775 2650 5325 2650 
L 4975 2650 
L 4975 -75 
Q 5000 -375 4787 -487 
Q 4575 -600 3950 -675 
Q 3900 -375 3675 -75 
Q 4100 -125 4275 -112 
Q 4450 -100 4475 150 
L 4475 2650 
L 3475 2650 
Q 3000 2650 2575 2625 
L 2575 3125 
Q 3025 3100 3475 3100 
L 5300 3100 
z
M 2300 3400 
Q 2075 3275 1962 3075 
Q 1850 2875 1650 2575 
L 1650 325 
Q 1650 0 1675 -675 
L 1150 -675 
Q 1175 75 1175 450 
L 1175 2050 
Q 950 1675 575 1300 
Q 400 1550 250 1725 
Q 825 2275 1150 2775 
Q 1475 3275 1725 3725 
Q 1975 3575 2300 3400 
z
M 4875 4800 
Q 5300 4800 5750 4825 
L 5750 4350 
Q 5300 4375 4825 4375 
L 3900 4375 
Q 3350 4375 2950 4350 
L 2950 4825 
Q 3350 4800 3900 4800 
L 4875 4800 
z
M 2075 4925 
Q 1875 4900 1550 4387 
Q 1225 3875 650 3250 
Q 500 3450 325 3625 
Q 725 4025 1050 4487 
Q 1375 4950 1525 5300 
Q 1775 5150 2075 4925 
z
" transform="scale(0.015625)"/>
       <path id="SimHei-7a0b" d="M 5825 4975 
Q 5800 4425 5800 3975 
Q 5800 3550 5825 3125 
L 3025 3125 
Q 3050 3600 3050 4025 
Q 3050 4450 3025 4975 
L 5825 4975 
z
M 400 4825 
Q 825 4875 1362 4987 
Q 1900 5100 2275 5275 
Q 2450 4950 2625 4725 
Q 2450 4750 2262 4712 
Q 2075 4675 1850 4650 
L 1850 3425 
Q 2200 3425 2600 3450 
L 2600 2975 
Q 2200 3000 1850 3000 
L 1850 800 
Q 1850 250 1875 -675 
L 1375 -675 
Q 1400 250 1400 775 
L 1400 1925 
Q 1050 1225 625 600 
Q 450 850 225 1050 
Q 575 1400 850 1850 
Q 1125 2300 1350 3000 
Q 725 3000 425 2975 
L 425 3450 
Q 850 3425 1050 3425 
L 1400 3425 
L 1400 4550 
Q 1075 4475 575 4400 
Q 500 4625 400 4825 
z
M 5100 2500 
Q 5500 2500 5950 2525 
L 5950 2075 
Q 5500 2100 5100 2100 
L 4625 2100 
L 4625 1300 
L 4900 1300 
Q 5275 1300 5775 1325 
L 5775 850 
Q 5275 875 4975 875 
L 4625 875 
L 4625 0 
L 5225 0 
Q 5675 0 6175 25 
L 6175 -450 
Q 5775 -425 5225 -425 
L 3550 -425 
Q 3000 -425 2600 -475 
L 2600 25 
Q 3000 0 3550 0 
L 4150 0 
L 4150 875 
L 3800 875 
Q 3400 875 3050 825 
L 3050 1325 
Q 3400 1300 3800 1300 
L 4150 1300 
L 4150 2100 
L 3750 2100 
Q 3300 2100 2900 2075 
L 2900 2525 
Q 3300 2500 3750 2500 
L 5100 2500 
z
M 5275 3575 
L 5275 4550 
L 3500 4550 
L 3500 3575 
L 5275 3575 
z
M 2300 2400 
Q 2550 2025 2825 1525 
Q 2675 1425 2425 1225 
Q 2175 1775 1925 2125 
Q 2075 2250 2300 2400 
z
" transform="scale(0.015625)"/>
       <path id="SimHei-20" transform="scale(0.015625)"/>
       <path id="SimHei-73" d="M 2750 900 
Q 2750 500 2437 287 
Q 2125 75 1650 75 
Q 1050 75 725 312 
Q 400 550 400 1000 
L 900 1000 
Q 900 700 1112 600 
Q 1325 500 1625 500 
Q 1925 500 2075 612 
Q 2225 725 2225 900 
Q 2225 1025 2100 1150 
Q 1975 1275 1475 1350 
Q 900 1425 687 1637 
Q 475 1850 475 2200 
Q 475 2500 762 2737 
Q 1050 2975 1600 2975 
Q 2100 2975 2387 2750 
Q 2675 2525 2675 2150 
L 2175 2150 
Q 2175 2375 2012 2462 
Q 1850 2550 1600 2550 
Q 1275 2550 1137 2437 
Q 1000 2325 1000 2175 
Q 1000 2000 1125 1900 
Q 1250 1800 1650 1750 
Q 2300 1650 2525 1437 
Q 2750 1225 2750 900 
z
" transform="scale(0.015625)"/>
       <path id="SimHei-28" d="M 2975 -200 
L 2700 -475 
Q 2075 125 1762 775 
Q 1450 1425 1450 2250 
Q 1450 3075 1762 3725 
Q 2075 4375 2700 5000 
L 2975 4725 
Q 2400 4175 2112 3587 
Q 1825 3000 1825 2250 
Q 1825 1500 2112 912 
Q 2400 325 2975 -200 
z
" transform="scale(0.015625)"/>
       <path id="SimHei-6d" d="M 3050 125 
L 2550 125 
L 2550 2150 
Q 2550 2300 2500 2400 
Q 2450 2500 2300 2500 
Q 2125 2500 1975 2312 
Q 1825 2125 1825 1825 
L 1825 125 
L 1325 125 
L 1325 2150 
Q 1325 2300 1275 2400 
Q 1225 2500 1075 2500 
Q 900 2500 750 2312 
Q 600 2125 600 1825 
L 600 125 
L 100 125 
L 100 2925 
L 600 2925 
L 600 2550 
Q 725 2750 900 2862 
Q 1075 2975 1275 2975 
Q 1475 2975 1612 2862 
Q 1750 2750 1800 2550 
Q 1925 2750 2087 2862 
Q 2250 2975 2450 2975 
Q 2750 2975 2900 2812 
Q 3050 2650 3050 2350 
L 3050 125 
z
" transform="scale(0.015625)"/>
       <path id="SimHei-29" d="M 1675 2250 
Q 1675 1425 1362 775 
Q 1050 125 425 -475 
L 150 -200 
Q 725 325 1012 912 
Q 1300 1500 1300 2250 
Q 1300 3000 1012 3587 
Q 725 4175 150 4725 
L 425 5000 
Q 1050 4375 1362 3725 
Q 1675 3075 1675 2250 
z
" transform="scale(0.015625)"/>
      </defs>
      <use xlink:href="#SimHei-884c"/>
      <use xlink:href="#SimHei-7a0b" x="100"/>
      <use xlink:href="#SimHei-20" x="200"/>
      <use xlink:href="#SimHei-73" x="250"/>
      <use xlink:href="#SimHei-20" x="300"/>
      <use xlink:href="#SimHei-28" x="350"/>
      <use xlink:href="#SimHei-6d" x="400"/>
      <use xlink:href="#SimHei-6d" x="450"/>
      <use xlink:href="#SimHei-29" x="500"/>
     </g>
    </g>
   </g>
   <g id="matplotlib.axis_2">
    <g id="ytick_1">
     <g id="line2d_13">
      <path d="M 34.35625 433.556122 
L 841.25375 433.556122 
" clip-path="url(#p12b5a27efb)" style="fill: none; stroke-dasharray: 2.96,1.28; stroke-dashoffset: 0; stroke: #b0b0b0; stroke-opacity: 0.7; stroke-width: 0.8"/>
     </g>
     <g id="line2d_14">
      <defs>
       <path id="m6fc06d720d" d="M 0 0 
L -3.5 0 
" style="stroke: #000000; stroke-width: 0.8"/>
      </defs>
      <g>
       <use xlink:href="#m6fc06d720d" x="34.35625" y="433.556122" style="stroke: #000000; stroke-width: 0.8"/>
      </g>
     </g>
     <g id="text_8">
      <!-- 0 -->
      <g transform="translate(22.35625 436.993622) scale(0.1 -0.1)">
       <use xlink:href="#SimHei-30"/>
      </g>
     </g>
    </g>
    <g id="ytick_2">
     <g id="line2d_15">
      <path d="M 34.35625 356.810154 
L 841.25375 356.810154 
" clip-path="url(#p12b5a27efb)" style="fill: none; stroke-dasharray: 2.96,1.28; stroke-dashoffset: 0; stroke: #b0b0b0; stroke-opacity: 0.7; stroke-width: 0.8"/>
     </g>
     <g id="line2d_16">
      <g>
       <use xlink:href="#m6fc06d720d" x="34.35625" y="356.810154" style="stroke: #000000; stroke-width: 0.8"/>
      </g>
     </g>
     <g id="text_9">
      <!-- 2 -->
      <g transform="translate(22.35625 360.247654) scale(0.1 -0.1)">
       <use xlink:href="#SimHei-32"/>
      </g>
     </g>
    </g>
    <g id="ytick_3">
     <g id="line2d_17">
      <path d="M 34.35625 280.064186 
L 841.25375 280.064186 
" clip-path="url(#p12b5a27efb)" style="fill: none; stroke-dasharray: 2.96,1.28; stroke-dashoffset: 0; stroke: #b0b0b0; stroke-opacity: 0.7; stroke-width: 0.8"/>
     </g>
     <g id="line2d_18">
      <g>
       <use xlink:href="#m6fc06d720d" x="34.35625" y="280.064186" style="stroke: #000000; stroke-width: 0.8"/>
      </g>
     </g>
     <g id="text_10">
      <!-- 4 -->
      <g transform="translate(22.35625 283.501686) scale(0.1 -0.1)">
       <defs>
        <path id="SimHei-34" d="M 2000 1100 
L 75 1100 
L 75 1525 
L 2100 4450 
L 2475 4450 
L 2475 1525 
L 3075 1525 
L 3075 1100 
L 2475 1100 
L 2475 150 
L 2000 150 
L 2000 1100 
z
M 2000 1525 
L 2000 3500 
L 600 1525 
L 2000 1525 
z
" transform="scale(0.015625)"/>
       </defs>
       <use xlink:href="#SimHei-34"/>
      </g>
     </g>
    </g>
    <g id="ytick_4">
     <g id="line2d_19">
      <path d="M 34.35625 203.318218 
L 841.25375 203.318218 
" clip-path="url(#p12b5a27efb)" style="fill: none; stroke-dasharray: 2.96,1.28; stroke-dashoffset: 0; stroke: #b0b0b0; stroke-opacity: 0.7; stroke-width: 0.8"/>
     </g>
     <g id="line2d_20">
      <g>
       <use xlink:href="#m6fc06d720d" x="34.35625" y="203.318218" style="stroke: #000000; stroke-width: 0.8"/>
      </g>
     </g>
     <g id="text_11">
      <!-- 6 -->
      <g transform="translate(22.35625 206.755718) scale(0.1 -0.1)">
       <defs>
        <path id="SimHei-36" d="M 250 1612 
Q 275 1975 387 2225 
Q 500 2475 725 2850 
L 1750 4450 
L 2325 4450 
L 1275 2800 
Q 1950 2975 2350 2750 
Q 2750 2525 2887 2237 
Q 3025 1950 3037 1612 
Q 3050 1275 2937 950 
Q 2825 625 2537 362 
Q 2250 100 1737 75 
Q 1225 50 862 262 
Q 500 475 362 862 
Q 225 1250 250 1612 
z
M 1025 787 
Q 1250 550 1625 525 
Q 2000 500 2250 775 
Q 2500 1050 2500 1575 
Q 2500 2100 2187 2300 
Q 1875 2500 1487 2450 
Q 1100 2400 925 2075 
Q 750 1750 775 1387 
Q 800 1025 1025 787 
z
" transform="scale(0.015625)"/>
       </defs>
       <use xlink:href="#SimHei-36"/>
      </g>
     </g>
    </g>
    <g id="ytick_5">
     <g id="line2d_21">
      <path d="M 34.35625 126.57225 
L 841.25375 126.57225 
" clip-path="url(#p12b5a27efb)" style="fill: none; stroke-dasharray: 2.96,1.28; stroke-dashoffset: 0; stroke: #b0b0b0; stroke-opacity: 0.7; stroke-width: 0.8"/>
     </g>
     <g id="line2d_22">
      <g>
       <use xlink:href="#m6fc06d720d" x="34.35625" y="126.57225" style="stroke: #000000; stroke-width: 0.8"/>
      </g>
     </g>
     <g id="text_12">
      <!-- 8 -->
      <g transform="translate(22.35625 130.00975) scale(0.1 -0.1)">
       <defs>
        <path id="SimHei-38" d="M 175 1375 
Q 175 1675 325 1962 
Q 475 2250 825 2425 
Q 525 2600 425 2812 
Q 325 3025 312 3300 
Q 300 3575 387 3775 
Q 475 3975 650 4150 
Q 825 4325 1037 4387 
Q 1250 4450 1500 4450 
Q 1750 4450 1950 4400 
Q 2150 4350 2375 4187 
Q 2600 4025 2700 3725 
Q 2800 3425 2687 3025 
Q 2575 2625 2100 2400 
Q 2525 2275 2700 2012 
Q 2875 1750 2875 1375 
Q 2875 1000 2762 775 
Q 2650 550 2512 400 
Q 2375 250 2137 162 
Q 1900 75 1537 75 
Q 1175 75 912 162 
Q 650 250 475 425 
Q 300 600 237 837 
Q 175 1075 175 1375 
z
M 687 1400 
Q 675 1100 787 875 
Q 900 650 1200 587 
Q 1500 525 1825 600 
Q 2150 675 2275 950 
Q 2400 1225 2362 1500 
Q 2325 1775 2050 1962 
Q 1775 2150 1450 2125 
Q 1125 2100 912 1900 
Q 700 1700 687 1400 
z
M 775 3350 
Q 775 3100 950 2875 
Q 1125 2650 1500 2650 
Q 1875 2650 2062 2875 
Q 2250 3100 2237 3412 
Q 2225 3725 2012 3875 
Q 1800 4025 1437 4000 
Q 1075 3975 925 3787 
Q 775 3600 775 3350 
z
" transform="scale(0.015625)"/>
       </defs>
       <use xlink:href="#SimHei-38"/>
      </g>
     </g>
    </g>
    <g id="text_13">
     <!-- 切深 ap (mm) -->
     <g transform="translate(16.85625 296.877694) rotate(-90) scale(0.12 -0.12)">
      <defs>
       <path id="SimHei-5207" d="M 4200 125 
Q 4875 125 5037 187 
Q 5200 250 5225 525 
L 5400 4175 
L 4250 4175 
Q 4275 2875 4075 1987 
Q 3875 1100 3500 575 
Q 3125 50 2425 -575 
Q 2275 -375 1900 -250 
Q 2550 200 2937 675 
Q 3325 1150 3550 1925 
Q 3775 2700 3750 4175 
Q 3200 4175 2700 4150 
L 2700 4600 
Q 3175 4575 3625 4575 
L 5900 4575 
Q 5875 4200 5850 3700 
L 5700 325 
Q 5625 -250 5312 -337 
Q 5000 -425 4450 -525 
Q 4400 -200 4200 125 
z
M 1175 4275 
Q 1175 4625 1150 5000 
L 1650 5000 
Q 1625 4625 1625 4300 
L 1625 3275 
Q 2150 3350 2700 3425 
Q 2725 3150 2750 2975 
Q 2325 2925 1625 2850 
L 1625 1050 
Q 2325 1475 2650 1750 
Q 2725 1550 2875 1300 
Q 2325 975 1225 200 
Q 1075 500 925 650 
Q 1175 850 1175 1125 
L 1175 2775 
Q 675 2725 325 2675 
Q 300 2975 275 3150 
Q 650 3175 1175 3225 
L 1175 4275 
z
" transform="scale(0.015625)"/>
       <path id="SimHei-6df1" d="M 3675 -625 
Q 3700 -175 3700 25 
L 3700 1675 
Q 3350 975 2925 475 
Q 2500 -25 2150 -325 
Q 2000 -150 1700 0 
Q 2150 275 2600 800 
Q 3050 1325 3225 1825 
Q 2600 1825 2125 1800 
L 2125 2250 
Q 2525 2225 3700 2225 
Q 3700 2675 3675 3050 
L 4200 3050 
Q 4175 2675 4175 2225 
Q 5400 2225 6000 2250 
L 6000 1800 
Q 5600 1825 4575 1825 
Q 4750 1325 5175 862 
Q 5600 400 6125 200 
Q 5825 75 5725 -200 
Q 5200 100 4800 562 
Q 4400 1025 4175 1750 
L 4175 25 
Q 4175 -125 4225 -625 
L 3675 -625 
z
M 5875 4850 
Q 5850 4600 5850 4300 
Q 5850 4025 5875 3725 
L 5375 3725 
L 5375 4450 
L 2550 4450 
L 2550 3650 
L 2075 3650 
Q 2100 4025 2100 4275 
Q 2100 4525 2075 4850 
L 5875 4850 
z
M 1850 1525 
Q 1625 1150 1362 487 
Q 1100 -175 975 -525 
Q 725 -350 375 -250 
Q 625 50 950 712 
Q 1275 1375 1450 1850 
Q 1625 1650 1850 1525 
z
M 4625 4075 
Q 5100 3650 5700 2975 
Q 5450 2825 5300 2625 
Q 4775 3350 4250 3775 
Q 4450 3925 4625 4075 
z
M 3700 3750 
Q 3500 3650 3200 3312 
Q 2900 2975 2500 2600 
Q 2325 2775 2050 2900 
Q 2425 3125 2775 3487 
Q 3125 3850 3250 4050 
Q 3425 3900 3700 3750 
z
M 550 3650 
Q 1125 3300 1600 2900 
Q 1450 2750 1300 2500 
Q 850 2975 275 3275 
Q 400 3450 550 3650 
z
M 1000 5150 
Q 1450 4850 1950 4400 
Q 1775 4250 1625 4025 
Q 1175 4525 675 4850 
Q 850 4950 1000 5150 
z
" transform="scale(0.015625)"/>
       <path id="SimHei-61" d="M 2875 125 
L 2275 125 
Q 2225 175 2200 262 
Q 2175 350 2175 475 
Q 2000 275 1750 175 
Q 1500 75 1225 75 
Q 825 75 550 275 
Q 275 475 275 850 
Q 275 1225 525 1450 
Q 775 1675 1300 1750 
Q 1650 1800 1912 1875 
Q 2175 1950 2175 2075 
Q 2175 2225 2062 2375 
Q 1950 2525 1575 2525 
Q 1275 2525 1137 2412 
Q 1000 2300 950 2100 
L 400 2100 
Q 450 2500 762 2737 
Q 1075 2975 1575 2975 
Q 2125 2975 2400 2725 
Q 2675 2475 2675 2025 
L 2675 650 
Q 2675 500 2725 375 
Q 2775 250 2875 125 
z
M 2175 1050 
L 2175 1550 
Q 2025 1500 1887 1462 
Q 1750 1425 1425 1375 
Q 1050 1325 937 1200 
Q 825 1075 825 900 
Q 825 750 937 637 
Q 1050 525 1275 525 
Q 1500 525 1762 650 
Q 2025 775 2175 1050 
z
" transform="scale(0.015625)"/>
       <path id="SimHei-70" d="M 2825 1525 
Q 2825 800 2475 425 
Q 2125 50 1625 50 
Q 1350 50 1150 162 
Q 950 275 800 500 
L 800 -800 
L 300 -800 
L 300 2925 
L 800 2925 
L 800 2550 
Q 950 2775 1150 2875 
Q 1350 2975 1625 2975 
Q 2125 2975 2475 2612 
Q 2825 2250 2825 1525 
z
M 2275 1525 
Q 2275 2000 2087 2262 
Q 1900 2525 1525 2525 
Q 1225 2525 1012 2262 
Q 800 2000 800 1525 
Q 800 1050 1012 775 
Q 1225 500 1525 500 
Q 1900 500 2087 775 
Q 2275 1050 2275 1525 
z
" transform="scale(0.015625)"/>
      </defs>
      <use xlink:href="#SimHei-5207"/>
      <use xlink:href="#SimHei-6df1" x="100"/>
      <use xlink:href="#SimHei-20" x="200"/>
      <use xlink:href="#SimHei-61" x="250"/>
      <use xlink:href="#SimHei-70" x="300"/>
      <use xlink:href="#SimHei-20" x="350"/>
      <use xlink:href="#SimHei-28" x="400"/>
      <use xlink:href="#SimHei-6d" x="450"/>
      <use xlink:href="#SimHei-6d" x="500"/>
      <use xlink:href="#SimHei-29" x="550"/>
     </g>
    </g>
   </g>
   <g id="line2d_23">
    <path d="M 71.033409 433.556122 
L 84.444372 433.556122 
L 84.773795 203.778694 
L 85.443132 203.778694 
L 101.286042 203.778694 
L 101.286042 433.556122 
L 102.285315 203.778694 
L 104.492277 203.778694 
L 104.492277 433.556122 
L 105.038192 433.556122 
L 106.195566 433.556122 
L 106.195566 203.778694 
L 107.184493 203.778694 
L 108.309852 203.778694 
L 108.309852 433.556122 
L 109.305162 203.778694 
L 112.878515 203.778694 
L 112.878515 433.556122 
L 113.869421 433.556122 
L 114.427792 433.556122 
L 114.427792 203.778694 
L 115.427195 203.778694 
L 118.907233 203.778694 
L 118.907233 433.556122 
L 119.904214 203.778694 
L 121.393276 203.778694 
L 121.393276 433.556122 
L 121.767918 433.556122 
L 124.3294 433.556122 
L 124.3294 203.778694 
L 125.319347 433.556122 
L 125.34004 433.556122 
L 125.34004 203.778694 
L 126.328685 203.778694 
L 128.067983 203.778694 
L 128.067983 433.556122 
L 128.976862 433.556122 
L 132.578843 433.556122 
L 132.578843 203.778694 
L 133.552357 433.556122 
L 133.857642 433.556122 
L 133.857642 203.778694 
L 134.855442 433.556122 
L 134.888149 433.556122 
L 134.888149 203.778694 
L 135.880713 433.556122 
L 136.071654 433.556122 
L 136.071654 203.778694 
L 137.063258 203.778694 
L 139.187472 203.778694 
L 139.187472 433.556122 
L 140.181474 203.778694 
L 142.369347 203.778694 
L 142.369347 433.556122 
L 143.365397 203.778694 
L 144.402018 203.778694 
L 144.402018 433.556122 
L 145.399966 203.778694 
L 145.709633 203.778694 
L 145.709633 433.556122 
L 146.705856 203.778694 
L 147.066658 203.778694 
L 147.066658 433.556122 
L 148.053723 203.778694 
L 148.09275 203.778694 
L 148.09275 433.556122 
L 148.80276 433.556122 
L 150.188865 433.556122 
L 150.188865 203.778694 
L 151.184332 203.778694 
L 151.280089 203.778694 
L 151.280089 433.556122 
L 152.27469 203.778694 
L 152.650087 203.778694 
L 152.650087 433.556122 
L 153.64028 203.778694 
L 154.442112 203.778694 
L 154.442112 433.556122 
L 155.441544 203.778694 
L 155.988437 203.778694 
L 155.988437 433.556122 
L 156.97654 203.778694 
L 157.692023 203.778694 
L 157.692023 433.556122 
L 158.683697 203.778694 
L 159.526764 203.778694 
L 159.526764 433.556122 
L 160.517427 203.778694 
L 160.950039 203.778694 
L 160.950039 433.556122 
L 161.743517 433.556122 
L 162.266606 433.556122 
L 162.266606 203.778694 
L 163.265621 433.556122 
L 163.703073 433.556122 
L 163.703073 203.778694 
L 164.701524 203.778694 
L 164.776481 203.778694 
L 164.776481 433.556122 
L 165.771248 203.778694 
L 166.760206 203.778694 
L 166.760206 433.556122 
L 167.757907 203.778694 
L 168.678201 203.778694 
L 168.678201 433.556122 
L 169.667171 203.778694 
L 171.252049 203.778694 
L 171.252049 433.556122 
L 172.243991 203.778694 
L 174.198959 203.778694 
L 174.198959 433.556122 
L 175.19159 203.778694 
L 177.453734 203.778694 
L 177.453734 433.556122 
L 178.446808 203.778694 
L 179.671864 203.778694 
L 179.671864 433.556122 
L 180.661648 203.778694 
L 181.701966 203.778694 
L 181.701966 433.556122 
L 182.694859 203.778694 
L 183.743843 203.778694 
L 183.743843 433.556122 
L 184.737072 203.778694 
L 185.268502 203.778694 
L 185.268502 433.556122 
L 186.257934 203.778694 
L 187.12861 203.778694 
L 187.12861 433.556122 
L 188.116548 203.778694 
L 188.487738 203.778694 
L 188.487738 433.556122 
L 189.479324 203.778694 
L 190.068117 203.778694 
L 190.068117 433.556122 
L 191.066928 203.778694 
L 191.433828 203.778694 
L 191.433828 433.556122 
L 192.428918 203.778694 
L 192.80281 203.778694 
L 192.80281 433.556122 
L 193.802044 433.556122 
L 193.967735 433.556122 
L 193.967735 203.778694 
L 194.96729 203.778694 
L 195.030382 203.778694 
L 195.030382 433.556122 
L 196.028519 433.556122 
L 196.450954 433.556122 
L 196.450954 203.778694 
L 197.448839 433.556122 
L 197.99584 433.556122 
L 197.99584 203.778694 
L 198.993589 433.556122 
L 201.101603 433.556122 
L 201.8662 203.778694 
L 202.093104 203.778694 
L 202.564349 203.778694 
L 202.564349 433.556122 
L 203.206069 433.556122 
L 205.856999 433.556122 
L 205.856999 203.778694 
L 206.83196 433.556122 
L 206.947191 433.556122 
L 206.947191 203.778694 
L 207.942308 433.556122 
L 208.030963 433.556122 
L 208.030963 203.778694 
L 209.027843 433.556122 
L 209.240913 433.556122 
L 209.240913 203.778694 
L 210.238281 433.556122 
L 210.487172 433.556122 
L 210.487172 203.778694 
L 211.486136 433.556122 
L 211.880858 433.556122 
L 211.880858 203.778694 
L 212.874633 433.556122 
L 213.344831 433.556122 
L 213.344831 203.778694 
L 214.338519 203.778694 
L 214.43015 203.778694 
L 214.43015 433.556122 
L 215.427862 203.778694 
L 215.801431 203.778694 
L 215.801431 433.556122 
L 216.800366 203.778694 
L 217.277615 203.778694 
L 217.277615 433.556122 
L 218.276016 203.778694 
L 218.42147 203.778694 
L 218.42147 433.556122 
L 219.412153 203.778694 
L 219.650743 203.778694 
L 219.650743 433.556122 
L 220.645669 203.778694 
L 220.769153 203.778694 
L 220.769153 433.556122 
L 221.765348 203.778694 
L 222.846584 203.778694 
L 222.846584 433.556122 
L 223.544664 433.556122 
L 224.119771 433.556122 
L 224.119771 203.778694 
L 225.1003 433.556122 
L 225.987254 433.556122 
L 225.987254 203.778694 
L 226.555318 433.556122 
L 227.474247 433.556122 
L 227.474247 203.778694 
L 228.467568 203.778694 
L 228.559199 203.778694 
L 228.559199 433.556122 
L 229.539354 433.556122 
L 230.766593 433.556122 
L 230.766593 203.778694 
L 231.721753 433.556122 
L 231.929513 433.556122 
L 231.929513 203.778694 
L 232.925437 433.556122 
L 232.976866 433.556122 
L 232.976866 203.778694 
L 233.312614 433.556122 
L 236.397202 433.556122 
L 236.397202 318.897646 
L 237.393662 318.897646 
L 237.498386 318.897646 
L 237.498386 433.556122 
L 238.487687 433.556122 
L 239.888124 433.556122 
L 239.888124 318.897646 
L 240.888032 318.897646 
L 241.005844 318.897646 
L 241.005844 433.556122 
L 241.993443 433.556122 
L 245.377482 433.556122 
L 245.706905 203.318218 
L 246.376242 203.318218 
L 262.219152 203.318218 
L 262.222033 433.556122 
L 263.218425 203.318218 
L 265.425387 203.318218 
L 265.438477 433.556122 
L 265.757592 200.737251 
L 265.971302 433.556122 
L 267.128675 433.556122 
L 267.141766 203.318218 
L 268.117603 203.318218 
L 269.242962 203.318218 
L 269.25596 433.556122 
L 270.238272 203.318218 
L 273.811625 203.318218 
L 273.824635 433.556122 
L 274.802531 433.556122 
L 275.360902 433.556122 
L 275.373975 203.318218 
L 276.360304 203.318218 
L 278.853165 203.318218 
L 278.866257 433.556122 
L 279.841153 203.318218 
L 280.213476 203.318218 
L 280.226538 433.556122 
L 281.206605 203.318218 
L 282.343093 203.318218 
L 282.345705 433.556122 
L 282.726759 433.556122 
L 285.353672 433.556122 
L 285.360497 203.318218 
L 286.350017 433.556122 
L 286.755806 433.556122 
L 286.768913 203.318218 
L 287.647548 433.556122 
L 287.935313 433.556122 
L 287.948383 203.318218 
L 288.934138 433.556122 
L 289.801998 433.556122 
L 289.815086 203.318218 
L 290.798174 203.318218 
L 292.472387 203.318218 
L 292.483898 433.556122 
L 293.464369 203.318218 
L 296.476349 203.318218 
L 296.489419 433.556122 
L 297.471424 203.318218 
L 299.825087 203.318218 
L 299.827649 433.556122 
L 300.813633 203.318218 
L 301.812691 203.318218 
L 301.812728 433.556122 
L 302.80749 203.318218 
L 302.953381 203.318218 
L 302.956695 433.556122 
L 303.335001 433.556122 
L 304.952303 433.556122 
L 304.965394 203.318218 
L 305.951512 433.556122 
L 306.419734 433.556122 
L 306.432828 203.318218 
L 307.322922 433.556122 
L 307.77593 433.556122 
L 307.789035 203.318218 
L 308.206016 433.556122 
L 309.422241 433.556122 
L 309.435323 203.318218 
L 310.419839 203.318218 
L 310.572802 203.318218 
L 310.575196 433.556122 
L 311.560889 203.318218 
L 311.857889 203.318218 
L 311.860359 433.556122 
L 312.852662 203.318218 
L 313.614182 203.318218 
L 313.616804 433.556122 
L 314.610429 203.318218 
L 315.133973 203.318218 
L 315.136577 433.556122 
L 316.124484 203.318218 
L 316.812769 203.318218 
L 316.813435 433.556122 
L 317.801725 203.318218 
L 318.617637 203.318218 
L 318.620615 433.556122 
L 319.61724 203.318218 
L 319.972044 203.318218 
L 319.985129 433.556122 
L 320.765434 433.556122 
L 321.298817 433.556122 
L 321.311898 203.318218 
L 322.291741 433.556122 
L 322.685425 433.556122 
L 322.698527 203.318218 
L 323.681539 203.318218 
L 323.738394 203.318218 
L 323.741013 433.556122 
L 324.731426 203.318218 
L 325.66591 203.318218 
L 325.668528 433.556122 
L 326.664692 203.318218 
L 327.561616 203.318218 
L 327.564797 433.556122 
L 328.558785 203.318218 
L 330.097239 203.318218 
L 330.099857 433.556122 
L 331.091017 203.318218 
L 333.001667 203.318218 
L 333.004232 433.556122 
L 333.999243 203.318218 
L 336.209577 203.318218 
L 336.212334 433.556122 
L 337.203253 203.318218 
L 338.425468 203.318218 
L 338.438558 433.556122 
L 339.414915 203.318218 
L 340.456841 203.318218 
L 340.457216 433.556122 
L 341.44437 203.318218 
L 342.498618 203.318218 
L 342.511708 433.556122 
L 343.491832 203.318218 
L 344.01887 203.318218 
L 344.021488 433.556122 
L 345.011925 203.318218 
L 345.701597 203.318218 
L 345.714687 433.556122 
L 346.692845 203.318218 
L 347.248639 203.318218 
L 347.249161 433.556122 
L 348.248413 203.318218 
L 348.82654 203.318218 
L 348.83963 433.556122 
L 349.825345 203.318218 
L 350.189773 203.318218 
L 350.192378 433.556122 
L 351.177147 203.318218 
L 351.708218 203.318218 
L 351.721308 433.556122 
L 352.703538 433.556122 
L 352.72909 433.556122 
L 352.741826 203.318218 
L 353.724811 203.318218 
L 353.78471 203.318218 
L 353.79493 433.556122 
L 354.782061 433.556122 
L 355.216269 433.556122 
L 355.229359 203.318218 
L 356.210878 433.556122 
L 356.807363 433.556122 
L 356.820478 203.318218 
L 357.802371 433.556122 
L 359.854775 433.556122 
L 359.876465 203.318218 
L 360.846234 203.318218 
L 361.317479 203.318218 
L 361.330569 433.556122 
L 361.959212 433.556122 
L 364.577312 433.556122 
L 364.590393 203.318218 
L 365.575798 433.556122 
L 365.634878 433.556122 
L 365.647968 203.318218 
L 366.633184 433.556122 
L 366.693994 433.556122 
L 366.707078 203.318218 
L 367.615233 433.556122 
L 367.823005 433.556122 
L 367.836095 203.318218 
L 368.819307 433.556122 
L 368.982547 433.556122 
L 368.995653 203.318218 
L 369.978994 433.556122 
L 370.266515 433.556122 
L 370.279605 203.318218 
L 371.260736 433.556122 
L 371.623948 433.556122 
L 371.637055 203.318218 
L 372.620828 433.556122 
L 373.099683 433.556122 
L 373.112773 203.318218 
L 374.093149 203.318218 
L 374.109819 203.318218 
L 374.110671 433.556122 
L 375.097104 203.318218 
L 375.620515 203.318218 
L 375.633605 433.556122 
L 376.619499 203.318218 
L 376.729126 203.318218 
L 376.731742 433.556122 
L 377.721938 203.318218 
L 377.952541 203.318218 
L 377.965631 433.556122 
L 378.943851 203.318218 
L 378.976541 203.318218 
L 378.979146 433.556122 
L 379.973513 203.318218 
L 380.201007 203.318218 
L 380.214097 433.556122 
L 381.199744 433.556122 
L 381.533177 433.556122 
L 381.546267 203.318218 
L 382.391599 433.556122 
L 384.730993 433.556122 
L 384.744066 203.318218 
L 385.730533 203.318218 
L 385.954292 203.318218 
L 385.967378 433.556122 
L 386.950595 433.556122 
L 387.095636 433.556122 
L 387.108724 203.318218 
L 387.534578 433.556122 
L 388.733528 433.556122 
L 388.746606 203.318218 
L 389.73096 433.556122 
L 390.035817 433.556122 
L 390.048906 203.318218 
L 390.91649 433.556122 
L 391.230584 433.556122 
L 391.243654 203.318218 
L 391.866422 433.556122 
L 394.978595 433.556122 
L 394.991656 318.43717 
L 395.970763 433.556122 
L 396.234591 433.556122 
L 396.247698 318.43717 
L 397.221754 433.556122 
L 397.234847 433.556122 
L 397.23881 318.43717 
L 398.23009 433.556122 
L 398.575291 433.556122 
L 398.588379 318.43717 
L 399.566924 433.556122 
L 399.796459 433.556122 
L 399.801237 318.43717 
L 400.790033 433.556122 
L 400.803124 433.556122 
L 400.816212 318.43717 
L 401.802983 433.556122 
L 404.82773 433.556122 
L 405.157153 203.318218 
L 405.82649 203.318218 
L 421.6694 203.318218 
L 421.672281 433.556122 
L 422.668674 203.318218 
L 424.875635 203.318218 
L 424.888725 433.556122 
L 425.20784 200.737251 
L 425.42155 433.556122 
L 426.578924 433.556122 
L 426.592015 203.318218 
L 427.567851 203.318218 
L 428.69321 203.318218 
L 428.706208 433.556122 
L 429.68852 203.318218 
L 433.261873 203.318218 
L 433.274883 433.556122 
L 434.25278 433.556122 
L 434.81115 433.556122 
L 434.824224 203.318218 
L 435.810553 203.318218 
L 438.256226 203.318218 
L 438.258567 433.556122 
L 439.253166 203.318218 
L 439.263497 203.318218 
L 439.27659 433.556122 
L 440.261943 203.318218 
L 441.831553 203.318218 
L 441.83415 433.556122 
L 442.218155 433.556122 
L 444.880441 433.556122 
L 444.893548 203.318218 
L 445.87862 433.556122 
L 446.232104 433.556122 
L 446.245174 203.318218 
L 447.206135 433.556122 
L 447.32136 433.556122 
L 447.334466 203.318218 
L 447.813953 433.556122 
L 448.61811 433.556122 
L 448.631212 203.318218 
L 449.606617 203.318218 
L 449.790434 203.318218 
L 449.793052 433.556122 
L 450.78396 203.318218 
L 450.883512 203.318218 
L 450.896602 433.556122 
L 451.172283 433.556122 
L 452.176881 433.556122 
L 452.189951 203.318218 
L 453.17494 433.556122 
L 453.501153 433.556122 
L 453.514223 203.318218 
L 454.500529 433.556122 
L 454.565143 433.556122 
L 454.57825 203.318218 
L 455.05009 433.556122 
L 455.853216 433.556122 
L 455.865053 203.318218 
L 456.84972 433.556122 
L 457.177838 433.556122 
L 457.190928 203.318218 
L 458.173712 433.556122 
L 458.475212 433.556122 
L 458.488293 203.318218 
L 459.472399 433.556122 
L 459.5473 433.556122 
L 459.56039 203.318218 
L 460.543002 433.556122 
L 460.585629 433.556122 
L 460.598722 203.318218 
L 461.583361 433.556122 
L 461.626645 433.556122 
L 461.639735 203.318218 
L 462.623931 433.556122 
L 462.668349 433.556122 
L 462.68144 203.318218 
L 463.627219 433.556122 
L 463.821175 433.556122 
L 463.834265 203.318218 
L 464.818012 433.556122 
L 465.032904 433.556122 
L 465.046011 203.318218 
L 466.031733 433.556122 
L 466.37579 433.556122 
L 466.388881 203.318218 
L 467.362984 433.556122 
L 467.806937 433.556122 
L 467.820025 203.318218 
L 468.797889 203.318218 
L 468.85025 203.318218 
L 468.86334 433.556122 
L 469.839305 203.318218 
L 470.367111 203.318218 
L 470.369247 433.556122 
L 471.365984 203.318218 
L 471.594317 203.318218 
L 471.607408 433.556122 
L 472.591593 433.556122 
L 473.070223 433.556122 
L 473.083312 203.318218 
L 474.067412 433.556122 
L 474.100137 433.556122 
L 474.113227 203.318218 
L 475.094309 433.556122 
L 475.138559 433.556122 
L 475.151654 203.318218 
L 476.09947 433.556122 
L 476.279185 433.556122 
L 476.292275 203.318218 
L 477.278793 433.556122 
L 477.511653 433.556122 
L 477.519651 203.318218 
L 478.508719 433.556122 
L 478.864551 433.556122 
L 478.877641 203.318218 
L 479.85269 433.556122 
L 480.320025 433.556122 
L 480.333097 203.318218 
L 481.316849 203.318218 
L 481.464579 203.318218 
L 481.477669 433.556122 
L 482.464486 203.318218 
L 483.222974 203.318218 
L 483.225623 433.556122 
L 484.21531 203.318218 
L 485.197364 203.318218 
L 485.19967 433.556122 
L 486.19039 203.318218 
L 487.592227 203.318218 
L 487.594525 433.556122 
L 488.587292 203.318218 
L 488.97848 203.318218 
L 488.991554 433.556122 
L 489.966442 203.318218 
L 490.249858 203.318218 
L 490.262948 433.556122 
L 491.239897 203.318218 
L 491.834972 203.318218 
L 491.837581 433.556122 
L 492.831582 203.318218 
L 493.73807 203.318218 
L 493.740683 433.556122 
L 494.729339 203.318218 
L 495.380282 203.318218 
L 495.380652 433.556122 
L 496.379815 203.318218 
L 497.149996 203.318218 
L 497.152618 433.556122 
L 498.143461 203.318218 
L 498.515214 203.318218 
L 498.517828 433.556122 
L 499.298293 433.556122 
L 499.800825 433.556122 
L 499.813912 203.318218 
L 500.797613 433.556122 
L 501.144985 433.556122 
L 501.158085 203.318218 
L 502.142536 433.556122 
L 502.720742 433.556122 
L 502.733815 203.318218 
L 503.716002 203.318218 
L 503.929794 203.318218 
L 503.93251 433.556122 
L 504.905848 433.556122 
L 505.719077 433.556122 
L 505.726079 203.318218 
L 506.713254 203.318218 
L 506.831066 203.318218 
L 506.844173 433.556122 
L 507.110067 433.556122 
L 508.368089 433.556122 
L 508.38023 203.318218 
L 509.362651 203.318218 
L 510.355961 203.318218 
L 510.364454 433.556122 
L 511.35235 203.318218 
L 512.845397 203.318218 
L 512.858472 433.556122 
L 513.841514 433.556122 
L 513.867054 433.556122 
L 513.880137 203.318218 
L 514.861269 203.318218 
L 515.477759 203.318218 
L 515.480248 433.556122 
L 516.466171 203.318218 
L 517.268846 203.318218 
L 517.281946 433.556122 
L 517.833656 433.556122 
L 518.434575 433.556122 
L 518.447642 203.318218 
L 519.427771 433.556122 
L 519.895995 433.556122 
L 519.909089 203.318218 
L 520.786022 433.556122 
L 521.225437 433.556122 
L 521.238541 203.318218 
L 521.725033 433.556122 
L 524.24455 433.556122 
L 524.257629 203.318218 
L 525.238558 203.318218 
L 525.522391 203.318218 
L 525.535482 433.556122 
L 526.512773 203.318218 
L 527.253595 203.318218 
L 527.256204 433.556122 
L 528.24411 203.318218 
L 529.301778 203.318218 
L 529.314868 433.556122 
L 530.296834 203.318218 
L 531.182279 203.318218 
L 531.195379 433.556122 
L 532.171483 203.318218 
L 533.231812 203.318218 
L 533.244903 433.556122 
L 534.230624 203.318218 
L 534.66175 203.318218 
L 534.664366 433.556122 
L 535.623686 433.556122 
L 535.738905 433.556122 
L 535.752 203.318218 
L 536.729129 203.318218 
L 536.78149 203.318218 
L 536.79458 433.556122 
L 537.769055 203.318218 
L 538.09458 203.318218 
L 538.097123 433.556122 
L 539.086636 203.318218 
L 539.689985 203.318218 
L 539.703075 433.556122 
L 540.689042 203.318218 
L 541.010563 203.318218 
L 541.02364 433.556122 
L 542.009796 203.318218 
L 542.412381 203.318218 
L 542.425471 433.556122 
L 543.412298 433.556122 
L 543.629178 433.556122 
L 543.641893 203.318218 
L 544.626491 433.556122 
L 545.283724 433.556122 
L 545.296363 203.318218 
L 546.271324 433.556122 
L 546.404447 433.556122 
L 546.408177 203.318218 
L 547.402673 433.556122 
L 547.498086 433.556122 
L 547.506508 196.047689 
L 547.95294 433.556122 
L 550.704822 433.556122 
L 550.717913 203.318218 
L 551.70321 203.318218 
L 551.789106 203.318218 
L 551.797655 433.556122 
L 552.787656 433.556122 
L 560.032918 433.556122 
L 560.046006 318.43717 
L 561.031067 433.556122 
L 561.331796 433.556122 
L 561.339339 318.43717 
L 562.318889 318.43717 
L 562.401325 318.43717 
L 562.402954 433.556122 
L 563.388506 318.43717 
L 563.414682 318.43717 
L 563.426882 433.556122 
L 564.412283 318.43717 
L 564.608643 318.43717 
L 564.621731 433.556122 
L 565.606837 433.556122 
L 565.717071 433.556122 
L 565.72622 318.43717 
L 566.70605 433.556122 
L 566.932526 433.556122 
L 566.945628 318.43717 
L 567.468396 433.556122 
L 570.319422 433.556122 
L 570.648845 356.349678 
L 571.318182 356.349678 
L 587.161092 356.349678 
L 587.161092 433.556122 
L 588.160365 356.349678 
L 590.367327 356.349678 
L 590.367327 433.556122 
L 590.699532 353.769095 
L 590.913242 433.556122 
L 592.070615 433.556122 
L 592.070615 356.349678 
L 593.059543 356.349678 
L 594.184902 356.349678 
L 594.184902 433.556122 
L 595.180212 356.349678 
L 598.753565 356.349678 
L 598.753565 433.556122 
L 599.744471 433.556122 
L 600.302842 433.556122 
L 600.302842 356.349678 
L 601.302245 356.349678 
L 604.705689 356.349678 
L 604.705689 433.556122 
L 605.696864 356.349678 
L 607.330479 356.349678 
L 607.330479 433.556122 
L 607.724371 433.556122 
L 610.397231 433.556122 
L 610.397231 356.349678 
L 611.396113 433.556122 
L 611.727991 433.556122 
L 611.727991 356.349678 
L 612.680738 433.556122 
L 612.795971 433.556122 
L 612.795971 356.349678 
L 613.265322 433.556122 
L 614.088997 433.556122 
L 614.088997 356.349678 
L 615.07659 356.349678 
L 615.25864 356.349678 
L 615.25864 433.556122 
L 616.247066 356.349678 
L 616.350564 356.349678 
L 616.350564 433.556122 
L 616.638871 433.556122 
L 617.658038 433.556122 
L 617.658038 356.349678 
L 618.653417 433.556122 
L 618.979236 433.556122 
L 618.979236 356.349678 
L 619.97798 433.556122 
L 620.021331 433.556122 
L 620.021331 356.349678 
L 620.529885 433.556122 
L 621.350887 433.556122 
L 621.350887 356.349678 
L 622.348234 433.556122 
L 622.641956 433.556122 
L 622.641956 356.349678 
L 623.640778 433.556122 
L 623.942476 433.556122 
L 623.942476 356.349678 
L 624.939664 433.556122 
L 625.00402 433.556122 
L 625.00402 356.349678 
L 625.992648 433.556122 
L 626.025368 433.556122 
L 626.025368 356.349678 
L 627.02248 433.556122 
L 627.055205 433.556122 
L 627.055205 356.349678 
L 628.049874 433.556122 
L 628.082592 433.556122 
L 628.082592 356.349678 
L 629.080856 433.556122 
L 629.196073 433.556122 
L 629.196073 356.349678 
L 630.196021 433.556122 
L 630.381174 433.556122 
L 630.381174 356.349678 
L 631.380564 433.556122 
L 631.70404 433.556122 
L 631.70404 356.349678 
L 632.697016 433.556122 
L 633.114859 433.556122 
L 633.114859 356.349678 
L 634.111259 356.349678 
L 634.137439 356.349678 
L 634.137439 433.556122 
L 635.129048 356.349678 
L 635.640472 356.349678 
L 635.640472 433.556122 
L 636.62943 356.349678 
L 636.839543 356.349678 
L 636.839543 433.556122 
L 637.828764 433.556122 
L 638.310135 433.556122 
L 638.310135 356.349678 
L 639.303182 356.349678 
L 639.794682 356.349678 
L 639.794682 433.556122 
L 640.783244 356.349678 
L 640.844049 356.349678 
L 640.844049 433.556122 
L 641.833878 356.349678 
L 642.073551 356.349678 
L 642.073551 433.556122 
L 643.07041 356.349678 
L 643.337995 356.349678 
L 643.337995 433.556122 
L 644.325915 356.349678 
L 644.787071 356.349678 
L 644.787071 433.556122 
L 645.786844 356.349678 
L 646.441783 356.349678 
L 646.441783 433.556122 
L 647.440711 356.349678 
L 648.136897 356.349678 
L 648.136897 433.556122 
L 649.128928 356.349678 
L 649.990991 356.349678 
L 649.990991 433.556122 
L 650.981233 356.349678 
L 652.299229 356.349678 
L 652.299229 433.556122 
L 653.287043 356.349678 
L 654.863932 356.349678 
L 654.863932 433.556122 
L 655.853632 356.349678 
L 656.447702 356.349678 
L 656.447702 433.556122 
L 657.436875 356.349678 
L 657.636946 356.349678 
L 657.636946 433.556122 
L 658.624936 356.349678 
L 659.195284 356.349678 
L 659.195284 433.556122 
L 660.185835 356.349678 
L 660.975167 356.349678 
L 660.975167 433.556122 
L 661.971228 356.349678 
L 662.795564 356.349678 
L 662.795564 433.556122 
L 663.080581 433.556122 
L 663.959323 433.556122 
L 663.959323 356.349678 
L 664.954444 356.349678 
L 665.451485 356.349678 
L 665.451485 433.556122 
L 666.450567 433.556122 
L 666.488639 433.556122 
L 666.488639 356.349678 
L 667.482171 433.556122 
L 667.940197 433.556122 
L 667.940197 356.349678 
L 668.834639 433.556122 
L 670.161342 433.556122 
L 670.161342 356.349678 
L 671.160084 356.349678 
L 671.382621 356.349678 
L 671.382621 433.556122 
L 671.583577 433.556122 
L 672.825221 433.556122 
L 672.825221 356.349678 
L 673.650895 433.556122 
L 676.140023 433.556122 
L 676.140023 356.349678 
L 677.132325 356.349678 
L 677.943899 356.349678 
L 677.943899 433.556122 
L 678.942323 433.556122 
L 679.145408 433.556122 
L 679.145408 356.349678 
L 680.139781 356.349678 
L 681.021846 356.349678 
L 681.021846 433.556122 
L 682.017746 356.349678 
L 683.097235 356.349678 
L 683.097235 433.556122 
L 684.093433 356.349678 
L 684.982612 356.349678 
L 684.982612 433.556122 
L 685.976898 356.349678 
L 686.388119 356.349678 
L 686.388119 433.556122 
L 687.38444 356.349678 
L 687.634581 356.349678 
L 687.634581 433.556122 
L 688.625101 433.556122 
L 690.391639 433.556122 
L 690.391639 356.349678 
L 691.386421 356.349678 
L 691.427705 356.349678 
L 691.427705 433.556122 
L 692.425674 433.556122 
L 692.599586 433.556122 
L 692.63308 353.786747 
L 693.114042 433.556122 
L 694.050095 433.556122 
L 694.050095 356.349678 
L 695.042161 433.556122 
L 695.644918 433.556122 
L 695.644918 356.349678 
L 696.634848 433.556122 
L 697.13187 433.556122 
L 697.13187 356.349678 
L 698.123802 433.556122 
L 698.640224 433.556122 
L 698.640224 356.349678 
L 699.628351 433.556122 
L 700.077378 433.556122 
L 700.077378 356.349678 
L 701.077092 433.556122 
L 701.513342 433.556122 
L 701.513342 356.349678 
L 702.512634 433.556122 
L 702.942114 433.556122 
L 702.942114 356.349678 
L 703.940043 433.556122 
L 704.346484 433.556122 
L 704.346484 356.349678 
L 705.336508 433.556122 
L 705.834831 433.556122 
L 705.834831 356.349678 
L 706.822087 433.556122 
L 707.342036 433.556122 
L 707.342036 356.349678 
L 708.331299 356.349678 
L 708.44911 356.349678 
L 708.44911 433.556122 
L 709.442263 356.349678 
L 710.015703 356.349678 
L 710.015703 433.556122 
L 711.014559 433.556122 
L 711.515181 433.556122 
L 711.515181 356.349678 
L 712.51364 356.349678 
L 712.524069 356.349678 
L 712.524069 433.556122 
L 713.515333 356.349678 
L 713.750955 356.349678 
L 713.750955 433.556122 
L 714.595564 433.556122 
L 715.209425 433.556122 
L 715.209425 356.349678 
L 715.876615 433.556122 
L 716.584572 433.556122 
L 716.584572 356.349678 
L 717.5832 433.556122 
L 717.968037 433.556122 
L 717.968037 356.349678 
L 718.856145 433.556122 
L 719.113358 433.556122 
L 719.113358 356.349678 
L 719.755107 433.556122 
L 725.489137 433.556122 
L 725.489137 356.810154 
L 727.322059 356.618289 
L 727.322059 88.199266 
L 728.735935 88.199266 
L 729.002072 359.918366 
L 729.668848 252.013535 
L 729.802178 252.013535 
L 730.069677 94.41569 
L 730.465525 433.556122 
L 737.442376 433.556122 
L 737.442376 356.810154 
L 739.275299 356.618289 
L 739.275299 88.199266 
L 740.690126 88.31285 
L 740.955259 359.918366 
L 741.622538 251.860043 
L 741.755817 251.860043 
L 742.023075 94.338944 
L 742.418758 433.556122 
L 749.395609 433.556122 
L 749.395609 356.810154 
L 751.228531 356.618289 
L 751.228531 88.199266 
L 752.643359 88.665114 
L 752.908596 359.918366 
L 753.575852 251.82167 
L 753.70908 251.82167 
L 753.976256 94.338944 
L 754.371989 433.556122 
L 761.34884 433.556122 
L 761.34884 356.810154 
L 762.502596 356.810154 
L 762.502596 433.36407 
L 763.181762 88.199266 
L 764.595638 88.199266 
L 764.861722 359.918366 
L 765.529001 251.860043 
L 765.66228 251.860043 
L 765.929539 94.338944 
L 766.325222 433.556122 
L 773.302073 433.556122 
L 773.302073 356.810154 
L 775.134995 356.618289 
L 775.134995 88.199266 
L 776.549823 88.31285 
L 776.549823 433.556122 
L 777.482234 251.860043 
L 777.615513 251.860043 
L 777.748971 151.476317 
L 778.278454 433.556122 
L 787.088228 433.364216 
L 787.088228 165.137099 
L 788.291422 165.137099 
L 788.503055 433.556122 
L 788.502103 163.908396 
L 789.23578 418.206852 
L 789.30243 418.206852 
L 789.969882 374.538473 
L 790.231685 433.556122 
L 804.576591 433.556122 
L 804.576591 433.556122 
" clip-path="url(#p12b5a27efb)" style="fill: none; stroke: #000000; stroke-width: 0.5; stroke-linecap: square"/>
   </g>
   <g id="patch_3">
    <path d="M 34.35625 450.823965 
L 34.35625 70.931424 
" style="fill: none; stroke: #000000; stroke-width: 0.8; stroke-linejoin: miter; stroke-linecap: square"/>
   </g>
   <g id="patch_4">
    <path d="M 841.25375 450.823965 
L 841.25375 70.931424 
" style="fill: none; stroke: #000000; stroke-width: 0.8; stroke-linejoin: miter; stroke-linecap: square"/>
   </g>
   <g id="patch_5">
    <path d="M 34.35625 450.823965 
L 841.25375 450.823965 
" style="fill: none; stroke: #000000; stroke-width: 0.8; stroke-linejoin: miter; stroke-linecap: square"/>
   </g>
   <g id="patch_6">
    <path d="M 34.35625 70.931424 
L 841.25375 70.931424 
" style="fill: none; stroke: #000000; stroke-width: 0.8; stroke-linejoin: miter; stroke-linecap: square"/>
   </g>
   <g id="text_14">
    <!-- 切深变化 -->
    <g transform="translate(409.805 18.465625) scale(0.14 -0.14)">
     <defs>
      <path id="SimHei-53d8" d="M 5200 1975 
Q 4950 1600 4537 1137 
Q 4125 675 3675 375 
Q 3925 225 4600 87 
Q 5275 -50 6000 -75 
Q 5700 -400 5650 -625 
Q 4850 -525 4212 -312 
Q 3575 -100 3225 125 
Q 2800 -125 2150 -325 
Q 1500 -525 700 -675 
Q 600 -425 400 -175 
Q 950 -150 1687 12 
Q 2425 175 2825 375 
Q 2275 775 1675 1575 
Q 1350 1575 1000 1550 
L 1000 2000 
Q 1450 1975 2075 1975 
L 5200 1975 
z
M 3225 5275 
Q 3400 4900 3550 4475 
L 4675 4475 
Q 5400 4475 5975 4500 
L 5975 4025 
Q 5375 4050 4725 4050 
L 4125 4050 
L 4125 2950 
Q 4125 2550 4150 2150 
L 3600 2150 
Q 3625 2550 3625 2950 
L 3625 4050 
L 2750 4050 
L 2750 2950 
Q 2750 2675 2775 2150 
L 2225 2150 
Q 2250 2675 2250 2950 
L 2250 4050 
L 1700 4050 
Q 975 4050 425 4025 
L 425 4500 
Q 950 4475 1700 4475 
L 2975 4475 
Q 2925 4675 2700 5125 
Q 2950 5150 3225 5275 
z
M 2200 1575 
Q 2650 975 3250 600 
Q 3850 1000 4275 1575 
L 2200 1575 
z
M 4850 3750 
Q 5375 3275 5950 2675 
Q 5750 2525 5500 2300 
Q 5075 2800 4450 3400 
Q 4675 3575 4850 3750 
z
M 1825 3500 
Q 1700 3375 1425 3025 
Q 1150 2675 825 2300 
Q 575 2475 375 2600 
Q 975 3150 1300 3825 
Q 1525 3650 1825 3500 
z
" transform="scale(0.015625)"/>
      <path id="SimHei-5316" d="M 3925 5025 
Q 3900 4900 3900 4400 
L 3900 2625 
Q 4375 3025 4775 3450 
Q 5175 3875 5400 4300 
Q 5600 4100 5900 3925 
Q 5700 3700 5225 3212 
Q 4750 2725 4487 2512 
Q 4225 2300 3900 2025 
L 3900 450 
Q 3900 50 4225 50 
L 5200 50 
Q 5400 75 5462 262 
Q 5525 450 5575 850 
Q 5800 650 6150 600 
Q 6000 -100 5825 -250 
Q 5650 -400 5350 -400 
L 3950 -400 
Q 3425 -400 3400 200 
L 3400 1675 
Q 3225 1525 2962 1350 
Q 2700 1175 2375 975 
Q 2225 1225 2025 1400 
Q 2350 1550 2737 1787 
Q 3125 2025 3400 2250 
L 3400 4500 
Q 3400 4800 3375 5025 
L 3925 5025 
z
M 2400 4850 
Q 2175 4550 2075 4337 
Q 1975 4125 1825 3775 
L 1825 675 
Q 1825 -75 1850 -550 
L 1325 -550 
Q 1350 -125 1350 650 
L 1350 3050 
Q 1125 2725 962 2525 
Q 800 2325 675 2175 
Q 500 2375 275 2525 
Q 625 2850 875 3212 
Q 1125 3575 1312 3912 
Q 1500 4250 1625 4575 
Q 1750 4900 1825 5100 
Q 1975 4975 2400 4850 
z
" transform="scale(0.015625)"/>
     </defs>
     <use xlink:href="#SimHei-5207"/>
     <use xlink:href="#SimHei-6df1" x="100"/>
     <use xlink:href="#SimHei-53d8" x="200"/>
     <use xlink:href="#SimHei-5316" x="300"/>
    </g>
   </g>
  </g>
  <g id="axes_2">
   <g id="matplotlib.axis_3">
    <g id="xtick_7">
     <g id="line2d_24">
      <defs>
       <path id="m4e29f9c7c2" d="M 0 0 
L 0 -3.5 
" style="stroke: #000000; stroke-width: 0.8"/>
      </defs>
      <g>
       <use xlink:href="#m4e29f9c7c2" x="71.033409" y="70.931424" style="stroke: #000000; stroke-width: 0.8"/>
      </g>
     </g>
     <g id="text_15">
      <!-- N140 -->
      <g transform="translate(74.922496 63.224317) rotate(-45) scale(0.08 -0.08)">
       <defs>
        <path id="SimHei-4e" d="M 2850 125 
L 2225 125 
L 850 3225 
L 825 3225 
L 825 125 
L 250 125 
L 250 4400 
L 875 4400 
L 2250 1300 
L 2275 1300 
L 2275 4400 
L 2850 4400 
L 2850 125 
z
" transform="scale(0.015625)"/>
       </defs>
       <use xlink:href="#SimHei-4e"/>
       <use xlink:href="#SimHei-31" x="50"/>
       <use xlink:href="#SimHei-34" x="100"/>
       <use xlink:href="#SimHei-30" x="150"/>
      </g>
     </g>
    </g>
    <g id="xtick_8">
     <g id="line2d_25">
      <g>
       <use xlink:href="#m4e29f9c7c2" x="144.030041" y="70.931424" style="stroke: #000000; stroke-width: 0.8"/>
      </g>
     </g>
     <g id="text_16">
      <!-- N1050 -->
      <g transform="translate(147.919129 63.224317) rotate(-45) scale(0.08 -0.08)">
       <use xlink:href="#SimHei-4e"/>
       <use xlink:href="#SimHei-31" x="50"/>
       <use xlink:href="#SimHei-30" x="100"/>
       <use xlink:href="#SimHei-35" x="150"/>
       <use xlink:href="#SimHei-30" x="200"/>
      </g>
     </g>
    </g>
    <g id="xtick_9">
     <g id="line2d_26">
      <g>
       <use xlink:href="#m4e29f9c7c2" x="191.764224" y="70.931424" style="stroke: #000000; stroke-width: 0.8"/>
      </g>
     </g>
     <g id="text_17">
      <!-- N7090.17 -->
      <g transform="translate(195.653311 63.224317) rotate(-45) scale(0.08 -0.08)">
       <defs>
        <path id="SimHei-37" d="M 850 150 
Q 1300 2050 2425 3925 
L 275 3925 
L 275 4375 
L 2950 4375 
L 2950 3950 
Q 1775 2050 1400 150 
L 850 150 
z
" transform="scale(0.015625)"/>
        <path id="SimHei-39" d="M 800 75 
Q 1350 1000 1700 1750 
Q 1075 1650 662 1912 
Q 250 2175 162 2625 
Q 75 3075 175 3437 
Q 275 3800 487 4037 
Q 700 4275 1000 4375 
Q 1300 4475 1537 4475 
Q 1775 4475 2025 4375 
Q 2275 4275 2475 4075 
Q 2675 3875 2750 3662 
Q 2825 3450 2825 3112 
Q 2825 2775 2575 2250 
Q 2325 1725 1350 75 
L 800 75 
z
M 662 2875 
Q 700 2550 937 2337 
Q 1175 2125 1450 2150 
Q 1725 2175 1887 2300 
Q 2050 2425 2200 2725 
Q 2300 3100 2250 3362 
Q 2200 3625 1987 3800 
Q 1775 3975 1525 3975 
Q 1375 4000 1137 3900 
Q 900 3800 762 3500 
Q 625 3200 662 2875 
z
" transform="scale(0.015625)"/>
        <path id="SimHei-2e" d="M 1075 125 
L 500 125 
L 500 675 
L 1075 675 
L 1075 125 
z
" transform="scale(0.015625)"/>
       </defs>
       <use xlink:href="#SimHei-4e"/>
       <use xlink:href="#SimHei-37" x="50"/>
       <use xlink:href="#SimHei-30" x="100"/>
       <use xlink:href="#SimHei-39" x="150"/>
       <use xlink:href="#SimHei-30" x="200"/>
       <use xlink:href="#SimHei-2e" x="250"/>
       <use xlink:href="#SimHei-31" x="300"/>
       <use xlink:href="#SimHei-37" x="350"/>
      </g>
     </g>
    </g>
    <g id="xtick_10">
     <g id="line2d_27">
      <g>
       <use xlink:href="#m4e29f9c7c2" x="247.587415" y="70.931424" style="stroke: #000000; stroke-width: 0.8"/>
      </g>
     </g>
     <g id="text_18">
      <!-- N2250 -->
      <g transform="translate(251.476502 63.224317) rotate(-45) scale(0.08 -0.08)">
       <use xlink:href="#SimHei-4e"/>
       <use xlink:href="#SimHei-32" x="50"/>
       <use xlink:href="#SimHei-32" x="100"/>
       <use xlink:href="#SimHei-35" x="150"/>
       <use xlink:href="#SimHei-30" x="200"/>
      </g>
     </g>
    </g>
    <g id="xtick_11">
     <g id="line2d_28">
      <g>
       <use xlink:href="#m4e29f9c7c2" x="304.952303" y="70.931424" style="stroke: #000000; stroke-width: 0.8"/>
      </g>
     </g>
     <g id="text_19">
      <!-- N2940 -->
      <g transform="translate(308.84139 63.224317) rotate(-45) scale(0.08 -0.08)">
       <use xlink:href="#SimHei-4e"/>
       <use xlink:href="#SimHei-32" x="50"/>
       <use xlink:href="#SimHei-39" x="100"/>
       <use xlink:href="#SimHei-34" x="150"/>
       <use xlink:href="#SimHei-30" x="200"/>
      </g>
     </g>
    </g>
    <g id="xtick_12">
     <g id="line2d_29">
      <g>
       <use xlink:href="#m4e29f9c7c2" x="351.920618" y="70.931424" style="stroke: #000000; stroke-width: 0.8"/>
      </g>
     </g>
     <g id="text_20">
      <!-- N8760.10 -->
      <g transform="translate(355.809705 63.224317) rotate(-45) scale(0.08 -0.08)">
       <use xlink:href="#SimHei-4e"/>
       <use xlink:href="#SimHei-38" x="50"/>
       <use xlink:href="#SimHei-37" x="100"/>
       <use xlink:href="#SimHei-36" x="150"/>
       <use xlink:href="#SimHei-30" x="200"/>
       <use xlink:href="#SimHei-2e" x="250"/>
       <use xlink:href="#SimHei-31" x="300"/>
       <use xlink:href="#SimHei-30" x="350"/>
      </g>
     </g>
    </g>
    <g id="xtick_13">
     <g id="line2d_30">
      <g>
       <use xlink:href="#m4e29f9c7c2" x="408.712858" y="70.931424" style="stroke: #000000; stroke-width: 0.8"/>
      </g>
     </g>
     <g id="text_21">
      <!-- N3940.2 -->
      <g transform="translate(412.601945 63.224317) rotate(-45) scale(0.08 -0.08)">
       <defs>
        <path id="SimHei-33" d="M 250 1225 
L 700 1300 
Q 800 975 1025 762 
Q 1250 550 1587 562 
Q 1925 575 2125 837 
Q 2325 1100 2300 1437 
Q 2275 1775 2037 1962 
Q 1800 2150 1275 2225 
L 1275 2550 
Q 1800 2600 2037 2825 
Q 2275 3050 2250 3412 
Q 2225 3775 1925 3937 
Q 1625 4100 1287 3975 
Q 950 3850 750 3275 
L 300 3350 
Q 450 3800 712 4100 
Q 975 4400 1425 4450 
Q 1875 4500 2212 4337 
Q 2550 4175 2687 3837 
Q 2825 3500 2725 3100 
Q 2625 2700 2150 2400 
Q 2500 2250 2687 1950 
Q 2875 1650 2812 1162 
Q 2750 675 2375 375 
Q 2000 75 1525 87 
Q 1050 100 700 387 
Q 350 675 250 1225 
z
" transform="scale(0.015625)"/>
       </defs>
       <use xlink:href="#SimHei-4e"/>
       <use xlink:href="#SimHei-33" x="50"/>
       <use xlink:href="#SimHei-39" x="100"/>
       <use xlink:href="#SimHei-34" x="150"/>
       <use xlink:href="#SimHei-30" x="200"/>
       <use xlink:href="#SimHei-2e" x="250"/>
       <use xlink:href="#SimHei-32" x="300"/>
      </g>
     </g>
    </g>
    <g id="xtick_14">
     <g id="line2d_31">
      <g>
       <use xlink:href="#m4e29f9c7c2" x="463.564482" y="70.931424" style="stroke: #000000; stroke-width: 0.8"/>
      </g>
     </g>
     <g id="text_22">
      <!-- N2400.17 -->
      <g transform="translate(467.45357 63.224317) rotate(-45) scale(0.08 -0.08)">
       <use xlink:href="#SimHei-4e"/>
       <use xlink:href="#SimHei-32" x="50"/>
       <use xlink:href="#SimHei-34" x="100"/>
       <use xlink:href="#SimHei-30" x="150"/>
       <use xlink:href="#SimHei-30" x="200"/>
       <use xlink:href="#SimHei-2e" x="250"/>
       <use xlink:href="#SimHei-31" x="300"/>
       <use xlink:href="#SimHei-37" x="350"/>
      </g>
     </g>
    </g>
    <g id="xtick_15">
     <g id="line2d_32">
      <g>
       <use xlink:href="#m4e29f9c7c2" x="509.493559" y="70.931424" style="stroke: #000000; stroke-width: 0.8"/>
      </g>
     </g>
     <g id="text_23">
      <!-- N6770 -->
      <g transform="translate(513.382647 63.224317) rotate(-45) scale(0.08 -0.08)">
       <use xlink:href="#SimHei-4e"/>
       <use xlink:href="#SimHei-36" x="50"/>
       <use xlink:href="#SimHei-37" x="100"/>
       <use xlink:href="#SimHei-37" x="150"/>
       <use xlink:href="#SimHei-30" x="200"/>
      </g>
     </g>
    </g>
    <g id="xtick_16">
     <g id="line2d_33">
      <g>
       <use xlink:href="#m4e29f9c7c2" x="567.373087" y="70.931424" style="stroke: #000000; stroke-width: 0.8"/>
      </g>
     </g>
     <g id="text_24">
      <!-- N3310 -->
      <g transform="translate(571.262174 63.224317) rotate(-45) scale(0.08 -0.08)">
       <use xlink:href="#SimHei-4e"/>
       <use xlink:href="#SimHei-33" x="50"/>
       <use xlink:href="#SimHei-33" x="100"/>
       <use xlink:href="#SimHei-31" x="150"/>
       <use xlink:href="#SimHei-30" x="200"/>
      </g>
     </g>
    </g>
    <g id="xtick_17">
     <g id="line2d_34">
      <g>
       <use xlink:href="#m4e29f9c7c2" x="626.274975" y="70.931424" style="stroke: #000000; stroke-width: 0.8"/>
      </g>
     </g>
     <g id="text_25">
      <!-- N2720 -->
      <g transform="translate(630.164063 63.224317) rotate(-45) scale(0.08 -0.08)">
       <use xlink:href="#SimHei-4e"/>
       <use xlink:href="#SimHei-32" x="50"/>
       <use xlink:href="#SimHei-37" x="100"/>
       <use xlink:href="#SimHei-32" x="150"/>
       <use xlink:href="#SimHei-30" x="200"/>
      </g>
     </g>
    </g>
    <g id="xtick_18">
     <g id="line2d_35">
      <g>
       <use xlink:href="#m4e29f9c7c2" x="670.117871" y="70.931424" style="stroke: #000000; stroke-width: 0.8"/>
      </g>
     </g>
     <g id="text_26">
      <!-- N6820 -->
      <g transform="translate(674.006958 63.224317) rotate(-45) scale(0.08 -0.08)">
       <use xlink:href="#SimHei-4e"/>
       <use xlink:href="#SimHei-36" x="50"/>
       <use xlink:href="#SimHei-38" x="100"/>
       <use xlink:href="#SimHei-32" x="150"/>
       <use xlink:href="#SimHei-30" x="200"/>
      </g>
     </g>
    </g>
    <g id="xtick_19">
     <g id="line2d_36">
      <g>
       <use xlink:href="#m4e29f9c7c2" x="801.388779" y="70.931424" style="stroke: #000000; stroke-width: 0.8"/>
      </g>
     </g>
     <g id="text_27">
      <!-- N0 -->
      <g transform="translate(805.277866 63.224317) rotate(-45) scale(0.08 -0.08)">
       <use xlink:href="#SimHei-4e"/>
       <use xlink:href="#SimHei-30" x="50"/>
      </g>
     </g>
    </g>
    <g id="text_28">
     <!-- 指令行号 N -->
     <g transform="translate(412.805 32.707812) scale(0.1 -0.1)">
      <defs>
       <path id="SimHei-6307" d="M 5625 2225 
Q 5600 1925 5600 1350 
L 5600 300 
Q 5600 -225 5625 -525 
L 5125 -525 
L 5125 -125 
L 3300 -125 
L 3300 -625 
L 2800 -625 
Q 2825 -300 2825 300 
L 2825 1350 
Q 2825 1925 2800 2225 
L 5625 2225 
z
M 500 25 
Q 1075 -25 1175 37 
Q 1275 100 1275 275 
L 1275 1675 
Q 1050 1600 925 1537 
Q 800 1475 475 1275 
Q 400 1525 225 1800 
Q 625 1900 825 1975 
Q 1025 2050 1275 2125 
L 1275 3300 
L 1100 3300 
Q 775 3300 450 3275 
L 450 3725 
Q 750 3700 1100 3700 
L 1275 3700 
L 1275 4450 
Q 1275 4800 1250 5125 
L 1775 5125 
Q 1750 4850 1750 4450 
L 1750 3700 
Q 2075 3700 2425 3725 
L 2425 3275 
Q 2050 3300 1750 3300 
L 1750 2325 
Q 1850 2350 2025 2425 
L 2375 2575 
Q 2350 2300 2375 2100 
Q 2225 2050 2062 1987 
Q 1900 1925 1750 1850 
L 1750 100 
Q 1725 -200 1575 -337 
Q 1425 -475 675 -525 
Q 625 -250 500 25 
z
M 3325 5025 
Q 3300 4675 3300 4125 
Q 4125 4275 4512 4412 
Q 4900 4550 5225 4725 
Q 5325 4475 5575 4250 
Q 5450 4225 5237 4175 
Q 5025 4125 4725 4050 
Q 4425 3975 4037 3887 
Q 3650 3800 3300 3725 
L 3300 3175 
Q 3275 2925 3700 2925 
L 4925 2925 
Q 5300 2925 5387 3087 
Q 5475 3250 5550 3600 
Q 5750 3400 6050 3300 
Q 5825 2725 5700 2637 
Q 5575 2550 5275 2525 
L 3350 2525 
Q 3050 2525 2937 2687 
Q 2825 2850 2825 2975 
L 2825 4125 
Q 2825 4775 2800 5025 
L 3325 5025 
z
M 5125 275 
L 5125 875 
L 3300 875 
L 3300 275 
L 5125 275 
z
M 5125 1250 
L 5125 1825 
L 3300 1825 
L 3300 1250 
L 5125 1250 
z
" transform="scale(0.015625)"/>
       <path id="SimHei-4ee4" d="M 5375 2075 
L 5375 1550 
Q 4925 1325 4450 937 
Q 3975 550 3575 125 
L 4250 -325 
Q 4050 -550 3875 -775 
Q 3100 -125 1850 425 
L 2150 875 
Q 2400 775 3125 350 
Q 3800 1025 4450 1625 
L 2025 1625 
Q 1500 1625 975 1600 
L 975 2100 
Q 1525 2075 2025 2075 
L 5375 2075 
z
M 3375 4850 
Q 4450 3550 6200 2900 
Q 5950 2625 5800 2350 
Q 4150 3150 3100 4475 
Q 2075 3125 625 2225 
Q 400 2525 200 2700 
Q 875 2975 1675 3675 
Q 2475 4375 2950 5300 
Q 3275 5175 3550 5050 
Q 3475 5000 3375 4850 
z
M 2925 3600 
Q 3175 3350 3750 2725 
L 3300 2325 
Q 3050 2700 2550 3225 
Q 2750 3375 2925 3600 
z
" transform="scale(0.015625)"/>
       <path id="SimHei-53f7" d="M 5025 4925 
Q 5000 4550 5000 4075 
Q 5000 3600 5025 3175 
L 1400 3175 
Q 1425 3525 1425 4000 
Q 1425 4500 1400 4925 
L 5025 4925 
z
M 5175 2625 
Q 5650 2625 6025 2650 
L 6025 2200 
Q 5650 2225 5175 2225 
L 2450 2225 
Q 2350 1875 2225 1450 
L 5175 1450 
Q 5100 1050 5062 775 
Q 5025 500 4950 112 
Q 4875 -275 4650 -412 
Q 4425 -550 3225 -625 
Q 3125 -350 2975 -50 
Q 3875 -75 4112 -50 
Q 4350 -25 4425 212 
Q 4500 450 4575 1025 
L 1600 1025 
Q 1825 1625 1950 2225 
L 1350 2225 
Q 825 2225 375 2200 
L 375 2650 
Q 825 2625 1350 2625 
L 5175 2625 
z
M 4525 3575 
L 4525 4525 
L 1900 4525 
L 1900 3575 
L 4525 3575 
z
" transform="scale(0.015625)"/>
      </defs>
      <use xlink:href="#SimHei-6307"/>
      <use xlink:href="#SimHei-4ee4" x="100"/>
      <use xlink:href="#SimHei-884c" x="200"/>
      <use xlink:href="#SimHei-53f7" x="300"/>
      <use xlink:href="#SimHei-20" x="400"/>
      <use xlink:href="#SimHei-4e" x="450"/>
     </g>
    </g>
   </g>
   <g id="patch_7">
    <path d="M 34.35625 450.823965 
L 34.35625 70.931424 
" style="fill: none; stroke: #000000; stroke-width: 0.8; stroke-linejoin: miter; stroke-linecap: square"/>
   </g>
   <g id="patch_8">
    <path d="M 841.25375 450.823965 
L 841.25375 70.931424 
" style="fill: none; stroke: #000000; stroke-width: 0.8; stroke-linejoin: miter; stroke-linecap: square"/>
   </g>
   <g id="patch_9">
    <path d="M 34.35625 450.823965 
L 841.25375 450.823965 
" style="fill: none; stroke: #000000; stroke-width: 0.8; stroke-linejoin: miter; stroke-linecap: square"/>
   </g>
   <g id="patch_10">
    <path d="M 34.35625 70.931424 
L 841.25375 70.931424 
" style="fill: none; stroke: #000000; stroke-width: 0.8; stroke-linejoin: miter; stroke-linecap: square"/>
   </g>
  </g>
 </g>
 <defs>
  <clipPath id="p12b5a27efb">
   <rect x="34.35625" y="70.931424" width="806.8975" height="379.892541"/>
  </clipPath>
 </defs>
</svg>
