<?xml version="1.0" encoding="utf-8" standalone="no"?>
<!DOCTYPE svg PUBLIC "-//W3C//DTD SVG 1.1//EN"
  "http://www.w3.org/Graphics/SVG/1.1/DTD/svg11.dtd">
<svg xmlns:xlink="http://www.w3.org/1999/xlink" width="846.404pt" height="488.174277pt" viewBox="0 0 846.404 488.174277" xmlns="http://www.w3.org/2000/svg" version="1.1">
 <metadata>
  <rdf:RDF xmlns:dc="http://purl.org/dc/elements/1.1/" xmlns:cc="http://creativecommons.org/ns#" xmlns:rdf="http://www.w3.org/1999/02/22-rdf-syntax-ns#">
   <cc:Work>
    <dc:type rdf:resource="http://purl.org/dc/dcmitype/StillImage"/>
    <dc:date>2025-12-10T13:36:03.058176</dc:date>
    <dc:format>image/svg+xml</dc:format>
    <dc:creator>
     <cc:Agent>
      <dc:title>Matplotlib v3.9.2, https://matplotlib.org/</dc:title>
     </cc:Agent>
    </dc:creator>
   </cc:Work>
  </rdf:RDF>
 </metadata>
 <defs>
  <style type="text/css">*{stroke-linejoin: round; stroke-linecap: butt}</style>
 </defs>
 <g id="figure_1">
  <g id="patch_1">
   <path d="M 0 488.174277 
L 846.404 488.174277 
L 846.404 0 
L 0 0 
z
" style="fill: #ffffff"/>
  </g>
  <g id="axes_1">
   <g id="patch_2">
    <path d="M 50.44 450.646152 
L 839.204 450.646152 
L 839.204 70.986111 
L 50.44 70.986111 
z
" style="fill: #ffffff"/>
   </g>
   <g id="matplotlib.axis_1">
    <g id="xtick_1">
     <g id="line2d_1">
      <path d="M 74.874164 450.646152 
L 74.874164 70.986111 
" clip-path="url(#pe4a89ba839)" style="fill: none; stroke-dasharray: 2.96,1.28; stroke-dashoffset: 0; stroke: #b0b0b0; stroke-opacity: 0.7; stroke-width: 0.8"/>
     </g>
     <g id="line2d_2">
      <defs>
       <path id="m95ae48fc17" d="M 0 0 
L 0 3.5 
" style="stroke: #000000; stroke-width: 0.8"/>
      </defs>
      <g>
       <use xlink:href="#m95ae48fc17" x="74.874164" y="450.646152" style="stroke: #000000; stroke-width: 0.8"/>
      </g>
     </g>
     <g id="text_1">
      <!-- 0 -->
      <g transform="translate(72.374164 464.521152) scale(0.1 -0.1)">
       <defs>
        <path id="SimHei-30" d="M 225 2537 
Q 250 3200 412 3587 
Q 575 3975 875 4225 
Q 1175 4475 1612 4475 
Q 2050 4475 2375 4112 
Q 2700 3750 2800 3200 
Q 2900 2650 2862 1937 
Q 2825 1225 2612 775 
Q 2400 325 1975 150 
Q 1550 -25 1125 187 
Q 700 400 525 750 
Q 350 1100 275 1487 
Q 200 1875 225 2537 
z
M 750 2687 
Q 675 2000 800 1462 
Q 925 925 1212 700 
Q 1500 475 1800 612 
Q 2100 750 2237 1162 
Q 2375 1575 2375 2062 
Q 2375 2550 2337 2950 
Q 2300 3350 2112 3675 
Q 1925 4000 1612 4012 
Q 1300 4025 1062 3700 
Q 825 3375 750 2687 
z
" transform="scale(0.015625)"/>
       </defs>
       <use xlink:href="#SimHei-30"/>
      </g>
     </g>
    </g>
    <g id="xtick_2">
     <g id="line2d_3">
      <path d="M 202.833895 450.646152 
L 202.833895 70.986111 
" clip-path="url(#pe4a89ba839)" style="fill: none; stroke-dasharray: 2.96,1.28; stroke-dashoffset: 0; stroke: #b0b0b0; stroke-opacity: 0.7; stroke-width: 0.8"/>
     </g>
     <g id="line2d_4">
      <g>
       <use xlink:href="#m95ae48fc17" x="202.833895" y="450.646152" style="stroke: #000000; stroke-width: 0.8"/>
      </g>
     </g>
     <g id="text_2">
      <!-- 5000 -->
      <g transform="translate(192.833895 464.521152) scale(0.1 -0.1)">
       <defs>
        <path id="SimHei-35" d="M 550 1325 
Q 725 650 1150 575 
Q 1575 500 1837 662 
Q 2100 825 2212 1087 
Q 2325 1350 2312 1675 
Q 2300 2000 2137 2225 
Q 1975 2450 1725 2525 
Q 1475 2600 1162 2525 
Q 850 2450 650 2175 
L 225 2225 
Q 275 2375 700 4375 
L 2675 4375 
L 2675 3925 
L 1075 3925 
Q 950 3250 825 2850 
Q 1200 3025 1525 3012 
Q 1850 3000 2150 2862 
Q 2450 2725 2587 2487 
Q 2725 2250 2787 2012 
Q 2850 1775 2837 1500 
Q 2825 1225 2725 937 
Q 2625 650 2425 462 
Q 2225 275 1937 162 
Q 1650 50 1275 75 
Q 900 100 562 350 
Q 225 600 100 1200 
L 550 1325 
z
" transform="scale(0.015625)"/>
       </defs>
       <use xlink:href="#SimHei-35"/>
       <use xlink:href="#SimHei-30" x="50"/>
       <use xlink:href="#SimHei-30" x="100"/>
       <use xlink:href="#SimHei-30" x="150"/>
      </g>
     </g>
    </g>
    <g id="xtick_3">
     <g id="line2d_5">
      <path d="M 330.793626 450.646152 
L 330.793626 70.986111 
" clip-path="url(#pe4a89ba839)" style="fill: none; stroke-dasharray: 2.96,1.28; stroke-dashoffset: 0; stroke: #b0b0b0; stroke-opacity: 0.7; stroke-width: 0.8"/>
     </g>
     <g id="line2d_6">
      <g>
       <use xlink:href="#m95ae48fc17" x="330.793626" y="450.646152" style="stroke: #000000; stroke-width: 0.8"/>
      </g>
     </g>
     <g id="text_3">
      <!-- 10000 -->
      <g transform="translate(318.293626 464.521152) scale(0.1 -0.1)">
       <defs>
        <path id="SimHei-31" d="M 1400 3600 
Q 1075 3275 575 2975 
L 575 3450 
Q 1200 3875 1600 4450 
L 1900 4450 
L 1900 150 
L 1400 150 
L 1400 3600 
z
" transform="scale(0.015625)"/>
       </defs>
       <use xlink:href="#SimHei-31"/>
       <use xlink:href="#SimHei-30" x="50"/>
       <use xlink:href="#SimHei-30" x="100"/>
       <use xlink:href="#SimHei-30" x="150"/>
       <use xlink:href="#SimHei-30" x="200"/>
      </g>
     </g>
    </g>
    <g id="xtick_4">
     <g id="line2d_7">
      <path d="M 458.753357 450.646152 
L 458.753357 70.986111 
" clip-path="url(#pe4a89ba839)" style="fill: none; stroke-dasharray: 2.96,1.28; stroke-dashoffset: 0; stroke: #b0b0b0; stroke-opacity: 0.7; stroke-width: 0.8"/>
     </g>
     <g id="line2d_8">
      <g>
       <use xlink:href="#m95ae48fc17" x="458.753357" y="450.646152" style="stroke: #000000; stroke-width: 0.8"/>
      </g>
     </g>
     <g id="text_4">
      <!-- 15000 -->
      <g transform="translate(446.253357 464.521152) scale(0.1 -0.1)">
       <use xlink:href="#SimHei-31"/>
       <use xlink:href="#SimHei-35" x="50"/>
       <use xlink:href="#SimHei-30" x="100"/>
       <use xlink:href="#SimHei-30" x="150"/>
       <use xlink:href="#SimHei-30" x="200"/>
      </g>
     </g>
    </g>
    <g id="xtick_5">
     <g id="line2d_9">
      <path d="M 586.713088 450.646152 
L 586.713088 70.986111 
" clip-path="url(#pe4a89ba839)" style="fill: none; stroke-dasharray: 2.96,1.28; stroke-dashoffset: 0; stroke: #b0b0b0; stroke-opacity: 0.7; stroke-width: 0.8"/>
     </g>
     <g id="line2d_10">
      <g>
       <use xlink:href="#m95ae48fc17" x="586.713088" y="450.646152" style="stroke: #000000; stroke-width: 0.8"/>
      </g>
     </g>
     <g id="text_5">
      <!-- 20000 -->
      <g transform="translate(574.213088 464.521152) scale(0.1 -0.1)">
       <defs>
        <path id="SimHei-32" d="M 300 250 
Q 325 625 650 925 
Q 975 1225 1475 1862 
Q 1975 2500 2125 2850 
Q 2275 3200 2237 3450 
Q 2200 3700 2000 3862 
Q 1800 4025 1537 4000 
Q 1275 3975 1037 3800 
Q 800 3625 675 3275 
L 200 3350 
Q 400 3925 712 4187 
Q 1025 4450 1450 4475 
Q 1700 4500 1900 4462 
Q 2100 4425 2312 4287 
Q 2525 4150 2662 3875 
Q 2800 3600 2762 3212 
Q 2725 2825 2375 2287 
Q 2025 1750 1025 600 
L 2825 600 
L 2825 150 
L 300 150 
L 300 250 
z
" transform="scale(0.015625)"/>
       </defs>
       <use xlink:href="#SimHei-32"/>
       <use xlink:href="#SimHei-30" x="50"/>
       <use xlink:href="#SimHei-30" x="100"/>
       <use xlink:href="#SimHei-30" x="150"/>
       <use xlink:href="#SimHei-30" x="200"/>
      </g>
     </g>
    </g>
    <g id="xtick_6">
     <g id="line2d_11">
      <path d="M 714.672819 450.646152 
L 714.672819 70.986111 
" clip-path="url(#pe4a89ba839)" style="fill: none; stroke-dasharray: 2.96,1.28; stroke-dashoffset: 0; stroke: #b0b0b0; stroke-opacity: 0.7; stroke-width: 0.8"/>
     </g>
     <g id="line2d_12">
      <g>
       <use xlink:href="#m95ae48fc17" x="714.672819" y="450.646152" style="stroke: #000000; stroke-width: 0.8"/>
      </g>
     </g>
     <g id="text_6">
      <!-- 25000 -->
      <g transform="translate(702.172819 464.521152) scale(0.1 -0.1)">
       <use xlink:href="#SimHei-32"/>
       <use xlink:href="#SimHei-35" x="50"/>
       <use xlink:href="#SimHei-30" x="100"/>
       <use xlink:href="#SimHei-30" x="150"/>
       <use xlink:href="#SimHei-30" x="200"/>
      </g>
     </g>
    </g>
    <g id="text_7">
     <!-- 行程 s (mm) -->
     <g transform="translate(411.822 479.474277) scale(0.12 -0.12)">
      <defs>
       <path id="SimHei-884c" d="M 5300 3100 
Q 5775 3100 6175 3125 
L 6175 2625 
Q 5775 2650 5325 2650 
L 4975 2650 
L 4975 -75 
Q 5000 -375 4787 -487 
Q 4575 -600 3950 -675 
Q 3900 -375 3675 -75 
Q 4100 -125 4275 -112 
Q 4450 -100 4475 150 
L 4475 2650 
L 3475 2650 
Q 3000 2650 2575 2625 
L 2575 3125 
Q 3025 3100 3475 3100 
L 5300 3100 
z
M 2300 3400 
Q 2075 3275 1962 3075 
Q 1850 2875 1650 2575 
L 1650 325 
Q 1650 0 1675 -675 
L 1150 -675 
Q 1175 75 1175 450 
L 1175 2050 
Q 950 1675 575 1300 
Q 400 1550 250 1725 
Q 825 2275 1150 2775 
Q 1475 3275 1725 3725 
Q 1975 3575 2300 3400 
z
M 4875 4800 
Q 5300 4800 5750 4825 
L 5750 4350 
Q 5300 4375 4825 4375 
L 3900 4375 
Q 3350 4375 2950 4350 
L 2950 4825 
Q 3350 4800 3900 4800 
L 4875 4800 
z
M 2075 4925 
Q 1875 4900 1550 4387 
Q 1225 3875 650 3250 
Q 500 3450 325 3625 
Q 725 4025 1050 4487 
Q 1375 4950 1525 5300 
Q 1775 5150 2075 4925 
z
" transform="scale(0.015625)"/>
       <path id="SimHei-7a0b" d="M 5825 4975 
Q 5800 4425 5800 3975 
Q 5800 3550 5825 3125 
L 3025 3125 
Q 3050 3600 3050 4025 
Q 3050 4450 3025 4975 
L 5825 4975 
z
M 400 4825 
Q 825 4875 1362 4987 
Q 1900 5100 2275 5275 
Q 2450 4950 2625 4725 
Q 2450 4750 2262 4712 
Q 2075 4675 1850 4650 
L 1850 3425 
Q 2200 3425 2600 3450 
L 2600 2975 
Q 2200 3000 1850 3000 
L 1850 800 
Q 1850 250 1875 -675 
L 1375 -675 
Q 1400 250 1400 775 
L 1400 1925 
Q 1050 1225 625 600 
Q 450 850 225 1050 
Q 575 1400 850 1850 
Q 1125 2300 1350 3000 
Q 725 3000 425 2975 
L 425 3450 
Q 850 3425 1050 3425 
L 1400 3425 
L 1400 4550 
Q 1075 4475 575 4400 
Q 500 4625 400 4825 
z
M 5100 2500 
Q 5500 2500 5950 2525 
L 5950 2075 
Q 5500 2100 5100 2100 
L 4625 2100 
L 4625 1300 
L 4900 1300 
Q 5275 1300 5775 1325 
L 5775 850 
Q 5275 875 4975 875 
L 4625 875 
L 4625 0 
L 5225 0 
Q 5675 0 6175 25 
L 6175 -450 
Q 5775 -425 5225 -425 
L 3550 -425 
Q 3000 -425 2600 -475 
L 2600 25 
Q 3000 0 3550 0 
L 4150 0 
L 4150 875 
L 3800 875 
Q 3400 875 3050 825 
L 3050 1325 
Q 3400 1300 3800 1300 
L 4150 1300 
L 4150 2100 
L 3750 2100 
Q 3300 2100 2900 2075 
L 2900 2525 
Q 3300 2500 3750 2500 
L 5100 2500 
z
M 5275 3575 
L 5275 4550 
L 3500 4550 
L 3500 3575 
L 5275 3575 
z
M 2300 2400 
Q 2550 2025 2825 1525 
Q 2675 1425 2425 1225 
Q 2175 1775 1925 2125 
Q 2075 2250 2300 2400 
z
" transform="scale(0.015625)"/>
       <path id="SimHei-20" transform="scale(0.015625)"/>
       <path id="SimHei-73" d="M 2750 900 
Q 2750 500 2437 287 
Q 2125 75 1650 75 
Q 1050 75 725 312 
Q 400 550 400 1000 
L 900 1000 
Q 900 700 1112 600 
Q 1325 500 1625 500 
Q 1925 500 2075 612 
Q 2225 725 2225 900 
Q 2225 1025 2100 1150 
Q 1975 1275 1475 1350 
Q 900 1425 687 1637 
Q 475 1850 475 2200 
Q 475 2500 762 2737 
Q 1050 2975 1600 2975 
Q 2100 2975 2387 2750 
Q 2675 2525 2675 2150 
L 2175 2150 
Q 2175 2375 2012 2462 
Q 1850 2550 1600 2550 
Q 1275 2550 1137 2437 
Q 1000 2325 1000 2175 
Q 1000 2000 1125 1900 
Q 1250 1800 1650 1750 
Q 2300 1650 2525 1437 
Q 2750 1225 2750 900 
z
" transform="scale(0.015625)"/>
       <path id="SimHei-28" d="M 2975 -200 
L 2700 -475 
Q 2075 125 1762 775 
Q 1450 1425 1450 2250 
Q 1450 3075 1762 3725 
Q 2075 4375 2700 5000 
L 2975 4725 
Q 2400 4175 2112 3587 
Q 1825 3000 1825 2250 
Q 1825 1500 2112 912 
Q 2400 325 2975 -200 
z
" transform="scale(0.015625)"/>
       <path id="SimHei-6d" d="M 3050 125 
L 2550 125 
L 2550 2150 
Q 2550 2300 2500 2400 
Q 2450 2500 2300 2500 
Q 2125 2500 1975 2312 
Q 1825 2125 1825 1825 
L 1825 125 
L 1325 125 
L 1325 2150 
Q 1325 2300 1275 2400 
Q 1225 2500 1075 2500 
Q 900 2500 750 2312 
Q 600 2125 600 1825 
L 600 125 
L 100 125 
L 100 2925 
L 600 2925 
L 600 2550 
Q 725 2750 900 2862 
Q 1075 2975 1275 2975 
Q 1475 2975 1612 2862 
Q 1750 2750 1800 2550 
Q 1925 2750 2087 2862 
Q 2250 2975 2450 2975 
Q 2750 2975 2900 2812 
Q 3050 2650 3050 2350 
L 3050 125 
z
" transform="scale(0.015625)"/>
       <path id="SimHei-29" d="M 1675 2250 
Q 1675 1425 1362 775 
Q 1050 125 425 -475 
L 150 -200 
Q 725 325 1012 912 
Q 1300 1500 1300 2250 
Q 1300 3000 1012 3587 
Q 725 4175 150 4725 
L 425 5000 
Q 1050 4375 1362 3725 
Q 1675 3075 1675 2250 
z
" transform="scale(0.015625)"/>
      </defs>
      <use xlink:href="#SimHei-884c"/>
      <use xlink:href="#SimHei-7a0b" x="100"/>
      <use xlink:href="#SimHei-20" x="200"/>
      <use xlink:href="#SimHei-73" x="250"/>
      <use xlink:href="#SimHei-20" x="300"/>
      <use xlink:href="#SimHei-28" x="350"/>
      <use xlink:href="#SimHei-6d" x="400"/>
      <use xlink:href="#SimHei-6d" x="450"/>
      <use xlink:href="#SimHei-29" x="500"/>
     </g>
    </g>
   </g>
   <g id="matplotlib.axis_2">
    <g id="ytick_1">
     <g id="line2d_13">
      <path d="M 50.44 433.388878 
L 839.204 433.388878 
" clip-path="url(#pe4a89ba839)" style="fill: none; stroke-dasharray: 2.96,1.28; stroke-dashoffset: 0; stroke: #b0b0b0; stroke-opacity: 0.7; stroke-width: 0.8"/>
     </g>
     <g id="line2d_14">
      <defs>
       <path id="m152e984df3" d="M 0 0 
L -3.5 0 
" style="stroke: #000000; stroke-width: 0.8"/>
      </defs>
      <g>
       <use xlink:href="#m152e984df3" x="50.44" y="433.388878" style="stroke: #000000; stroke-width: 0.8"/>
      </g>
     </g>
     <g id="text_8">
      <!-- 0 -->
      <g transform="translate(38.44 436.826378) scale(0.1 -0.1)">
       <use xlink:href="#SimHei-30"/>
      </g>
     </g>
    </g>
    <g id="ytick_2">
     <g id="line2d_15">
      <path d="M 50.44 390.241376 
L 839.204 390.241376 
" clip-path="url(#pe4a89ba839)" style="fill: none; stroke-dasharray: 2.96,1.28; stroke-dashoffset: 0; stroke: #b0b0b0; stroke-opacity: 0.7; stroke-width: 0.8"/>
     </g>
     <g id="line2d_16">
      <g>
       <use xlink:href="#m152e984df3" x="50.44" y="390.241376" style="stroke: #000000; stroke-width: 0.8"/>
      </g>
     </g>
     <g id="text_9">
      <!-- 500 -->
      <g transform="translate(28.44 393.678876) scale(0.1 -0.1)">
       <use xlink:href="#SimHei-35"/>
       <use xlink:href="#SimHei-30" x="50"/>
       <use xlink:href="#SimHei-30" x="100"/>
      </g>
     </g>
    </g>
    <g id="ytick_3">
     <g id="line2d_17">
      <path d="M 50.44 347.093875 
L 839.204 347.093875 
" clip-path="url(#pe4a89ba839)" style="fill: none; stroke-dasharray: 2.96,1.28; stroke-dashoffset: 0; stroke: #b0b0b0; stroke-opacity: 0.7; stroke-width: 0.8"/>
     </g>
     <g id="line2d_18">
      <g>
       <use xlink:href="#m152e984df3" x="50.44" y="347.093875" style="stroke: #000000; stroke-width: 0.8"/>
      </g>
     </g>
     <g id="text_10">
      <!-- 1000 -->
      <g transform="translate(23.44 350.531375) scale(0.1 -0.1)">
       <use xlink:href="#SimHei-31"/>
       <use xlink:href="#SimHei-30" x="50"/>
       <use xlink:href="#SimHei-30" x="100"/>
       <use xlink:href="#SimHei-30" x="150"/>
      </g>
     </g>
    </g>
    <g id="ytick_4">
     <g id="line2d_19">
      <path d="M 50.44 303.946374 
L 839.204 303.946374 
" clip-path="url(#pe4a89ba839)" style="fill: none; stroke-dasharray: 2.96,1.28; stroke-dashoffset: 0; stroke: #b0b0b0; stroke-opacity: 0.7; stroke-width: 0.8"/>
     </g>
     <g id="line2d_20">
      <g>
       <use xlink:href="#m152e984df3" x="50.44" y="303.946374" style="stroke: #000000; stroke-width: 0.8"/>
      </g>
     </g>
     <g id="text_11">
      <!-- 1500 -->
      <g transform="translate(23.44 307.383874) scale(0.1 -0.1)">
       <use xlink:href="#SimHei-31"/>
       <use xlink:href="#SimHei-35" x="50"/>
       <use xlink:href="#SimHei-30" x="100"/>
       <use xlink:href="#SimHei-30" x="150"/>
      </g>
     </g>
    </g>
    <g id="ytick_5">
     <g id="line2d_21">
      <path d="M 50.44 260.798873 
L 839.204 260.798873 
" clip-path="url(#pe4a89ba839)" style="fill: none; stroke-dasharray: 2.96,1.28; stroke-dashoffset: 0; stroke: #b0b0b0; stroke-opacity: 0.7; stroke-width: 0.8"/>
     </g>
     <g id="line2d_22">
      <g>
       <use xlink:href="#m152e984df3" x="50.44" y="260.798873" style="stroke: #000000; stroke-width: 0.8"/>
      </g>
     </g>
     <g id="text_12">
      <!-- 2000 -->
      <g transform="translate(23.44 264.236373) scale(0.1 -0.1)">
       <use xlink:href="#SimHei-32"/>
       <use xlink:href="#SimHei-30" x="50"/>
       <use xlink:href="#SimHei-30" x="100"/>
       <use xlink:href="#SimHei-30" x="150"/>
      </g>
     </g>
    </g>
    <g id="ytick_6">
     <g id="line2d_23">
      <path d="M 50.44 217.651371 
L 839.204 217.651371 
" clip-path="url(#pe4a89ba839)" style="fill: none; stroke-dasharray: 2.96,1.28; stroke-dashoffset: 0; stroke: #b0b0b0; stroke-opacity: 0.7; stroke-width: 0.8"/>
     </g>
     <g id="line2d_24">
      <g>
       <use xlink:href="#m152e984df3" x="50.44" y="217.651371" style="stroke: #000000; stroke-width: 0.8"/>
      </g>
     </g>
     <g id="text_13">
      <!-- 2500 -->
      <g transform="translate(23.44 221.088871) scale(0.1 -0.1)">
       <use xlink:href="#SimHei-32"/>
       <use xlink:href="#SimHei-35" x="50"/>
       <use xlink:href="#SimHei-30" x="100"/>
       <use xlink:href="#SimHei-30" x="150"/>
      </g>
     </g>
    </g>
    <g id="ytick_7">
     <g id="line2d_25">
      <path d="M 50.44 174.50387 
L 839.204 174.50387 
" clip-path="url(#pe4a89ba839)" style="fill: none; stroke-dasharray: 2.96,1.28; stroke-dashoffset: 0; stroke: #b0b0b0; stroke-opacity: 0.7; stroke-width: 0.8"/>
     </g>
     <g id="line2d_26">
      <g>
       <use xlink:href="#m152e984df3" x="50.44" y="174.50387" style="stroke: #000000; stroke-width: 0.8"/>
      </g>
     </g>
     <g id="text_14">
      <!-- 3000 -->
      <g transform="translate(23.44 177.94137) scale(0.1 -0.1)">
       <defs>
        <path id="SimHei-33" d="M 250 1225 
L 700 1300 
Q 800 975 1025 762 
Q 1250 550 1587 562 
Q 1925 575 2125 837 
Q 2325 1100 2300 1437 
Q 2275 1775 2037 1962 
Q 1800 2150 1275 2225 
L 1275 2550 
Q 1800 2600 2037 2825 
Q 2275 3050 2250 3412 
Q 2225 3775 1925 3937 
Q 1625 4100 1287 3975 
Q 950 3850 750 3275 
L 300 3350 
Q 450 3800 712 4100 
Q 975 4400 1425 4450 
Q 1875 4500 2212 4337 
Q 2550 4175 2687 3837 
Q 2825 3500 2725 3100 
Q 2625 2700 2150 2400 
Q 2500 2250 2687 1950 
Q 2875 1650 2812 1162 
Q 2750 675 2375 375 
Q 2000 75 1525 87 
Q 1050 100 700 387 
Q 350 675 250 1225 
z
" transform="scale(0.015625)"/>
       </defs>
       <use xlink:href="#SimHei-33"/>
       <use xlink:href="#SimHei-30" x="50"/>
       <use xlink:href="#SimHei-30" x="100"/>
       <use xlink:href="#SimHei-30" x="150"/>
      </g>
     </g>
    </g>
    <g id="ytick_8">
     <g id="line2d_27">
      <path d="M 50.44 131.356369 
L 839.204 131.356369 
" clip-path="url(#pe4a89ba839)" style="fill: none; stroke-dasharray: 2.96,1.28; stroke-dashoffset: 0; stroke: #b0b0b0; stroke-opacity: 0.7; stroke-width: 0.8"/>
     </g>
     <g id="line2d_28">
      <g>
       <use xlink:href="#m152e984df3" x="50.44" y="131.356369" style="stroke: #000000; stroke-width: 0.8"/>
      </g>
     </g>
     <g id="text_15">
      <!-- 3500 -->
      <g transform="translate(23.44 134.793869) scale(0.1 -0.1)">
       <use xlink:href="#SimHei-33"/>
       <use xlink:href="#SimHei-35" x="50"/>
       <use xlink:href="#SimHei-30" x="100"/>
       <use xlink:href="#SimHei-30" x="150"/>
      </g>
     </g>
    </g>
    <g id="ytick_9">
     <g id="line2d_29">
      <path d="M 50.44 88.208868 
L 839.204 88.208868 
" clip-path="url(#pe4a89ba839)" style="fill: none; stroke-dasharray: 2.96,1.28; stroke-dashoffset: 0; stroke: #b0b0b0; stroke-opacity: 0.7; stroke-width: 0.8"/>
     </g>
     <g id="line2d_30">
      <g>
       <use xlink:href="#m152e984df3" x="50.44" y="88.208868" style="stroke: #000000; stroke-width: 0.8"/>
      </g>
     </g>
     <g id="text_16">
      <!-- 4000 -->
      <g transform="translate(23.44 91.646368) scale(0.1 -0.1)">
       <defs>
        <path id="SimHei-34" d="M 2000 1100 
L 75 1100 
L 75 1525 
L 2100 4450 
L 2475 4450 
L 2475 1525 
L 3075 1525 
L 3075 1100 
L 2475 1100 
L 2475 150 
L 2000 150 
L 2000 1100 
z
M 2000 1525 
L 2000 3500 
L 600 1525 
L 2000 1525 
z
" transform="scale(0.015625)"/>
       </defs>
       <use xlink:href="#SimHei-34"/>
       <use xlink:href="#SimHei-30" x="50"/>
       <use xlink:href="#SimHei-30" x="100"/>
       <use xlink:href="#SimHei-30" x="150"/>
      </g>
     </g>
    </g>
    <g id="text_17">
     <!-- 材料去除率 MRR (mm$^3$/s) -->
     <g transform="translate(17.94 326.756132) rotate(-90) scale(0.12 -0.12)">
      <defs>
       <path id="SimHei-6750" d="M 4675 3750 
L 4675 4300 
Q 4675 4750 4650 5175 
L 5200 5175 
Q 5150 4750 5150 4275 
L 5150 3750 
Q 5650 3750 6100 3775 
L 6100 3300 
Q 5650 3325 5150 3325 
L 5150 125 
Q 5150 -250 4962 -375 
Q 4775 -500 4225 -625 
Q 4150 -325 4000 -50 
Q 4425 -50 4550 0 
Q 4675 50 4675 325 
L 4675 2675 
Q 4325 2000 3887 1412 
Q 3450 825 2800 225 
Q 2675 400 2400 625 
Q 2950 975 3512 1675 
Q 4075 2375 4500 3325 
L 3650 3325 
Q 3350 3325 2950 3300 
L 2950 3775 
Q 3350 3750 3650 3750 
L 4675 3750 
z
M 2200 2700 
Q 2650 2125 2850 1825 
Q 2625 1675 2450 1550 
Q 2100 2150 1925 2325 
L 1925 425 
Q 1925 -100 1950 -625 
L 1425 -625 
Q 1450 -75 1450 425 
L 1450 2175 
Q 1275 1800 1037 1400 
Q 800 1000 550 650 
Q 475 825 225 1100 
Q 525 1425 875 2062 
Q 1225 2700 1400 3325 
Q 875 3325 425 3300 
L 425 3775 
Q 925 3750 1450 3750 
L 1450 4350 
Q 1450 4725 1425 5175 
L 1950 5175 
Q 1925 4775 1925 4350 
L 1925 3750 
Q 2300 3750 2725 3775 
L 2725 3300 
Q 2300 3325 1925 3325 
L 1925 2475 
Q 2125 2600 2200 2700 
z
" transform="scale(0.015625)"/>
       <path id="SimHei-6599" d="M 1450 4400 
Q 1450 4800 1425 5100 
L 1925 5100 
Q 1900 4850 1900 4375 
L 1900 3075 
Q 2300 3075 2800 3100 
L 2800 2650 
Q 2300 2675 1900 2675 
L 1900 375 
Q 1900 -25 1925 -650 
L 1425 -650 
Q 1450 -25 1450 375 
L 1450 1875 
Q 1225 1300 600 475 
Q 425 650 225 800 
Q 600 1225 887 1712 
Q 1175 2200 1350 2675 
Q 875 2675 350 2650 
L 350 3100 
Q 875 3075 1450 3075 
L 1450 4400 
z
M 4800 4325 
Q 4800 4750 4775 5050 
L 5300 5050 
Q 5275 4750 5275 4325 
L 5275 1650 
Q 5525 1700 6125 1850 
L 6150 1400 
Q 5625 1300 5275 1225 
L 5275 325 
Q 5275 -50 5300 -650 
L 4775 -650 
Q 4800 125 4800 1125 
Q 3175 850 2750 725 
L 2600 1225 
Q 3700 1350 4800 1550 
L 4800 4325 
z
M 3350 3175 
Q 4025 2600 4450 2150 
L 4075 1775 
Q 3675 2300 3050 2800 
Q 3300 3025 3350 3175 
z
M 3550 4575 
Q 4150 4000 4575 3500 
Q 4375 3375 4175 3200 
Q 3825 3650 3250 4250 
Q 3475 4450 3550 4575 
z
M 750 4600 
Q 900 4400 1300 3625 
Q 1100 3525 875 3375 
Q 800 3600 350 4400 
Q 550 4475 750 4600 
z
M 3000 4350 
Q 2825 4075 2350 3300 
Q 2225 3425 1975 3550 
Q 2300 3925 2575 4600 
Q 2800 4450 3000 4350 
z
M 2325 2400 
Q 2650 2025 2975 1600 
Q 2800 1450 2600 1275 
Q 2300 1775 1975 2125 
Q 2175 2250 2325 2400 
z
" transform="scale(0.015625)"/>
       <path id="SimHei-53bb" d="M 3325 1625 
Q 3050 1450 2725 1037 
Q 2400 625 1775 25 
Q 2500 100 3125 162 
Q 3750 225 4500 325 
Q 3950 975 3725 1150 
Q 3950 1250 4200 1450 
Q 4500 1125 4900 662 
Q 5300 200 5750 -275 
Q 5450 -425 5200 -600 
Q 5000 -300 4750 -25 
Q 3025 -200 2262 -337 
Q 1500 -475 1175 -600 
Q 1075 -325 900 0 
Q 1200 75 1812 700 
Q 2425 1325 2675 1975 
L 1450 1975 
Q 750 1975 250 1950 
L 250 2400 
Q 775 2375 1450 2375 
L 2975 2375 
L 2975 3550 
L 2075 3550 
Q 1450 3550 975 3525 
L 975 3975 
Q 1450 3950 2050 3950 
L 2975 3950 
L 2975 4450 
Q 2975 4825 2950 5175 
L 3550 5175 
Q 3500 4850 3500 4500 
L 3500 3950 
L 4250 3950 
Q 4875 3950 5425 3975 
L 5425 3525 
Q 4875 3550 4275 3550 
L 3500 3550 
L 3500 2375 
L 5025 2375 
Q 5625 2375 6175 2400 
L 6175 1950 
Q 5625 1975 5025 1975 
L 2850 1975 
Q 3125 1775 3325 1625 
z
" transform="scale(0.015625)"/>
       <path id="SimHei-9664" d="M 4325 2850 
L 4325 2100 
L 4900 2100 
Q 5250 2100 5725 2125 
L 5725 1675 
Q 5275 1700 4925 1700 
L 4325 1700 
L 4325 75 
Q 4325 -375 4125 -475 
Q 3925 -575 3450 -675 
Q 3425 -400 3250 -75 
Q 3650 -75 3775 -50 
Q 3900 -25 3900 250 
L 3900 1700 
L 3425 1700 
Q 2975 1700 2550 1675 
L 2550 2125 
Q 2950 2100 3450 2100 
L 3900 2100 
L 3900 2850 
L 3625 2850 
Q 3375 2850 3100 2825 
L 3100 3200 
Q 2800 2825 2625 2675 
Q 2450 2850 2200 3000 
Q 2850 3500 3262 4125 
Q 3675 4750 3875 5300 
Q 4100 5175 4425 5050 
Q 4375 4975 4275 4850 
Q 4625 4275 5025 3925 
Q 5425 3575 6200 3250 
Q 5975 3075 5825 2750 
Q 5525 2900 5125 3225 
L 5125 2825 
Q 4800 2850 4525 2850 
L 4325 2850 
z
M 2500 4850 
Q 2350 4475 1800 2950 
Q 2175 2425 2275 2150 
Q 2375 1875 2375 1550 
Q 2375 1225 2150 1000 
Q 1925 775 1450 675 
Q 1375 950 1225 1225 
Q 1725 1275 1850 1437 
Q 1975 1600 1862 1975 
Q 1750 2350 1300 2950 
Q 1650 3625 1875 4450 
L 1025 4450 
L 1025 -625 
L 550 -625 
Q 575 -25 575 925 
L 575 3800 
Q 575 4375 550 4850 
L 2500 4850 
z
M 5050 3275 
Q 4375 3875 4025 4500 
Q 3600 3775 3150 3275 
L 5050 3275 
z
M 5050 1250 
Q 5275 975 5512 687 
Q 5750 400 6075 100 
Q 5800 0 5600 -225 
Q 5425 50 5137 412 
Q 4850 775 4650 950 
L 5050 1250 
z
M 3525 975 
Q 3350 800 3100 462 
Q 2850 125 2550 -225 
Q 2350 -50 2150 75 
Q 2425 325 2650 612 
Q 2875 900 3075 1275 
Q 3275 1100 3525 975 
z
" transform="scale(0.015625)"/>
       <path id="SimHei-7387" d="M 3325 5150 
Q 3425 4900 3550 4525 
L 4800 4525 
Q 5250 4525 5800 4550 
L 5800 4125 
Q 5250 4175 4775 4175 
L 2800 4175 
Q 2975 4050 3300 3900 
Q 3075 3750 2875 3537 
Q 2675 3325 2475 3125 
L 3275 3125 
Q 3575 3425 3775 3775 
Q 4000 3600 4275 3425 
Q 3950 3250 3600 2875 
Q 3250 2500 2625 2000 
L 3850 2100 
Q 3725 2250 3600 2425 
Q 3750 2475 4000 2650 
Q 4250 2350 4700 1700 
Q 4475 1625 4225 1450 
Q 4175 1600 4025 1775 
Q 3700 1750 3425 1750 
L 3425 1050 
L 5150 1050 
Q 5675 1050 6100 1075 
L 6100 650 
Q 5700 675 5125 675 
L 3425 675 
L 3425 175 
Q 3425 -300 3450 -625 
L 2900 -625 
Q 2925 -300 2925 175 
L 2925 675 
L 1325 675 
Q 825 675 325 650 
L 325 1075 
Q 825 1050 1350 1050 
L 2925 1050 
L 2925 1700 
Q 2700 1675 2475 1637 
Q 2250 1600 2025 1525 
Q 1950 1775 1850 2000 
Q 2075 2025 2325 2200 
Q 2575 2375 2975 2800 
Q 2300 2725 2025 2625 
Q 1975 2875 1850 3175 
Q 2075 3175 2325 3487 
Q 2575 3800 2750 4175 
L 1700 4175 
Q 1150 4175 650 4125 
L 650 4550 
Q 1150 4525 1550 4525 
L 2975 4525 
Q 2900 4825 2800 5025 
Q 3025 5075 3325 5150 
z
M 1625 2575 
Q 1725 2400 1825 2200 
Q 1575 2050 1325 1862 
Q 1075 1675 800 1425 
Q 625 1675 475 1875 
Q 800 2025 1100 2212 
Q 1400 2400 1625 2575 
z
M 4850 2650 
Q 5125 2475 5337 2337 
Q 5550 2200 5875 1950 
Q 5675 1800 5500 1600 
Q 5300 1775 5062 1975 
Q 4825 2175 4575 2325 
Q 4725 2475 4850 2650 
z
M 5725 3525 
Q 5550 3450 5300 3262 
Q 5050 3075 4800 2825 
Q 4625 3050 4475 3175 
Q 4700 3325 4875 3487 
Q 5050 3650 5300 3925 
Q 5525 3700 5725 3525 
z
M 1050 3850 
Q 1425 3600 1775 3275 
Q 1575 3100 1425 2925 
Q 1075 3300 675 3525 
Q 875 3700 1050 3850 
z
" transform="scale(0.015625)"/>
       <path id="SimHei-4d" d="M 2925 125 
L 2425 125 
L 2425 3175 
L 2375 3175 
L 1775 125 
L 1375 125 
L 775 3175 
L 725 3175 
L 725 125 
L 225 125 
L 225 4400 
L 1000 4400 
L 1550 1575 
L 1600 1575 
L 2150 4400 
L 2925 4400 
L 2925 125 
z
" transform="scale(0.015625)"/>
       <path id="SimHei-52" d="M 3000 125 
L 2400 125 
L 1500 1975 
L 850 1975 
L 850 125 
L 275 125 
L 275 4400 
L 1525 4400 
Q 2125 4400 2500 4112 
Q 2875 3825 2875 3175 
Q 2875 2675 2625 2400 
Q 2375 2125 2050 2050 
L 3000 125 
z
M 2300 3175 
Q 2300 3525 2087 3725 
Q 1875 3925 1400 3925 
L 850 3925 
L 850 2450 
L 1550 2450 
Q 1850 2450 2075 2612 
Q 2300 2775 2300 3175 
z
" transform="scale(0.015625)"/>
       <path id="DejaVuSans-33" d="M 2597 2516 
Q 3050 2419 3304 2112 
Q 3559 1806 3559 1356 
Q 3559 666 3084 287 
Q 2609 -91 1734 -91 
Q 1441 -91 1130 -33 
Q 819 25 488 141 
L 488 750 
Q 750 597 1062 519 
Q 1375 441 1716 441 
Q 2309 441 2620 675 
Q 2931 909 2931 1356 
Q 2931 1769 2642 2001 
Q 2353 2234 1838 2234 
L 1294 2234 
L 1294 2753 
L 1863 2753 
Q 2328 2753 2575 2939 
Q 2822 3125 2822 3475 
Q 2822 3834 2567 4026 
Q 2313 4219 1838 4219 
Q 1578 4219 1281 4162 
Q 984 4106 628 3988 
L 628 4550 
Q 988 4650 1302 4700 
Q 1616 4750 1894 4750 
Q 2613 4750 3031 4423 
Q 3450 4097 3450 3541 
Q 3450 3153 3228 2886 
Q 3006 2619 2597 2516 
z
" transform="scale(0.015625)"/>
       <path id="SimHei-2f" d="M 3000 4550 
L 350 -175 
L 100 -25 
L 2750 4700 
L 3000 4550 
z
" transform="scale(0.015625)"/>
      </defs>
      <use xlink:href="#SimHei-6750" transform="translate(0 0.765625)"/>
      <use xlink:href="#SimHei-6599" transform="translate(100 0.765625)"/>
      <use xlink:href="#SimHei-53bb" transform="translate(200 0.765625)"/>
      <use xlink:href="#SimHei-9664" transform="translate(300 0.765625)"/>
      <use xlink:href="#SimHei-7387" transform="translate(400 0.765625)"/>
      <use xlink:href="#SimHei-20" transform="translate(500 0.765625)"/>
      <use xlink:href="#SimHei-4d" transform="translate(550 0.765625)"/>
      <use xlink:href="#SimHei-52" transform="translate(600 0.765625)"/>
      <use xlink:href="#SimHei-52" transform="translate(650 0.765625)"/>
      <use xlink:href="#SimHei-20" transform="translate(700 0.765625)"/>
      <use xlink:href="#SimHei-28" transform="translate(750 0.765625)"/>
      <use xlink:href="#SimHei-6d" transform="translate(800 0.765625)"/>
      <use xlink:href="#SimHei-6d" transform="translate(850 0.765625)"/>
      <use xlink:href="#DejaVuSans-33" transform="translate(900.957031 39.046875) scale(0.7)"/>
      <use xlink:href="#SimHei-2f" transform="translate(948.227539 0.765625)"/>
      <use xlink:href="#SimHei-73" transform="translate(998.227539 0.765625)"/>
      <use xlink:href="#SimHei-29" transform="translate(1048.227539 0.765625)"/>
     </g>
    </g>
   </g>
   <g id="line2d_31">
    <path d="M 86.292909 433.388878 
L 99.402486 433.388878 
L 99.724506 330.041983 
L 100.390928 330.041983 
L 109.96323 330.041983 
L 109.96323 433.388878 
L 110.957342 330.041983 
L 115.71212 330.041983 
L 115.827284 433.388878 
L 116.701727 330.041983 
L 118.216901 330.041983 
L 118.227102 433.388878 
L 119.213763 433.388878 
L 119.292602 433.388878 
L 119.363395 103.314739 
L 119.533499 433.388878 
L 120.664862 433.388878 
L 120.677659 330.041983 
L 121.657152 330.041983 
L 122.540066 330.041983 
L 122.731634 433.388878 
L 123.538229 330.041983 
L 127.057091 330.041983 
L 127.197625 433.388878 
L 128.045501 433.388878 
L 128.712085 433.388878 
L 128.724865 330.041983 
L 129.701805 330.041983 
L 132.197626 330.041983 
L 133.085757 433.388878 
L 133.187399 331.875615 
L 133.200194 331.875615 
L 133.200194 330.041983 
L 133.404362 433.388878 
L 134.193383 330.041983 
L 135.503147 330.041983 
L 135.513363 433.388878 
L 135.887256 433.388878 
L 138.391173 433.388878 
L 138.417418 330.041983 
L 139.3791 415.64729 
L 139.391904 415.64729 
L 139.391904 421.066285 
L 139.430277 330.041983 
L 140.383915 330.041983 
L 141.868178 330.041983 
L 142.045739 433.388878 
L 142.862536 433.388878 
L 146.455225 433.388878 
L 146.468037 330.041983 
L 147.406861 433.388878 
L 147.705286 433.388878 
L 147.730874 330.041983 
L 148.699834 433.388878 
L 148.712634 433.388878 
L 148.758902 420.98725 
L 149.698536 433.388878 
L 149.869542 433.388878 
L 149.933512 330.041983 
L 150.864454 330.041983 
L 152.16963 330.041983 
L 152.90766 433.388878 
L 153.168589 433.388878 
L 153.405296 433.388878 
L 153.405296 330.041983 
L 154.404675 330.041983 
L 156.004969 330.041983 
L 156.020411 433.388878 
L 156.999372 330.041983 
L 157.890722 330.041983 
L 158.012697 433.388878 
L 158.890179 349.861075 
L 158.901811 349.861075 
L 159.280905 433.388878 
L 158.950423 330.041983 
L 159.899495 330.041983 
L 160.140844 330.041983 
L 160.503649 433.388878 
L 161.070828 433.388878 
L 161.440957 433.388878 
L 161.492144 330.041983 
L 162.31454 433.388878 
L 163.669495 433.388878 
L 163.784662 330.041983 
L 164.667031 330.041983 
L 164.718301 330.041983 
L 164.72086 433.388878 
L 165.708445 330.041983 
L 166.060051 330.041983 
L 166.072847 433.388878 
L 167.054257 330.041983 
L 167.804281 330.041983 
L 167.817065 433.388878 
L 168.80413 330.041983 
L 169.320818 330.041983 
L 169.333611 433.388878 
L 170.317202 330.041983 
L 170.988273 330.041983 
L 170.995955 433.388878 
L 171.985881 330.041983 
L 172.779344 330.041983 
L 172.784474 433.388878 
L 173.778472 330.041983 
L 174.168559 330.041983 
L 174.188832 433.388878 
L 174.964478 433.388878 
L 175.475812 433.388878 
L 175.501391 330.041983 
L 176.471195 433.388878 
L 176.879997 433.388878 
L 176.892787 330.041983 
L 177.868187 330.041983 
L 177.913935 330.041983 
L 177.929282 433.388878 
L 178.901694 330.041983 
L 179.850525 330.041983 
L 179.85821 433.388878 
L 180.843707 330.041983 
L 181.733092 330.041983 
L 181.743318 433.388878 
L 182.722521 330.041983 
L 184.249093 330.041983 
L 184.256754 433.388878 
L 185.241324 330.041983 
L 187.122089 330.041983 
L 187.129756 433.388878 
L 188.110331 330.041983 
L 188.169442 330.041983 
L 188.450554 433.388878 
L 189.157083 330.041983 
L 190.313822 330.041983 
L 190.321638 433.388878 
L 191.304771 330.041983 
L 192.220787 330.041983 
L 192.231026 433.388878 
L 193.217296 330.041983 
L 194.313644 330.041983 
L 194.384816 433.388878 
L 195.311632 330.041983 
L 196.264664 330.041983 
L 196.278449 433.388878 
L 197.253281 330.041983 
L 197.946979 330.041983 
L 197.953099 433.388878 
L 198.940087 330.041983 
L 199.582042 330.041983 
L 199.597383 433.388878 
L 200.581412 330.041983 
L 201.094856 330.041983 
L 201.102556 433.388878 
L 202.089496 330.041983 
L 202.482779 330.041983 
L 202.575761 433.388878 
L 203.479001 330.041983 
L 203.961971 330.041983 
L 203.97988 433.388878 
L 204.960283 330.041983 
L 205.31157 330.041983 
L 205.325772 433.388878 
L 206.30255 433.388878 
L 206.48946 433.388878 
L 206.662659 330.041983 
L 207.483621 427.547789 
L 207.493293 427.547789 
L 207.493293 433.388878 
L 208.171887 330.041983 
L 208.490515 433.388878 
L 208.891931 433.388878 
L 209.752182 330.041983 
L 209.880182 433.388878 
L 210.402099 433.388878 
L 210.63351 374.978763 
L 211.390219 433.388878 
L 213.438065 433.388878 
L 213.501703 103.314739 
L 214.432876 379.131758 
L 214.765572 379.131758 
L 214.842348 433.388878 
L 215.495238 433.388878 
L 218.086593 433.388878 
L 218.099383 330.041983 
L 219.084216 433.388878 
L 219.152285 433.388878 
L 219.165081 330.041983 
L 220.125038 433.388878 
L 220.224495 433.388878 
L 220.224495 330.041983 
L 221.191382 433.388878 
L 221.39446 433.388878 
L 221.407256 330.041983 
L 222.38953 433.388878 
L 222.612711 433.388878 
L 222.625505 330.041983 
L 223.605355 433.388878 
L 223.975077 433.388878 
L 223.987873 330.041983 
L 224.972107 433.388878 
L 225.40615 433.388878 
L 225.418944 330.041983 
L 226.403099 433.388878 
L 226.95718 433.388878 
L 226.969976 330.041983 
L 227.946713 376.249671 
L 227.9595 376.249671 
L 228.010673 433.388878 
L 228.73129 330.041983 
L 228.952529 330.041983 
L 229.23656 330.041983 
L 229.241407 433.388878 
L 230.226516 363.960692 
L 230.238632 363.960692 
L 230.274911 330.041983 
L 230.36614 433.388878 
L 231.229338 387.517325 
L 231.24127 387.517325 
L 231.301198 330.041983 
L 231.430562 433.388878 
L 232.237595 433.388878 
L 232.496409 433.388878 
L 232.588505 330.041983 
L 233.487352 433.388878 
L 233.536871 433.388878 
L 233.637432 330.041983 
L 234.5339 330.041983 
L 234.585053 330.041983 
L 234.692066 433.388878 
L 235.376761 433.388878 
L 235.938944 433.388878 
L 235.975473 330.041983 
L 236.937554 433.388878 
L 237.764459 433.388878 
L 237.777271 378.580919 
L 238.319757 433.388878 
L 239.23083 433.388878 
L 239.571062 335.031829 
L 240.22742 433.388878 
L 242.43639 433.388878 
L 242.513155 330.041983 
L 243.370086 433.388878 
L 243.573176 433.388878 
L 243.585989 330.041983 
L 244.571408 433.388878 
L 247.940463 433.388878 
L 248.093594 416.681779 
L 248.940117 430.634633 
L 248.991311 430.653971 
L 248.991311 433.388878 
L 249.817416 417.777768 
L 249.983968 433.388878 
L 251.352933 433.388878 
L 251.404939 418.625449 
L 252.343164 427.872652 
L 252.39434 427.957756 
L 252.407134 433.388878 
L 253.130366 418.729362 
L 253.38535 433.388878 
L 256.718927 433.388878 
L 257.040947 329.834875 
L 257.70737 329.834875 
L 267.279672 329.834875 
L 267.279672 433.388878 
L 268.273784 329.834875 
L 273.028561 329.834875 
L 273.143725 433.388878 
L 274.018168 329.834875 
L 275.533342 329.834875 
L 275.543544 433.388878 
L 276.530205 433.388878 
L 276.609044 433.388878 
L 276.679837 88.243386 
L 276.84994 433.388878 
L 277.981304 433.388878 
L 277.994101 329.834875 
L 278.973594 329.834875 
L 279.856507 329.834875 
L 280.048076 433.388878 
L 280.85467 329.834875 
L 284.373532 329.834875 
L 284.514067 433.388878 
L 285.361942 433.388878 
L 286.028527 433.388878 
L 286.041306 329.834875 
L 287.018247 329.834875 
L 289.431678 329.834875 
L 289.442308 433.388878 
L 290.4209 414.763266 
L 290.433682 414.763266 
L 290.556623 329.834875 
L 290.772048 433.388878 
L 291.422956 329.834875 
L 292.838431 329.834875 
L 292.848675 433.388878 
L 293.22885 433.388878 
L 295.796728 433.388878 
L 295.816194 329.834875 
L 296.795811 433.388878 
L 297.167352 433.388878 
L 297.192958 329.834875 
L 298.039053 433.388878 
L 298.320352 433.388878 
L 298.34594 329.834875 
L 299.29673 433.388878 
L 300.145087 433.388878 
L 300.170666 329.834875 
L 301.144467 329.834875 
L 302.577564 329.834875 
L 302.755464 433.388878 
L 303.562511 433.388878 
L 303.654216 433.388878 
L 303.667004 329.834875 
L 304.643749 329.834875 
L 306.473809 329.834875 
L 306.490273 433.388878 
L 307.465396 329.834875 
L 309.292515 330.551468 
L 309.937923 433.388878 
L 309.56174 329.834875 
L 310.288053 433.388878 
L 310.518563 433.388878 
L 310.531356 329.834875 
L 311.50684 392.57022 
L 311.519634 392.57022 
L 311.859837 329.834875 
L 311.885862 433.388878 
L 312.513653 329.834875 
L 312.977891 329.834875 
L 312.990682 433.388878 
L 313.373961 433.388878 
L 314.954917 433.388878 
L 315.020993 329.834875 
L 315.95253 433.388878 
L 316.38937 433.388878 
L 316.402169 329.834875 
L 317.272261 433.388878 
L 317.715089 433.388878 
L 317.752329 421.590297 
L 318.135509 433.388878 
L 319.324401 433.388878 
L 319.51758 329.834875 
L 320.312152 329.834875 
L 320.433754 329.834875 
L 320.449106 433.388878 
L 321.42774 329.834875 
L 321.682304 329.834875 
L 321.695089 433.388878 
L 322.67773 329.834875 
L 323.40678 329.834875 
L 323.417017 433.388878 
L 324.395994 329.834875 
L 324.892435 329.834875 
L 324.902645 433.388878 
L 325.888594 329.834875 
L 326.53094 329.834875 
L 326.538604 433.388878 
L 327.527999 329.834875 
L 328.295243 329.834875 
L 328.313148 433.388878 
L 329.290287 329.834875 
L 329.615706 329.834875 
L 329.637118 433.388878 
L 330.412677 433.388878 
L 330.934074 433.388878 
L 330.946861 329.834875 
L 331.930253 433.388878 
L 332.289521 433.388878 
L 332.302328 329.834875 
L 333.28723 329.834875 
L 333.303492 329.834875 
L 333.316274 433.388878 
L 334.30202 329.834875 
L 335.185117 329.834875 
L 335.200477 433.388878 
L 336.179361 329.834875 
L 337.038219 329.834875 
L 337.048452 433.388878 
L 338.030888 329.834875 
L 339.524527 329.834875 
L 339.532211 433.388878 
L 340.518563 329.834875 
L 342.353452 329.834875 
L 342.368822 433.388878 
L 343.349082 329.834875 
L 343.375436 329.834875 
L 343.697501 433.388878 
L 344.365157 329.834875 
L 345.493995 329.834875 
L 345.499112 433.388878 
L 346.493477 329.834875 
L 347.404207 329.834875 
L 347.586264 433.388878 
L 348.402951 329.834875 
L 349.486873 329.834875 
L 349.567947 433.388878 
L 350.482561 329.834875 
L 351.449029 329.834875 
L 351.462381 433.388878 
L 352.440336 329.834875 
L 353.134018 329.834875 
L 353.140972 433.388878 
L 354.12635 329.834875 
L 354.768263 329.834875 
L 354.778505 433.388878 
L 355.757419 329.834875 
L 356.277711 329.834875 
L 356.290513 433.388878 
L 357.265514 329.834875 
L 357.673718 329.834875 
L 357.689611 433.388878 
L 358.66963 329.834875 
L 359.160423 329.834875 
L 359.170639 433.388878 
L 360.153431 329.834875 
L 360.502546 329.834875 
L 360.514772 433.388878 
L 361.496029 433.388878 
L 361.682952 433.388878 
L 361.856158 329.834875 
L 362.680212 433.388878 
L 363.244403 433.388878 
L 363.380797 329.834875 
L 364.238041 433.388878 
L 364.875878 433.388878 
L 364.97658 329.834875 
L 365.868297 433.388878 
L 368.623559 433.388878 
L 368.687196 88.243386 
L 369.618329 379.023026 
L 369.951024 379.023026 
L 370.0278 433.388878 
L 370.680703 433.388878 
L 373.239967 433.388878 
L 373.252754 329.834875 
L 374.236635 433.388878 
L 374.273765 433.388878 
L 374.286561 329.834875 
L 375.271606 433.388878 
L 375.309079 433.388878 
L 375.32187 329.834875 
L 376.300075 433.388878 
L 376.412718 433.388878 
L 376.425514 329.834875 
L 377.409423 433.388878 
L 377.546202 433.388878 
L 377.559014 329.834875 
L 378.545362 433.388878 
L 378.801315 433.388878 
L 378.814111 329.834875 
L 379.79623 433.388878 
L 380.128242 433.388878 
L 380.141055 329.834875 
L 381.115516 433.388878 
L 381.570813 433.388878 
L 381.583609 329.834875 
L 382.559081 433.388878 
L 383.112427 433.388878 
L 383.47217 329.834875 
L 384.11177 433.388878 
L 384.653077 433.388878 
L 384.665873 329.834875 
L 385.641256 433.388878 
L 385.753891 433.388878 
L 385.766689 329.834875 
L 386.753212 433.388878 
L 386.795523 433.388878 
L 386.808319 329.834875 
L 387.790703 433.388878 
L 387.845339 433.388878 
L 387.858146 329.834875 
L 388.803852 433.388878 
L 388.993449 433.388878 
L 388.993449 379.023026 
L 389.992482 433.388878 
L 392.940731 433.388878 
L 393.336043 329.834875 
L 393.930604 329.834875 
L 394.104412 329.834875 
L 394.114643 433.388878 
L 395.101279 433.388878 
L 395.252233 433.388878 
L 395.252233 389.656728 
L 395.681311 433.388878 
L 396.853317 433.388878 
L 396.915109 329.834875 
L 397.848425 433.388878 
L 398.12634 433.388878 
L 398.139134 329.834875 
L 398.987221 433.388878 
L 399.294256 433.388878 
L 399.319844 329.834875 
L 399.915805 433.388878 
L 402.970805 433.388878 
L 403.48845 413.008285 
L 403.966299 433.388878 
L 404.224208 433.388878 
L 405.206967 413.641388 
L 405.21975 424.052306 
L 405.232546 424.052306 
L 405.290827 412.000834 
L 405.363819 433.388878 
L 406.229295 433.388878 
L 406.486699 433.388878 
L 406.905701 411.589466 
L 407.481638 433.388878 
L 407.697888 433.388878 
L 408.684955 416.741536 
L 408.697747 417.928524 
L 408.736124 418.124112 
L 408.761702 412.811662 
L 408.852623 433.388878 
L 409.730877 433.388878 
L 412.585832 433.388878 
L 412.907852 329.834875 
L 413.574275 329.834875 
L 423.146576 329.834875 
L 423.146576 433.388878 
L 424.140689 329.834875 
L 428.895466 329.834875 
L 429.01063 433.388878 
L 429.885073 329.834875 
L 431.400247 329.834875 
L 431.410448 433.388878 
L 432.39711 433.388878 
L 432.475948 433.388878 
L 432.546742 88.243386 
L 432.716845 433.388878 
L 433.848209 433.388878 
L 433.861005 329.834875 
L 434.840498 329.834875 
L 435.723412 329.834875 
L 435.91498 433.388878 
L 436.721575 329.834875 
L 440.240437 329.834875 
L 440.380971 433.388878 
L 441.228847 433.388878 
L 441.895431 433.388878 
L 441.908211 329.834875 
L 442.885151 329.834875 
L 445.250598 329.834875 
L 445.260812 433.388878 
L 446.24772 433.388878 
L 446.260519 433.388878 
L 446.470028 329.834875 
L 447.24932 329.834875 
L 448.740138 329.834875 
L 448.750392 433.388878 
L 449.135978 433.388878 
L 451.738434 433.388878 
L 451.751246 329.834875 
L 452.735196 433.388878 
L 453.059721 433.388878 
L 453.072497 329.834875 
L 454.011862 433.388878 
L 454.124497 433.388878 
L 454.137309 329.834875 
L 454.60602 433.388878 
L 455.404913 433.388878 
L 455.830047 329.834875 
L 456.396766 329.834875 
L 456.538084 329.834875 
L 456.538084 433.388878 
L 457.53406 329.834875 
L 457.583312 329.834875 
L 457.593558 433.388878 
L 457.888878 433.388878 
L 458.8709 433.388878 
L 458.883676 329.834875 
L 459.868479 433.388878 
L 460.165412 433.388878 
L 460.191 329.834875 
L 461.163116 433.388878 
L 461.205491 433.388878 
L 461.218303 329.834875 
L 461.679539 433.388878 
L 462.476187 433.388878 
L 462.535306 329.834875 
L 463.474601 433.388878 
L 463.75947 433.388878 
L 463.772266 329.834875 
L 464.732963 433.388878 
L 465.027688 433.388878 
L 465.040475 329.834875 
L 466.023085 433.388878 
L 466.075683 433.388878 
L 466.088479 329.834875 
L 467.058695 433.388878 
L 467.090677 433.388878 
L 467.103476 329.834875 
L 468.076309 433.388878 
L 468.108299 433.388878 
L 468.121095 329.834875 
L 469.100659 433.388878 
L 469.126592 433.388878 
L 469.139389 329.834875 
L 470.063913 433.388878 
L 470.25351 433.388878 
L 470.266306 329.834875 
L 471.253088 433.388878 
L 471.438008 433.388878 
L 471.45082 329.834875 
L 472.4345 433.388878 
L 472.750716 433.388878 
L 472.763512 329.834875 
L 473.749373 433.388878 
L 474.1497 433.388878 
L 474.162494 329.834875 
L 475.143974 433.388878 
L 475.650471 433.388878 
L 475.663267 329.834875 
L 476.639952 419.707193 
L 476.652339 419.707193 
L 476.652339 433.388878 
L 477.342274 329.834875 
L 477.640569 329.834875 
L 477.719825 329.834875 
L 477.727323 433.388878 
L 478.71554 329.834875 
L 478.730065 329.834875 
L 478.740305 433.388878 
L 479.718187 425.622327 
L 479.730983 425.622327 
L 479.730983 433.388878 
L 480.314268 329.834875 
L 480.723692 329.834875 
L 480.776073 329.834875 
L 480.793972 433.388878 
L 481.767295 329.834875 
L 481.838591 329.834875 
L 481.851385 433.388878 
L 482.828159 329.834875 
L 483.060109 329.834875 
L 483.08312 433.388878 
L 484.051354 329.834875 
L 484.347456 329.834875 
L 484.360188 433.388878 
L 485.338689 329.834875 
L 485.8183 329.834875 
L 485.836199 433.388878 
L 486.816262 329.834875 
L 487.370891 329.834875 
L 487.382892 433.388878 
L 488.365981 329.834875 
L 489.198826 329.834875 
L 489.211608 433.388878 
L 490.189326 329.834875 
L 491.132649 329.834875 
L 491.140332 433.388878 
L 492.132452 329.834875 
L 493.470551 329.834875 
L 493.485887 433.388878 
L 494.463056 329.834875 
L 494.82752 329.834875 
L 494.832641 433.388878 
L 495.823528 329.834875 
L 495.944466 329.834875 
L 495.957607 433.388878 
L 496.943096 329.834875 
L 497.635192 329.834875 
L 497.637751 433.388878 
L 498.634818 329.834875 
L 499.482728 329.834875 
L 499.487852 433.388878 
L 500.47957 329.834875 
L 501.088021 329.834875 
L 501.103386 433.388878 
L 502.080457 329.834875 
L 502.815412 329.834875 
L 502.828205 433.388878 
L 503.804468 333.9061 
L 503.81694 333.9061 
L 503.81694 329.834875 
L 504.167867 433.388878 
L 504.811205 433.388878 
L 505.424585 433.388878 
L 505.437378 329.834875 
L 506.419806 433.388878 
L 506.738538 433.388878 
L 506.751344 329.834875 
L 507.726475 433.388878 
L 508.278883 433.388878 
L 509.152423 329.834875 
L 509.276152 329.834875 
L 509.442858 329.834875 
L 509.455646 433.388878 
L 510.414883 433.388878 
L 511.209836 433.388878 
L 511.229457 329.834875 
L 512.207277 427.897098 
L 512.245641 427.897098 
L 512.245641 433.388878 
L 512.569566 433.388878 
L 513.799316 433.388878 
L 513.811185 329.834875 
L 514.797122 329.834875 
L 515.564813 329.834875 
L 515.742515 433.388878 
L 516.544767 433.388878 
L 516.636448 433.388878 
L 516.649244 329.834875 
L 517.62584 329.834875 
L 518.009711 329.834875 
L 518.163226 433.388878 
L 519.000835 433.388878 
L 519.187492 433.388878 
L 519.187492 329.834875 
L 520.184621 390.336819 
L 520.197227 390.336819 
L 520.746781 433.388878 
L 520.37732 329.834875 
L 521.152431 433.388878 
L 521.324669 433.388878 
L 521.337474 329.834875 
L 522.320313 397.222383 
L 522.333107 397.222383 
L 522.500046 433.388878 
L 522.358708 396.75872 
L 523.052163 433.388878 
L 523.639578 433.388878 
L 523.699759 329.834875 
L 524.639368 433.388878 
L 525.068155 433.388878 
L 525.080954 329.834875 
L 525.93818 433.388878 
L 526.36772 433.388878 
L 526.404823 421.621726 
L 526.856088 433.388878 
L 529.318985 433.388878 
L 529.331769 329.834875 
L 530.315389 329.834875 
L 530.424635 329.834875 
L 530.440149 433.388878 
L 531.423257 329.834875 
L 532.252722 329.834875 
L 532.260407 433.388878 
L 533.241184 329.834875 
L 534.10404 329.834875 
L 534.119294 433.388878 
L 535.096946 329.834875 
L 535.991328 329.834875 
L 536.011139 433.388878 
L 536.980336 329.834875 
L 537.948468 329.834875 
L 537.961033 433.388878 
L 538.942109 329.834875 
L 539.499372 329.834875 
L 539.499372 433.388878 
L 540.442396 433.388878 
L 540.555025 433.388878 
L 540.58964 329.834875 
L 541.548588 433.388878 
L 542.074128 433.388878 
L 542.086924 329.834875 
L 543.069884 433.388878 
L 543.521034 433.388878 
L 543.533837 329.834875 
L 544.515832 433.388878 
L 544.917262 433.388878 
L 544.930058 329.834875 
L 545.916787 433.388878 
L 546.29735 433.388878 
L 546.310148 329.834875 
L 547.294787 433.388878 
L 547.719233 433.388878 
L 547.732029 329.834875 
L 548.710579 433.388878 
L 549.149852 433.388878 
L 549.162651 329.834875 
L 550.146625 433.388878 
L 550.659344 433.388878 
L 551.104406 379.023026 
L 551.654633 433.388878 
L 552.049941 433.388878 
L 552.116651 88.243386 
L 552.494572 433.388878 
L 555.184612 433.388878 
L 555.222974 356.341334 
L 556.173352 391.181043 
L 556.18615 391.181043 
L 556.18615 378.206244 
L 556.244528 433.388878 
L 557.182249 433.388878 
L 564.361042 433.388878 
L 564.876567 410.620071 
L 565.356286 433.388878 
L 565.611712 433.388878 
L 566.601645 425.186171 
L 566.614457 425.186171 
L 566.746958 409.235036 
L 566.618257 433.388878 
L 567.608841 433.388878 
L 567.965518 433.388878 
L 568.367557 410.016351 
L 568.954519 433.388878 
L 569.165772 433.388878 
L 569.197759 427.858265 
L 570.162749 427.897098 
L 570.175561 427.897098 
L 570.250099 408.349649 
L 570.197783 433.388878 
L 571.174834 433.388878 
L 574.35841 433.388878 
L 574.68043 398.663769 
L 575.346853 398.663769 
L 584.919154 398.663769 
L 584.919154 433.388878 
L 585.913267 398.663769 
L 590.68084 399.531896 
L 590.783208 433.388878 
L 591.069547 398.663769 
L 591.670444 398.663769 
L 593.172825 398.663769 
L 593.183026 433.388878 
L 594.169688 433.388878 
L 594.248526 433.388878 
L 594.31932 317.650089 
L 594.489423 433.388878 
L 595.620787 433.388878 
L 595.633583 398.663769 
L 596.613076 398.663769 
L 597.508771 399.254703 
L 597.687558 433.388878 
L 597.944529 398.663769 
L 598.506949 398.663769 
L 602.013015 398.663769 
L 602.153549 433.388878 
L 603.001425 433.388878 
L 603.668009 433.388878 
L 603.680789 398.663769 
L 604.657729 398.663769 
L 607.011689 399.444042 
L 607.019366 433.388878 
L 607.261165 398.663769 
L 608.00485 432.878125 
L 608.074049 433.388878 
L 608.263362 398.663769 
L 609.068758 398.663769 
L 610.522362 398.663769 
L 610.532582 433.388878 
L 610.922754 433.388878 
L 613.535546 433.388878 
L 613.548322 398.663769 
L 614.532548 433.388878 
L 614.8364 433.388878 
L 614.862006 398.663769 
L 615.833711 433.388878 
L 615.880379 433.388878 
L 615.893173 398.663769 
L 616.339182 433.388878 
L 617.144347 433.388878 
L 617.585985 398.663769 
L 618.135344 398.663769 
L 618.271511 398.663769 
L 618.276633 433.388878 
L 619.266436 398.663769 
L 619.327105 398.663769 
L 619.345009 433.388878 
L 619.636917 433.388878 
L 620.63318 433.388878 
L 620.645974 398.663769 
L 621.627705 433.388878 
L 621.924687 433.388878 
L 621.950275 398.663769 
L 622.911387 433.388878 
L 622.943363 433.388878 
L 622.956175 398.663769 
L 623.941889 433.388878 
L 624.243039 433.388878 
L 624.302799 398.663769 
L 625.238069 433.388878 
L 625.51789 433.388878 
L 625.530686 398.663769 
L 626.481469 433.388878 
L 626.776387 433.388878 
L 626.789181 398.663769 
L 627.771789 433.388878 
L 627.814075 433.388878 
L 627.826871 398.663769 
L 628.812471 413.065574 
L 628.825252 413.065574 
L 628.825252 398.663769 
L 629.210781 433.388878 
L 629.819163 412.553812 
L 629.831959 412.553812 
L 629.831959 398.663769 
L 630.296384 433.388878 
L 630.823462 399.760214 
L 630.83626 399.760214 
L 630.83626 398.663769 
L 631.323984 433.388878 
L 631.833816 433.388878 
L 631.911919 433.388878 
L 631.924715 398.663769 
L 632.910671 433.388878 
L 633.070387 433.388878 
L 633.083181 398.663769 
L 634.067405 433.388878 
L 634.363525 433.388878 
L 634.376321 398.663769 
L 635.358369 433.388878 
L 635.742639 433.388878 
L 635.755433 398.663769 
L 636.742238 433.388878 
L 637.223136 433.388878 
L 637.235932 398.663769 
L 638.211493 433.388878 
L 638.866502 433.388878 
L 638.879311 398.663769 
L 639.864557 399.531896 
L 640.246961 398.663769 
L 640.264866 433.388878 
L 641.242684 433.388878 
L 641.79189 433.388878 
L 641.804686 398.663769 
L 642.790422 398.663769 
L 643.282104 398.663769 
L 643.287237 433.388878 
L 644.277456 398.663769 
L 644.479521 398.663769 
L 644.494884 433.388878 
L 645.474457 398.663769 
L 645.718058 398.663769 
L 645.725726 433.388878 
L 646.713944 398.663769 
L 647.131789 398.663769 
L 647.144562 433.388878 
L 648.129845 398.663769 
L 648.640128 398.663769 
L 648.640128 433.388878 
L 649.634842 398.663769 
L 650.401512 398.663769 
L 650.421975 433.388878 
L 651.396821 398.663769 
L 652.225371 398.663769 
L 652.239511 433.388878 
L 653.21992 398.663769 
L 654.473001 398.663769 
L 654.493456 433.388878 
L 655.46149 398.663769 
L 655.835722 398.929329 
L 655.835722 408.082954 
L 655.848499 398.663769 
L 656.827157 398.663769 
L 656.861288 398.663769 
L 656.874982 433.388878 
L 657.857477 398.663769 
L 658.538327 398.663769 
L 658.546005 433.388878 
L 659.530065 398.663769 
L 659.700849 398.663769 
L 659.71107 433.388878 
L 660.69179 398.663769 
L 661.226722 398.663769 
L 661.226722 433.388878 
L 662.217658 398.663769 
L 662.966613 398.663769 
L 662.976838 433.388878 
L 663.963327 398.663769 
L 664.740977 398.663769 
L 664.746079 433.388878 
L 665.034937 433.388878 
L 665.9071 433.388878 
L 666.529457 398.663769 
L 666.904114 415.673082 
L 666.916596 415.673082 
L 667.016678 398.663769 
L 667.349998 433.388878 
L 667.904935 433.388878 
L 668.366405 433.388878 
L 668.482543 398.663769 
L 669.361872 433.388878 
L 669.797797 433.388878 
L 669.909272 398.663769 
L 670.659683 433.388878 
L 671.956571 433.388878 
L 671.982141 398.663769 
L 672.945663 427.819873 
L 672.971251 427.864148 
L 673.048033 433.388878 
L 673.346845 433.388878 
L 674.560584 433.388878 
L 674.573381 398.663769 
L 675.367703 433.388878 
L 677.800893 433.388878 
L 677.813686 398.663769 
L 678.796472 398.663769 
L 679.397883 399.531896 
L 679.50025 433.388878 
L 679.995181 398.663769 
L 680.394388 433.388878 
L 680.738737 433.388878 
L 680.749185 398.663769 
L 681.736361 398.663769 
L 681.876994 399.166849 
L 682.567898 433.388878 
L 682.175041 398.663769 
L 682.872056 433.388878 
L 683.135417 433.388878 
L 683.148213 398.663769 
L 684.132669 398.663769 
L 684.260564 398.663769 
L 684.541905 433.388878 
L 685.248318 433.388878 
L 685.26111 433.388878 
L 685.411018 398.663769 
L 686.252785 398.663769 
L 686.427463 398.663769 
L 686.442344 433.388878 
L 687.416703 401.085498 
L 687.44157 401.086279 
L 687.705334 433.388878 
L 687.529531 398.663769 
L 688.27207 433.388878 
L 688.641389 433.388878 
L 688.679767 398.663769 
L 689.506345 433.388878 
L 689.841835 433.388878 
L 689.86743 431.357945 
L 690.291641 433.388878 
L 691.732231 433.388878 
L 691.757816 398.663769 
L 692.731919 405.228116 
L 692.734476 405.228116 
L 692.739596 433.388878 
L 693.733333 433.388878 
L 693.890558 433.388878 
L 693.957268 317.650089 
L 694.393453 433.388878 
L 695.30847 433.388878 
L 695.30847 398.663769 
L 696.303841 433.388878 
L 696.867452 433.388878 
L 696.880242 398.663769 
L 697.860666 433.388878 
L 698.320987 433.388878 
L 698.333783 398.663769 
L 699.314759 433.388878 
L 699.795445 433.388878 
L 699.808253 398.663769 
L 700.790272 433.388878 
L 701.200301 433.388878 
L 701.213097 398.663769 
L 702.194831 433.388878 
L 702.603994 433.388878 
L 702.616798 398.663769 
L 703.596948 433.388878 
L 704.000657 433.388878 
L 704.013453 398.663769 
L 704.999198 433.388878 
L 705.386262 433.388878 
L 705.386262 398.663769 
L 706.37963 433.388878 
L 706.828366 433.388878 
L 706.841162 398.663769 
L 707.819034 433.388878 
L 708.301699 433.388878 
L 708.314503 398.663769 
L 709.294322 433.388878 
L 709.883814 433.388878 
L 709.89661 398.663769 
L 710.873958 398.663769 
L 710.897403 398.663769 
L 710.91528 433.388878 
L 711.891689 433.388878 
L 712.381061 433.388878 
L 712.480779 398.663769 
L 713.37776 433.388878 
L 713.581319 433.388878 
L 713.64133 398.663769 
L 714.579386 433.388878 
L 715.992283 433.388878 
L 716.005078 398.663769 
L 716.644479 433.388878 
L 717.336527 433.388878 
L 717.36212 398.663769 
L 718.328827 433.388878 
L 718.688901 433.388878 
L 718.696609 398.663769 
L 719.688624 433.388878 
L 719.808483 433.388878 
L 719.846863 399.983844 
L 720.43581 433.388878 
L 726.040978 433.388878 
L 727.040344 410.376877 
L 727.832709 410.319347 
L 727.832709 329.834875 
L 729.215741 330.177293 
L 729.260938 433.388878 
L 730.126758 378.95399 
L 730.257092 378.95399 
L 730.518579 331.698847 
L 730.905532 433.388878 
L 737.725591 433.388878 
L 738.724957 410.376877 
L 739.517322 410.319347 
L 739.517322 329.834875 
L 740.900354 329.868932 
L 740.900354 433.388878 
L 741.811811 378.907966 
L 741.942095 378.907966 
L 742.203348 331.675835 
L 742.590138 433.388878 
L 749.410198 433.388878 
L 750.409563 410.376877 
L 751.201928 410.319347 
L 751.201928 329.834875 
L 752.584961 329.974557 
L 752.844237 411.308863 
L 753.496497 378.89646 
L 753.626732 378.89646 
L 753.887903 331.675835 
L 754.274743 433.388878 
L 761.094802 433.388878 
L 762.094168 410.376877 
L 762.22263 410.376877 
L 762.22263 433.331291 
L 762.886533 329.834875 
L 764.269565 330.177293 
L 764.314762 433.388878 
L 765.181022 378.907966 
L 765.311306 378.907966 
L 765.572558 331.675835 
L 765.959349 433.388878 
L 772.779408 433.388878 
L 772.779408 423.033477 
L 773.778774 423.033477 
L 773.907236 423.033477 
L 774.571139 329.834875 
L 775.954171 329.868932 
L 775.954171 433.388878 
L 776.865628 378.907966 
L 776.995913 378.907966 
L 777.126372 348.808269 
L 777.643955 433.388878 
L 786.255746 433.332774 
L 786.255746 354.916517 
L 787.4319 354.916517 
L 787.638778 433.388878 
L 787.637847 354.557306 
L 788.420188 428.295758 
L 788.550314 428.295758 
L 789.07264 416.135055 
L 789.32856 433.388878 
L 803.351091 433.388878 
L 803.351091 433.388878 
" clip-path="url(#pe4a89ba839)" style="fill: none; stroke: #000000; stroke-width: 0.5; stroke-linecap: square"/>
   </g>
   <g id="patch_3">
    <path d="M 50.44 450.646152 
L 50.44 70.986111 
" style="fill: none; stroke: #000000; stroke-width: 0.8; stroke-linejoin: miter; stroke-linecap: square"/>
   </g>
   <g id="patch_4">
    <path d="M 839.204 450.646152 
L 839.204 70.986111 
" style="fill: none; stroke: #000000; stroke-width: 0.8; stroke-linejoin: miter; stroke-linecap: square"/>
   </g>
   <g id="patch_5">
    <path d="M 50.44 450.646152 
L 839.204 450.646152 
" style="fill: none; stroke: #000000; stroke-width: 0.8; stroke-linejoin: miter; stroke-linecap: square"/>
   </g>
   <g id="patch_6">
    <path d="M 50.44 70.986111 
L 839.204 70.986111 
" style="fill: none; stroke: #000000; stroke-width: 0.8; stroke-linejoin: miter; stroke-linecap: square"/>
   </g>
   <g id="text_18">
    <!-- 材料去除率 -->
    <g transform="translate(409.822 18.520312) scale(0.14 -0.14)">
     <use xlink:href="#SimHei-6750"/>
     <use xlink:href="#SimHei-6599" x="100"/>
     <use xlink:href="#SimHei-53bb" x="200"/>
     <use xlink:href="#SimHei-9664" x="300"/>
     <use xlink:href="#SimHei-7387" x="400"/>
    </g>
   </g>
  </g>
  <g id="axes_2">
   <g id="matplotlib.axis_3">
    <g id="xtick_7">
     <g id="line2d_32">
      <defs>
       <path id="mdf5ab4eb18" d="M 0 0 
L 0 -3.5 
" style="stroke: #000000; stroke-width: 0.8"/>
      </defs>
      <g>
       <use xlink:href="#mdf5ab4eb18" x="86.292909" y="70.986111" style="stroke: #000000; stroke-width: 0.8"/>
      </g>
     </g>
     <g id="text_19">
      <!-- N140 -->
      <g transform="translate(90.181996 63.279004) rotate(-45) scale(0.08 -0.08)">
       <defs>
        <path id="SimHei-4e" d="M 2850 125 
L 2225 125 
L 850 3225 
L 825 3225 
L 825 125 
L 250 125 
L 250 4400 
L 875 4400 
L 2250 1300 
L 2275 1300 
L 2275 4400 
L 2850 4400 
L 2850 125 
z
" transform="scale(0.015625)"/>
       </defs>
       <use xlink:href="#SimHei-4e"/>
       <use xlink:href="#SimHei-31" x="50"/>
       <use xlink:href="#SimHei-34" x="100"/>
       <use xlink:href="#SimHei-30" x="150"/>
      </g>
     </g>
    </g>
    <g id="xtick_8">
     <g id="line2d_33">
      <g>
       <use xlink:href="#mdf5ab4eb18" x="157.64908" y="70.986111" style="stroke: #000000; stroke-width: 0.8"/>
      </g>
     </g>
     <g id="text_20">
      <!-- N1050 -->
      <g transform="translate(161.538167 63.279004) rotate(-45) scale(0.08 -0.08)">
       <use xlink:href="#SimHei-4e"/>
       <use xlink:href="#SimHei-31" x="50"/>
       <use xlink:href="#SimHei-30" x="100"/>
       <use xlink:href="#SimHei-35" x="150"/>
       <use xlink:href="#SimHei-30" x="200"/>
      </g>
     </g>
    </g>
    <g id="xtick_9">
     <g id="line2d_34">
      <g>
       <use xlink:href="#mdf5ab4eb18" x="204.310527" y="70.986111" style="stroke: #000000; stroke-width: 0.8"/>
      </g>
     </g>
     <g id="text_21">
      <!-- N7090.17 -->
      <g transform="translate(208.199614 63.279004) rotate(-45) scale(0.08 -0.08)">
       <defs>
        <path id="SimHei-37" d="M 850 150 
Q 1300 2050 2425 3925 
L 275 3925 
L 275 4375 
L 2950 4375 
L 2950 3950 
Q 1775 2050 1400 150 
L 850 150 
z
" transform="scale(0.015625)"/>
        <path id="SimHei-39" d="M 800 75 
Q 1350 1000 1700 1750 
Q 1075 1650 662 1912 
Q 250 2175 162 2625 
Q 75 3075 175 3437 
Q 275 3800 487 4037 
Q 700 4275 1000 4375 
Q 1300 4475 1537 4475 
Q 1775 4475 2025 4375 
Q 2275 4275 2475 4075 
Q 2675 3875 2750 3662 
Q 2825 3450 2825 3112 
Q 2825 2775 2575 2250 
Q 2325 1725 1350 75 
L 800 75 
z
M 662 2875 
Q 700 2550 937 2337 
Q 1175 2125 1450 2150 
Q 1725 2175 1887 2300 
Q 2050 2425 2200 2725 
Q 2300 3100 2250 3362 
Q 2200 3625 1987 3800 
Q 1775 3975 1525 3975 
Q 1375 4000 1137 3900 
Q 900 3800 762 3500 
Q 625 3200 662 2875 
z
" transform="scale(0.015625)"/>
        <path id="SimHei-2e" d="M 1075 125 
L 500 125 
L 500 675 
L 1075 675 
L 1075 125 
z
" transform="scale(0.015625)"/>
       </defs>
       <use xlink:href="#SimHei-4e"/>
       <use xlink:href="#SimHei-37" x="50"/>
       <use xlink:href="#SimHei-30" x="100"/>
       <use xlink:href="#SimHei-39" x="150"/>
       <use xlink:href="#SimHei-30" x="200"/>
       <use xlink:href="#SimHei-2e" x="250"/>
       <use xlink:href="#SimHei-31" x="300"/>
       <use xlink:href="#SimHei-37" x="350"/>
      </g>
     </g>
    </g>
    <g id="xtick_10">
     <g id="line2d_35">
      <g>
       <use xlink:href="#mdf5ab4eb18" x="258.879196" y="70.986111" style="stroke: #000000; stroke-width: 0.8"/>
      </g>
     </g>
     <g id="text_22">
      <!-- N2250 -->
      <g transform="translate(262.768284 63.279004) rotate(-45) scale(0.08 -0.08)">
       <use xlink:href="#SimHei-4e"/>
       <use xlink:href="#SimHei-32" x="50"/>
       <use xlink:href="#SimHei-32" x="100"/>
       <use xlink:href="#SimHei-35" x="150"/>
       <use xlink:href="#SimHei-30" x="200"/>
      </g>
     </g>
    </g>
    <g id="xtick_11">
     <g id="line2d_36">
      <g>
       <use xlink:href="#mdf5ab4eb18" x="314.954917" y="70.986111" style="stroke: #000000; stroke-width: 0.8"/>
      </g>
     </g>
     <g id="text_23">
      <!-- N2940 -->
      <g transform="translate(318.844004 63.279004) rotate(-45) scale(0.08 -0.08)">
       <use xlink:href="#SimHei-4e"/>
       <use xlink:href="#SimHei-32" x="50"/>
       <use xlink:href="#SimHei-39" x="100"/>
       <use xlink:href="#SimHei-34" x="150"/>
       <use xlink:href="#SimHei-30" x="200"/>
      </g>
     </g>
    </g>
    <g id="xtick_12">
     <g id="line2d_37">
      <g>
       <use xlink:href="#mdf5ab4eb18" x="360.867707" y="70.986111" style="stroke: #000000; stroke-width: 0.8"/>
      </g>
     </g>
     <g id="text_24">
      <!-- N8760.10 -->
      <g transform="translate(364.756795 63.279004) rotate(-45) scale(0.08 -0.08)">
       <defs>
        <path id="SimHei-38" d="M 175 1375 
Q 175 1675 325 1962 
Q 475 2250 825 2425 
Q 525 2600 425 2812 
Q 325 3025 312 3300 
Q 300 3575 387 3775 
Q 475 3975 650 4150 
Q 825 4325 1037 4387 
Q 1250 4450 1500 4450 
Q 1750 4450 1950 4400 
Q 2150 4350 2375 4187 
Q 2600 4025 2700 3725 
Q 2800 3425 2687 3025 
Q 2575 2625 2100 2400 
Q 2525 2275 2700 2012 
Q 2875 1750 2875 1375 
Q 2875 1000 2762 775 
Q 2650 550 2512 400 
Q 2375 250 2137 162 
Q 1900 75 1537 75 
Q 1175 75 912 162 
Q 650 250 475 425 
Q 300 600 237 837 
Q 175 1075 175 1375 
z
M 687 1400 
Q 675 1100 787 875 
Q 900 650 1200 587 
Q 1500 525 1825 600 
Q 2150 675 2275 950 
Q 2400 1225 2362 1500 
Q 2325 1775 2050 1962 
Q 1775 2150 1450 2125 
Q 1125 2100 912 1900 
Q 700 1700 687 1400 
z
M 775 3350 
Q 775 3100 950 2875 
Q 1125 2650 1500 2650 
Q 1875 2650 2062 2875 
Q 2250 3100 2237 3412 
Q 2225 3725 2012 3875 
Q 1800 4025 1437 4000 
Q 1075 3975 925 3787 
Q 775 3600 775 3350 
z
" transform="scale(0.015625)"/>
        <path id="SimHei-36" d="M 250 1612 
Q 275 1975 387 2225 
Q 500 2475 725 2850 
L 1750 4450 
L 2325 4450 
L 1275 2800 
Q 1950 2975 2350 2750 
Q 2750 2525 2887 2237 
Q 3025 1950 3037 1612 
Q 3050 1275 2937 950 
Q 2825 625 2537 362 
Q 2250 100 1737 75 
Q 1225 50 862 262 
Q 500 475 362 862 
Q 225 1250 250 1612 
z
M 1025 787 
Q 1250 550 1625 525 
Q 2000 500 2250 775 
Q 2500 1050 2500 1575 
Q 2500 2100 2187 2300 
Q 1875 2500 1487 2450 
Q 1100 2400 925 2075 
Q 750 1750 775 1387 
Q 800 1025 1025 787 
z
" transform="scale(0.015625)"/>
       </defs>
       <use xlink:href="#SimHei-4e"/>
       <use xlink:href="#SimHei-38" x="50"/>
       <use xlink:href="#SimHei-37" x="100"/>
       <use xlink:href="#SimHei-36" x="150"/>
       <use xlink:href="#SimHei-30" x="200"/>
       <use xlink:href="#SimHei-2e" x="250"/>
       <use xlink:href="#SimHei-31" x="300"/>
       <use xlink:href="#SimHei-30" x="350"/>
      </g>
     </g>
    </g>
    <g id="xtick_13">
     <g id="line2d_38">
      <g>
       <use xlink:href="#mdf5ab4eb18" x="416.383649" y="70.986111" style="stroke: #000000; stroke-width: 0.8"/>
      </g>
     </g>
     <g id="text_25">
      <!-- N3940.2 -->
      <g transform="translate(420.272736 63.279004) rotate(-45) scale(0.08 -0.08)">
       <use xlink:href="#SimHei-4e"/>
       <use xlink:href="#SimHei-33" x="50"/>
       <use xlink:href="#SimHei-39" x="100"/>
       <use xlink:href="#SimHei-34" x="150"/>
       <use xlink:href="#SimHei-30" x="200"/>
       <use xlink:href="#SimHei-2e" x="250"/>
       <use xlink:href="#SimHei-32" x="300"/>
      </g>
     </g>
    </g>
    <g id="xtick_14">
     <g id="line2d_39">
      <g>
       <use xlink:href="#mdf5ab4eb18" x="470.002587" y="70.986111" style="stroke: #000000; stroke-width: 0.8"/>
      </g>
     </g>
     <g id="text_26">
      <!-- N2400.17 -->
      <g transform="translate(473.891674 63.279004) rotate(-45) scale(0.08 -0.08)">
       <use xlink:href="#SimHei-4e"/>
       <use xlink:href="#SimHei-32" x="50"/>
       <use xlink:href="#SimHei-34" x="100"/>
       <use xlink:href="#SimHei-30" x="150"/>
       <use xlink:href="#SimHei-30" x="200"/>
       <use xlink:href="#SimHei-2e" x="250"/>
       <use xlink:href="#SimHei-31" x="300"/>
       <use xlink:href="#SimHei-37" x="350"/>
      </g>
     </g>
    </g>
    <g id="xtick_15">
     <g id="line2d_40">
      <g>
       <use xlink:href="#mdf5ab4eb18" x="514.899494" y="70.986111" style="stroke: #000000; stroke-width: 0.8"/>
      </g>
     </g>
     <g id="text_27">
      <!-- N6770 -->
      <g transform="translate(518.788581 63.279004) rotate(-45) scale(0.08 -0.08)">
       <use xlink:href="#SimHei-4e"/>
       <use xlink:href="#SimHei-36" x="50"/>
       <use xlink:href="#SimHei-37" x="100"/>
       <use xlink:href="#SimHei-37" x="150"/>
       <use xlink:href="#SimHei-30" x="200"/>
      </g>
     </g>
    </g>
    <g id="xtick_16">
     <g id="line2d_41">
      <g>
       <use xlink:href="#mdf5ab4eb18" x="571.478288" y="70.986111" style="stroke: #000000; stroke-width: 0.8"/>
      </g>
     </g>
     <g id="text_28">
      <!-- N3310 -->
      <g transform="translate(575.367376 63.279004) rotate(-45) scale(0.08 -0.08)">
       <use xlink:href="#SimHei-4e"/>
       <use xlink:href="#SimHei-33" x="50"/>
       <use xlink:href="#SimHei-33" x="100"/>
       <use xlink:href="#SimHei-31" x="150"/>
       <use xlink:href="#SimHei-30" x="200"/>
      </g>
     </g>
    </g>
    <g id="xtick_17">
     <g id="line2d_42">
      <g>
       <use xlink:href="#mdf5ab4eb18" x="629.056468" y="70.986111" style="stroke: #000000; stroke-width: 0.8"/>
      </g>
     </g>
     <g id="text_29">
      <!-- N2720 -->
      <g transform="translate(632.945555 63.279004) rotate(-45) scale(0.08 -0.08)">
       <use xlink:href="#SimHei-4e"/>
       <use xlink:href="#SimHei-32" x="50"/>
       <use xlink:href="#SimHei-37" x="100"/>
       <use xlink:href="#SimHei-32" x="150"/>
       <use xlink:href="#SimHei-30" x="200"/>
      </g>
     </g>
    </g>
    <g id="xtick_18">
     <g id="line2d_43">
      <g>
       <use xlink:href="#mdf5ab4eb18" x="671.914077" y="70.986111" style="stroke: #000000; stroke-width: 0.8"/>
      </g>
     </g>
     <g id="text_30">
      <!-- N6820 -->
      <g transform="translate(675.803164 63.279004) rotate(-45) scale(0.08 -0.08)">
       <use xlink:href="#SimHei-4e"/>
       <use xlink:href="#SimHei-36" x="50"/>
       <use xlink:href="#SimHei-38" x="100"/>
       <use xlink:href="#SimHei-32" x="150"/>
       <use xlink:href="#SimHei-30" x="200"/>
      </g>
     </g>
    </g>
    <g id="xtick_19">
     <g id="line2d_44">
      <g>
       <use xlink:href="#mdf5ab4eb18" x="800.234919" y="70.986111" style="stroke: #000000; stroke-width: 0.8"/>
      </g>
     </g>
     <g id="text_31">
      <!-- N0 -->
      <g transform="translate(804.124006 63.279004) rotate(-45) scale(0.08 -0.08)">
       <use xlink:href="#SimHei-4e"/>
       <use xlink:href="#SimHei-30" x="50"/>
      </g>
     </g>
    </g>
    <g id="text_32">
     <!-- 指令行号 N -->
     <g transform="translate(419.822 32.7625) scale(0.1 -0.1)">
      <defs>
       <path id="SimHei-6307" d="M 5625 2225 
Q 5600 1925 5600 1350 
L 5600 300 
Q 5600 -225 5625 -525 
L 5125 -525 
L 5125 -125 
L 3300 -125 
L 3300 -625 
L 2800 -625 
Q 2825 -300 2825 300 
L 2825 1350 
Q 2825 1925 2800 2225 
L 5625 2225 
z
M 500 25 
Q 1075 -25 1175 37 
Q 1275 100 1275 275 
L 1275 1675 
Q 1050 1600 925 1537 
Q 800 1475 475 1275 
Q 400 1525 225 1800 
Q 625 1900 825 1975 
Q 1025 2050 1275 2125 
L 1275 3300 
L 1100 3300 
Q 775 3300 450 3275 
L 450 3725 
Q 750 3700 1100 3700 
L 1275 3700 
L 1275 4450 
Q 1275 4800 1250 5125 
L 1775 5125 
Q 1750 4850 1750 4450 
L 1750 3700 
Q 2075 3700 2425 3725 
L 2425 3275 
Q 2050 3300 1750 3300 
L 1750 2325 
Q 1850 2350 2025 2425 
L 2375 2575 
Q 2350 2300 2375 2100 
Q 2225 2050 2062 1987 
Q 1900 1925 1750 1850 
L 1750 100 
Q 1725 -200 1575 -337 
Q 1425 -475 675 -525 
Q 625 -250 500 25 
z
M 3325 5025 
Q 3300 4675 3300 4125 
Q 4125 4275 4512 4412 
Q 4900 4550 5225 4725 
Q 5325 4475 5575 4250 
Q 5450 4225 5237 4175 
Q 5025 4125 4725 4050 
Q 4425 3975 4037 3887 
Q 3650 3800 3300 3725 
L 3300 3175 
Q 3275 2925 3700 2925 
L 4925 2925 
Q 5300 2925 5387 3087 
Q 5475 3250 5550 3600 
Q 5750 3400 6050 3300 
Q 5825 2725 5700 2637 
Q 5575 2550 5275 2525 
L 3350 2525 
Q 3050 2525 2937 2687 
Q 2825 2850 2825 2975 
L 2825 4125 
Q 2825 4775 2800 5025 
L 3325 5025 
z
M 5125 275 
L 5125 875 
L 3300 875 
L 3300 275 
L 5125 275 
z
M 5125 1250 
L 5125 1825 
L 3300 1825 
L 3300 1250 
L 5125 1250 
z
" transform="scale(0.015625)"/>
       <path id="SimHei-4ee4" d="M 5375 2075 
L 5375 1550 
Q 4925 1325 4450 937 
Q 3975 550 3575 125 
L 4250 -325 
Q 4050 -550 3875 -775 
Q 3100 -125 1850 425 
L 2150 875 
Q 2400 775 3125 350 
Q 3800 1025 4450 1625 
L 2025 1625 
Q 1500 1625 975 1600 
L 975 2100 
Q 1525 2075 2025 2075 
L 5375 2075 
z
M 3375 4850 
Q 4450 3550 6200 2900 
Q 5950 2625 5800 2350 
Q 4150 3150 3100 4475 
Q 2075 3125 625 2225 
Q 400 2525 200 2700 
Q 875 2975 1675 3675 
Q 2475 4375 2950 5300 
Q 3275 5175 3550 5050 
Q 3475 5000 3375 4850 
z
M 2925 3600 
Q 3175 3350 3750 2725 
L 3300 2325 
Q 3050 2700 2550 3225 
Q 2750 3375 2925 3600 
z
" transform="scale(0.015625)"/>
       <path id="SimHei-53f7" d="M 5025 4925 
Q 5000 4550 5000 4075 
Q 5000 3600 5025 3175 
L 1400 3175 
Q 1425 3525 1425 4000 
Q 1425 4500 1400 4925 
L 5025 4925 
z
M 5175 2625 
Q 5650 2625 6025 2650 
L 6025 2200 
Q 5650 2225 5175 2225 
L 2450 2225 
Q 2350 1875 2225 1450 
L 5175 1450 
Q 5100 1050 5062 775 
Q 5025 500 4950 112 
Q 4875 -275 4650 -412 
Q 4425 -550 3225 -625 
Q 3125 -350 2975 -50 
Q 3875 -75 4112 -50 
Q 4350 -25 4425 212 
Q 4500 450 4575 1025 
L 1600 1025 
Q 1825 1625 1950 2225 
L 1350 2225 
Q 825 2225 375 2200 
L 375 2650 
Q 825 2625 1350 2625 
L 5175 2625 
z
M 4525 3575 
L 4525 4525 
L 1900 4525 
L 1900 3575 
L 4525 3575 
z
" transform="scale(0.015625)"/>
      </defs>
      <use xlink:href="#SimHei-6307"/>
      <use xlink:href="#SimHei-4ee4" x="100"/>
      <use xlink:href="#SimHei-884c" x="200"/>
      <use xlink:href="#SimHei-53f7" x="300"/>
      <use xlink:href="#SimHei-20" x="400"/>
      <use xlink:href="#SimHei-4e" x="450"/>
     </g>
    </g>
   </g>
   <g id="patch_7">
    <path d="M 50.44 450.646152 
L 50.44 70.986111 
" style="fill: none; stroke: #000000; stroke-width: 0.8; stroke-linejoin: miter; stroke-linecap: square"/>
   </g>
   <g id="patch_8">
    <path d="M 839.204 450.646152 
L 839.204 70.986111 
" style="fill: none; stroke: #000000; stroke-width: 0.8; stroke-linejoin: miter; stroke-linecap: square"/>
   </g>
   <g id="patch_9">
    <path d="M 50.44 450.646152 
L 839.204 450.646152 
" style="fill: none; stroke: #000000; stroke-width: 0.8; stroke-linejoin: miter; stroke-linecap: square"/>
   </g>
   <g id="patch_10">
    <path d="M 50.44 70.986111 
L 839.204 70.986111 
" style="fill: none; stroke: #000000; stroke-width: 0.8; stroke-linejoin: miter; stroke-linecap: square"/>
   </g>
  </g>
 </g>
 <defs>
  <clipPath id="pe4a89ba839">
   <rect x="50.44" y="70.986111" width="788.764" height="379.660041"/>
  </clipPath>
 </defs>
</svg>
