<?xml version="1.0" encoding="utf-8" standalone="no"?>
<!DOCTYPE svg PUBLIC "-//W3C//DTD SVG 1.1//EN"
  "http://www.w3.org/Graphics/SVG/1.1/DTD/svg11.dtd">
<svg xmlns:xlink="http://www.w3.org/1999/xlink" width="848.364375pt" height="487.742402pt" viewBox="0 0 848.364375 487.742402" xmlns="http://www.w3.org/2000/svg" version="1.1">
 <metadata>
  <rdf:RDF xmlns:dc="http://purl.org/dc/elements/1.1/" xmlns:cc="http://creativecommons.org/ns#" xmlns:rdf="http://www.w3.org/1999/02/22-rdf-syntax-ns#">
   <cc:Work>
    <dc:type rdf:resource="http://purl.org/dc/dcmitype/StillImage"/>
    <dc:date>2025-12-10T13:36:04.807908</dc:date>
    <dc:format>image/svg+xml</dc:format>
    <dc:creator>
     <cc:Agent>
      <dc:title>Matplotlib v3.9.2, https://matplotlib.org/</dc:title>
     </cc:Agent>
    </dc:creator>
   </cc:Work>
  </rdf:RDF>
 </metadata>
 <defs>
  <style type="text/css">*{stroke-linejoin: round; stroke-linecap: butt}</style>
 </defs>
 <g id="figure_1">
  <g id="patch_1">
   <path d="M 0 487.742402 
L 848.364375 487.742402 
L 848.364375 0 
L 0 0 
z
" style="fill: #ffffff"/>
  </g>
  <g id="axes_1">
   <g id="patch_2">
    <path d="M 44.121875 450.214277 
L 841.164375 450.214277 
L 841.164375 70.876736 
L 44.121875 70.876736 
z
" style="fill: #ffffff"/>
   </g>
   <g id="matplotlib.axis_1">
    <g id="xtick_1">
     <g id="line2d_1">
      <path d="M 68.812488 450.214277 
L 68.812488 70.876736 
" clip-path="url(#pbd72eb6a7a)" style="fill: none; stroke-dasharray: 2.96,1.28; stroke-dashoffset: 0; stroke: #b0b0b0; stroke-opacity: 0.7; stroke-width: 0.8"/>
     </g>
     <g id="line2d_2">
      <defs>
       <path id="m4b301a1020" d="M 0 0 
L 0 3.5 
" style="stroke: #000000; stroke-width: 0.8"/>
      </defs>
      <g>
       <use xlink:href="#m4b301a1020" x="68.812488" y="450.214277" style="stroke: #000000; stroke-width: 0.8"/>
      </g>
     </g>
     <g id="text_1">
      <!-- 0 -->
      <g transform="translate(66.312488 464.089277) scale(0.1 -0.1)">
       <defs>
        <path id="SimHei-30" d="M 225 2537 
Q 250 3200 412 3587 
Q 575 3975 875 4225 
Q 1175 4475 1612 4475 
Q 2050 4475 2375 4112 
Q 2700 3750 2800 3200 
Q 2900 2650 2862 1937 
Q 2825 1225 2612 775 
Q 2400 325 1975 150 
Q 1550 -25 1125 187 
Q 700 400 525 750 
Q 350 1100 275 1487 
Q 200 1875 225 2537 
z
M 750 2687 
Q 675 2000 800 1462 
Q 925 925 1212 700 
Q 1500 475 1800 612 
Q 2100 750 2237 1162 
Q 2375 1575 2375 2062 
Q 2375 2550 2337 2950 
Q 2300 3350 2112 3675 
Q 1925 4000 1612 4012 
Q 1300 4025 1062 3700 
Q 825 3375 750 2687 
z
" transform="scale(0.015625)"/>
       </defs>
       <use xlink:href="#SimHei-30"/>
      </g>
     </g>
    </g>
    <g id="xtick_2">
     <g id="line2d_3">
      <path d="M 198.115225 450.214277 
L 198.115225 70.876736 
" clip-path="url(#pbd72eb6a7a)" style="fill: none; stroke-dasharray: 2.96,1.28; stroke-dashoffset: 0; stroke: #b0b0b0; stroke-opacity: 0.7; stroke-width: 0.8"/>
     </g>
     <g id="line2d_4">
      <g>
       <use xlink:href="#m4b301a1020" x="198.115225" y="450.214277" style="stroke: #000000; stroke-width: 0.8"/>
      </g>
     </g>
     <g id="text_2">
      <!-- 5000 -->
      <g transform="translate(188.115225 464.089277) scale(0.1 -0.1)">
       <defs>
        <path id="SimHei-35" d="M 550 1325 
Q 725 650 1150 575 
Q 1575 500 1837 662 
Q 2100 825 2212 1087 
Q 2325 1350 2312 1675 
Q 2300 2000 2137 2225 
Q 1975 2450 1725 2525 
Q 1475 2600 1162 2525 
Q 850 2450 650 2175 
L 225 2225 
Q 275 2375 700 4375 
L 2675 4375 
L 2675 3925 
L 1075 3925 
Q 950 3250 825 2850 
Q 1200 3025 1525 3012 
Q 1850 3000 2150 2862 
Q 2450 2725 2587 2487 
Q 2725 2250 2787 2012 
Q 2850 1775 2837 1500 
Q 2825 1225 2725 937 
Q 2625 650 2425 462 
Q 2225 275 1937 162 
Q 1650 50 1275 75 
Q 900 100 562 350 
Q 225 600 100 1200 
L 550 1325 
z
" transform="scale(0.015625)"/>
       </defs>
       <use xlink:href="#SimHei-35"/>
       <use xlink:href="#SimHei-30" x="50"/>
       <use xlink:href="#SimHei-30" x="100"/>
       <use xlink:href="#SimHei-30" x="150"/>
      </g>
     </g>
    </g>
    <g id="xtick_3">
     <g id="line2d_5">
      <path d="M 327.417962 450.214277 
L 327.417962 70.876736 
" clip-path="url(#pbd72eb6a7a)" style="fill: none; stroke-dasharray: 2.96,1.28; stroke-dashoffset: 0; stroke: #b0b0b0; stroke-opacity: 0.7; stroke-width: 0.8"/>
     </g>
     <g id="line2d_6">
      <g>
       <use xlink:href="#m4b301a1020" x="327.417962" y="450.214277" style="stroke: #000000; stroke-width: 0.8"/>
      </g>
     </g>
     <g id="text_3">
      <!-- 10000 -->
      <g transform="translate(314.917962 464.089277) scale(0.1 -0.1)">
       <defs>
        <path id="SimHei-31" d="M 1400 3600 
Q 1075 3275 575 2975 
L 575 3450 
Q 1200 3875 1600 4450 
L 1900 4450 
L 1900 150 
L 1400 150 
L 1400 3600 
z
" transform="scale(0.015625)"/>
       </defs>
       <use xlink:href="#SimHei-31"/>
       <use xlink:href="#SimHei-30" x="50"/>
       <use xlink:href="#SimHei-30" x="100"/>
       <use xlink:href="#SimHei-30" x="150"/>
       <use xlink:href="#SimHei-30" x="200"/>
      </g>
     </g>
    </g>
    <g id="xtick_4">
     <g id="line2d_7">
      <path d="M 456.720699 450.214277 
L 456.720699 70.876736 
" clip-path="url(#pbd72eb6a7a)" style="fill: none; stroke-dasharray: 2.96,1.28; stroke-dashoffset: 0; stroke: #b0b0b0; stroke-opacity: 0.7; stroke-width: 0.8"/>
     </g>
     <g id="line2d_8">
      <g>
       <use xlink:href="#m4b301a1020" x="456.720699" y="450.214277" style="stroke: #000000; stroke-width: 0.8"/>
      </g>
     </g>
     <g id="text_4">
      <!-- 15000 -->
      <g transform="translate(444.220699 464.089277) scale(0.1 -0.1)">
       <use xlink:href="#SimHei-31"/>
       <use xlink:href="#SimHei-35" x="50"/>
       <use xlink:href="#SimHei-30" x="100"/>
       <use xlink:href="#SimHei-30" x="150"/>
       <use xlink:href="#SimHei-30" x="200"/>
      </g>
     </g>
    </g>
    <g id="xtick_5">
     <g id="line2d_9">
      <path d="M 586.023435 450.214277 
L 586.023435 70.876736 
" clip-path="url(#pbd72eb6a7a)" style="fill: none; stroke-dasharray: 2.96,1.28; stroke-dashoffset: 0; stroke: #b0b0b0; stroke-opacity: 0.7; stroke-width: 0.8"/>
     </g>
     <g id="line2d_10">
      <g>
       <use xlink:href="#m4b301a1020" x="586.023435" y="450.214277" style="stroke: #000000; stroke-width: 0.8"/>
      </g>
     </g>
     <g id="text_5">
      <!-- 20000 -->
      <g transform="translate(573.523435 464.089277) scale(0.1 -0.1)">
       <defs>
        <path id="SimHei-32" d="M 300 250 
Q 325 625 650 925 
Q 975 1225 1475 1862 
Q 1975 2500 2125 2850 
Q 2275 3200 2237 3450 
Q 2200 3700 2000 3862 
Q 1800 4025 1537 4000 
Q 1275 3975 1037 3800 
Q 800 3625 675 3275 
L 200 3350 
Q 400 3925 712 4187 
Q 1025 4450 1450 4475 
Q 1700 4500 1900 4462 
Q 2100 4425 2312 4287 
Q 2525 4150 2662 3875 
Q 2800 3600 2762 3212 
Q 2725 2825 2375 2287 
Q 2025 1750 1025 600 
L 2825 600 
L 2825 150 
L 300 150 
L 300 250 
z
" transform="scale(0.015625)"/>
       </defs>
       <use xlink:href="#SimHei-32"/>
       <use xlink:href="#SimHei-30" x="50"/>
       <use xlink:href="#SimHei-30" x="100"/>
       <use xlink:href="#SimHei-30" x="150"/>
       <use xlink:href="#SimHei-30" x="200"/>
      </g>
     </g>
    </g>
    <g id="xtick_6">
     <g id="line2d_11">
      <path d="M 715.326172 450.214277 
L 715.326172 70.876736 
" clip-path="url(#pbd72eb6a7a)" style="fill: none; stroke-dasharray: 2.96,1.28; stroke-dashoffset: 0; stroke: #b0b0b0; stroke-opacity: 0.7; stroke-width: 0.8"/>
     </g>
     <g id="line2d_12">
      <g>
       <use xlink:href="#m4b301a1020" x="715.326172" y="450.214277" style="stroke: #000000; stroke-width: 0.8"/>
      </g>
     </g>
     <g id="text_6">
      <!-- 25000 -->
      <g transform="translate(702.826172 464.089277) scale(0.1 -0.1)">
       <use xlink:href="#SimHei-32"/>
       <use xlink:href="#SimHei-35" x="50"/>
       <use xlink:href="#SimHei-30" x="100"/>
       <use xlink:href="#SimHei-30" x="150"/>
       <use xlink:href="#SimHei-30" x="200"/>
      </g>
     </g>
    </g>
    <g id="text_7">
     <!-- 行程 s (mm) -->
     <g transform="translate(409.643125 479.042402) scale(0.12 -0.12)">
      <defs>
       <path id="SimHei-884c" d="M 5300 3100 
Q 5775 3100 6175 3125 
L 6175 2625 
Q 5775 2650 5325 2650 
L 4975 2650 
L 4975 -75 
Q 5000 -375 4787 -487 
Q 4575 -600 3950 -675 
Q 3900 -375 3675 -75 
Q 4100 -125 4275 -112 
Q 4450 -100 4475 150 
L 4475 2650 
L 3475 2650 
Q 3000 2650 2575 2625 
L 2575 3125 
Q 3025 3100 3475 3100 
L 5300 3100 
z
M 2300 3400 
Q 2075 3275 1962 3075 
Q 1850 2875 1650 2575 
L 1650 325 
Q 1650 0 1675 -675 
L 1150 -675 
Q 1175 75 1175 450 
L 1175 2050 
Q 950 1675 575 1300 
Q 400 1550 250 1725 
Q 825 2275 1150 2775 
Q 1475 3275 1725 3725 
Q 1975 3575 2300 3400 
z
M 4875 4800 
Q 5300 4800 5750 4825 
L 5750 4350 
Q 5300 4375 4825 4375 
L 3900 4375 
Q 3350 4375 2950 4350 
L 2950 4825 
Q 3350 4800 3900 4800 
L 4875 4800 
z
M 2075 4925 
Q 1875 4900 1550 4387 
Q 1225 3875 650 3250 
Q 500 3450 325 3625 
Q 725 4025 1050 4487 
Q 1375 4950 1525 5300 
Q 1775 5150 2075 4925 
z
" transform="scale(0.015625)"/>
       <path id="SimHei-7a0b" d="M 5825 4975 
Q 5800 4425 5800 3975 
Q 5800 3550 5825 3125 
L 3025 3125 
Q 3050 3600 3050 4025 
Q 3050 4450 3025 4975 
L 5825 4975 
z
M 400 4825 
Q 825 4875 1362 4987 
Q 1900 5100 2275 5275 
Q 2450 4950 2625 4725 
Q 2450 4750 2262 4712 
Q 2075 4675 1850 4650 
L 1850 3425 
Q 2200 3425 2600 3450 
L 2600 2975 
Q 2200 3000 1850 3000 
L 1850 800 
Q 1850 250 1875 -675 
L 1375 -675 
Q 1400 250 1400 775 
L 1400 1925 
Q 1050 1225 625 600 
Q 450 850 225 1050 
Q 575 1400 850 1850 
Q 1125 2300 1350 3000 
Q 725 3000 425 2975 
L 425 3450 
Q 850 3425 1050 3425 
L 1400 3425 
L 1400 4550 
Q 1075 4475 575 4400 
Q 500 4625 400 4825 
z
M 5100 2500 
Q 5500 2500 5950 2525 
L 5950 2075 
Q 5500 2100 5100 2100 
L 4625 2100 
L 4625 1300 
L 4900 1300 
Q 5275 1300 5775 1325 
L 5775 850 
Q 5275 875 4975 875 
L 4625 875 
L 4625 0 
L 5225 0 
Q 5675 0 6175 25 
L 6175 -450 
Q 5775 -425 5225 -425 
L 3550 -425 
Q 3000 -425 2600 -475 
L 2600 25 
Q 3000 0 3550 0 
L 4150 0 
L 4150 875 
L 3800 875 
Q 3400 875 3050 825 
L 3050 1325 
Q 3400 1300 3800 1300 
L 4150 1300 
L 4150 2100 
L 3750 2100 
Q 3300 2100 2900 2075 
L 2900 2525 
Q 3300 2500 3750 2500 
L 5100 2500 
z
M 5275 3575 
L 5275 4550 
L 3500 4550 
L 3500 3575 
L 5275 3575 
z
M 2300 2400 
Q 2550 2025 2825 1525 
Q 2675 1425 2425 1225 
Q 2175 1775 1925 2125 
Q 2075 2250 2300 2400 
z
" transform="scale(0.015625)"/>
       <path id="SimHei-20" transform="scale(0.015625)"/>
       <path id="SimHei-73" d="M 2750 900 
Q 2750 500 2437 287 
Q 2125 75 1650 75 
Q 1050 75 725 312 
Q 400 550 400 1000 
L 900 1000 
Q 900 700 1112 600 
Q 1325 500 1625 500 
Q 1925 500 2075 612 
Q 2225 725 2225 900 
Q 2225 1025 2100 1150 
Q 1975 1275 1475 1350 
Q 900 1425 687 1637 
Q 475 1850 475 2200 
Q 475 2500 762 2737 
Q 1050 2975 1600 2975 
Q 2100 2975 2387 2750 
Q 2675 2525 2675 2150 
L 2175 2150 
Q 2175 2375 2012 2462 
Q 1850 2550 1600 2550 
Q 1275 2550 1137 2437 
Q 1000 2325 1000 2175 
Q 1000 2000 1125 1900 
Q 1250 1800 1650 1750 
Q 2300 1650 2525 1437 
Q 2750 1225 2750 900 
z
" transform="scale(0.015625)"/>
       <path id="SimHei-28" d="M 2975 -200 
L 2700 -475 
Q 2075 125 1762 775 
Q 1450 1425 1450 2250 
Q 1450 3075 1762 3725 
Q 2075 4375 2700 5000 
L 2975 4725 
Q 2400 4175 2112 3587 
Q 1825 3000 1825 2250 
Q 1825 1500 2112 912 
Q 2400 325 2975 -200 
z
" transform="scale(0.015625)"/>
       <path id="SimHei-6d" d="M 3050 125 
L 2550 125 
L 2550 2150 
Q 2550 2300 2500 2400 
Q 2450 2500 2300 2500 
Q 2125 2500 1975 2312 
Q 1825 2125 1825 1825 
L 1825 125 
L 1325 125 
L 1325 2150 
Q 1325 2300 1275 2400 
Q 1225 2500 1075 2500 
Q 900 2500 750 2312 
Q 600 2125 600 1825 
L 600 125 
L 100 125 
L 100 2925 
L 600 2925 
L 600 2550 
Q 725 2750 900 2862 
Q 1075 2975 1275 2975 
Q 1475 2975 1612 2862 
Q 1750 2750 1800 2550 
Q 1925 2750 2087 2862 
Q 2250 2975 2450 2975 
Q 2750 2975 2900 2812 
Q 3050 2650 3050 2350 
L 3050 125 
z
" transform="scale(0.015625)"/>
       <path id="SimHei-29" d="M 1675 2250 
Q 1675 1425 1362 775 
Q 1050 125 425 -475 
L 150 -200 
Q 725 325 1012 912 
Q 1300 1500 1300 2250 
Q 1300 3000 1012 3587 
Q 725 4175 150 4725 
L 425 5000 
Q 1050 4375 1362 3725 
Q 1675 3075 1675 2250 
z
" transform="scale(0.015625)"/>
      </defs>
      <use xlink:href="#SimHei-884c"/>
      <use xlink:href="#SimHei-7a0b" x="100"/>
      <use xlink:href="#SimHei-20" x="200"/>
      <use xlink:href="#SimHei-73" x="250"/>
      <use xlink:href="#SimHei-20" x="300"/>
      <use xlink:href="#SimHei-28" x="350"/>
      <use xlink:href="#SimHei-6d" x="400"/>
      <use xlink:href="#SimHei-6d" x="450"/>
      <use xlink:href="#SimHei-29" x="500"/>
     </g>
    </g>
   </g>
   <g id="matplotlib.axis_2">
    <g id="ytick_1">
     <g id="line2d_13">
      <path d="M 44.121875 432.971662 
L 841.164375 432.971662 
" clip-path="url(#pbd72eb6a7a)" style="fill: none; stroke-dasharray: 2.96,1.28; stroke-dashoffset: 0; stroke: #b0b0b0; stroke-opacity: 0.7; stroke-width: 0.8"/>
     </g>
     <g id="line2d_14">
      <defs>
       <path id="mce99e4bd53" d="M 0 0 
L -3.5 0 
" style="stroke: #000000; stroke-width: 0.8"/>
      </defs>
      <g>
       <use xlink:href="#mce99e4bd53" x="44.121875" y="432.971662" style="stroke: #000000; stroke-width: 0.8"/>
      </g>
     </g>
     <g id="text_8">
      <!-- 0.0 -->
      <g transform="translate(22.121875 436.409162) scale(0.1 -0.1)">
       <defs>
        <path id="SimHei-2e" d="M 1075 125 
L 500 125 
L 500 675 
L 1075 675 
L 1075 125 
z
" transform="scale(0.015625)"/>
       </defs>
       <use xlink:href="#SimHei-30"/>
       <use xlink:href="#SimHei-2e" x="50"/>
       <use xlink:href="#SimHei-30" x="100"/>
      </g>
     </g>
    </g>
    <g id="ytick_2">
     <g id="line2d_15">
      <path d="M 44.121875 364.358613 
L 841.164375 364.358613 
" clip-path="url(#pbd72eb6a7a)" style="fill: none; stroke-dasharray: 2.96,1.28; stroke-dashoffset: 0; stroke: #b0b0b0; stroke-opacity: 0.7; stroke-width: 0.8"/>
     </g>
     <g id="line2d_16">
      <g>
       <use xlink:href="#mce99e4bd53" x="44.121875" y="364.358613" style="stroke: #000000; stroke-width: 0.8"/>
      </g>
     </g>
     <g id="text_9">
      <!-- 0.5 -->
      <g transform="translate(22.121875 367.796113) scale(0.1 -0.1)">
       <use xlink:href="#SimHei-30"/>
       <use xlink:href="#SimHei-2e" x="50"/>
       <use xlink:href="#SimHei-35" x="100"/>
      </g>
     </g>
    </g>
    <g id="ytick_3">
     <g id="line2d_17">
      <path d="M 44.121875 295.745565 
L 841.164375 295.745565 
" clip-path="url(#pbd72eb6a7a)" style="fill: none; stroke-dasharray: 2.96,1.28; stroke-dashoffset: 0; stroke: #b0b0b0; stroke-opacity: 0.7; stroke-width: 0.8"/>
     </g>
     <g id="line2d_18">
      <g>
       <use xlink:href="#mce99e4bd53" x="44.121875" y="295.745565" style="stroke: #000000; stroke-width: 0.8"/>
      </g>
     </g>
     <g id="text_10">
      <!-- 1.0 -->
      <g transform="translate(22.121875 299.183065) scale(0.1 -0.1)">
       <use xlink:href="#SimHei-31"/>
       <use xlink:href="#SimHei-2e" x="50"/>
       <use xlink:href="#SimHei-30" x="100"/>
      </g>
     </g>
    </g>
    <g id="ytick_4">
     <g id="line2d_19">
      <path d="M 44.121875 227.132516 
L 841.164375 227.132516 
" clip-path="url(#pbd72eb6a7a)" style="fill: none; stroke-dasharray: 2.96,1.28; stroke-dashoffset: 0; stroke: #b0b0b0; stroke-opacity: 0.7; stroke-width: 0.8"/>
     </g>
     <g id="line2d_20">
      <g>
       <use xlink:href="#mce99e4bd53" x="44.121875" y="227.132516" style="stroke: #000000; stroke-width: 0.8"/>
      </g>
     </g>
     <g id="text_11">
      <!-- 1.5 -->
      <g transform="translate(22.121875 230.570016) scale(0.1 -0.1)">
       <use xlink:href="#SimHei-31"/>
       <use xlink:href="#SimHei-2e" x="50"/>
       <use xlink:href="#SimHei-35" x="100"/>
      </g>
     </g>
    </g>
    <g id="ytick_5">
     <g id="line2d_21">
      <path d="M 44.121875 158.519468 
L 841.164375 158.519468 
" clip-path="url(#pbd72eb6a7a)" style="fill: none; stroke-dasharray: 2.96,1.28; stroke-dashoffset: 0; stroke: #b0b0b0; stroke-opacity: 0.7; stroke-width: 0.8"/>
     </g>
     <g id="line2d_22">
      <g>
       <use xlink:href="#mce99e4bd53" x="44.121875" y="158.519468" style="stroke: #000000; stroke-width: 0.8"/>
      </g>
     </g>
     <g id="text_12">
      <!-- 2.0 -->
      <g transform="translate(22.121875 161.956968) scale(0.1 -0.1)">
       <use xlink:href="#SimHei-32"/>
       <use xlink:href="#SimHei-2e" x="50"/>
       <use xlink:href="#SimHei-30" x="100"/>
      </g>
     </g>
    </g>
    <g id="ytick_6">
     <g id="line2d_23">
      <path d="M 44.121875 89.906419 
L 841.164375 89.906419 
" clip-path="url(#pbd72eb6a7a)" style="fill: none; stroke-dasharray: 2.96,1.28; stroke-dashoffset: 0; stroke: #b0b0b0; stroke-opacity: 0.7; stroke-width: 0.8"/>
     </g>
     <g id="line2d_24">
      <g>
       <use xlink:href="#mce99e4bd53" x="44.121875" y="89.906419" style="stroke: #000000; stroke-width: 0.8"/>
      </g>
     </g>
     <g id="text_13">
      <!-- 2.5 -->
      <g transform="translate(22.121875 93.343919) scale(0.1 -0.1)">
       <use xlink:href="#SimHei-32"/>
       <use xlink:href="#SimHei-2e" x="50"/>
       <use xlink:href="#SimHei-35" x="100"/>
      </g>
     </g>
    </g>
    <g id="text_14">
     <!-- 功率 P (W) -->
     <g transform="translate(16.621875 290.545507) rotate(-90) scale(0.12 -0.12)">
      <defs>
       <path id="SimHei-529f" d="M 5675 275 
Q 5575 -200 5225 -312 
Q 4875 -425 4450 -475 
Q 4400 -175 4200 100 
Q 4725 75 4937 137 
Q 5150 200 5175 425 
Q 5300 1775 5375 3275 
L 4250 3275 
Q 4225 2550 4125 1925 
Q 4025 1300 3787 850 
Q 3550 400 3250 50 
Q 2950 -300 2550 -650 
Q 2375 -400 2100 -250 
Q 2650 100 2925 425 
Q 3200 750 3400 1162 
Q 3600 1575 3675 2075 
Q 3750 2575 3775 3275 
L 3400 3275 
Q 3100 3275 2800 3250 
L 2800 3725 
Q 3125 3700 3450 3700 
L 3775 3700 
L 3775 4575 
Q 3775 4875 3750 5175 
Q 4075 5100 4325 5075 
Q 4275 4900 4262 4525 
Q 4250 4150 4250 3700 
L 5900 3700 
Q 5875 3350 5850 3037 
Q 5825 2725 5675 275 
z
M 2900 1000 
Q 2475 900 2200 837 
Q 1925 775 1337 600 
Q 750 425 500 350 
Q 400 700 300 900 
Q 450 900 1375 1100 
L 1375 3900 
L 1175 3900 
Q 875 3900 450 3875 
L 450 4350 
Q 850 4325 1175 4325 
L 2100 4325 
Q 2450 4325 2725 4350 
L 2725 3875 
Q 2425 3900 2125 3900 
L 1875 3900 
L 1875 1200 
L 2375 1325 
Q 2575 1375 2850 1450 
L 2900 1000 
z
" transform="scale(0.015625)"/>
       <path id="SimHei-7387" d="M 3325 5150 
Q 3425 4900 3550 4525 
L 4800 4525 
Q 5250 4525 5800 4550 
L 5800 4125 
Q 5250 4175 4775 4175 
L 2800 4175 
Q 2975 4050 3300 3900 
Q 3075 3750 2875 3537 
Q 2675 3325 2475 3125 
L 3275 3125 
Q 3575 3425 3775 3775 
Q 4000 3600 4275 3425 
Q 3950 3250 3600 2875 
Q 3250 2500 2625 2000 
L 3850 2100 
Q 3725 2250 3600 2425 
Q 3750 2475 4000 2650 
Q 4250 2350 4700 1700 
Q 4475 1625 4225 1450 
Q 4175 1600 4025 1775 
Q 3700 1750 3425 1750 
L 3425 1050 
L 5150 1050 
Q 5675 1050 6100 1075 
L 6100 650 
Q 5700 675 5125 675 
L 3425 675 
L 3425 175 
Q 3425 -300 3450 -625 
L 2900 -625 
Q 2925 -300 2925 175 
L 2925 675 
L 1325 675 
Q 825 675 325 650 
L 325 1075 
Q 825 1050 1350 1050 
L 2925 1050 
L 2925 1700 
Q 2700 1675 2475 1637 
Q 2250 1600 2025 1525 
Q 1950 1775 1850 2000 
Q 2075 2025 2325 2200 
Q 2575 2375 2975 2800 
Q 2300 2725 2025 2625 
Q 1975 2875 1850 3175 
Q 2075 3175 2325 3487 
Q 2575 3800 2750 4175 
L 1700 4175 
Q 1150 4175 650 4125 
L 650 4550 
Q 1150 4525 1550 4525 
L 2975 4525 
Q 2900 4825 2800 5025 
Q 3025 5075 3325 5150 
z
M 1625 2575 
Q 1725 2400 1825 2200 
Q 1575 2050 1325 1862 
Q 1075 1675 800 1425 
Q 625 1675 475 1875 
Q 800 2025 1100 2212 
Q 1400 2400 1625 2575 
z
M 4850 2650 
Q 5125 2475 5337 2337 
Q 5550 2200 5875 1950 
Q 5675 1800 5500 1600 
Q 5300 1775 5062 1975 
Q 4825 2175 4575 2325 
Q 4725 2475 4850 2650 
z
M 5725 3525 
Q 5550 3450 5300 3262 
Q 5050 3075 4800 2825 
Q 4625 3050 4475 3175 
Q 4700 3325 4875 3487 
Q 5050 3650 5300 3925 
Q 5525 3700 5725 3525 
z
M 1050 3850 
Q 1425 3600 1775 3275 
Q 1575 3100 1425 2925 
Q 1075 3300 675 3525 
Q 875 3700 1050 3850 
z
" transform="scale(0.015625)"/>
       <path id="SimHei-50" d="M 2950 3100 
Q 2950 2500 2600 2150 
Q 2250 1800 1625 1800 
L 900 1800 
L 900 125 
L 325 125 
L 325 4400 
L 1625 4400 
Q 2250 4400 2600 4050 
Q 2950 3700 2950 3100 
z
M 2375 3100 
Q 2375 3575 2150 3750 
Q 1925 3925 1475 3925 
L 900 3925 
L 900 2275 
L 1475 2275 
Q 1925 2275 2150 2450 
Q 2375 2625 2375 3100 
z
" transform="scale(0.015625)"/>
       <path id="SimHei-57" d="M 3075 4400 
L 2525 75 
L 2025 75 
L 1575 3275 
L 1525 3275 
L 1075 75 
L 575 75 
L 25 4400 
L 575 4400 
L 850 1675 
L 900 1675 
L 1275 4400 
L 1825 4400 
L 2200 1675 
L 2250 1675 
L 2525 4400 
L 3075 4400 
z
" transform="scale(0.015625)"/>
      </defs>
      <use xlink:href="#SimHei-529f"/>
      <use xlink:href="#SimHei-7387" x="100"/>
      <use xlink:href="#SimHei-20" x="200"/>
      <use xlink:href="#SimHei-50" x="250"/>
      <use xlink:href="#SimHei-20" x="300"/>
      <use xlink:href="#SimHei-28" x="350"/>
      <use xlink:href="#SimHei-57" x="400"/>
      <use xlink:href="#SimHei-29" x="450"/>
     </g>
    </g>
    <g id="text_15">
     <!-- 1e6 -->
     <g transform="translate(44.121875 67.876736) scale(0.1 -0.1)">
      <defs>
       <path id="SimHei-65" d="M 2850 1075 
Q 2800 625 2450 350 
Q 2100 75 1625 75 
Q 1025 75 637 462 
Q 250 850 250 1525 
Q 250 2200 637 2587 
Q 1025 2975 1625 2975 
Q 2150 2975 2487 2637 
Q 2825 2300 2825 1525 
L 800 1525 
Q 800 975 1037 750 
Q 1275 525 1625 525 
Q 1900 525 2075 662 
Q 2250 800 2300 1075 
L 2850 1075 
z
M 2250 1925 
Q 2200 2275 2025 2412 
Q 1850 2550 1575 2550 
Q 1325 2550 1125 2412 
Q 925 2275 825 1925 
L 2250 1925 
z
" transform="scale(0.015625)"/>
       <path id="SimHei-36" d="M 250 1612 
Q 275 1975 387 2225 
Q 500 2475 725 2850 
L 1750 4450 
L 2325 4450 
L 1275 2800 
Q 1950 2975 2350 2750 
Q 2750 2525 2887 2237 
Q 3025 1950 3037 1612 
Q 3050 1275 2937 950 
Q 2825 625 2537 362 
Q 2250 100 1737 75 
Q 1225 50 862 262 
Q 500 475 362 862 
Q 225 1250 250 1612 
z
M 1025 787 
Q 1250 550 1625 525 
Q 2000 500 2250 775 
Q 2500 1050 2500 1575 
Q 2500 2100 2187 2300 
Q 1875 2500 1487 2450 
Q 1100 2400 925 2075 
Q 750 1750 775 1387 
Q 800 1025 1025 787 
z
" transform="scale(0.015625)"/>
      </defs>
      <use xlink:href="#SimHei-31"/>
      <use xlink:href="#SimHei-65" x="50"/>
      <use xlink:href="#SimHei-36" x="100"/>
     </g>
    </g>
   </g>
   <g id="line2d_25">
    <path d="M 80.35108 432.971662 
L 93.598248 432.971662 
L 93.923648 329.712554 
L 94.597065 329.712554 
L 104.269833 329.712554 
L 104.269833 432.971662 
L 105.261449 329.712554 
L 110.079061 329.712554 
L 110.195433 432.971662 
L 111.079054 329.712554 
L 112.61013 329.712554 
L 112.620439 432.971662 
L 113.604537 432.971662 
L 113.697122 432.971662 
L 113.768658 103.177902 
L 113.940547 432.971662 
L 115.083785 432.971662 
L 115.096716 329.712554 
L 116.073562 329.712554 
L 116.97867 329.712554 
L 117.172249 432.971662 
L 117.974378 329.712554 
L 121.543103 329.712554 
L 121.685112 432.971662 
L 122.541887 432.971662 
L 123.215468 432.971662 
L 123.228381 329.712554 
L 124.202664 329.712554 
L 126.737591 329.712554 
L 127.635044 432.971662 
L 127.724821 343.882543 
L 127.737753 343.882543 
L 127.750681 329.712554 
L 127.956993 432.971662 
L 128.728443 329.712554 
L 130.077805 329.712554 
L 130.088128 432.971662 
L 130.465945 432.971662 
L 132.996142 432.971662 
L 133.022663 329.712554 
L 133.994439 415.245145 
L 134.007376 415.245145 
L 134.007376 420.659536 
L 134.046152 329.712554 
L 134.99687 329.712554 
L 136.509641 329.712554 
L 136.689065 432.971662 
L 137.506389 432.971662 
L 141.144831 432.971662 
L 141.157778 329.712554 
L 142.106455 432.971662 
L 142.408012 432.971662 
L 142.433869 329.712554 
L 143.393626 432.971662 
L 143.425933 432.971662 
L 143.472686 420.580569 
L 144.422183 432.971662 
L 144.594983 432.971662 
L 144.659625 329.712554 
L 145.587407 329.712554 
L 146.919212 329.712554 
L 147.664988 432.971662 
L 147.915545 432.971662 
L 148.167847 432.971662 
L 148.167847 329.712554 
L 149.164784 329.712554 
L 150.794805 329.712554 
L 150.810409 432.971662 
L 151.78727 329.712554 
L 152.70035 329.712554 
L 152.823605 432.971662 
L 153.698787 352.820135 
L 153.710296 352.820135 
L 153.771173 329.712554 
L 154.105124 432.971662 
L 154.704331 432.971662 
L 154.717267 432.971662 
L 154.730206 329.712554 
L 155.714038 432.971662 
L 156.287846 432.971662 
L 156.339571 329.712554 
L 157.170599 432.971662 
L 158.539775 432.971662 
L 158.65615 329.712554 
L 159.535447 329.712554 
L 159.599588 329.712554 
L 159.602174 432.971662 
L 160.587343 329.712554 
L 160.95542 329.712554 
L 160.968351 432.971662 
L 161.949036 329.712554 
L 162.717957 329.712554 
L 162.730875 432.971662 
L 163.715626 329.712554 
L 164.250411 329.712554 
L 164.263338 432.971662 
L 165.244548 329.712554 
L 165.935367 329.712554 
L 165.94313 432.971662 
L 166.930856 329.712554 
L 167.745236 329.712554 
L 167.75042 432.971662 
L 168.742189 329.712554 
L 169.149031 329.712554 
L 169.169517 432.971662 
L 169.953304 432.971662 
L 170.470005 432.971662 
L 170.495853 329.712554 
L 171.462929 432.971662 
L 171.888928 432.971662 
L 171.901852 329.712554 
L 172.887489 329.712554 
L 172.933717 329.712554 
L 172.949226 432.971662 
L 173.931843 329.712554 
L 174.890632 329.712554 
L 174.898399 432.971662 
L 175.881545 329.712554 
L 176.792958 329.712554 
L 176.803292 432.971662 
L 177.792772 329.712554 
L 179.335366 329.712554 
L 179.343107 432.971662 
L 180.325531 329.712554 
L 182.238516 329.712554 
L 182.246263 432.971662 
L 183.23713 329.712554 
L 183.296861 329.712554 
L 183.580923 432.971662 
L 184.294868 329.712554 
L 185.463747 329.712554 
L 185.471646 432.971662 
L 186.45259 329.712554 
L 187.390727 329.712554 
L 187.401073 432.971662 
L 188.387166 329.712554 
L 189.505549 329.712554 
L 189.577469 432.971662 
L 190.502298 329.712554 
L 191.477047 329.712554 
L 191.490977 432.971662 
L 192.47604 329.712554 
L 193.177019 329.712554 
L 193.183203 432.971662 
L 194.168316 329.712554 
L 194.829243 329.712554 
L 194.844745 432.971662 
L 195.826524 329.712554 
L 196.357934 329.712554 
L 196.365715 432.971662 
L 197.350362 329.712554 
L 197.760424 329.712554 
L 197.854382 432.971662 
L 198.754589 329.712554 
L 199.255141 329.712554 
L 199.273238 432.971662 
L 200.251314 329.712554 
L 200.618905 329.712554 
L 200.633256 432.971662 
L 201.607779 432.971662 
L 201.809158 432.971662 
L 201.984175 329.712554 
L 202.80435 414.857433 
L 202.813752 414.857433 
L 202.823527 432.971662 
L 203.509243 329.712554 
L 203.813743 432.971662 
L 204.236844 432.971662 
L 205.106124 329.712554 
L 205.235467 432.971662 
L 205.762862 432.971662 
L 205.996702 374.611163 
L 206.761352 432.971662 
L 208.830692 432.971662 
L 208.894997 103.177902 
L 209.823014 378.76063 
L 210.172131 378.76063 
L 210.249713 432.971662 
L 210.909456 432.971662 
L 213.528009 432.971662 
L 213.540933 329.712554 
L 214.525664 432.971662 
L 214.604886 432.971662 
L 214.617816 329.712554 
L 215.587848 432.971662 
L 215.688349 432.971662 
L 215.688349 329.712554 
L 216.665384 432.971662 
L 216.870593 432.971662 
L 216.883523 329.712554 
L 217.865941 432.971662 
L 218.101631 432.971662 
L 218.114559 329.712554 
L 219.09654 432.971662 
L 219.478295 432.971662 
L 219.491226 329.712554 
L 220.472843 432.971662 
L 220.924388 432.971662 
L 220.937316 329.712554 
L 221.91887 432.971662 
L 222.491698 432.971662 
L 222.504628 329.712554 
L 223.491616 375.880992 
L 223.504537 375.880992 
L 223.556247 432.971662 
L 224.284428 329.712554 
L 224.495877 329.712554 
L 224.795001 329.712554 
L 224.799899 432.971662 
L 225.78314 369.952628 
L 225.795347 369.952628 
L 225.84425 329.712554 
L 225.936436 432.971662 
L 226.784634 409.185694 
L 226.796659 409.185694 
L 226.881308 329.712554 
L 227.01203 432.971662 
L 227.793678 432.971662 
L 228.089064 432.971662 
L 228.182126 329.712554 
L 229.077695 432.971662 
L 229.140446 432.971662 
L 229.242062 329.712554 
L 230.135027 329.712554 
L 230.199628 329.712554 
L 230.307765 432.971662 
L 230.999647 432.971662 
L 231.567729 432.971662 
L 231.604642 329.712554 
L 232.560932 432.971662 
L 233.412404 432.971662 
L 233.425351 378.210259 
L 233.97353 432.971662 
L 234.894166 432.971662 
L 235.237969 334.698162 
L 235.888285 432.971662 
L 238.13337 432.971662 
L 238.21094 329.712554 
L 239.076865 432.971662 
L 239.282087 432.971662 
L 239.295034 329.712554 
L 240.271401 432.971662 
L 243.695211 432.971662 
L 243.849949 416.278755 
L 244.692428 430.258401 
L 244.757088 430.239079 
L 244.757088 432.971662 
L 245.591863 417.373813 
L 245.747235 432.971662 
L 247.143497 432.971662 
L 247.196048 418.220773 
L 248.131192 427.506496 
L 248.195834 427.545153 
L 248.208762 432.971662 
L 248.939585 418.324598 
L 249.19344 432.971662 
L 252.56581 432.971662 
L 252.89121 329.505622 
L 253.564627 329.505622 
L 263.237395 329.505622 
L 263.237395 432.971662 
L 264.229011 329.505622 
L 269.046622 329.505622 
L 269.162995 432.971662 
L 270.046616 329.505622 
L 271.577692 329.505622 
L 271.588001 432.971662 
L 272.572099 432.971662 
L 272.664684 432.971662 
L 272.73622 88.119352 
L 272.908109 432.971662 
L 274.051347 432.971662 
L 274.064278 329.505622 
L 275.041123 329.505622 
L 275.946231 329.505622 
L 276.13981 432.971662 
L 276.94194 329.505622 
L 280.510665 329.505622 
L 280.652674 432.971662 
L 281.509449 432.971662 
L 282.183029 432.971662 
L 282.195943 329.505622 
L 283.170226 329.505622 
L 285.621899 329.505622 
L 285.63264 432.971662 
L 286.621502 414.361872 
L 286.63442 414.361872 
L 286.758651 329.505622 
L 286.976337 432.971662 
L 287.634076 329.505622 
L 289.064407 329.505622 
L 289.074759 432.971662 
L 289.458924 432.971662 
L 292.053753 432.971662 
L 292.073423 329.505622 
L 293.053168 432.971662 
L 293.438762 432.971662 
L 293.464637 329.505622 
L 294.319613 432.971662 
L 294.603864 432.971662 
L 294.62972 329.505622 
L 295.590489 432.971662 
L 296.44775 432.971662 
L 296.473598 329.505622 
L 297.444689 329.505622 
L 298.905758 329.505622 
L 299.085524 432.971662 
L 299.901042 432.971662 
L 299.99371 432.971662 
L 300.006632 329.505622 
L 300.993628 329.505622 
L 302.842895 329.505622 
L 302.859533 432.971662 
L 303.832491 329.505622 
L 305.691185 330.221607 
L 306.343367 432.971662 
L 305.963236 329.505622 
L 306.686746 432.971662 
L 306.930102 432.971662 
L 306.943029 329.505622 
L 307.928752 392.187677 
L 307.941679 392.187677 
L 308.285453 329.505622 
L 308.311751 432.971662 
L 308.933199 329.505622 
L 309.415242 329.505622 
L 309.428166 432.971662 
L 309.815468 432.971662 
L 311.413017 432.971662 
L 311.479787 329.505622 
L 312.412949 432.971662 
L 312.862526 432.971662 
L 312.87546 329.505622 
L 313.754683 432.971662 
L 314.202159 432.971662 
L 314.23979 421.183103 
L 314.626992 432.971662 
L 315.828362 432.971662 
L 316.023568 329.505622 
L 316.82648 329.505622 
L 316.949358 329.505622 
L 316.964871 432.971662 
L 317.94089 329.505622 
L 318.211012 329.505622 
L 318.223931 432.971662 
L 319.205845 329.505622 
L 319.953588 329.505622 
L 319.963932 432.971662 
L 320.953184 329.505622 
L 321.454835 329.505622 
L 321.465152 432.971662 
L 322.448748 329.505622 
L 323.110537 329.505622 
L 323.118281 432.971662 
L 324.105504 329.505622 
L 324.893357 329.505622 
L 324.91145 432.971662 
L 325.886182 329.505622 
L 326.227679 329.505622 
L 326.249316 432.971662 
L 327.033015 432.971662 
L 327.559884 432.971662 
L 327.572805 329.505622 
L 328.553585 432.971662 
L 328.929557 432.971662 
L 328.942499 329.505622 
L 329.925649 329.505622 
L 329.954171 329.505622 
L 329.967087 432.971662 
L 330.950569 329.505622 
L 331.855545 329.505622 
L 331.871066 432.971662 
L 332.847517 329.505622 
L 333.728095 329.505622 
L 333.738436 432.971662 
L 334.718605 329.505622 
L 336.240498 329.505622 
L 336.248263 432.971662 
L 337.232488 329.505622 
L 339.099115 329.505622 
L 339.114646 432.971662 
L 340.092631 329.505622 
L 340.131825 329.505622 
L 340.45727 432.971662 
L 341.119251 329.505622 
L 342.272619 329.505622 
L 342.27779 432.971662 
L 343.270072 329.505622 
L 344.20288 329.505622 
L 344.386848 432.971662 
L 345.201577 329.505622 
L 346.307405 329.505622 
L 346.38933 432.971662 
L 347.302087 329.505622 
L 348.290155 329.505622 
L 348.303646 432.971662 
L 349.279417 329.505622 
L 349.992828 329.505622 
L 349.999855 432.971662 
L 350.983373 329.505622 
L 351.644226 329.505622 
L 351.654575 432.971662 
L 352.643764 329.505622 
L 353.169516 329.505622 
L 353.182453 432.971662 
L 354.167687 329.505622 
L 354.580175 329.505622 
L 354.596235 432.971662 
L 355.574025 329.505622 
L 356.082484 329.505622 
L 356.092807 432.971662 
L 357.073297 329.505622 
L 357.438693 329.505622 
L 357.451047 432.971662 
L 358.430097 432.971662 
L 358.631488 432.971662 
L 358.806512 329.505622 
L 359.629821 417.463163 
L 359.639215 417.463163 
L 359.639215 432.971662 
L 360.347153 329.505622 
L 360.634182 432.971662 
L 361.063087 432.971662 
L 361.959685 329.505622 
L 362.05849 432.971662 
L 362.634748 432.971662 
L 362.634748 387.271229 
L 363.630524 432.971662 
L 365.644941 432.971662 
L 365.709246 88.119352 
L 366.637221 378.651991 
L 366.986338 378.651991 
L 367.06392 432.971662 
L 367.723676 432.971662 
L 370.3098 432.971662 
L 370.322721 329.505622 
L 371.306508 432.971662 
L 371.354449 432.971662 
L 371.367379 329.505622 
L 372.351677 432.971662 
L 372.400629 432.971662 
L 372.413554 329.505622 
L 373.310617 432.971662 
L 373.515851 432.971662 
L 373.528781 329.505622 
L 374.515235 432.971662 
L 374.661231 432.971662 
L 374.674178 329.505622 
L 375.660745 432.971662 
L 375.929517 432.971662 
L 375.942448 329.505622 
L 376.929053 432.971662 
L 377.270372 432.971662 
L 377.283318 329.505622 
L 378.268007 432.971662 
L 378.728083 432.971662 
L 378.741013 329.505622 
L 379.726723 432.971662 
L 380.285877 432.971662 
L 380.649395 329.505622 
L 381.282778 432.971662 
L 381.842697 432.971662 
L 381.855628 329.505622 
L 382.841248 432.971662 
L 382.955064 432.971662 
L 382.967997 329.505622 
L 383.954453 432.971662 
L 384.007629 432.971662 
L 384.020559 329.505622 
L 385.007519 432.971662 
L 385.068463 432.971662 
L 385.081405 329.505622 
L 386.037037 432.971662 
L 386.228623 432.971662 
L 386.228623 378.651991 
L 387.199996 432.971662 
L 390.217334 432.971662 
L 390.616795 329.505622 
L 391.204667 329.505622 
L 391.393229 329.505622 
L 391.403567 432.971662 
L 392.391298 432.971662 
L 392.553097 432.971662 
L 392.553097 389.27666 
L 392.986678 432.971662 
L 394.170985 432.971662 
L 394.233426 329.505622 
L 395.166395 432.971662 
L 395.457369 432.971662 
L 395.470297 329.505622 
L 396.327285 432.971662 
L 396.637543 432.971662 
L 396.6634 329.505622 
L 397.265616 432.971662 
L 400.352679 432.971662 
L 400.875757 412.608381 
L 401.345672 432.971662 
L 401.619237 432.971662 
L 402.612311 413.240947 
L 402.625229 413.240947 
L 402.77081 432.971662 
L 402.697051 411.601786 
L 403.61951 432.971662 
L 403.905475 432.971662 
L 404.328874 411.190767 
L 404.897934 432.971662 
L 405.129376 432.971662 
L 406.126803 416.338461 
L 406.139729 416.338461 
L 406.29623 432.971662 
L 406.204355 412.411925 
L 407.132014 432.971662 
L 410.068621 432.971662 
L 410.394021 329.505622 
L 411.067438 329.505622 
L 420.740206 329.505622 
L 420.740206 432.971662 
L 421.731822 329.505622 
L 426.549433 329.505622 
L 426.665806 432.971662 
L 427.549427 329.505622 
L 429.080503 329.505622 
L 429.090812 432.971662 
L 430.07491 432.971662 
L 430.167495 432.971662 
L 430.239031 88.119352 
L 430.41092 432.971662 
L 431.554158 432.971662 
L 431.567089 329.505622 
L 432.543935 329.505622 
L 433.449042 329.505622 
L 433.642621 432.971662 
L 434.444751 329.505622 
L 438.013476 329.505622 
L 438.155485 432.971662 
L 439.01226 432.971662 
L 439.68584 432.971662 
L 439.698754 329.505622 
L 440.673037 329.505622 
L 443.076221 329.505622 
L 443.086543 432.971662 
L 444.073604 432.971662 
L 444.096742 432.971662 
L 444.30845 329.505622 
L 445.095922 329.505622 
L 446.602385 329.505622 
L 446.612748 432.971662 
L 447.002381 432.971662 
L 449.632151 432.971662 
L 449.645097 329.505622 
L 450.628757 432.971662 
L 450.967305 432.971662 
L 450.980215 329.505622 
L 451.92944 432.971662 
L 452.043257 432.971662 
L 452.056204 329.505622 
L 452.529834 432.971662 
L 453.337111 432.971662 
L 453.766707 329.505622 
L 454.326441 329.505622 
L 454.482176 329.505622 
L 454.482176 432.971662 
L 455.47619 329.505622 
L 455.538374 329.505622 
L 455.548727 432.971662 
L 455.847147 432.971662 
L 456.839476 432.971662 
L 456.852386 329.505622 
L 457.836432 432.971662 
L 458.147574 432.971662 
L 458.173431 329.505622 
L 459.145249 432.971662 
L 459.198569 432.971662 
L 459.211516 329.505622 
L 459.677593 432.971662 
L 460.482603 432.971662 
L 460.542342 329.505622 
L 461.481366 432.971662 
L 461.779354 432.971662 
L 461.792284 329.505622 
L 462.763064 432.971662 
L 463.060883 432.971662 
L 463.073803 329.505622 
L 464.056306 432.971662 
L 464.119877 432.971662 
L 464.132807 329.505622 
L 465.113206 432.971662 
L 465.145524 432.971662 
L 465.158457 329.505622 
L 466.1415 432.971662 
L 466.173826 432.971662 
L 466.186756 329.505622 
L 467.17048 432.971662 
L 467.202807 432.971662 
L 467.215738 329.505622 
L 468.149965 432.971662 
L 468.341552 432.971662 
L 468.354483 329.505622 
L 469.341457 432.971662 
L 469.538483 432.971662 
L 469.551429 329.505622 
L 470.535272 432.971662 
L 470.864968 432.971662 
L 470.877898 329.505622 
L 471.853014 432.971662 
L 472.278634 432.971662 
L 472.291563 329.505622 
L 473.270415 432.971662 
L 473.795157 432.971662 
L 473.808088 329.505622 
L 474.795024 419.301599 
L 474.807541 419.301599 
L 474.807541 432.971662 
L 475.504717 329.505622 
L 475.806143 329.505622 
L 475.88623 329.505622 
L 475.893807 432.971662 
L 476.880816 329.505622 
L 476.907074 329.505622 
L 476.917421 432.971662 
L 477.905566 425.211709 
L 477.918496 425.211709 
L 477.918496 432.971662 
L 478.507904 329.505622 
L 478.91039 329.505622 
L 478.974555 329.505622 
L 478.992642 432.971662 
L 479.964372 329.505622 
L 480.048224 329.505622 
L 480.061153 432.971662 
L 481.048179 329.505622 
L 481.282563 329.505622 
L 481.305816 432.971662 
L 482.271974 329.505622 
L 482.583422 329.505622 
L 482.596288 432.971662 
L 483.572723 329.505622 
L 484.069703 329.505622 
L 484.08779 432.971662 
L 485.065705 329.505622 
L 485.638589 329.505622 
L 485.650716 432.971662 
L 486.631624 329.505622 
L 487.48571 329.505622 
L 487.498626 432.971662 
L 488.474103 329.505622 
L 489.439829 329.505622 
L 489.447593 432.971662 
L 490.437562 329.505622 
L 491.802269 329.505622 
L 491.817766 432.971662 
L 492.792692 329.505622 
L 493.17348 329.505622 
L 493.178655 432.971662 
L 494.167495 329.505622 
L 494.302149 329.505622 
L 494.315428 432.971662 
L 495.298646 329.505622 
L 496.010619 329.505622 
L 496.013205 432.971662 
L 497.004884 329.505622 
L 497.877546 329.505622 
L 497.882725 432.971662 
L 498.872221 329.505622 
L 499.499688 329.505622 
L 499.515214 432.971662 
L 500.49008 329.505622 
L 501.245209 329.505622 
L 501.258136 432.971662 
L 502.244646 333.573389 
L 502.257249 333.573389 
L 502.257249 329.505622 
L 502.611858 432.971662 
L 503.249002 432.971662 
L 503.881767 432.971662 
L 503.894694 329.505622 
L 504.876908 432.971662 
L 505.20951 432.971662 
L 505.22245 329.505622 
L 506.207816 432.971662 
L 506.766022 432.971662 
L 507.64873 329.505622 
L 507.761452 329.505622 
L 507.942214 329.505622 
L 507.955135 432.971662 
L 508.924441 432.971662 
L 509.727737 432.971662 
L 509.747564 329.505622 
L 510.7227 427.445747 
L 510.774413 427.484547 
L 510.78736 432.971662 
L 511.101738 432.971662 
L 512.344395 432.971662 
L 512.356389 329.505622 
L 513.339742 329.505622 
L 514.128422 329.505622 
L 514.307988 432.971662 
L 515.11866 432.971662 
L 515.211304 432.971662 
L 515.224234 329.505622 
L 516.21108 329.505622 
L 516.59898 329.505622 
L 516.754106 432.971662 
L 517.59537 432.971662 
L 517.789123 432.971662 
L 517.789123 329.505622 
L 518.783934 390.141377 
L 518.809456 389.956173 
L 519.364777 432.971662 
L 518.991438 329.505622 
L 519.774685 432.971662 
L 519.94873 432.971662 
L 519.96167 329.505622 
L 520.941896 401.07334 
L 520.954824 401.07334 
L 520.993622 396.37262 
L 521.136444 432.971662 
L 521.694355 432.971662 
L 522.287935 432.971662 
L 522.348748 329.505622 
L 523.281927 432.971662 
L 523.731506 432.971662 
L 523.74444 329.505622 
L 524.610663 432.971662 
L 525.044711 432.971662 
L 525.082203 421.214505 
L 525.538205 432.971662 
L 528.026951 432.971662 
L 528.039869 329.505622 
L 529.021337 329.505622 
L 529.144205 329.505622 
L 529.159882 432.971662 
L 530.140697 329.505622 
L 530.99148 329.505622 
L 530.999245 432.971662 
L 531.990315 329.505622 
L 532.862227 329.505622 
L 532.877642 432.971662 
L 533.852946 329.505622 
L 534.769323 329.505622 
L 534.789342 432.971662 
L 535.768712 329.505622 
L 536.747005 329.505622 
L 536.759702 432.971662 
L 537.738454 329.505622 
L 538.314187 329.505622 
L 538.314187 432.971662 
L 539.267108 432.971662 
L 539.380919 432.971662 
L 539.415898 329.505622 
L 540.37198 432.971662 
L 540.915966 432.971662 
L 540.928897 329.505622 
L 541.909263 432.971662 
L 542.378058 432.971662 
L 542.390996 329.505622 
L 543.377486 432.971662 
L 543.78894 432.971662 
L 543.80187 329.505622 
L 544.782657 432.971662 
L 545.183513 432.971662 
L 545.196445 329.505622 
L 546.179773 432.971662 
L 546.620319 432.971662 
L 546.633249 329.505622 
L 547.609136 432.971662 
L 548.065954 432.971662 
L 548.078887 329.505622 
L 549.060258 432.971662 
L 549.591289 432.971662 
L 550.041022 378.651991 
L 550.584094 425.211709 
L 550.597024 425.211709 
L 550.597024 432.971662 
L 551.063891 88.119352 
L 551.445779 432.971662 
L 554.164051 432.971662 
L 554.202816 355.989566 
L 555.163169 390.79968 
L 555.176101 390.79968 
L 555.176101 377.835903 
L 555.235092 432.971662 
L 556.169721 432.971662 
L 563.436793 432.971662 
L 563.957729 410.222196 
L 564.429555 432.971662 
L 564.70059 432.971662 
L 565.675056 427.5156 
L 565.687984 427.5156 
L 565.700912 427.5156 
L 565.84775 408.838337 
L 565.717699 432.971662 
L 566.692823 432.971662 
L 567.0791 432.971662 
L 567.485359 409.618989 
L 568.078482 432.971662 
L 568.291951 432.971662 
L 568.324274 427.445747 
L 569.286482 427.484547 
L 569.312338 427.484547 
L 569.387659 407.953703 
L 569.334794 432.971662 
L 570.309189 432.971662 
L 573.539089 432.971662 
L 573.864488 398.27605 
L 574.537906 398.27605 
L 584.210674 398.27605 
L 584.210674 432.971662 
L 585.20229 398.27605 
L 590.032831 399.14344 
L 590.136274 432.971662 
L 590.425618 398.27605 
L 591.032822 398.27605 
L 592.550971 398.27605 
L 592.56128 432.971662 
L 593.545378 432.971662 
L 593.637963 432.971662 
L 593.709499 317.331187 
L 593.881388 432.971662 
L 595.024625 432.971662 
L 595.037556 398.27605 
L 596.014402 398.27605 
L 596.932425 398.866482 
L 597.113089 432.971662 
L 597.372757 398.27605 
L 597.928149 398.27605 
L 601.483944 398.27605 
L 601.625953 432.971662 
L 602.482728 432.971662 
L 603.156308 432.971662 
L 603.169222 398.27605 
L 604.143505 398.27605 
L 606.535081 399.05566 
L 606.542839 432.971662 
L 606.787176 398.27605 
L 607.525743 432.971662 
L 607.608592 432.971662 
L 607.799892 398.27605 
L 608.600795 398.27605 
L 610.082601 398.27605 
L 610.092928 432.971662 
L 610.487195 432.971662 
L 613.12741 432.971662 
L 613.14032 398.27605 
L 614.12449 432.971662 
L 614.441917 432.971662 
L 614.467792 398.27605 
L 615.439822 432.971662 
L 615.496853 432.971662 
L 615.509781 398.27605 
L 615.960472 432.971662 
L 616.774087 432.971662 
L 617.220361 398.27605 
L 617.762553 398.27605 
L 617.913081 398.27605 
L 617.918257 432.971662 
L 618.905798 398.27605 
L 618.979754 398.27605 
L 618.997846 432.971662 
L 619.292818 432.971662 
L 620.299537 432.971662 
L 620.312465 398.27605 
L 621.299063 432.971662 
L 621.604599 432.971662 
L 621.630456 398.27605 
L 622.601655 432.971662 
L 622.633967 432.971662 
L 622.646913 398.27605 
L 623.626606 432.971662 
L 623.947284 432.971662 
L 624.007671 398.27605 
L 624.942595 432.971662 
L 625.235515 432.971662 
L 625.248445 398.27605 
L 626.209208 432.971662 
L 626.507221 432.971662 
L 626.520149 398.27605 
L 627.502649 432.971662 
L 627.555799 432.971662 
L 627.56873 398.27605 
L 628.55174 432.971662 
L 628.564674 432.971662 
L 628.57759 398.27605 
L 629.549607 432.971662 
L 629.581933 432.971662 
L 629.594863 398.27605 
L 630.564453 432.971662 
L 630.596771 432.971662 
L 630.609704 398.27605 
L 631.582844 432.971662 
L 631.696653 432.971662 
L 631.709583 398.27605 
L 632.695133 432.971662 
L 632.86728 432.971662 
L 632.880208 398.27605 
L 633.864617 432.971662 
L 634.17399 432.971662 
L 634.18692 398.27605 
L 635.171139 432.971662 
L 635.567578 432.971662 
L 635.580506 398.27605 
L 636.564738 432.971662 
L 637.063614 432.971662 
L 637.076544 398.27605 
L 638.062344 432.971662 
L 638.724228 432.971662 
L 638.737171 398.27605 
L 639.719827 432.971662 
L 639.732758 432.971662 
L 639.745688 398.27605 
L 640.732127 398.27605 
L 641.081137 398.27605 
L 641.086288 432.971662 
L 642.080901 398.27605 
L 642.140023 398.27605 
L 642.152937 432.971662 
L 643.130623 398.27605 
L 643.186174 398.27605 
L 643.191361 432.971662 
L 644.180107 398.27605 
L 644.396159 398.27605 
L 644.411683 432.971662 
L 645.389351 398.27605 
L 645.647694 398.27605 
L 645.655443 432.971662 
L 646.641707 398.27605 
L 647.076263 398.27605 
L 647.089171 432.971662 
L 648.072399 398.27605 
L 648.600433 398.27605 
L 648.600433 432.971662 
L 649.593103 398.27605 
L 650.380303 398.27605 
L 650.400982 432.971662 
L 651.373527 398.27605 
L 652.223305 398.27605 
L 652.237593 432.971662 
L 653.215741 398.27605 
L 654.494525 398.27605 
L 654.515195 432.971662 
L 655.493389 398.27605 
L 655.871549 398.541384 
L 655.871549 407.687235 
L 655.88446 398.27605 
L 656.861202 398.27605 
L 656.907878 398.27605 
L 656.921716 432.971662 
L 657.901924 398.27605 
L 658.602519 398.27605 
L 658.610278 432.971662 
L 659.592537 398.27605 
L 659.777243 398.27605 
L 659.787571 432.971662 
L 660.766088 398.27605 
L 661.31913 398.27605 
L 661.31913 432.971662 
L 662.307923 398.27605 
L 663.077282 398.27605 
L 663.087614 432.971662 
L 664.07151 398.27605 
L 664.87027 398.27605 
L 664.875424 432.971662 
L 665.167314 432.971662 
L 666.048631 432.971662 
L 666.67752 398.27605 
L 667.043491 415.198921 
L 667.068722 415.270915 
L 667.169855 398.27605 
L 667.506673 432.971662 
L 668.067434 432.971662 
L 668.533748 432.971662 
L 668.651105 398.27605 
L 669.52739 432.971662 
L 669.980163 432.971662 
L 670.092808 398.27605 
L 670.851095 432.971662 
L 672.161595 432.971662 
L 672.187433 398.27605 
L 673.161068 427.407388 
L 673.186924 427.451625 
L 673.264513 432.971662 
L 673.56646 432.971662 
L 674.792939 432.971662 
L 674.805869 398.27605 
L 675.608528 432.971662 
L 678.067256 432.971662 
L 678.080183 398.27605 
L 679.060375 398.27605 
L 679.681007 399.14344 
L 679.784449 432.971662 
L 680.284574 398.27605 
L 680.676334 432.971662 
L 681.035935 432.971662 
L 681.046492 398.27605 
L 682.031095 398.27605 
L 682.186138 398.778702 
L 682.884294 432.971662 
L 682.487314 398.27605 
L 683.181495 432.971662 
L 683.457769 432.971662 
L 683.470699 398.27605 
L 684.452557 398.27605 
L 684.594724 398.27605 
L 684.879018 432.971662 
L 685.592845 432.971662 
L 685.605772 432.971662 
L 685.757253 398.27605 
L 686.594971 398.27605 
L 686.784367 398.27605 
L 686.799404 432.971662 
L 687.783989 400.695722 
L 687.809118 400.696502 
L 688.075649 432.971662 
L 687.898001 398.27605 
L 688.648333 432.971662 
L 689.021529 432.971662 
L 689.06031 398.27605 
L 689.895563 432.971662 
L 690.234575 432.971662 
L 690.260438 430.942454 
L 690.689101 432.971662 
L 692.144811 432.971662 
L 692.170664 398.27605 
L 693.140373 398.27605 
L 693.152427 398.27605 
L 693.162748 432.971662 
L 694.14108 432.971662 
L 694.325791 432.971662 
L 694.393201 317.331187 
L 694.833964 432.971662 
L 695.758584 432.971662 
L 695.758584 398.27605 
L 696.751472 432.971662 
L 697.333928 432.971662 
L 697.346853 398.27605 
L 698.32465 432.971662 
L 698.80272 432.971662 
L 698.81565 398.27605 
L 699.795468 432.971662 
L 700.292652 432.971662 
L 700.305595 398.27605 
L 701.28978 432.971662 
L 701.712253 432.971662 
L 701.725183 398.27605 
L 702.711415 432.971662 
L 703.130679 432.971662 
L 703.143617 398.27605 
L 704.125907 432.971662 
L 704.542001 432.971662 
L 704.554931 398.27605 
L 705.539376 432.971662 
L 705.942148 432.971662 
L 705.942148 398.27605 
L 706.933012 432.971662 
L 707.399388 432.971662 
L 707.412318 398.27605 
L 708.387508 432.971662 
L 708.888185 432.971662 
L 708.901123 398.27605 
L 709.878295 430.369491 
L 709.891226 430.369491 
L 709.891226 432.971662 
L 710.499835 398.27605 
L 710.886797 432.971662 
L 710.975434 432.971662 
L 711.140234 398.27605 
L 711.957223 432.971662 
L 712.139845 432.971662 
L 712.152775 398.27605 
L 713.136135 398.27605 
L 713.242657 398.27605 
L 713.257972 432.971662 
L 714.235523 425.600683 
L 714.247725 425.600683 
L 714.283857 398.27605 
L 714.321689 432.971662 
L 715.24469 432.971662 
L 716.659486 432.971662 
L 716.672415 398.27605 
L 717.318527 432.971662 
L 718.017838 432.971662 
L 718.043699 398.27605 
L 719.012429 432.971662 
L 719.384406 432.971662 
L 719.392195 398.27605 
L 720.261667 432.971662 
L 720.515738 432.971662 
L 720.554521 399.595003 
L 721.14965 432.971662 
L 726.813647 432.971662 
L 726.813647 412.278454 
L 727.823501 412.278454 
L 728.624183 329.505622 
L 730.021731 329.84775 
L 730.021731 432.971662 
L 730.942309 378.583014 
L 731.074011 378.583014 
L 731.338243 331.368011 
L 731.729257 432.971662 
L 738.620896 432.971662 
L 738.620896 414.002888 
L 739.63075 414.002888 
L 740.431432 329.505622 
L 741.82898 329.539651 
L 741.874651 432.971662 
L 742.750003 378.537029 
L 742.881655 378.537029 
L 743.145649 331.345018 
L 743.536499 432.971662 
L 750.428139 432.971662 
L 750.428139 414.002888 
L 751.437993 414.002888 
L 752.238675 329.505622 
L 753.636222 329.645186 
L 753.89822 410.910403 
L 754.557326 378.525532 
L 754.688927 378.525532 
L 754.95284 331.345018 
L 755.34374 432.971662 
L 762.235379 432.971662 
L 762.235379 414.002888 
L 763.245234 414.002888 
L 763.375044 432.914124 
L 764.045915 329.505622 
L 765.443463 329.84775 
L 765.443463 432.971662 
L 766.364486 378.537029 
L 766.496138 378.537029 
L 766.760132 331.345018 
L 767.150982 432.971662 
L 774.042622 432.971662 
L 774.042622 422.625058 
L 775.182287 422.625058 
L 775.853158 329.505622 
L 777.250706 329.539651 
L 777.296377 432.971662 
L 778.171729 378.537029 
L 778.30338 378.537029 
L 778.435209 348.4629 
L 778.958225 432.971662 
L 787.6604 432.915606 
L 787.6604 354.565959 
L 788.848899 354.565959 
L 789.057948 432.971662 
L 789.057008 354.207053 
L 789.84756 427.882868 
L 789.979052 427.882868 
L 790.50686 415.732495 
L 790.765465 432.971662 
L 804.93517 432.971662 
L 804.93517 432.971662 
" clip-path="url(#pbd72eb6a7a)" style="fill: none; stroke: #000000; stroke-width: 0.5; stroke-linecap: square"/>
   </g>
   <g id="patch_3">
    <path d="M 44.121875 450.214277 
L 44.121875 70.876736 
" style="fill: none; stroke: #000000; stroke-width: 0.8; stroke-linejoin: miter; stroke-linecap: square"/>
   </g>
   <g id="patch_4">
    <path d="M 841.164375 450.214277 
L 841.164375 70.876736 
" style="fill: none; stroke: #000000; stroke-width: 0.8; stroke-linejoin: miter; stroke-linecap: square"/>
   </g>
   <g id="patch_5">
    <path d="M 44.121875 450.214277 
L 841.164375 450.214277 
" style="fill: none; stroke: #000000; stroke-width: 0.8; stroke-linejoin: miter; stroke-linecap: square"/>
   </g>
   <g id="patch_6">
    <path d="M 44.121875 70.876736 
L 841.164375 70.876736 
" style="fill: none; stroke: #000000; stroke-width: 0.8; stroke-linejoin: miter; stroke-linecap: square"/>
   </g>
   <g id="text_16">
    <!-- 主轴功率预测 -->
    <g transform="translate(400.643125 18.410937) scale(0.14 -0.14)">
     <defs>
      <path id="SimHei-4e3b" d="M 4750 3850 
Q 5150 3850 5750 3875 
L 5750 3400 
Q 5150 3425 4750 3425 
L 3425 3425 
L 3425 2175 
L 4425 2175 
Q 4825 2175 5375 2200 
L 5375 1725 
Q 4825 1750 4425 1750 
L 3425 1750 
L 3425 150 
L 5000 150 
Q 5450 150 6050 175 
L 6050 -300 
Q 5450 -275 5000 -275 
L 350 -275 
L 350 200 
Q 950 150 1425 150 
L 2900 150 
L 2900 1750 
L 1925 1750 
Q 1525 1750 975 1725 
L 975 2200 
Q 1575 2175 1925 2175 
L 2900 2175 
L 2900 3425 
L 1650 3425 
Q 1125 3425 625 3400 
L 625 3875 
Q 1175 3850 1675 3850 
L 4750 3850 
z
M 3175 3900 
Q 2875 4350 2400 4875 
Q 2650 5050 2800 5200 
Q 3325 4600 3625 4175 
Q 3475 4100 3175 3900 
z
" transform="scale(0.015625)"/>
      <path id="SimHei-8f74" d="M 4200 3900 
Q 4200 4775 4175 5175 
L 4700 5175 
Q 4675 4800 4675 3900 
L 5950 3900 
Q 5925 3025 5925 1675 
Q 5925 325 5950 -525 
L 5450 -525 
L 5450 100 
L 3425 100 
L 3425 -575 
L 2950 -575 
Q 2975 325 2975 1675 
Q 2975 3025 2950 3900 
L 4200 3900 
z
M 2725 950 
Q 2250 900 2075 875 
Q 2075 200 2100 -600 
L 1575 -600 
Q 1600 200 1600 800 
Q 700 650 450 575 
Q 400 800 275 1075 
Q 700 1100 1600 1250 
L 1600 2075 
L 1100 2075 
Q 850 2075 525 2000 
L 300 2475 
Q 525 2600 700 3025 
Q 875 3450 1025 3925 
Q 700 3925 325 3900 
L 325 4350 
Q 700 4325 1125 4325 
Q 1300 4825 1375 5250 
Q 1625 5150 1925 5100 
Q 1825 4925 1600 4325 
Q 2175 4325 2750 4350 
L 2750 3900 
Q 2200 3925 1475 3925 
Q 1150 3000 925 2475 
L 1600 2475 
Q 1600 3050 1575 3400 
L 2100 3400 
Q 2075 3100 2075 2475 
Q 2425 2475 2625 2500 
L 2625 2050 
Q 2450 2075 2075 2075 
L 2075 1300 
L 2775 1400 
Q 2725 1175 2725 950 
z
M 4200 525 
L 4200 1850 
L 3425 1850 
L 3425 525 
L 4200 525 
z
M 5450 525 
L 5450 1850 
L 4675 1850 
L 4675 525 
L 5450 525 
z
M 4200 2250 
L 4200 3475 
L 3425 3475 
L 3425 2250 
L 4200 2250 
z
M 5450 2250 
L 5450 3475 
L 4675 3475 
L 4675 2250 
L 5450 2250 
z
" transform="scale(0.015625)"/>
      <path id="SimHei-9884" d="M 5200 4800 
Q 5575 4800 5950 4825 
L 5950 4400 
Q 5575 4425 5200 4425 
L 4500 4425 
Q 4425 4050 4350 3600 
L 5725 3600 
Q 5700 3225 5700 2800 
L 5700 1725 
Q 5700 1300 5725 850 
L 5250 850 
L 5250 3225 
L 3550 3225 
L 3550 800 
L 3075 800 
Q 3100 1375 3100 1725 
L 3100 2775 
Q 3100 3175 3075 3600 
L 3900 3600 
Q 4000 4150 4000 4425 
L 3725 4425 
Q 3300 4425 2850 4400 
L 2850 4825 
Q 3325 4800 3725 4800 
L 5200 4800 
z
M 2600 1775 
Q 2350 1825 2150 1825 
Q 2250 2250 2300 2450 
L 1750 2450 
L 1750 125 
Q 1725 -300 1425 -400 
Q 1125 -500 750 -500 
Q 700 -225 575 25 
Q 1125 -25 1212 37 
Q 1300 100 1300 350 
L 1300 2450 
L 1025 2450 
Q 700 2450 350 2425 
L 350 2850 
Q 700 2825 1000 2825 
L 2850 2825 
Q 2725 2325 2600 1775 
z
M 4725 2875 
Q 4625 2575 4600 2100 
Q 4575 1625 4462 1037 
Q 4350 450 3962 62 
Q 3575 -325 2925 -675 
Q 2700 -500 2475 -350 
Q 3075 -125 3437 200 
Q 3800 525 3950 937 
Q 4100 1350 4137 1850 
Q 4175 2350 4175 2925 
L 4725 2875 
z
M 1625 2900 
Q 1275 3275 800 3650 
Q 925 3775 1075 3950 
Q 1250 3825 1425 3675 
Q 1750 4150 1950 4375 
L 1400 4375 
Q 900 4375 450 4350 
L 450 4775 
Q 900 4750 1375 4750 
L 2575 4750 
L 2575 4375 
Q 2200 4100 1725 3400 
L 1950 3200 
Q 1750 3025 1625 2900 
z
M 4775 725 
Q 5725 0 6075 -325 
Q 5850 -500 5725 -650 
Q 5400 -325 5137 -87 
Q 4875 150 4525 350 
Q 4650 525 4775 725 
z
" transform="scale(0.015625)"/>
      <path id="SimHei-6d4b" d="M 4025 4725 
Q 4000 4475 4000 4000 
L 4000 2225 
Q 4000 1775 4025 1350 
L 3550 1350 
L 3550 4325 
L 2350 4325 
L 2350 1325 
L 1900 1325 
Q 1925 1775 1925 2225 
L 1925 4000 
Q 1925 4200 1900 4725 
L 4025 4725 
z
M 5900 5075 
Q 5875 4800 5875 4375 
L 5875 0 
Q 5875 -325 5650 -425 
Q 5425 -525 4975 -600 
Q 4925 -325 4775 -50 
Q 5125 -50 5262 -25 
Q 5400 0 5400 250 
L 5400 4375 
Q 5400 4775 5375 5075 
L 5900 5075 
z
M 3275 3725 
Q 3225 3400 3200 2325 
Q 3175 1250 2837 550 
Q 2500 -150 2075 -600 
Q 1850 -400 1600 -325 
Q 2200 250 2475 962 
Q 2750 1675 2762 2475 
Q 2775 3275 2725 3800 
Q 3000 3750 3275 3725 
z
M 4950 4275 
Q 4925 4000 4925 3575 
L 4925 1825 
Q 4925 1300 4950 850 
L 4450 850 
Q 4475 1150 4475 1825 
L 4475 3575 
Q 4475 4000 4450 4275 
L 4950 4275 
z
M 1700 1675 
Q 1375 1075 1112 487 
Q 850 -100 725 -400 
Q 500 -200 200 -25 
Q 475 300 762 850 
Q 1050 1400 1250 2000 
Q 1475 1825 1700 1675 
z
M 3400 1050 
Q 3800 650 4300 -125 
Q 4100 -225 3875 -450 
Q 3475 275 3025 750 
Q 3225 875 3400 1050 
z
M 600 3525 
Q 1125 3125 1500 2775 
Q 1300 2575 1150 2375 
Q 825 2775 300 3150 
Q 450 3300 600 3525 
z
M 1350 4000 
Q 950 4375 475 4675 
Q 625 4850 775 5050 
Q 1300 4700 1675 4375 
Q 1500 4250 1350 4000 
z
" transform="scale(0.015625)"/>
     </defs>
     <use xlink:href="#SimHei-4e3b"/>
     <use xlink:href="#SimHei-8f74" x="100"/>
     <use xlink:href="#SimHei-529f" x="200"/>
     <use xlink:href="#SimHei-7387" x="300"/>
     <use xlink:href="#SimHei-9884" x="400"/>
     <use xlink:href="#SimHei-6d4b" x="500"/>
    </g>
   </g>
  </g>
  <g id="axes_2">
   <g id="matplotlib.axis_3">
    <g id="xtick_7">
     <g id="line2d_26">
      <defs>
       <path id="m10321a9283" d="M 0 0 
L 0 -3.5 
" style="stroke: #000000; stroke-width: 0.8"/>
      </defs>
      <g>
       <use xlink:href="#m10321a9283" x="80.35108" y="70.876736" style="stroke: #000000; stroke-width: 0.8"/>
      </g>
     </g>
     <g id="text_17">
      <!-- N140 -->
      <g transform="translate(84.240167 63.169629) rotate(-45) scale(0.08 -0.08)">
       <defs>
        <path id="SimHei-4e" d="M 2850 125 
L 2225 125 
L 850 3225 
L 825 3225 
L 825 125 
L 250 125 
L 250 4400 
L 875 4400 
L 2250 1300 
L 2275 1300 
L 2275 4400 
L 2850 4400 
L 2850 125 
z
" transform="scale(0.015625)"/>
        <path id="SimHei-34" d="M 2000 1100 
L 75 1100 
L 75 1525 
L 2100 4450 
L 2475 4450 
L 2475 1525 
L 3075 1525 
L 3075 1100 
L 2475 1100 
L 2475 150 
L 2000 150 
L 2000 1100 
z
M 2000 1525 
L 2000 3500 
L 600 1525 
L 2000 1525 
z
" transform="scale(0.015625)"/>
       </defs>
       <use xlink:href="#SimHei-4e"/>
       <use xlink:href="#SimHei-31" x="50"/>
       <use xlink:href="#SimHei-34" x="100"/>
       <use xlink:href="#SimHei-30" x="150"/>
      </g>
     </g>
    </g>
    <g id="xtick_8">
     <g id="line2d_27">
      <g>
       <use xlink:href="#m10321a9283" x="152.456171" y="70.876736" style="stroke: #000000; stroke-width: 0.8"/>
      </g>
     </g>
     <g id="text_18">
      <!-- N1050 -->
      <g transform="translate(156.345258 63.169629) rotate(-45) scale(0.08 -0.08)">
       <use xlink:href="#SimHei-4e"/>
       <use xlink:href="#SimHei-31" x="50"/>
       <use xlink:href="#SimHei-30" x="100"/>
       <use xlink:href="#SimHei-35" x="150"/>
       <use xlink:href="#SimHei-30" x="200"/>
      </g>
     </g>
    </g>
    <g id="xtick_9">
     <g id="line2d_28">
      <g>
       <use xlink:href="#m10321a9283" x="199.607355" y="70.876736" style="stroke: #000000; stroke-width: 0.8"/>
      </g>
     </g>
     <g id="text_19">
      <!-- N7090.17 -->
      <g transform="translate(203.496442 63.169629) rotate(-45) scale(0.08 -0.08)">
       <defs>
        <path id="SimHei-37" d="M 850 150 
Q 1300 2050 2425 3925 
L 275 3925 
L 275 4375 
L 2950 4375 
L 2950 3950 
Q 1775 2050 1400 150 
L 850 150 
z
" transform="scale(0.015625)"/>
        <path id="SimHei-39" d="M 800 75 
Q 1350 1000 1700 1750 
Q 1075 1650 662 1912 
Q 250 2175 162 2625 
Q 75 3075 175 3437 
Q 275 3800 487 4037 
Q 700 4275 1000 4375 
Q 1300 4475 1537 4475 
Q 1775 4475 2025 4375 
Q 2275 4275 2475 4075 
Q 2675 3875 2750 3662 
Q 2825 3450 2825 3112 
Q 2825 2775 2575 2250 
Q 2325 1725 1350 75 
L 800 75 
z
M 662 2875 
Q 700 2550 937 2337 
Q 1175 2125 1450 2150 
Q 1725 2175 1887 2300 
Q 2050 2425 2200 2725 
Q 2300 3100 2250 3362 
Q 2200 3625 1987 3800 
Q 1775 3975 1525 3975 
Q 1375 4000 1137 3900 
Q 900 3800 762 3500 
Q 625 3200 662 2875 
z
" transform="scale(0.015625)"/>
       </defs>
       <use xlink:href="#SimHei-4e"/>
       <use xlink:href="#SimHei-37" x="50"/>
       <use xlink:href="#SimHei-30" x="100"/>
       <use xlink:href="#SimHei-39" x="150"/>
       <use xlink:href="#SimHei-30" x="200"/>
       <use xlink:href="#SimHei-2e" x="250"/>
       <use xlink:href="#SimHei-31" x="300"/>
       <use xlink:href="#SimHei-37" x="350"/>
      </g>
     </g>
    </g>
    <g id="xtick_10">
     <g id="line2d_29">
      <g>
       <use xlink:href="#m10321a9283" x="254.748752" y="70.876736" style="stroke: #000000; stroke-width: 0.8"/>
      </g>
     </g>
     <g id="text_20">
      <!-- N2250 -->
      <g transform="translate(258.63784 63.169629) rotate(-45) scale(0.08 -0.08)">
       <use xlink:href="#SimHei-4e"/>
       <use xlink:href="#SimHei-32" x="50"/>
       <use xlink:href="#SimHei-32" x="100"/>
       <use xlink:href="#SimHei-35" x="150"/>
       <use xlink:href="#SimHei-30" x="200"/>
      </g>
     </g>
    </g>
    <g id="xtick_11">
     <g id="line2d_30">
      <g>
       <use xlink:href="#m10321a9283" x="311.413017" y="70.876736" style="stroke: #000000; stroke-width: 0.8"/>
      </g>
     </g>
     <g id="text_21">
      <!-- N2940 -->
      <g transform="translate(315.302105 63.169629) rotate(-45) scale(0.08 -0.08)">
       <use xlink:href="#SimHei-4e"/>
       <use xlink:href="#SimHei-32" x="50"/>
       <use xlink:href="#SimHei-39" x="100"/>
       <use xlink:href="#SimHei-34" x="150"/>
       <use xlink:href="#SimHei-30" x="200"/>
      </g>
     </g>
    </g>
    <g id="xtick_12">
     <g id="line2d_31">
      <g>
       <use xlink:href="#m10321a9283" x="357.807687" y="70.876736" style="stroke: #000000; stroke-width: 0.8"/>
      </g>
     </g>
     <g id="text_22">
      <!-- N8760.10 -->
      <g transform="translate(361.696775 63.169629) rotate(-45) scale(0.08 -0.08)">
       <defs>
        <path id="SimHei-38" d="M 175 1375 
Q 175 1675 325 1962 
Q 475 2250 825 2425 
Q 525 2600 425 2812 
Q 325 3025 312 3300 
Q 300 3575 387 3775 
Q 475 3975 650 4150 
Q 825 4325 1037 4387 
Q 1250 4450 1500 4450 
Q 1750 4450 1950 4400 
Q 2150 4350 2375 4187 
Q 2600 4025 2700 3725 
Q 2800 3425 2687 3025 
Q 2575 2625 2100 2400 
Q 2525 2275 2700 2012 
Q 2875 1750 2875 1375 
Q 2875 1000 2762 775 
Q 2650 550 2512 400 
Q 2375 250 2137 162 
Q 1900 75 1537 75 
Q 1175 75 912 162 
Q 650 250 475 425 
Q 300 600 237 837 
Q 175 1075 175 1375 
z
M 687 1400 
Q 675 1100 787 875 
Q 900 650 1200 587 
Q 1500 525 1825 600 
Q 2150 675 2275 950 
Q 2400 1225 2362 1500 
Q 2325 1775 2050 1962 
Q 1775 2150 1450 2125 
Q 1125 2100 912 1900 
Q 700 1700 687 1400 
z
M 775 3350 
Q 775 3100 950 2875 
Q 1125 2650 1500 2650 
Q 1875 2650 2062 2875 
Q 2250 3100 2237 3412 
Q 2225 3725 2012 3875 
Q 1800 4025 1437 4000 
Q 1075 3975 925 3787 
Q 775 3600 775 3350 
z
" transform="scale(0.015625)"/>
       </defs>
       <use xlink:href="#SimHei-4e"/>
       <use xlink:href="#SimHei-38" x="50"/>
       <use xlink:href="#SimHei-37" x="100"/>
       <use xlink:href="#SimHei-36" x="150"/>
       <use xlink:href="#SimHei-30" x="200"/>
       <use xlink:href="#SimHei-2e" x="250"/>
       <use xlink:href="#SimHei-31" x="300"/>
       <use xlink:href="#SimHei-30" x="350"/>
      </g>
     </g>
    </g>
    <g id="xtick_13">
     <g id="line2d_32">
      <g>
       <use xlink:href="#m10321a9283" x="413.906298" y="70.876736" style="stroke: #000000; stroke-width: 0.8"/>
      </g>
     </g>
     <g id="text_23">
      <!-- N3940.2 -->
      <g transform="translate(417.795385 63.169629) rotate(-45) scale(0.08 -0.08)">
       <defs>
        <path id="SimHei-33" d="M 250 1225 
L 700 1300 
Q 800 975 1025 762 
Q 1250 550 1587 562 
Q 1925 575 2125 837 
Q 2325 1100 2300 1437 
Q 2275 1775 2037 1962 
Q 1800 2150 1275 2225 
L 1275 2550 
Q 1800 2600 2037 2825 
Q 2275 3050 2250 3412 
Q 2225 3775 1925 3937 
Q 1625 4100 1287 3975 
Q 950 3850 750 3275 
L 300 3350 
Q 450 3800 712 4100 
Q 975 4400 1425 4450 
Q 1875 4500 2212 4337 
Q 2550 4175 2687 3837 
Q 2825 3500 2725 3100 
Q 2625 2700 2150 2400 
Q 2500 2250 2687 1950 
Q 2875 1650 2812 1162 
Q 2750 675 2375 375 
Q 2000 75 1525 87 
Q 1050 100 700 387 
Q 350 675 250 1225 
z
" transform="scale(0.015625)"/>
       </defs>
       <use xlink:href="#SimHei-4e"/>
       <use xlink:href="#SimHei-33" x="50"/>
       <use xlink:href="#SimHei-39" x="100"/>
       <use xlink:href="#SimHei-34" x="150"/>
       <use xlink:href="#SimHei-30" x="200"/>
       <use xlink:href="#SimHei-2e" x="250"/>
       <use xlink:href="#SimHei-32" x="300"/>
      </g>
     </g>
    </g>
    <g id="xtick_14">
     <g id="line2d_33">
      <g>
       <use xlink:href="#m10321a9283" x="468.087995" y="70.876736" style="stroke: #000000; stroke-width: 0.8"/>
      </g>
     </g>
     <g id="text_24">
      <!-- N2400.17 -->
      <g transform="translate(471.977083 63.169629) rotate(-45) scale(0.08 -0.08)">
       <use xlink:href="#SimHei-4e"/>
       <use xlink:href="#SimHei-32" x="50"/>
       <use xlink:href="#SimHei-34" x="100"/>
       <use xlink:href="#SimHei-30" x="150"/>
       <use xlink:href="#SimHei-30" x="200"/>
       <use xlink:href="#SimHei-2e" x="250"/>
       <use xlink:href="#SimHei-31" x="300"/>
       <use xlink:href="#SimHei-37" x="350"/>
      </g>
     </g>
    </g>
    <g id="xtick_15">
     <g id="line2d_34">
      <g>
       <use xlink:href="#m10321a9283" x="513.45612" y="70.876736" style="stroke: #000000; stroke-width: 0.8"/>
      </g>
     </g>
     <g id="text_25">
      <!-- N6770 -->
      <g transform="translate(517.345207 63.169629) rotate(-45) scale(0.08 -0.08)">
       <use xlink:href="#SimHei-4e"/>
       <use xlink:href="#SimHei-36" x="50"/>
       <use xlink:href="#SimHei-37" x="100"/>
       <use xlink:href="#SimHei-37" x="150"/>
       <use xlink:href="#SimHei-30" x="200"/>
      </g>
     </g>
    </g>
    <g id="xtick_16">
     <g id="line2d_35">
      <g>
       <use xlink:href="#m10321a9283" x="570.628739" y="70.876736" style="stroke: #000000; stroke-width: 0.8"/>
      </g>
     </g>
     <g id="text_26">
      <!-- N3310 -->
      <g transform="translate(574.517826 63.169629) rotate(-45) scale(0.08 -0.08)">
       <use xlink:href="#SimHei-4e"/>
       <use xlink:href="#SimHei-33" x="50"/>
       <use xlink:href="#SimHei-33" x="100"/>
       <use xlink:href="#SimHei-31" x="150"/>
       <use xlink:href="#SimHei-30" x="200"/>
      </g>
     </g>
    </g>
    <g id="xtick_17">
     <g id="line2d_36">
      <g>
       <use xlink:href="#m10321a9283" x="628.811232" y="70.876736" style="stroke: #000000; stroke-width: 0.8"/>
      </g>
     </g>
     <g id="text_27">
      <!-- N2720 -->
      <g transform="translate(632.70032 63.169629) rotate(-45) scale(0.08 -0.08)">
       <use xlink:href="#SimHei-4e"/>
       <use xlink:href="#SimHei-32" x="50"/>
       <use xlink:href="#SimHei-37" x="100"/>
       <use xlink:href="#SimHei-32" x="150"/>
       <use xlink:href="#SimHei-30" x="200"/>
      </g>
     </g>
    </g>
    <g id="xtick_18">
     <g id="line2d_37">
      <g>
       <use xlink:href="#m10321a9283" x="672.118655" y="70.876736" style="stroke: #000000; stroke-width: 0.8"/>
      </g>
     </g>
     <g id="text_28">
      <!-- N6820 -->
      <g transform="translate(676.007742 63.169629) rotate(-45) scale(0.08 -0.08)">
       <use xlink:href="#SimHei-4e"/>
       <use xlink:href="#SimHei-36" x="50"/>
       <use xlink:href="#SimHei-38" x="100"/>
       <use xlink:href="#SimHei-32" x="150"/>
       <use xlink:href="#SimHei-30" x="200"/>
      </g>
     </g>
    </g>
    <g id="xtick_19">
     <g id="line2d_38">
      <g>
       <use xlink:href="#m10321a9283" x="801.786292" y="70.876736" style="stroke: #000000; stroke-width: 0.8"/>
      </g>
     </g>
     <g id="text_29">
      <!-- N0 -->
      <g transform="translate(805.67538 63.169629) rotate(-45) scale(0.08 -0.08)">
       <use xlink:href="#SimHei-4e"/>
       <use xlink:href="#SimHei-30" x="50"/>
      </g>
     </g>
    </g>
    <g id="text_30">
     <!-- 指令行号 N -->
     <g transform="translate(417.643125 32.653125) scale(0.1 -0.1)">
      <defs>
       <path id="SimHei-6307" d="M 5625 2225 
Q 5600 1925 5600 1350 
L 5600 300 
Q 5600 -225 5625 -525 
L 5125 -525 
L 5125 -125 
L 3300 -125 
L 3300 -625 
L 2800 -625 
Q 2825 -300 2825 300 
L 2825 1350 
Q 2825 1925 2800 2225 
L 5625 2225 
z
M 500 25 
Q 1075 -25 1175 37 
Q 1275 100 1275 275 
L 1275 1675 
Q 1050 1600 925 1537 
Q 800 1475 475 1275 
Q 400 1525 225 1800 
Q 625 1900 825 1975 
Q 1025 2050 1275 2125 
L 1275 3300 
L 1100 3300 
Q 775 3300 450 3275 
L 450 3725 
Q 750 3700 1100 3700 
L 1275 3700 
L 1275 4450 
Q 1275 4800 1250 5125 
L 1775 5125 
Q 1750 4850 1750 4450 
L 1750 3700 
Q 2075 3700 2425 3725 
L 2425 3275 
Q 2050 3300 1750 3300 
L 1750 2325 
Q 1850 2350 2025 2425 
L 2375 2575 
Q 2350 2300 2375 2100 
Q 2225 2050 2062 1987 
Q 1900 1925 1750 1850 
L 1750 100 
Q 1725 -200 1575 -337 
Q 1425 -475 675 -525 
Q 625 -250 500 25 
z
M 3325 5025 
Q 3300 4675 3300 4125 
Q 4125 4275 4512 4412 
Q 4900 4550 5225 4725 
Q 5325 4475 5575 4250 
Q 5450 4225 5237 4175 
Q 5025 4125 4725 4050 
Q 4425 3975 4037 3887 
Q 3650 3800 3300 3725 
L 3300 3175 
Q 3275 2925 3700 2925 
L 4925 2925 
Q 5300 2925 5387 3087 
Q 5475 3250 5550 3600 
Q 5750 3400 6050 3300 
Q 5825 2725 5700 2637 
Q 5575 2550 5275 2525 
L 3350 2525 
Q 3050 2525 2937 2687 
Q 2825 2850 2825 2975 
L 2825 4125 
Q 2825 4775 2800 5025 
L 3325 5025 
z
M 5125 275 
L 5125 875 
L 3300 875 
L 3300 275 
L 5125 275 
z
M 5125 1250 
L 5125 1825 
L 3300 1825 
L 3300 1250 
L 5125 1250 
z
" transform="scale(0.015625)"/>
       <path id="SimHei-4ee4" d="M 5375 2075 
L 5375 1550 
Q 4925 1325 4450 937 
Q 3975 550 3575 125 
L 4250 -325 
Q 4050 -550 3875 -775 
Q 3100 -125 1850 425 
L 2150 875 
Q 2400 775 3125 350 
Q 3800 1025 4450 1625 
L 2025 1625 
Q 1500 1625 975 1600 
L 975 2100 
Q 1525 2075 2025 2075 
L 5375 2075 
z
M 3375 4850 
Q 4450 3550 6200 2900 
Q 5950 2625 5800 2350 
Q 4150 3150 3100 4475 
Q 2075 3125 625 2225 
Q 400 2525 200 2700 
Q 875 2975 1675 3675 
Q 2475 4375 2950 5300 
Q 3275 5175 3550 5050 
Q 3475 5000 3375 4850 
z
M 2925 3600 
Q 3175 3350 3750 2725 
L 3300 2325 
Q 3050 2700 2550 3225 
Q 2750 3375 2925 3600 
z
" transform="scale(0.015625)"/>
       <path id="SimHei-53f7" d="M 5025 4925 
Q 5000 4550 5000 4075 
Q 5000 3600 5025 3175 
L 1400 3175 
Q 1425 3525 1425 4000 
Q 1425 4500 1400 4925 
L 5025 4925 
z
M 5175 2625 
Q 5650 2625 6025 2650 
L 6025 2200 
Q 5650 2225 5175 2225 
L 2450 2225 
Q 2350 1875 2225 1450 
L 5175 1450 
Q 5100 1050 5062 775 
Q 5025 500 4950 112 
Q 4875 -275 4650 -412 
Q 4425 -550 3225 -625 
Q 3125 -350 2975 -50 
Q 3875 -75 4112 -50 
Q 4350 -25 4425 212 
Q 4500 450 4575 1025 
L 1600 1025 
Q 1825 1625 1950 2225 
L 1350 2225 
Q 825 2225 375 2200 
L 375 2650 
Q 825 2625 1350 2625 
L 5175 2625 
z
M 4525 3575 
L 4525 4525 
L 1900 4525 
L 1900 3575 
L 4525 3575 
z
" transform="scale(0.015625)"/>
      </defs>
      <use xlink:href="#SimHei-6307"/>
      <use xlink:href="#SimHei-4ee4" x="100"/>
      <use xlink:href="#SimHei-884c" x="200"/>
      <use xlink:href="#SimHei-53f7" x="300"/>
      <use xlink:href="#SimHei-20" x="400"/>
      <use xlink:href="#SimHei-4e" x="450"/>
     </g>
    </g>
   </g>
   <g id="patch_7">
    <path d="M 44.121875 450.214277 
L 44.121875 70.876736 
" style="fill: none; stroke: #000000; stroke-width: 0.8; stroke-linejoin: miter; stroke-linecap: square"/>
   </g>
   <g id="patch_8">
    <path d="M 841.164375 450.214277 
L 841.164375 70.876736 
" style="fill: none; stroke: #000000; stroke-width: 0.8; stroke-linejoin: miter; stroke-linecap: square"/>
   </g>
   <g id="patch_9">
    <path d="M 44.121875 450.214277 
L 841.164375 450.214277 
" style="fill: none; stroke: #000000; stroke-width: 0.8; stroke-linejoin: miter; stroke-linecap: square"/>
   </g>
   <g id="patch_10">
    <path d="M 44.121875 70.876736 
L 841.164375 70.876736 
" style="fill: none; stroke: #000000; stroke-width: 0.8; stroke-linejoin: miter; stroke-linecap: square"/>
   </g>
  </g>
 </g>
 <defs>
  <clipPath id="pbd72eb6a7a">
   <rect x="44.121875" y="70.876736" width="797.0425" height="379.337541"/>
  </clipPath>
 </defs>
</svg>
