<?xml version="1.0" encoding="utf-8" standalone="no"?>
<!DOCTYPE svg PUBLIC "-//W3C//DTD SVG 1.1//EN"
  "http://www.w3.org/Graphics/SVG/1.1/DTD/svg11.dtd">
<svg xmlns:xlink="http://www.w3.org/1999/xlink" width="848.49375pt" height="488.35209pt" viewBox="0 0 848.49375 488.35209" xmlns="http://www.w3.org/2000/svg" version="1.1">
 <metadata>
  <rdf:RDF xmlns:dc="http://purl.org/dc/elements/1.1/" xmlns:cc="http://creativecommons.org/ns#" xmlns:rdf="http://www.w3.org/1999/02/22-rdf-syntax-ns#">
   <cc:Work>
    <dc:type rdf:resource="http://purl.org/dc/dcmitype/StillImage"/>
    <dc:date>2025-12-10T13:36:51.388948</dc:date>
    <dc:format>image/svg+xml</dc:format>
    <dc:creator>
     <cc:Agent>
      <dc:title>Matplotlib v3.9.2, https://matplotlib.org/</dc:title>
     </cc:Agent>
    </dc:creator>
   </cc:Work>
  </rdf:RDF>
 </metadata>
 <defs>
  <style type="text/css">*{stroke-linejoin: round; stroke-linecap: butt}</style>
 </defs>
 <g id="figure_1">
  <g id="patch_1">
   <path d="M 0 488.35209 
L 848.49375 488.35209 
L 848.49375 0 
L 0 0 
z
" style="fill: #ffffff"/>
  </g>
  <g id="axes_1">
   <g id="patch_2">
    <path d="M 44.35625 450.823965 
L 841.29375 450.823965 
L 841.29375 70.931424 
L 44.35625 70.931424 
z
" style="fill: #ffffff"/>
   </g>
   <g id="matplotlib.axis_1">
    <g id="xtick_1">
     <g id="line2d_1">
      <path d="M 73.003975 450.823965 
L 73.003975 70.931424 
" clip-path="url(#pdc90d6d454)" style="fill: none; stroke-dasharray: 2.96,1.28; stroke-dashoffset: 0; stroke: #b0b0b0; stroke-opacity: 0.7; stroke-width: 0.8"/>
     </g>
     <g id="line2d_2">
      <defs>
       <path id="mf58f9033a5" d="M 0 0 
L 0 3.5 
" style="stroke: #000000; stroke-width: 0.8"/>
      </defs>
      <g>
       <use xlink:href="#mf58f9033a5" x="73.003975" y="450.823965" style="stroke: #000000; stroke-width: 0.8"/>
      </g>
     </g>
     <g id="text_1">
      <!-- 0 -->
      <g transform="translate(70.503975 464.698965) scale(0.1 -0.1)">
       <defs>
        <path id="SimHei-30" d="M 225 2537 
Q 250 3200 412 3587 
Q 575 3975 875 4225 
Q 1175 4475 1612 4475 
Q 2050 4475 2375 4112 
Q 2700 3750 2800 3200 
Q 2900 2650 2862 1937 
Q 2825 1225 2612 775 
Q 2400 325 1975 150 
Q 1550 -25 1125 187 
Q 700 400 525 750 
Q 350 1100 275 1487 
Q 200 1875 225 2537 
z
M 750 2687 
Q 675 2000 800 1462 
Q 925 925 1212 700 
Q 1500 475 1800 612 
Q 2100 750 2237 1162 
Q 2375 1575 2375 2062 
Q 2375 2550 2337 2950 
Q 2300 3350 2112 3675 
Q 1925 4000 1612 4012 
Q 1300 4025 1062 3700 
Q 825 3375 750 2687 
z
" transform="scale(0.015625)"/>
       </defs>
       <use xlink:href="#SimHei-30"/>
      </g>
     </g>
    </g>
    <g id="xtick_2">
     <g id="line2d_3">
      <path d="M 165.044918 450.823965 
L 165.044918 70.931424 
" clip-path="url(#pdc90d6d454)" style="fill: none; stroke-dasharray: 2.96,1.28; stroke-dashoffset: 0; stroke: #b0b0b0; stroke-opacity: 0.7; stroke-width: 0.8"/>
     </g>
     <g id="line2d_4">
      <g>
       <use xlink:href="#mf58f9033a5" x="165.044918" y="450.823965" style="stroke: #000000; stroke-width: 0.8"/>
      </g>
     </g>
     <g id="text_2">
      <!-- 5000 -->
      <g transform="translate(155.044918 464.698965) scale(0.1 -0.1)">
       <defs>
        <path id="SimHei-35" d="M 550 1325 
Q 725 650 1150 575 
Q 1575 500 1837 662 
Q 2100 825 2212 1087 
Q 2325 1350 2312 1675 
Q 2300 2000 2137 2225 
Q 1975 2450 1725 2525 
Q 1475 2600 1162 2525 
Q 850 2450 650 2175 
L 225 2225 
Q 275 2375 700 4375 
L 2675 4375 
L 2675 3925 
L 1075 3925 
Q 950 3250 825 2850 
Q 1200 3025 1525 3012 
Q 1850 3000 2150 2862 
Q 2450 2725 2587 2487 
Q 2725 2250 2787 2012 
Q 2850 1775 2837 1500 
Q 2825 1225 2725 937 
Q 2625 650 2425 462 
Q 2225 275 1937 162 
Q 1650 50 1275 75 
Q 900 100 562 350 
Q 225 600 100 1200 
L 550 1325 
z
" transform="scale(0.015625)"/>
       </defs>
       <use xlink:href="#SimHei-35"/>
       <use xlink:href="#SimHei-30" x="50"/>
       <use xlink:href="#SimHei-30" x="100"/>
       <use xlink:href="#SimHei-30" x="150"/>
      </g>
     </g>
    </g>
    <g id="xtick_3">
     <g id="line2d_5">
      <path d="M 257.085861 450.823965 
L 257.085861 70.931424 
" clip-path="url(#pdc90d6d454)" style="fill: none; stroke-dasharray: 2.96,1.28; stroke-dashoffset: 0; stroke: #b0b0b0; stroke-opacity: 0.7; stroke-width: 0.8"/>
     </g>
     <g id="line2d_6">
      <g>
       <use xlink:href="#mf58f9033a5" x="257.085861" y="450.823965" style="stroke: #000000; stroke-width: 0.8"/>
      </g>
     </g>
     <g id="text_3">
      <!-- 10000 -->
      <g transform="translate(244.585861 464.698965) scale(0.1 -0.1)">
       <defs>
        <path id="SimHei-31" d="M 1400 3600 
Q 1075 3275 575 2975 
L 575 3450 
Q 1200 3875 1600 4450 
L 1900 4450 
L 1900 150 
L 1400 150 
L 1400 3600 
z
" transform="scale(0.015625)"/>
       </defs>
       <use xlink:href="#SimHei-31"/>
       <use xlink:href="#SimHei-30" x="50"/>
       <use xlink:href="#SimHei-30" x="100"/>
       <use xlink:href="#SimHei-30" x="150"/>
       <use xlink:href="#SimHei-30" x="200"/>
      </g>
     </g>
    </g>
    <g id="xtick_4">
     <g id="line2d_7">
      <path d="M 349.126804 450.823965 
L 349.126804 70.931424 
" clip-path="url(#pdc90d6d454)" style="fill: none; stroke-dasharray: 2.96,1.28; stroke-dashoffset: 0; stroke: #b0b0b0; stroke-opacity: 0.7; stroke-width: 0.8"/>
     </g>
     <g id="line2d_8">
      <g>
       <use xlink:href="#mf58f9033a5" x="349.126804" y="450.823965" style="stroke: #000000; stroke-width: 0.8"/>
      </g>
     </g>
     <g id="text_4">
      <!-- 15000 -->
      <g transform="translate(336.626804 464.698965) scale(0.1 -0.1)">
       <use xlink:href="#SimHei-31"/>
       <use xlink:href="#SimHei-35" x="50"/>
       <use xlink:href="#SimHei-30" x="100"/>
       <use xlink:href="#SimHei-30" x="150"/>
       <use xlink:href="#SimHei-30" x="200"/>
      </g>
     </g>
    </g>
    <g id="xtick_5">
     <g id="line2d_9">
      <path d="M 441.167747 450.823965 
L 441.167747 70.931424 
" clip-path="url(#pdc90d6d454)" style="fill: none; stroke-dasharray: 2.96,1.28; stroke-dashoffset: 0; stroke: #b0b0b0; stroke-opacity: 0.7; stroke-width: 0.8"/>
     </g>
     <g id="line2d_10">
      <g>
       <use xlink:href="#mf58f9033a5" x="441.167747" y="450.823965" style="stroke: #000000; stroke-width: 0.8"/>
      </g>
     </g>
     <g id="text_5">
      <!-- 20000 -->
      <g transform="translate(428.667747 464.698965) scale(0.1 -0.1)">
       <defs>
        <path id="SimHei-32" d="M 300 250 
Q 325 625 650 925 
Q 975 1225 1475 1862 
Q 1975 2500 2125 2850 
Q 2275 3200 2237 3450 
Q 2200 3700 2000 3862 
Q 1800 4025 1537 4000 
Q 1275 3975 1037 3800 
Q 800 3625 675 3275 
L 200 3350 
Q 400 3925 712 4187 
Q 1025 4450 1450 4475 
Q 1700 4500 1900 4462 
Q 2100 4425 2312 4287 
Q 2525 4150 2662 3875 
Q 2800 3600 2762 3212 
Q 2725 2825 2375 2287 
Q 2025 1750 1025 600 
L 2825 600 
L 2825 150 
L 300 150 
L 300 250 
z
" transform="scale(0.015625)"/>
       </defs>
       <use xlink:href="#SimHei-32"/>
       <use xlink:href="#SimHei-30" x="50"/>
       <use xlink:href="#SimHei-30" x="100"/>
       <use xlink:href="#SimHei-30" x="150"/>
       <use xlink:href="#SimHei-30" x="200"/>
      </g>
     </g>
    </g>
    <g id="xtick_6">
     <g id="line2d_11">
      <path d="M 533.20869 450.823965 
L 533.20869 70.931424 
" clip-path="url(#pdc90d6d454)" style="fill: none; stroke-dasharray: 2.96,1.28; stroke-dashoffset: 0; stroke: #b0b0b0; stroke-opacity: 0.7; stroke-width: 0.8"/>
     </g>
     <g id="line2d_12">
      <g>
       <use xlink:href="#mf58f9033a5" x="533.20869" y="450.823965" style="stroke: #000000; stroke-width: 0.8"/>
      </g>
     </g>
     <g id="text_6">
      <!-- 25000 -->
      <g transform="translate(520.70869 464.698965) scale(0.1 -0.1)">
       <use xlink:href="#SimHei-32"/>
       <use xlink:href="#SimHei-35" x="50"/>
       <use xlink:href="#SimHei-30" x="100"/>
       <use xlink:href="#SimHei-30" x="150"/>
       <use xlink:href="#SimHei-30" x="200"/>
      </g>
     </g>
    </g>
    <g id="xtick_7">
     <g id="line2d_13">
      <path d="M 625.249633 450.823965 
L 625.249633 70.931424 
" clip-path="url(#pdc90d6d454)" style="fill: none; stroke-dasharray: 2.96,1.28; stroke-dashoffset: 0; stroke: #b0b0b0; stroke-opacity: 0.7; stroke-width: 0.8"/>
     </g>
     <g id="line2d_14">
      <g>
       <use xlink:href="#mf58f9033a5" x="625.249633" y="450.823965" style="stroke: #000000; stroke-width: 0.8"/>
      </g>
     </g>
     <g id="text_7">
      <!-- 30000 -->
      <g transform="translate(612.749633 464.698965) scale(0.1 -0.1)">
       <defs>
        <path id="SimHei-33" d="M 250 1225 
L 700 1300 
Q 800 975 1025 762 
Q 1250 550 1587 562 
Q 1925 575 2125 837 
Q 2325 1100 2300 1437 
Q 2275 1775 2037 1962 
Q 1800 2150 1275 2225 
L 1275 2550 
Q 1800 2600 2037 2825 
Q 2275 3050 2250 3412 
Q 2225 3775 1925 3937 
Q 1625 4100 1287 3975 
Q 950 3850 750 3275 
L 300 3350 
Q 450 3800 712 4100 
Q 975 4400 1425 4450 
Q 1875 4500 2212 4337 
Q 2550 4175 2687 3837 
Q 2825 3500 2725 3100 
Q 2625 2700 2150 2400 
Q 2500 2250 2687 1950 
Q 2875 1650 2812 1162 
Q 2750 675 2375 375 
Q 2000 75 1525 87 
Q 1050 100 700 387 
Q 350 675 250 1225 
z
" transform="scale(0.015625)"/>
       </defs>
       <use xlink:href="#SimHei-33"/>
       <use xlink:href="#SimHei-30" x="50"/>
       <use xlink:href="#SimHei-30" x="100"/>
       <use xlink:href="#SimHei-30" x="150"/>
       <use xlink:href="#SimHei-30" x="200"/>
      </g>
     </g>
    </g>
    <g id="xtick_8">
     <g id="line2d_15">
      <path d="M 717.290576 450.823965 
L 717.290576 70.931424 
" clip-path="url(#pdc90d6d454)" style="fill: none; stroke-dasharray: 2.96,1.28; stroke-dashoffset: 0; stroke: #b0b0b0; stroke-opacity: 0.7; stroke-width: 0.8"/>
     </g>
     <g id="line2d_16">
      <g>
       <use xlink:href="#mf58f9033a5" x="717.290576" y="450.823965" style="stroke: #000000; stroke-width: 0.8"/>
      </g>
     </g>
     <g id="text_8">
      <!-- 35000 -->
      <g transform="translate(704.790576 464.698965) scale(0.1 -0.1)">
       <use xlink:href="#SimHei-33"/>
       <use xlink:href="#SimHei-35" x="50"/>
       <use xlink:href="#SimHei-30" x="100"/>
       <use xlink:href="#SimHei-30" x="150"/>
       <use xlink:href="#SimHei-30" x="200"/>
      </g>
     </g>
    </g>
    <g id="xtick_9">
     <g id="line2d_17">
      <path d="M 809.331519 450.823965 
L 809.331519 70.931424 
" clip-path="url(#pdc90d6d454)" style="fill: none; stroke-dasharray: 2.96,1.28; stroke-dashoffset: 0; stroke: #b0b0b0; stroke-opacity: 0.7; stroke-width: 0.8"/>
     </g>
     <g id="line2d_18">
      <g>
       <use xlink:href="#mf58f9033a5" x="809.331519" y="450.823965" style="stroke: #000000; stroke-width: 0.8"/>
      </g>
     </g>
     <g id="text_9">
      <!-- 40000 -->
      <g transform="translate(796.831519 464.698965) scale(0.1 -0.1)">
       <defs>
        <path id="SimHei-34" d="M 2000 1100 
L 75 1100 
L 75 1525 
L 2100 4450 
L 2475 4450 
L 2475 1525 
L 3075 1525 
L 3075 1100 
L 2475 1100 
L 2475 150 
L 2000 150 
L 2000 1100 
z
M 2000 1525 
L 2000 3500 
L 600 1525 
L 2000 1525 
z
" transform="scale(0.015625)"/>
       </defs>
       <use xlink:href="#SimHei-34"/>
       <use xlink:href="#SimHei-30" x="50"/>
       <use xlink:href="#SimHei-30" x="100"/>
       <use xlink:href="#SimHei-30" x="150"/>
       <use xlink:href="#SimHei-30" x="200"/>
      </g>
     </g>
    </g>
    <g id="text_10">
     <!-- 行程 s (mm) -->
     <g transform="translate(409.825 479.65209) scale(0.12 -0.12)">
      <defs>
       <path id="SimHei-884c" d="M 5300 3100 
Q 5775 3100 6175 3125 
L 6175 2625 
Q 5775 2650 5325 2650 
L 4975 2650 
L 4975 -75 
Q 5000 -375 4787 -487 
Q 4575 -600 3950 -675 
Q 3900 -375 3675 -75 
Q 4100 -125 4275 -112 
Q 4450 -100 4475 150 
L 4475 2650 
L 3475 2650 
Q 3000 2650 2575 2625 
L 2575 3125 
Q 3025 3100 3475 3100 
L 5300 3100 
z
M 2300 3400 
Q 2075 3275 1962 3075 
Q 1850 2875 1650 2575 
L 1650 325 
Q 1650 0 1675 -675 
L 1150 -675 
Q 1175 75 1175 450 
L 1175 2050 
Q 950 1675 575 1300 
Q 400 1550 250 1725 
Q 825 2275 1150 2775 
Q 1475 3275 1725 3725 
Q 1975 3575 2300 3400 
z
M 4875 4800 
Q 5300 4800 5750 4825 
L 5750 4350 
Q 5300 4375 4825 4375 
L 3900 4375 
Q 3350 4375 2950 4350 
L 2950 4825 
Q 3350 4800 3900 4800 
L 4875 4800 
z
M 2075 4925 
Q 1875 4900 1550 4387 
Q 1225 3875 650 3250 
Q 500 3450 325 3625 
Q 725 4025 1050 4487 
Q 1375 4950 1525 5300 
Q 1775 5150 2075 4925 
z
" transform="scale(0.015625)"/>
       <path id="SimHei-7a0b" d="M 5825 4975 
Q 5800 4425 5800 3975 
Q 5800 3550 5825 3125 
L 3025 3125 
Q 3050 3600 3050 4025 
Q 3050 4450 3025 4975 
L 5825 4975 
z
M 400 4825 
Q 825 4875 1362 4987 
Q 1900 5100 2275 5275 
Q 2450 4950 2625 4725 
Q 2450 4750 2262 4712 
Q 2075 4675 1850 4650 
L 1850 3425 
Q 2200 3425 2600 3450 
L 2600 2975 
Q 2200 3000 1850 3000 
L 1850 800 
Q 1850 250 1875 -675 
L 1375 -675 
Q 1400 250 1400 775 
L 1400 1925 
Q 1050 1225 625 600 
Q 450 850 225 1050 
Q 575 1400 850 1850 
Q 1125 2300 1350 3000 
Q 725 3000 425 2975 
L 425 3450 
Q 850 3425 1050 3425 
L 1400 3425 
L 1400 4550 
Q 1075 4475 575 4400 
Q 500 4625 400 4825 
z
M 5100 2500 
Q 5500 2500 5950 2525 
L 5950 2075 
Q 5500 2100 5100 2100 
L 4625 2100 
L 4625 1300 
L 4900 1300 
Q 5275 1300 5775 1325 
L 5775 850 
Q 5275 875 4975 875 
L 4625 875 
L 4625 0 
L 5225 0 
Q 5675 0 6175 25 
L 6175 -450 
Q 5775 -425 5225 -425 
L 3550 -425 
Q 3000 -425 2600 -475 
L 2600 25 
Q 3000 0 3550 0 
L 4150 0 
L 4150 875 
L 3800 875 
Q 3400 875 3050 825 
L 3050 1325 
Q 3400 1300 3800 1300 
L 4150 1300 
L 4150 2100 
L 3750 2100 
Q 3300 2100 2900 2075 
L 2900 2525 
Q 3300 2500 3750 2500 
L 5100 2500 
z
M 5275 3575 
L 5275 4550 
L 3500 4550 
L 3500 3575 
L 5275 3575 
z
M 2300 2400 
Q 2550 2025 2825 1525 
Q 2675 1425 2425 1225 
Q 2175 1775 1925 2125 
Q 2075 2250 2300 2400 
z
" transform="scale(0.015625)"/>
       <path id="SimHei-20" transform="scale(0.015625)"/>
       <path id="SimHei-73" d="M 2750 900 
Q 2750 500 2437 287 
Q 2125 75 1650 75 
Q 1050 75 725 312 
Q 400 550 400 1000 
L 900 1000 
Q 900 700 1112 600 
Q 1325 500 1625 500 
Q 1925 500 2075 612 
Q 2225 725 2225 900 
Q 2225 1025 2100 1150 
Q 1975 1275 1475 1350 
Q 900 1425 687 1637 
Q 475 1850 475 2200 
Q 475 2500 762 2737 
Q 1050 2975 1600 2975 
Q 2100 2975 2387 2750 
Q 2675 2525 2675 2150 
L 2175 2150 
Q 2175 2375 2012 2462 
Q 1850 2550 1600 2550 
Q 1275 2550 1137 2437 
Q 1000 2325 1000 2175 
Q 1000 2000 1125 1900 
Q 1250 1800 1650 1750 
Q 2300 1650 2525 1437 
Q 2750 1225 2750 900 
z
" transform="scale(0.015625)"/>
       <path id="SimHei-28" d="M 2975 -200 
L 2700 -475 
Q 2075 125 1762 775 
Q 1450 1425 1450 2250 
Q 1450 3075 1762 3725 
Q 2075 4375 2700 5000 
L 2975 4725 
Q 2400 4175 2112 3587 
Q 1825 3000 1825 2250 
Q 1825 1500 2112 912 
Q 2400 325 2975 -200 
z
" transform="scale(0.015625)"/>
       <path id="SimHei-6d" d="M 3050 125 
L 2550 125 
L 2550 2150 
Q 2550 2300 2500 2400 
Q 2450 2500 2300 2500 
Q 2125 2500 1975 2312 
Q 1825 2125 1825 1825 
L 1825 125 
L 1325 125 
L 1325 2150 
Q 1325 2300 1275 2400 
Q 1225 2500 1075 2500 
Q 900 2500 750 2312 
Q 600 2125 600 1825 
L 600 125 
L 100 125 
L 100 2925 
L 600 2925 
L 600 2550 
Q 725 2750 900 2862 
Q 1075 2975 1275 2975 
Q 1475 2975 1612 2862 
Q 1750 2750 1800 2550 
Q 1925 2750 2087 2862 
Q 2250 2975 2450 2975 
Q 2750 2975 2900 2812 
Q 3050 2650 3050 2350 
L 3050 125 
z
" transform="scale(0.015625)"/>
       <path id="SimHei-29" d="M 1675 2250 
Q 1675 1425 1362 775 
Q 1050 125 425 -475 
L 150 -200 
Q 725 325 1012 912 
Q 1300 1500 1300 2250 
Q 1300 3000 1012 3587 
Q 725 4175 150 4725 
L 425 5000 
Q 1050 4375 1362 3725 
Q 1675 3075 1675 2250 
z
" transform="scale(0.015625)"/>
      </defs>
      <use xlink:href="#SimHei-884c"/>
      <use xlink:href="#SimHei-7a0b" x="100"/>
      <use xlink:href="#SimHei-20" x="200"/>
      <use xlink:href="#SimHei-73" x="250"/>
      <use xlink:href="#SimHei-20" x="300"/>
      <use xlink:href="#SimHei-28" x="350"/>
      <use xlink:href="#SimHei-6d" x="400"/>
      <use xlink:href="#SimHei-6d" x="450"/>
      <use xlink:href="#SimHei-29" x="500"/>
     </g>
    </g>
   </g>
   <g id="matplotlib.axis_2">
    <g id="ytick_1">
     <g id="line2d_19">
      <path d="M 44.35625 433.556122 
L 841.29375 433.556122 
" clip-path="url(#pdc90d6d454)" style="fill: none; stroke-dasharray: 2.96,1.28; stroke-dashoffset: 0; stroke: #b0b0b0; stroke-opacity: 0.7; stroke-width: 0.8"/>
     </g>
     <g id="line2d_20">
      <defs>
       <path id="m49eb03b95a" d="M 0 0 
L -3.5 0 
" style="stroke: #000000; stroke-width: 0.8"/>
      </defs>
      <g>
       <use xlink:href="#m49eb03b95a" x="44.35625" y="433.556122" style="stroke: #000000; stroke-width: 0.8"/>
      </g>
     </g>
     <g id="text_11">
      <!-- 0.0 -->
      <g transform="translate(22.35625 436.993622) scale(0.1 -0.1)">
       <defs>
        <path id="SimHei-2e" d="M 1075 125 
L 500 125 
L 500 675 
L 1075 675 
L 1075 125 
z
" transform="scale(0.015625)"/>
       </defs>
       <use xlink:href="#SimHei-30"/>
       <use xlink:href="#SimHei-2e" x="50"/>
       <use xlink:href="#SimHei-30" x="100"/>
      </g>
     </g>
    </g>
    <g id="ytick_2">
     <g id="line2d_21">
      <path d="M 44.35625 387.509032 
L 841.29375 387.509032 
" clip-path="url(#pdc90d6d454)" style="fill: none; stroke-dasharray: 2.96,1.28; stroke-dashoffset: 0; stroke: #b0b0b0; stroke-opacity: 0.7; stroke-width: 0.8"/>
     </g>
     <g id="line2d_22">
      <g>
       <use xlink:href="#m49eb03b95a" x="44.35625" y="387.509032" style="stroke: #000000; stroke-width: 0.8"/>
      </g>
     </g>
     <g id="text_12">
      <!-- 0.1 -->
      <g transform="translate(22.35625 390.946532) scale(0.1 -0.1)">
       <use xlink:href="#SimHei-30"/>
       <use xlink:href="#SimHei-2e" x="50"/>
       <use xlink:href="#SimHei-31" x="100"/>
      </g>
     </g>
    </g>
    <g id="ytick_3">
     <g id="line2d_23">
      <path d="M 44.35625 341.461943 
L 841.29375 341.461943 
" clip-path="url(#pdc90d6d454)" style="fill: none; stroke-dasharray: 2.96,1.28; stroke-dashoffset: 0; stroke: #b0b0b0; stroke-opacity: 0.7; stroke-width: 0.8"/>
     </g>
     <g id="line2d_24">
      <g>
       <use xlink:href="#m49eb03b95a" x="44.35625" y="341.461943" style="stroke: #000000; stroke-width: 0.8"/>
      </g>
     </g>
     <g id="text_13">
      <!-- 0.2 -->
      <g transform="translate(22.35625 344.899443) scale(0.1 -0.1)">
       <use xlink:href="#SimHei-30"/>
       <use xlink:href="#SimHei-2e" x="50"/>
       <use xlink:href="#SimHei-32" x="100"/>
      </g>
     </g>
    </g>
    <g id="ytick_4">
     <g id="line2d_25">
      <path d="M 44.35625 295.414853 
L 841.29375 295.414853 
" clip-path="url(#pdc90d6d454)" style="fill: none; stroke-dasharray: 2.96,1.28; stroke-dashoffset: 0; stroke: #b0b0b0; stroke-opacity: 0.7; stroke-width: 0.8"/>
     </g>
     <g id="line2d_26">
      <g>
       <use xlink:href="#m49eb03b95a" x="44.35625" y="295.414853" style="stroke: #000000; stroke-width: 0.8"/>
      </g>
     </g>
     <g id="text_14">
      <!-- 0.3 -->
      <g transform="translate(22.35625 298.852353) scale(0.1 -0.1)">
       <use xlink:href="#SimHei-30"/>
       <use xlink:href="#SimHei-2e" x="50"/>
       <use xlink:href="#SimHei-33" x="100"/>
      </g>
     </g>
    </g>
    <g id="ytick_5">
     <g id="line2d_27">
      <path d="M 44.35625 249.367764 
L 841.29375 249.367764 
" clip-path="url(#pdc90d6d454)" style="fill: none; stroke-dasharray: 2.96,1.28; stroke-dashoffset: 0; stroke: #b0b0b0; stroke-opacity: 0.7; stroke-width: 0.8"/>
     </g>
     <g id="line2d_28">
      <g>
       <use xlink:href="#m49eb03b95a" x="44.35625" y="249.367764" style="stroke: #000000; stroke-width: 0.8"/>
      </g>
     </g>
     <g id="text_15">
      <!-- 0.4 -->
      <g transform="translate(22.35625 252.805264) scale(0.1 -0.1)">
       <use xlink:href="#SimHei-30"/>
       <use xlink:href="#SimHei-2e" x="50"/>
       <use xlink:href="#SimHei-34" x="100"/>
      </g>
     </g>
    </g>
    <g id="ytick_6">
     <g id="line2d_29">
      <path d="M 44.35625 203.320674 
L 841.29375 203.320674 
" clip-path="url(#pdc90d6d454)" style="fill: none; stroke-dasharray: 2.96,1.28; stroke-dashoffset: 0; stroke: #b0b0b0; stroke-opacity: 0.7; stroke-width: 0.8"/>
     </g>
     <g id="line2d_30">
      <g>
       <use xlink:href="#m49eb03b95a" x="44.35625" y="203.320674" style="stroke: #000000; stroke-width: 0.8"/>
      </g>
     </g>
     <g id="text_16">
      <!-- 0.5 -->
      <g transform="translate(22.35625 206.758174) scale(0.1 -0.1)">
       <use xlink:href="#SimHei-30"/>
       <use xlink:href="#SimHei-2e" x="50"/>
       <use xlink:href="#SimHei-35" x="100"/>
      </g>
     </g>
    </g>
    <g id="ytick_7">
     <g id="line2d_31">
      <path d="M 44.35625 157.273584 
L 841.29375 157.273584 
" clip-path="url(#pdc90d6d454)" style="fill: none; stroke-dasharray: 2.96,1.28; stroke-dashoffset: 0; stroke: #b0b0b0; stroke-opacity: 0.7; stroke-width: 0.8"/>
     </g>
     <g id="line2d_32">
      <g>
       <use xlink:href="#m49eb03b95a" x="44.35625" y="157.273584" style="stroke: #000000; stroke-width: 0.8"/>
      </g>
     </g>
     <g id="text_17">
      <!-- 0.6 -->
      <g transform="translate(22.35625 160.711084) scale(0.1 -0.1)">
       <defs>
        <path id="SimHei-36" d="M 250 1612 
Q 275 1975 387 2225 
Q 500 2475 725 2850 
L 1750 4450 
L 2325 4450 
L 1275 2800 
Q 1950 2975 2350 2750 
Q 2750 2525 2887 2237 
Q 3025 1950 3037 1612 
Q 3050 1275 2937 950 
Q 2825 625 2537 362 
Q 2250 100 1737 75 
Q 1225 50 862 262 
Q 500 475 362 862 
Q 225 1250 250 1612 
z
M 1025 787 
Q 1250 550 1625 525 
Q 2000 500 2250 775 
Q 2500 1050 2500 1575 
Q 2500 2100 2187 2300 
Q 1875 2500 1487 2450 
Q 1100 2400 925 2075 
Q 750 1750 775 1387 
Q 800 1025 1025 787 
z
" transform="scale(0.015625)"/>
       </defs>
       <use xlink:href="#SimHei-30"/>
       <use xlink:href="#SimHei-2e" x="50"/>
       <use xlink:href="#SimHei-36" x="100"/>
      </g>
     </g>
    </g>
    <g id="ytick_8">
     <g id="line2d_33">
      <path d="M 44.35625 111.226495 
L 841.29375 111.226495 
" clip-path="url(#pdc90d6d454)" style="fill: none; stroke-dasharray: 2.96,1.28; stroke-dashoffset: 0; stroke: #b0b0b0; stroke-opacity: 0.7; stroke-width: 0.8"/>
     </g>
     <g id="line2d_34">
      <g>
       <use xlink:href="#m49eb03b95a" x="44.35625" y="111.226495" style="stroke: #000000; stroke-width: 0.8"/>
      </g>
     </g>
     <g id="text_18">
      <!-- 0.7 -->
      <g transform="translate(22.35625 114.663995) scale(0.1 -0.1)">
       <defs>
        <path id="SimHei-37" d="M 850 150 
Q 1300 2050 2425 3925 
L 275 3925 
L 275 4375 
L 2950 4375 
L 2950 3950 
Q 1775 2050 1400 150 
L 850 150 
z
" transform="scale(0.015625)"/>
       </defs>
       <use xlink:href="#SimHei-30"/>
       <use xlink:href="#SimHei-2e" x="50"/>
       <use xlink:href="#SimHei-37" x="100"/>
      </g>
     </g>
    </g>
    <g id="text_19">
     <!-- 切深 ap (mm) -->
     <g transform="translate(16.85625 296.877694) rotate(-90) scale(0.12 -0.12)">
      <defs>
       <path id="SimHei-5207" d="M 4200 125 
Q 4875 125 5037 187 
Q 5200 250 5225 525 
L 5400 4175 
L 4250 4175 
Q 4275 2875 4075 1987 
Q 3875 1100 3500 575 
Q 3125 50 2425 -575 
Q 2275 -375 1900 -250 
Q 2550 200 2937 675 
Q 3325 1150 3550 1925 
Q 3775 2700 3750 4175 
Q 3200 4175 2700 4150 
L 2700 4600 
Q 3175 4575 3625 4575 
L 5900 4575 
Q 5875 4200 5850 3700 
L 5700 325 
Q 5625 -250 5312 -337 
Q 5000 -425 4450 -525 
Q 4400 -200 4200 125 
z
M 1175 4275 
Q 1175 4625 1150 5000 
L 1650 5000 
Q 1625 4625 1625 4300 
L 1625 3275 
Q 2150 3350 2700 3425 
Q 2725 3150 2750 2975 
Q 2325 2925 1625 2850 
L 1625 1050 
Q 2325 1475 2650 1750 
Q 2725 1550 2875 1300 
Q 2325 975 1225 200 
Q 1075 500 925 650 
Q 1175 850 1175 1125 
L 1175 2775 
Q 675 2725 325 2675 
Q 300 2975 275 3150 
Q 650 3175 1175 3225 
L 1175 4275 
z
" transform="scale(0.015625)"/>
       <path id="SimHei-6df1" d="M 3675 -625 
Q 3700 -175 3700 25 
L 3700 1675 
Q 3350 975 2925 475 
Q 2500 -25 2150 -325 
Q 2000 -150 1700 0 
Q 2150 275 2600 800 
Q 3050 1325 3225 1825 
Q 2600 1825 2125 1800 
L 2125 2250 
Q 2525 2225 3700 2225 
Q 3700 2675 3675 3050 
L 4200 3050 
Q 4175 2675 4175 2225 
Q 5400 2225 6000 2250 
L 6000 1800 
Q 5600 1825 4575 1825 
Q 4750 1325 5175 862 
Q 5600 400 6125 200 
Q 5825 75 5725 -200 
Q 5200 100 4800 562 
Q 4400 1025 4175 1750 
L 4175 25 
Q 4175 -125 4225 -625 
L 3675 -625 
z
M 5875 4850 
Q 5850 4600 5850 4300 
Q 5850 4025 5875 3725 
L 5375 3725 
L 5375 4450 
L 2550 4450 
L 2550 3650 
L 2075 3650 
Q 2100 4025 2100 4275 
Q 2100 4525 2075 4850 
L 5875 4850 
z
M 1850 1525 
Q 1625 1150 1362 487 
Q 1100 -175 975 -525 
Q 725 -350 375 -250 
Q 625 50 950 712 
Q 1275 1375 1450 1850 
Q 1625 1650 1850 1525 
z
M 4625 4075 
Q 5100 3650 5700 2975 
Q 5450 2825 5300 2625 
Q 4775 3350 4250 3775 
Q 4450 3925 4625 4075 
z
M 3700 3750 
Q 3500 3650 3200 3312 
Q 2900 2975 2500 2600 
Q 2325 2775 2050 2900 
Q 2425 3125 2775 3487 
Q 3125 3850 3250 4050 
Q 3425 3900 3700 3750 
z
M 550 3650 
Q 1125 3300 1600 2900 
Q 1450 2750 1300 2500 
Q 850 2975 275 3275 
Q 400 3450 550 3650 
z
M 1000 5150 
Q 1450 4850 1950 4400 
Q 1775 4250 1625 4025 
Q 1175 4525 675 4850 
Q 850 4950 1000 5150 
z
" transform="scale(0.015625)"/>
       <path id="SimHei-61" d="M 2875 125 
L 2275 125 
Q 2225 175 2200 262 
Q 2175 350 2175 475 
Q 2000 275 1750 175 
Q 1500 75 1225 75 
Q 825 75 550 275 
Q 275 475 275 850 
Q 275 1225 525 1450 
Q 775 1675 1300 1750 
Q 1650 1800 1912 1875 
Q 2175 1950 2175 2075 
Q 2175 2225 2062 2375 
Q 1950 2525 1575 2525 
Q 1275 2525 1137 2412 
Q 1000 2300 950 2100 
L 400 2100 
Q 450 2500 762 2737 
Q 1075 2975 1575 2975 
Q 2125 2975 2400 2725 
Q 2675 2475 2675 2025 
L 2675 650 
Q 2675 500 2725 375 
Q 2775 250 2875 125 
z
M 2175 1050 
L 2175 1550 
Q 2025 1500 1887 1462 
Q 1750 1425 1425 1375 
Q 1050 1325 937 1200 
Q 825 1075 825 900 
Q 825 750 937 637 
Q 1050 525 1275 525 
Q 1500 525 1762 650 
Q 2025 775 2175 1050 
z
" transform="scale(0.015625)"/>
       <path id="SimHei-70" d="M 2825 1525 
Q 2825 800 2475 425 
Q 2125 50 1625 50 
Q 1350 50 1150 162 
Q 950 275 800 500 
L 800 -800 
L 300 -800 
L 300 2925 
L 800 2925 
L 800 2550 
Q 950 2775 1150 2875 
Q 1350 2975 1625 2975 
Q 2125 2975 2475 2612 
Q 2825 2250 2825 1525 
z
M 2275 1525 
Q 2275 2000 2087 2262 
Q 1900 2525 1525 2525 
Q 1225 2525 1012 2262 
Q 800 2000 800 1525 
Q 800 1050 1012 775 
Q 1225 500 1525 500 
Q 1900 500 2087 775 
Q 2275 1050 2275 1525 
z
" transform="scale(0.015625)"/>
      </defs>
      <use xlink:href="#SimHei-5207"/>
      <use xlink:href="#SimHei-6df1" x="100"/>
      <use xlink:href="#SimHei-20" x="200"/>
      <use xlink:href="#SimHei-61" x="250"/>
      <use xlink:href="#SimHei-70" x="300"/>
      <use xlink:href="#SimHei-20" x="350"/>
      <use xlink:href="#SimHei-28" x="400"/>
      <use xlink:href="#SimHei-6d" x="450"/>
      <use xlink:href="#SimHei-6d" x="500"/>
      <use xlink:href="#SimHei-29" x="550"/>
     </g>
    </g>
   </g>
   <g id="line2d_35">
    <path d="M 80.580682 433.556122 
L 89.785144 433.556122 
L 89.785144 88.200648 
L 89.893697 88.200648 
L 97.633881 88.200648 
L 97.633881 433.556122 
L 98.191762 433.556122 
L 99.717615 433.556122 
L 99.744271 88.200648 
L 100.704156 88.200648 
L 100.838874 88.200648 
L 100.891263 433.556122 
L 101.586012 88.200648 
L 102.35536 88.200648 
L 102.35536 433.556122 
L 103.323805 88.200648 
L 103.53114 88.200648 
L 103.53114 433.556122 
L 104.456236 433.556122 
L 105.142549 433.556122 
L 105.142549 88.200648 
L 106.125739 88.200648 
L 107.568489 88.200648 
L 107.568489 433.556122 
L 108.563041 88.200648 
L 110.59288 88.200648 
L 110.59288 433.556122 
L 111.204739 88.200648 
L 115.825159 88.20249 
L 115.825159 433.556122 
L 116.248904 88.200648 
L 116.781496 88.200648 
L 118.146761 88.200648 
L 118.146761 433.556122 
L 118.198621 88.200648 
L 122.009443 88.20249 
L 122.009443 433.556122 
L 122.393254 433.556122 
L 123.638683 433.556122 
L 123.747236 88.20295 
L 131.48742 88.204792 
L 131.48742 433.556122 
L 132.059106 433.556122 
L 133.598766 433.556122 
L 133.691919 88.20295 
L 134.585307 88.204792 
L 134.720025 88.204792 
L 134.772413 433.556122 
L 135.467163 88.20295 
L 136.236511 88.204792 
L 136.236511 433.556122 
L 136.795424 88.20295 
L 137.204956 88.204792 
L 137.412291 88.20295 
L 137.412291 433.556122 
L 138.337387 433.556122 
L 139.0237 433.556122 
L 139.0237 88.20295 
L 140.00689 88.204792 
L 141.44964 88.20295 
L 141.44964 433.556122 
L 142.444192 88.20295 
L 144.474031 88.204792 
L 144.474031 433.556122 
L 145.08589 88.201108 
L 149.70631 88.20295 
L 149.70631 433.556122 
L 150.607729 88.201108 
L 150.662647 88.204792 
L 152.027912 88.20295 
L 152.027912 433.556122 
L 152.079772 88.204792 
L 155.890594 88.20295 
L 155.890594 433.556122 
L 156.288211 433.556122 
L 157.547446 433.556122 
L 157.547446 88.201108 
L 157.655999 88.201108 
L 165.396183 88.201108 
L 165.396183 433.556122 
L 165.981676 433.556122 
L 167.535142 433.556122 
L 167.561797 88.201108 
L 168.521682 88.20295 
L 168.6564 88.20295 
L 168.708789 433.556122 
L 168.857386 88.201108 
L 169.403538 88.201108 
L 170.172886 88.201108 
L 170.172886 433.556122 
L 171.141332 88.201108 
L 171.348667 88.201108 
L 171.348667 433.556122 
L 172.273763 433.556122 
L 172.960075 433.556122 
L 172.960075 88.201108 
L 173.943265 88.201108 
L 175.386015 88.201108 
L 175.386015 433.556122 
L 176.380568 88.201108 
L 178.410406 88.201108 
L 178.410406 433.556122 
L 179.022265 88.201108 
L 183.642685 88.20295 
L 183.642685 433.556122 
L 184.544104 88.199266 
L 184.599023 88.201108 
L 185.964287 88.201108 
L 185.964287 433.556122 
L 186.016147 88.201108 
L 189.826969 88.20295 
L 189.826969 433.556122 
L 190.238392 433.556122 
L 191.511434 433.556122 
L 191.619987 88.20295 
L 199.360171 88.204792 
L 199.360171 433.556122 
L 199.95947 433.556122 
L 201.526742 433.556122 
L 201.619894 88.20295 
L 202.513282 88.204792 
L 202.648 88.204792 
L 202.700389 433.556122 
L 203.395138 88.201108 
L 204.164486 88.204792 
L 204.164486 433.556122 
L 205.132932 88.204792 
L 205.340267 88.201108 
L 205.340267 433.556122 
L 206.265363 433.556122 
L 206.951675 433.556122 
L 207.189804 88.20295 
L 207.934865 88.204792 
L 209.377615 88.20295 
L 209.377615 433.556122 
L 210.344602 88.201108 
L 210.372168 88.201108 
L 212.402006 88.204792 
L 212.402006 433.556122 
L 212.488155 88.20295 
L 213.013866 88.20295 
L 217.634286 88.20295 
L 217.634286 433.556122 
L 218.535704 88.201108 
L 218.590623 88.204792 
L 219.955887 88.20295 
L 219.955887 433.556122 
L 220.007747 88.204792 
L 223.818569 88.204792 
L 223.818569 433.556122 
L 224.243799 433.556122 
L 225.522363 433.556122 
L 225.522363 295.415314 
L 225.630916 295.415314 
L 233.3711 295.415314 
L 233.3711 433.556122 
L 233.975921 433.556122 
L 235.521224 433.556122 
L 235.587721 295.413472 
L 236.51354 295.417156 
L 236.650755 295.415314 
L 236.668216 433.556122 
L 237.362965 295.415314 
L 238.132313 295.415314 
L 238.132313 433.556122 
L 238.433055 295.413472 
L 239.100758 295.415314 
L 239.308093 295.413472 
L 239.308093 433.556122 
L 240.233189 433.556122 
L 240.919502 433.556122 
L 241.15763 295.413472 
L 241.902692 295.413472 
L 243.345442 295.417156 
L 243.345442 433.556122 
L 243.479101 295.413472 
L 244.339994 295.413472 
L 246.369833 295.415314 
L 246.369833 433.556122 
L 246.981692 295.413472 
L 251.602112 295.417156 
L 251.602112 433.556122 
L 251.915408 295.413472 
L 252.558449 295.415314 
L 253.923714 295.415314 
L 253.923714 433.556122 
L 253.975574 295.415314 
L 257.786396 295.41163 
L 257.786396 433.556122 
L 258.217147 433.556122 
L 259.501234 433.556122 
L 259.501234 295.413472 
L 259.609787 295.413472 
L 267.349971 295.413472 
L 267.349971 433.556122 
L 267.960315 433.556122 
L 269.51114 433.556122 
L 269.51114 295.413472 
L 270.503456 295.413472 
L 270.640672 295.413472 
L 270.658132 433.556122 
L 271.352881 295.413472 
L 272.122229 295.413472 
L 272.122229 433.556122 
L 273.090675 295.413472 
L 273.29801 295.413472 
L 273.29801 433.556122 
L 274.223106 433.556122 
L 274.909418 433.556122 
L 274.909418 295.413472 
L 275.892608 295.415314 
L 277.335358 295.413472 
L 277.335358 433.556122 
L 278.329911 295.413472 
L 280.359749 295.413472 
L 280.359749 433.556122 
L 280.971608 295.413472 
L 285.592028 295.417156 
L 285.592028 433.556122 
L 286.015773 295.413472 
L 286.548366 295.413472 
L 287.91363 295.413472 
L 287.91363 433.556122 
L 287.96549 295.413472 
L 291.776312 295.415314 
L 291.776312 433.556122 
L 292.212586 433.556122 
L 293.505601 433.556122 
L 293.505601 210.227277 
L 293.614154 210.227277 
L 301.354338 210.227277 
L 301.354338 433.556122 
L 301.973609 433.556122 
L 303.531104 433.556122 
L 303.555903 210.227277 
L 304.515788 210.227277 
L 304.667965 210.227277 
L 304.702894 433.556122 
L 305.397644 210.227277 
L 306.166991 210.227277 
L 306.166991 433.556122 
L 307.135437 210.227277 
L 307.342772 210.227277 
L 307.342772 433.556122 
L 308.267868 433.556122 
L 308.954181 433.556122 
L 308.954181 210.227277 
L 309.93737 210.227277 
L 311.380121 210.227277 
L 311.380121 433.556122 
L 312.347107 210.225896 
L 312.374673 210.225896 
L 314.404511 210.227277 
L 314.404511 433.556122 
L 315.016371 210.227277 
L 319.636791 210.229119 
L 319.636791 433.556122 
L 320.060535 210.227277 
L 320.593128 210.227277 
L 321.958393 210.227277 
L 321.958393 433.556122 
L 322.010253 210.227277 
L 325.821075 210.229119 
L 325.821075 433.556122 
L 326.266277 433.556122 
L 327.568201 433.556122 
L 327.676754 210.687748 
L 335.416938 210.68959 
L 335.416938 433.556122 
L 336.045119 433.556122 
L 337.611541 433.556122 
L 337.702832 210.687748 
L 338.59622 210.68959 
L 338.748398 210.68959 
L 338.783327 433.556122 
L 339.478076 210.687748 
L 340.247424 210.68959 
L 340.247424 433.556122 
L 341.21587 210.68959 
L 341.423205 210.687748 
L 341.463317 433.556122 
L 342.348301 433.556122 
L 343.034613 433.556122 
L 343.272742 210.687748 
L 344.017803 210.68959 
L 345.460553 210.687748 
L 345.570999 433.556122 
L 346.42754 210.685906 
L 346.455106 210.687748 
L 348.484944 210.68959 
L 348.484944 433.556122 
L 349.096804 210.687748 
L 353.717224 210.68959 
L 353.717224 433.556122 
L 354.030519 210.687748 
L 354.673561 210.68959 
L 356.038825 210.687748 
L 356.041871 433.556122 
L 356.090685 210.68959 
L 359.901507 210.687748 
L 359.956732 433.556122 
L 360.355619 433.556122 
L 361.666471 433.556122 
L 361.775024 210.225896 
L 369.515208 210.227277 
L 369.515208 433.556122 
L 370.152317 433.556122 
L 371.932495 433.556122 
L 371.957285 210.227277 
L 372.832104 432.433683 
L 372.942553 432.433683 
L 372.942553 210.227277 
L 373.917223 210.227277 
L 376.050258 210.227277 
L 376.050258 433.556122 
L 376.846327 210.227277 
L 378.876165 210.227277 
L 378.876165 433.556122 
L 379.82108 433.556122 
L 380.900665 433.556122 
L 380.900665 210.227277 
L 381.883071 210.227277 
L 385.217601 210.227277 
L 385.217601 433.556122 
L 386.132647 433.556122 
L 386.707719 433.556122 
L 387.237212 210.225896 
L 387.347661 210.225896 
L 388.107959 210.225896 
L 388.111005 433.556122 
L 388.159819 210.227277 
L 393.1082 210.227277 
L 393.1082 433.556122 
L 393.57124 433.556122 
L 395.108395 433.556122 
L 395.216948 210.685906 
L 402.957132 210.687748 
L 402.965324 433.556122 
L 403.603151 433.556122 
L 405.392257 433.556122 
L 405.417041 210.687748 
L 406.29186 432.437196 
L 406.402309 432.437196 
L 406.402309 210.687748 
L 407.37698 210.687748 
L 409.510015 210.687748 
L 409.620461 433.556122 
L 410.278518 210.685906 
L 410.306083 210.685906 
L 412.335922 210.687748 
L 412.357448 433.556122 
L 412.947781 210.685906 
L 413.280836 433.556122 
L 414.360421 433.556122 
L 414.360421 210.685906 
L 415.342827 210.687748 
L 418.677357 210.687748 
L 418.694444 433.556122 
L 419.592403 433.556122 
L 420.167475 433.556122 
L 420.167475 210.685906 
L 420.807417 210.687748 
L 421.567715 210.687748 
L 421.570761 433.556122 
L 421.619575 210.687748 
L 426.567957 210.687748 
L 426.623181 433.556122 
L 427.039906 433.556122 
L 428.585989 433.556122 
L 428.694542 210.227277 
L 436.434726 210.229119 
L 436.434726 433.556122 
L 437.089673 433.556122 
L 438.887693 433.556122 
L 439.455672 210.227277 
L 439.787297 432.435437 
L 439.897746 432.435437 
L 440.579511 210.227277 
L 440.872416 210.229119 
L 443.005451 210.227277 
L 443.005451 433.556122 
L 443.80152 210.227277 
L 445.831358 210.229119 
L 445.831358 433.556122 
L 446.574891 210.227277 
L 446.776273 433.556122 
L 447.855858 433.556122 
L 447.855858 210.227277 
L 448.838264 210.229119 
L 452.172794 210.227277 
L 452.172794 433.556122 
L 453.08784 433.556122 
L 453.662912 433.556122 
L 453.662912 210.227277 
L 454.302854 210.229119 
L 455.063152 210.227277 
L 455.063152 433.556122 
L 455.115012 210.229119 
L 460.063393 210.229119 
L 460.063393 433.556122 
L 460.54427 433.556122 
L 462.099282 433.556122 
L 462.099282 210.227277 
L 462.207835 210.227277 
L 469.948019 210.227277 
L 469.948019 433.556122 
L 470.611893 433.556122 
L 472.418837 433.556122 
L 473.226894 210.225896 
L 473.318445 432.433683 
L 473.428894 432.433683 
L 473.428894 210.227277 
L 474.403565 210.227277 
L 476.5366 210.227277 
L 476.5366 433.556122 
L 476.879133 210.225896 
L 477.332668 210.227277 
L 479.362506 210.229119 
L 479.362506 433.556122 
L 479.974366 210.227277 
L 480.307421 433.556122 
L 481.387006 433.556122 
L 482.072065 210.225896 
L 482.369412 210.227277 
L 485.703942 210.227277 
L 485.703942 433.556122 
L 486.596911 210.225896 
L 486.618988 433.556122 
L 487.19406 433.556122 
L 487.723553 210.225896 
L 487.834002 210.227277 
L 488.5943 210.227277 
L 488.5943 433.556122 
L 488.64616 210.227277 
L 493.594542 210.227277 
L 493.594542 433.556122 
L 494.084347 433.556122 
L 495.648268 433.556122 
L 495.756821 210.687748 
L 495.756821 210.687748 
L 503.497005 210.687748 
L 503.505197 433.556122 
L 504.169789 433.556122 
L 505.98566 433.556122 
L 506.010445 210.687748 
L 506.885264 432.435437 
L 506.995713 432.435437 
L 506.995713 210.687748 
L 507.970383 210.687748 
L 510.103419 210.687748 
L 510.213865 433.556122 
L 510.376332 210.685906 
L 510.899487 210.687748 
L 512.929325 210.687748 
L 512.950852 433.556122 
L 513.87424 433.556122 
L 514.953825 433.556122 
L 515.900659 210.685906 
L 515.936231 210.687748 
L 519.270761 210.687748 
L 519.287847 433.556122 
L 519.883599 210.685906 
L 520.185807 433.556122 
L 520.760879 433.556122 
L 521.290372 210.687748 
L 521.400821 210.687748 
L 522.161119 210.687748 
L 522.164165 433.556122 
L 522.212979 210.687748 
L 527.16136 210.687748 
L 527.216585 433.556122 
L 527.660075 433.556122 
L 529.232942 433.556122 
L 529.232942 210.227277 
L 529.341513 210.227277 
L 537.081697 210.227277 
L 537.081697 433.556122 
L 537.763427 433.556122 
L 539.588225 433.556122 
L 539.613014 210.227277 
L 540.487833 432.431924 
L 540.598282 432.431924 
L 541.280048 210.227277 
L 541.572953 210.227277 
L 543.705988 210.227277 
L 543.705988 433.556122 
L 544.502056 210.227277 
L 546.531894 210.227277 
L 546.531894 433.556122 
L 547.476809 433.556122 
L 548.556394 433.556122 
L 548.556394 210.227277 
L 549.5388 210.227277 
L 552.87333 210.227277 
L 552.87333 433.556122 
L 553.486168 210.225896 
L 553.788376 433.556122 
L 554.363448 433.556122 
L 554.363448 210.227277 
L 555.00339 210.227277 
L 555.763688 210.227277 
L 555.763688 433.556122 
L 555.815548 210.227277 
L 560.763929 210.227277 
L 560.763929 433.556122 
L 561.271572 433.556122 
L 562.853367 433.556122 
L 562.853367 210.229119 
L 562.961938 210.229119 
L 570.702122 210.229119 
L 570.702122 433.556122 
L 571.392781 433.556122 
L 573.226506 433.556122 
L 573.552383 210.227277 
L 574.126114 432.431924 
L 574.236563 432.431924 
L 574.236563 210.229119 
L 575.211234 210.229119 
L 577.344269 210.227277 
L 577.344269 433.556122 
L 578.140337 210.225896 
L 580.170175 210.229119 
L 580.170175 433.556122 
L 580.782035 210.227277 
L 581.11509 433.556122 
L 582.194675 433.556122 
L 582.615562 210.227277 
L 583.177081 210.229119 
L 586.511611 210.227277 
L 586.511611 433.556122 
L 587.124449 210.225896 
L 587.426657 433.556122 
L 588.001729 433.556122 
L 588.531222 210.225896 
L 588.641671 210.229119 
L 589.401969 210.229119 
L 589.401969 433.556122 
L 589.453829 210.229119 
L 594.40221 210.227277 
L 594.40221 433.556122 
L 594.918781 433.556122 
L 596.509485 433.556122 
L 596.618057 210.687748 
L 596.618057 210.687748 
L 604.358241 210.687748 
L 604.366433 433.556122 
L 605.057809 433.556122 
L 606.900462 433.556122 
L 606.925246 210.687748 
L 607.800065 432.435437 
L 607.910514 432.435437 
L 607.910514 210.687748 
L 608.885185 210.687748 
L 611.01822 210.687748 
L 611.128666 433.556122 
L 611.666287 210.685906 
L 611.814288 210.687748 
L 613.844127 210.687748 
L 613.865653 433.556122 
L 614.789041 433.556122 
L 615.868627 433.556122 
L 616.070399 210.687748 
L 616.851033 210.68959 
L 620.185562 210.685906 
L 620.185562 433.556122 
L 621.100609 433.556122 
L 621.67568 433.556122 
L 622.205173 210.687748 
L 622.315623 210.687748 
L 623.07592 210.687748 
L 623.078966 433.556122 
L 623.12778 210.687748 
L 628.076162 210.687748 
L 628.131386 433.556122 
L 628.601642 433.556122 
L 630.201274 433.556122 
L 630.201274 210.227277 
L 630.309846 210.227277 
L 638.05003 210.227277 
L 638.05003 433.556122 
L 638.758526 433.556122 
L 640.610088 433.556122 
L 640.634877 210.227277 
L 641.509696 432.431924 
L 641.620146 432.431924 
L 642.301911 210.227277 
L 642.594816 210.227277 
L 644.727851 210.227277 
L 644.727851 433.556122 
L 645.52392 210.227277 
L 647.553758 210.227277 
L 647.553758 433.556122 
L 648.498673 433.556122 
L 649.578258 433.556122 
L 649.578258 210.227277 
L 650.560664 210.229119 
L 653.895194 210.225896 
L 653.91228 433.556122 
L 654.81024 433.556122 
L 655.385311 433.556122 
L 655.385311 210.227277 
L 656.025254 210.227277 
L 656.785551 210.227277 
L 656.785551 433.556122 
L 656.837412 210.227277 
L 661.785793 210.227277 
L 661.785793 433.556122 
L 662.320201 433.556122 
L 663.928743 433.556122 
L 664.037314 210.687748 
L 664.037314 210.687748 
L 671.777498 210.687748 
L 671.78569 433.556122 
L 672.494904 433.556122 
L 674.355394 433.556122 
L 674.380179 210.687748 
L 675.254998 432.435437 
L 675.365447 432.435437 
L 675.365447 210.687748 
L 676.340118 210.687748 
L 678.473153 210.687748 
L 678.583599 433.556122 
L 679.269221 210.687748 
L 681.299059 210.687748 
L 681.320586 433.556122 
L 682.243974 433.556122 
L 683.323559 433.556122 
L 683.323559 210.685906 
L 684.305965 210.68959 
L 687.640495 210.687748 
L 687.657582 433.556122 
L 688.253333 210.685906 
L 688.555541 433.556122 
L 689.130613 433.556122 
L 689.660106 210.687748 
L 689.770555 210.687748 
L 690.530853 210.687748 
L 690.533899 433.556122 
L 690.582713 210.687748 
L 695.531094 210.68959 
L 695.531094 433.556122 
L 696.074412 433.556122 
L 697.691882 433.556122 
L 697.800453 210.225896 
L 705.540637 210.227277 
L 705.540637 433.556122 
L 706.266971 433.556122 
L 708.136376 433.556122 
L 708.16116 210.227277 
L 709.035979 432.435437 
L 709.146428 432.435437 
L 709.828194 210.225896 
L 710.121099 210.227277 
L 712.254134 210.227277 
L 712.254134 433.556122 
L 713.022637 210.225896 
L 713.050202 210.225896 
L 715.080041 210.227277 
L 715.080041 433.556122 
L 715.823574 210.225896 
L 716.024955 433.556122 
L 717.10454 433.556122 
L 717.306313 210.225896 
L 718.086946 210.227277 
L 721.421476 210.227277 
L 721.421476 433.556122 
L 722.336522 433.556122 
L 722.911594 433.556122 
L 723.441087 210.225896 
L 723.551537 210.227277 
L 724.311834 210.225896 
L 724.31488 433.556122 
L 724.363694 210.227277 
L 729.312076 210.227277 
L 729.312076 433.556122 
L 729.864321 433.556122 
L 731.492228 433.556122 
L 731.6008 172.468664 
L 739.340984 172.470045 
L 739.340984 433.556122 
L 740.077755 433.556122 
L 740.650857 433.556122 
L 740.650857 172.928674 
L 740.759429 172.928674 
L 748.499613 172.928674 
L 748.499613 433.556122 
L 749.246803 433.556122 
L 749.830342 433.556122 
L 749.830342 172.468664 
L 749.938914 172.468664 
L 757.679098 172.468664 
L 757.679098 433.556122 
L 758.436725 433.556122 
L 759.030702 433.556122 
L 759.139274 172.468664 
L 766.879458 172.470045 
L 766.879458 433.556122 
L 767.647522 433.556122 
L 768.251918 433.556122 
L 768.251918 172.928674 
L 768.36049 172.928674 
L 776.100674 172.928674 
L 776.100674 433.556122 
L 776.879158 433.556122 
L 777.493991 433.556122 
L 777.602563 172.468664 
L 785.342747 172.470045 
L 785.342747 433.556122 
L 786.131668 433.556122 
L 786.756939 433.556122 
L 786.756939 172.468664 
L 786.865511 172.468664 
L 794.605695 172.468664 
L 794.605695 433.556122 
L 795.405053 433.556122 
L 796.040743 433.556122 
L 796.040743 172.928674 
L 796.149333 172.928674 
L 803.889517 172.928674 
L 803.889517 433.556122 
L 804.699314 433.556122 
L 805.069318 433.556122 
L 805.069318 433.556122 
" clip-path="url(#pdc90d6d454)" style="fill: none; stroke: #000000; stroke-width: 0.5; stroke-linecap: square"/>
   </g>
   <g id="patch_3">
    <path d="M 44.35625 450.823965 
L 44.35625 70.931424 
" style="fill: none; stroke: #000000; stroke-width: 0.8; stroke-linejoin: miter; stroke-linecap: square"/>
   </g>
   <g id="patch_4">
    <path d="M 841.29375 450.823965 
L 841.29375 70.931424 
" style="fill: none; stroke: #000000; stroke-width: 0.8; stroke-linejoin: miter; stroke-linecap: square"/>
   </g>
   <g id="patch_5">
    <path d="M 44.35625 450.823965 
L 841.29375 450.823965 
" style="fill: none; stroke: #000000; stroke-width: 0.8; stroke-linejoin: miter; stroke-linecap: square"/>
   </g>
   <g id="patch_6">
    <path d="M 44.35625 70.931424 
L 841.29375 70.931424 
" style="fill: none; stroke: #000000; stroke-width: 0.8; stroke-linejoin: miter; stroke-linecap: square"/>
   </g>
   <g id="text_20">
    <!-- 切深变化 -->
    <g transform="translate(414.825 18.465625) scale(0.14 -0.14)">
     <defs>
      <path id="SimHei-53d8" d="M 5200 1975 
Q 4950 1600 4537 1137 
Q 4125 675 3675 375 
Q 3925 225 4600 87 
Q 5275 -50 6000 -75 
Q 5700 -400 5650 -625 
Q 4850 -525 4212 -312 
Q 3575 -100 3225 125 
Q 2800 -125 2150 -325 
Q 1500 -525 700 -675 
Q 600 -425 400 -175 
Q 950 -150 1687 12 
Q 2425 175 2825 375 
Q 2275 775 1675 1575 
Q 1350 1575 1000 1550 
L 1000 2000 
Q 1450 1975 2075 1975 
L 5200 1975 
z
M 3225 5275 
Q 3400 4900 3550 4475 
L 4675 4475 
Q 5400 4475 5975 4500 
L 5975 4025 
Q 5375 4050 4725 4050 
L 4125 4050 
L 4125 2950 
Q 4125 2550 4150 2150 
L 3600 2150 
Q 3625 2550 3625 2950 
L 3625 4050 
L 2750 4050 
L 2750 2950 
Q 2750 2675 2775 2150 
L 2225 2150 
Q 2250 2675 2250 2950 
L 2250 4050 
L 1700 4050 
Q 975 4050 425 4025 
L 425 4500 
Q 950 4475 1700 4475 
L 2975 4475 
Q 2925 4675 2700 5125 
Q 2950 5150 3225 5275 
z
M 2200 1575 
Q 2650 975 3250 600 
Q 3850 1000 4275 1575 
L 2200 1575 
z
M 4850 3750 
Q 5375 3275 5950 2675 
Q 5750 2525 5500 2300 
Q 5075 2800 4450 3400 
Q 4675 3575 4850 3750 
z
M 1825 3500 
Q 1700 3375 1425 3025 
Q 1150 2675 825 2300 
Q 575 2475 375 2600 
Q 975 3150 1300 3825 
Q 1525 3650 1825 3500 
z
" transform="scale(0.015625)"/>
      <path id="SimHei-5316" d="M 3925 5025 
Q 3900 4900 3900 4400 
L 3900 2625 
Q 4375 3025 4775 3450 
Q 5175 3875 5400 4300 
Q 5600 4100 5900 3925 
Q 5700 3700 5225 3212 
Q 4750 2725 4487 2512 
Q 4225 2300 3900 2025 
L 3900 450 
Q 3900 50 4225 50 
L 5200 50 
Q 5400 75 5462 262 
Q 5525 450 5575 850 
Q 5800 650 6150 600 
Q 6000 -100 5825 -250 
Q 5650 -400 5350 -400 
L 3950 -400 
Q 3425 -400 3400 200 
L 3400 1675 
Q 3225 1525 2962 1350 
Q 2700 1175 2375 975 
Q 2225 1225 2025 1400 
Q 2350 1550 2737 1787 
Q 3125 2025 3400 2250 
L 3400 4500 
Q 3400 4800 3375 5025 
L 3925 5025 
z
M 2400 4850 
Q 2175 4550 2075 4337 
Q 1975 4125 1825 3775 
L 1825 675 
Q 1825 -75 1850 -550 
L 1325 -550 
Q 1350 -125 1350 650 
L 1350 3050 
Q 1125 2725 962 2525 
Q 800 2325 675 2175 
Q 500 2375 275 2525 
Q 625 2850 875 3212 
Q 1125 3575 1312 3912 
Q 1500 4250 1625 4575 
Q 1750 4900 1825 5100 
Q 1975 4975 2400 4850 
z
" transform="scale(0.015625)"/>
     </defs>
     <use xlink:href="#SimHei-5207"/>
     <use xlink:href="#SimHei-6df1" x="100"/>
     <use xlink:href="#SimHei-53d8" x="200"/>
     <use xlink:href="#SimHei-5316" x="300"/>
    </g>
   </g>
  </g>
  <g id="axes_2">
   <g id="matplotlib.axis_3">
    <g id="xtick_10">
     <g id="line2d_36">
      <defs>
       <path id="mdccb5382b0" d="M 0 0 
L 0 -3.5 
" style="stroke: #000000; stroke-width: 0.8"/>
      </defs>
      <g>
       <use xlink:href="#mdccb5382b0" x="80.580682" y="70.931424" style="stroke: #000000; stroke-width: 0.8"/>
      </g>
     </g>
     <g id="text_21">
      <!-- N0018 -->
      <g transform="translate(84.469769 63.224317) rotate(-45) scale(0.08 -0.08)">
       <defs>
        <path id="SimHei-4e" d="M 2850 125 
L 2225 125 
L 850 3225 
L 825 3225 
L 825 125 
L 250 125 
L 250 4400 
L 875 4400 
L 2250 1300 
L 2275 1300 
L 2275 4400 
L 2850 4400 
L 2850 125 
z
" transform="scale(0.015625)"/>
        <path id="SimHei-38" d="M 175 1375 
Q 175 1675 325 1962 
Q 475 2250 825 2425 
Q 525 2600 425 2812 
Q 325 3025 312 3300 
Q 300 3575 387 3775 
Q 475 3975 650 4150 
Q 825 4325 1037 4387 
Q 1250 4450 1500 4450 
Q 1750 4450 1950 4400 
Q 2150 4350 2375 4187 
Q 2600 4025 2700 3725 
Q 2800 3425 2687 3025 
Q 2575 2625 2100 2400 
Q 2525 2275 2700 2012 
Q 2875 1750 2875 1375 
Q 2875 1000 2762 775 
Q 2650 550 2512 400 
Q 2375 250 2137 162 
Q 1900 75 1537 75 
Q 1175 75 912 162 
Q 650 250 475 425 
Q 300 600 237 837 
Q 175 1075 175 1375 
z
M 687 1400 
Q 675 1100 787 875 
Q 900 650 1200 587 
Q 1500 525 1825 600 
Q 2150 675 2275 950 
Q 2400 1225 2362 1500 
Q 2325 1775 2050 1962 
Q 1775 2150 1450 2125 
Q 1125 2100 912 1900 
Q 700 1700 687 1400 
z
M 775 3350 
Q 775 3100 950 2875 
Q 1125 2650 1500 2650 
Q 1875 2650 2062 2875 
Q 2250 3100 2237 3412 
Q 2225 3725 2012 3875 
Q 1800 4025 1437 4000 
Q 1075 3975 925 3787 
Q 775 3600 775 3350 
z
" transform="scale(0.015625)"/>
       </defs>
       <use xlink:href="#SimHei-4e"/>
       <use xlink:href="#SimHei-30" x="50"/>
       <use xlink:href="#SimHei-30" x="100"/>
       <use xlink:href="#SimHei-31" x="150"/>
       <use xlink:href="#SimHei-38" x="200"/>
      </g>
     </g>
    </g>
    <g id="xtick_11">
     <g id="line2d_37">
      <g>
       <use xlink:href="#mdccb5382b0" x="142.809479" y="70.931424" style="stroke: #000000; stroke-width: 0.8"/>
      </g>
     </g>
     <g id="text_22">
      <!-- N0430 -->
      <g transform="translate(146.698566 63.224317) rotate(-45) scale(0.08 -0.08)">
       <use xlink:href="#SimHei-4e"/>
       <use xlink:href="#SimHei-30" x="50"/>
       <use xlink:href="#SimHei-34" x="100"/>
       <use xlink:href="#SimHei-33" x="150"/>
       <use xlink:href="#SimHei-30" x="200"/>
      </g>
     </g>
    </g>
    <g id="xtick_12">
     <g id="line2d_38">
      <g>
       <use xlink:href="#mdccb5382b0" x="195.424553" y="70.931424" style="stroke: #000000; stroke-width: 0.8"/>
      </g>
     </g>
     <g id="text_23">
      <!-- N0760.6 -->
      <g transform="translate(199.31364 63.224317) rotate(-45) scale(0.08 -0.08)">
       <use xlink:href="#SimHei-4e"/>
       <use xlink:href="#SimHei-30" x="50"/>
       <use xlink:href="#SimHei-37" x="100"/>
       <use xlink:href="#SimHei-36" x="150"/>
       <use xlink:href="#SimHei-30" x="200"/>
       <use xlink:href="#SimHei-2e" x="250"/>
       <use xlink:href="#SimHei-36" x="300"/>
      </g>
     </g>
    </g>
    <g id="xtick_13">
     <g id="line2d_39">
      <g>
       <use xlink:href="#mdccb5382b0" x="245.467558" y="70.931424" style="stroke: #000000; stroke-width: 0.8"/>
      </g>
     </g>
     <g id="text_24">
      <!-- N1160.12 -->
      <g transform="translate(249.356645 63.224317) rotate(-45) scale(0.08 -0.08)">
       <use xlink:href="#SimHei-4e"/>
       <use xlink:href="#SimHei-31" x="50"/>
       <use xlink:href="#SimHei-31" x="100"/>
       <use xlink:href="#SimHei-36" x="150"/>
       <use xlink:href="#SimHei-30" x="200"/>
       <use xlink:href="#SimHei-2e" x="250"/>
       <use xlink:href="#SimHei-31" x="300"/>
       <use xlink:href="#SimHei-32" x="350"/>
      </g>
     </g>
    </g>
    <g id="xtick_14">
     <g id="line2d_40">
      <g>
       <use xlink:href="#mdccb5382b0" x="301.272432" y="70.931424" style="stroke: #000000; stroke-width: 0.8"/>
      </g>
     </g>
     <g id="text_25">
      <!-- N1488 -->
      <g transform="translate(305.161519 63.224317) rotate(-45) scale(0.08 -0.08)">
       <use xlink:href="#SimHei-4e"/>
       <use xlink:href="#SimHei-31" x="50"/>
       <use xlink:href="#SimHei-34" x="100"/>
       <use xlink:href="#SimHei-38" x="150"/>
       <use xlink:href="#SimHei-38" x="200"/>
      </g>
     </g>
    </g>
    <g id="xtick_15">
     <g id="line2d_41">
      <g>
       <use xlink:href="#mdccb5382b0" x="348.614168" y="70.931424" style="stroke: #000000; stroke-width: 0.8"/>
      </g>
     </g>
     <g id="text_26">
      <!-- N1892.7 -->
      <g transform="translate(352.503256 63.224317) rotate(-45) scale(0.08 -0.08)">
       <defs>
        <path id="SimHei-39" d="M 800 75 
Q 1350 1000 1700 1750 
Q 1075 1650 662 1912 
Q 250 2175 162 2625 
Q 75 3075 175 3437 
Q 275 3800 487 4037 
Q 700 4275 1000 4375 
Q 1300 4475 1537 4475 
Q 1775 4475 2025 4375 
Q 2275 4275 2475 4075 
Q 2675 3875 2750 3662 
Q 2825 3450 2825 3112 
Q 2825 2775 2575 2250 
Q 2325 1725 1350 75 
L 800 75 
z
M 662 2875 
Q 700 2550 937 2337 
Q 1175 2125 1450 2150 
Q 1725 2175 1887 2300 
Q 2050 2425 2200 2725 
Q 2300 3100 2250 3362 
Q 2200 3625 1987 3800 
Q 1775 3975 1525 3975 
Q 1375 4000 1137 3900 
Q 900 3800 762 3500 
Q 625 3200 662 2875 
z
" transform="scale(0.015625)"/>
       </defs>
       <use xlink:href="#SimHei-4e"/>
       <use xlink:href="#SimHei-31" x="50"/>
       <use xlink:href="#SimHei-38" x="100"/>
       <use xlink:href="#SimHei-39" x="150"/>
       <use xlink:href="#SimHei-32" x="200"/>
       <use xlink:href="#SimHei-2e" x="250"/>
       <use xlink:href="#SimHei-37" x="300"/>
      </g>
     </g>
    </g>
    <g id="xtick_16">
     <g id="line2d_42">
      <g>
       <use xlink:href="#mdccb5382b0" x="410.306083" y="70.931424" style="stroke: #000000; stroke-width: 0.8"/>
      </g>
     </g>
     <g id="text_27">
      <!-- N2262.2 -->
      <g transform="translate(414.195171 63.224317) rotate(-45) scale(0.08 -0.08)">
       <use xlink:href="#SimHei-4e"/>
       <use xlink:href="#SimHei-32" x="50"/>
       <use xlink:href="#SimHei-32" x="100"/>
       <use xlink:href="#SimHei-36" x="150"/>
       <use xlink:href="#SimHei-32" x="200"/>
       <use xlink:href="#SimHei-2e" x="250"/>
       <use xlink:href="#SimHei-32" x="300"/>
      </g>
     </g>
    </g>
    <g id="xtick_17">
     <g id="line2d_43">
      <g>
       <use xlink:href="#mdccb5382b0" x="472.78625" y="70.931424" style="stroke: #000000; stroke-width: 0.8"/>
      </g>
     </g>
     <g id="text_28">
      <!-- N2632.4 -->
      <g transform="translate(476.675338 63.224317) rotate(-45) scale(0.08 -0.08)">
       <use xlink:href="#SimHei-4e"/>
       <use xlink:href="#SimHei-32" x="50"/>
       <use xlink:href="#SimHei-36" x="100"/>
       <use xlink:href="#SimHei-33" x="150"/>
       <use xlink:href="#SimHei-32" x="200"/>
       <use xlink:href="#SimHei-2e" x="250"/>
       <use xlink:href="#SimHei-34" x="300"/>
      </g>
     </g>
    </g>
    <g id="xtick_18">
     <g id="line2d_44">
      <g>
       <use xlink:href="#mdccb5382b0" x="531.194654" y="70.931424" style="stroke: #000000; stroke-width: 0.8"/>
      </g>
     </g>
     <g id="text_29">
      <!-- N3002.6 -->
      <g transform="translate(535.083741 63.224317) rotate(-45) scale(0.08 -0.08)">
       <use xlink:href="#SimHei-4e"/>
       <use xlink:href="#SimHei-33" x="50"/>
       <use xlink:href="#SimHei-30" x="100"/>
       <use xlink:href="#SimHei-30" x="150"/>
       <use xlink:href="#SimHei-32" x="200"/>
       <use xlink:href="#SimHei-2e" x="250"/>
       <use xlink:href="#SimHei-36" x="300"/>
      </g>
     </g>
    </g>
    <g id="xtick_19">
     <g id="line2d_45">
      <g>
       <use xlink:href="#mdccb5382b0" x="589.401969" y="70.931424" style="stroke: #000000; stroke-width: 0.8"/>
      </g>
     </g>
     <g id="text_30">
      <!-- N3386.1 -->
      <g transform="translate(593.291056 63.224317) rotate(-45) scale(0.08 -0.08)">
       <use xlink:href="#SimHei-4e"/>
       <use xlink:href="#SimHei-33" x="50"/>
       <use xlink:href="#SimHei-33" x="100"/>
       <use xlink:href="#SimHei-38" x="150"/>
       <use xlink:href="#SimHei-36" x="200"/>
       <use xlink:href="#SimHei-2e" x="250"/>
       <use xlink:href="#SimHei-31" x="300"/>
      </g>
     </g>
    </g>
    <g id="xtick_20">
     <g id="line2d_46">
      <g>
       <use xlink:href="#mdccb5382b0" x="651.976384" y="70.931424" style="stroke: #000000; stroke-width: 0.8"/>
      </g>
     </g>
     <g id="text_31">
      <!-- N3766.1 -->
      <g transform="translate(655.865471 63.224317) rotate(-45) scale(0.08 -0.08)">
       <use xlink:href="#SimHei-4e"/>
       <use xlink:href="#SimHei-33" x="50"/>
       <use xlink:href="#SimHei-37" x="100"/>
       <use xlink:href="#SimHei-36" x="150"/>
       <use xlink:href="#SimHei-36" x="200"/>
       <use xlink:href="#SimHei-2e" x="250"/>
       <use xlink:href="#SimHei-31" x="300"/>
      </g>
     </g>
    </g>
    <g id="xtick_21">
     <g id="line2d_47">
      <g>
       <use xlink:href="#mdccb5382b0" x="715.01661" y="70.931424" style="stroke: #000000; stroke-width: 0.8"/>
      </g>
     </g>
     <g id="text_32">
      <!-- N4148.14 -->
      <g transform="translate(718.905697 63.224317) rotate(-45) scale(0.08 -0.08)">
       <use xlink:href="#SimHei-4e"/>
       <use xlink:href="#SimHei-34" x="50"/>
       <use xlink:href="#SimHei-31" x="100"/>
       <use xlink:href="#SimHei-34" x="150"/>
       <use xlink:href="#SimHei-38" x="200"/>
       <use xlink:href="#SimHei-2e" x="250"/>
       <use xlink:href="#SimHei-31" x="300"/>
       <use xlink:href="#SimHei-34" x="350"/>
      </g>
     </g>
    </g>
    <g id="xtick_22">
     <g id="line2d_48">
      <g>
       <use xlink:href="#mdccb5382b0" x="803.946853" y="70.931424" style="stroke: #000000; stroke-width: 0.8"/>
      </g>
     </g>
     <g id="text_33">
      <!-- N4458.17 -->
      <g transform="translate(807.83594 63.224317) rotate(-45) scale(0.08 -0.08)">
       <use xlink:href="#SimHei-4e"/>
       <use xlink:href="#SimHei-34" x="50"/>
       <use xlink:href="#SimHei-34" x="100"/>
       <use xlink:href="#SimHei-35" x="150"/>
       <use xlink:href="#SimHei-38" x="200"/>
       <use xlink:href="#SimHei-2e" x="250"/>
       <use xlink:href="#SimHei-31" x="300"/>
       <use xlink:href="#SimHei-37" x="350"/>
      </g>
     </g>
    </g>
    <g id="text_34">
     <!-- 指令行号 N -->
     <g transform="translate(417.825 32.707812) scale(0.1 -0.1)">
      <defs>
       <path id="SimHei-6307" d="M 5625 2225 
Q 5600 1925 5600 1350 
L 5600 300 
Q 5600 -225 5625 -525 
L 5125 -525 
L 5125 -125 
L 3300 -125 
L 3300 -625 
L 2800 -625 
Q 2825 -300 2825 300 
L 2825 1350 
Q 2825 1925 2800 2225 
L 5625 2225 
z
M 500 25 
Q 1075 -25 1175 37 
Q 1275 100 1275 275 
L 1275 1675 
Q 1050 1600 925 1537 
Q 800 1475 475 1275 
Q 400 1525 225 1800 
Q 625 1900 825 1975 
Q 1025 2050 1275 2125 
L 1275 3300 
L 1100 3300 
Q 775 3300 450 3275 
L 450 3725 
Q 750 3700 1100 3700 
L 1275 3700 
L 1275 4450 
Q 1275 4800 1250 5125 
L 1775 5125 
Q 1750 4850 1750 4450 
L 1750 3700 
Q 2075 3700 2425 3725 
L 2425 3275 
Q 2050 3300 1750 3300 
L 1750 2325 
Q 1850 2350 2025 2425 
L 2375 2575 
Q 2350 2300 2375 2100 
Q 2225 2050 2062 1987 
Q 1900 1925 1750 1850 
L 1750 100 
Q 1725 -200 1575 -337 
Q 1425 -475 675 -525 
Q 625 -250 500 25 
z
M 3325 5025 
Q 3300 4675 3300 4125 
Q 4125 4275 4512 4412 
Q 4900 4550 5225 4725 
Q 5325 4475 5575 4250 
Q 5450 4225 5237 4175 
Q 5025 4125 4725 4050 
Q 4425 3975 4037 3887 
Q 3650 3800 3300 3725 
L 3300 3175 
Q 3275 2925 3700 2925 
L 4925 2925 
Q 5300 2925 5387 3087 
Q 5475 3250 5550 3600 
Q 5750 3400 6050 3300 
Q 5825 2725 5700 2637 
Q 5575 2550 5275 2525 
L 3350 2525 
Q 3050 2525 2937 2687 
Q 2825 2850 2825 2975 
L 2825 4125 
Q 2825 4775 2800 5025 
L 3325 5025 
z
M 5125 275 
L 5125 875 
L 3300 875 
L 3300 275 
L 5125 275 
z
M 5125 1250 
L 5125 1825 
L 3300 1825 
L 3300 1250 
L 5125 1250 
z
" transform="scale(0.015625)"/>
       <path id="SimHei-4ee4" d="M 5375 2075 
L 5375 1550 
Q 4925 1325 4450 937 
Q 3975 550 3575 125 
L 4250 -325 
Q 4050 -550 3875 -775 
Q 3100 -125 1850 425 
L 2150 875 
Q 2400 775 3125 350 
Q 3800 1025 4450 1625 
L 2025 1625 
Q 1500 1625 975 1600 
L 975 2100 
Q 1525 2075 2025 2075 
L 5375 2075 
z
M 3375 4850 
Q 4450 3550 6200 2900 
Q 5950 2625 5800 2350 
Q 4150 3150 3100 4475 
Q 2075 3125 625 2225 
Q 400 2525 200 2700 
Q 875 2975 1675 3675 
Q 2475 4375 2950 5300 
Q 3275 5175 3550 5050 
Q 3475 5000 3375 4850 
z
M 2925 3600 
Q 3175 3350 3750 2725 
L 3300 2325 
Q 3050 2700 2550 3225 
Q 2750 3375 2925 3600 
z
" transform="scale(0.015625)"/>
       <path id="SimHei-53f7" d="M 5025 4925 
Q 5000 4550 5000 4075 
Q 5000 3600 5025 3175 
L 1400 3175 
Q 1425 3525 1425 4000 
Q 1425 4500 1400 4925 
L 5025 4925 
z
M 5175 2625 
Q 5650 2625 6025 2650 
L 6025 2200 
Q 5650 2225 5175 2225 
L 2450 2225 
Q 2350 1875 2225 1450 
L 5175 1450 
Q 5100 1050 5062 775 
Q 5025 500 4950 112 
Q 4875 -275 4650 -412 
Q 4425 -550 3225 -625 
Q 3125 -350 2975 -50 
Q 3875 -75 4112 -50 
Q 4350 -25 4425 212 
Q 4500 450 4575 1025 
L 1600 1025 
Q 1825 1625 1950 2225 
L 1350 2225 
Q 825 2225 375 2200 
L 375 2650 
Q 825 2625 1350 2625 
L 5175 2625 
z
M 4525 3575 
L 4525 4525 
L 1900 4525 
L 1900 3575 
L 4525 3575 
z
" transform="scale(0.015625)"/>
      </defs>
      <use xlink:href="#SimHei-6307"/>
      <use xlink:href="#SimHei-4ee4" x="100"/>
      <use xlink:href="#SimHei-884c" x="200"/>
      <use xlink:href="#SimHei-53f7" x="300"/>
      <use xlink:href="#SimHei-20" x="400"/>
      <use xlink:href="#SimHei-4e" x="450"/>
     </g>
    </g>
   </g>
   <g id="patch_7">
    <path d="M 44.35625 450.823965 
L 44.35625 70.931424 
" style="fill: none; stroke: #000000; stroke-width: 0.8; stroke-linejoin: miter; stroke-linecap: square"/>
   </g>
   <g id="patch_8">
    <path d="M 841.29375 450.823965 
L 841.29375 70.931424 
" style="fill: none; stroke: #000000; stroke-width: 0.8; stroke-linejoin: miter; stroke-linecap: square"/>
   </g>
   <g id="patch_9">
    <path d="M 44.35625 450.823965 
L 841.29375 450.823965 
" style="fill: none; stroke: #000000; stroke-width: 0.8; stroke-linejoin: miter; stroke-linecap: square"/>
   </g>
   <g id="patch_10">
    <path d="M 44.35625 70.931424 
L 841.29375 70.931424 
" style="fill: none; stroke: #000000; stroke-width: 0.8; stroke-linejoin: miter; stroke-linecap: square"/>
   </g>
  </g>
 </g>
 <defs>
  <clipPath id="pdc90d6d454">
   <rect x="44.35625" y="70.931424" width="796.9375" height="379.892541"/>
  </clipPath>
 </defs>
</svg>
